ISO-10303-21;
HEADER;
FILE_DESCRIPTION(('Open CASCADE Model'),'2;1');
FILE_NAME('Open CASCADE Shape Model','2026-06-10T00:30:23',('Author'),(
    'Open CASCADE'),'Open CASCADE STEP processor 7.8','Open CASCADE 7.8'
  ,'Unknown');
FILE_SCHEMA(('AUTOMOTIVE_DESIGN { 1 0 10303 214 1 1 1 1 }'));
ENDSEC;
DATA;
#1 = APPLICATION_PROTOCOL_DEFINITION('international standard',
  'automotive_design',2000,#2);
#2 = APPLICATION_CONTEXT(
  'core data for automotive mechanical design processes');
#3 = SHAPE_DEFINITION_REPRESENTATION(#4,#10);
#4 = PRODUCT_DEFINITION_SHAPE('','',#5);
#5 = PRODUCT_DEFINITION('design','',#6,#9);
#6 = PRODUCT_DEFINITION_FORMATION('','',#7);
#7 = PRODUCT('Open CASCADE STEP translator 7.8 11',
  'Open CASCADE STEP translator 7.8 11','',(#8));
#8 = PRODUCT_CONTEXT('',#2,'mechanical');
#9 = PRODUCT_DEFINITION_CONTEXT('part definition',#2,'design');
#10 = ADVANCED_BREP_SHAPE_REPRESENTATION('',(#11,#15),#981);
#11 = AXIS2_PLACEMENT_3D('',#12,#13,#14);
#12 = CARTESIAN_POINT('',(0.,0.,0.));
#13 = DIRECTION('',(0.,0.,1.));
#14 = DIRECTION('',(1.,0.,-0.));
#15 = MANIFOLD_SOLID_BREP('',#16);
#16 = CLOSED_SHELL('',(#17,#109,#166,#512,#547,#637,#700,#763,#826,#867,
    #920,#954));
#17 = ADVANCED_FACE('',(#18),#32,.F.);
#18 = FACE_BOUND('',#19,.F.);
#19 = EDGE_LOOP('',(#20,#50,#81,#82));
#20 = ORIENTED_EDGE('',*,*,#21,.T.);
#21 = EDGE_CURVE('',#22,#24,#26,.T.);
#22 = VERTEX_POINT('',#23);
#23 = CARTESIAN_POINT('',(-8.9,-8.881784197001E-14,113.1));
#24 = VERTEX_POINT('',#25);
#25 = CARTESIAN_POINT('',(-8.9,-9.099771327249E-14,0.));
#26 = SEAM_CURVE('',#27,(#31,#43),.PCURVE_S1.);
#27 = LINE('',#28,#29);
#28 = CARTESIAN_POINT('',(-8.9,-9.099771327249E-14,116.));
#29 = VECTOR('',#30,1.);
#30 = DIRECTION('',(0.,0.,-1.));
#31 = PCURVE('',#32,#37);
#32 = CYLINDRICAL_SURFACE('',#33,8.9);
#33 = AXIS2_PLACEMENT_3D('',#34,#35,#36);
#34 = CARTESIAN_POINT('',(7.105427357601E-14,-8.881784197001E-14,116.));
#35 = DIRECTION('',(0.,0.,-1.));
#36 = DIRECTION('',(-1.,0.,0.));
#37 = DEFINITIONAL_REPRESENTATION('',(#38),#42);
#38 = LINE('',#39,#40);
#39 = CARTESIAN_POINT('',(6.28318530718,-0.));
#40 = VECTOR('',#41,1.);
#41 = DIRECTION('',(0.,1.));
#42 = ( GEOMETRIC_REPRESENTATION_CONTEXT(2) 
PARAMETRIC_REPRESENTATION_CONTEXT() REPRESENTATION_CONTEXT('2D SPACE',''
  ) );
#43 = PCURVE('',#32,#44);
#44 = DEFINITIONAL_REPRESENTATION('',(#45),#49);
#45 = LINE('',#46,#47);
#46 = CARTESIAN_POINT('',(0.,-0.));
#47 = VECTOR('',#48,1.);
#48 = DIRECTION('',(0.,1.));
#49 = ( GEOMETRIC_REPRESENTATION_CONTEXT(2) 
PARAMETRIC_REPRESENTATION_CONTEXT() REPRESENTATION_CONTEXT('2D SPACE',''
  ) );
#50 = ORIENTED_EDGE('',*,*,#51,.F.);
#51 = EDGE_CURVE('',#24,#24,#52,.T.);
#52 = SURFACE_CURVE('',#53,(#58,#65),.PCURVE_S1.);
#53 = CIRCLE('',#54,8.9);
#54 = AXIS2_PLACEMENT_3D('',#55,#56,#57);
#55 = CARTESIAN_POINT('',(7.105427357601E-14,-8.881784197001E-14,0.));
#56 = DIRECTION('',(0.,0.,-1.));
#57 = DIRECTION('',(-1.,0.,0.));
#58 = PCURVE('',#32,#59);
#59 = DEFINITIONAL_REPRESENTATION('',(#60),#64);
#60 = LINE('',#61,#62);
#61 = CARTESIAN_POINT('',(0.,116.));
#62 = VECTOR('',#63,1.);
#63 = DIRECTION('',(1.,0.));
#64 = ( GEOMETRIC_REPRESENTATION_CONTEXT(2) 
PARAMETRIC_REPRESENTATION_CONTEXT() REPRESENTATION_CONTEXT('2D SPACE',''
  ) );
#65 = PCURVE('',#66,#71);
#66 = PLANE('',#67);
#67 = AXIS2_PLACEMENT_3D('',#68,#69,#70);
#68 = CARTESIAN_POINT('',(40.,-1.7763568394E-15,0.));
#69 = DIRECTION('',(0.,0.,1.));
#70 = DIRECTION('',(-0.999048221582,4.361938736494E-02,0.));
#71 = DEFINITIONAL_REPRESENTATION('',(#72),#80);
#72 = ( BOUNDED_CURVE() B_SPLINE_CURVE(2,(#73,#74,#75,#76,#77,#78,#79),
.UNSPECIFIED.,.T.,.F.) B_SPLINE_CURVE_WITH_KNOTS((1,2,2,2,2,1),(
    -2.094395102393,0.,2.094395102393,4.188790204786,6.28318530718,
8.377580409573),.UNSPECIFIED.) CURVE() GEOMETRIC_REPRESENTATION_ITEM() 
RATIONAL_B_SPLINE_CURVE((1.,0.5,1.,0.5,1.,0.5,1.)) REPRESENTATION_ITEM(
  '') );
#73 = CARTESIAN_POINT('',(48.853458035354,2.132988042146));
#74 = CARTESIAN_POINT('',(49.525861891842,-13.26759224087));
#75 = CARTESIAN_POINT('',(35.85236620548,-6.149620920687));
#76 = CARTESIAN_POINT('',(22.178870519118,0.968350399502));
#77 = CARTESIAN_POINT('',(35.179962348991,9.250959362334));
#78 = CARTESIAN_POINT('',(48.181054178865,17.533568325167));
#79 = CARTESIAN_POINT('',(48.853458035354,2.132988042146));
#80 = ( GEOMETRIC_REPRESENTATION_CONTEXT(2) 
PARAMETRIC_REPRESENTATION_CONTEXT() REPRESENTATION_CONTEXT('2D SPACE',''
  ) );
#81 = ORIENTED_EDGE('',*,*,#21,.F.);
#82 = ORIENTED_EDGE('',*,*,#83,.T.);
#83 = EDGE_CURVE('',#22,#22,#84,.T.);
#84 = SURFACE_CURVE('',#85,(#90,#97),.PCURVE_S1.);
#85 = CIRCLE('',#86,8.9);
#86 = AXIS2_PLACEMENT_3D('',#87,#88,#89);
#87 = CARTESIAN_POINT('',(7.105427357601E-14,-8.881784197001E-14,113.1)
  );
#88 = DIRECTION('',(-0.,0.,-1.));
#89 = DIRECTION('',(-1.,0.,0.));
#90 = PCURVE('',#32,#91);
#91 = DEFINITIONAL_REPRESENTATION('',(#92),#96);
#92 = LINE('',#93,#94);
#93 = CARTESIAN_POINT('',(0.,2.9));
#94 = VECTOR('',#95,1.);
#95 = DIRECTION('',(1.,0.));
#96 = ( GEOMETRIC_REPRESENTATION_CONTEXT(2) 
PARAMETRIC_REPRESENTATION_CONTEXT() REPRESENTATION_CONTEXT('2D SPACE',''
  ) );
#97 = PCURVE('',#98,#103);
#98 = CONICAL_SURFACE('',#99,8.9,0.785398163397);
#99 = AXIS2_PLACEMENT_3D('',#100,#101,#102);
#100 = CARTESIAN_POINT('',(7.105427357601E-14,-8.881784197001E-14,113.1)
  );
#101 = DIRECTION('',(0.,0.,1.));
#102 = DIRECTION('',(-1.,0.,0.));
#103 = DEFINITIONAL_REPRESENTATION('',(#104),#108);
#104 = LINE('',#105,#106);
#105 = CARTESIAN_POINT('',(-0.,0.));
#106 = VECTOR('',#107,1.);
#107 = DIRECTION('',(-1.,0.));
#108 = ( GEOMETRIC_REPRESENTATION_CONTEXT(2) 
PARAMETRIC_REPRESENTATION_CONTEXT() REPRESENTATION_CONTEXT('2D SPACE',''
  ) );
#109 = ADVANCED_FACE('',(#110),#98,.F.);
#110 = FACE_BOUND('',#111,.T.);
#111 = EDGE_LOOP('',(#112,#133,#134,#135));
#112 = ORIENTED_EDGE('',*,*,#113,.F.);
#113 = EDGE_CURVE('',#22,#114,#116,.T.);
#114 = VERTEX_POINT('',#115);
#115 = CARTESIAN_POINT('',(-11.8,-8.881784197001E-14,116.));
#116 = SEAM_CURVE('',#117,(#121,#127),.PCURVE_S1.);
#117 = LINE('',#118,#119);
#118 = CARTESIAN_POINT('',(-8.9,-8.881784197001E-14,113.1));
#119 = VECTOR('',#120,1.);
#120 = DIRECTION('',(-0.707106781187,0.,0.707106781187));
#121 = PCURVE('',#98,#122);
#122 = DEFINITIONAL_REPRESENTATION('',(#123),#126);
#123 = B_SPLINE_CURVE_WITH_KNOTS('',1,(#124,#125),.UNSPECIFIED.,.F.,.F.,
  (2,2),(0.,4.101219330882),.PIECEWISE_BEZIER_KNOTS.);
#124 = CARTESIAN_POINT('',(0.,0.));
#125 = CARTESIAN_POINT('',(0.,2.9));
#126 = ( GEOMETRIC_REPRESENTATION_CONTEXT(2) 
PARAMETRIC_REPRESENTATION_CONTEXT() REPRESENTATION_CONTEXT('2D SPACE',''
  ) );
#127 = PCURVE('',#98,#128);
#128 = DEFINITIONAL_REPRESENTATION('',(#129),#132);
#129 = B_SPLINE_CURVE_WITH_KNOTS('',1,(#130,#131),.UNSPECIFIED.,.F.,.F.,
  (2,2),(0.,4.101219330882),.PIECEWISE_BEZIER_KNOTS.);
#130 = CARTESIAN_POINT('',(-6.28318530718,0.));
#131 = CARTESIAN_POINT('',(-6.28318530718,2.9));
#132 = ( GEOMETRIC_REPRESENTATION_CONTEXT(2) 
PARAMETRIC_REPRESENTATION_CONTEXT() REPRESENTATION_CONTEXT('2D SPACE',''
  ) );
#133 = ORIENTED_EDGE('',*,*,#83,.T.);
#134 = ORIENTED_EDGE('',*,*,#113,.T.);
#135 = ORIENTED_EDGE('',*,*,#136,.F.);
#136 = EDGE_CURVE('',#114,#114,#137,.T.);
#137 = SURFACE_CURVE('',#138,(#143,#150),.PCURVE_S1.);
#138 = CIRCLE('',#139,11.8);
#139 = AXIS2_PLACEMENT_3D('',#140,#141,#142);
#140 = CARTESIAN_POINT('',(7.105427357601E-14,-8.881784197001E-14,116.)
  );
#141 = DIRECTION('',(-0.,0.,-1.));
#142 = DIRECTION('',(-1.,0.,0.));
#143 = PCURVE('',#98,#144);
#144 = DEFINITIONAL_REPRESENTATION('',(#145),#149);
#145 = LINE('',#146,#147);
#146 = CARTESIAN_POINT('',(-0.,2.9));
#147 = VECTOR('',#148,1.);
#148 = DIRECTION('',(-1.,0.));
#149 = ( GEOMETRIC_REPRESENTATION_CONTEXT(2) 
PARAMETRIC_REPRESENTATION_CONTEXT() REPRESENTATION_CONTEXT('2D SPACE',''
  ) );
#150 = PCURVE('',#151,#156);
#151 = PLANE('',#152);
#152 = AXIS2_PLACEMENT_3D('',#153,#154,#155);
#153 = CARTESIAN_POINT('',(7.083143132578E-14,-8.910892085826E-14,116.)
  );
#154 = DIRECTION('',(0.,0.,1.));
#155 = DIRECTION('',(1.,0.,-0.));
#156 = DEFINITIONAL_REPRESENTATION('',(#157),#165);
#157 = ( BOUNDED_CURVE() B_SPLINE_CURVE(2,(#158,#159,#160,#161,#162,#163
,#164),.UNSPECIFIED.,.T.,.F.) B_SPLINE_CURVE_WITH_KNOTS((1,2,2,2,2,1),(
    -2.094395102393,0.,2.094395102393,4.188790204786,6.28318530718,
8.377580409573),.UNSPECIFIED.) CURVE() GEOMETRIC_REPRESENTATION_ITEM() 
RATIONAL_B_SPLINE_CURVE((1.,0.5,1.,0.5,1.,0.5,1.)) REPRESENTATION_ITEM(
  '') );
#158 = CARTESIAN_POINT('',(-11.8,2.910788882461E-16));
#159 = CARTESIAN_POINT('',(-11.8,20.438199529313));
#160 = CARTESIAN_POINT('',(5.9,10.219099764656));
#161 = CARTESIAN_POINT('',(23.6,3.181245334234E-15));
#162 = CARTESIAN_POINT('',(5.9,-10.21909976465));
#163 = CARTESIAN_POINT('',(-11.8,-20.43819952931));
#164 = CARTESIAN_POINT('',(-11.8,2.910788882461E-16));
#165 = ( GEOMETRIC_REPRESENTATION_CONTEXT(2) 
PARAMETRIC_REPRESENTATION_CONTEXT() REPRESENTATION_CONTEXT('2D SPACE',''
  ) );
#166 = ADVANCED_FACE('',(#167,#509),#66,.F.);
#167 = FACE_BOUND('',#168,.F.);
#168 = EDGE_LOOP('',(#169,#239,#307,#375,#443));
#169 = ORIENTED_EDGE('',*,*,#170,.T.);
#170 = EDGE_CURVE('',#171,#173,#175,.T.);
#171 = VERTEX_POINT('',#172);
#172 = CARTESIAN_POINT('',(40.,0.,0.));
#173 = VERTEX_POINT('',#174);
#174 = CARTESIAN_POINT('',(28.284271247462,28.284271247462,0.));
#175 = SURFACE_CURVE('',#176,(#187,#201),.PCURVE_S1.);
#176 = B_SPLINE_CURVE_WITH_KNOTS('',9,(#177,#178,#179,#180,#181,#182,
    #183,#184,#185,#186),.UNSPECIFIED.,.F.,.F.,(10,10),(0.,1.),
  .PIECEWISE_BEZIER_KNOTS.);
#177 = CARTESIAN_POINT('',(40.,-1.7763568394E-15,0.));
#178 = CARTESIAN_POINT('',(40.,3.490658503989,0.));
#179 = CARTESIAN_POINT('',(39.657305259828,6.981316954296,0.));
#180 = CARTESIAN_POINT('',(38.971916541518,10.433525384867,0.));
#181 = CARTESIAN_POINT('',(37.948865337012,13.808832993331,0.));
#182 = CARTESIAN_POINT('',(36.598219467993,17.069580568279,0.));
#183 = CARTESIAN_POINT('',(34.934923013665,20.179689911022,0.));
#184 = CARTESIAN_POINT('',(32.978486032805,23.105412912814,0.));
#185 = CARTESIAN_POINT('',(30.752539546439,25.816002948485,0.));
#186 = CARTESIAN_POINT('',(28.284271247462,28.284271247462,0.));
#187 = PCURVE('',#66,#188);
#188 = DEFINITIONAL_REPRESENTATION('',(#189),#200);
#189 = B_SPLINE_CURVE_WITH_KNOTS('',9,(#190,#191,#192,#193,#194,#195,
    #196,#197,#198,#199),.UNSPECIFIED.,.F.,.F.,(10,10),(0.,1.),
  .PIECEWISE_BEZIER_KNOTS.);
#190 = CARTESIAN_POINT('',(0.,0.));
#191 = CARTESIAN_POINT('',(0.152260385444,-3.48733617056));
#192 = CARTESIAN_POINT('',(0.646889339261,-6.959724152869));
#193 = CARTESIAN_POINT('',(1.482208936179,-10.37875060996));
#194 = CARTESIAN_POINT('',(2.651515272677,-13.7062208067));
#195 = CARTESIAN_POINT('',(4.143107437678,-16.90495052713));
#196 = CARTESIAN_POINT('',(5.940481866507,-19.93954776258));
#197 = CARTESIAN_POINT('',(8.02267499781,-22.77714754183));
#198 = CARTESIAN_POINT('',(10.364737153104,-25.38806327437));
#199 = CARTESIAN_POINT('',(12.938320558637,-27.74631797779));
#200 = ( GEOMETRIC_REPRESENTATION_CONTEXT(2) 
PARAMETRIC_REPRESENTATION_CONTEXT() REPRESENTATION_CONTEXT('2D SPACE',''
  ) );
#201 = PCURVE('',#202,#233);
#202 = B_SPLINE_SURFACE_WITH_KNOTS('',9,2,(
    (#203,#204,#205)
    ,(#206,#207,#208)
    ,(#209,#210,#211)
    ,(#212,#213,#214)
    ,(#215,#216,#217)
    ,(#218,#219,#220)
    ,(#221,#222,#223)
    ,(#224,#225,#226)
    ,(#227,#228,#229)
    ,(#230,#231,#232
    )),.UNSPECIFIED.,.F.,.F.,.F.,(10,10),(3,3),(0.,1.),(0.,1.),
  .PIECEWISE_BEZIER_KNOTS.);
#203 = CARTESIAN_POINT('',(40.,-1.7763568394E-15,0.));
#204 = CARTESIAN_POINT('',(33.45,-2.6645352591E-15,42.25));
#205 = CARTESIAN_POINT('',(26.9,0.,84.5));
#206 = CARTESIAN_POINT('',(40.,3.490658503989,0.));
#207 = CARTESIAN_POINT('',(33.45,2.598352651482,42.25));
#208 = CARTESIAN_POINT('',(26.9,2.988888888889,84.5));
#209 = CARTESIAN_POINT('',(39.657305259828,6.981316954296,0.));
#210 = CARTESIAN_POINT('',(33.048190417148,5.196705240023,42.25));
#211 = CARTESIAN_POINT('',(26.9,5.977777777778,84.5));
#212 = CARTESIAN_POINT('',(38.971916541518,10.433525384867,0.));
#213 = CARTESIAN_POINT('',(32.24457214493,7.749975180423,42.25));
#214 = CARTESIAN_POINT('',(26.9,8.966666666667,84.5));
#215 = CARTESIAN_POINT('',(37.948865337012,13.808832993331,0.));
#216 = CARTESIAN_POINT('',(31.045044607646,10.213078906903,42.25));
#217 = CARTESIAN_POINT('',(26.9,11.955555555556,84.5));
#218 = CARTESIAN_POINT('',(36.598219467993,17.069580568279,0.));
#219 = CARTESIAN_POINT('',(29.461412326222,12.541860994085,42.25));
#220 = CARTESIAN_POINT('',(26.9,14.944444444444,84.5));
#221 = CARTESIAN_POINT('',(34.934923013665,20.179689911022,0.));
#222 = CARTESIAN_POINT('',(27.511197233522,14.694019754007,42.25));
#223 = CARTESIAN_POINT('',(26.9,17.933333333333,84.5));
#224 = CARTESIAN_POINT('',(32.978486032805,23.105412912814,0.));
#225 = CARTESIAN_POINT('',(25.217274873464,16.629985529163,42.25));
#226 = CARTESIAN_POINT('',(26.9,20.922222222222,84.5));
#227 = CARTESIAN_POINT('',(30.752539546439,25.816002948485,0.));
#228 = CARTESIAN_POINT('',(22.607352618199,18.313707901543,42.25));
#229 = CARTESIAN_POINT('',(26.9,23.911111111111,84.5));
#230 = CARTESIAN_POINT('',(28.284271247462,28.284271247462,0.));
#231 = CARTESIAN_POINT('',(19.713308037649,19.713308037649,42.25));
#232 = CARTESIAN_POINT('',(26.9,26.9,84.5));
#233 = DEFINITIONAL_REPRESENTATION('',(#234),#238);
#234 = LINE('',#235,#236);
#235 = CARTESIAN_POINT('',(0.,0.));
#236 = VECTOR('',#237,1.);
#237 = DIRECTION('',(1.,0.));
#238 = ( GEOMETRIC_REPRESENTATION_CONTEXT(2) 
PARAMETRIC_REPRESENTATION_CONTEXT() REPRESENTATION_CONTEXT('2D SPACE',''
  ) );
#239 = ORIENTED_EDGE('',*,*,#240,.T.);
#240 = EDGE_CURVE('',#173,#241,#243,.T.);
#241 = VERTEX_POINT('',#242);
#242 = CARTESIAN_POINT('',(-28.28427124746,28.284271247462,0.));
#243 = SURFACE_CURVE('',#244,(#255,#269),.PCURVE_S1.);
#244 = B_SPLINE_CURVE_WITH_KNOTS('',9,(#245,#246,#247,#248,#249,#250,
    #251,#252,#253,#254),.UNSPECIFIED.,.F.,.F.,(10,10),(1.,2.),
  .PIECEWISE_BEZIER_KNOTS.);
#245 = CARTESIAN_POINT('',(28.284271247462,28.284271247462,0.));
#246 = CARTESIAN_POINT('',(23.347734649508,33.220807845415,0.));
#247 = CARTESIAN_POINT('',(17.44191136478,37.188057898079,0.));
#248 = CARTESIAN_POINT('',(10.78430873926,39.968512703197,0.));
#249 = CARTESIAN_POINT('',(3.649377942975,41.401613539485,0.));
#250 = CARTESIAN_POINT('',(-3.649377942975,41.401613539481,0.));
#251 = CARTESIAN_POINT('',(-10.78430873926,39.9685127032,0.));
#252 = CARTESIAN_POINT('',(-17.44191136477,37.188057898077,0.));
#253 = CARTESIAN_POINT('',(-23.3477346495,33.220807845416,0.));
#254 = CARTESIAN_POINT('',(-28.28427124746,28.284271247462,0.));
#255 = PCURVE('',#66,#256);
#256 = DEFINITIONAL_REPRESENTATION('',(#257),#268);
#257 = B_SPLINE_CURVE_WITH_KNOTS('',9,(#258,#259,#260,#261,#262,#263,
    #264,#265,#266,#267),.UNSPECIFIED.,.F.,.F.,(10,10),(1.,2.),
  .PIECEWISE_BEZIER_KNOTS.);
#258 = CARTESIAN_POINT('',(12.938320558637,-27.74631797779));
#259 = CARTESIAN_POINT('',(18.085487369704,-32.46282738464));
#260 = CARTESIAN_POINT('',(24.15873863611,-36.16869310076));
#261 = CARTESIAN_POINT('',(30.931286434329,-38.65610098116));
#262 = CARTESIAN_POINT('',(38.121937337978,-39.77661651278));
#263 = CARTESIAN_POINT('',(45.413746425597,-39.4582492525));
#264 = CARTESIAN_POINT('',(52.479375368224,-37.71529110044));
#265 = CARTESIAN_POINT('',(59.009359696053,-34.64708212435));
#266 = CARTESIAN_POINT('',(64.736512928817,-30.4259996211));
#267 = CARTESIAN_POINT('',(69.453022335669,-25.27883281004));
#268 = ( GEOMETRIC_REPRESENTATION_CONTEXT(2) 
PARAMETRIC_REPRESENTATION_CONTEXT() REPRESENTATION_CONTEXT('2D SPACE',''
  ) );
#269 = PCURVE('',#270,#301);
#270 = B_SPLINE_SURFACE_WITH_KNOTS('',9,2,(
    (#271,#272,#273)
    ,(#274,#275,#276)
    ,(#277,#278,#279)
    ,(#280,#281,#282)
    ,(#283,#284,#285)
    ,(#286,#287,#288)
    ,(#289,#290,#291)
    ,(#292,#293,#294)
    ,(#295,#296,#297)
    ,(#298,#299,#300
    )),.UNSPECIFIED.,.F.,.F.,.F.,(10,10),(3,3),(1.,2.),(0.,1.),
  .PIECEWISE_BEZIER_KNOTS.);
#271 = CARTESIAN_POINT('',(28.284271247462,28.284271247462,0.));
#272 = CARTESIAN_POINT('',(19.713308037649,19.713308037649,42.25));
#273 = CARTESIAN_POINT('',(26.9,26.9,84.5));
#274 = CARTESIAN_POINT('',(23.347734649508,33.220807845415,0.));
#275 = CARTESIAN_POINT('',(16.914107765437,25.501397198749,
    42.249999999999));
#276 = CARTESIAN_POINT('',(20.922222222222,26.9,84.5));
#277 = CARTESIAN_POINT('',(17.44191136478,37.188057898079,0.));
#278 = CARTESIAN_POINT('',(12.978418852982,30.152997885497,
    42.250000000003));
#279 = CARTESIAN_POINT('',(14.944444444444,26.9,84.5));
#280 = CARTESIAN_POINT('',(10.78430873926,39.968512703197,0.));
#281 = CARTESIAN_POINT('',(8.16126866345,33.4130811445,42.249999999995)
  );
#282 = CARTESIAN_POINT('',(8.966666666667,26.9,84.5));
#283 = CARTESIAN_POINT('',(3.649377942975,41.401613539485,0.));
#284 = CARTESIAN_POINT('',(2.784451193693,35.093391875046,
    42.250000000004));
#285 = CARTESIAN_POINT('',(2.988888888889,26.9,84.5));
#286 = CARTESIAN_POINT('',(-3.649377942975,41.401613539481,0.));
#287 = CARTESIAN_POINT('',(-2.784451193692,35.093391875041,
    42.249999999997));
#288 = CARTESIAN_POINT('',(-2.988888888889,26.9,84.5));
#289 = CARTESIAN_POINT('',(-10.78430873926,39.9685127032,0.));
#290 = CARTESIAN_POINT('',(-8.16126866345,33.413081144504,
    42.250000000001));
#291 = CARTESIAN_POINT('',(-8.966666666667,26.9,84.5));
#292 = CARTESIAN_POINT('',(-17.44191136477,37.188057898077,0.));
#293 = CARTESIAN_POINT('',(-12.97841885298,30.152997885495,42.25));
#294 = CARTESIAN_POINT('',(-14.94444444444,26.9,84.5));
#295 = CARTESIAN_POINT('',(-23.3477346495,33.220807845416,0.));
#296 = CARTESIAN_POINT('',(-16.91410776543,25.50139719875,42.25));
#297 = CARTESIAN_POINT('',(-20.92222222222,26.9,84.5));
#298 = CARTESIAN_POINT('',(-28.28427124746,28.284271247462,0.));
#299 = CARTESIAN_POINT('',(-19.71330803764,19.713308037649,
    42.249999999998));
#300 = CARTESIAN_POINT('',(-26.9,26.9,84.5));
#301 = DEFINITIONAL_REPRESENTATION('',(#302),#306);
#302 = LINE('',#303,#304);
#303 = CARTESIAN_POINT('',(0.,0.));
#304 = VECTOR('',#305,1.);
#305 = DIRECTION('',(1.,0.));
#306 = ( GEOMETRIC_REPRESENTATION_CONTEXT(2) 
PARAMETRIC_REPRESENTATION_CONTEXT() REPRESENTATION_CONTEXT('2D SPACE',''
  ) );
#307 = ORIENTED_EDGE('',*,*,#308,.T.);
#308 = EDGE_CURVE('',#241,#309,#311,.T.);
#309 = VERTEX_POINT('',#310);
#310 = CARTESIAN_POINT('',(-28.28427124746,-28.28427124746,0.));
#311 = SURFACE_CURVE('',#312,(#323,#337),.PCURVE_S1.);
#312 = B_SPLINE_CURVE_WITH_KNOTS('',9,(#313,#314,#315,#316,#317,#318,
    #319,#320,#321,#322),.UNSPECIFIED.,.F.,.F.,(10,10),(2.,3.),
  .PIECEWISE_BEZIER_KNOTS.);
#313 = CARTESIAN_POINT('',(-28.28427124746,28.284271247462,0.));
#314 = CARTESIAN_POINT('',(-33.22080784541,23.347734649508,0.));
#315 = CARTESIAN_POINT('',(-37.18805789808,17.44191136478,0.));
#316 = CARTESIAN_POINT('',(-39.96851270319,10.784308739259,0.));
#317 = CARTESIAN_POINT('',(-41.40161353949,3.649377942976,0.));
#318 = CARTESIAN_POINT('',(-41.40161353947,-3.649377942975,0.));
#319 = CARTESIAN_POINT('',(-39.9685127032,-10.78430873926,0.));
#320 = CARTESIAN_POINT('',(-37.18805789807,-17.44191136477,0.));
#321 = CARTESIAN_POINT('',(-33.22080784541,-23.3477346495,0.));
#322 = CARTESIAN_POINT('',(-28.28427124746,-28.28427124746,0.));
#323 = PCURVE('',#66,#324);
#324 = DEFINITIONAL_REPRESENTATION('',(#325),#336);
#325 = B_SPLINE_CURVE_WITH_KNOTS('',9,(#326,#327,#328,#329,#330,#331,
    #332,#333,#334,#335),.UNSPECIFIED.,.F.,.F.,(10,10),(2.,3.),
  .PIECEWISE_BEZIER_KNOTS.);
#326 = CARTESIAN_POINT('',(69.453022335669,-25.27883281004));
#327 = CARTESIAN_POINT('',(74.16953174252,-20.13166599897));
#328 = CARTESIAN_POINT('',(77.875397458643,-14.05841473256));
#329 = CARTESIAN_POINT('',(80.36280533903,-7.285866934348));
#330 = CARTESIAN_POINT('',(81.483320870664,-9.521603069914E-02));
#331 = CARTESIAN_POINT('',(81.164953610368,7.196593056919));
#332 = CARTESIAN_POINT('',(79.421995458326,14.262221999547));
#333 = CARTESIAN_POINT('',(76.353786482224,20.792206327375));
#334 = CARTESIAN_POINT('',(72.132703978981,26.51935956014));
#335 = CARTESIAN_POINT('',(66.985537167913,31.235868966992));
#336 = ( GEOMETRIC_REPRESENTATION_CONTEXT(2) 
PARAMETRIC_REPRESENTATION_CONTEXT() REPRESENTATION_CONTEXT('2D SPACE',''
  ) );
#337 = PCURVE('',#338,#369);
#338 = B_SPLINE_SURFACE_WITH_KNOTS('',9,2,(
    (#339,#340,#341)
    ,(#342,#343,#344)
    ,(#345,#346,#347)
    ,(#348,#349,#350)
    ,(#351,#352,#353)
    ,(#354,#355,#356)
    ,(#357,#358,#359)
    ,(#360,#361,#362)
    ,(#363,#364,#365)
    ,(#366,#367,#368
    )),.UNSPECIFIED.,.F.,.F.,.F.,(10,10),(3,3),(2.,3.),(0.,1.),
  .PIECEWISE_BEZIER_KNOTS.);
#339 = CARTESIAN_POINT('',(-28.28427124746,28.284271247462,0.));
#340 = CARTESIAN_POINT('',(-19.71330803764,19.713308037649,
    42.249999999998));
#341 = CARTESIAN_POINT('',(-26.9,26.9,84.5));
#342 = CARTESIAN_POINT('',(-33.22080784541,23.347734649508,0.));
#343 = CARTESIAN_POINT('',(-25.50139719874,16.914107765437,
    42.249999999997));
#344 = CARTESIAN_POINT('',(-26.9,20.922222222222,84.5));
#345 = CARTESIAN_POINT('',(-37.18805789808,17.44191136478,0.));
#346 = CARTESIAN_POINT('',(-30.1529978855,12.978418852982,
    42.250000000011));
#347 = CARTESIAN_POINT('',(-26.9,14.944444444444,84.5));
#348 = CARTESIAN_POINT('',(-39.96851270319,10.784308739259,0.));
#349 = CARTESIAN_POINT('',(-33.41308114449,8.161268663449,42.24999999998
    ));
#350 = CARTESIAN_POINT('',(-26.9,8.966666666667,84.5));
#351 = CARTESIAN_POINT('',(-41.40161353949,3.649377942976,0.));
#352 = CARTESIAN_POINT('',(-35.09339187505,2.784451193694,
    42.250000000026));
#353 = CARTESIAN_POINT('',(-26.9,2.988888888889,84.5));
#354 = CARTESIAN_POINT('',(-41.40161353947,-3.649377942975,0.));
#355 = CARTESIAN_POINT('',(-35.09339187503,-2.784451193694,
    42.249999999977));
#356 = CARTESIAN_POINT('',(-26.9,-2.988888888889,84.5));
#357 = CARTESIAN_POINT('',(-39.9685127032,-10.78430873926,0.));
#358 = CARTESIAN_POINT('',(-33.4130811445,-8.161268663449,
    42.250000000015));
#359 = CARTESIAN_POINT('',(-26.9,-8.966666666667,84.5));
#360 = CARTESIAN_POINT('',(-37.18805789807,-17.44191136477,0.));
#361 = CARTESIAN_POINT('',(-30.15299788549,-12.97841885298,
    42.249999999994));
#362 = CARTESIAN_POINT('',(-26.9,-14.94444444444,84.5));
#363 = CARTESIAN_POINT('',(-33.22080784541,-23.3477346495,0.));
#364 = CARTESIAN_POINT('',(-25.50139719875,-16.91410776543,
    42.250000000002));
#365 = CARTESIAN_POINT('',(-26.9,-20.92222222222,84.5));
#366 = CARTESIAN_POINT('',(-28.28427124746,-28.28427124746,0.));
#367 = CARTESIAN_POINT('',(-19.71330803764,-19.71330803764,
    42.250000000001));
#368 = CARTESIAN_POINT('',(-26.9,-26.9,84.5));
#369 = DEFINITIONAL_REPRESENTATION('',(#370),#374);
#370 = LINE('',#371,#372);
#371 = CARTESIAN_POINT('',(0.,0.));
#372 = VECTOR('',#373,1.);
#373 = DIRECTION('',(1.,0.));
#374 = ( GEOMETRIC_REPRESENTATION_CONTEXT(2) 
PARAMETRIC_REPRESENTATION_CONTEXT() REPRESENTATION_CONTEXT('2D SPACE',''
  ) );
#375 = ORIENTED_EDGE('',*,*,#376,.T.);
#376 = EDGE_CURVE('',#309,#377,#379,.T.);
#377 = VERTEX_POINT('',#378);
#378 = CARTESIAN_POINT('',(28.284271247462,-28.28427124746,0.));
#379 = SURFACE_CURVE('',#380,(#391,#405),.PCURVE_S1.);
#380 = B_SPLINE_CURVE_WITH_KNOTS('',9,(#381,#382,#383,#384,#385,#386,
    #387,#388,#389,#390),.UNSPECIFIED.,.F.,.F.,(10,10),(3.,4.),
  .PIECEWISE_BEZIER_KNOTS.);
#381 = CARTESIAN_POINT('',(-28.28427124746,-28.28427124746,0.));
#382 = CARTESIAN_POINT('',(-23.3477346495,-33.22080784541,0.));
#383 = CARTESIAN_POINT('',(-17.44191136477,-37.18805789807,0.));
#384 = CARTESIAN_POINT('',(-10.78430873926,-39.9685127032,0.));
#385 = CARTESIAN_POINT('',(-3.649377942973,-41.40161353948,0.));
#386 = CARTESIAN_POINT('',(3.649377942973,-41.40161353948,0.));
#387 = CARTESIAN_POINT('',(10.784308739261,-39.9685127032,0.));
#388 = CARTESIAN_POINT('',(17.441911364779,-37.18805789807,0.));
#389 = CARTESIAN_POINT('',(23.347734649508,-33.22080784541,0.));
#390 = CARTESIAN_POINT('',(28.284271247462,-28.28427124746,0.));
#391 = PCURVE('',#66,#392);
#392 = DEFINITIONAL_REPRESENTATION('',(#393),#404);
#393 = B_SPLINE_CURVE_WITH_KNOTS('',9,(#394,#395,#396,#397,#398,#399,
    #400,#401,#402,#403),.UNSPECIFIED.,.F.,.F.,(10,10),(3.,4.),
  .PIECEWISE_BEZIER_KNOTS.);
#394 = CARTESIAN_POINT('',(66.985537167913,31.235868966992));
#395 = CARTESIAN_POINT('',(61.838370356846,35.952378373844));
#396 = CARTESIAN_POINT('',(55.76511909044,39.658244089961));
#397 = CARTESIAN_POINT('',(48.992571292222,42.145651970363));
#398 = CARTESIAN_POINT('',(41.80192038857,43.266167501974));
#399 = CARTESIAN_POINT('',(34.510111300955,42.947800241702));
#400 = CARTESIAN_POINT('',(27.444482358324,41.204842089642));
#401 = CARTESIAN_POINT('',(20.914498030498,38.13663311355));
#402 = CARTESIAN_POINT('',(15.187344797733,33.915550610303));
#403 = CARTESIAN_POINT('',(10.470835390881,28.768383799236));
#404 = ( GEOMETRIC_REPRESENTATION_CONTEXT(2) 
PARAMETRIC_REPRESENTATION_CONTEXT() REPRESENTATION_CONTEXT('2D SPACE',''
  ) );
#405 = PCURVE('',#406,#437);
#406 = B_SPLINE_SURFACE_WITH_KNOTS('',9,2,(
    (#407,#408,#409)
    ,(#410,#411,#412)
    ,(#413,#414,#415)
    ,(#416,#417,#418)
    ,(#419,#420,#421)
    ,(#422,#423,#424)
    ,(#425,#426,#427)
    ,(#428,#429,#430)
    ,(#431,#432,#433)
    ,(#434,#435,#436
    )),.UNSPECIFIED.,.F.,.F.,.F.,(10,10),(3,3),(3.,4.),(0.,1.),
  .PIECEWISE_BEZIER_KNOTS.);
#407 = CARTESIAN_POINT('',(-28.28427124746,-28.28427124746,0.));
#408 = CARTESIAN_POINT('',(-19.71330803764,-19.71330803764,
    42.250000000001));
#409 = CARTESIAN_POINT('',(-26.9,-26.9,84.5));
#410 = CARTESIAN_POINT('',(-23.3477346495,-33.22080784541,0.));
#411 = CARTESIAN_POINT('',(-16.91410776543,-25.50139719875,42.25));
#412 = CARTESIAN_POINT('',(-20.92222222222,-26.9,84.5));
#413 = CARTESIAN_POINT('',(-17.44191136477,-37.18805789807,0.));
#414 = CARTESIAN_POINT('',(-12.97841885298,-30.15299788549,
    42.250000000001));
#415 = CARTESIAN_POINT('',(-14.94444444444,-26.9,84.5));
#416 = CARTESIAN_POINT('',(-10.78430873926,-39.9685127032,0.));
#417 = CARTESIAN_POINT('',(-8.161268663452,-33.4130811445,
    42.249999999998));
#418 = CARTESIAN_POINT('',(-8.966666666667,-26.9,84.5));
#419 = CARTESIAN_POINT('',(-3.649377942973,-41.40161353948,0.));
#420 = CARTESIAN_POINT('',(-2.78445119369,-35.09339187503,
    42.250000000004));
#421 = CARTESIAN_POINT('',(-2.988888888889,-26.9,84.5));
#422 = CARTESIAN_POINT('',(3.649377942973,-41.40161353948,0.));
#423 = CARTESIAN_POINT('',(2.78445119369,-35.09339187505,42.249999999995
    ));
#424 = CARTESIAN_POINT('',(2.988888888889,-26.9,84.5));
#425 = CARTESIAN_POINT('',(10.784308739261,-39.9685127032,0.));
#426 = CARTESIAN_POINT('',(8.161268663452,-33.41308114449,
    42.250000000004));
#427 = CARTESIAN_POINT('',(8.966666666667,-26.9,84.5));
#428 = CARTESIAN_POINT('',(17.441911364779,-37.18805789807,0.));
#429 = CARTESIAN_POINT('',(12.97841885298,-30.15299788549,
    42.249999999998));
#430 = CARTESIAN_POINT('',(14.944444444444,-26.9,84.5));
#431 = CARTESIAN_POINT('',(23.347734649508,-33.22080784541,0.));
#432 = CARTESIAN_POINT('',(16.914107765437,-25.50139719874,
    42.250000000001));
#433 = CARTESIAN_POINT('',(20.922222222222,-26.9,84.5));
#434 = CARTESIAN_POINT('',(28.284271247462,-28.28427124746,0.));
#435 = CARTESIAN_POINT('',(19.713308037649,-19.71330803764,42.25));
#436 = CARTESIAN_POINT('',(26.9,-26.9,84.5));
#437 = DEFINITIONAL_REPRESENTATION('',(#438),#442);
#438 = LINE('',#439,#440);
#439 = CARTESIAN_POINT('',(0.,0.));
#440 = VECTOR('',#441,1.);
#441 = DIRECTION('',(1.,0.));
#442 = ( GEOMETRIC_REPRESENTATION_CONTEXT(2) 
PARAMETRIC_REPRESENTATION_CONTEXT() REPRESENTATION_CONTEXT('2D SPACE',''
  ) );
#443 = ORIENTED_EDGE('',*,*,#444,.T.);
#444 = EDGE_CURVE('',#377,#171,#445,.T.);
#445 = SURFACE_CURVE('',#446,(#457,#471),.PCURVE_S1.);
#446 = B_SPLINE_CURVE_WITH_KNOTS('',9,(#447,#448,#449,#450,#451,#452,
    #453,#454,#455,#456),.UNSPECIFIED.,.F.,.F.,(10,10),(4.,5.),
  .PIECEWISE_BEZIER_KNOTS.);
#447 = CARTESIAN_POINT('',(28.284271247462,-28.28427124746,0.));
#448 = CARTESIAN_POINT('',(30.752539546439,-25.81600294848,0.));
#449 = CARTESIAN_POINT('',(32.978486032805,-23.10541291281,0.));
#450 = CARTESIAN_POINT('',(34.934923013665,-20.17968991102,0.));
#451 = CARTESIAN_POINT('',(36.598219467993,-17.06958056827,0.));
#452 = CARTESIAN_POINT('',(37.948865337012,-13.80883299333,0.));
#453 = CARTESIAN_POINT('',(38.971916541518,-10.43352538486,0.));
#454 = CARTESIAN_POINT('',(39.657305259828,-6.981316954296,0.));
#455 = CARTESIAN_POINT('',(40.,-3.490658503989,0.));
#456 = CARTESIAN_POINT('',(40.,-7.105427357601E-15,0.));
#457 = PCURVE('',#66,#458);
#458 = DEFINITIONAL_REPRESENTATION('',(#459),#470);
#459 = B_SPLINE_CURVE_WITH_KNOTS('',9,(#460,#461,#462,#463,#464,#465,
    #466,#467,#468,#469),.UNSPECIFIED.,.F.,.F.,(10,10),(4.,5.),
  .PIECEWISE_BEZIER_KNOTS.);
#460 = CARTESIAN_POINT('',(10.470835390881,28.768383799236));
#461 = CARTESIAN_POINT('',(8.112580687455,26.194800393702));
#462 = CARTESIAN_POINT('',(6.006987085668,23.389695817085));
#463 = CARTESIAN_POINT('',(4.18003044424,20.381418872781));
#464 = CARTESIAN_POINT('',(2.653978143749,17.201717692644));
#465 = CARTESIAN_POINT('',(1.446849601889,13.885159281511));
#466 = CARTESIAN_POINT('',(0.57200096549,10.468439351199));
#467 = CARTESIAN_POINT('',(3.78478021674E-02,6.989620422109));
#468 = CARTESIAN_POINT('',(-0.152260385444,3.48733617056));
#469 = CARTESIAN_POINT('',(7.105427357601E-15,5.551115123126E-15));
#470 = ( GEOMETRIC_REPRESENTATION_CONTEXT(2) 
PARAMETRIC_REPRESENTATION_CONTEXT() REPRESENTATION_CONTEXT('2D SPACE',''
  ) );
#471 = PCURVE('',#472,#503);
#472 = B_SPLINE_SURFACE_WITH_KNOTS('',9,2,(
    (#473,#474,#475)
    ,(#476,#477,#478)
    ,(#479,#480,#481)
    ,(#482,#483,#484)
    ,(#485,#486,#487)
    ,(#488,#489,#490)
    ,(#491,#492,#493)
    ,(#494,#495,#496)
    ,(#497,#498,#499)
    ,(#500,#501,#502
    )),.UNSPECIFIED.,.F.,.F.,.F.,(10,10),(3,3),(4.,5.),(0.,1.),
  .PIECEWISE_BEZIER_KNOTS.);
#473 = CARTESIAN_POINT('',(28.284271247462,-28.28427124746,0.));
#474 = CARTESIAN_POINT('',(19.713308037649,-19.71330803764,42.25));
#475 = CARTESIAN_POINT('',(26.9,-26.9,84.5));
#476 = CARTESIAN_POINT('',(30.752539546439,-25.81600294848,0.));
#477 = CARTESIAN_POINT('',(22.607352618199,-18.31370790154,42.25));
#478 = CARTESIAN_POINT('',(26.9,-23.91111111111,84.5));
#479 = CARTESIAN_POINT('',(32.978486032805,-23.10541291281,0.));
#480 = CARTESIAN_POINT('',(25.217274873464,-16.62998552916,42.25));
#481 = CARTESIAN_POINT('',(26.9,-20.92222222222,84.5));
#482 = CARTESIAN_POINT('',(34.934923013665,-20.17968991102,0.));
#483 = CARTESIAN_POINT('',(27.511197233522,-14.694019754,42.25));
#484 = CARTESIAN_POINT('',(26.9,-17.93333333333,84.5));
#485 = CARTESIAN_POINT('',(36.598219467993,-17.06958056827,0.));
#486 = CARTESIAN_POINT('',(29.461412326222,-12.54186099408,42.25));
#487 = CARTESIAN_POINT('',(26.9,-14.94444444444,84.5));
#488 = CARTESIAN_POINT('',(37.948865337012,-13.80883299333,0.));
#489 = CARTESIAN_POINT('',(31.045044607646,-10.2130789069,42.25));
#490 = CARTESIAN_POINT('',(26.9,-11.95555555555,84.5));
#491 = CARTESIAN_POINT('',(38.971916541518,-10.43352538486,0.));
#492 = CARTESIAN_POINT('',(32.24457214493,-7.749975180423,42.25));
#493 = CARTESIAN_POINT('',(26.9,-8.966666666667,84.5));
#494 = CARTESIAN_POINT('',(39.657305259828,-6.981316954296,0.));
#495 = CARTESIAN_POINT('',(33.048190417149,-5.196705240023,42.25));
#496 = CARTESIAN_POINT('',(26.9,-5.977777777778,84.5));
#497 = CARTESIAN_POINT('',(40.,-3.490658503989,0.));
#498 = CARTESIAN_POINT('',(33.45,-2.598352651482,42.25));
#499 = CARTESIAN_POINT('',(26.9,-2.988888888889,84.5));
#500 = CARTESIAN_POINT('',(40.,-7.105427357601E-15,0.));
#501 = CARTESIAN_POINT('',(33.45,-1.7763568394E-14,42.25));
#502 = CARTESIAN_POINT('',(26.9,0.,84.5));
#503 = DEFINITIONAL_REPRESENTATION('',(#504),#508);
#504 = LINE('',#505,#506);
#505 = CARTESIAN_POINT('',(0.,0.));
#506 = VECTOR('',#507,1.);
#507 = DIRECTION('',(1.,0.));
#508 = ( GEOMETRIC_REPRESENTATION_CONTEXT(2) 
PARAMETRIC_REPRESENTATION_CONTEXT() REPRESENTATION_CONTEXT('2D SPACE',''
  ) );
#509 = FACE_BOUND('',#510,.F.);
#510 = EDGE_LOOP('',(#511));
#511 = ORIENTED_EDGE('',*,*,#51,.T.);
#512 = ADVANCED_FACE('',(#513,#516),#151,.T.);
#513 = FACE_BOUND('',#514,.T.);
#514 = EDGE_LOOP('',(#515));
#515 = ORIENTED_EDGE('',*,*,#136,.T.);
#516 = FACE_BOUND('',#517,.T.);
#517 = EDGE_LOOP('',(#518));
#518 = ORIENTED_EDGE('',*,*,#519,.T.);
#519 = EDGE_CURVE('',#520,#520,#522,.T.);
#520 = VERTEX_POINT('',#521);
#521 = CARTESIAN_POINT('',(17.95,-8.881784197001E-14,116.));
#522 = SURFACE_CURVE('',#523,(#528,#535),.PCURVE_S1.);
#523 = CIRCLE('',#524,17.95);
#524 = AXIS2_PLACEMENT_3D('',#525,#526,#527);
#525 = CARTESIAN_POINT('',(7.105427357601E-14,-8.881784197001E-14,116.)
  );
#526 = DIRECTION('',(0.,0.,1.));
#527 = DIRECTION('',(1.,0.,-0.));
#528 = PCURVE('',#151,#529);
#529 = DEFINITIONAL_REPRESENTATION('',(#530),#534);
#530 = CIRCLE('',#531,17.95);
#531 = AXIS2_PLACEMENT_2D('',#532,#533);
#532 = CARTESIAN_POINT('',(2.228422502269E-16,2.910788882461E-16));
#533 = DIRECTION('',(1.,0.));
#534 = ( GEOMETRIC_REPRESENTATION_CONTEXT(2) 
PARAMETRIC_REPRESENTATION_CONTEXT() REPRESENTATION_CONTEXT('2D SPACE',''
  ) );
#535 = PCURVE('',#536,#541);
#536 = CONICAL_SURFACE('',#537,20.85,0.785398163397);
#537 = AXIS2_PLACEMENT_3D('',#538,#539,#540);
#538 = CARTESIAN_POINT('',(7.105427357601E-14,-8.881784197001E-14,113.1)
  );
#539 = DIRECTION('',(-0.,-0.,-1.));
#540 = DIRECTION('',(1.,0.,-0.));
#541 = DEFINITIONAL_REPRESENTATION('',(#542),#546);
#542 = LINE('',#543,#544);
#543 = CARTESIAN_POINT('',(-0.,-2.9));
#544 = VECTOR('',#545,1.);
#545 = DIRECTION('',(-1.,-0.));
#546 = ( GEOMETRIC_REPRESENTATION_CONTEXT(2) 
PARAMETRIC_REPRESENTATION_CONTEXT() REPRESENTATION_CONTEXT('2D SPACE',''
  ) );
#547 = ADVANCED_FACE('',(#548),#202,.T.);
#548 = FACE_BOUND('',#549,.T.);
#549 = EDGE_LOOP('',(#550,#551,#574,#616));
#550 = ORIENTED_EDGE('',*,*,#170,.T.);
#551 = ORIENTED_EDGE('',*,*,#552,.T.);
#552 = EDGE_CURVE('',#173,#553,#555,.T.);
#553 = VERTEX_POINT('',#554);
#554 = CARTESIAN_POINT('',(26.9,26.9,84.5));
#555 = SURFACE_CURVE('',#556,(#560,#567),.PCURVE_S1.);
#556 = B_SPLINE_CURVE_WITH_KNOTS('',2,(#557,#558,#559),.UNSPECIFIED.,.F.
  ,.F.,(3,3),(0.,1.),.PIECEWISE_BEZIER_KNOTS.);
#557 = CARTESIAN_POINT('',(28.284271247462,28.284271247462,0.));
#558 = CARTESIAN_POINT('',(19.713308037649,19.713308037649,42.25));
#559 = CARTESIAN_POINT('',(26.9,26.9,84.5));
#560 = PCURVE('',#202,#561);
#561 = DEFINITIONAL_REPRESENTATION('',(#562),#566);
#562 = LINE('',#563,#564);
#563 = CARTESIAN_POINT('',(1.,0.));
#564 = VECTOR('',#565,1.);
#565 = DIRECTION('',(0.,1.));
#566 = ( GEOMETRIC_REPRESENTATION_CONTEXT(2) 
PARAMETRIC_REPRESENTATION_CONTEXT() REPRESENTATION_CONTEXT('2D SPACE',''
  ) );
#567 = PCURVE('',#270,#568);
#568 = DEFINITIONAL_REPRESENTATION('',(#569),#573);
#569 = LINE('',#570,#571);
#570 = CARTESIAN_POINT('',(1.,0.));
#571 = VECTOR('',#572,1.);
#572 = DIRECTION('',(0.,1.));
#573 = ( GEOMETRIC_REPRESENTATION_CONTEXT(2) 
PARAMETRIC_REPRESENTATION_CONTEXT() REPRESENTATION_CONTEXT('2D SPACE',''
  ) );
#574 = ORIENTED_EDGE('',*,*,#575,.F.);
#575 = EDGE_CURVE('',#576,#553,#578,.T.);
#576 = VERTEX_POINT('',#577);
#577 = CARTESIAN_POINT('',(26.9,0.,84.5));
#578 = SURFACE_CURVE('',#579,(#590,#597),.PCURVE_S1.);
#579 = B_SPLINE_CURVE_WITH_KNOTS('',9,(#580,#581,#582,#583,#584,#585,
    #586,#587,#588,#589),.UNSPECIFIED.,.F.,.F.,(10,10),(0.,1.),
  .PIECEWISE_BEZIER_KNOTS.);
#580 = CARTESIAN_POINT('',(26.9,0.,84.5));
#581 = CARTESIAN_POINT('',(26.9,2.988888888889,84.5));
#582 = CARTESIAN_POINT('',(26.9,5.977777777778,84.5));
#583 = CARTESIAN_POINT('',(26.9,8.966666666667,84.5));
#584 = CARTESIAN_POINT('',(26.9,11.955555555556,84.5));
#585 = CARTESIAN_POINT('',(26.9,14.944444444444,84.5));
#586 = CARTESIAN_POINT('',(26.9,17.933333333333,84.5));
#587 = CARTESIAN_POINT('',(26.9,20.922222222222,84.5));
#588 = CARTESIAN_POINT('',(26.9,23.911111111111,84.5));
#589 = CARTESIAN_POINT('',(26.9,26.9,84.5));
#590 = PCURVE('',#202,#591);
#591 = DEFINITIONAL_REPRESENTATION('',(#592),#596);
#592 = LINE('',#593,#594);
#593 = CARTESIAN_POINT('',(0.,1.));
#594 = VECTOR('',#595,1.);
#595 = DIRECTION('',(1.,0.));
#596 = ( GEOMETRIC_REPRESENTATION_CONTEXT(2) 
PARAMETRIC_REPRESENTATION_CONTEXT() REPRESENTATION_CONTEXT('2D SPACE',''
  ) );
#597 = PCURVE('',#598,#603);
#598 = PLANE('',#599);
#599 = AXIS2_PLACEMENT_3D('',#600,#601,#602);
#600 = CARTESIAN_POINT('',(26.9,0.,84.5));
#601 = DIRECTION('',(0.,0.,1.));
#602 = DIRECTION('',(-0.894427191,0.4472135955,0.));
#603 = DEFINITIONAL_REPRESENTATION('',(#604),#615);
#604 = B_SPLINE_CURVE_WITH_KNOTS('',9,(#605,#606,#607,#608,#609,#610,
    #611,#612,#613,#614),.UNSPECIFIED.,.F.,.F.,(10,10),(0.,1.),
  .PIECEWISE_BEZIER_KNOTS.);
#605 = CARTESIAN_POINT('',(0.,0.));
#606 = CARTESIAN_POINT('',(1.33667174655,-2.6733434931));
#607 = CARTESIAN_POINT('',(2.6733434931,-5.346686986199));
#608 = CARTESIAN_POINT('',(4.01001523965,-8.020030479299));
#609 = CARTESIAN_POINT('',(5.346686986199,-10.69337397239));
#610 = CARTESIAN_POINT('',(6.683358732749,-13.36671746549));
#611 = CARTESIAN_POINT('',(8.020030479299,-16.04006095859));
#612 = CARTESIAN_POINT('',(9.356702225849,-18.71340445169));
#613 = CARTESIAN_POINT('',(10.693373972399,-21.38674794479));
#614 = CARTESIAN_POINT('',(12.030045718949,-24.06009143789));
#615 = ( GEOMETRIC_REPRESENTATION_CONTEXT(2) 
PARAMETRIC_REPRESENTATION_CONTEXT() REPRESENTATION_CONTEXT('2D SPACE',''
  ) );
#616 = ORIENTED_EDGE('',*,*,#617,.F.);
#617 = EDGE_CURVE('',#171,#576,#618,.T.);
#618 = SURFACE_CURVE('',#619,(#623,#630),.PCURVE_S1.);
#619 = B_SPLINE_CURVE_WITH_KNOTS('',2,(#620,#621,#622),.UNSPECIFIED.,.F.
  ,.F.,(3,3),(0.,1.),.PIECEWISE_BEZIER_KNOTS.);
#620 = CARTESIAN_POINT('',(40.,-1.7763568394E-15,0.));
#621 = CARTESIAN_POINT('',(33.45,-2.6645352591E-15,42.25));
#622 = CARTESIAN_POINT('',(26.9,0.,84.5));
#623 = PCURVE('',#202,#624);
#624 = DEFINITIONAL_REPRESENTATION('',(#625),#629);
#625 = LINE('',#626,#627);
#626 = CARTESIAN_POINT('',(0.,0.));
#627 = VECTOR('',#628,1.);
#628 = DIRECTION('',(0.,1.));
#629 = ( GEOMETRIC_REPRESENTATION_CONTEXT(2) 
PARAMETRIC_REPRESENTATION_CONTEXT() REPRESENTATION_CONTEXT('2D SPACE',''
  ) );
#630 = PCURVE('',#472,#631);
#631 = DEFINITIONAL_REPRESENTATION('',(#632),#636);
#632 = LINE('',#633,#634);
#633 = CARTESIAN_POINT('',(5.,0.));
#634 = VECTOR('',#635,1.);
#635 = DIRECTION('',(0.,1.));
#636 = ( GEOMETRIC_REPRESENTATION_CONTEXT(2) 
PARAMETRIC_REPRESENTATION_CONTEXT() REPRESENTATION_CONTEXT('2D SPACE',''
  ) );
#637 = ADVANCED_FACE('',(#638),#472,.T.);
#638 = FACE_BOUND('',#639,.T.);
#639 = EDGE_LOOP('',(#640,#641,#642,#679));
#640 = ORIENTED_EDGE('',*,*,#444,.T.);
#641 = ORIENTED_EDGE('',*,*,#617,.T.);
#642 = ORIENTED_EDGE('',*,*,#643,.F.);
#643 = EDGE_CURVE('',#644,#576,#646,.T.);
#644 = VERTEX_POINT('',#645);
#645 = CARTESIAN_POINT('',(26.9,-26.9,84.5));
#646 = SURFACE_CURVE('',#647,(#658,#665),.PCURVE_S1.);
#647 = B_SPLINE_CURVE_WITH_KNOTS('',9,(#648,#649,#650,#651,#652,#653,
    #654,#655,#656,#657),.UNSPECIFIED.,.F.,.F.,(10,10),(4.,5.),
  .PIECEWISE_BEZIER_KNOTS.);
#648 = CARTESIAN_POINT('',(26.9,-26.9,84.5));
#649 = CARTESIAN_POINT('',(26.9,-23.91111111111,84.5));
#650 = CARTESIAN_POINT('',(26.9,-20.92222222222,84.5));
#651 = CARTESIAN_POINT('',(26.9,-17.93333333333,84.5));
#652 = CARTESIAN_POINT('',(26.9,-14.94444444444,84.5));
#653 = CARTESIAN_POINT('',(26.9,-11.95555555555,84.5));
#654 = CARTESIAN_POINT('',(26.9,-8.966666666667,84.5));
#655 = CARTESIAN_POINT('',(26.9,-5.977777777778,84.5));
#656 = CARTESIAN_POINT('',(26.9,-2.988888888889,84.5));
#657 = CARTESIAN_POINT('',(26.9,0.,84.5));
#658 = PCURVE('',#472,#659);
#659 = DEFINITIONAL_REPRESENTATION('',(#660),#664);
#660 = LINE('',#661,#662);
#661 = CARTESIAN_POINT('',(0.,1.));
#662 = VECTOR('',#663,1.);
#663 = DIRECTION('',(1.,0.));
#664 = ( GEOMETRIC_REPRESENTATION_CONTEXT(2) 
PARAMETRIC_REPRESENTATION_CONTEXT() REPRESENTATION_CONTEXT('2D SPACE',''
  ) );
#665 = PCURVE('',#598,#666);
#666 = DEFINITIONAL_REPRESENTATION('',(#667),#678);
#667 = B_SPLINE_CURVE_WITH_KNOTS('',9,(#668,#669,#670,#671,#672,#673,
    #674,#675,#676,#677),.UNSPECIFIED.,.F.,.F.,(10,10),(4.,5.),
  .PIECEWISE_BEZIER_KNOTS.);
#668 = CARTESIAN_POINT('',(-12.03004571894,24.060091437898));
#669 = CARTESIAN_POINT('',(-10.69337397239,21.386747944798));
#670 = CARTESIAN_POINT('',(-9.356702225849,18.713404451698));
#671 = CARTESIAN_POINT('',(-8.020030479299,16.040060958598));
#672 = CARTESIAN_POINT('',(-6.683358732749,13.366717465499));
#673 = CARTESIAN_POINT('',(-5.346686986199,10.693373972399));
#674 = CARTESIAN_POINT('',(-4.01001523965,8.020030479299));
#675 = CARTESIAN_POINT('',(-2.6733434931,5.346686986199));
#676 = CARTESIAN_POINT('',(-1.33667174655,2.6733434931));
#677 = CARTESIAN_POINT('',(0.,0.));
#678 = ( GEOMETRIC_REPRESENTATION_CONTEXT(2) 
PARAMETRIC_REPRESENTATION_CONTEXT() REPRESENTATION_CONTEXT('2D SPACE',''
  ) );
#679 = ORIENTED_EDGE('',*,*,#680,.F.);
#680 = EDGE_CURVE('',#377,#644,#681,.T.);
#681 = SURFACE_CURVE('',#682,(#686,#693),.PCURVE_S1.);
#682 = B_SPLINE_CURVE_WITH_KNOTS('',2,(#683,#684,#685),.UNSPECIFIED.,.F.
  ,.F.,(3,3),(0.,1.),.PIECEWISE_BEZIER_KNOTS.);
#683 = CARTESIAN_POINT('',(28.284271247462,-28.28427124746,0.));
#684 = CARTESIAN_POINT('',(19.713308037649,-19.71330803764,42.25));
#685 = CARTESIAN_POINT('',(26.9,-26.9,84.5));
#686 = PCURVE('',#472,#687);
#687 = DEFINITIONAL_REPRESENTATION('',(#688),#692);
#688 = LINE('',#689,#690);
#689 = CARTESIAN_POINT('',(4.,0.));
#690 = VECTOR('',#691,1.);
#691 = DIRECTION('',(0.,1.));
#692 = ( GEOMETRIC_REPRESENTATION_CONTEXT(2) 
PARAMETRIC_REPRESENTATION_CONTEXT() REPRESENTATION_CONTEXT('2D SPACE',''
  ) );
#693 = PCURVE('',#406,#694);
#694 = DEFINITIONAL_REPRESENTATION('',(#695),#699);
#695 = LINE('',#696,#697);
#696 = CARTESIAN_POINT('',(4.,0.));
#697 = VECTOR('',#698,1.);
#698 = DIRECTION('',(0.,1.));
#699 = ( GEOMETRIC_REPRESENTATION_CONTEXT(2) 
PARAMETRIC_REPRESENTATION_CONTEXT() REPRESENTATION_CONTEXT('2D SPACE',''
  ) );
#700 = ADVANCED_FACE('',(#701),#270,.T.);
#701 = FACE_BOUND('',#702,.T.);
#702 = EDGE_LOOP('',(#703,#704,#727,#762));
#703 = ORIENTED_EDGE('',*,*,#240,.T.);
#704 = ORIENTED_EDGE('',*,*,#705,.T.);
#705 = EDGE_CURVE('',#241,#706,#708,.T.);
#706 = VERTEX_POINT('',#707);
#707 = CARTESIAN_POINT('',(-26.9,26.9,84.5));
#708 = SURFACE_CURVE('',#709,(#713,#720),.PCURVE_S1.);
#709 = B_SPLINE_CURVE_WITH_KNOTS('',2,(#710,#711,#712),.UNSPECIFIED.,.F.
  ,.F.,(3,3),(0.,1.),.PIECEWISE_BEZIER_KNOTS.);
#710 = CARTESIAN_POINT('',(-28.28427124746,28.284271247462,0.));
#711 = CARTESIAN_POINT('',(-19.71330803764,19.713308037649,
    42.249999999998));
#712 = CARTESIAN_POINT('',(-26.9,26.9,84.5));
#713 = PCURVE('',#270,#714);
#714 = DEFINITIONAL_REPRESENTATION('',(#715),#719);
#715 = LINE('',#716,#717);
#716 = CARTESIAN_POINT('',(2.,0.));
#717 = VECTOR('',#718,1.);
#718 = DIRECTION('',(0.,1.));
#719 = ( GEOMETRIC_REPRESENTATION_CONTEXT(2) 
PARAMETRIC_REPRESENTATION_CONTEXT() REPRESENTATION_CONTEXT('2D SPACE',''
  ) );
#720 = PCURVE('',#338,#721);
#721 = DEFINITIONAL_REPRESENTATION('',(#722),#726);
#722 = LINE('',#723,#724);
#723 = CARTESIAN_POINT('',(2.,0.));
#724 = VECTOR('',#725,1.);
#725 = DIRECTION('',(0.,1.));
#726 = ( GEOMETRIC_REPRESENTATION_CONTEXT(2) 
PARAMETRIC_REPRESENTATION_CONTEXT() REPRESENTATION_CONTEXT('2D SPACE',''
  ) );
#727 = ORIENTED_EDGE('',*,*,#728,.F.);
#728 = EDGE_CURVE('',#553,#706,#729,.T.);
#729 = SURFACE_CURVE('',#730,(#741,#748),.PCURVE_S1.);
#730 = B_SPLINE_CURVE_WITH_KNOTS('',9,(#731,#732,#733,#734,#735,#736,
    #737,#738,#739,#740),.UNSPECIFIED.,.F.,.F.,(10,10),(1.,2.),
  .PIECEWISE_BEZIER_KNOTS.);
#731 = CARTESIAN_POINT('',(26.9,26.9,84.5));
#732 = CARTESIAN_POINT('',(20.922222222222,26.9,84.5));
#733 = CARTESIAN_POINT('',(14.944444444444,26.9,84.5));
#734 = CARTESIAN_POINT('',(8.966666666667,26.9,84.5));
#735 = CARTESIAN_POINT('',(2.988888888889,26.9,84.5));
#736 = CARTESIAN_POINT('',(-2.988888888889,26.9,84.5));
#737 = CARTESIAN_POINT('',(-8.966666666667,26.9,84.5));
#738 = CARTESIAN_POINT('',(-14.94444444444,26.9,84.5));
#739 = CARTESIAN_POINT('',(-20.92222222222,26.9,84.5));
#740 = CARTESIAN_POINT('',(-26.9,26.9,84.5));
#741 = PCURVE('',#270,#742);
#742 = DEFINITIONAL_REPRESENTATION('',(#743),#747);
#743 = LINE('',#744,#745);
#744 = CARTESIAN_POINT('',(0.,1.));
#745 = VECTOR('',#746,1.);
#746 = DIRECTION('',(1.,0.));
#747 = ( GEOMETRIC_REPRESENTATION_CONTEXT(2) 
PARAMETRIC_REPRESENTATION_CONTEXT() REPRESENTATION_CONTEXT('2D SPACE',''
  ) );
#748 = PCURVE('',#598,#749);
#749 = DEFINITIONAL_REPRESENTATION('',(#750),#761);
#750 = B_SPLINE_CURVE_WITH_KNOTS('',9,(#751,#752,#753,#754,#755,#756,
    #757,#758,#759,#760),.UNSPECIFIED.,.F.,.F.,(10,10),(1.,2.),
  .PIECEWISE_BEZIER_KNOTS.);
#751 = CARTESIAN_POINT('',(12.030045718949,-24.06009143789));
#752 = CARTESIAN_POINT('',(17.376732705148,-21.38674794479));
#753 = CARTESIAN_POINT('',(22.723419691348,-18.71340445169));
#754 = CARTESIAN_POINT('',(28.070106677547,-16.04006095859));
#755 = CARTESIAN_POINT('',(33.416793663747,-13.36671746549));
#756 = CARTESIAN_POINT('',(38.763480649946,-10.69337397239));
#757 = CARTESIAN_POINT('',(44.110167636146,-8.020030479299));
#758 = CARTESIAN_POINT('',(49.456854622345,-5.346686986199));
#759 = CARTESIAN_POINT('',(54.803541608545,-2.6733434931));
#760 = CARTESIAN_POINT('',(60.150228594744,0.));
#761 = ( GEOMETRIC_REPRESENTATION_CONTEXT(2) 
PARAMETRIC_REPRESENTATION_CONTEXT() REPRESENTATION_CONTEXT('2D SPACE',''
  ) );
#762 = ORIENTED_EDGE('',*,*,#552,.F.);
#763 = ADVANCED_FACE('',(#764),#406,.T.);
#764 = FACE_BOUND('',#765,.T.);
#765 = EDGE_LOOP('',(#766,#767,#768,#805));
#766 = ORIENTED_EDGE('',*,*,#376,.T.);
#767 = ORIENTED_EDGE('',*,*,#680,.T.);
#768 = ORIENTED_EDGE('',*,*,#769,.F.);
#769 = EDGE_CURVE('',#770,#644,#772,.T.);
#770 = VERTEX_POINT('',#771);
#771 = CARTESIAN_POINT('',(-26.9,-26.9,84.5));
#772 = SURFACE_CURVE('',#773,(#784,#791),.PCURVE_S1.);
#773 = B_SPLINE_CURVE_WITH_KNOTS('',9,(#774,#775,#776,#777,#778,#779,
    #780,#781,#782,#783),.UNSPECIFIED.,.F.,.F.,(10,10),(3.,4.),
  .PIECEWISE_BEZIER_KNOTS.);
#774 = CARTESIAN_POINT('',(-26.9,-26.9,84.5));
#775 = CARTESIAN_POINT('',(-20.92222222222,-26.9,84.5));
#776 = CARTESIAN_POINT('',(-14.94444444444,-26.9,84.5));
#777 = CARTESIAN_POINT('',(-8.966666666667,-26.9,84.5));
#778 = CARTESIAN_POINT('',(-2.988888888889,-26.9,84.5));
#779 = CARTESIAN_POINT('',(2.988888888889,-26.9,84.5));
#780 = CARTESIAN_POINT('',(8.966666666667,-26.9,84.5));
#781 = CARTESIAN_POINT('',(14.944444444444,-26.9,84.5));
#782 = CARTESIAN_POINT('',(20.922222222222,-26.9,84.5));
#783 = CARTESIAN_POINT('',(26.9,-26.9,84.5));
#784 = PCURVE('',#406,#785);
#785 = DEFINITIONAL_REPRESENTATION('',(#786),#790);
#786 = LINE('',#787,#788);
#787 = CARTESIAN_POINT('',(0.,1.));
#788 = VECTOR('',#789,1.);
#789 = DIRECTION('',(1.,0.));
#790 = ( GEOMETRIC_REPRESENTATION_CONTEXT(2) 
PARAMETRIC_REPRESENTATION_CONTEXT() REPRESENTATION_CONTEXT('2D SPACE',''
  ) );
#791 = PCURVE('',#598,#792);
#792 = DEFINITIONAL_REPRESENTATION('',(#793),#804);
#793 = B_SPLINE_CURVE_WITH_KNOTS('',9,(#794,#795,#796,#797,#798,#799,
    #800,#801,#802,#803),.UNSPECIFIED.,.F.,.F.,(10,10),(3.,4.),
  .PIECEWISE_BEZIER_KNOTS.);
#794 = CARTESIAN_POINT('',(36.090137156847,48.120182875795));
#795 = CARTESIAN_POINT('',(30.743450170647,45.446839382696));
#796 = CARTESIAN_POINT('',(25.396763184448,42.773495889596));
#797 = CARTESIAN_POINT('',(20.050076198248,40.100152396496));
#798 = CARTESIAN_POINT('',(14.703389212049,37.426808903396));
#799 = CARTESIAN_POINT('',(9.356702225849,34.753465410297));
#800 = CARTESIAN_POINT('',(4.01001523965,32.080121917197));
#801 = CARTESIAN_POINT('',(-1.33667174655,29.406778424097));
#802 = CARTESIAN_POINT('',(-6.683358732749,26.733434930997));
#803 = CARTESIAN_POINT('',(-12.03004571894,24.060091437898));
#804 = ( GEOMETRIC_REPRESENTATION_CONTEXT(2) 
PARAMETRIC_REPRESENTATION_CONTEXT() REPRESENTATION_CONTEXT('2D SPACE',''
  ) );
#805 = ORIENTED_EDGE('',*,*,#806,.F.);
#806 = EDGE_CURVE('',#309,#770,#807,.T.);
#807 = SURFACE_CURVE('',#808,(#812,#819),.PCURVE_S1.);
#808 = B_SPLINE_CURVE_WITH_KNOTS('',2,(#809,#810,#811),.UNSPECIFIED.,.F.
  ,.F.,(3,3),(0.,1.),.PIECEWISE_BEZIER_KNOTS.);
#809 = CARTESIAN_POINT('',(-28.28427124746,-28.28427124746,0.));
#810 = CARTESIAN_POINT('',(-19.71330803764,-19.71330803764,
    42.250000000001));
#811 = CARTESIAN_POINT('',(-26.9,-26.9,84.5));
#812 = PCURVE('',#406,#813);
#813 = DEFINITIONAL_REPRESENTATION('',(#814),#818);
#814 = LINE('',#815,#816);
#815 = CARTESIAN_POINT('',(3.,0.));
#816 = VECTOR('',#817,1.);
#817 = DIRECTION('',(0.,1.));
#818 = ( GEOMETRIC_REPRESENTATION_CONTEXT(2) 
PARAMETRIC_REPRESENTATION_CONTEXT() REPRESENTATION_CONTEXT('2D SPACE',''
  ) );
#819 = PCURVE('',#338,#820);
#820 = DEFINITIONAL_REPRESENTATION('',(#821),#825);
#821 = LINE('',#822,#823);
#822 = CARTESIAN_POINT('',(3.,0.));
#823 = VECTOR('',#824,1.);
#824 = DIRECTION('',(0.,1.));
#825 = ( GEOMETRIC_REPRESENTATION_CONTEXT(2) 
PARAMETRIC_REPRESENTATION_CONTEXT() REPRESENTATION_CONTEXT('2D SPACE',''
  ) );
#826 = ADVANCED_FACE('',(#827),#338,.T.);
#827 = FACE_BOUND('',#828,.T.);
#828 = EDGE_LOOP('',(#829,#830,#831,#866));
#829 = ORIENTED_EDGE('',*,*,#308,.T.);
#830 = ORIENTED_EDGE('',*,*,#806,.T.);
#831 = ORIENTED_EDGE('',*,*,#832,.F.);
#832 = EDGE_CURVE('',#706,#770,#833,.T.);
#833 = SURFACE_CURVE('',#834,(#845,#852),.PCURVE_S1.);
#834 = B_SPLINE_CURVE_WITH_KNOTS('',9,(#835,#836,#837,#838,#839,#840,
    #841,#842,#843,#844),.UNSPECIFIED.,.F.,.F.,(10,10),(2.,3.),
  .PIECEWISE_BEZIER_KNOTS.);
#835 = CARTESIAN_POINT('',(-26.9,26.9,84.5));
#836 = CARTESIAN_POINT('',(-26.9,20.922222222222,84.5));
#837 = CARTESIAN_POINT('',(-26.9,14.944444444444,84.5));
#838 = CARTESIAN_POINT('',(-26.9,8.966666666667,84.5));
#839 = CARTESIAN_POINT('',(-26.9,2.988888888889,84.5));
#840 = CARTESIAN_POINT('',(-26.9,-2.988888888889,84.5));
#841 = CARTESIAN_POINT('',(-26.9,-8.966666666667,84.5));
#842 = CARTESIAN_POINT('',(-26.9,-14.94444444444,84.5));
#843 = CARTESIAN_POINT('',(-26.9,-20.92222222222,84.5));
#844 = CARTESIAN_POINT('',(-26.9,-26.9,84.5));
#845 = PCURVE('',#338,#846);
#846 = DEFINITIONAL_REPRESENTATION('',(#847),#851);
#847 = LINE('',#848,#849);
#848 = CARTESIAN_POINT('',(0.,1.));
#849 = VECTOR('',#850,1.);
#850 = DIRECTION('',(1.,0.));
#851 = ( GEOMETRIC_REPRESENTATION_CONTEXT(2) 
PARAMETRIC_REPRESENTATION_CONTEXT() REPRESENTATION_CONTEXT('2D SPACE',''
  ) );
#852 = PCURVE('',#598,#853);
#853 = DEFINITIONAL_REPRESENTATION('',(#854),#865);
#854 = B_SPLINE_CURVE_WITH_KNOTS('',9,(#855,#856,#857,#858,#859,#860,
    #861,#862,#863,#864),.UNSPECIFIED.,.F.,.F.,(10,10),(2.,3.),
  .PIECEWISE_BEZIER_KNOTS.);
#855 = CARTESIAN_POINT('',(60.150228594744,0.));
#856 = CARTESIAN_POINT('',(57.476885101645,5.3466869862));
#857 = CARTESIAN_POINT('',(54.803541608545,10.693373972399));
#858 = CARTESIAN_POINT('',(52.130198115445,16.040060958598));
#859 = CARTESIAN_POINT('',(49.456854622345,21.386747944798));
#860 = CARTESIAN_POINT('',(46.783511129246,26.733434930997));
#861 = CARTESIAN_POINT('',(44.110167636146,32.080121917197));
#862 = CARTESIAN_POINT('',(41.436824143046,37.426808903396));
#863 = CARTESIAN_POINT('',(38.763480649946,42.773495889596));
#864 = CARTESIAN_POINT('',(36.090137156847,48.120182875795));
#865 = ( GEOMETRIC_REPRESENTATION_CONTEXT(2) 
PARAMETRIC_REPRESENTATION_CONTEXT() REPRESENTATION_CONTEXT('2D SPACE',''
  ) );
#866 = ORIENTED_EDGE('',*,*,#705,.F.);
#867 = ADVANCED_FACE('',(#868),#536,.T.);
#868 = FACE_BOUND('',#869,.T.);
#869 = EDGE_LOOP('',(#870,#891,#918,#919));
#870 = ORIENTED_EDGE('',*,*,#871,.F.);
#871 = EDGE_CURVE('',#872,#520,#874,.T.);
#872 = VERTEX_POINT('',#873);
#873 = CARTESIAN_POINT('',(20.85,-8.881784197001E-14,113.1));
#874 = SEAM_CURVE('',#875,(#879,#885),.PCURVE_S1.);
#875 = LINE('',#876,#877);
#876 = CARTESIAN_POINT('',(20.85,-8.881784197001E-14,113.1));
#877 = VECTOR('',#878,1.);
#878 = DIRECTION('',(-0.707106781187,0.,0.707106781187));
#879 = PCURVE('',#536,#880);
#880 = DEFINITIONAL_REPRESENTATION('',(#881),#884);
#881 = B_SPLINE_CURVE_WITH_KNOTS('',1,(#882,#883),.UNSPECIFIED.,.F.,.F.,
  (2,2),(0.,4.101219330882),.PIECEWISE_BEZIER_KNOTS.);
#882 = CARTESIAN_POINT('',(0.,0.));
#883 = CARTESIAN_POINT('',(0.,-2.9));
#884 = ( GEOMETRIC_REPRESENTATION_CONTEXT(2) 
PARAMETRIC_REPRESENTATION_CONTEXT() REPRESENTATION_CONTEXT('2D SPACE',''
  ) );
#885 = PCURVE('',#536,#886);
#886 = DEFINITIONAL_REPRESENTATION('',(#887),#890);
#887 = B_SPLINE_CURVE_WITH_KNOTS('',1,(#888,#889),.UNSPECIFIED.,.F.,.F.,
  (2,2),(0.,4.101219330882),.PIECEWISE_BEZIER_KNOTS.);
#888 = CARTESIAN_POINT('',(-6.28318530718,0.));
#889 = CARTESIAN_POINT('',(-6.28318530718,-2.9));
#890 = ( GEOMETRIC_REPRESENTATION_CONTEXT(2) 
PARAMETRIC_REPRESENTATION_CONTEXT() REPRESENTATION_CONTEXT('2D SPACE',''
  ) );
#891 = ORIENTED_EDGE('',*,*,#892,.T.);
#892 = EDGE_CURVE('',#872,#872,#893,.T.);
#893 = SURFACE_CURVE('',#894,(#899,#906),.PCURVE_S1.);
#894 = CIRCLE('',#895,20.85);
#895 = AXIS2_PLACEMENT_3D('',#896,#897,#898);
#896 = CARTESIAN_POINT('',(7.105427357601E-14,-8.881784197001E-14,113.1)
  );
#897 = DIRECTION('',(0.,0.,1.));
#898 = DIRECTION('',(1.,0.,-0.));
#899 = PCURVE('',#536,#900);
#900 = DEFINITIONAL_REPRESENTATION('',(#901),#905);
#901 = LINE('',#902,#903);
#902 = CARTESIAN_POINT('',(-0.,-0.));
#903 = VECTOR('',#904,1.);
#904 = DIRECTION('',(-1.,-0.));
#905 = ( GEOMETRIC_REPRESENTATION_CONTEXT(2) 
PARAMETRIC_REPRESENTATION_CONTEXT() REPRESENTATION_CONTEXT('2D SPACE',''
  ) );
#906 = PCURVE('',#907,#912);
#907 = CYLINDRICAL_SURFACE('',#908,20.85);
#908 = AXIS2_PLACEMENT_3D('',#909,#910,#911);
#909 = CARTESIAN_POINT('',(7.105427357601E-14,-8.881784197001E-14,84.5)
  );
#910 = DIRECTION('',(-0.,-0.,-1.));
#911 = DIRECTION('',(1.,0.,0.));
#912 = DEFINITIONAL_REPRESENTATION('',(#913),#917);
#913 = LINE('',#914,#915);
#914 = CARTESIAN_POINT('',(-0.,-28.6));
#915 = VECTOR('',#916,1.);
#916 = DIRECTION('',(-1.,0.));
#917 = ( GEOMETRIC_REPRESENTATION_CONTEXT(2) 
PARAMETRIC_REPRESENTATION_CONTEXT() REPRESENTATION_CONTEXT('2D SPACE',''
  ) );
#918 = ORIENTED_EDGE('',*,*,#871,.T.);
#919 = ORIENTED_EDGE('',*,*,#519,.F.);
#920 = ADVANCED_FACE('',(#921,#928),#598,.T.);
#921 = FACE_BOUND('',#922,.T.);
#922 = EDGE_LOOP('',(#923,#924,#925,#926,#927));
#923 = ORIENTED_EDGE('',*,*,#575,.T.);
#924 = ORIENTED_EDGE('',*,*,#728,.T.);
#925 = ORIENTED_EDGE('',*,*,#832,.T.);
#926 = ORIENTED_EDGE('',*,*,#769,.T.);
#927 = ORIENTED_EDGE('',*,*,#643,.T.);
#928 = FACE_BOUND('',#929,.T.);
#929 = EDGE_LOOP('',(#930));
#930 = ORIENTED_EDGE('',*,*,#931,.F.);
#931 = EDGE_CURVE('',#932,#932,#934,.T.);
#932 = VERTEX_POINT('',#933);
#933 = CARTESIAN_POINT('',(20.85,-8.881784197001E-14,84.5));
#934 = SURFACE_CURVE('',#935,(#940,#947),.PCURVE_S1.);
#935 = CIRCLE('',#936,20.85);
#936 = AXIS2_PLACEMENT_3D('',#937,#938,#939);
#937 = CARTESIAN_POINT('',(7.105427357601E-14,-8.881784197001E-14,84.5)
  );
#938 = DIRECTION('',(0.,0.,1.));
#939 = DIRECTION('',(1.,0.,0.));
#940 = PCURVE('',#598,#941);
#941 = DEFINITIONAL_REPRESENTATION('',(#942),#946);
#942 = CIRCLE('',#943,20.85);
#943 = AXIS2_PLACEMENT_2D('',#944,#945);
#944 = CARTESIAN_POINT('',(24.060091437898,12.030045718949));
#945 = DIRECTION('',(-0.894427191,-0.4472135955));
#946 = ( GEOMETRIC_REPRESENTATION_CONTEXT(2) 
PARAMETRIC_REPRESENTATION_CONTEXT() REPRESENTATION_CONTEXT('2D SPACE',''
  ) );
#947 = PCURVE('',#907,#948);
#948 = DEFINITIONAL_REPRESENTATION('',(#949),#953);
#949 = LINE('',#950,#951);
#950 = CARTESIAN_POINT('',(-0.,0.));
#951 = VECTOR('',#952,1.);
#952 = DIRECTION('',(-1.,0.));
#953 = ( GEOMETRIC_REPRESENTATION_CONTEXT(2) 
PARAMETRIC_REPRESENTATION_CONTEXT() REPRESENTATION_CONTEXT('2D SPACE',''
  ) );
#954 = ADVANCED_FACE('',(#955),#907,.T.);
#955 = FACE_BOUND('',#956,.F.);
#956 = EDGE_LOOP('',(#957,#978,#979,#980));
#957 = ORIENTED_EDGE('',*,*,#958,.T.);
#958 = EDGE_CURVE('',#932,#872,#959,.T.);
#959 = SEAM_CURVE('',#960,(#964,#971),.PCURVE_S1.);
#960 = LINE('',#961,#962);
#961 = CARTESIAN_POINT('',(20.85,-8.881784197001E-14,84.5));
#962 = VECTOR('',#963,1.);
#963 = DIRECTION('',(0.,0.,1.));
#964 = PCURVE('',#907,#965);
#965 = DEFINITIONAL_REPRESENTATION('',(#966),#970);
#966 = LINE('',#967,#968);
#967 = CARTESIAN_POINT('',(-0.,0.));
#968 = VECTOR('',#969,1.);
#969 = DIRECTION('',(-0.,-1.));
#970 = ( GEOMETRIC_REPRESENTATION_CONTEXT(2) 
PARAMETRIC_REPRESENTATION_CONTEXT() REPRESENTATION_CONTEXT('2D SPACE',''
  ) );
#971 = PCURVE('',#907,#972);
#972 = DEFINITIONAL_REPRESENTATION('',(#973),#977);
#973 = LINE('',#974,#975);
#974 = CARTESIAN_POINT('',(-6.28318530718,0.));
#975 = VECTOR('',#976,1.);
#976 = DIRECTION('',(-0.,-1.));
#977 = ( GEOMETRIC_REPRESENTATION_CONTEXT(2) 
PARAMETRIC_REPRESENTATION_CONTEXT() REPRESENTATION_CONTEXT('2D SPACE',''
  ) );
#978 = ORIENTED_EDGE('',*,*,#892,.T.);
#979 = ORIENTED_EDGE('',*,*,#958,.F.);
#980 = ORIENTED_EDGE('',*,*,#931,.F.);
#981 = ( GEOMETRIC_REPRESENTATION_CONTEXT(3) 
GLOBAL_UNCERTAINTY_ASSIGNED_CONTEXT((#985)) GLOBAL_UNIT_ASSIGNED_CONTEXT
((#982,#983,#984)) REPRESENTATION_CONTEXT('Context #1',
  '3D Context with UNIT and UNCERTAINTY') );
#982 = ( LENGTH_UNIT() NAMED_UNIT(*) SI_UNIT(.MILLI.,.METRE.) );
#983 = ( NAMED_UNIT(*) PLANE_ANGLE_UNIT() SI_UNIT($,.RADIAN.) );
#984 = ( NAMED_UNIT(*) SI_UNIT($,.STERADIAN.) SOLID_ANGLE_UNIT() );
#985 = UNCERTAINTY_MEASURE_WITH_UNIT(LENGTH_MEASURE(1.E-07),#982,
  'distance_accuracy_value','confusion accuracy');
#986 = PRODUCT_RELATED_PRODUCT_CATEGORY('part',$,(#7));
ENDSEC;
END-ISO-10303-21;
