ISO-10303-21;
HEADER;
FILE_DESCRIPTION(('Open CASCADE Model'),'2;1');
FILE_NAME('Open CASCADE Shape Model','2026-06-10T00:30:23',('Author'),(
    'Open CASCADE'),'Open CASCADE STEP processor 7.8','Open CASCADE 7.8'
  ,'Unknown');
FILE_SCHEMA(('AUTOMOTIVE_DESIGN { 1 0 10303 214 1 1 1 1 }'));
ENDSEC;
DATA;
#1 = APPLICATION_PROTOCOL_DEFINITION('international standard',
  'automotive_design',2000,#2);
#2 = APPLICATION_CONTEXT(
  'core data for automotive mechanical design processes');
#3 = SHAPE_DEFINITION_REPRESENTATION(#4,#10);
#4 = PRODUCT_DEFINITION_SHAPE('','',#5);
#5 = PRODUCT_DEFINITION('design','',#6,#9);
#6 = PRODUCT_DEFINITION_FORMATION('','',#7);
#7 = PRODUCT('Open CASCADE STEP translator 7.8 9',
  'Open CASCADE STEP translator 7.8 9','',(#8));
#8 = PRODUCT_CONTEXT('',#2,'mechanical');
#9 = PRODUCT_DEFINITION_CONTEXT('part definition',#2,'design');
#10 = ADVANCED_BREP_SHAPE_REPRESENTATION('',(#11,#15),#1259);
#11 = AXIS2_PLACEMENT_3D('',#12,#13,#14);
#12 = CARTESIAN_POINT('',(0.,0.,0.));
#13 = DIRECTION('',(0.,0.,1.));
#14 = DIRECTION('',(1.,0.,-0.));
#15 = MANIFOLD_SOLID_BREP('',#16);
#16 = CLOSED_SHELL('',(#17,#243,#486,#549,#833,#860,#887,#894,#953,#1024
    ,#1073,#1122,#1171,#1220,#1247));
#17 = ADVANCED_FACE('',(#18),#39,.T.);
#18 = FACE_BOUND('',#19,.T.);
#19 = EDGE_LOOP('',(#20,#95,#149,#191));
#20 = ORIENTED_EDGE('',*,*,#21,.T.);
#21 = EDGE_CURVE('',#22,#24,#26,.T.);
#22 = VERTEX_POINT('',#23);
#23 = CARTESIAN_POINT('',(32.5,0.,0.));
#24 = VERTEX_POINT('',#25);
#25 = CARTESIAN_POINT('',(22.980970388563,22.980970388563,0.));
#26 = SURFACE_CURVE('',#27,(#38,#76),.PCURVE_S1.);
#27 = B_SPLINE_CURVE_WITH_KNOTS('',9,(#28,#29,#30,#31,#32,#33,#34,#35,
    #36,#37),.UNSPECIFIED.,.F.,.F.,(10,10),(0.,1.),
  .PIECEWISE_BEZIER_KNOTS.);
#28 = CARTESIAN_POINT('',(32.5,-1.7763568394E-15,0.));
#29 = CARTESIAN_POINT('',(32.5,2.836160034491,0.));
#30 = CARTESIAN_POINT('',(32.22156052361,5.672320025366,0.));
#31 = CARTESIAN_POINT('',(31.664682189984,8.477239375204,0.));
#32 = CARTESIAN_POINT('',(30.833453086322,11.219676807082,0.));
#33 = CARTESIAN_POINT('',(29.736053317744,13.869034211727,0.));
#34 = CARTESIAN_POINT('',(28.384624948602,16.395998052706,0.));
#35 = CARTESIAN_POINT('',(26.795019901654,18.773147991661,0.));
#36 = CARTESIAN_POINT('',(24.986438381481,20.975502395644,0.));
#37 = CARTESIAN_POINT('',(22.980970388563,22.980970388563,0.));
#38 = PCURVE('',#39,#70);
#39 = B_SPLINE_SURFACE_WITH_KNOTS('',9,2,(
    (#40,#41,#42)
    ,(#43,#44,#45)
    ,(#46,#47,#48)
    ,(#49,#50,#51)
    ,(#52,#53,#54)
    ,(#55,#56,#57)
    ,(#58,#59,#60)
    ,(#61,#62,#63)
    ,(#64,#65,#66)
    ,(#67,#68,#69
    )),.UNSPECIFIED.,.F.,.F.,.F.,(10,10),(3,3),(0.,1.),(0.,1.),
  .PIECEWISE_BEZIER_KNOTS.);
#40 = CARTESIAN_POINT('',(32.5,-1.7763568394E-15,0.));
#41 = CARTESIAN_POINT('',(23.9,8.881784197001E-16,20.15));
#42 = CARTESIAN_POINT('',(15.3,0.,40.3));
#43 = CARTESIAN_POINT('',(32.5,2.836160034491,0.));
#44 = CARTESIAN_POINT('',(23.9,1.903256895021,20.15));
#45 = CARTESIAN_POINT('',(15.3,1.7,40.3));
#46 = CARTESIAN_POINT('',(32.22156052361,5.672320025366,0.));
#47 = CARTESIAN_POINT('',(23.62969952369,3.806513747701,20.15));
#48 = CARTESIAN_POINT('',(15.3,3.4,40.3));
#49 = CARTESIAN_POINT('',(31.664682189984,8.477239375204,0.));
#50 = CARTESIAN_POINT('',(23.089099172122,5.679443147314,20.15));
#51 = CARTESIAN_POINT('',(15.3,5.1,40.3));
#52 = CARTESIAN_POINT('',(30.833453086322,11.219676807082,0.));
#53 = CARTESIAN_POINT('',(22.282167534568,7.49171702349,20.15));
#54 = CARTESIAN_POINT('',(15.3,6.8,40.3));
#55 = CARTESIAN_POINT('',(29.736053317744,13.869034211727,0.));
#56 = CARTESIAN_POINT('',(21.21684560538,9.21363167323,20.15));
#57 = CARTESIAN_POINT('',(15.3,8.5,40.3));
#58 = CARTESIAN_POINT('',(28.384624948602,16.395998052706,0.));
#59 = CARTESIAN_POINT('',(19.904920527028,10.816730417319,20.15));
#60 = CARTESIAN_POINT('',(15.3,10.2,40.3));
#61 = CARTESIAN_POINT('',(26.795019901654,18.773147991661,0.));
#62 = CARTESIAN_POINT('',(18.361780858375,12.274394434982,20.15));
#63 = CARTESIAN_POINT('',(15.3,11.9,40.3));
#64 = CARTESIAN_POINT('',(24.986438381481,20.975502395644,0.));
#65 = CARTESIAN_POINT('',(16.606065567254,13.562372325618,20.15));
#66 = CARTESIAN_POINT('',(15.3,13.6,40.3));
#67 = CARTESIAN_POINT('',(22.980970388563,22.980970388563,0.));
#68 = CARTESIAN_POINT('',(14.659218946436,14.659218946436,20.15));
#69 = CARTESIAN_POINT('',(15.3,15.3,40.3));
#70 = DEFINITIONAL_REPRESENTATION('',(#71),#75);
#71 = LINE('',#72,#73);
#72 = CARTESIAN_POINT('',(0.,0.));
#73 = VECTOR('',#74,1.);
#74 = DIRECTION('',(1.,0.));
#75 = ( GEOMETRIC_REPRESENTATION_CONTEXT(2) 
PARAMETRIC_REPRESENTATION_CONTEXT() REPRESENTATION_CONTEXT('2D SPACE',''
  ) );
#76 = PCURVE('',#77,#82);
#77 = PLANE('',#78);
#78 = AXIS2_PLACEMENT_3D('',#79,#80,#81);
#79 = CARTESIAN_POINT('',(32.5,-1.7763568394E-15,0.));
#80 = DIRECTION('',(-0.,0.,-1.));
#81 = DIRECTION('',(-0.999048221582,-4.361938736494E-02,0.));
#82 = DEFINITIONAL_REPRESENTATION('',(#83),#94);
#83 = B_SPLINE_CURVE_WITH_KNOTS('',9,(#84,#85,#86,#87,#88,#89,#90,#91,
    #92,#93),.UNSPECIFIED.,.F.,.F.,(10,10),(0.,1.),
  .PIECEWISE_BEZIER_KNOTS.);
#84 = CARTESIAN_POINT('',(0.,0.));
#85 = CARTESIAN_POINT('',(-0.123711563173,2.83346063858));
#86 = CARTESIAN_POINT('',(3.075133926109E-02,5.679066592963));
#87 = CARTESIAN_POINT('',(0.46475078446,8.505606972849));
#88 = CARTESIAN_POINT('',(1.175565301535,11.281691916228));
#89 = CARTESIAN_POINT('',(2.156357241796,13.976395625273));
#90 = CARTESIAN_POINT('',(3.396274735945,16.559902834134));
#91 = CARTESIAN_POINT('',(4.880677007105,19.004127851382));
#92 = CARTESIAN_POINT('',(6.591471808557,21.283275319883));
#93 = CARTESIAN_POINT('',(8.507553755091,23.374311836879));
#94 = ( GEOMETRIC_REPRESENTATION_CONTEXT(2) 
PARAMETRIC_REPRESENTATION_CONTEXT() REPRESENTATION_CONTEXT('2D SPACE',''
  ) );
#95 = ORIENTED_EDGE('',*,*,#96,.T.);
#96 = EDGE_CURVE('',#24,#97,#99,.T.);
#97 = VERTEX_POINT('',#98);
#98 = CARTESIAN_POINT('',(15.3,15.3,40.3));
#99 = SURFACE_CURVE('',#100,(#104,#111),.PCURVE_S1.);
#100 = B_SPLINE_CURVE_WITH_KNOTS('',2,(#101,#102,#103),.UNSPECIFIED.,.F.
  ,.F.,(3,3),(0.,1.),.PIECEWISE_BEZIER_KNOTS.);
#101 = CARTESIAN_POINT('',(22.980970388563,22.980970388563,0.));
#102 = CARTESIAN_POINT('',(14.659218946436,14.659218946436,20.15));
#103 = CARTESIAN_POINT('',(15.3,15.3,40.3));
#104 = PCURVE('',#39,#105);
#105 = DEFINITIONAL_REPRESENTATION('',(#106),#110);
#106 = LINE('',#107,#108);
#107 = CARTESIAN_POINT('',(1.,0.));
#108 = VECTOR('',#109,1.);
#109 = DIRECTION('',(0.,1.));
#110 = ( GEOMETRIC_REPRESENTATION_CONTEXT(2) 
PARAMETRIC_REPRESENTATION_CONTEXT() REPRESENTATION_CONTEXT('2D SPACE',''
  ) );
#111 = PCURVE('',#112,#143);
#112 = B_SPLINE_SURFACE_WITH_KNOTS('',9,2,(
    (#113,#114,#115)
    ,(#116,#117,#118)
    ,(#119,#120,#121)
    ,(#122,#123,#124)
    ,(#125,#126,#127)
    ,(#128,#129,#130)
    ,(#131,#132,#133)
    ,(#134,#135,#136)
    ,(#137,#138,#139)
    ,(#140,#141,#142
    )),.UNSPECIFIED.,.F.,.F.,.F.,(10,10),(3,3),(1.,2.),(0.,1.),
  .PIECEWISE_BEZIER_KNOTS.);
#113 = CARTESIAN_POINT('',(22.980970388563,22.980970388563,0.));
#114 = CARTESIAN_POINT('',(14.659218946436,14.659218946436,20.15));
#115 = CARTESIAN_POINT('',(15.3,15.3,40.3));
#116 = CARTESIAN_POINT('',(18.970034402725,26.9919063744,0.));
#117 = CARTESIAN_POINT('',(12.4655257048,18.552912188071,20.15));
#118 = CARTESIAN_POINT('',(11.9,15.3,40.3));
#119 = CARTESIAN_POINT('',(14.171552983883,30.215297042189,0.));
#120 = CARTESIAN_POINT('',(9.507304508475,21.68208066711,20.150000000001
    ));
#121 = CARTESIAN_POINT('',(8.5,15.3,40.3));
#122 = CARTESIAN_POINT('',(8.762250850649,32.474416571349,0.));
#123 = CARTESIAN_POINT('',(5.956135399997,23.875164394647,
    20.149999999998));
#124 = CARTESIAN_POINT('',(5.1,15.3,40.3));
#125 = CARTESIAN_POINT('',(2.965119578666,33.638811000831,0.));
#126 = CARTESIAN_POINT('',(2.028425729134,25.005522679268,
    20.150000000001));
#127 = CARTESIAN_POINT('',(1.7,15.3,40.3));
#128 = CARTESIAN_POINT('',(-2.965119578666,33.638811000829,0.));
#129 = CARTESIAN_POINT('',(-2.028425729133,25.005522679269,
    20.150000000001));
#130 = CARTESIAN_POINT('',(-1.7,15.3,40.3));
#131 = CARTESIAN_POINT('',(-8.76225085065,32.474416571351,0.));
#132 = CARTESIAN_POINT('',(-5.956135399997,23.875164394646,
    20.149999999998));
#133 = CARTESIAN_POINT('',(-5.1,15.3,40.3));
#134 = CARTESIAN_POINT('',(-14.17155298388,30.215297042187,0.));
#135 = CARTESIAN_POINT('',(-9.507304508475,21.68208066711,
    20.150000000001));
#136 = CARTESIAN_POINT('',(-8.5,15.3,40.3));
#137 = CARTESIAN_POINT('',(-18.97003440272,26.9919063744,0.));
#138 = CARTESIAN_POINT('',(-12.4655257048,18.552912188071,
    20.149999999999));
#139 = CARTESIAN_POINT('',(-11.9,15.3,40.3));
#140 = CARTESIAN_POINT('',(-22.98097038856,22.980970388563,0.));
#141 = CARTESIAN_POINT('',(-14.65921894643,14.659218946435,20.15));
#142 = CARTESIAN_POINT('',(-15.3,15.3,40.3));
#143 = DEFINITIONAL_REPRESENTATION('',(#144),#148);
#144 = LINE('',#145,#146);
#145 = CARTESIAN_POINT('',(1.,0.));
#146 = VECTOR('',#147,1.);
#147 = DIRECTION('',(0.,1.));
#148 = ( GEOMETRIC_REPRESENTATION_CONTEXT(2) 
PARAMETRIC_REPRESENTATION_CONTEXT() REPRESENTATION_CONTEXT('2D SPACE',''
  ) );
#149 = ORIENTED_EDGE('',*,*,#150,.F.);
#150 = EDGE_CURVE('',#151,#97,#153,.T.);
#151 = VERTEX_POINT('',#152);
#152 = CARTESIAN_POINT('',(15.3,0.,40.3));
#153 = SURFACE_CURVE('',#154,(#165,#172),.PCURVE_S1.);
#154 = B_SPLINE_CURVE_WITH_KNOTS('',9,(#155,#156,#157,#158,#159,#160,
    #161,#162,#163,#164),.UNSPECIFIED.,.F.,.F.,(10,10),(0.,1.),
  .PIECEWISE_BEZIER_KNOTS.);
#155 = CARTESIAN_POINT('',(15.3,0.,40.3));
#156 = CARTESIAN_POINT('',(15.3,1.7,40.3));
#157 = CARTESIAN_POINT('',(15.3,3.4,40.3));
#158 = CARTESIAN_POINT('',(15.3,5.1,40.3));
#159 = CARTESIAN_POINT('',(15.3,6.8,40.3));
#160 = CARTESIAN_POINT('',(15.3,8.5,40.3));
#161 = CARTESIAN_POINT('',(15.3,10.2,40.3));
#162 = CARTESIAN_POINT('',(15.3,11.9,40.3));
#163 = CARTESIAN_POINT('',(15.3,13.6,40.3));
#164 = CARTESIAN_POINT('',(15.3,15.3,40.3));
#165 = PCURVE('',#39,#166);
#166 = DEFINITIONAL_REPRESENTATION('',(#167),#171);
#167 = LINE('',#168,#169);
#168 = CARTESIAN_POINT('',(0.,1.));
#169 = VECTOR('',#170,1.);
#170 = DIRECTION('',(1.,0.));
#171 = ( GEOMETRIC_REPRESENTATION_CONTEXT(2) 
PARAMETRIC_REPRESENTATION_CONTEXT() REPRESENTATION_CONTEXT('2D SPACE',''
  ) );
#172 = PCURVE('',#173,#178);
#173 = PLANE('',#174);
#174 = AXIS2_PLACEMENT_3D('',#175,#176,#177);
#175 = CARTESIAN_POINT('',(15.3,0.,40.3));
#176 = DIRECTION('',(0.,0.,1.));
#177 = DIRECTION('',(-0.894427191,0.4472135955,0.));
#178 = DEFINITIONAL_REPRESENTATION('',(#179),#190);
#179 = B_SPLINE_CURVE_WITH_KNOTS('',9,(#180,#181,#182,#183,#184,#185,
    #186,#187,#188,#189),.UNSPECIFIED.,.F.,.F.,(10,10),(0.,1.),
  .PIECEWISE_BEZIER_KNOTS.);
#180 = CARTESIAN_POINT('',(0.,0.));
#181 = CARTESIAN_POINT('',(0.76026311235,-1.5205262247));
#182 = CARTESIAN_POINT('',(1.5205262247,-3.0410524494));
#183 = CARTESIAN_POINT('',(2.28078933705,-4.5615786741));
#184 = CARTESIAN_POINT('',(3.0410524494,-6.082104898799));
#185 = CARTESIAN_POINT('',(3.80131556175,-7.602631123499));
#186 = CARTESIAN_POINT('',(4.5615786741,-9.123157348199));
#187 = CARTESIAN_POINT('',(5.32184178645,-10.64368357289));
#188 = CARTESIAN_POINT('',(6.082104898799,-12.16420979759));
#189 = CARTESIAN_POINT('',(6.842368011149,-13.68473602229));
#190 = ( GEOMETRIC_REPRESENTATION_CONTEXT(2) 
PARAMETRIC_REPRESENTATION_CONTEXT() REPRESENTATION_CONTEXT('2D SPACE',''
  ) );
#191 = ORIENTED_EDGE('',*,*,#192,.F.);
#192 = EDGE_CURVE('',#22,#151,#193,.T.);
#193 = SURFACE_CURVE('',#194,(#198,#205),.PCURVE_S1.);
#194 = B_SPLINE_CURVE_WITH_KNOTS('',2,(#195,#196,#197),.UNSPECIFIED.,.F.
  ,.F.,(3,3),(0.,1.),.PIECEWISE_BEZIER_KNOTS.);
#195 = CARTESIAN_POINT('',(32.5,-1.7763568394E-15,0.));
#196 = CARTESIAN_POINT('',(23.9,8.881784197001E-16,20.15));
#197 = CARTESIAN_POINT('',(15.3,0.,40.3));
#198 = PCURVE('',#39,#199);
#199 = DEFINITIONAL_REPRESENTATION('',(#200),#204);
#200 = LINE('',#201,#202);
#201 = CARTESIAN_POINT('',(0.,0.));
#202 = VECTOR('',#203,1.);
#203 = DIRECTION('',(0.,1.));
#204 = ( GEOMETRIC_REPRESENTATION_CONTEXT(2) 
PARAMETRIC_REPRESENTATION_CONTEXT() REPRESENTATION_CONTEXT('2D SPACE',''
  ) );
#205 = PCURVE('',#206,#237);
#206 = B_SPLINE_SURFACE_WITH_KNOTS('',9,2,(
    (#207,#208,#209)
    ,(#210,#211,#212)
    ,(#213,#214,#215)
    ,(#216,#217,#218)
    ,(#219,#220,#221)
    ,(#222,#223,#224)
    ,(#225,#226,#227)
    ,(#228,#229,#230)
    ,(#231,#232,#233)
    ,(#234,#235,#236
    )),.UNSPECIFIED.,.F.,.F.,.F.,(10,10),(3,3),(4.,5.),(0.,1.),
  .PIECEWISE_BEZIER_KNOTS.);
#207 = CARTESIAN_POINT('',(22.980970388563,-22.98097038856,0.));
#208 = CARTESIAN_POINT('',(14.659218946436,-14.65921894643,20.15));
#209 = CARTESIAN_POINT('',(15.3,-15.3,40.3));
#210 = CARTESIAN_POINT('',(24.986438381481,-20.97550239564,0.));
#211 = CARTESIAN_POINT('',(16.606065567253,-13.56237232561,20.15));
#212 = CARTESIAN_POINT('',(15.3,-13.6,40.3));
#213 = CARTESIAN_POINT('',(26.795019901654,-18.77314799166,0.));
#214 = CARTESIAN_POINT('',(18.361780858375,-12.27439443498,20.15));
#215 = CARTESIAN_POINT('',(15.3,-11.9,40.3));
#216 = CARTESIAN_POINT('',(28.384624948603,-16.3959980527,0.));
#217 = CARTESIAN_POINT('',(19.904920527028,-10.81673041731,20.15));
#218 = CARTESIAN_POINT('',(15.3,-10.2,40.3));
#219 = CARTESIAN_POINT('',(29.736053317744,-13.86903421172,0.));
#220 = CARTESIAN_POINT('',(21.216845605379,-9.21363167323,20.15));
#221 = CARTESIAN_POINT('',(15.3,-8.5,40.3));
#222 = CARTESIAN_POINT('',(30.833453086322,-11.21967680708,0.));
#223 = CARTESIAN_POINT('',(22.282167534568,-7.49171702349,20.15));
#224 = CARTESIAN_POINT('',(15.3,-6.8,40.3));
#225 = CARTESIAN_POINT('',(31.664682189983,-8.477239375204,0.));
#226 = CARTESIAN_POINT('',(23.089099172122,-5.679443147314,20.15));
#227 = CARTESIAN_POINT('',(15.3,-5.1,40.3));
#228 = CARTESIAN_POINT('',(32.22156052361,-5.672320025366,0.));
#229 = CARTESIAN_POINT('',(23.629699523689,-3.806513747701,20.15));
#230 = CARTESIAN_POINT('',(15.3,-3.4,40.3));
#231 = CARTESIAN_POINT('',(32.5,-2.836160034491,0.));
#232 = CARTESIAN_POINT('',(23.9,-1.903256895021,20.15));
#233 = CARTESIAN_POINT('',(15.3,-1.7,40.3));
#234 = CARTESIAN_POINT('',(32.5,-1.06581410364E-14,0.));
#235 = CARTESIAN_POINT('',(23.9,-5.329070518201E-15,20.15));
#236 = CARTESIAN_POINT('',(15.3,0.,40.3));
#237 = DEFINITIONAL_REPRESENTATION('',(#238),#242);
#238 = LINE('',#239,#240);
#239 = CARTESIAN_POINT('',(5.,0.));
#240 = VECTOR('',#241,1.);
#241 = DIRECTION('',(0.,1.));
#242 = ( GEOMETRIC_REPRESENTATION_CONTEXT(2) 
PARAMETRIC_REPRESENTATION_CONTEXT() REPRESENTATION_CONTEXT('2D SPACE',''
  ) );
#243 = ADVANCED_FACE('',(#244,#455),#77,.T.);
#244 = FACE_BOUND('',#245,.T.);
#245 = EDGE_LOOP('',(#246,#247,#284,#352,#420));
#246 = ORIENTED_EDGE('',*,*,#21,.F.);
#247 = ORIENTED_EDGE('',*,*,#248,.F.);
#248 = EDGE_CURVE('',#249,#22,#251,.T.);
#249 = VERTEX_POINT('',#250);
#250 = CARTESIAN_POINT('',(22.980970388563,-22.98097038856,0.));
#251 = SURFACE_CURVE('',#252,(#263,#277),.PCURVE_S1.);
#252 = B_SPLINE_CURVE_WITH_KNOTS('',9,(#253,#254,#255,#256,#257,#258,
    #259,#260,#261,#262),.UNSPECIFIED.,.F.,.F.,(10,10),(4.,5.),
  .PIECEWISE_BEZIER_KNOTS.);
#253 = CARTESIAN_POINT('',(22.980970388563,-22.98097038856,0.));
#254 = CARTESIAN_POINT('',(24.986438381481,-20.97550239564,0.));
#255 = CARTESIAN_POINT('',(26.795019901654,-18.77314799166,0.));
#256 = CARTESIAN_POINT('',(28.384624948603,-16.3959980527,0.));
#257 = CARTESIAN_POINT('',(29.736053317744,-13.86903421172,0.));
#258 = CARTESIAN_POINT('',(30.833453086322,-11.21967680708,0.));
#259 = CARTESIAN_POINT('',(31.664682189983,-8.477239375204,0.));
#260 = CARTESIAN_POINT('',(32.22156052361,-5.672320025366,0.));
#261 = CARTESIAN_POINT('',(32.5,-2.836160034491,0.));
#262 = CARTESIAN_POINT('',(32.5,-1.06581410364E-14,0.));
#263 = PCURVE('',#77,#264);
#264 = DEFINITIONAL_REPRESENTATION('',(#265),#276);
#265 = B_SPLINE_CURVE_WITH_KNOTS('',9,(#266,#267,#268,#269,#270,#271,
    #272,#273,#274,#275),.UNSPECIFIED.,.F.,.F.,(10,10),(4.,5.),
  .PIECEWISE_BEZIER_KNOTS.);
#266 = CARTESIAN_POINT('',(10.512385453893,-22.54388335696));
#267 = CARTESIAN_POINT('',(8.421348936897,-20.62780141042));
#268 = CARTESIAN_POINT('',(6.51842343572,-18.50643237774));
#269 = CARTESIAN_POINT('',(4.826641516537,-16.20088255709));
#270 = CARTESIAN_POINT('',(3.366274793114,-13.73527230329));
#271 = CARTESIAN_POINT('',(2.15435615905,-11.13630440544));
#272 = CARTESIAN_POINT('',(1.204294760645,-8.432734870594));
#273 = CARTESIAN_POINT('',(0.52559758815,-5.654775874206));
#274 = CARTESIAN_POINT('',(0.123711563173,-2.83346063858));
#275 = CARTESIAN_POINT('',(0.,-8.881784197001E-15));
#276 = ( GEOMETRIC_REPRESENTATION_CONTEXT(2) 
PARAMETRIC_REPRESENTATION_CONTEXT() REPRESENTATION_CONTEXT('2D SPACE',''
  ) );
#277 = PCURVE('',#206,#278);
#278 = DEFINITIONAL_REPRESENTATION('',(#279),#283);
#279 = LINE('',#280,#281);
#280 = CARTESIAN_POINT('',(0.,0.));
#281 = VECTOR('',#282,1.);
#282 = DIRECTION('',(1.,0.));
#283 = ( GEOMETRIC_REPRESENTATION_CONTEXT(2) 
PARAMETRIC_REPRESENTATION_CONTEXT() REPRESENTATION_CONTEXT('2D SPACE',''
  ) );
#284 = ORIENTED_EDGE('',*,*,#285,.F.);
#285 = EDGE_CURVE('',#286,#249,#288,.T.);
#286 = VERTEX_POINT('',#287);
#287 = CARTESIAN_POINT('',(-22.98097038856,-22.98097038856,0.));
#288 = SURFACE_CURVE('',#289,(#300,#314),.PCURVE_S1.);
#289 = B_SPLINE_CURVE_WITH_KNOTS('',9,(#290,#291,#292,#293,#294,#295,
    #296,#297,#298,#299),.UNSPECIFIED.,.F.,.F.,(10,10),(3.,4.),
  .PIECEWISE_BEZIER_KNOTS.);
#290 = CARTESIAN_POINT('',(-22.98097038856,-22.98097038856,0.));
#291 = CARTESIAN_POINT('',(-18.97003440272,-26.99190637439,0.));
#292 = CARTESIAN_POINT('',(-14.17155298388,-30.21529704219,0.));
#293 = CARTESIAN_POINT('',(-8.76225085065,-32.47441657134,0.));
#294 = CARTESIAN_POINT('',(-2.965119578666,-33.63881100083,0.));
#295 = CARTESIAN_POINT('',(2.965119578666,-33.63881100082,0.));
#296 = CARTESIAN_POINT('',(8.76225085065,-32.47441657135,0.));
#297 = CARTESIAN_POINT('',(14.171552983883,-30.21529704218,0.));
#298 = CARTESIAN_POINT('',(18.970034402725,-26.9919063744,0.));
#299 = CARTESIAN_POINT('',(22.980970388563,-22.98097038856,0.));
#300 = PCURVE('',#77,#301);
#301 = DEFINITIONAL_REPRESENTATION('',(#302),#313);
#302 = B_SPLINE_CURVE_WITH_KNOTS('',9,(#303,#304,#305,#306,#307,#308,
    #309,#310,#311,#312),.UNSPECIFIED.,.F.,.F.,(10,10),(3.,4.),
  .PIECEWISE_BEZIER_KNOTS.);
#303 = CARTESIAN_POINT('',(56.430580647731,-20.53905165815));
#304 = CARTESIAN_POINT('',(52.598416754664,-24.72112469214));
#305 = CARTESIAN_POINT('',(47.945104753043,-28.15075422604));
#306 = CARTESIAN_POINT('',(42.639492486683,-30.6436740191));
#307 = CARTESIAN_POINT('',(36.898668970796,-32.05982751767));
#308 = CARTESIAN_POINT('',(30.974074087108,-32.31850091662));
#309 = CARTESIAN_POINT('',(25.131670227892,-31.4080820472));
#310 = CARTESIAN_POINT('',(19.62897514184,-29.38706314437));
#311 = CARTESIAN_POINT('',(14.694458487884,-26.37604725002));
#312 = CARTESIAN_POINT('',(10.512385453893,-22.54388335696));
#313 = ( GEOMETRIC_REPRESENTATION_CONTEXT(2) 
PARAMETRIC_REPRESENTATION_CONTEXT() REPRESENTATION_CONTEXT('2D SPACE',''
  ) );
#314 = PCURVE('',#315,#346);
#315 = B_SPLINE_SURFACE_WITH_KNOTS('',9,2,(
    (#316,#317,#318)
    ,(#319,#320,#321)
    ,(#322,#323,#324)
    ,(#325,#326,#327)
    ,(#328,#329,#330)
    ,(#331,#332,#333)
    ,(#334,#335,#336)
    ,(#337,#338,#339)
    ,(#340,#341,#342)
    ,(#343,#344,#345
    )),.UNSPECIFIED.,.F.,.F.,.F.,(10,10),(3,3),(3.,4.),(0.,1.),
  .PIECEWISE_BEZIER_KNOTS.);
#316 = CARTESIAN_POINT('',(-22.98097038856,-22.98097038856,0.));
#317 = CARTESIAN_POINT('',(-14.65921894643,-14.65921894643,20.15));
#318 = CARTESIAN_POINT('',(-15.3,-15.3,40.3));
#319 = CARTESIAN_POINT('',(-18.97003440272,-26.99190637439,0.));
#320 = CARTESIAN_POINT('',(-12.4655257048,-18.55291218807,20.15));
#321 = CARTESIAN_POINT('',(-11.9,-15.3,40.3));
#322 = CARTESIAN_POINT('',(-14.17155298388,-30.21529704219,0.));
#323 = CARTESIAN_POINT('',(-9.507304508475,-21.6820806671,20.15));
#324 = CARTESIAN_POINT('',(-8.5,-15.3,40.3));
#325 = CARTESIAN_POINT('',(-8.76225085065,-32.47441657134,0.));
#326 = CARTESIAN_POINT('',(-5.956135399997,-23.87516439465,
    20.149999999999));
#327 = CARTESIAN_POINT('',(-5.1,-15.3,40.3));
#328 = CARTESIAN_POINT('',(-2.965119578666,-33.63881100083,0.));
#329 = CARTESIAN_POINT('',(-2.028425729134,-25.00552267926,20.15));
#330 = CARTESIAN_POINT('',(-1.7,-15.3,40.3));
#331 = CARTESIAN_POINT('',(2.965119578666,-33.63881100082,0.));
#332 = CARTESIAN_POINT('',(2.028425729134,-25.00552267927,20.15));
#333 = CARTESIAN_POINT('',(1.7,-15.3,40.3));
#334 = CARTESIAN_POINT('',(8.76225085065,-32.47441657135,0.));
#335 = CARTESIAN_POINT('',(5.956135399998,-23.87516439464,
    20.149999999999));
#336 = CARTESIAN_POINT('',(5.1,-15.3,40.3));
#337 = CARTESIAN_POINT('',(14.171552983883,-30.21529704218,0.));
#338 = CARTESIAN_POINT('',(9.507304508475,-21.68208066711,
    20.150000000001));
#339 = CARTESIAN_POINT('',(8.5,-15.3,40.3));
#340 = CARTESIAN_POINT('',(18.970034402725,-26.9919063744,0.));
#341 = CARTESIAN_POINT('',(12.4655257048,-18.55291218807,20.15));
#342 = CARTESIAN_POINT('',(11.9,-15.3,40.3));
#343 = CARTESIAN_POINT('',(22.980970388563,-22.98097038856,0.));
#344 = CARTESIAN_POINT('',(14.659218946436,-14.65921894643,20.15));
#345 = CARTESIAN_POINT('',(15.3,-15.3,40.3));
#346 = DEFINITIONAL_REPRESENTATION('',(#347),#351);
#347 = LINE('',#348,#349);
#348 = CARTESIAN_POINT('',(0.,0.));
#349 = VECTOR('',#350,1.);
#350 = DIRECTION('',(1.,0.));
#351 = ( GEOMETRIC_REPRESENTATION_CONTEXT(2) 
PARAMETRIC_REPRESENTATION_CONTEXT() REPRESENTATION_CONTEXT('2D SPACE',''
  ) );
#352 = ORIENTED_EDGE('',*,*,#353,.F.);
#353 = EDGE_CURVE('',#354,#286,#356,.T.);
#354 = VERTEX_POINT('',#355);
#355 = CARTESIAN_POINT('',(-22.98097038856,22.980970388563,0.));
#356 = SURFACE_CURVE('',#357,(#368,#382),.PCURVE_S1.);
#357 = B_SPLINE_CURVE_WITH_KNOTS('',9,(#358,#359,#360,#361,#362,#363,
    #364,#365,#366,#367),.UNSPECIFIED.,.F.,.F.,(10,10),(2.,3.),
  .PIECEWISE_BEZIER_KNOTS.);
#358 = CARTESIAN_POINT('',(-22.98097038856,22.980970388563,0.));
#359 = CARTESIAN_POINT('',(-26.9919063744,18.970034402725,0.));
#360 = CARTESIAN_POINT('',(-30.21529704218,14.171552983883,0.));
#361 = CARTESIAN_POINT('',(-32.47441657135,8.762250850649,0.));
#362 = CARTESIAN_POINT('',(-33.63881100082,2.965119578667,0.));
#363 = CARTESIAN_POINT('',(-33.63881100083,-2.965119578667,0.));
#364 = CARTESIAN_POINT('',(-32.47441657134,-8.762250850649,0.));
#365 = CARTESIAN_POINT('',(-30.21529704219,-14.17155298388,0.));
#366 = CARTESIAN_POINT('',(-26.9919063744,-18.97003440272,0.));
#367 = CARTESIAN_POINT('',(-22.98097038856,-22.98097038856,0.));
#368 = PCURVE('',#77,#369);
#369 = DEFINITIONAL_REPRESENTATION('',(#370),#381);
#370 = B_SPLINE_CURVE_WITH_KNOTS('',9,(#371,#372,#373,#374,#375,#376,
    #377,#378,#379,#380),.UNSPECIFIED.,.F.,.F.,(10,10),(2.,3.),
  .PIECEWISE_BEZIER_KNOTS.);
#371 = CARTESIAN_POINT('',(54.42574894893,25.379143535681));
#372 = CARTESIAN_POINT('',(58.607821982922,21.546979642614));
#373 = CARTESIAN_POINT('',(62.037451516808,16.893667640993));
#374 = CARTESIAN_POINT('',(64.53037130989,11.588055374632));
#375 = CARTESIAN_POINT('',(65.946524808425,5.847231858747));
#376 = CARTESIAN_POINT('',(66.205198207413,-7.736302494245E-02));
#377 = CARTESIAN_POINT('',(65.294779337964,-5.919766884159));
#378 = CARTESIAN_POINT('',(63.273760435146,-11.42246197021));
#379 = CARTESIAN_POINT('',(60.262744540798,-16.35697862416));
#380 = CARTESIAN_POINT('',(56.430580647731,-20.53905165815));
#381 = ( GEOMETRIC_REPRESENTATION_CONTEXT(2) 
PARAMETRIC_REPRESENTATION_CONTEXT() REPRESENTATION_CONTEXT('2D SPACE',''
  ) );
#382 = PCURVE('',#383,#414);
#383 = B_SPLINE_SURFACE_WITH_KNOTS('',9,2,(
    (#384,#385,#386)
    ,(#387,#388,#389)
    ,(#390,#391,#392)
    ,(#393,#394,#395)
    ,(#396,#397,#398)
    ,(#399,#400,#401)
    ,(#402,#403,#404)
    ,(#405,#406,#407)
    ,(#408,#409,#410)
    ,(#411,#412,#413
    )),.UNSPECIFIED.,.F.,.F.,.F.,(10,10),(3,3),(2.,3.),(0.,1.),
  .PIECEWISE_BEZIER_KNOTS.);
#384 = CARTESIAN_POINT('',(-22.98097038856,22.980970388563,0.));
#385 = CARTESIAN_POINT('',(-14.65921894643,14.659218946435,20.15));
#386 = CARTESIAN_POINT('',(-15.3,15.3,40.3));
#387 = CARTESIAN_POINT('',(-26.9919063744,18.970034402725,0.));
#388 = CARTESIAN_POINT('',(-18.55291218807,12.4655257048,20.15));
#389 = CARTESIAN_POINT('',(-15.3,11.9,40.3));
#390 = CARTESIAN_POINT('',(-30.21529704218,14.171552983883,0.));
#391 = CARTESIAN_POINT('',(-21.6820806671,9.507304508475,20.149999999999
    ));
#392 = CARTESIAN_POINT('',(-15.3,8.5,40.3));
#393 = CARTESIAN_POINT('',(-32.47441657135,8.762250850649,0.));
#394 = CARTESIAN_POINT('',(-23.87516439464,5.956135399998,
    20.150000000001));
#395 = CARTESIAN_POINT('',(-15.3,5.1,40.3));
#396 = CARTESIAN_POINT('',(-33.63881100082,2.965119578667,0.));
#397 = CARTESIAN_POINT('',(-25.00552267927,2.028425729133,20.15));
#398 = CARTESIAN_POINT('',(-15.3,1.7,40.3));
#399 = CARTESIAN_POINT('',(-33.63881100083,-2.965119578667,0.));
#400 = CARTESIAN_POINT('',(-25.00552267926,-2.028425729133,
    20.149999999999));
#401 = CARTESIAN_POINT('',(-15.3,-1.7,40.3));
#402 = CARTESIAN_POINT('',(-32.47441657134,-8.762250850649,0.));
#403 = CARTESIAN_POINT('',(-23.87516439465,-5.956135399997,
    20.150000000001));
#404 = CARTESIAN_POINT('',(-15.3,-5.1,40.3));
#405 = CARTESIAN_POINT('',(-30.21529704219,-14.17155298388,0.));
#406 = CARTESIAN_POINT('',(-21.6820806671,-9.507304508476,20.15));
#407 = CARTESIAN_POINT('',(-15.3,-8.5,40.3));
#408 = CARTESIAN_POINT('',(-26.9919063744,-18.97003440272,0.));
#409 = CARTESIAN_POINT('',(-18.55291218807,-12.46552570479,20.15));
#410 = CARTESIAN_POINT('',(-15.3,-11.9,40.3));
#411 = CARTESIAN_POINT('',(-22.98097038856,-22.98097038856,0.));
#412 = CARTESIAN_POINT('',(-14.65921894643,-14.65921894643,20.15));
#413 = CARTESIAN_POINT('',(-15.3,-15.3,40.3));
#414 = DEFINITIONAL_REPRESENTATION('',(#415),#419);
#415 = LINE('',#416,#417);
#416 = CARTESIAN_POINT('',(0.,0.));
#417 = VECTOR('',#418,1.);
#418 = DIRECTION('',(1.,0.));
#419 = ( GEOMETRIC_REPRESENTATION_CONTEXT(2) 
PARAMETRIC_REPRESENTATION_CONTEXT() REPRESENTATION_CONTEXT('2D SPACE',''
  ) );
#420 = ORIENTED_EDGE('',*,*,#421,.F.);
#421 = EDGE_CURVE('',#24,#354,#422,.T.);
#422 = SURFACE_CURVE('',#423,(#434,#448),.PCURVE_S1.);
#423 = B_SPLINE_CURVE_WITH_KNOTS('',9,(#424,#425,#426,#427,#428,#429,
    #430,#431,#432,#433),.UNSPECIFIED.,.F.,.F.,(10,10),(1.,2.),
  .PIECEWISE_BEZIER_KNOTS.);
#424 = CARTESIAN_POINT('',(22.980970388563,22.980970388563,0.));
#425 = CARTESIAN_POINT('',(18.970034402725,26.9919063744,0.));
#426 = CARTESIAN_POINT('',(14.171552983883,30.215297042189,0.));
#427 = CARTESIAN_POINT('',(8.762250850649,32.474416571349,0.));
#428 = CARTESIAN_POINT('',(2.965119578666,33.638811000831,0.));
#429 = CARTESIAN_POINT('',(-2.965119578666,33.638811000829,0.));
#430 = CARTESIAN_POINT('',(-8.76225085065,32.474416571351,0.));
#431 = CARTESIAN_POINT('',(-14.17155298388,30.215297042187,0.));
#432 = CARTESIAN_POINT('',(-18.97003440272,26.9919063744,0.));
#433 = CARTESIAN_POINT('',(-22.98097038856,22.980970388563,0.));
#434 = PCURVE('',#77,#435);
#435 = DEFINITIONAL_REPRESENTATION('',(#436),#447);
#436 = B_SPLINE_CURVE_WITH_KNOTS('',9,(#437,#438,#439,#440,#441,#442,
    #443,#444,#445,#446),.UNSPECIFIED.,.F.,.F.,(10,10),(1.,2.),
  .PIECEWISE_BEZIER_KNOTS.);
#437 = CARTESIAN_POINT('',(8.507553755091,23.374311836879));
#438 = CARTESIAN_POINT('',(12.339717648158,27.556384870871));
#439 = CARTESIAN_POINT('',(16.993029649779,30.986014404761));
#440 = CARTESIAN_POINT('',(22.298641916139,33.478934197832));
#441 = CARTESIAN_POINT('',(28.039465432025,34.895087696385));
#442 = CARTESIAN_POINT('',(33.964060315714,35.153761095353));
#443 = CARTESIAN_POINT('',(39.80646417493,34.243342225921));
#444 = CARTESIAN_POINT('',(45.309159260982,32.222323323093));
#445 = CARTESIAN_POINT('',(50.243675914937,29.211307428749));
#446 = CARTESIAN_POINT('',(54.42574894893,25.379143535681));
#447 = ( GEOMETRIC_REPRESENTATION_CONTEXT(2) 
PARAMETRIC_REPRESENTATION_CONTEXT() REPRESENTATION_CONTEXT('2D SPACE',''
  ) );
#448 = PCURVE('',#112,#449);
#449 = DEFINITIONAL_REPRESENTATION('',(#450),#454);
#450 = LINE('',#451,#452);
#451 = CARTESIAN_POINT('',(0.,0.));
#452 = VECTOR('',#453,1.);
#453 = DIRECTION('',(1.,0.));
#454 = ( GEOMETRIC_REPRESENTATION_CONTEXT(2) 
PARAMETRIC_REPRESENTATION_CONTEXT() REPRESENTATION_CONTEXT('2D SPACE',''
  ) );
#455 = FACE_BOUND('',#456,.T.);
#456 = EDGE_LOOP('',(#457));
#457 = ORIENTED_EDGE('',*,*,#458,.F.);
#458 = EDGE_CURVE('',#459,#459,#461,.T.);
#459 = VERTEX_POINT('',#460);
#460 = CARTESIAN_POINT('',(-4.9,-5.093814536637E-14,0.));
#461 = SURFACE_CURVE('',#462,(#467,#474),.PCURVE_S1.);
#462 = CIRCLE('',#463,4.9);
#463 = AXIS2_PLACEMENT_3D('',#464,#465,#466);
#464 = CARTESIAN_POINT('',(4.085620730621E-14,-4.973799150321E-14,0.));
#465 = DIRECTION('',(0.,0.,-1.));
#466 = DIRECTION('',(-1.,0.,0.));
#467 = PCURVE('',#77,#468);
#468 = DEFINITIONAL_REPRESENTATION('',(#469),#473);
#469 = CIRCLE('',#470,4.9);
#470 = AXIS2_PLACEMENT_2D('',#471,#472);
#471 = CARTESIAN_POINT('',(32.469067201411,1.417630089361));
#472 = DIRECTION('',(0.999048221582,4.361938736494E-02));
#473 = ( GEOMETRIC_REPRESENTATION_CONTEXT(2) 
PARAMETRIC_REPRESENTATION_CONTEXT() REPRESENTATION_CONTEXT('2D SPACE',''
  ) );
#474 = PCURVE('',#475,#480);
#475 = CYLINDRICAL_SURFACE('',#476,4.9);
#476 = AXIS2_PLACEMENT_3D('',#477,#478,#479);
#477 = CARTESIAN_POINT('',(4.085620730621E-14,-4.973799150321E-14,63.5)
  );
#478 = DIRECTION('',(0.,0.,-1.));
#479 = DIRECTION('',(-1.,0.,0.));
#480 = DEFINITIONAL_REPRESENTATION('',(#481),#485);
#481 = LINE('',#482,#483);
#482 = CARTESIAN_POINT('',(0.,63.5));
#483 = VECTOR('',#484,1.);
#484 = DIRECTION('',(1.,0.));
#485 = ( GEOMETRIC_REPRESENTATION_CONTEXT(2) 
PARAMETRIC_REPRESENTATION_CONTEXT() REPRESENTATION_CONTEXT('2D SPACE',''
  ) );
#486 = ADVANCED_FACE('',(#487),#112,.T.);
#487 = FACE_BOUND('',#488,.T.);
#488 = EDGE_LOOP('',(#489,#490,#513,#548));
#489 = ORIENTED_EDGE('',*,*,#421,.T.);
#490 = ORIENTED_EDGE('',*,*,#491,.T.);
#491 = EDGE_CURVE('',#354,#492,#494,.T.);
#492 = VERTEX_POINT('',#493);
#493 = CARTESIAN_POINT('',(-15.3,15.3,40.3));
#494 = SURFACE_CURVE('',#495,(#499,#506),.PCURVE_S1.);
#495 = B_SPLINE_CURVE_WITH_KNOTS('',2,(#496,#497,#498),.UNSPECIFIED.,.F.
  ,.F.,(3,3),(0.,1.),.PIECEWISE_BEZIER_KNOTS.);
#496 = CARTESIAN_POINT('',(-22.98097038856,22.980970388563,0.));
#497 = CARTESIAN_POINT('',(-14.65921894643,14.659218946435,20.15));
#498 = CARTESIAN_POINT('',(-15.3,15.3,40.3));
#499 = PCURVE('',#112,#500);
#500 = DEFINITIONAL_REPRESENTATION('',(#501),#505);
#501 = LINE('',#502,#503);
#502 = CARTESIAN_POINT('',(2.,0.));
#503 = VECTOR('',#504,1.);
#504 = DIRECTION('',(0.,1.));
#505 = ( GEOMETRIC_REPRESENTATION_CONTEXT(2) 
PARAMETRIC_REPRESENTATION_CONTEXT() REPRESENTATION_CONTEXT('2D SPACE',''
  ) );
#506 = PCURVE('',#383,#507);
#507 = DEFINITIONAL_REPRESENTATION('',(#508),#512);
#508 = LINE('',#509,#510);
#509 = CARTESIAN_POINT('',(2.,0.));
#510 = VECTOR('',#511,1.);
#511 = DIRECTION('',(0.,1.));
#512 = ( GEOMETRIC_REPRESENTATION_CONTEXT(2) 
PARAMETRIC_REPRESENTATION_CONTEXT() REPRESENTATION_CONTEXT('2D SPACE',''
  ) );
#513 = ORIENTED_EDGE('',*,*,#514,.F.);
#514 = EDGE_CURVE('',#97,#492,#515,.T.);
#515 = SURFACE_CURVE('',#516,(#527,#534),.PCURVE_S1.);
#516 = B_SPLINE_CURVE_WITH_KNOTS('',9,(#517,#518,#519,#520,#521,#522,
    #523,#524,#525,#526),.UNSPECIFIED.,.F.,.F.,(10,10),(1.,2.),
  .PIECEWISE_BEZIER_KNOTS.);
#517 = CARTESIAN_POINT('',(15.3,15.3,40.3));
#518 = CARTESIAN_POINT('',(11.9,15.3,40.3));
#519 = CARTESIAN_POINT('',(8.5,15.3,40.3));
#520 = CARTESIAN_POINT('',(5.1,15.3,40.3));
#521 = CARTESIAN_POINT('',(1.7,15.3,40.3));
#522 = CARTESIAN_POINT('',(-1.7,15.3,40.3));
#523 = CARTESIAN_POINT('',(-5.1,15.3,40.3));
#524 = CARTESIAN_POINT('',(-8.5,15.3,40.3));
#525 = CARTESIAN_POINT('',(-11.9,15.3,40.3));
#526 = CARTESIAN_POINT('',(-15.3,15.3,40.3));
#527 = PCURVE('',#112,#528);
#528 = DEFINITIONAL_REPRESENTATION('',(#529),#533);
#529 = LINE('',#530,#531);
#530 = CARTESIAN_POINT('',(0.,1.));
#531 = VECTOR('',#532,1.);
#532 = DIRECTION('',(1.,0.));
#533 = ( GEOMETRIC_REPRESENTATION_CONTEXT(2) 
PARAMETRIC_REPRESENTATION_CONTEXT() REPRESENTATION_CONTEXT('2D SPACE',''
  ) );
#534 = PCURVE('',#173,#535);
#535 = DEFINITIONAL_REPRESENTATION('',(#536),#547);
#536 = B_SPLINE_CURVE_WITH_KNOTS('',9,(#537,#538,#539,#540,#541,#542,
    #543,#544,#545,#546),.UNSPECIFIED.,.F.,.F.,(10,10),(1.,2.),
  .PIECEWISE_BEZIER_KNOTS.);
#537 = CARTESIAN_POINT('',(6.842368011149,-13.68473602229));
#538 = CARTESIAN_POINT('',(9.883420460549,-12.16420979759));
#539 = CARTESIAN_POINT('',(12.924472909949,-10.64368357289));
#540 = CARTESIAN_POINT('',(15.965525359348,-9.123157348199));
#541 = CARTESIAN_POINT('',(19.006577808748,-7.602631123499));
#542 = CARTESIAN_POINT('',(22.047630258148,-6.082104898799));
#543 = CARTESIAN_POINT('',(25.088682707548,-4.5615786741));
#544 = CARTESIAN_POINT('',(28.129735156947,-3.0410524494));
#545 = CARTESIAN_POINT('',(31.170787606347,-1.5205262247));
#546 = CARTESIAN_POINT('',(34.211840055747,0.));
#547 = ( GEOMETRIC_REPRESENTATION_CONTEXT(2) 
PARAMETRIC_REPRESENTATION_CONTEXT() REPRESENTATION_CONTEXT('2D SPACE',''
  ) );
#548 = ORIENTED_EDGE('',*,*,#96,.F.);
#549 = ADVANCED_FACE('',(#550,#663),#173,.T.);
#550 = FACE_BOUND('',#551,.T.);
#551 = EDGE_LOOP('',(#552,#553,#554,#591,#628));
#552 = ORIENTED_EDGE('',*,*,#150,.T.);
#553 = ORIENTED_EDGE('',*,*,#514,.T.);
#554 = ORIENTED_EDGE('',*,*,#555,.T.);
#555 = EDGE_CURVE('',#492,#556,#558,.T.);
#556 = VERTEX_POINT('',#557);
#557 = CARTESIAN_POINT('',(-15.3,-15.3,40.3));
#558 = SURFACE_CURVE('',#559,(#570,#584),.PCURVE_S1.);
#559 = B_SPLINE_CURVE_WITH_KNOTS('',9,(#560,#561,#562,#563,#564,#565,
    #566,#567,#568,#569),.UNSPECIFIED.,.F.,.F.,(10,10),(2.,3.),
  .PIECEWISE_BEZIER_KNOTS.);
#560 = CARTESIAN_POINT('',(-15.3,15.3,40.3));
#561 = CARTESIAN_POINT('',(-15.3,11.9,40.3));
#562 = CARTESIAN_POINT('',(-15.3,8.5,40.3));
#563 = CARTESIAN_POINT('',(-15.3,5.1,40.3));
#564 = CARTESIAN_POINT('',(-15.3,1.7,40.3));
#565 = CARTESIAN_POINT('',(-15.3,-1.7,40.3));
#566 = CARTESIAN_POINT('',(-15.3,-5.1,40.3));
#567 = CARTESIAN_POINT('',(-15.3,-8.5,40.3));
#568 = CARTESIAN_POINT('',(-15.3,-11.9,40.3));
#569 = CARTESIAN_POINT('',(-15.3,-15.3,40.3));
#570 = PCURVE('',#173,#571);
#571 = DEFINITIONAL_REPRESENTATION('',(#572),#583);
#572 = B_SPLINE_CURVE_WITH_KNOTS('',9,(#573,#574,#575,#576,#577,#578,
    #579,#580,#581,#582),.UNSPECIFIED.,.F.,.F.,(10,10),(2.,3.),
  .PIECEWISE_BEZIER_KNOTS.);
#573 = CARTESIAN_POINT('',(34.211840055747,0.));
#574 = CARTESIAN_POINT('',(32.691313831047,3.0410524494));
#575 = CARTESIAN_POINT('',(31.170787606347,6.082104898799));
#576 = CARTESIAN_POINT('',(29.650261381647,9.123157348199));
#577 = CARTESIAN_POINT('',(28.129735156947,12.164209797599));
#578 = CARTESIAN_POINT('',(26.609208932247,15.205262246999));
#579 = CARTESIAN_POINT('',(25.088682707548,18.246314696398));
#580 = CARTESIAN_POINT('',(23.568156482848,21.287367145798));
#581 = CARTESIAN_POINT('',(22.047630258148,24.328419595198));
#582 = CARTESIAN_POINT('',(20.527104033448,27.369472044597));
#583 = ( GEOMETRIC_REPRESENTATION_CONTEXT(2) 
PARAMETRIC_REPRESENTATION_CONTEXT() REPRESENTATION_CONTEXT('2D SPACE',''
  ) );
#584 = PCURVE('',#383,#585);
#585 = DEFINITIONAL_REPRESENTATION('',(#586),#590);
#586 = LINE('',#587,#588);
#587 = CARTESIAN_POINT('',(0.,1.));
#588 = VECTOR('',#589,1.);
#589 = DIRECTION('',(1.,0.));
#590 = ( GEOMETRIC_REPRESENTATION_CONTEXT(2) 
PARAMETRIC_REPRESENTATION_CONTEXT() REPRESENTATION_CONTEXT('2D SPACE',''
  ) );
#591 = ORIENTED_EDGE('',*,*,#592,.T.);
#592 = EDGE_CURVE('',#556,#593,#595,.T.);
#593 = VERTEX_POINT('',#594);
#594 = CARTESIAN_POINT('',(15.3,-15.3,40.3));
#595 = SURFACE_CURVE('',#596,(#607,#621),.PCURVE_S1.);
#596 = B_SPLINE_CURVE_WITH_KNOTS('',9,(#597,#598,#599,#600,#601,#602,
    #603,#604,#605,#606),.UNSPECIFIED.,.F.,.F.,(10,10),(3.,4.),
  .PIECEWISE_BEZIER_KNOTS.);
#597 = CARTESIAN_POINT('',(-15.3,-15.3,40.3));
#598 = CARTESIAN_POINT('',(-11.9,-15.3,40.3));
#599 = CARTESIAN_POINT('',(-8.5,-15.3,40.3));
#600 = CARTESIAN_POINT('',(-5.1,-15.3,40.3));
#601 = CARTESIAN_POINT('',(-1.7,-15.3,40.3));
#602 = CARTESIAN_POINT('',(1.7,-15.3,40.3));
#603 = CARTESIAN_POINT('',(5.1,-15.3,40.3));
#604 = CARTESIAN_POINT('',(8.5,-15.3,40.3));
#605 = CARTESIAN_POINT('',(11.9,-15.3,40.3));
#606 = CARTESIAN_POINT('',(15.3,-15.3,40.3));
#607 = PCURVE('',#173,#608);
#608 = DEFINITIONAL_REPRESENTATION('',(#609),#620);
#609 = B_SPLINE_CURVE_WITH_KNOTS('',9,(#610,#611,#612,#613,#614,#615,
    #616,#617,#618,#619),.UNSPECIFIED.,.F.,.F.,(10,10),(3.,4.),
  .PIECEWISE_BEZIER_KNOTS.);
#610 = CARTESIAN_POINT('',(20.527104033448,27.369472044597));
#611 = CARTESIAN_POINT('',(17.486051584048,25.848945819898));
#612 = CARTESIAN_POINT('',(14.444999134649,24.328419595198));
#613 = CARTESIAN_POINT('',(11.403946685249,22.807893370498));
#614 = CARTESIAN_POINT('',(8.362894235849,21.287367145798));
#615 = CARTESIAN_POINT('',(5.321841786449,19.766840921098));
#616 = CARTESIAN_POINT('',(2.28078933705,18.246314696398));
#617 = CARTESIAN_POINT('',(-0.76026311235,16.725788471698));
#618 = CARTESIAN_POINT('',(-3.80131556175,15.205262246999));
#619 = CARTESIAN_POINT('',(-6.842368011149,13.684736022299));
#620 = ( GEOMETRIC_REPRESENTATION_CONTEXT(2) 
PARAMETRIC_REPRESENTATION_CONTEXT() REPRESENTATION_CONTEXT('2D SPACE',''
  ) );
#621 = PCURVE('',#315,#622);
#622 = DEFINITIONAL_REPRESENTATION('',(#623),#627);
#623 = LINE('',#624,#625);
#624 = CARTESIAN_POINT('',(0.,1.));
#625 = VECTOR('',#626,1.);
#626 = DIRECTION('',(1.,0.));
#627 = ( GEOMETRIC_REPRESENTATION_CONTEXT(2) 
PARAMETRIC_REPRESENTATION_CONTEXT() REPRESENTATION_CONTEXT('2D SPACE',''
  ) );
#628 = ORIENTED_EDGE('',*,*,#629,.T.);
#629 = EDGE_CURVE('',#593,#151,#630,.T.);
#630 = SURFACE_CURVE('',#631,(#642,#656),.PCURVE_S1.);
#631 = B_SPLINE_CURVE_WITH_KNOTS('',9,(#632,#633,#634,#635,#636,#637,
    #638,#639,#640,#641),.UNSPECIFIED.,.F.,.F.,(10,10),(4.,5.),
  .PIECEWISE_BEZIER_KNOTS.);
#632 = CARTESIAN_POINT('',(15.3,-15.3,40.3));
#633 = CARTESIAN_POINT('',(15.3,-13.6,40.3));
#634 = CARTESIAN_POINT('',(15.3,-11.9,40.3));
#635 = CARTESIAN_POINT('',(15.3,-10.2,40.3));
#636 = CARTESIAN_POINT('',(15.3,-8.5,40.3));
#637 = CARTESIAN_POINT('',(15.3,-6.8,40.3));
#638 = CARTESIAN_POINT('',(15.3,-5.1,40.3));
#639 = CARTESIAN_POINT('',(15.3,-3.4,40.3));
#640 = CARTESIAN_POINT('',(15.3,-1.7,40.3));
#641 = CARTESIAN_POINT('',(15.3,0.,40.3));
#642 = PCURVE('',#173,#643);
#643 = DEFINITIONAL_REPRESENTATION('',(#644),#655);
#644 = B_SPLINE_CURVE_WITH_KNOTS('',9,(#645,#646,#647,#648,#649,#650,
    #651,#652,#653,#654),.UNSPECIFIED.,.F.,.F.,(10,10),(4.,5.),
  .PIECEWISE_BEZIER_KNOTS.);
#645 = CARTESIAN_POINT('',(-6.842368011149,13.684736022299));
#646 = CARTESIAN_POINT('',(-6.082104898799,12.164209797599));
#647 = CARTESIAN_POINT('',(-5.321841786449,10.643683572899));
#648 = CARTESIAN_POINT('',(-4.5615786741,9.123157348199));
#649 = CARTESIAN_POINT('',(-3.80131556175,7.602631123499));
#650 = CARTESIAN_POINT('',(-3.0410524494,6.082104898799));
#651 = CARTESIAN_POINT('',(-2.28078933705,4.5615786741));
#652 = CARTESIAN_POINT('',(-1.5205262247,3.0410524494));
#653 = CARTESIAN_POINT('',(-0.76026311235,1.5205262247));
#654 = CARTESIAN_POINT('',(0.,0.));
#655 = ( GEOMETRIC_REPRESENTATION_CONTEXT(2) 
PARAMETRIC_REPRESENTATION_CONTEXT() REPRESENTATION_CONTEXT('2D SPACE',''
  ) );
#656 = PCURVE('',#206,#657);
#657 = DEFINITIONAL_REPRESENTATION('',(#658),#662);
#658 = LINE('',#659,#660);
#659 = CARTESIAN_POINT('',(0.,1.));
#660 = VECTOR('',#661,1.);
#661 = DIRECTION('',(1.,0.));
#662 = ( GEOMETRIC_REPRESENTATION_CONTEXT(2) 
PARAMETRIC_REPRESENTATION_CONTEXT() REPRESENTATION_CONTEXT('2D SPACE',''
  ) );
#663 = FACE_BOUND('',#664,.T.);
#664 = EDGE_LOOP('',(#665,#695,#723,#751,#779,#807));
#665 = ORIENTED_EDGE('',*,*,#666,.F.);
#666 = EDGE_CURVE('',#667,#669,#671,.T.);
#667 = VERTEX_POINT('',#668);
#668 = CARTESIAN_POINT('',(10.1,-4.796163466381E-14,40.3));
#669 = VERTEX_POINT('',#670);
#670 = CARTESIAN_POINT('',(5.05,8.746856578223,40.3));
#671 = SURFACE_CURVE('',#672,(#676,#683),.PCURVE_S1.);
#672 = LINE('',#673,#674);
#673 = CARTESIAN_POINT('',(10.1,-4.796163466381E-14,40.3));
#674 = VECTOR('',#675,1.);
#675 = DIRECTION('',(-0.5,0.866025403784,0.));
#676 = PCURVE('',#173,#677);
#677 = DEFINITIONAL_REPRESENTATION('',(#678),#682);
#678 = LINE('',#679,#680);
#679 = CARTESIAN_POINT('',(4.6510213932,2.3255106966));
#680 = VECTOR('',#681,1.);
#681 = DIRECTION('',(0.834511930121,-0.550989871492));
#682 = ( GEOMETRIC_REPRESENTATION_CONTEXT(2) 
PARAMETRIC_REPRESENTATION_CONTEXT() REPRESENTATION_CONTEXT('2D SPACE',''
  ) );
#683 = PCURVE('',#684,#689);
#684 = PLANE('',#685);
#685 = AXIS2_PLACEMENT_3D('',#686,#687,#688);
#686 = CARTESIAN_POINT('',(10.1,-4.796163466381E-14,40.3));
#687 = DIRECTION('',(-0.866025403784,-0.5,0.));
#688 = DIRECTION('',(-0.5,0.866025403784,0.));
#689 = DEFINITIONAL_REPRESENTATION('',(#690),#694);
#690 = LINE('',#691,#692);
#691 = CARTESIAN_POINT('',(0.,0.));
#692 = VECTOR('',#693,1.);
#693 = DIRECTION('',(1.,0.));
#694 = ( GEOMETRIC_REPRESENTATION_CONTEXT(2) 
PARAMETRIC_REPRESENTATION_CONTEXT() REPRESENTATION_CONTEXT('2D SPACE',''
  ) );
#695 = ORIENTED_EDGE('',*,*,#696,.F.);
#696 = EDGE_CURVE('',#697,#667,#699,.T.);
#697 = VERTEX_POINT('',#698);
#698 = CARTESIAN_POINT('',(5.05,-8.746856578223,40.3));
#699 = SURFACE_CURVE('',#700,(#704,#711),.PCURVE_S1.);
#700 = LINE('',#701,#702);
#701 = CARTESIAN_POINT('',(5.05,-8.746856578223,40.3));
#702 = VECTOR('',#703,1.);
#703 = DIRECTION('',(0.5,0.866025403784,0.));
#704 = PCURVE('',#173,#705);
#705 = DEFINITIONAL_REPRESENTATION('',(#706),#710);
#706 = LINE('',#707,#708);
#707 = CARTESIAN_POINT('',(5.25616552808,12.407365713214));
#708 = VECTOR('',#709,1.);
#709 = DIRECTION('',(-5.991526087922E-02,-0.998203466991));
#710 = ( GEOMETRIC_REPRESENTATION_CONTEXT(2) 
PARAMETRIC_REPRESENTATION_CONTEXT() REPRESENTATION_CONTEXT('2D SPACE',''
  ) );
#711 = PCURVE('',#712,#717);
#712 = PLANE('',#713);
#713 = AXIS2_PLACEMENT_3D('',#714,#715,#716);
#714 = CARTESIAN_POINT('',(5.05,-8.746856578223,40.3));
#715 = DIRECTION('',(-0.866025403784,0.5,0.));
#716 = DIRECTION('',(0.5,0.866025403784,0.));
#717 = DEFINITIONAL_REPRESENTATION('',(#718),#722);
#718 = LINE('',#719,#720);
#719 = CARTESIAN_POINT('',(0.,0.));
#720 = VECTOR('',#721,1.);
#721 = DIRECTION('',(1.,0.));
#722 = ( GEOMETRIC_REPRESENTATION_CONTEXT(2) 
PARAMETRIC_REPRESENTATION_CONTEXT() REPRESENTATION_CONTEXT('2D SPACE',''
  ) );
#723 = ORIENTED_EDGE('',*,*,#724,.F.);
#724 = EDGE_CURVE('',#725,#697,#727,.T.);
#725 = VERTEX_POINT('',#726);
#726 = CARTESIAN_POINT('',(-5.05,-8.746856578223,40.3));
#727 = SURFACE_CURVE('',#728,(#732,#739),.PCURVE_S1.);
#728 = LINE('',#729,#730);
#729 = CARTESIAN_POINT('',(-5.05,-8.746856578223,40.3));
#730 = VECTOR('',#731,1.);
#731 = DIRECTION('',(1.,-7.035076591684E-16,0.));
#732 = PCURVE('',#173,#733);
#733 = DEFINITIONAL_REPRESENTATION('',(#734),#738);
#734 = LINE('',#735,#736);
#735 = CARTESIAN_POINT('',(14.289880157179,16.924223027763));
#736 = VECTOR('',#737,1.);
#737 = DIRECTION('',(-0.894427191,-0.4472135955));
#738 = ( GEOMETRIC_REPRESENTATION_CONTEXT(2) 
PARAMETRIC_REPRESENTATION_CONTEXT() REPRESENTATION_CONTEXT('2D SPACE',''
  ) );
#739 = PCURVE('',#740,#745);
#740 = PLANE('',#741);
#741 = AXIS2_PLACEMENT_3D('',#742,#743,#744);
#742 = CARTESIAN_POINT('',(-5.05,-8.746856578223,40.3));
#743 = DIRECTION('',(7.035076591684E-16,1.,-0.));
#744 = DIRECTION('',(1.,-7.035076591684E-16,0.));
#745 = DEFINITIONAL_REPRESENTATION('',(#746),#750);
#746 = LINE('',#747,#748);
#747 = CARTESIAN_POINT('',(0.,0.));
#748 = VECTOR('',#749,1.);
#749 = DIRECTION('',(1.,0.));
#750 = ( GEOMETRIC_REPRESENTATION_CONTEXT(2) 
PARAMETRIC_REPRESENTATION_CONTEXT() REPRESENTATION_CONTEXT('2D SPACE',''
  ) );
#751 = ORIENTED_EDGE('',*,*,#752,.F.);
#752 = EDGE_CURVE('',#753,#725,#755,.T.);
#753 = VERTEX_POINT('',#754);
#754 = CARTESIAN_POINT('',(-10.1,-4.672474139667E-14,40.3));
#755 = SURFACE_CURVE('',#756,(#760,#767),.PCURVE_S1.);
#756 = LINE('',#757,#758);
#757 = CARTESIAN_POINT('',(-10.1,-4.672474139667E-14,40.3));
#758 = VECTOR('',#759,1.);
#759 = DIRECTION('',(0.5,-0.866025403784,0.));
#760 = PCURVE('',#173,#761);
#761 = DEFINITIONAL_REPRESENTATION('',(#762),#766);
#762 = LINE('',#763,#764);
#763 = CARTESIAN_POINT('',(22.718450651398,11.359225325699));
#764 = VECTOR('',#765,1.);
#765 = DIRECTION('',(-0.834511930121,0.550989871492));
#766 = ( GEOMETRIC_REPRESENTATION_CONTEXT(2) 
PARAMETRIC_REPRESENTATION_CONTEXT() REPRESENTATION_CONTEXT('2D SPACE',''
  ) );
#767 = PCURVE('',#768,#773);
#768 = PLANE('',#769);
#769 = AXIS2_PLACEMENT_3D('',#770,#771,#772);
#770 = CARTESIAN_POINT('',(-10.1,-4.672474139667E-14,40.3));
#771 = DIRECTION('',(0.866025403784,0.5,-0.));
#772 = DIRECTION('',(0.5,-0.866025403784,0.));
#773 = DEFINITIONAL_REPRESENTATION('',(#774),#778);
#774 = LINE('',#775,#776);
#775 = CARTESIAN_POINT('',(0.,0.));
#776 = VECTOR('',#777,1.);
#777 = DIRECTION('',(1.,0.));
#778 = ( GEOMETRIC_REPRESENTATION_CONTEXT(2) 
PARAMETRIC_REPRESENTATION_CONTEXT() REPRESENTATION_CONTEXT('2D SPACE',''
  ) );
#779 = ORIENTED_EDGE('',*,*,#780,.F.);
#780 = EDGE_CURVE('',#781,#753,#783,.T.);
#781 = VERTEX_POINT('',#782);
#782 = CARTESIAN_POINT('',(-5.05,8.746856578223,40.3));
#783 = SURFACE_CURVE('',#784,(#788,#795),.PCURVE_S1.);
#784 = LINE('',#785,#786);
#785 = CARTESIAN_POINT('',(-5.05,8.746856578223,40.3));
#786 = VECTOR('',#787,1.);
#787 = DIRECTION('',(-0.5,-0.866025403784,0.));
#788 = PCURVE('',#173,#789);
#789 = DEFINITIONAL_REPRESENTATION('',(#790),#794);
#790 = LINE('',#791,#792);
#791 = CARTESIAN_POINT('',(22.113306516518,1.277370309085));
#792 = VECTOR('',#793,1.);
#793 = DIRECTION('',(5.991526087922E-02,0.998203466991));
#794 = ( GEOMETRIC_REPRESENTATION_CONTEXT(2) 
PARAMETRIC_REPRESENTATION_CONTEXT() REPRESENTATION_CONTEXT('2D SPACE',''
  ) );
#795 = PCURVE('',#796,#801);
#796 = PLANE('',#797);
#797 = AXIS2_PLACEMENT_3D('',#798,#799,#800);
#798 = CARTESIAN_POINT('',(-5.05,8.746856578223,40.3));
#799 = DIRECTION('',(0.866025403784,-0.5,0.));
#800 = DIRECTION('',(-0.5,-0.866025403784,0.));
#801 = DEFINITIONAL_REPRESENTATION('',(#802),#806);
#802 = LINE('',#803,#804);
#803 = CARTESIAN_POINT('',(0.,0.));
#804 = VECTOR('',#805,1.);
#805 = DIRECTION('',(1.,0.));
#806 = ( GEOMETRIC_REPRESENTATION_CONTEXT(2) 
PARAMETRIC_REPRESENTATION_CONTEXT() REPRESENTATION_CONTEXT('2D SPACE',''
  ) );
#807 = ORIENTED_EDGE('',*,*,#808,.F.);
#808 = EDGE_CURVE('',#669,#781,#809,.T.);
#809 = SURFACE_CURVE('',#810,(#814,#821),.PCURVE_S1.);
#810 = LINE('',#811,#812);
#811 = CARTESIAN_POINT('',(5.05,8.746856578223,40.3));
#812 = VECTOR('',#813,1.);
#813 = DIRECTION('',(-1.,1.758769147921E-16,0.));
#814 = PCURVE('',#173,#815);
#815 = DEFINITIONAL_REPRESENTATION('',(#816),#820);
#816 = LINE('',#817,#818);
#817 = CARTESIAN_POINT('',(13.079591887419,-3.239487005464));
#818 = VECTOR('',#819,1.);
#819 = DIRECTION('',(0.894427191,0.4472135955));
#820 = ( GEOMETRIC_REPRESENTATION_CONTEXT(2) 
PARAMETRIC_REPRESENTATION_CONTEXT() REPRESENTATION_CONTEXT('2D SPACE',''
  ) );
#821 = PCURVE('',#822,#827);
#822 = PLANE('',#823);
#823 = AXIS2_PLACEMENT_3D('',#824,#825,#826);
#824 = CARTESIAN_POINT('',(5.05,8.746856578223,40.3));
#825 = DIRECTION('',(-1.758769147921E-16,-1.,0.));
#826 = DIRECTION('',(-1.,1.758769147921E-16,0.));
#827 = DEFINITIONAL_REPRESENTATION('',(#828),#832);
#828 = LINE('',#829,#830);
#829 = CARTESIAN_POINT('',(0.,0.));
#830 = VECTOR('',#831,1.);
#831 = DIRECTION('',(1.,0.));
#832 = ( GEOMETRIC_REPRESENTATION_CONTEXT(2) 
PARAMETRIC_REPRESENTATION_CONTEXT() REPRESENTATION_CONTEXT('2D SPACE',''
  ) );
#833 = ADVANCED_FACE('',(#834),#206,.T.);
#834 = FACE_BOUND('',#835,.T.);
#835 = EDGE_LOOP('',(#836,#837,#838,#839));
#836 = ORIENTED_EDGE('',*,*,#248,.T.);
#837 = ORIENTED_EDGE('',*,*,#192,.T.);
#838 = ORIENTED_EDGE('',*,*,#629,.F.);
#839 = ORIENTED_EDGE('',*,*,#840,.F.);
#840 = EDGE_CURVE('',#249,#593,#841,.T.);
#841 = SURFACE_CURVE('',#842,(#846,#853),.PCURVE_S1.);
#842 = B_SPLINE_CURVE_WITH_KNOTS('',2,(#843,#844,#845),.UNSPECIFIED.,.F.
  ,.F.,(3,3),(0.,1.),.PIECEWISE_BEZIER_KNOTS.);
#843 = CARTESIAN_POINT('',(22.980970388563,-22.98097038856,0.));
#844 = CARTESIAN_POINT('',(14.659218946436,-14.65921894643,20.15));
#845 = CARTESIAN_POINT('',(15.3,-15.3,40.3));
#846 = PCURVE('',#206,#847);
#847 = DEFINITIONAL_REPRESENTATION('',(#848),#852);
#848 = LINE('',#849,#850);
#849 = CARTESIAN_POINT('',(4.,0.));
#850 = VECTOR('',#851,1.);
#851 = DIRECTION('',(0.,1.));
#852 = ( GEOMETRIC_REPRESENTATION_CONTEXT(2) 
PARAMETRIC_REPRESENTATION_CONTEXT() REPRESENTATION_CONTEXT('2D SPACE',''
  ) );
#853 = PCURVE('',#315,#854);
#854 = DEFINITIONAL_REPRESENTATION('',(#855),#859);
#855 = LINE('',#856,#857);
#856 = CARTESIAN_POINT('',(4.,0.));
#857 = VECTOR('',#858,1.);
#858 = DIRECTION('',(0.,1.));
#859 = ( GEOMETRIC_REPRESENTATION_CONTEXT(2) 
PARAMETRIC_REPRESENTATION_CONTEXT() REPRESENTATION_CONTEXT('2D SPACE',''
  ) );
#860 = ADVANCED_FACE('',(#861),#315,.T.);
#861 = FACE_BOUND('',#862,.T.);
#862 = EDGE_LOOP('',(#863,#864,#865,#866));
#863 = ORIENTED_EDGE('',*,*,#285,.T.);
#864 = ORIENTED_EDGE('',*,*,#840,.T.);
#865 = ORIENTED_EDGE('',*,*,#592,.F.);
#866 = ORIENTED_EDGE('',*,*,#867,.F.);
#867 = EDGE_CURVE('',#286,#556,#868,.T.);
#868 = SURFACE_CURVE('',#869,(#873,#880),.PCURVE_S1.);
#869 = B_SPLINE_CURVE_WITH_KNOTS('',2,(#870,#871,#872),.UNSPECIFIED.,.F.
  ,.F.,(3,3),(0.,1.),.PIECEWISE_BEZIER_KNOTS.);
#870 = CARTESIAN_POINT('',(-22.98097038856,-22.98097038856,0.));
#871 = CARTESIAN_POINT('',(-14.65921894643,-14.65921894643,20.15));
#872 = CARTESIAN_POINT('',(-15.3,-15.3,40.3));
#873 = PCURVE('',#315,#874);
#874 = DEFINITIONAL_REPRESENTATION('',(#875),#879);
#875 = LINE('',#876,#877);
#876 = CARTESIAN_POINT('',(3.,0.));
#877 = VECTOR('',#878,1.);
#878 = DIRECTION('',(0.,1.));
#879 = ( GEOMETRIC_REPRESENTATION_CONTEXT(2) 
PARAMETRIC_REPRESENTATION_CONTEXT() REPRESENTATION_CONTEXT('2D SPACE',''
  ) );
#880 = PCURVE('',#383,#881);
#881 = DEFINITIONAL_REPRESENTATION('',(#882),#886);
#882 = LINE('',#883,#884);
#883 = CARTESIAN_POINT('',(3.,0.));
#884 = VECTOR('',#885,1.);
#885 = DIRECTION('',(0.,1.));
#886 = ( GEOMETRIC_REPRESENTATION_CONTEXT(2) 
PARAMETRIC_REPRESENTATION_CONTEXT() REPRESENTATION_CONTEXT('2D SPACE',''
  ) );
#887 = ADVANCED_FACE('',(#888),#383,.T.);
#888 = FACE_BOUND('',#889,.T.);
#889 = EDGE_LOOP('',(#890,#891,#892,#893));
#890 = ORIENTED_EDGE('',*,*,#353,.T.);
#891 = ORIENTED_EDGE('',*,*,#867,.T.);
#892 = ORIENTED_EDGE('',*,*,#555,.F.);
#893 = ORIENTED_EDGE('',*,*,#491,.F.);
#894 = ADVANCED_FACE('',(#895),#475,.F.);
#895 = FACE_BOUND('',#896,.F.);
#896 = EDGE_LOOP('',(#897,#898,#921,#952));
#897 = ORIENTED_EDGE('',*,*,#458,.F.);
#898 = ORIENTED_EDGE('',*,*,#899,.F.);
#899 = EDGE_CURVE('',#900,#459,#902,.T.);
#900 = VERTEX_POINT('',#901);
#901 = CARTESIAN_POINT('',(-4.9,-5.093814536637E-14,63.5));
#902 = SEAM_CURVE('',#903,(#907,#914),.PCURVE_S1.);
#903 = LINE('',#904,#905);
#904 = CARTESIAN_POINT('',(-4.9,-5.093814536637E-14,63.5));
#905 = VECTOR('',#906,1.);
#906 = DIRECTION('',(0.,0.,-1.));
#907 = PCURVE('',#475,#908);
#908 = DEFINITIONAL_REPRESENTATION('',(#909),#913);
#909 = LINE('',#910,#911);
#910 = CARTESIAN_POINT('',(6.28318530718,-0.));
#911 = VECTOR('',#912,1.);
#912 = DIRECTION('',(0.,1.));
#913 = ( GEOMETRIC_REPRESENTATION_CONTEXT(2) 
PARAMETRIC_REPRESENTATION_CONTEXT() REPRESENTATION_CONTEXT('2D SPACE',''
  ) );
#914 = PCURVE('',#475,#915);
#915 = DEFINITIONAL_REPRESENTATION('',(#916),#920);
#916 = LINE('',#917,#918);
#917 = CARTESIAN_POINT('',(0.,-0.));
#918 = VECTOR('',#919,1.);
#919 = DIRECTION('',(0.,1.));
#920 = ( GEOMETRIC_REPRESENTATION_CONTEXT(2) 
PARAMETRIC_REPRESENTATION_CONTEXT() REPRESENTATION_CONTEXT('2D SPACE',''
  ) );
#921 = ORIENTED_EDGE('',*,*,#922,.T.);
#922 = EDGE_CURVE('',#900,#900,#923,.T.);
#923 = SURFACE_CURVE('',#924,(#929,#936),.PCURVE_S1.);
#924 = CIRCLE('',#925,4.9);
#925 = AXIS2_PLACEMENT_3D('',#926,#927,#928);
#926 = CARTESIAN_POINT('',(4.085620730621E-14,-4.973799150321E-14,63.5)
  );
#927 = DIRECTION('',(0.,0.,-1.));
#928 = DIRECTION('',(-1.,0.,0.));
#929 = PCURVE('',#475,#930);
#930 = DEFINITIONAL_REPRESENTATION('',(#931),#935);
#931 = LINE('',#932,#933);
#932 = CARTESIAN_POINT('',(0.,0.));
#933 = VECTOR('',#934,1.);
#934 = DIRECTION('',(1.,0.));
#935 = ( GEOMETRIC_REPRESENTATION_CONTEXT(2) 
PARAMETRIC_REPRESENTATION_CONTEXT() REPRESENTATION_CONTEXT('2D SPACE',''
  ) );
#936 = PCURVE('',#937,#942);
#937 = PLANE('',#938);
#938 = AXIS2_PLACEMENT_3D('',#939,#940,#941);
#939 = CARTESIAN_POINT('',(4.033443912566E-14,-4.831778541626E-14,63.5)
  );
#940 = DIRECTION('',(0.,0.,1.));
#941 = DIRECTION('',(1.,0.,-0.));
#942 = DEFINITIONAL_REPRESENTATION('',(#943),#951);
#943 = ( BOUNDED_CURVE() B_SPLINE_CURVE(2,(#944,#945,#946,#947,#948,#949
,#950),.UNSPECIFIED.,.T.,.F.) B_SPLINE_CURVE_WITH_KNOTS((1,2,2,2,2,1),(
    -2.094395102393,0.,2.094395102393,4.188790204786,6.28318530718,
8.377580409573),.UNSPECIFIED.) CURVE() GEOMETRIC_REPRESENTATION_ITEM() 
RATIONAL_B_SPLINE_CURVE((1.,0.5,1.,0.5,1.,0.5,1.)) REPRESENTATION_ITEM(
  '') );
#944 = CARTESIAN_POINT('',(-4.9,-1.420206086946E-15));
#945 = CARTESIAN_POINT('',(-4.9,8.487048957087));
#946 = CARTESIAN_POINT('',(2.45,4.243524478544));
#947 = CARTESIAN_POINT('',(9.8,-2.200522237818E-16));
#948 = CARTESIAN_POINT('',(2.45,-4.243524478544));
#949 = CARTESIAN_POINT('',(-4.9,-8.487048957088));
#950 = CARTESIAN_POINT('',(-4.9,-1.420206086946E-15));
#951 = ( GEOMETRIC_REPRESENTATION_CONTEXT(2) 
PARAMETRIC_REPRESENTATION_CONTEXT() REPRESENTATION_CONTEXT('2D SPACE',''
  ) );
#952 = ORIENTED_EDGE('',*,*,#899,.T.);
#953 = ADVANCED_FACE('',(#954),#684,.F.);
#954 = FACE_BOUND('',#955,.F.);
#955 = EDGE_LOOP('',(#956,#979,#1002,#1023));
#956 = ORIENTED_EDGE('',*,*,#957,.T.);
#957 = EDGE_CURVE('',#667,#958,#960,.T.);
#958 = VERTEX_POINT('',#959);
#959 = CARTESIAN_POINT('',(10.1,-4.796163466381E-14,63.5));
#960 = SURFACE_CURVE('',#961,(#965,#972),.PCURVE_S1.);
#961 = LINE('',#962,#963);
#962 = CARTESIAN_POINT('',(10.1,-4.796163466381E-14,40.3));
#963 = VECTOR('',#964,1.);
#964 = DIRECTION('',(0.,0.,1.));
#965 = PCURVE('',#684,#966);
#966 = DEFINITIONAL_REPRESENTATION('',(#967),#971);
#967 = LINE('',#968,#969);
#968 = CARTESIAN_POINT('',(0.,0.));
#969 = VECTOR('',#970,1.);
#970 = DIRECTION('',(0.,-1.));
#971 = ( GEOMETRIC_REPRESENTATION_CONTEXT(2) 
PARAMETRIC_REPRESENTATION_CONTEXT() REPRESENTATION_CONTEXT('2D SPACE',''
  ) );
#972 = PCURVE('',#712,#973);
#973 = DEFINITIONAL_REPRESENTATION('',(#974),#978);
#974 = LINE('',#975,#976);
#975 = CARTESIAN_POINT('',(10.1,0.));
#976 = VECTOR('',#977,1.);
#977 = DIRECTION('',(0.,-1.));
#978 = ( GEOMETRIC_REPRESENTATION_CONTEXT(2) 
PARAMETRIC_REPRESENTATION_CONTEXT() REPRESENTATION_CONTEXT('2D SPACE',''
  ) );
#979 = ORIENTED_EDGE('',*,*,#980,.T.);
#980 = EDGE_CURVE('',#958,#981,#983,.T.);
#981 = VERTEX_POINT('',#982);
#982 = CARTESIAN_POINT('',(5.05,8.746856578223,63.5));
#983 = SURFACE_CURVE('',#984,(#988,#995),.PCURVE_S1.);
#984 = LINE('',#985,#986);
#985 = CARTESIAN_POINT('',(10.1,-4.796163466381E-14,63.5));
#986 = VECTOR('',#987,1.);
#987 = DIRECTION('',(-0.5,0.866025403784,0.));
#988 = PCURVE('',#684,#989);
#989 = DEFINITIONAL_REPRESENTATION('',(#990),#994);
#990 = LINE('',#991,#992);
#991 = CARTESIAN_POINT('',(0.,-23.2));
#992 = VECTOR('',#993,1.);
#993 = DIRECTION('',(1.,0.));
#994 = ( GEOMETRIC_REPRESENTATION_CONTEXT(2) 
PARAMETRIC_REPRESENTATION_CONTEXT() REPRESENTATION_CONTEXT('2D SPACE',''
  ) );
#995 = PCURVE('',#937,#996);
#996 = DEFINITIONAL_REPRESENTATION('',(#997),#1001);
#997 = LINE('',#998,#999);
#998 = CARTESIAN_POINT('',(10.1,3.56150752454E-16));
#999 = VECTOR('',#1000,1.);
#1000 = DIRECTION('',(-0.5,0.866025403784));
#1001 = ( GEOMETRIC_REPRESENTATION_CONTEXT(2) 
PARAMETRIC_REPRESENTATION_CONTEXT() REPRESENTATION_CONTEXT('2D SPACE',''
  ) );
#1002 = ORIENTED_EDGE('',*,*,#1003,.F.);
#1003 = EDGE_CURVE('',#669,#981,#1004,.T.);
#1004 = SURFACE_CURVE('',#1005,(#1009,#1016),.PCURVE_S1.);
#1005 = LINE('',#1006,#1007);
#1006 = CARTESIAN_POINT('',(5.05,8.746856578223,40.3));
#1007 = VECTOR('',#1008,1.);
#1008 = DIRECTION('',(0.,0.,1.));
#1009 = PCURVE('',#684,#1010);
#1010 = DEFINITIONAL_REPRESENTATION('',(#1011),#1015);
#1011 = LINE('',#1012,#1013);
#1012 = CARTESIAN_POINT('',(10.1,0.));
#1013 = VECTOR('',#1014,1.);
#1014 = DIRECTION('',(0.,-1.));
#1015 = ( GEOMETRIC_REPRESENTATION_CONTEXT(2) 
PARAMETRIC_REPRESENTATION_CONTEXT() REPRESENTATION_CONTEXT('2D SPACE',''
  ) );
#1016 = PCURVE('',#822,#1017);
#1017 = DEFINITIONAL_REPRESENTATION('',(#1018),#1022);
#1018 = LINE('',#1019,#1020);
#1019 = CARTESIAN_POINT('',(0.,0.));
#1020 = VECTOR('',#1021,1.);
#1021 = DIRECTION('',(0.,-1.));
#1022 = ( GEOMETRIC_REPRESENTATION_CONTEXT(2) 
PARAMETRIC_REPRESENTATION_CONTEXT() REPRESENTATION_CONTEXT('2D SPACE',''
  ) );
#1023 = ORIENTED_EDGE('',*,*,#666,.F.);
#1024 = ADVANCED_FACE('',(#1025),#822,.F.);
#1025 = FACE_BOUND('',#1026,.F.);
#1026 = EDGE_LOOP('',(#1027,#1028,#1051,#1072));
#1027 = ORIENTED_EDGE('',*,*,#1003,.T.);
#1028 = ORIENTED_EDGE('',*,*,#1029,.T.);
#1029 = EDGE_CURVE('',#981,#1030,#1032,.T.);
#1030 = VERTEX_POINT('',#1031);
#1031 = CARTESIAN_POINT('',(-5.05,8.746856578223,63.5));
#1032 = SURFACE_CURVE('',#1033,(#1037,#1044),.PCURVE_S1.);
#1033 = LINE('',#1034,#1035);
#1034 = CARTESIAN_POINT('',(5.05,8.746856578223,63.5));
#1035 = VECTOR('',#1036,1.);
#1036 = DIRECTION('',(-1.,1.758769147921E-16,0.));
#1037 = PCURVE('',#822,#1038);
#1038 = DEFINITIONAL_REPRESENTATION('',(#1039),#1043);
#1039 = LINE('',#1040,#1041);
#1040 = CARTESIAN_POINT('',(0.,-23.2));
#1041 = VECTOR('',#1042,1.);
#1042 = DIRECTION('',(1.,0.));
#1043 = ( GEOMETRIC_REPRESENTATION_CONTEXT(2) 
PARAMETRIC_REPRESENTATION_CONTEXT() REPRESENTATION_CONTEXT('2D SPACE',''
  ) );
#1044 = PCURVE('',#937,#1045);
#1045 = DEFINITIONAL_REPRESENTATION('',(#1046),#1050);
#1046 = LINE('',#1047,#1048);
#1047 = CARTESIAN_POINT('',(5.05,8.746856578223));
#1048 = VECTOR('',#1049,1.);
#1049 = DIRECTION('',(-1.,1.758769147921E-16));
#1050 = ( GEOMETRIC_REPRESENTATION_CONTEXT(2) 
PARAMETRIC_REPRESENTATION_CONTEXT() REPRESENTATION_CONTEXT('2D SPACE',''
  ) );
#1051 = ORIENTED_EDGE('',*,*,#1052,.F.);
#1052 = EDGE_CURVE('',#781,#1030,#1053,.T.);
#1053 = SURFACE_CURVE('',#1054,(#1058,#1065),.PCURVE_S1.);
#1054 = LINE('',#1055,#1056);
#1055 = CARTESIAN_POINT('',(-5.05,8.746856578223,40.3));
#1056 = VECTOR('',#1057,1.);
#1057 = DIRECTION('',(0.,0.,1.));
#1058 = PCURVE('',#822,#1059);
#1059 = DEFINITIONAL_REPRESENTATION('',(#1060),#1064);
#1060 = LINE('',#1061,#1062);
#1061 = CARTESIAN_POINT('',(10.1,0.));
#1062 = VECTOR('',#1063,1.);
#1063 = DIRECTION('',(0.,-1.));
#1064 = ( GEOMETRIC_REPRESENTATION_CONTEXT(2) 
PARAMETRIC_REPRESENTATION_CONTEXT() REPRESENTATION_CONTEXT('2D SPACE',''
  ) );
#1065 = PCURVE('',#796,#1066);
#1066 = DEFINITIONAL_REPRESENTATION('',(#1067),#1071);
#1067 = LINE('',#1068,#1069);
#1068 = CARTESIAN_POINT('',(0.,0.));
#1069 = VECTOR('',#1070,1.);
#1070 = DIRECTION('',(0.,-1.));
#1071 = ( GEOMETRIC_REPRESENTATION_CONTEXT(2) 
PARAMETRIC_REPRESENTATION_CONTEXT() REPRESENTATION_CONTEXT('2D SPACE',''
  ) );
#1072 = ORIENTED_EDGE('',*,*,#808,.F.);
#1073 = ADVANCED_FACE('',(#1074),#796,.F.);
#1074 = FACE_BOUND('',#1075,.F.);
#1075 = EDGE_LOOP('',(#1076,#1077,#1100,#1121));
#1076 = ORIENTED_EDGE('',*,*,#1052,.T.);
#1077 = ORIENTED_EDGE('',*,*,#1078,.T.);
#1078 = EDGE_CURVE('',#1030,#1079,#1081,.T.);
#1079 = VERTEX_POINT('',#1080);
#1080 = CARTESIAN_POINT('',(-10.1,-4.672474139667E-14,63.5));
#1081 = SURFACE_CURVE('',#1082,(#1086,#1093),.PCURVE_S1.);
#1082 = LINE('',#1083,#1084);
#1083 = CARTESIAN_POINT('',(-5.05,8.746856578223,63.5));
#1084 = VECTOR('',#1085,1.);
#1085 = DIRECTION('',(-0.5,-0.866025403784,0.));
#1086 = PCURVE('',#796,#1087);
#1087 = DEFINITIONAL_REPRESENTATION('',(#1088),#1092);
#1088 = LINE('',#1089,#1090);
#1089 = CARTESIAN_POINT('',(0.,-23.2));
#1090 = VECTOR('',#1091,1.);
#1091 = DIRECTION('',(1.,0.));
#1092 = ( GEOMETRIC_REPRESENTATION_CONTEXT(2) 
PARAMETRIC_REPRESENTATION_CONTEXT() REPRESENTATION_CONTEXT('2D SPACE',''
  ) );
#1093 = PCURVE('',#937,#1094);
#1094 = DEFINITIONAL_REPRESENTATION('',(#1095),#1099);
#1095 = LINE('',#1096,#1097);
#1096 = CARTESIAN_POINT('',(-5.05,8.746856578223));
#1097 = VECTOR('',#1098,1.);
#1098 = DIRECTION('',(-0.5,-0.866025403784));
#1099 = ( GEOMETRIC_REPRESENTATION_CONTEXT(2) 
PARAMETRIC_REPRESENTATION_CONTEXT() REPRESENTATION_CONTEXT('2D SPACE',''
  ) );
#1100 = ORIENTED_EDGE('',*,*,#1101,.F.);
#1101 = EDGE_CURVE('',#753,#1079,#1102,.T.);
#1102 = SURFACE_CURVE('',#1103,(#1107,#1114),.PCURVE_S1.);
#1103 = LINE('',#1104,#1105);
#1104 = CARTESIAN_POINT('',(-10.1,-4.672474139667E-14,40.3));
#1105 = VECTOR('',#1106,1.);
#1106 = DIRECTION('',(0.,0.,1.));
#1107 = PCURVE('',#796,#1108);
#1108 = DEFINITIONAL_REPRESENTATION('',(#1109),#1113);
#1109 = LINE('',#1110,#1111);
#1110 = CARTESIAN_POINT('',(10.1,0.));
#1111 = VECTOR('',#1112,1.);
#1112 = DIRECTION('',(0.,-1.));
#1113 = ( GEOMETRIC_REPRESENTATION_CONTEXT(2) 
PARAMETRIC_REPRESENTATION_CONTEXT() REPRESENTATION_CONTEXT('2D SPACE',''
  ) );
#1114 = PCURVE('',#768,#1115);
#1115 = DEFINITIONAL_REPRESENTATION('',(#1116),#1120);
#1116 = LINE('',#1117,#1118);
#1117 = CARTESIAN_POINT('',(0.,0.));
#1118 = VECTOR('',#1119,1.);
#1119 = DIRECTION('',(0.,-1.));
#1120 = ( GEOMETRIC_REPRESENTATION_CONTEXT(2) 
PARAMETRIC_REPRESENTATION_CONTEXT() REPRESENTATION_CONTEXT('2D SPACE',''
  ) );
#1121 = ORIENTED_EDGE('',*,*,#780,.F.);
#1122 = ADVANCED_FACE('',(#1123),#768,.F.);
#1123 = FACE_BOUND('',#1124,.F.);
#1124 = EDGE_LOOP('',(#1125,#1126,#1149,#1170));
#1125 = ORIENTED_EDGE('',*,*,#1101,.T.);
#1126 = ORIENTED_EDGE('',*,*,#1127,.T.);
#1127 = EDGE_CURVE('',#1079,#1128,#1130,.T.);
#1128 = VERTEX_POINT('',#1129);
#1129 = CARTESIAN_POINT('',(-5.05,-8.746856578223,63.5));
#1130 = SURFACE_CURVE('',#1131,(#1135,#1142),.PCURVE_S1.);
#1131 = LINE('',#1132,#1133);
#1132 = CARTESIAN_POINT('',(-10.1,-4.672474139667E-14,63.5));
#1133 = VECTOR('',#1134,1.);
#1134 = DIRECTION('',(0.5,-0.866025403784,0.));
#1135 = PCURVE('',#768,#1136);
#1136 = DEFINITIONAL_REPRESENTATION('',(#1137),#1141);
#1137 = LINE('',#1138,#1139);
#1138 = CARTESIAN_POINT('',(0.,-23.2));
#1139 = VECTOR('',#1140,1.);
#1140 = DIRECTION('',(1.,0.));
#1141 = ( GEOMETRIC_REPRESENTATION_CONTEXT(2) 
PARAMETRIC_REPRESENTATION_CONTEXT() REPRESENTATION_CONTEXT('2D SPACE',''
  ) );
#1142 = PCURVE('',#937,#1143);
#1143 = DEFINITIONAL_REPRESENTATION('',(#1144),#1148);
#1144 = LINE('',#1145,#1146);
#1145 = CARTESIAN_POINT('',(-10.1,1.593044019593E-15));
#1146 = VECTOR('',#1147,1.);
#1147 = DIRECTION('',(0.5,-0.866025403784));
#1148 = ( GEOMETRIC_REPRESENTATION_CONTEXT(2) 
PARAMETRIC_REPRESENTATION_CONTEXT() REPRESENTATION_CONTEXT('2D SPACE',''
  ) );
#1149 = ORIENTED_EDGE('',*,*,#1150,.F.);
#1150 = EDGE_CURVE('',#725,#1128,#1151,.T.);
#1151 = SURFACE_CURVE('',#1152,(#1156,#1163),.PCURVE_S1.);
#1152 = LINE('',#1153,#1154);
#1153 = CARTESIAN_POINT('',(-5.05,-8.746856578223,40.3));
#1154 = VECTOR('',#1155,1.);
#1155 = DIRECTION('',(0.,0.,1.));
#1156 = PCURVE('',#768,#1157);
#1157 = DEFINITIONAL_REPRESENTATION('',(#1158),#1162);
#1158 = LINE('',#1159,#1160);
#1159 = CARTESIAN_POINT('',(10.1,0.));
#1160 = VECTOR('',#1161,1.);
#1161 = DIRECTION('',(0.,-1.));
#1162 = ( GEOMETRIC_REPRESENTATION_CONTEXT(2) 
PARAMETRIC_REPRESENTATION_CONTEXT() REPRESENTATION_CONTEXT('2D SPACE',''
  ) );
#1163 = PCURVE('',#740,#1164);
#1164 = DEFINITIONAL_REPRESENTATION('',(#1165),#1169);
#1165 = LINE('',#1166,#1167);
#1166 = CARTESIAN_POINT('',(0.,0.));
#1167 = VECTOR('',#1168,1.);
#1168 = DIRECTION('',(0.,-1.));
#1169 = ( GEOMETRIC_REPRESENTATION_CONTEXT(2) 
PARAMETRIC_REPRESENTATION_CONTEXT() REPRESENTATION_CONTEXT('2D SPACE',''
  ) );
#1170 = ORIENTED_EDGE('',*,*,#752,.F.);
#1171 = ADVANCED_FACE('',(#1172),#740,.F.);
#1172 = FACE_BOUND('',#1173,.F.);
#1173 = EDGE_LOOP('',(#1174,#1175,#1198,#1219));
#1174 = ORIENTED_EDGE('',*,*,#1150,.T.);
#1175 = ORIENTED_EDGE('',*,*,#1176,.T.);
#1176 = EDGE_CURVE('',#1128,#1177,#1179,.T.);
#1177 = VERTEX_POINT('',#1178);
#1178 = CARTESIAN_POINT('',(5.05,-8.746856578223,63.5));
#1179 = SURFACE_CURVE('',#1180,(#1184,#1191),.PCURVE_S1.);
#1180 = LINE('',#1181,#1182);
#1181 = CARTESIAN_POINT('',(-5.05,-8.746856578223,63.5));
#1182 = VECTOR('',#1183,1.);
#1183 = DIRECTION('',(1.,-7.035076591684E-16,0.));
#1184 = PCURVE('',#740,#1185);
#1185 = DEFINITIONAL_REPRESENTATION('',(#1186),#1190);
#1186 = LINE('',#1187,#1188);
#1187 = CARTESIAN_POINT('',(0.,-23.2));
#1188 = VECTOR('',#1189,1.);
#1189 = DIRECTION('',(1.,0.));
#1190 = ( GEOMETRIC_REPRESENTATION_CONTEXT(2) 
PARAMETRIC_REPRESENTATION_CONTEXT() REPRESENTATION_CONTEXT('2D SPACE',''
  ) );
#1191 = PCURVE('',#937,#1192);
#1192 = DEFINITIONAL_REPRESENTATION('',(#1193),#1197);
#1193 = LINE('',#1194,#1195);
#1194 = CARTESIAN_POINT('',(-5.05,-8.746856578223));
#1195 = VECTOR('',#1196,1.);
#1196 = DIRECTION('',(1.,-7.035076591684E-16));
#1197 = ( GEOMETRIC_REPRESENTATION_CONTEXT(2) 
PARAMETRIC_REPRESENTATION_CONTEXT() REPRESENTATION_CONTEXT('2D SPACE',''
  ) );
#1198 = ORIENTED_EDGE('',*,*,#1199,.F.);
#1199 = EDGE_CURVE('',#697,#1177,#1200,.T.);
#1200 = SURFACE_CURVE('',#1201,(#1205,#1212),.PCURVE_S1.);
#1201 = LINE('',#1202,#1203);
#1202 = CARTESIAN_POINT('',(5.05,-8.746856578223,40.3));
#1203 = VECTOR('',#1204,1.);
#1204 = DIRECTION('',(0.,0.,1.));
#1205 = PCURVE('',#740,#1206);
#1206 = DEFINITIONAL_REPRESENTATION('',(#1207),#1211);
#1207 = LINE('',#1208,#1209);
#1208 = CARTESIAN_POINT('',(10.1,0.));
#1209 = VECTOR('',#1210,1.);
#1210 = DIRECTION('',(0.,-1.));
#1211 = ( GEOMETRIC_REPRESENTATION_CONTEXT(2) 
PARAMETRIC_REPRESENTATION_CONTEXT() REPRESENTATION_CONTEXT('2D SPACE',''
  ) );
#1212 = PCURVE('',#712,#1213);
#1213 = DEFINITIONAL_REPRESENTATION('',(#1214),#1218);
#1214 = LINE('',#1215,#1216);
#1215 = CARTESIAN_POINT('',(0.,0.));
#1216 = VECTOR('',#1217,1.);
#1217 = DIRECTION('',(0.,-1.));
#1218 = ( GEOMETRIC_REPRESENTATION_CONTEXT(2) 
PARAMETRIC_REPRESENTATION_CONTEXT() REPRESENTATION_CONTEXT('2D SPACE',''
  ) );
#1219 = ORIENTED_EDGE('',*,*,#724,.F.);
#1220 = ADVANCED_FACE('',(#1221),#712,.F.);
#1221 = FACE_BOUND('',#1222,.F.);
#1222 = EDGE_LOOP('',(#1223,#1224,#1245,#1246));
#1223 = ORIENTED_EDGE('',*,*,#1199,.T.);
#1224 = ORIENTED_EDGE('',*,*,#1225,.T.);
#1225 = EDGE_CURVE('',#1177,#958,#1226,.T.);
#1226 = SURFACE_CURVE('',#1227,(#1231,#1238),.PCURVE_S1.);
#1227 = LINE('',#1228,#1229);
#1228 = CARTESIAN_POINT('',(5.05,-8.746856578223,63.5));
#1229 = VECTOR('',#1230,1.);
#1230 = DIRECTION('',(0.5,0.866025403784,0.));
#1231 = PCURVE('',#712,#1232);
#1232 = DEFINITIONAL_REPRESENTATION('',(#1233),#1237);
#1233 = LINE('',#1234,#1235);
#1234 = CARTESIAN_POINT('',(0.,-23.2));
#1235 = VECTOR('',#1236,1.);
#1236 = DIRECTION('',(1.,0.));
#1237 = ( GEOMETRIC_REPRESENTATION_CONTEXT(2) 
PARAMETRIC_REPRESENTATION_CONTEXT() REPRESENTATION_CONTEXT('2D SPACE',''
  ) );
#1238 = PCURVE('',#937,#1239);
#1239 = DEFINITIONAL_REPRESENTATION('',(#1240),#1244);
#1240 = LINE('',#1241,#1242);
#1241 = CARTESIAN_POINT('',(5.05,-8.746856578223));
#1242 = VECTOR('',#1243,1.);
#1243 = DIRECTION('',(0.5,0.866025403784));
#1244 = ( GEOMETRIC_REPRESENTATION_CONTEXT(2) 
PARAMETRIC_REPRESENTATION_CONTEXT() REPRESENTATION_CONTEXT('2D SPACE',''
  ) );
#1245 = ORIENTED_EDGE('',*,*,#957,.F.);
#1246 = ORIENTED_EDGE('',*,*,#696,.F.);
#1247 = ADVANCED_FACE('',(#1248,#1256),#937,.T.);
#1248 = FACE_BOUND('',#1249,.T.);
#1249 = EDGE_LOOP('',(#1250,#1251,#1252,#1253,#1254,#1255));
#1250 = ORIENTED_EDGE('',*,*,#980,.T.);
#1251 = ORIENTED_EDGE('',*,*,#1029,.T.);
#1252 = ORIENTED_EDGE('',*,*,#1078,.T.);
#1253 = ORIENTED_EDGE('',*,*,#1127,.T.);
#1254 = ORIENTED_EDGE('',*,*,#1176,.T.);
#1255 = ORIENTED_EDGE('',*,*,#1225,.T.);
#1256 = FACE_BOUND('',#1257,.T.);
#1257 = EDGE_LOOP('',(#1258));
#1258 = ORIENTED_EDGE('',*,*,#922,.T.);
#1259 = ( GEOMETRIC_REPRESENTATION_CONTEXT(3) 
GLOBAL_UNCERTAINTY_ASSIGNED_CONTEXT((#1263)) 
GLOBAL_UNIT_ASSIGNED_CONTEXT((#1260,#1261,#1262)) REPRESENTATION_CONTEXT
('Context #1','3D Context with UNIT and UNCERTAINTY') );
#1260 = ( LENGTH_UNIT() NAMED_UNIT(*) SI_UNIT(.MILLI.,.METRE.) );
#1261 = ( NAMED_UNIT(*) PLANE_ANGLE_UNIT() SI_UNIT($,.RADIAN.) );
#1262 = ( NAMED_UNIT(*) SI_UNIT($,.STERADIAN.) SOLID_ANGLE_UNIT() );
#1263 = UNCERTAINTY_MEASURE_WITH_UNIT(LENGTH_MEASURE(1.E-07),#1260,
  'distance_accuracy_value','confusion accuracy');
#1264 = PRODUCT_RELATED_PRODUCT_CATEGORY('part',$,(#7));
ENDSEC;
END-ISO-10303-21;
