ISO-10303-21;
HEADER;
FILE_DESCRIPTION(('Open CASCADE Model'),'2;1');
FILE_NAME('Open CASCADE Shape Model','2026-06-10T00:30:26',('Author'),(
    'Open CASCADE'),'Open CASCADE STEP processor 7.8','Open CASCADE 7.8'
  ,'Unknown');
FILE_SCHEMA(('AUTOMOTIVE_DESIGN { 1 0 10303 214 1 1 1 1 }'));
ENDSEC;
DATA;
#1 = APPLICATION_PROTOCOL_DEFINITION('international standard',
  'automotive_design',2000,#2);
#2 = APPLICATION_CONTEXT(
  'core data for automotive mechanical design processes');
#3 = SHAPE_DEFINITION_REPRESENTATION(#4,#10);
#4 = PRODUCT_DEFINITION_SHAPE('','',#5);
#5 = PRODUCT_DEFINITION('design','',#6,#9);
#6 = PRODUCT_DEFINITION_FORMATION('','',#7);
#7 = PRODUCT('Open CASCADE STEP translator 7.8 27',
  'Open CASCADE STEP translator 7.8 27','',(#8));
#8 = PRODUCT_CONTEXT('',#2,'mechanical');
#9 = PRODUCT_DEFINITION_CONTEXT('part definition',#2,'design');
#10 = ADVANCED_BREP_SHAPE_REPRESENTATION('',(#11,#15),#875);
#11 = AXIS2_PLACEMENT_3D('',#12,#13,#14);
#12 = CARTESIAN_POINT('',(0.,0.,0.));
#13 = DIRECTION('',(0.,0.,1.));
#14 = DIRECTION('',(1.,0.,-0.));
#15 = MANIFOLD_SOLID_BREP('',#16);
#16 = CLOSED_SHELL('',(#17,#230,#526,#587,#760,#787,#814,#841,#848));
#17 = ADVANCED_FACE('',(#18),#38,.T.);
#18 = FACE_BOUND('',#19,.T.);
#19 = EDGE_LOOP('',(#20,#90,#141,#181));
#20 = ORIENTED_EDGE('',*,*,#21,.T.);
#21 = EDGE_CURVE('',#22,#24,#26,.T.);
#22 = VERTEX_POINT('',#23);
#23 = CARTESIAN_POINT('',(32.865,0.,0.));
#24 = VERTEX_POINT('',#25);
#25 = CARTESIAN_POINT('',(16.4325,28.461924895376,0.));
#26 = SURFACE_CURVE('',#27,(#37,#72),.PCURVE_S1.);
#27 = B_SPLINE_CURVE_WITH_KNOTS('',8,(#28,#29,#30,#31,#32,#33,#34,#35,
    #36),.UNSPECIFIED.,.F.,.F.,(9,9),(0.,1.),.PIECEWISE_BEZIER_KNOTS.);
#28 = CARTESIAN_POINT('',(32.865,3.552713678801E-15,0.));
#29 = CARTESIAN_POINT('',(32.865,4.30201844001,0.));
#30 = CARTESIAN_POINT('',(32.22141951303,8.604036943238,0.));
#31 = CARTESIAN_POINT('',(30.934258800651,12.793729022344,0.));
#32 = CARTESIAN_POINT('',(29.027042361004,16.758770720904,0.));
#33 = CARTESIAN_POINT('',(26.54682374281,20.392989457435,0.));
#34 = CARTESIAN_POINT('',(23.562024324459,23.60254937266,0.));
#35 = CARTESIAN_POINT('',(20.158157256597,26.310915675371,0.));
#36 = CARTESIAN_POINT('',(16.4325,28.461924895376,0.));
#37 = PCURVE('',#38,#66);
#38 = B_SPLINE_SURFACE_WITH_KNOTS('',8,2,(
    (#39,#40,#41)
    ,(#42,#43,#44)
    ,(#45,#46,#47)
    ,(#48,#49,#50)
    ,(#51,#52,#53)
    ,(#54,#55,#56)
    ,(#57,#58,#59)
    ,(#60,#61,#62)
    ,(#63,#64,#65
    )),.UNSPECIFIED.,.F.,.F.,.F.,(9,9),(3,3),(0.,1.),(0.,1.),
  .PIECEWISE_BEZIER_KNOTS.);
#39 = CARTESIAN_POINT('',(32.865,3.552713678801E-15,0.));
#40 = CARTESIAN_POINT('',(28.9675,-1.7763568394E-15,41.1));
#41 = CARTESIAN_POINT('',(25.,0.,82.2));
#42 = CARTESIAN_POINT('',(32.865,4.30201844001,0.));
#43 = CARTESIAN_POINT('',(29.74875,4.074918363368,41.1));
#44 = CARTESIAN_POINT('',(23.4375,2.706329386826,82.2));
#45 = CARTESIAN_POINT('',(32.22141951303,8.604036943238,0.));
#46 = CARTESIAN_POINT('',(29.717958181976,8.149835392228,41.099999999999
    ));
#47 = CARTESIAN_POINT('',(21.875,5.412658773653,82.2));
#48 = CARTESIAN_POINT('',(30.934258800651,12.793729022344,0.));
#49 = CARTESIAN_POINT('',(28.875140063441,12.08303161489,41.100000000001
    ));
#50 = CARTESIAN_POINT('',(20.3125,8.118988160479,82.2));
#51 = CARTESIAN_POINT('',(29.027042361004,16.758770720904,0.));
#52 = CARTESIAN_POINT('',(27.249935902583,15.732757828756,41.1));
#53 = CARTESIAN_POINT('',(18.75,10.825317547305,82.2));
#54 = CARTESIAN_POINT('',(26.54682374281,20.392989457435,0.));
#55 = CARTESIAN_POINT('',(24.901782364945,18.965089025328,
    41.099999999999));
#56 = CARTESIAN_POINT('',(17.1875,13.531646934132,82.2));
#57 = CARTESIAN_POINT('',(23.562024324459,23.60254937266,0.));
#58 = CARTESIAN_POINT('',(21.91694357732,21.661589038082,41.100000000001
    ));
#59 = CARTESIAN_POINT('',(15.625,16.237976320958,82.2));
#60 = CARTESIAN_POINT('',(20.158157256597,26.310915675371,0.));
#61 = CARTESIAN_POINT('',(18.403357821024,23.725714049148,41.1));
#62 = CARTESIAN_POINT('',(14.0625,18.944305707785,82.2));
#63 = CARTESIAN_POINT('',(16.4325,28.461924895376,0.));
#64 = CARTESIAN_POINT('',(14.48375,25.086590884126,41.1));
#65 = CARTESIAN_POINT('',(12.5,21.650635094611,82.2));
#66 = DEFINITIONAL_REPRESENTATION('',(#67),#71);
#67 = LINE('',#68,#69);
#68 = CARTESIAN_POINT('',(0.,0.));
#69 = VECTOR('',#70,1.);
#70 = DIRECTION('',(1.,0.));
#71 = ( GEOMETRIC_REPRESENTATION_CONTEXT(2) 
PARAMETRIC_REPRESENTATION_CONTEXT() REPRESENTATION_CONTEXT('2D SPACE',''
  ) );
#72 = PCURVE('',#73,#78);
#73 = PLANE('',#74);
#74 = AXIS2_PLACEMENT_3D('',#75,#76,#77);
#75 = CARTESIAN_POINT('',(32.865,3.552713678801E-15,0.));
#76 = DIRECTION('',(0.,0.,1.));
#77 = DIRECTION('',(-1.,7.634577926831E-16,0.));
#78 = DEFINITIONAL_REPRESENTATION('',(#79),#89);
#79 = B_SPLINE_CURVE_WITH_KNOTS('',8,(#80,#81,#82,#83,#84,#85,#86,#87,
    #88),.UNSPECIFIED.,.F.,.F.,(9,9),(0.,1.),.PIECEWISE_BEZIER_KNOTS.);
#80 = CARTESIAN_POINT('',(0.,0.));
#81 = CARTESIAN_POINT('',(-4.973799150321E-14,-4.30201844001));
#82 = CARTESIAN_POINT('',(0.64358048697,-8.604036943238));
#83 = CARTESIAN_POINT('',(1.930741199349,-12.79372902234));
#84 = CARTESIAN_POINT('',(3.837957638996,-16.7587707209));
#85 = CARTESIAN_POINT('',(6.31817625719,-20.39298945743));
#86 = CARTESIAN_POINT('',(9.302975675541,-23.60254937266));
#87 = CARTESIAN_POINT('',(12.706842743403,-26.31091567537));
#88 = CARTESIAN_POINT('',(16.4325,-28.46192489537));
#89 = ( GEOMETRIC_REPRESENTATION_CONTEXT(2) 
PARAMETRIC_REPRESENTATION_CONTEXT() REPRESENTATION_CONTEXT('2D SPACE',''
  ) );
#90 = ORIENTED_EDGE('',*,*,#91,.T.);
#91 = EDGE_CURVE('',#24,#92,#94,.T.);
#92 = VERTEX_POINT('',#93);
#93 = CARTESIAN_POINT('',(12.5,21.650635094611,82.2));
#94 = SURFACE_CURVE('',#95,(#99,#106),.PCURVE_S1.);
#95 = B_SPLINE_CURVE_WITH_KNOTS('',2,(#96,#97,#98),.UNSPECIFIED.,.F.,.F.
  ,(3,3),(0.,1.),.PIECEWISE_BEZIER_KNOTS.);
#96 = CARTESIAN_POINT('',(16.4325,28.461924895376,0.));
#97 = CARTESIAN_POINT('',(14.48375,25.086590884126,41.1));
#98 = CARTESIAN_POINT('',(12.5,21.650635094611,82.2));
#99 = PCURVE('',#38,#100);
#100 = DEFINITIONAL_REPRESENTATION('',(#101),#105);
#101 = LINE('',#102,#103);
#102 = CARTESIAN_POINT('',(1.,0.));
#103 = VECTOR('',#104,1.);
#104 = DIRECTION('',(0.,1.));
#105 = ( GEOMETRIC_REPRESENTATION_CONTEXT(2) 
PARAMETRIC_REPRESENTATION_CONTEXT() REPRESENTATION_CONTEXT('2D SPACE',''
  ) );
#106 = PCURVE('',#107,#135);
#107 = B_SPLINE_SURFACE_WITH_KNOTS('',8,2,(
    (#108,#109,#110)
    ,(#111,#112,#113)
    ,(#114,#115,#116)
    ,(#117,#118,#119)
    ,(#120,#121,#122)
    ,(#123,#124,#125)
    ,(#126,#127,#128)
    ,(#129,#130,#131)
    ,(#132,#133,#134
    )),.UNSPECIFIED.,.F.,.F.,.F.,(9,9),(3,3),(1.,2.),(0.,1.),
  .PIECEWISE_BEZIER_KNOTS.);
#108 = CARTESIAN_POINT('',(16.4325,28.461924895376,0.));
#109 = CARTESIAN_POINT('',(14.48375,25.086590884126,41.1));
#110 = CARTESIAN_POINT('',(12.5,21.650635094611,82.2));
#111 = CARTESIAN_POINT('',(12.706842743403,30.61293411538,0.));
#112 = CARTESIAN_POINT('',(11.345392178976,27.800632412516,41.1));
#113 = CARTESIAN_POINT('',(9.375,21.650635094611,82.2));
#114 = CARTESIAN_POINT('',(8.659395188571,32.206586315899,0.));
#115 = CARTESIAN_POINT('',(7.801014604657,29.811424430309,41.1));
#116 = CARTESIAN_POINT('',(6.25,21.650635094611,82.2));
#117 = CARTESIAN_POINT('',(4.387435057842,33.186718479778,0.));
#118 = CARTESIAN_POINT('',(3.973357698495,31.048120640219,
    41.100000000001));
#119 = CARTESIAN_POINT('',(3.125,21.650635094611,82.2));
#120 = CARTESIAN_POINT('',(6.217248937901E-14,33.517541441809,0.));
#121 = CARTESIAN_POINT('',(-2.764455331317E-14,31.465515657512,41.1));
#122 = CARTESIAN_POINT('',(4.662936703426E-15,21.650635094611,82.2));
#123 = CARTESIAN_POINT('',(-4.387435057842,33.186718479778,0.));
#124 = CARTESIAN_POINT('',(-3.973357698495,31.048120640217,
    41.099999999999));
#125 = CARTESIAN_POINT('',(-3.125,21.650635094611,82.2));
#126 = CARTESIAN_POINT('',(-8.659395188571,32.206586315899,0.));
#127 = CARTESIAN_POINT('',(-7.801014604657,29.81142443031,
    41.100000000001));
#128 = CARTESIAN_POINT('',(-6.25,21.650635094611,82.2));
#129 = CARTESIAN_POINT('',(-12.7068427434,30.61293411538,0.));
#130 = CARTESIAN_POINT('',(-11.34539217897,27.800632412516,41.1));
#131 = CARTESIAN_POINT('',(-9.375,21.650635094611,82.2));
#132 = CARTESIAN_POINT('',(-16.4325,28.461924895376,0.));
#133 = CARTESIAN_POINT('',(-14.48375,25.086590884125,41.1));
#134 = CARTESIAN_POINT('',(-12.5,21.650635094611,82.2));
#135 = DEFINITIONAL_REPRESENTATION('',(#136),#140);
#136 = LINE('',#137,#138);
#137 = CARTESIAN_POINT('',(1.,0.));
#138 = VECTOR('',#139,1.);
#139 = DIRECTION('',(0.,1.));
#140 = ( GEOMETRIC_REPRESENTATION_CONTEXT(2) 
PARAMETRIC_REPRESENTATION_CONTEXT() REPRESENTATION_CONTEXT('2D SPACE',''
  ) );
#141 = ORIENTED_EDGE('',*,*,#142,.F.);
#142 = EDGE_CURVE('',#143,#92,#145,.T.);
#143 = VERTEX_POINT('',#144);
#144 = CARTESIAN_POINT('',(25.,0.,82.2));
#145 = SURFACE_CURVE('',#146,(#156,#163),.PCURVE_S1.);
#146 = B_SPLINE_CURVE_WITH_KNOTS('',8,(#147,#148,#149,#150,#151,#152,
    #153,#154,#155),.UNSPECIFIED.,.F.,.F.,(9,9),(0.,1.),
  .PIECEWISE_BEZIER_KNOTS.);
#147 = CARTESIAN_POINT('',(25.,0.,82.2));
#148 = CARTESIAN_POINT('',(23.4375,2.706329386826,82.2));
#149 = CARTESIAN_POINT('',(21.875,5.412658773653,82.2));
#150 = CARTESIAN_POINT('',(20.3125,8.118988160479,82.2));
#151 = CARTESIAN_POINT('',(18.75,10.825317547305,82.2));
#152 = CARTESIAN_POINT('',(17.1875,13.531646934132,82.2));
#153 = CARTESIAN_POINT('',(15.625,16.237976320958,82.2));
#154 = CARTESIAN_POINT('',(14.0625,18.944305707785,82.2));
#155 = CARTESIAN_POINT('',(12.5,21.650635094611,82.2));
#156 = PCURVE('',#38,#157);
#157 = DEFINITIONAL_REPRESENTATION('',(#158),#162);
#158 = LINE('',#159,#160);
#159 = CARTESIAN_POINT('',(0.,1.));
#160 = VECTOR('',#161,1.);
#161 = DIRECTION('',(1.,0.));
#162 = ( GEOMETRIC_REPRESENTATION_CONTEXT(2) 
PARAMETRIC_REPRESENTATION_CONTEXT() REPRESENTATION_CONTEXT('2D SPACE',''
  ) );
#163 = PCURVE('',#164,#169);
#164 = PLANE('',#165);
#165 = AXIS2_PLACEMENT_3D('',#166,#167,#168);
#166 = CARTESIAN_POINT('',(25.,0.,82.2));
#167 = DIRECTION('',(0.,0.,1.));
#168 = DIRECTION('',(-1.,6.123233995737E-17,0.));
#169 = DEFINITIONAL_REPRESENTATION('',(#170),#180);
#170 = B_SPLINE_CURVE_WITH_KNOTS('',8,(#171,#172,#173,#174,#175,#176,
    #177,#178,#179),.UNSPECIFIED.,.F.,.F.,(9,9),(0.,1.),
  .PIECEWISE_BEZIER_KNOTS.);
#171 = CARTESIAN_POINT('',(0.,0.));
#172 = CARTESIAN_POINT('',(1.5625,-2.706329386826));
#173 = CARTESIAN_POINT('',(3.125,-5.412658773653));
#174 = CARTESIAN_POINT('',(4.6875,-8.118988160479));
#175 = CARTESIAN_POINT('',(6.25,-10.8253175473));
#176 = CARTESIAN_POINT('',(7.8125,-13.53164693413));
#177 = CARTESIAN_POINT('',(9.375,-16.23797632095));
#178 = CARTESIAN_POINT('',(10.9375,-18.94430570778));
#179 = CARTESIAN_POINT('',(12.5,-21.65063509461));
#180 = ( GEOMETRIC_REPRESENTATION_CONTEXT(2) 
PARAMETRIC_REPRESENTATION_CONTEXT() REPRESENTATION_CONTEXT('2D SPACE',''
  ) );
#181 = ORIENTED_EDGE('',*,*,#182,.F.);
#182 = EDGE_CURVE('',#22,#143,#183,.T.);
#183 = SURFACE_CURVE('',#184,(#188,#195),.PCURVE_S1.);
#184 = B_SPLINE_CURVE_WITH_KNOTS('',2,(#185,#186,#187),.UNSPECIFIED.,.F.
  ,.F.,(3,3),(0.,1.),.PIECEWISE_BEZIER_KNOTS.);
#185 = CARTESIAN_POINT('',(32.865,3.552713678801E-15,0.));
#186 = CARTESIAN_POINT('',(28.9675,-1.7763568394E-15,41.1));
#187 = CARTESIAN_POINT('',(25.,0.,82.2));
#188 = PCURVE('',#38,#189);
#189 = DEFINITIONAL_REPRESENTATION('',(#190),#194);
#190 = LINE('',#191,#192);
#191 = CARTESIAN_POINT('',(0.,0.));
#192 = VECTOR('',#193,1.);
#193 = DIRECTION('',(0.,1.));
#194 = ( GEOMETRIC_REPRESENTATION_CONTEXT(2) 
PARAMETRIC_REPRESENTATION_CONTEXT() REPRESENTATION_CONTEXT('2D SPACE',''
  ) );
#195 = PCURVE('',#196,#224);
#196 = B_SPLINE_SURFACE_WITH_KNOTS('',8,2,(
    (#197,#198,#199)
    ,(#200,#201,#202)
    ,(#203,#204,#205)
    ,(#206,#207,#208)
    ,(#209,#210,#211)
    ,(#212,#213,#214)
    ,(#215,#216,#217)
    ,(#218,#219,#220)
    ,(#221,#222,#223
    )),.UNSPECIFIED.,.F.,.F.,.F.,(9,9),(3,3),(5.,6.),(0.,1.),
  .PIECEWISE_BEZIER_KNOTS.);
#197 = CARTESIAN_POINT('',(16.4325,-28.46192489537,0.));
#198 = CARTESIAN_POINT('',(14.48375,-25.08659088412,41.1));
#199 = CARTESIAN_POINT('',(12.5,-21.65063509461,82.2));
#200 = CARTESIAN_POINT('',(20.158157256597,-26.31091567537,0.));
#201 = CARTESIAN_POINT('',(18.403357821024,-23.72571404914,41.1));
#202 = CARTESIAN_POINT('',(14.0625,-18.94430570778,82.2));
#203 = CARTESIAN_POINT('',(23.56202432446,-23.60254937266,0.));
#204 = CARTESIAN_POINT('',(21.916943577318,-21.66158903808,
    41.099999999999));
#205 = CARTESIAN_POINT('',(15.625,-16.23797632095,82.2));
#206 = CARTESIAN_POINT('',(26.546823742809,-20.39298945743,0.));
#207 = CARTESIAN_POINT('',(24.901782364946,-18.96508902532,
    41.100000000001));
#208 = CARTESIAN_POINT('',(17.1875,-13.53164693413,82.2));
#209 = CARTESIAN_POINT('',(29.027042361005,-16.7587707209,0.));
#210 = CARTESIAN_POINT('',(27.249935902582,-15.73275782875,41.1));
#211 = CARTESIAN_POINT('',(18.75,-10.8253175473,82.2));
#212 = CARTESIAN_POINT('',(30.934258800651,-12.79372902234,0.));
#213 = CARTESIAN_POINT('',(28.87514006344,-12.08303161488,
    41.099999999999));
#214 = CARTESIAN_POINT('',(20.3125,-8.118988160479,82.2));
#215 = CARTESIAN_POINT('',(32.22141951303,-8.604036943238,0.));
#216 = CARTESIAN_POINT('',(29.717958181977,-8.149835392228,
    41.100000000001));
#217 = CARTESIAN_POINT('',(21.875,-5.412658773653,82.2));
#218 = CARTESIAN_POINT('',(32.865,-4.30201844001,0.));
#219 = CARTESIAN_POINT('',(29.74875,-4.074918363367,41.1));
#220 = CARTESIAN_POINT('',(23.4375,-2.706329386826,82.2));
#221 = CARTESIAN_POINT('',(32.865,-7.105427357601E-15,0.));
#222 = CARTESIAN_POINT('',(28.9675,-1.06581410364E-14,41.1));
#223 = CARTESIAN_POINT('',(25.,0.,82.2));
#224 = DEFINITIONAL_REPRESENTATION('',(#225),#229);
#225 = LINE('',#226,#227);
#226 = CARTESIAN_POINT('',(6.,0.));
#227 = VECTOR('',#228,1.);
#228 = DIRECTION('',(0.,1.));
#229 = ( GEOMETRIC_REPRESENTATION_CONTEXT(2) 
PARAMETRIC_REPRESENTATION_CONTEXT() REPRESENTATION_CONTEXT('2D SPACE',''
  ) );
#230 = ADVANCED_FACE('',(#231,#491),#73,.F.);
#231 = FACE_BOUND('',#232,.F.);
#232 = EDGE_LOOP('',(#233,#234,#269,#332,#395,#458));
#233 = ORIENTED_EDGE('',*,*,#21,.T.);
#234 = ORIENTED_EDGE('',*,*,#235,.T.);
#235 = EDGE_CURVE('',#24,#236,#238,.T.);
#236 = VERTEX_POINT('',#237);
#237 = CARTESIAN_POINT('',(-16.4325,28.461924895376,0.));
#238 = SURFACE_CURVE('',#239,(#249,#262),.PCURVE_S1.);
#239 = B_SPLINE_CURVE_WITH_KNOTS('',8,(#240,#241,#242,#243,#244,#245,
    #246,#247,#248),.UNSPECIFIED.,.F.,.F.,(9,9),(1.,2.),
  .PIECEWISE_BEZIER_KNOTS.);
#240 = CARTESIAN_POINT('',(16.4325,28.461924895376,0.));
#241 = CARTESIAN_POINT('',(12.706842743403,30.61293411538,0.));
#242 = CARTESIAN_POINT('',(8.659395188571,32.206586315899,0.));
#243 = CARTESIAN_POINT('',(4.387435057842,33.186718479778,0.));
#244 = CARTESIAN_POINT('',(6.217248937901E-14,33.517541441809,0.));
#245 = CARTESIAN_POINT('',(-4.387435057842,33.186718479778,0.));
#246 = CARTESIAN_POINT('',(-8.659395188571,32.206586315899,0.));
#247 = CARTESIAN_POINT('',(-12.7068427434,30.61293411538,0.));
#248 = CARTESIAN_POINT('',(-16.4325,28.461924895376,0.));
#249 = PCURVE('',#73,#250);
#250 = DEFINITIONAL_REPRESENTATION('',(#251),#261);
#251 = B_SPLINE_CURVE_WITH_KNOTS('',8,(#252,#253,#254,#255,#256,#257,
    #258,#259,#260),.UNSPECIFIED.,.F.,.F.,(9,9),(1.,2.),
  .PIECEWISE_BEZIER_KNOTS.);
#252 = CARTESIAN_POINT('',(16.4325,-28.46192489537));
#253 = CARTESIAN_POINT('',(20.158157256597,-30.61293411538));
#254 = CARTESIAN_POINT('',(24.205604811429,-32.20658631589));
#255 = CARTESIAN_POINT('',(28.477564942158,-33.18671847977));
#256 = CARTESIAN_POINT('',(32.865,-33.5175414418));
#257 = CARTESIAN_POINT('',(37.252435057842,-33.18671847977));
#258 = CARTESIAN_POINT('',(41.524395188571,-32.20658631589));
#259 = CARTESIAN_POINT('',(45.571842743403,-30.61293411538));
#260 = CARTESIAN_POINT('',(49.2975,-28.46192489537));
#261 = ( GEOMETRIC_REPRESENTATION_CONTEXT(2) 
PARAMETRIC_REPRESENTATION_CONTEXT() REPRESENTATION_CONTEXT('2D SPACE',''
  ) );
#262 = PCURVE('',#107,#263);
#263 = DEFINITIONAL_REPRESENTATION('',(#264),#268);
#264 = LINE('',#265,#266);
#265 = CARTESIAN_POINT('',(0.,0.));
#266 = VECTOR('',#267,1.);
#267 = DIRECTION('',(1.,0.));
#268 = ( GEOMETRIC_REPRESENTATION_CONTEXT(2) 
PARAMETRIC_REPRESENTATION_CONTEXT() REPRESENTATION_CONTEXT('2D SPACE',''
  ) );
#269 = ORIENTED_EDGE('',*,*,#270,.T.);
#270 = EDGE_CURVE('',#236,#271,#273,.T.);
#271 = VERTEX_POINT('',#272);
#272 = CARTESIAN_POINT('',(-32.865,4.024801705398E-15,0.));
#273 = SURFACE_CURVE('',#274,(#284,#297),.PCURVE_S1.);
#274 = B_SPLINE_CURVE_WITH_KNOTS('',8,(#275,#276,#277,#278,#279,#280,
    #281,#282,#283),.UNSPECIFIED.,.F.,.F.,(9,9),(2.,3.),
  .PIECEWISE_BEZIER_KNOTS.);
#275 = CARTESIAN_POINT('',(-16.4325,28.461924895376,0.));
#276 = CARTESIAN_POINT('',(-20.15815725659,26.310915675371,0.));
#277 = CARTESIAN_POINT('',(-23.56202432445,23.60254937266,0.));
#278 = CARTESIAN_POINT('',(-26.54682374281,20.392989457435,0.));
#279 = CARTESIAN_POINT('',(-29.027042361,16.758770720904,0.));
#280 = CARTESIAN_POINT('',(-30.93425880065,12.793729022344,0.));
#281 = CARTESIAN_POINT('',(-32.22141951303,8.604036943238,0.));
#282 = CARTESIAN_POINT('',(-32.865,4.30201844001,0.));
#283 = CARTESIAN_POINT('',(-32.865,5.373479439186E-14,0.));
#284 = PCURVE('',#73,#285);
#285 = DEFINITIONAL_REPRESENTATION('',(#286),#296);
#286 = B_SPLINE_CURVE_WITH_KNOTS('',8,(#287,#288,#289,#290,#291,#292,
    #293,#294,#295),.UNSPECIFIED.,.F.,.F.,(9,9),(2.,3.),
  .PIECEWISE_BEZIER_KNOTS.);
#287 = CARTESIAN_POINT('',(49.2975,-28.46192489537));
#288 = CARTESIAN_POINT('',(53.023157256598,-26.31091567537));
#289 = CARTESIAN_POINT('',(56.427024324459,-23.60254937266));
#290 = CARTESIAN_POINT('',(59.41182374281,-20.39298945743));
#291 = CARTESIAN_POINT('',(61.892042361003,-16.7587707209));
#292 = CARTESIAN_POINT('',(63.799258800652,-12.79372902234));
#293 = CARTESIAN_POINT('',(65.08641951303,-8.604036943238));
#294 = CARTESIAN_POINT('',(65.73,-4.30201844001));
#295 = CARTESIAN_POINT('',(65.73,6.310887241768E-30));
#296 = ( GEOMETRIC_REPRESENTATION_CONTEXT(2) 
PARAMETRIC_REPRESENTATION_CONTEXT() REPRESENTATION_CONTEXT('2D SPACE',''
  ) );
#297 = PCURVE('',#298,#326);
#298 = B_SPLINE_SURFACE_WITH_KNOTS('',8,2,(
    (#299,#300,#301)
    ,(#302,#303,#304)
    ,(#305,#306,#307)
    ,(#308,#309,#310)
    ,(#311,#312,#313)
    ,(#314,#315,#316)
    ,(#317,#318,#319)
    ,(#320,#321,#322)
    ,(#323,#324,#325
    )),.UNSPECIFIED.,.F.,.F.,.F.,(9,9),(3,3),(2.,3.),(0.,1.),
  .PIECEWISE_BEZIER_KNOTS.);
#299 = CARTESIAN_POINT('',(-16.4325,28.461924895376,0.));
#300 = CARTESIAN_POINT('',(-14.48375,25.086590884125,41.1));
#301 = CARTESIAN_POINT('',(-12.5,21.650635094611,82.2));
#302 = CARTESIAN_POINT('',(-20.15815725659,26.310915675371,0.));
#303 = CARTESIAN_POINT('',(-18.40335782102,23.725714049148,41.1));
#304 = CARTESIAN_POINT('',(-14.0625,18.944305707785,82.2));
#305 = CARTESIAN_POINT('',(-23.56202432445,23.60254937266,0.));
#306 = CARTESIAN_POINT('',(-21.91694357731,21.661589038082,41.1));
#307 = CARTESIAN_POINT('',(-15.625,16.237976320958,82.2));
#308 = CARTESIAN_POINT('',(-26.54682374281,20.392989457435,0.));
#309 = CARTESIAN_POINT('',(-24.90178236494,18.965089025328,41.1));
#310 = CARTESIAN_POINT('',(-17.1875,13.531646934132,82.2));
#311 = CARTESIAN_POINT('',(-29.027042361,16.758770720904,0.));
#312 = CARTESIAN_POINT('',(-27.24993590258,15.732757828757,41.1));
#313 = CARTESIAN_POINT('',(-18.75,10.825317547305,82.2));
#314 = CARTESIAN_POINT('',(-30.93425880065,12.793729022344,0.));
#315 = CARTESIAN_POINT('',(-28.87514006344,12.083031614889,41.1));
#316 = CARTESIAN_POINT('',(-20.3125,8.118988160479,82.2));
#317 = CARTESIAN_POINT('',(-32.22141951303,8.604036943238,0.));
#318 = CARTESIAN_POINT('',(-29.71795818197,8.149835392228,41.1));
#319 = CARTESIAN_POINT('',(-21.875,5.412658773653,82.2));
#320 = CARTESIAN_POINT('',(-32.865,4.30201844001,0.));
#321 = CARTESIAN_POINT('',(-29.74875,4.074918363367,41.1));
#322 = CARTESIAN_POINT('',(-23.4375,2.706329386826,82.2));
#323 = CARTESIAN_POINT('',(-32.865,5.373479439186E-14,0.));
#324 = CARTESIAN_POINT('',(-28.9675,2.000751817879E-14,41.1));
#325 = CARTESIAN_POINT('',(-25.,3.061616997868E-15,82.2));
#326 = DEFINITIONAL_REPRESENTATION('',(#327),#331);
#327 = LINE('',#328,#329);
#328 = CARTESIAN_POINT('',(0.,0.));
#329 = VECTOR('',#330,1.);
#330 = DIRECTION('',(1.,0.));
#331 = ( GEOMETRIC_REPRESENTATION_CONTEXT(2) 
PARAMETRIC_REPRESENTATION_CONTEXT() REPRESENTATION_CONTEXT('2D SPACE',''
  ) );
#332 = ORIENTED_EDGE('',*,*,#333,.T.);
#333 = EDGE_CURVE('',#271,#334,#336,.T.);
#334 = VERTEX_POINT('',#335);
#335 = CARTESIAN_POINT('',(-16.4325,-28.46192489537,0.));
#336 = SURFACE_CURVE('',#337,(#347,#360),.PCURVE_S1.);
#337 = B_SPLINE_CURVE_WITH_KNOTS('',8,(#338,#339,#340,#341,#342,#343,
    #344,#345,#346),.UNSPECIFIED.,.F.,.F.,(9,9),(3.,4.),
  .PIECEWISE_BEZIER_KNOTS.);
#338 = CARTESIAN_POINT('',(-32.865,5.373479439186E-14,0.));
#339 = CARTESIAN_POINT('',(-32.865,-4.30201844001,0.));
#340 = CARTESIAN_POINT('',(-32.22141951303,-8.604036943238,0.));
#341 = CARTESIAN_POINT('',(-30.93425880065,-12.79372902234,0.));
#342 = CARTESIAN_POINT('',(-29.027042361,-16.7587707209,0.));
#343 = CARTESIAN_POINT('',(-26.5468237428,-20.39298945743,0.));
#344 = CARTESIAN_POINT('',(-23.56202432445,-23.60254937266,0.));
#345 = CARTESIAN_POINT('',(-20.15815725659,-26.31091567537,0.));
#346 = CARTESIAN_POINT('',(-16.4325,-28.46192489537,0.));
#347 = PCURVE('',#73,#348);
#348 = DEFINITIONAL_REPRESENTATION('',(#349),#359);
#349 = B_SPLINE_CURVE_WITH_KNOTS('',8,(#350,#351,#352,#353,#354,#355,
    #356,#357,#358),.UNSPECIFIED.,.F.,.F.,(9,9),(3.,4.),
  .PIECEWISE_BEZIER_KNOTS.);
#350 = CARTESIAN_POINT('',(65.73,6.310887241768E-30));
#351 = CARTESIAN_POINT('',(65.73,4.30201844001));
#352 = CARTESIAN_POINT('',(65.08641951303,8.604036943238));
#353 = CARTESIAN_POINT('',(63.799258800651,12.793729022344));
#354 = CARTESIAN_POINT('',(61.892042361005,16.758770720905));
#355 = CARTESIAN_POINT('',(59.411823742809,20.392989457434));
#356 = CARTESIAN_POINT('',(56.427024324459,23.60254937266));
#357 = CARTESIAN_POINT('',(53.023157256597,26.310915675371));
#358 = CARTESIAN_POINT('',(49.2975,28.461924895376));
#359 = ( GEOMETRIC_REPRESENTATION_CONTEXT(2) 
PARAMETRIC_REPRESENTATION_CONTEXT() REPRESENTATION_CONTEXT('2D SPACE',''
  ) );
#360 = PCURVE('',#361,#389);
#361 = B_SPLINE_SURFACE_WITH_KNOTS('',8,2,(
    (#362,#363,#364)
    ,(#365,#366,#367)
    ,(#368,#369,#370)
    ,(#371,#372,#373)
    ,(#374,#375,#376)
    ,(#377,#378,#379)
    ,(#380,#381,#382)
    ,(#383,#384,#385)
    ,(#386,#387,#388
    )),.UNSPECIFIED.,.F.,.F.,.F.,(9,9),(3,3),(3.,4.),(0.,1.),
  .PIECEWISE_BEZIER_KNOTS.);
#362 = CARTESIAN_POINT('',(-32.865,5.373479439186E-14,0.));
#363 = CARTESIAN_POINT('',(-28.9675,2.000751817879E-14,41.1));
#364 = CARTESIAN_POINT('',(-25.,3.061616997868E-15,82.2));
#365 = CARTESIAN_POINT('',(-32.865,-4.30201844001,0.));
#366 = CARTESIAN_POINT('',(-29.74875,-4.074918363367,41.1));
#367 = CARTESIAN_POINT('',(-23.4375,-2.706329386826,82.2));
#368 = CARTESIAN_POINT('',(-32.22141951303,-8.604036943238,0.));
#369 = CARTESIAN_POINT('',(-29.71795818197,-8.149835392228,41.1));
#370 = CARTESIAN_POINT('',(-21.875,-5.412658773653,82.2));
#371 = CARTESIAN_POINT('',(-30.93425880065,-12.79372902234,0.));
#372 = CARTESIAN_POINT('',(-28.87514006344,-12.08303161489,41.1));
#373 = CARTESIAN_POINT('',(-20.3125,-8.118988160479,82.2));
#374 = CARTESIAN_POINT('',(-29.027042361,-16.7587707209,0.));
#375 = CARTESIAN_POINT('',(-27.24993590258,-15.73275782875,41.1));
#376 = CARTESIAN_POINT('',(-18.75,-10.8253175473,82.2));
#377 = CARTESIAN_POINT('',(-26.5468237428,-20.39298945743,0.));
#378 = CARTESIAN_POINT('',(-24.90178236494,-18.96508902532,41.1));
#379 = CARTESIAN_POINT('',(-17.1875,-13.53164693413,82.2));
#380 = CARTESIAN_POINT('',(-23.56202432445,-23.60254937266,0.));
#381 = CARTESIAN_POINT('',(-21.91694357731,-21.66158903808,41.1));
#382 = CARTESIAN_POINT('',(-15.625,-16.23797632095,82.2));
#383 = CARTESIAN_POINT('',(-20.15815725659,-26.31091567537,0.));
#384 = CARTESIAN_POINT('',(-18.40335782102,-23.72571404914,41.1));
#385 = CARTESIAN_POINT('',(-14.0625,-18.94430570778,82.2));
#386 = CARTESIAN_POINT('',(-16.4325,-28.46192489537,0.));
#387 = CARTESIAN_POINT('',(-14.48375,-25.08659088412,41.1));
#388 = CARTESIAN_POINT('',(-12.5,-21.65063509461,82.2));
#389 = DEFINITIONAL_REPRESENTATION('',(#390),#394);
#390 = LINE('',#391,#392);
#391 = CARTESIAN_POINT('',(0.,0.));
#392 = VECTOR('',#393,1.);
#393 = DIRECTION('',(1.,0.));
#394 = ( GEOMETRIC_REPRESENTATION_CONTEXT(2) 
PARAMETRIC_REPRESENTATION_CONTEXT() REPRESENTATION_CONTEXT('2D SPACE',''
  ) );
#395 = ORIENTED_EDGE('',*,*,#396,.T.);
#396 = EDGE_CURVE('',#334,#397,#399,.T.);
#397 = VERTEX_POINT('',#398);
#398 = CARTESIAN_POINT('',(16.4325,-28.46192489537,0.));
#399 = SURFACE_CURVE('',#400,(#410,#423),.PCURVE_S1.);
#400 = B_SPLINE_CURVE_WITH_KNOTS('',8,(#401,#402,#403,#404,#405,#406,
    #407,#408,#409),.UNSPECIFIED.,.F.,.F.,(9,9),(4.,5.),
  .PIECEWISE_BEZIER_KNOTS.);
#401 = CARTESIAN_POINT('',(-16.4325,-28.46192489537,0.));
#402 = CARTESIAN_POINT('',(-12.7068427434,-30.61293411538,0.));
#403 = CARTESIAN_POINT('',(-8.659395188571,-32.20658631589,0.));
#404 = CARTESIAN_POINT('',(-4.387435057842,-33.18671847977,0.));
#405 = CARTESIAN_POINT('',(1.705302565824E-13,-33.51754144181,0.));
#406 = CARTESIAN_POINT('',(4.387435057842,-33.18671847977,0.));
#407 = CARTESIAN_POINT('',(8.659395188571,-32.20658631589,0.));
#408 = CARTESIAN_POINT('',(12.706842743403,-30.61293411538,0.));
#409 = CARTESIAN_POINT('',(16.4325,-28.46192489537,0.));
#410 = PCURVE('',#73,#411);
#411 = DEFINITIONAL_REPRESENTATION('',(#412),#422);
#412 = B_SPLINE_CURVE_WITH_KNOTS('',8,(#413,#414,#415,#416,#417,#418,
    #419,#420,#421),.UNSPECIFIED.,.F.,.F.,(9,9),(4.,5.),
  .PIECEWISE_BEZIER_KNOTS.);
#413 = CARTESIAN_POINT('',(49.2975,28.461924895376));
#414 = CARTESIAN_POINT('',(45.571842743403,30.61293411538));
#415 = CARTESIAN_POINT('',(41.524395188571,32.206586315899));
#416 = CARTESIAN_POINT('',(37.252435057842,33.186718479778));
#417 = CARTESIAN_POINT('',(32.865,33.51754144181));
#418 = CARTESIAN_POINT('',(28.477564942158,33.186718479778));
#419 = CARTESIAN_POINT('',(24.205604811429,32.206586315899));
#420 = CARTESIAN_POINT('',(20.158157256597,30.612934115381));
#421 = CARTESIAN_POINT('',(16.4325,28.461924895376));
#422 = ( GEOMETRIC_REPRESENTATION_CONTEXT(2) 
PARAMETRIC_REPRESENTATION_CONTEXT() REPRESENTATION_CONTEXT('2D SPACE',''
  ) );
#423 = PCURVE('',#424,#452);
#424 = B_SPLINE_SURFACE_WITH_KNOTS('',8,2,(
    (#425,#426,#427)
    ,(#428,#429,#430)
    ,(#431,#432,#433)
    ,(#434,#435,#436)
    ,(#437,#438,#439)
    ,(#440,#441,#442)
    ,(#443,#444,#445)
    ,(#446,#447,#448)
    ,(#449,#450,#451
    )),.UNSPECIFIED.,.F.,.F.,.F.,(9,9),(3,3),(4.,5.),(0.,1.),
  .PIECEWISE_BEZIER_KNOTS.);
#425 = CARTESIAN_POINT('',(-16.4325,-28.46192489537,0.));
#426 = CARTESIAN_POINT('',(-14.48375,-25.08659088412,41.1));
#427 = CARTESIAN_POINT('',(-12.5,-21.65063509461,82.2));
#428 = CARTESIAN_POINT('',(-12.7068427434,-30.61293411538,0.));
#429 = CARTESIAN_POINT('',(-11.34539217897,-27.80063241251,
    41.100000000001));
#430 = CARTESIAN_POINT('',(-9.375,-21.65063509461,82.2));
#431 = CARTESIAN_POINT('',(-8.659395188571,-32.20658631589,0.));
#432 = CARTESIAN_POINT('',(-7.801014604657,-29.8114244303,
    41.099999999999));
#433 = CARTESIAN_POINT('',(-6.25,-21.65063509461,82.2));
#434 = CARTESIAN_POINT('',(-4.387435057842,-33.18671847977,0.));
#435 = CARTESIAN_POINT('',(-3.973357698495,-31.04812064021,
    41.100000000001));
#436 = CARTESIAN_POINT('',(-3.125,-21.65063509461,82.2));
#437 = CARTESIAN_POINT('',(1.705302565824E-13,-33.51754144181,0.));
#438 = CARTESIAN_POINT('',(-1.752764600127E-13,-31.46551565751,41.1));
#439 = CARTESIAN_POINT('',(-1.315614284181E-14,-21.65063509461,82.2));
#440 = CARTESIAN_POINT('',(4.387435057842,-33.18671847977,0.));
#441 = CARTESIAN_POINT('',(3.973357698495,-31.04812064021,
    41.099999999999));
#442 = CARTESIAN_POINT('',(3.125,-21.65063509461,82.2));
#443 = CARTESIAN_POINT('',(8.659395188571,-32.20658631589,0.));
#444 = CARTESIAN_POINT('',(7.801014604657,-29.8114244303,41.100000000001
    ));
#445 = CARTESIAN_POINT('',(6.25,-21.65063509461,82.2));
#446 = CARTESIAN_POINT('',(12.706842743403,-30.61293411538,0.));
#447 = CARTESIAN_POINT('',(11.345392178976,-27.80063241251,41.1));
#448 = CARTESIAN_POINT('',(9.375,-21.65063509461,82.2));
#449 = CARTESIAN_POINT('',(16.4325,-28.46192489537,0.));
#450 = CARTESIAN_POINT('',(14.48375,-25.08659088412,41.1));
#451 = CARTESIAN_POINT('',(12.5,-21.65063509461,82.2));
#452 = DEFINITIONAL_REPRESENTATION('',(#453),#457);
#453 = LINE('',#454,#455);
#454 = CARTESIAN_POINT('',(0.,0.));
#455 = VECTOR('',#456,1.);
#456 = DIRECTION('',(1.,0.));
#457 = ( GEOMETRIC_REPRESENTATION_CONTEXT(2) 
PARAMETRIC_REPRESENTATION_CONTEXT() REPRESENTATION_CONTEXT('2D SPACE',''
  ) );
#458 = ORIENTED_EDGE('',*,*,#459,.T.);
#459 = EDGE_CURVE('',#397,#22,#460,.T.);
#460 = SURFACE_CURVE('',#461,(#471,#484),.PCURVE_S1.);
#461 = B_SPLINE_CURVE_WITH_KNOTS('',8,(#462,#463,#464,#465,#466,#467,
    #468,#469,#470),.UNSPECIFIED.,.F.,.F.,(9,9),(5.,6.),
  .PIECEWISE_BEZIER_KNOTS.);
#462 = CARTESIAN_POINT('',(16.4325,-28.46192489537,0.));
#463 = CARTESIAN_POINT('',(20.158157256597,-26.31091567537,0.));
#464 = CARTESIAN_POINT('',(23.56202432446,-23.60254937266,0.));
#465 = CARTESIAN_POINT('',(26.546823742809,-20.39298945743,0.));
#466 = CARTESIAN_POINT('',(29.027042361005,-16.7587707209,0.));
#467 = CARTESIAN_POINT('',(30.934258800651,-12.79372902234,0.));
#468 = CARTESIAN_POINT('',(32.22141951303,-8.604036943238,0.));
#469 = CARTESIAN_POINT('',(32.865,-4.30201844001,0.));
#470 = CARTESIAN_POINT('',(32.865,-7.105427357601E-15,0.));
#471 = PCURVE('',#73,#472);
#472 = DEFINITIONAL_REPRESENTATION('',(#473),#483);
#473 = B_SPLINE_CURVE_WITH_KNOTS('',8,(#474,#475,#476,#477,#478,#479,
    #480,#481,#482),.UNSPECIFIED.,.F.,.F.,(9,9),(5.,6.),
  .PIECEWISE_BEZIER_KNOTS.);
#474 = CARTESIAN_POINT('',(16.4325,28.461924895376));
#475 = CARTESIAN_POINT('',(12.706842743403,26.310915675371));
#476 = CARTESIAN_POINT('',(9.30297567554,23.602549372661));
#477 = CARTESIAN_POINT('',(6.318176257191,20.392989457434));
#478 = CARTESIAN_POINT('',(3.837957638995,16.758770720905));
#479 = CARTESIAN_POINT('',(1.930741199349,12.793729022344));
#480 = CARTESIAN_POINT('',(0.64358048697,8.604036943238));
#481 = CARTESIAN_POINT('',(-8.526512829121E-14,4.30201844001));
#482 = CARTESIAN_POINT('',(-7.105427357601E-15,1.06581410364E-14));
#483 = ( GEOMETRIC_REPRESENTATION_CONTEXT(2) 
PARAMETRIC_REPRESENTATION_CONTEXT() REPRESENTATION_CONTEXT('2D SPACE',''
  ) );
#484 = PCURVE('',#196,#485);
#485 = DEFINITIONAL_REPRESENTATION('',(#486),#490);
#486 = LINE('',#487,#488);
#487 = CARTESIAN_POINT('',(0.,0.));
#488 = VECTOR('',#489,1.);
#489 = DIRECTION('',(1.,0.));
#490 = ( GEOMETRIC_REPRESENTATION_CONTEXT(2) 
PARAMETRIC_REPRESENTATION_CONTEXT() REPRESENTATION_CONTEXT('2D SPACE',''
  ) );
#491 = FACE_BOUND('',#492,.F.);
#492 = EDGE_LOOP('',(#493));
#493 = ORIENTED_EDGE('',*,*,#494,.T.);
#494 = EDGE_CURVE('',#495,#495,#497,.T.);
#495 = VERTEX_POINT('',#496);
#496 = CARTESIAN_POINT('',(-9.3,-2.277843046414E-15,0.));
#497 = SURFACE_CURVE('',#498,(#503,#514),.PCURVE_S1.);
#498 = CIRCLE('',#499,9.3);
#499 = AXIS2_PLACEMENT_3D('',#500,#501,#502);
#500 = CARTESIAN_POINT('',(0.,0.,0.));
#501 = DIRECTION('',(0.,0.,-1.));
#502 = DIRECTION('',(-1.,0.,0.));
#503 = PCURVE('',#73,#504);
#504 = DEFINITIONAL_REPRESENTATION('',(#505),#513);
#505 = ( BOUNDED_CURVE() B_SPLINE_CURVE(2,(#506,#507,#508,#509,#510,#511
,#512),.UNSPECIFIED.,.T.,.F.) B_SPLINE_CURVE_WITH_KNOTS((1,2,2,2,2,1),(
    -2.094395102393,0.,2.094395102393,4.188790204786,6.28318530718,
8.377580409573),.UNSPECIFIED.) CURVE() GEOMETRIC_REPRESENTATION_ITEM() 
RATIONAL_B_SPLINE_CURVE((1.,0.5,1.,0.5,1.,0.5,1.)) REPRESENTATION_ITEM(
  '') );
#506 = CARTESIAN_POINT('',(42.165,3.574391150728E-14));
#507 = CARTESIAN_POINT('',(42.165,-16.10807251039));
#508 = CARTESIAN_POINT('',(28.215,-8.054036255195));
#509 = CARTESIAN_POINT('',(14.265,1.216559604501E-14));
#510 = CARTESIAN_POINT('',(28.215,8.054036255195));
#511 = CARTESIAN_POINT('',(42.165,16.108072510391));
#512 = CARTESIAN_POINT('',(42.165,3.574391150728E-14));
#513 = ( GEOMETRIC_REPRESENTATION_CONTEXT(2) 
PARAMETRIC_REPRESENTATION_CONTEXT() REPRESENTATION_CONTEXT('2D SPACE',''
  ) );
#514 = PCURVE('',#515,#520);
#515 = CYLINDRICAL_SURFACE('',#516,9.3);
#516 = AXIS2_PLACEMENT_3D('',#517,#518,#519);
#517 = CARTESIAN_POINT('',(0.,0.,82.2));
#518 = DIRECTION('',(0.,0.,-1.));
#519 = DIRECTION('',(-1.,0.,0.));
#520 = DEFINITIONAL_REPRESENTATION('',(#521),#525);
#521 = LINE('',#522,#523);
#522 = CARTESIAN_POINT('',(0.,82.2));
#523 = VECTOR('',#524,1.);
#524 = DIRECTION('',(1.,0.));
#525 = ( GEOMETRIC_REPRESENTATION_CONTEXT(2) 
PARAMETRIC_REPRESENTATION_CONTEXT() REPRESENTATION_CONTEXT('2D SPACE',''
  ) );
#526 = ADVANCED_FACE('',(#527),#107,.T.);
#527 = FACE_BOUND('',#528,.T.);
#528 = EDGE_LOOP('',(#529,#530,#553,#586));
#529 = ORIENTED_EDGE('',*,*,#235,.T.);
#530 = ORIENTED_EDGE('',*,*,#531,.T.);
#531 = EDGE_CURVE('',#236,#532,#534,.T.);
#532 = VERTEX_POINT('',#533);
#533 = CARTESIAN_POINT('',(-12.5,21.650635094611,82.2));
#534 = SURFACE_CURVE('',#535,(#539,#546),.PCURVE_S1.);
#535 = B_SPLINE_CURVE_WITH_KNOTS('',2,(#536,#537,#538),.UNSPECIFIED.,.F.
  ,.F.,(3,3),(0.,1.),.PIECEWISE_BEZIER_KNOTS.);
#536 = CARTESIAN_POINT('',(-16.4325,28.461924895376,0.));
#537 = CARTESIAN_POINT('',(-14.48375,25.086590884125,41.1));
#538 = CARTESIAN_POINT('',(-12.5,21.650635094611,82.2));
#539 = PCURVE('',#107,#540);
#540 = DEFINITIONAL_REPRESENTATION('',(#541),#545);
#541 = LINE('',#542,#543);
#542 = CARTESIAN_POINT('',(2.,0.));
#543 = VECTOR('',#544,1.);
#544 = DIRECTION('',(0.,1.));
#545 = ( GEOMETRIC_REPRESENTATION_CONTEXT(2) 
PARAMETRIC_REPRESENTATION_CONTEXT() REPRESENTATION_CONTEXT('2D SPACE',''
  ) );
#546 = PCURVE('',#298,#547);
#547 = DEFINITIONAL_REPRESENTATION('',(#548),#552);
#548 = LINE('',#549,#550);
#549 = CARTESIAN_POINT('',(2.,0.));
#550 = VECTOR('',#551,1.);
#551 = DIRECTION('',(0.,1.));
#552 = ( GEOMETRIC_REPRESENTATION_CONTEXT(2) 
PARAMETRIC_REPRESENTATION_CONTEXT() REPRESENTATION_CONTEXT('2D SPACE',''
  ) );
#553 = ORIENTED_EDGE('',*,*,#554,.F.);
#554 = EDGE_CURVE('',#92,#532,#555,.T.);
#555 = SURFACE_CURVE('',#556,(#566,#573),.PCURVE_S1.);
#556 = B_SPLINE_CURVE_WITH_KNOTS('',8,(#557,#558,#559,#560,#561,#562,
    #563,#564,#565),.UNSPECIFIED.,.F.,.F.,(9,9),(1.,2.),
  .PIECEWISE_BEZIER_KNOTS.);
#557 = CARTESIAN_POINT('',(12.5,21.650635094611,82.2));
#558 = CARTESIAN_POINT('',(9.375,21.650635094611,82.2));
#559 = CARTESIAN_POINT('',(6.25,21.650635094611,82.2));
#560 = CARTESIAN_POINT('',(3.125,21.650635094611,82.2));
#561 = CARTESIAN_POINT('',(4.662936703426E-15,21.650635094611,82.2));
#562 = CARTESIAN_POINT('',(-3.125,21.650635094611,82.2));
#563 = CARTESIAN_POINT('',(-6.25,21.650635094611,82.2));
#564 = CARTESIAN_POINT('',(-9.375,21.650635094611,82.2));
#565 = CARTESIAN_POINT('',(-12.5,21.650635094611,82.2));
#566 = PCURVE('',#107,#567);
#567 = DEFINITIONAL_REPRESENTATION('',(#568),#572);
#568 = LINE('',#569,#570);
#569 = CARTESIAN_POINT('',(0.,1.));
#570 = VECTOR('',#571,1.);
#571 = DIRECTION('',(1.,0.));
#572 = ( GEOMETRIC_REPRESENTATION_CONTEXT(2) 
PARAMETRIC_REPRESENTATION_CONTEXT() REPRESENTATION_CONTEXT('2D SPACE',''
  ) );
#573 = PCURVE('',#164,#574);
#574 = DEFINITIONAL_REPRESENTATION('',(#575),#585);
#575 = B_SPLINE_CURVE_WITH_KNOTS('',8,(#576,#577,#578,#579,#580,#581,
    #582,#583,#584),.UNSPECIFIED.,.F.,.F.,(9,9),(1.,2.),
  .PIECEWISE_BEZIER_KNOTS.);
#576 = CARTESIAN_POINT('',(12.5,-21.65063509461));
#577 = CARTESIAN_POINT('',(15.625,-21.65063509461));
#578 = CARTESIAN_POINT('',(18.75,-21.65063509461));
#579 = CARTESIAN_POINT('',(21.875,-21.65063509461));
#580 = CARTESIAN_POINT('',(25.,-21.65063509461));
#581 = CARTESIAN_POINT('',(28.125,-21.65063509461));
#582 = CARTESIAN_POINT('',(31.25,-21.65063509461));
#583 = CARTESIAN_POINT('',(34.375,-21.65063509461));
#584 = CARTESIAN_POINT('',(37.5,-21.65063509461));
#585 = ( GEOMETRIC_REPRESENTATION_CONTEXT(2) 
PARAMETRIC_REPRESENTATION_CONTEXT() REPRESENTATION_CONTEXT('2D SPACE',''
  ) );
#586 = ORIENTED_EDGE('',*,*,#91,.F.);
#587 = ADVANCED_FACE('',(#588,#730),#164,.T.);
#588 = FACE_BOUND('',#589,.T.);
#589 = EDGE_LOOP('',(#590,#591,#592,#627,#662,#697));
#590 = ORIENTED_EDGE('',*,*,#142,.T.);
#591 = ORIENTED_EDGE('',*,*,#554,.T.);
#592 = ORIENTED_EDGE('',*,*,#593,.T.);
#593 = EDGE_CURVE('',#532,#594,#596,.T.);
#594 = VERTEX_POINT('',#595);
#595 = CARTESIAN_POINT('',(-25.,3.061616997868E-15,82.2));
#596 = SURFACE_CURVE('',#597,(#607,#620),.PCURVE_S1.);
#597 = B_SPLINE_CURVE_WITH_KNOTS('',8,(#598,#599,#600,#601,#602,#603,
    #604,#605,#606),.UNSPECIFIED.,.F.,.F.,(9,9),(2.,3.),
  .PIECEWISE_BEZIER_KNOTS.);
#598 = CARTESIAN_POINT('',(-12.5,21.650635094611,82.2));
#599 = CARTESIAN_POINT('',(-14.0625,18.944305707785,82.2));
#600 = CARTESIAN_POINT('',(-15.625,16.237976320958,82.2));
#601 = CARTESIAN_POINT('',(-17.1875,13.531646934132,82.2));
#602 = CARTESIAN_POINT('',(-18.75,10.825317547305,82.2));
#603 = CARTESIAN_POINT('',(-20.3125,8.118988160479,82.2));
#604 = CARTESIAN_POINT('',(-21.875,5.412658773653,82.2));
#605 = CARTESIAN_POINT('',(-23.4375,2.706329386826,82.2));
#606 = CARTESIAN_POINT('',(-25.,3.061616997868E-15,82.2));
#607 = PCURVE('',#164,#608);
#608 = DEFINITIONAL_REPRESENTATION('',(#609),#619);
#609 = B_SPLINE_CURVE_WITH_KNOTS('',8,(#610,#611,#612,#613,#614,#615,
    #616,#617,#618),.UNSPECIFIED.,.F.,.F.,(9,9),(2.,3.),
  .PIECEWISE_BEZIER_KNOTS.);
#610 = CARTESIAN_POINT('',(37.5,-21.65063509461));
#611 = CARTESIAN_POINT('',(39.0625,-18.94430570778));
#612 = CARTESIAN_POINT('',(40.625,-16.23797632095));
#613 = CARTESIAN_POINT('',(42.1875,-13.53164693413));
#614 = CARTESIAN_POINT('',(43.75,-10.8253175473));
#615 = CARTESIAN_POINT('',(45.3125,-8.118988160479));
#616 = CARTESIAN_POINT('',(46.875,-5.412658773653));
#617 = CARTESIAN_POINT('',(48.4375,-2.706329386826));
#618 = CARTESIAN_POINT('',(50.,0.));
#619 = ( GEOMETRIC_REPRESENTATION_CONTEXT(2) 
PARAMETRIC_REPRESENTATION_CONTEXT() REPRESENTATION_CONTEXT('2D SPACE',''
  ) );
#620 = PCURVE('',#298,#621);
#621 = DEFINITIONAL_REPRESENTATION('',(#622),#626);
#622 = LINE('',#623,#624);
#623 = CARTESIAN_POINT('',(0.,1.));
#624 = VECTOR('',#625,1.);
#625 = DIRECTION('',(1.,0.));
#626 = ( GEOMETRIC_REPRESENTATION_CONTEXT(2) 
PARAMETRIC_REPRESENTATION_CONTEXT() REPRESENTATION_CONTEXT('2D SPACE',''
  ) );
#627 = ORIENTED_EDGE('',*,*,#628,.T.);
#628 = EDGE_CURVE('',#594,#629,#631,.T.);
#629 = VERTEX_POINT('',#630);
#630 = CARTESIAN_POINT('',(-12.5,-21.65063509461,82.2));
#631 = SURFACE_CURVE('',#632,(#642,#655),.PCURVE_S1.);
#632 = B_SPLINE_CURVE_WITH_KNOTS('',8,(#633,#634,#635,#636,#637,#638,
    #639,#640,#641),.UNSPECIFIED.,.F.,.F.,(9,9),(3.,4.),
  .PIECEWISE_BEZIER_KNOTS.);
#633 = CARTESIAN_POINT('',(-25.,3.061616997868E-15,82.2));
#634 = CARTESIAN_POINT('',(-23.4375,-2.706329386826,82.2));
#635 = CARTESIAN_POINT('',(-21.875,-5.412658773653,82.2));
#636 = CARTESIAN_POINT('',(-20.3125,-8.118988160479,82.2));
#637 = CARTESIAN_POINT('',(-18.75,-10.8253175473,82.2));
#638 = CARTESIAN_POINT('',(-17.1875,-13.53164693413,82.2));
#639 = CARTESIAN_POINT('',(-15.625,-16.23797632095,82.2));
#640 = CARTESIAN_POINT('',(-14.0625,-18.94430570778,82.2));
#641 = CARTESIAN_POINT('',(-12.5,-21.65063509461,82.2));
#642 = PCURVE('',#164,#643);
#643 = DEFINITIONAL_REPRESENTATION('',(#644),#654);
#644 = B_SPLINE_CURVE_WITH_KNOTS('',8,(#645,#646,#647,#648,#649,#650,
    #651,#652,#653),.UNSPECIFIED.,.F.,.F.,(9,9),(3.,4.),
  .PIECEWISE_BEZIER_KNOTS.);
#645 = CARTESIAN_POINT('',(50.,0.));
#646 = CARTESIAN_POINT('',(48.4375,2.706329386826));
#647 = CARTESIAN_POINT('',(46.875,5.412658773653));
#648 = CARTESIAN_POINT('',(45.3125,8.118988160479));
#649 = CARTESIAN_POINT('',(43.75,10.825317547305));
#650 = CARTESIAN_POINT('',(42.1875,13.531646934132));
#651 = CARTESIAN_POINT('',(40.625,16.237976320958));
#652 = CARTESIAN_POINT('',(39.0625,18.944305707785));
#653 = CARTESIAN_POINT('',(37.5,21.650635094611));
#654 = ( GEOMETRIC_REPRESENTATION_CONTEXT(2) 
PARAMETRIC_REPRESENTATION_CONTEXT() REPRESENTATION_CONTEXT('2D SPACE',''
  ) );
#655 = PCURVE('',#361,#656);
#656 = DEFINITIONAL_REPRESENTATION('',(#657),#661);
#657 = LINE('',#658,#659);
#658 = CARTESIAN_POINT('',(0.,1.));
#659 = VECTOR('',#660,1.);
#660 = DIRECTION('',(1.,0.));
#661 = ( GEOMETRIC_REPRESENTATION_CONTEXT(2) 
PARAMETRIC_REPRESENTATION_CONTEXT() REPRESENTATION_CONTEXT('2D SPACE',''
  ) );
#662 = ORIENTED_EDGE('',*,*,#663,.T.);
#663 = EDGE_CURVE('',#629,#664,#666,.T.);
#664 = VERTEX_POINT('',#665);
#665 = CARTESIAN_POINT('',(12.5,-21.65063509461,82.2));
#666 = SURFACE_CURVE('',#667,(#677,#690),.PCURVE_S1.);
#667 = B_SPLINE_CURVE_WITH_KNOTS('',8,(#668,#669,#670,#671,#672,#673,
    #674,#675,#676),.UNSPECIFIED.,.F.,.F.,(9,9),(4.,5.),
  .PIECEWISE_BEZIER_KNOTS.);
#668 = CARTESIAN_POINT('',(-12.5,-21.65063509461,82.2));
#669 = CARTESIAN_POINT('',(-9.375,-21.65063509461,82.2));
#670 = CARTESIAN_POINT('',(-6.25,-21.65063509461,82.2));
#671 = CARTESIAN_POINT('',(-3.125,-21.65063509461,82.2));
#672 = CARTESIAN_POINT('',(-1.315614284181E-14,-21.65063509461,82.2));
#673 = CARTESIAN_POINT('',(3.125,-21.65063509461,82.2));
#674 = CARTESIAN_POINT('',(6.25,-21.65063509461,82.2));
#675 = CARTESIAN_POINT('',(9.375,-21.65063509461,82.2));
#676 = CARTESIAN_POINT('',(12.5,-21.65063509461,82.2));
#677 = PCURVE('',#164,#678);
#678 = DEFINITIONAL_REPRESENTATION('',(#679),#689);
#679 = B_SPLINE_CURVE_WITH_KNOTS('',8,(#680,#681,#682,#683,#684,#685,
    #686,#687,#688),.UNSPECIFIED.,.F.,.F.,(9,9),(4.,5.),
  .PIECEWISE_BEZIER_KNOTS.);
#680 = CARTESIAN_POINT('',(37.5,21.650635094611));
#681 = CARTESIAN_POINT('',(34.375,21.650635094611));
#682 = CARTESIAN_POINT('',(31.25,21.650635094611));
#683 = CARTESIAN_POINT('',(28.125,21.650635094611));
#684 = CARTESIAN_POINT('',(25.,21.650635094611));
#685 = CARTESIAN_POINT('',(21.875,21.650635094611));
#686 = CARTESIAN_POINT('',(18.75,21.650635094611));
#687 = CARTESIAN_POINT('',(15.625,21.650635094611));
#688 = CARTESIAN_POINT('',(12.5,21.650635094611));
#689 = ( GEOMETRIC_REPRESENTATION_CONTEXT(2) 
PARAMETRIC_REPRESENTATION_CONTEXT() REPRESENTATION_CONTEXT('2D SPACE',''
  ) );
#690 = PCURVE('',#424,#691);
#691 = DEFINITIONAL_REPRESENTATION('',(#692),#696);
#692 = LINE('',#693,#694);
#693 = CARTESIAN_POINT('',(0.,1.));
#694 = VECTOR('',#695,1.);
#695 = DIRECTION('',(1.,0.));
#696 = ( GEOMETRIC_REPRESENTATION_CONTEXT(2) 
PARAMETRIC_REPRESENTATION_CONTEXT() REPRESENTATION_CONTEXT('2D SPACE',''
  ) );
#697 = ORIENTED_EDGE('',*,*,#698,.T.);
#698 = EDGE_CURVE('',#664,#143,#699,.T.);
#699 = SURFACE_CURVE('',#700,(#710,#723),.PCURVE_S1.);
#700 = B_SPLINE_CURVE_WITH_KNOTS('',8,(#701,#702,#703,#704,#705,#706,
    #707,#708,#709),.UNSPECIFIED.,.F.,.F.,(9,9),(5.,6.),
  .PIECEWISE_BEZIER_KNOTS.);
#701 = CARTESIAN_POINT('',(12.5,-21.65063509461,82.2));
#702 = CARTESIAN_POINT('',(14.0625,-18.94430570778,82.2));
#703 = CARTESIAN_POINT('',(15.625,-16.23797632095,82.2));
#704 = CARTESIAN_POINT('',(17.1875,-13.53164693413,82.2));
#705 = CARTESIAN_POINT('',(18.75,-10.8253175473,82.2));
#706 = CARTESIAN_POINT('',(20.3125,-8.118988160479,82.2));
#707 = CARTESIAN_POINT('',(21.875,-5.412658773653,82.2));
#708 = CARTESIAN_POINT('',(23.4375,-2.706329386826,82.2));
#709 = CARTESIAN_POINT('',(25.,0.,82.2));
#710 = PCURVE('',#164,#711);
#711 = DEFINITIONAL_REPRESENTATION('',(#712),#722);
#712 = B_SPLINE_CURVE_WITH_KNOTS('',8,(#713,#714,#715,#716,#717,#718,
    #719,#720,#721),.UNSPECIFIED.,.F.,.F.,(9,9),(5.,6.),
  .PIECEWISE_BEZIER_KNOTS.);
#713 = CARTESIAN_POINT('',(12.5,21.650635094611));
#714 = CARTESIAN_POINT('',(10.9375,18.944305707785));
#715 = CARTESIAN_POINT('',(9.375,16.237976320958));
#716 = CARTESIAN_POINT('',(7.8125,13.531646934132));
#717 = CARTESIAN_POINT('',(6.25,10.825317547305));
#718 = CARTESIAN_POINT('',(4.6875,8.118988160479));
#719 = CARTESIAN_POINT('',(3.125,5.412658773653));
#720 = CARTESIAN_POINT('',(1.5625,2.706329386826));
#721 = CARTESIAN_POINT('',(0.,0.));
#722 = ( GEOMETRIC_REPRESENTATION_CONTEXT(2) 
PARAMETRIC_REPRESENTATION_CONTEXT() REPRESENTATION_CONTEXT('2D SPACE',''
  ) );
#723 = PCURVE('',#196,#724);
#724 = DEFINITIONAL_REPRESENTATION('',(#725),#729);
#725 = LINE('',#726,#727);
#726 = CARTESIAN_POINT('',(0.,1.));
#727 = VECTOR('',#728,1.);
#728 = DIRECTION('',(1.,0.));
#729 = ( GEOMETRIC_REPRESENTATION_CONTEXT(2) 
PARAMETRIC_REPRESENTATION_CONTEXT() REPRESENTATION_CONTEXT('2D SPACE',''
  ) );
#730 = FACE_BOUND('',#731,.T.);
#731 = EDGE_LOOP('',(#732));
#732 = ORIENTED_EDGE('',*,*,#733,.T.);
#733 = EDGE_CURVE('',#734,#734,#736,.T.);
#734 = VERTEX_POINT('',#735);
#735 = CARTESIAN_POINT('',(-9.3,-2.277843046414E-15,82.2));
#736 = SURFACE_CURVE('',#737,(#742,#753),.PCURVE_S1.);
#737 = CIRCLE('',#738,9.3);
#738 = AXIS2_PLACEMENT_3D('',#739,#740,#741);
#739 = CARTESIAN_POINT('',(0.,0.,82.2));
#740 = DIRECTION('',(0.,0.,-1.));
#741 = DIRECTION('',(-1.,0.,0.));
#742 = PCURVE('',#164,#743);
#743 = DEFINITIONAL_REPRESENTATION('',(#744),#752);
#744 = ( BOUNDED_CURVE() B_SPLINE_CURVE(2,(#745,#746,#747,#748,#749,#750
,#751),.UNSPECIFIED.,.T.,.F.) B_SPLINE_CURVE_WITH_KNOTS((1,2,2,2,2,1),(
    -2.094395102393,0.,2.094395102393,4.188790204786,6.28318530718,
8.377580409573),.UNSPECIFIED.) CURVE() GEOMETRIC_REPRESENTATION_ITEM() 
RATIONAL_B_SPLINE_CURVE((1.,0.5,1.,0.5,1.,0.5,1.)) REPRESENTATION_ITEM(
  '') );
#745 = CARTESIAN_POINT('',(34.3,2.100269260538E-15));
#746 = CARTESIAN_POINT('',(34.3,-16.10807251039));
#747 = CARTESIAN_POINT('',(20.35,-8.054036255195));
#748 = CARTESIAN_POINT('',(6.4,-1.885956070687E-15));
#749 = CARTESIAN_POINT('',(20.35,8.054036255195));
#750 = CARTESIAN_POINT('',(34.3,16.108072510391));
#751 = CARTESIAN_POINT('',(34.3,2.100269260538E-15));
#752 = ( GEOMETRIC_REPRESENTATION_CONTEXT(2) 
PARAMETRIC_REPRESENTATION_CONTEXT() REPRESENTATION_CONTEXT('2D SPACE',''
  ) );
#753 = PCURVE('',#515,#754);
#754 = DEFINITIONAL_REPRESENTATION('',(#755),#759);
#755 = LINE('',#756,#757);
#756 = CARTESIAN_POINT('',(0.,0.));
#757 = VECTOR('',#758,1.);
#758 = DIRECTION('',(1.,0.));
#759 = ( GEOMETRIC_REPRESENTATION_CONTEXT(2) 
PARAMETRIC_REPRESENTATION_CONTEXT() REPRESENTATION_CONTEXT('2D SPACE',''
  ) );
#760 = ADVANCED_FACE('',(#761),#196,.T.);
#761 = FACE_BOUND('',#762,.T.);
#762 = EDGE_LOOP('',(#763,#764,#765,#766));
#763 = ORIENTED_EDGE('',*,*,#459,.T.);
#764 = ORIENTED_EDGE('',*,*,#182,.T.);
#765 = ORIENTED_EDGE('',*,*,#698,.F.);
#766 = ORIENTED_EDGE('',*,*,#767,.F.);
#767 = EDGE_CURVE('',#397,#664,#768,.T.);
#768 = SURFACE_CURVE('',#769,(#773,#780),.PCURVE_S1.);
#769 = B_SPLINE_CURVE_WITH_KNOTS('',2,(#770,#771,#772),.UNSPECIFIED.,.F.
  ,.F.,(3,3),(0.,1.),.PIECEWISE_BEZIER_KNOTS.);
#770 = CARTESIAN_POINT('',(16.4325,-28.46192489537,0.));
#771 = CARTESIAN_POINT('',(14.48375,-25.08659088412,41.1));
#772 = CARTESIAN_POINT('',(12.5,-21.65063509461,82.2));
#773 = PCURVE('',#196,#774);
#774 = DEFINITIONAL_REPRESENTATION('',(#775),#779);
#775 = LINE('',#776,#777);
#776 = CARTESIAN_POINT('',(5.,0.));
#777 = VECTOR('',#778,1.);
#778 = DIRECTION('',(0.,1.));
#779 = ( GEOMETRIC_REPRESENTATION_CONTEXT(2) 
PARAMETRIC_REPRESENTATION_CONTEXT() REPRESENTATION_CONTEXT('2D SPACE',''
  ) );
#780 = PCURVE('',#424,#781);
#781 = DEFINITIONAL_REPRESENTATION('',(#782),#786);
#782 = LINE('',#783,#784);
#783 = CARTESIAN_POINT('',(5.,0.));
#784 = VECTOR('',#785,1.);
#785 = DIRECTION('',(0.,1.));
#786 = ( GEOMETRIC_REPRESENTATION_CONTEXT(2) 
PARAMETRIC_REPRESENTATION_CONTEXT() REPRESENTATION_CONTEXT('2D SPACE',''
  ) );
#787 = ADVANCED_FACE('',(#788),#424,.T.);
#788 = FACE_BOUND('',#789,.T.);
#789 = EDGE_LOOP('',(#790,#791,#792,#793));
#790 = ORIENTED_EDGE('',*,*,#396,.T.);
#791 = ORIENTED_EDGE('',*,*,#767,.T.);
#792 = ORIENTED_EDGE('',*,*,#663,.F.);
#793 = ORIENTED_EDGE('',*,*,#794,.F.);
#794 = EDGE_CURVE('',#334,#629,#795,.T.);
#795 = SURFACE_CURVE('',#796,(#800,#807),.PCURVE_S1.);
#796 = B_SPLINE_CURVE_WITH_KNOTS('',2,(#797,#798,#799),.UNSPECIFIED.,.F.
  ,.F.,(3,3),(0.,1.),.PIECEWISE_BEZIER_KNOTS.);
#797 = CARTESIAN_POINT('',(-16.4325,-28.46192489537,0.));
#798 = CARTESIAN_POINT('',(-14.48375,-25.08659088412,41.1));
#799 = CARTESIAN_POINT('',(-12.5,-21.65063509461,82.2));
#800 = PCURVE('',#424,#801);
#801 = DEFINITIONAL_REPRESENTATION('',(#802),#806);
#802 = LINE('',#803,#804);
#803 = CARTESIAN_POINT('',(4.,0.));
#804 = VECTOR('',#805,1.);
#805 = DIRECTION('',(0.,1.));
#806 = ( GEOMETRIC_REPRESENTATION_CONTEXT(2) 
PARAMETRIC_REPRESENTATION_CONTEXT() REPRESENTATION_CONTEXT('2D SPACE',''
  ) );
#807 = PCURVE('',#361,#808);
#808 = DEFINITIONAL_REPRESENTATION('',(#809),#813);
#809 = LINE('',#810,#811);
#810 = CARTESIAN_POINT('',(4.,0.));
#811 = VECTOR('',#812,1.);
#812 = DIRECTION('',(0.,1.));
#813 = ( GEOMETRIC_REPRESENTATION_CONTEXT(2) 
PARAMETRIC_REPRESENTATION_CONTEXT() REPRESENTATION_CONTEXT('2D SPACE',''
  ) );
#814 = ADVANCED_FACE('',(#815),#298,.T.);
#815 = FACE_BOUND('',#816,.T.);
#816 = EDGE_LOOP('',(#817,#818,#839,#840));
#817 = ORIENTED_EDGE('',*,*,#270,.T.);
#818 = ORIENTED_EDGE('',*,*,#819,.T.);
#819 = EDGE_CURVE('',#271,#594,#820,.T.);
#820 = SURFACE_CURVE('',#821,(#825,#832),.PCURVE_S1.);
#821 = B_SPLINE_CURVE_WITH_KNOTS('',2,(#822,#823,#824),.UNSPECIFIED.,.F.
  ,.F.,(3,3),(0.,1.),.PIECEWISE_BEZIER_KNOTS.);
#822 = CARTESIAN_POINT('',(-32.865,5.373479439186E-14,0.));
#823 = CARTESIAN_POINT('',(-28.9675,2.000751817879E-14,41.1));
#824 = CARTESIAN_POINT('',(-25.,3.061616997868E-15,82.2));
#825 = PCURVE('',#298,#826);
#826 = DEFINITIONAL_REPRESENTATION('',(#827),#831);
#827 = LINE('',#828,#829);
#828 = CARTESIAN_POINT('',(3.,0.));
#829 = VECTOR('',#830,1.);
#830 = DIRECTION('',(0.,1.));
#831 = ( GEOMETRIC_REPRESENTATION_CONTEXT(2) 
PARAMETRIC_REPRESENTATION_CONTEXT() REPRESENTATION_CONTEXT('2D SPACE',''
  ) );
#832 = PCURVE('',#361,#833);
#833 = DEFINITIONAL_REPRESENTATION('',(#834),#838);
#834 = LINE('',#835,#836);
#835 = CARTESIAN_POINT('',(3.,0.));
#836 = VECTOR('',#837,1.);
#837 = DIRECTION('',(0.,1.));
#838 = ( GEOMETRIC_REPRESENTATION_CONTEXT(2) 
PARAMETRIC_REPRESENTATION_CONTEXT() REPRESENTATION_CONTEXT('2D SPACE',''
  ) );
#839 = ORIENTED_EDGE('',*,*,#593,.F.);
#840 = ORIENTED_EDGE('',*,*,#531,.F.);
#841 = ADVANCED_FACE('',(#842),#361,.T.);
#842 = FACE_BOUND('',#843,.T.);
#843 = EDGE_LOOP('',(#844,#845,#846,#847));
#844 = ORIENTED_EDGE('',*,*,#333,.T.);
#845 = ORIENTED_EDGE('',*,*,#794,.T.);
#846 = ORIENTED_EDGE('',*,*,#628,.F.);
#847 = ORIENTED_EDGE('',*,*,#819,.F.);
#848 = ADVANCED_FACE('',(#849),#515,.F.);
#849 = FACE_BOUND('',#850,.F.);
#850 = EDGE_LOOP('',(#851,#852,#873,#874));
#851 = ORIENTED_EDGE('',*,*,#494,.F.);
#852 = ORIENTED_EDGE('',*,*,#853,.F.);
#853 = EDGE_CURVE('',#734,#495,#854,.T.);
#854 = SEAM_CURVE('',#855,(#859,#866),.PCURVE_S1.);
#855 = LINE('',#856,#857);
#856 = CARTESIAN_POINT('',(-9.3,-2.277843046414E-15,82.2));
#857 = VECTOR('',#858,1.);
#858 = DIRECTION('',(0.,0.,-1.));
#859 = PCURVE('',#515,#860);
#860 = DEFINITIONAL_REPRESENTATION('',(#861),#865);
#861 = LINE('',#862,#863);
#862 = CARTESIAN_POINT('',(6.28318530718,-0.));
#863 = VECTOR('',#864,1.);
#864 = DIRECTION('',(0.,1.));
#865 = ( GEOMETRIC_REPRESENTATION_CONTEXT(2) 
PARAMETRIC_REPRESENTATION_CONTEXT() REPRESENTATION_CONTEXT('2D SPACE',''
  ) );
#866 = PCURVE('',#515,#867);
#867 = DEFINITIONAL_REPRESENTATION('',(#868),#872);
#868 = LINE('',#869,#870);
#869 = CARTESIAN_POINT('',(0.,-0.));
#870 = VECTOR('',#871,1.);
#871 = DIRECTION('',(0.,1.));
#872 = ( GEOMETRIC_REPRESENTATION_CONTEXT(2) 
PARAMETRIC_REPRESENTATION_CONTEXT() REPRESENTATION_CONTEXT('2D SPACE',''
  ) );
#873 = ORIENTED_EDGE('',*,*,#733,.T.);
#874 = ORIENTED_EDGE('',*,*,#853,.T.);
#875 = ( GEOMETRIC_REPRESENTATION_CONTEXT(3) 
GLOBAL_UNCERTAINTY_ASSIGNED_CONTEXT((#879)) GLOBAL_UNIT_ASSIGNED_CONTEXT
((#876,#877,#878)) REPRESENTATION_CONTEXT('Context #1',
  '3D Context with UNIT and UNCERTAINTY') );
#876 = ( LENGTH_UNIT() NAMED_UNIT(*) SI_UNIT(.MILLI.,.METRE.) );
#877 = ( NAMED_UNIT(*) PLANE_ANGLE_UNIT() SI_UNIT($,.RADIAN.) );
#878 = ( NAMED_UNIT(*) SI_UNIT($,.STERADIAN.) SOLID_ANGLE_UNIT() );
#879 = UNCERTAINTY_MEASURE_WITH_UNIT(LENGTH_MEASURE(1.E-07),#876,
  'distance_accuracy_value','confusion accuracy');
#880 = PRODUCT_RELATED_PRODUCT_CATEGORY('part',$,(#7));
ENDSEC;
END-ISO-10303-21;
