ISO-10303-21;
HEADER;
FILE_DESCRIPTION(('Open CASCADE Model'),'2;1');
FILE_NAME('Open CASCADE Shape Model','2026-06-10T00:30:27',('Author'),(
    'Open CASCADE'),'Open CASCADE STEP processor 7.8','Open CASCADE 7.8'
  ,'Unknown');
FILE_SCHEMA(('AUTOMOTIVE_DESIGN { 1 0 10303 214 1 1 1 1 }'));
ENDSEC;
DATA;
#1 = APPLICATION_PROTOCOL_DEFINITION('international standard',
  'automotive_design',2000,#2);
#2 = APPLICATION_CONTEXT(
  'core data for automotive mechanical design processes');
#3 = SHAPE_DEFINITION_REPRESENTATION(#4,#10);
#4 = PRODUCT_DEFINITION_SHAPE('','',#5);
#5 = PRODUCT_DEFINITION('design','',#6,#9);
#6 = PRODUCT_DEFINITION_FORMATION('','',#7);
#7 = PRODUCT('Open CASCADE STEP translator 7.8 30',
  'Open CASCADE STEP translator 7.8 30','',(#8));
#8 = PRODUCT_CONTEXT('',#2,'mechanical');
#9 = PRODUCT_DEFINITION_CONTEXT('part definition',#2,'design');
#10 = ADVANCED_BREP_SHAPE_REPRESENTATION('',(#11,#15),#746);
#11 = AXIS2_PLACEMENT_3D('',#12,#13,#14);
#12 = CARTESIAN_POINT('',(0.,0.,0.));
#13 = DIRECTION('',(0.,0.,1.));
#14 = DIRECTION('',(1.,0.,-0.));
#15 = MANIFOLD_SOLID_BREP('',#16);
#16 = CLOSED_SHELL('',(#17,#230,#459,#520,#658,#685,#712,#719));
#17 = ADVANCED_FACE('',(#18),#38,.T.);
#18 = FACE_BOUND('',#19,.T.);
#19 = EDGE_LOOP('',(#20,#90,#141,#181));
#20 = ORIENTED_EDGE('',*,*,#21,.T.);
#21 = EDGE_CURVE('',#22,#24,#26,.T.);
#22 = VERTEX_POINT('',#23);
#23 = CARTESIAN_POINT('',(-32.5,-32.5,0.));
#24 = VERTEX_POINT('',#25);
#25 = CARTESIAN_POINT('',(32.5,-32.5,0.));
#26 = SURFACE_CURVE('',#27,(#37,#72),.PCURVE_S1.);
#27 = B_SPLINE_CURVE_WITH_KNOTS('',8,(#28,#29,#30,#31,#32,#33,#34,#35,
    #36),.UNSPECIFIED.,.F.,.F.,(9,9),(0.,1.),.PIECEWISE_BEZIER_KNOTS.);
#28 = CARTESIAN_POINT('',(-32.5,-32.5,0.));
#29 = CARTESIAN_POINT('',(-24.375,-32.5,0.));
#30 = CARTESIAN_POINT('',(-16.25,-32.5,0.));
#31 = CARTESIAN_POINT('',(-8.125,-32.5,0.));
#32 = CARTESIAN_POINT('',(-2.22044604925E-16,-32.5,0.));
#33 = CARTESIAN_POINT('',(8.125,-32.5,0.));
#34 = CARTESIAN_POINT('',(16.25,-32.5,0.));
#35 = CARTESIAN_POINT('',(24.375,-32.5,0.));
#36 = CARTESIAN_POINT('',(32.5,-32.5,0.));
#37 = PCURVE('',#38,#66);
#38 = B_SPLINE_SURFACE_WITH_KNOTS('',8,2,(
    (#39,#40,#41)
    ,(#42,#43,#44)
    ,(#45,#46,#47)
    ,(#48,#49,#50)
    ,(#51,#52,#53)
    ,(#54,#55,#56)
    ,(#57,#58,#59)
    ,(#60,#61,#62)
    ,(#63,#64,#65
    )),.UNSPECIFIED.,.F.,.F.,.F.,(9,9),(3,3),(0.,1.),(0.,1.),
  .PIECEWISE_BEZIER_KNOTS.);
#39 = CARTESIAN_POINT('',(-32.5,-32.5,0.));
#40 = CARTESIAN_POINT('',(-13.80203820042,-13.80203820042,18.55));
#41 = CARTESIAN_POINT('',(-14.14213562373,-14.14213562373,37.1));
#42 = CARTESIAN_POINT('',(-24.375,-32.5,0.));
#43 = CARTESIAN_POINT('',(-11.96383429818,-19.70274210267,18.55));
#44 = CARTESIAN_POINT('',(-11.36533378738,-16.91893746008,37.1));
#45 = CARTESIAN_POINT('',(-16.25,-32.5,0.));
#46 = CARTESIAN_POINT('',(-8.801512025561,-24.27933134929,18.55));
#47 = CARTESIAN_POINT('',(-7.965417423793,-19.07262651731,37.1));
#48 = CARTESIAN_POINT('',(-8.125,-32.5,0.));
#49 = CARTESIAN_POINT('',(-4.6617518871,-27.18515144607,18.55));
#50 = CARTESIAN_POINT('',(-4.105530299812,-20.44007126874,37.1));
#51 = CARTESIAN_POINT('',(-2.22044604925E-16,-32.5,0.));
#52 = CARTESIAN_POINT('',(2.683409050519E-13,-28.18246473739,18.55));
#53 = CARTESIAN_POINT('',(-1.95399252334E-13,-20.90939517054,37.1));
#54 = CARTESIAN_POINT('',(8.125,-32.5,0.));
#55 = CARTESIAN_POINT('',(4.6617518871,-27.18515144607,18.55));
#56 = CARTESIAN_POINT('',(4.105530299812,-20.44007126874,37.1));
#57 = CARTESIAN_POINT('',(16.25,-32.5,0.));
#58 = CARTESIAN_POINT('',(8.801512025561,-24.27933134929,18.55));
#59 = CARTESIAN_POINT('',(7.965417423793,-19.07262651731,37.1));
#60 = CARTESIAN_POINT('',(24.375,-32.5,0.));
#61 = CARTESIAN_POINT('',(11.963834298187,-19.70274210267,18.55));
#62 = CARTESIAN_POINT('',(11.365333787382,-16.91893746008,37.1));
#63 = CARTESIAN_POINT('',(32.5,-32.5,0.));
#64 = CARTESIAN_POINT('',(13.802038200428,-13.80203820042,18.55));
#65 = CARTESIAN_POINT('',(14.142135623731,-14.14213562373,37.1));
#66 = DEFINITIONAL_REPRESENTATION('',(#67),#71);
#67 = LINE('',#68,#69);
#68 = CARTESIAN_POINT('',(0.,0.));
#69 = VECTOR('',#70,1.);
#70 = DIRECTION('',(1.,0.));
#71 = ( GEOMETRIC_REPRESENTATION_CONTEXT(2) 
PARAMETRIC_REPRESENTATION_CONTEXT() REPRESENTATION_CONTEXT('2D SPACE',''
  ) );
#72 = PCURVE('',#73,#78);
#73 = PLANE('',#74);
#74 = AXIS2_PLACEMENT_3D('',#75,#76,#77);
#75 = CARTESIAN_POINT('',(-32.5,-32.5,0.));
#76 = DIRECTION('',(0.,0.,-1.));
#77 = DIRECTION('',(0.707106781187,0.707106781187,0.));
#78 = DEFINITIONAL_REPRESENTATION('',(#79),#89);
#79 = B_SPLINE_CURVE_WITH_KNOTS('',8,(#80,#81,#82,#83,#84,#85,#86,#87,
    #88),.UNSPECIFIED.,.F.,.F.,(9,9),(0.,1.),.PIECEWISE_BEZIER_KNOTS.);
#80 = CARTESIAN_POINT('',(0.,0.));
#81 = CARTESIAN_POINT('',(5.745242597141,5.745242597141));
#82 = CARTESIAN_POINT('',(11.490485194281,11.490485194281));
#83 = CARTESIAN_POINT('',(17.235727791422,17.235727791422));
#84 = CARTESIAN_POINT('',(22.980970388563,22.980970388563));
#85 = CARTESIAN_POINT('',(28.726212985703,28.726212985703));
#86 = CARTESIAN_POINT('',(34.471455582844,34.471455582844));
#87 = CARTESIAN_POINT('',(40.216698179985,40.216698179985));
#88 = CARTESIAN_POINT('',(45.961940777126,45.961940777126));
#89 = ( GEOMETRIC_REPRESENTATION_CONTEXT(2) 
PARAMETRIC_REPRESENTATION_CONTEXT() REPRESENTATION_CONTEXT('2D SPACE',''
  ) );
#90 = ORIENTED_EDGE('',*,*,#91,.T.);
#91 = EDGE_CURVE('',#24,#92,#94,.T.);
#92 = VERTEX_POINT('',#93);
#93 = CARTESIAN_POINT('',(14.142135623731,-14.14213562373,37.1));
#94 = SURFACE_CURVE('',#95,(#99,#106),.PCURVE_S1.);
#95 = B_SPLINE_CURVE_WITH_KNOTS('',2,(#96,#97,#98),.UNSPECIFIED.,.F.,.F.
  ,(3,3),(0.,1.),.PIECEWISE_BEZIER_KNOTS.);
#96 = CARTESIAN_POINT('',(32.5,-32.5,0.));
#97 = CARTESIAN_POINT('',(13.802038200428,-13.80203820042,18.55));
#98 = CARTESIAN_POINT('',(14.142135623731,-14.14213562373,37.1));
#99 = PCURVE('',#38,#100);
#100 = DEFINITIONAL_REPRESENTATION('',(#101),#105);
#101 = LINE('',#102,#103);
#102 = CARTESIAN_POINT('',(1.,0.));
#103 = VECTOR('',#104,1.);
#104 = DIRECTION('',(0.,1.));
#105 = ( GEOMETRIC_REPRESENTATION_CONTEXT(2) 
PARAMETRIC_REPRESENTATION_CONTEXT() REPRESENTATION_CONTEXT('2D SPACE',''
  ) );
#106 = PCURVE('',#107,#135);
#107 = B_SPLINE_SURFACE_WITH_KNOTS('',8,2,(
    (#108,#109,#110)
    ,(#111,#112,#113)
    ,(#114,#115,#116)
    ,(#117,#118,#119)
    ,(#120,#121,#122)
    ,(#123,#124,#125)
    ,(#126,#127,#128)
    ,(#129,#130,#131)
    ,(#132,#133,#134
    )),.UNSPECIFIED.,.F.,.F.,.F.,(9,9),(3,3),(1.,2.),(0.,1.),
  .PIECEWISE_BEZIER_KNOTS.);
#108 = CARTESIAN_POINT('',(32.5,-32.5,0.));
#109 = CARTESIAN_POINT('',(13.802038200428,-13.80203820042,18.55));
#110 = CARTESIAN_POINT('',(14.142135623731,-14.14213562373,37.1));
#111 = CARTESIAN_POINT('',(32.5,-28.4375,0.));
#112 = CARTESIAN_POINT('',(16.752390151549,-12.8829362493,18.55));
#113 = CARTESIAN_POINT('',(15.530536541905,-12.75373470555,37.1));
#114 = CARTESIAN_POINT('',(32.5,-24.375,0.));
#115 = CARTESIAN_POINT('',(19.371713197943,-11.63280549716,18.55));
#116 = CARTESIAN_POINT('',(16.763159151973,-11.20955552807,37.1));
#117 = CARTESIAN_POINT('',(32.5,-20.3125,0.));
#118 = CARTESIAN_POINT('',(21.616676954057,-10.0949780471,18.55));
#119 = CARTESIAN_POINT('',(17.819612684262,-9.529989669228,37.1));
#120 = CARTESIAN_POINT('',(32.5,-16.25,0.));
#121 = CARTESIAN_POINT('',(23.450753169291,-8.319590399147,18.55));
#122 = CARTESIAN_POINT('',(18.682707373784,-7.738630776069,37.1));
#123 = CARTESIAN_POINT('',(32.5,-12.1875,0.));
#124 = CARTESIAN_POINT('',(24.84556473468,-6.362253375748,18.55));
#125 = CARTESIAN_POINT('',(19.339089286908,-5.861648647411,37.1));
#126 = CARTESIAN_POINT('',(32.5,-8.125,0.));
#127 = CARTESIAN_POINT('',(25.781854506729,-4.282355412766,18.55));
#128 = CARTESIAN_POINT('',(19.779696238461,-3.926990782478,37.1));
#129 = CARTESIAN_POINT('',(32.5,-4.0625,0.));
#130 = CARTESIAN_POINT('',(26.25,-2.141177706383,18.55));
#131 = CARTESIAN_POINT('',(20.,-1.963495391239,37.1));
#132 = CARTESIAN_POINT('',(32.5,0.,0.));
#133 = CARTESIAN_POINT('',(26.25,1.110223024625E-14,18.55));
#134 = CARTESIAN_POINT('',(20.,1.33226762955E-14,37.1));
#135 = DEFINITIONAL_REPRESENTATION('',(#136),#140);
#136 = LINE('',#137,#138);
#137 = CARTESIAN_POINT('',(1.,0.));
#138 = VECTOR('',#139,1.);
#139 = DIRECTION('',(0.,1.));
#140 = ( GEOMETRIC_REPRESENTATION_CONTEXT(2) 
PARAMETRIC_REPRESENTATION_CONTEXT() REPRESENTATION_CONTEXT('2D SPACE',''
  ) );
#141 = ORIENTED_EDGE('',*,*,#142,.F.);
#142 = EDGE_CURVE('',#143,#92,#145,.T.);
#143 = VERTEX_POINT('',#144);
#144 = CARTESIAN_POINT('',(-14.14213562373,-14.14213562373,37.1));
#145 = SURFACE_CURVE('',#146,(#156,#163),.PCURVE_S1.);
#146 = B_SPLINE_CURVE_WITH_KNOTS('',8,(#147,#148,#149,#150,#151,#152,
    #153,#154,#155),.UNSPECIFIED.,.F.,.F.,(9,9),(0.,1.),
  .PIECEWISE_BEZIER_KNOTS.);
#147 = CARTESIAN_POINT('',(-14.14213562373,-14.14213562373,37.1));
#148 = CARTESIAN_POINT('',(-11.36533378738,-16.91893746008,37.1));
#149 = CARTESIAN_POINT('',(-7.965417423793,-19.07262651731,37.1));
#150 = CARTESIAN_POINT('',(-4.105530299812,-20.44007126874,37.1));
#151 = CARTESIAN_POINT('',(-1.95399252334E-13,-20.90939517054,37.1));
#152 = CARTESIAN_POINT('',(4.105530299812,-20.44007126874,37.1));
#153 = CARTESIAN_POINT('',(7.965417423793,-19.07262651731,37.1));
#154 = CARTESIAN_POINT('',(11.365333787382,-16.91893746008,37.1));
#155 = CARTESIAN_POINT('',(14.142135623731,-14.14213562373,37.1));
#156 = PCURVE('',#38,#157);
#157 = DEFINITIONAL_REPRESENTATION('',(#158),#162);
#158 = LINE('',#159,#160);
#159 = CARTESIAN_POINT('',(0.,1.));
#160 = VECTOR('',#161,1.);
#161 = DIRECTION('',(1.,0.));
#162 = ( GEOMETRIC_REPRESENTATION_CONTEXT(2) 
PARAMETRIC_REPRESENTATION_CONTEXT() REPRESENTATION_CONTEXT('2D SPACE',''
  ) );
#163 = PCURVE('',#164,#169);
#164 = PLANE('',#165);
#165 = AXIS2_PLACEMENT_3D('',#166,#167,#168);
#166 = CARTESIAN_POINT('',(-14.14213562373,-14.14213562373,37.1));
#167 = DIRECTION('',(6.782799421514E-15,-6.280369834735E-15,1.));
#168 = DIRECTION('',(0.707106781187,0.707106781187,-3.5527136788E-16));
#169 = DEFINITIONAL_REPRESENTATION('',(#170),#180);
#170 = B_SPLINE_CURVE_WITH_KNOTS('',8,(#171,#172,#173,#174,#175,#176,
    #177,#178,#179),.UNSPECIFIED.,.F.,.F.,(9,9),(0.,1.),
  .PIECEWISE_BEZIER_KNOTS.);
#171 = CARTESIAN_POINT('',(0.,0.));
#172 = CARTESIAN_POINT('',(3.907985046681E-14,-3.926990816987));
#173 = CARTESIAN_POINT('',(0.881215779224,-7.853982870084));
#174 = CARTESIAN_POINT('',(2.643638682572,-11.5502646867));
#175 = CARTESIAN_POINT('',(5.214824884401,-14.78517511559));
#176 = CARTESIAN_POINT('',(8.449735313299,-17.35636131742));
#177 = CARTESIAN_POINT('',(12.146017129915,-19.11878422077));
#178 = CARTESIAN_POINT('',(16.073009183013,-20.));
#179 = CARTESIAN_POINT('',(20.,-20.));
#180 = ( GEOMETRIC_REPRESENTATION_CONTEXT(2) 
PARAMETRIC_REPRESENTATION_CONTEXT() REPRESENTATION_CONTEXT('2D SPACE',''
  ) );
#181 = ORIENTED_EDGE('',*,*,#182,.F.);
#182 = EDGE_CURVE('',#22,#143,#183,.T.);
#183 = SURFACE_CURVE('',#184,(#188,#195),.PCURVE_S1.);
#184 = B_SPLINE_CURVE_WITH_KNOTS('',2,(#185,#186,#187),.UNSPECIFIED.,.F.
  ,.F.,(3,3),(0.,1.),.PIECEWISE_BEZIER_KNOTS.);
#185 = CARTESIAN_POINT('',(-32.5,-32.5,0.));
#186 = CARTESIAN_POINT('',(-13.80203820042,-13.80203820042,18.55));
#187 = CARTESIAN_POINT('',(-14.14213562373,-14.14213562373,37.1));
#188 = PCURVE('',#38,#189);
#189 = DEFINITIONAL_REPRESENTATION('',(#190),#194);
#190 = LINE('',#191,#192);
#191 = CARTESIAN_POINT('',(0.,0.));
#192 = VECTOR('',#193,1.);
#193 = DIRECTION('',(0.,1.));
#194 = ( GEOMETRIC_REPRESENTATION_CONTEXT(2) 
PARAMETRIC_REPRESENTATION_CONTEXT() REPRESENTATION_CONTEXT('2D SPACE',''
  ) );
#195 = PCURVE('',#196,#224);
#196 = B_SPLINE_SURFACE_WITH_KNOTS('',8,2,(
    (#197,#198,#199)
    ,(#200,#201,#202)
    ,(#203,#204,#205)
    ,(#206,#207,#208)
    ,(#209,#210,#211)
    ,(#212,#213,#214)
    ,(#215,#216,#217)
    ,(#218,#219,#220)
    ,(#221,#222,#223
    )),.UNSPECIFIED.,.F.,.F.,.F.,(9,9),(3,3),(4.,5.),(0.,1.),
  .PIECEWISE_BEZIER_KNOTS.);
#197 = CARTESIAN_POINT('',(-32.5,32.5,0.));
#198 = CARTESIAN_POINT('',(-13.80203820042,13.802038200428,18.55));
#199 = CARTESIAN_POINT('',(-14.14213562373,14.142135623731,37.1));
#200 = CARTESIAN_POINT('',(-32.5,24.375,0.));
#201 = CARTESIAN_POINT('',(-19.70274210267,11.963834298187,18.55));
#202 = CARTESIAN_POINT('',(-16.91893746008,11.365333787382,37.1));
#203 = CARTESIAN_POINT('',(-32.5,16.25,0.));
#204 = CARTESIAN_POINT('',(-24.27933134928,8.801512025561,
    18.549999999999));
#205 = CARTESIAN_POINT('',(-19.07262651731,7.965417423793,
    37.099999999999));
#206 = CARTESIAN_POINT('',(-32.5,8.125,0.));
#207 = CARTESIAN_POINT('',(-27.18515144608,4.661751887101,
    18.550000000001));
#208 = CARTESIAN_POINT('',(-20.44007126874,4.105530299812,
    37.100000000003));
#209 = CARTESIAN_POINT('',(-32.5,-2.22044604925E-16,0.));
#210 = CARTESIAN_POINT('',(-28.18246473739,-8.893996650272E-13,
    18.549999999999));
#211 = CARTESIAN_POINT('',(-20.90939517053,-4.23661106197E-13,
    37.099999999997));
#212 = CARTESIAN_POINT('',(-32.5,-8.125,0.));
#213 = CARTESIAN_POINT('',(-27.18515144608,-4.661751887099,
    18.550000000001));
#214 = CARTESIAN_POINT('',(-20.44007126874,-4.105530299811,
    37.100000000002));
#215 = CARTESIAN_POINT('',(-32.5,-16.25,0.));
#216 = CARTESIAN_POINT('',(-24.27933134928,-8.801512025561,18.55));
#217 = CARTESIAN_POINT('',(-19.07262651731,-7.965417423794,
    37.099999999999));
#218 = CARTESIAN_POINT('',(-32.5,-24.375,0.));
#219 = CARTESIAN_POINT('',(-19.70274210267,-11.96383429818,18.55));
#220 = CARTESIAN_POINT('',(-16.91893746008,-11.36533378738,37.1));
#221 = CARTESIAN_POINT('',(-32.5,-32.5,0.));
#222 = CARTESIAN_POINT('',(-13.80203820042,-13.80203820042,18.55));
#223 = CARTESIAN_POINT('',(-14.14213562373,-14.14213562373,37.1));
#224 = DEFINITIONAL_REPRESENTATION('',(#225),#229);
#225 = LINE('',#226,#227);
#226 = CARTESIAN_POINT('',(5.,0.));
#227 = VECTOR('',#228,1.);
#228 = DIRECTION('',(0.,1.));
#229 = ( GEOMETRIC_REPRESENTATION_CONTEXT(2) 
PARAMETRIC_REPRESENTATION_CONTEXT() REPRESENTATION_CONTEXT('2D SPACE',''
  ) );
#230 = ADVANCED_FACE('',(#231,#428),#73,.T.);
#231 = FACE_BOUND('',#232,.T.);
#232 = EDGE_LOOP('',(#233,#234,#269,#332,#395));
#233 = ORIENTED_EDGE('',*,*,#21,.F.);
#234 = ORIENTED_EDGE('',*,*,#235,.F.);
#235 = EDGE_CURVE('',#236,#22,#238,.T.);
#236 = VERTEX_POINT('',#237);
#237 = CARTESIAN_POINT('',(-32.5,32.5,0.));
#238 = SURFACE_CURVE('',#239,(#249,#262),.PCURVE_S1.);
#239 = B_SPLINE_CURVE_WITH_KNOTS('',8,(#240,#241,#242,#243,#244,#245,
    #246,#247,#248),.UNSPECIFIED.,.F.,.F.,(9,9),(4.,5.),
  .PIECEWISE_BEZIER_KNOTS.);
#240 = CARTESIAN_POINT('',(-32.5,32.5,0.));
#241 = CARTESIAN_POINT('',(-32.5,24.375,0.));
#242 = CARTESIAN_POINT('',(-32.5,16.25,0.));
#243 = CARTESIAN_POINT('',(-32.5,8.125,0.));
#244 = CARTESIAN_POINT('',(-32.5,-2.22044604925E-16,0.));
#245 = CARTESIAN_POINT('',(-32.5,-8.125,0.));
#246 = CARTESIAN_POINT('',(-32.5,-16.25,0.));
#247 = CARTESIAN_POINT('',(-32.5,-24.375,0.));
#248 = CARTESIAN_POINT('',(-32.5,-32.5,0.));
#249 = PCURVE('',#73,#250);
#250 = DEFINITIONAL_REPRESENTATION('',(#251),#261);
#251 = B_SPLINE_CURVE_WITH_KNOTS('',8,(#252,#253,#254,#255,#256,#257,
    #258,#259,#260),.UNSPECIFIED.,.F.,.F.,(9,9),(4.,5.),
  .PIECEWISE_BEZIER_KNOTS.);
#252 = CARTESIAN_POINT('',(45.961940777126,-45.96194077712));
#253 = CARTESIAN_POINT('',(40.216698179985,-40.21669817998));
#254 = CARTESIAN_POINT('',(34.471455582844,-34.47145558284));
#255 = CARTESIAN_POINT('',(28.726212985703,-28.7262129857));
#256 = CARTESIAN_POINT('',(22.980970388563,-22.98097038856));
#257 = CARTESIAN_POINT('',(17.235727791422,-17.23572779142));
#258 = CARTESIAN_POINT('',(11.490485194281,-11.49048519428));
#259 = CARTESIAN_POINT('',(5.745242597141,-5.745242597141));
#260 = CARTESIAN_POINT('',(0.,0.));
#261 = ( GEOMETRIC_REPRESENTATION_CONTEXT(2) 
PARAMETRIC_REPRESENTATION_CONTEXT() REPRESENTATION_CONTEXT('2D SPACE',''
  ) );
#262 = PCURVE('',#196,#263);
#263 = DEFINITIONAL_REPRESENTATION('',(#264),#268);
#264 = LINE('',#265,#266);
#265 = CARTESIAN_POINT('',(0.,0.));
#266 = VECTOR('',#267,1.);
#267 = DIRECTION('',(1.,0.));
#268 = ( GEOMETRIC_REPRESENTATION_CONTEXT(2) 
PARAMETRIC_REPRESENTATION_CONTEXT() REPRESENTATION_CONTEXT('2D SPACE',''
  ) );
#269 = ORIENTED_EDGE('',*,*,#270,.F.);
#270 = EDGE_CURVE('',#271,#236,#273,.T.);
#271 = VERTEX_POINT('',#272);
#272 = CARTESIAN_POINT('',(32.5,32.5,0.));
#273 = SURFACE_CURVE('',#274,(#284,#297),.PCURVE_S1.);
#274 = B_SPLINE_CURVE_WITH_KNOTS('',8,(#275,#276,#277,#278,#279,#280,
    #281,#282,#283),.UNSPECIFIED.,.F.,.F.,(9,9),(3.,4.),
  .PIECEWISE_BEZIER_KNOTS.);
#275 = CARTESIAN_POINT('',(32.5,32.5,0.));
#276 = CARTESIAN_POINT('',(24.375,32.5,0.));
#277 = CARTESIAN_POINT('',(16.25,32.5,0.));
#278 = CARTESIAN_POINT('',(8.125,32.5,0.));
#279 = CARTESIAN_POINT('',(-2.22044604925E-16,32.5,0.));
#280 = CARTESIAN_POINT('',(-8.125,32.5,0.));
#281 = CARTESIAN_POINT('',(-16.25,32.5,0.));
#282 = CARTESIAN_POINT('',(-24.375,32.5,0.));
#283 = CARTESIAN_POINT('',(-32.5,32.5,0.));
#284 = PCURVE('',#73,#285);
#285 = DEFINITIONAL_REPRESENTATION('',(#286),#296);
#286 = B_SPLINE_CURVE_WITH_KNOTS('',8,(#287,#288,#289,#290,#291,#292,
    #293,#294,#295),.UNSPECIFIED.,.F.,.F.,(9,9),(3.,4.),
  .PIECEWISE_BEZIER_KNOTS.);
#287 = CARTESIAN_POINT('',(91.923881554251,0.));
#288 = CARTESIAN_POINT('',(86.17863895711,-5.745242597141));
#289 = CARTESIAN_POINT('',(80.43339635997,-11.49048519428));
#290 = CARTESIAN_POINT('',(74.688153762829,-17.23572779142));
#291 = CARTESIAN_POINT('',(68.942911165688,-22.98097038856));
#292 = CARTESIAN_POINT('',(63.197668568548,-28.7262129857));
#293 = CARTESIAN_POINT('',(57.452425971407,-34.47145558284));
#294 = CARTESIAN_POINT('',(51.707183374266,-40.21669817998));
#295 = CARTESIAN_POINT('',(45.961940777126,-45.96194077712));
#296 = ( GEOMETRIC_REPRESENTATION_CONTEXT(2) 
PARAMETRIC_REPRESENTATION_CONTEXT() REPRESENTATION_CONTEXT('2D SPACE',''
  ) );
#297 = PCURVE('',#298,#326);
#298 = B_SPLINE_SURFACE_WITH_KNOTS('',8,2,(
    (#299,#300,#301)
    ,(#302,#303,#304)
    ,(#305,#306,#307)
    ,(#308,#309,#310)
    ,(#311,#312,#313)
    ,(#314,#315,#316)
    ,(#317,#318,#319)
    ,(#320,#321,#322)
    ,(#323,#324,#325
    )),.UNSPECIFIED.,.F.,.F.,.F.,(9,9),(3,3),(3.,4.),(0.,1.),
  .PIECEWISE_BEZIER_KNOTS.);
#299 = CARTESIAN_POINT('',(32.5,32.5,0.));
#300 = CARTESIAN_POINT('',(13.802038200428,13.802038200428,18.55));
#301 = CARTESIAN_POINT('',(14.142135623731,14.142135623731,37.1));
#302 = CARTESIAN_POINT('',(24.375,32.5,0.));
#303 = CARTESIAN_POINT('',(11.963834298187,19.702742102669,18.55));
#304 = CARTESIAN_POINT('',(11.365333787382,16.91893746008,37.1));
#305 = CARTESIAN_POINT('',(16.25,32.5,0.));
#306 = CARTESIAN_POINT('',(8.801512025561,24.279331349291,18.55));
#307 = CARTESIAN_POINT('',(7.965417423793,19.072626517313,37.1));
#308 = CARTESIAN_POINT('',(8.125,32.5,0.));
#309 = CARTESIAN_POINT('',(4.6617518871,27.185151446078,18.55));
#310 = CARTESIAN_POINT('',(4.105530299812,20.440071268743,
    37.099999999999));
#311 = CARTESIAN_POINT('',(-2.22044604925E-16,32.5,0.));
#312 = CARTESIAN_POINT('',(-3.560485239973E-13,28.1824647374,18.55));
#313 = CARTESIAN_POINT('',(1.7763568394E-15,20.909395170541,
    37.100000000001));
#314 = CARTESIAN_POINT('',(-8.125,32.5,0.));
#315 = CARTESIAN_POINT('',(-4.6617518871,27.185151446078,18.55));
#316 = CARTESIAN_POINT('',(-4.105530299812,20.440071268743,37.1));
#317 = CARTESIAN_POINT('',(-16.25,32.5,0.));
#318 = CARTESIAN_POINT('',(-8.801512025561,24.279331349291,18.55));
#319 = CARTESIAN_POINT('',(-7.965417423794,19.072626517313,37.1));
#320 = CARTESIAN_POINT('',(-24.375,32.5,0.));
#321 = CARTESIAN_POINT('',(-11.96383429818,19.702742102669,18.55));
#322 = CARTESIAN_POINT('',(-11.36533378738,16.91893746008,37.1));
#323 = CARTESIAN_POINT('',(-32.5,32.5,0.));
#324 = CARTESIAN_POINT('',(-13.80203820042,13.802038200428,18.55));
#325 = CARTESIAN_POINT('',(-14.14213562373,14.142135623731,37.1));
#326 = DEFINITIONAL_REPRESENTATION('',(#327),#331);
#327 = LINE('',#328,#329);
#328 = CARTESIAN_POINT('',(0.,0.));
#329 = VECTOR('',#330,1.);
#330 = DIRECTION('',(1.,0.));
#331 = ( GEOMETRIC_REPRESENTATION_CONTEXT(2) 
PARAMETRIC_REPRESENTATION_CONTEXT() REPRESENTATION_CONTEXT('2D SPACE',''
  ) );
#332 = ORIENTED_EDGE('',*,*,#333,.F.);
#333 = EDGE_CURVE('',#334,#271,#336,.T.);
#334 = VERTEX_POINT('',#335);
#335 = CARTESIAN_POINT('',(32.5,0.,0.));
#336 = SURFACE_CURVE('',#337,(#347,#360),.PCURVE_S1.);
#337 = B_SPLINE_CURVE_WITH_KNOTS('',8,(#338,#339,#340,#341,#342,#343,
    #344,#345,#346),.UNSPECIFIED.,.F.,.F.,(9,9),(2.,3.),
  .PIECEWISE_BEZIER_KNOTS.);
#338 = CARTESIAN_POINT('',(32.5,0.,0.));
#339 = CARTESIAN_POINT('',(32.5,4.0625,0.));
#340 = CARTESIAN_POINT('',(32.5,8.125,0.));
#341 = CARTESIAN_POINT('',(32.5,12.1875,0.));
#342 = CARTESIAN_POINT('',(32.5,16.25,0.));
#343 = CARTESIAN_POINT('',(32.5,20.3125,0.));
#344 = CARTESIAN_POINT('',(32.5,24.375,0.));
#345 = CARTESIAN_POINT('',(32.5,28.4375,0.));
#346 = CARTESIAN_POINT('',(32.5,32.5,0.));
#347 = PCURVE('',#73,#348);
#348 = DEFINITIONAL_REPRESENTATION('',(#349),#359);
#349 = B_SPLINE_CURVE_WITH_KNOTS('',8,(#350,#351,#352,#353,#354,#355,
    #356,#357,#358),.UNSPECIFIED.,.F.,.F.,(9,9),(2.,3.),
  .PIECEWISE_BEZIER_KNOTS.);
#350 = CARTESIAN_POINT('',(68.942911165688,22.980970388563));
#351 = CARTESIAN_POINT('',(71.815532464259,20.108349089992));
#352 = CARTESIAN_POINT('',(74.688153762829,17.235727791422));
#353 = CARTESIAN_POINT('',(77.560775061399,14.363106492852));
#354 = CARTESIAN_POINT('',(80.43339635997,11.490485194281));
#355 = CARTESIAN_POINT('',(83.30601765854,8.617863895711));
#356 = CARTESIAN_POINT('',(86.17863895711,5.745242597141));
#357 = CARTESIAN_POINT('',(89.051260255681,2.87262129857));
#358 = CARTESIAN_POINT('',(91.923881554251,0.));
#359 = ( GEOMETRIC_REPRESENTATION_CONTEXT(2) 
PARAMETRIC_REPRESENTATION_CONTEXT() REPRESENTATION_CONTEXT('2D SPACE',''
  ) );
#360 = PCURVE('',#361,#389);
#361 = B_SPLINE_SURFACE_WITH_KNOTS('',8,2,(
    (#362,#363,#364)
    ,(#365,#366,#367)
    ,(#368,#369,#370)
    ,(#371,#372,#373)
    ,(#374,#375,#376)
    ,(#377,#378,#379)
    ,(#380,#381,#382)
    ,(#383,#384,#385)
    ,(#386,#387,#388
    )),.UNSPECIFIED.,.F.,.F.,.F.,(9,9),(3,3),(2.,3.),(0.,1.),
  .PIECEWISE_BEZIER_KNOTS.);
#362 = CARTESIAN_POINT('',(32.5,0.,0.));
#363 = CARTESIAN_POINT('',(26.25,1.110223024625E-14,18.55));
#364 = CARTESIAN_POINT('',(20.,1.33226762955E-14,37.1));
#365 = CARTESIAN_POINT('',(32.5,4.0625,0.));
#366 = CARTESIAN_POINT('',(26.25,2.141177706383,18.55));
#367 = CARTESIAN_POINT('',(20.,1.963495391239,37.1));
#368 = CARTESIAN_POINT('',(32.5,8.125,0.));
#369 = CARTESIAN_POINT('',(25.781854506729,4.282355412765,18.55));
#370 = CARTESIAN_POINT('',(19.779696238461,3.926990782478,37.1));
#371 = CARTESIAN_POINT('',(32.5,12.1875,0.));
#372 = CARTESIAN_POINT('',(24.84556473468,6.362253375748,18.55));
#373 = CARTESIAN_POINT('',(19.339089286908,5.861648647411,37.1));
#374 = CARTESIAN_POINT('',(32.5,16.25,0.));
#375 = CARTESIAN_POINT('',(23.450753169291,8.319590399147,18.55));
#376 = CARTESIAN_POINT('',(18.682707373784,7.738630776069,37.1));
#377 = CARTESIAN_POINT('',(32.5,20.3125,0.));
#378 = CARTESIAN_POINT('',(21.616676954056,10.094978047108,18.55));
#379 = CARTESIAN_POINT('',(17.819612684262,9.529989669227,37.1));
#380 = CARTESIAN_POINT('',(32.5,24.375,0.));
#381 = CARTESIAN_POINT('',(19.371713197943,11.632805497167,18.55));
#382 = CARTESIAN_POINT('',(16.763159151973,11.209555528079,37.1));
#383 = CARTESIAN_POINT('',(32.5,28.4375,0.));
#384 = CARTESIAN_POINT('',(16.752390151549,12.882936249307,18.55));
#385 = CARTESIAN_POINT('',(15.530536541905,12.753734705556,37.1));
#386 = CARTESIAN_POINT('',(32.5,32.5,0.));
#387 = CARTESIAN_POINT('',(13.802038200428,13.802038200428,18.55));
#388 = CARTESIAN_POINT('',(14.142135623731,14.142135623731,37.1));
#389 = DEFINITIONAL_REPRESENTATION('',(#390),#394);
#390 = LINE('',#391,#392);
#391 = CARTESIAN_POINT('',(0.,0.));
#392 = VECTOR('',#393,1.);
#393 = DIRECTION('',(1.,0.));
#394 = ( GEOMETRIC_REPRESENTATION_CONTEXT(2) 
PARAMETRIC_REPRESENTATION_CONTEXT() REPRESENTATION_CONTEXT('2D SPACE',''
  ) );
#395 = ORIENTED_EDGE('',*,*,#396,.F.);
#396 = EDGE_CURVE('',#24,#334,#397,.T.);
#397 = SURFACE_CURVE('',#398,(#408,#421),.PCURVE_S1.);
#398 = B_SPLINE_CURVE_WITH_KNOTS('',8,(#399,#400,#401,#402,#403,#404,
    #405,#406,#407),.UNSPECIFIED.,.F.,.F.,(9,9),(1.,2.),
  .PIECEWISE_BEZIER_KNOTS.);
#399 = CARTESIAN_POINT('',(32.5,-32.5,0.));
#400 = CARTESIAN_POINT('',(32.5,-28.4375,0.));
#401 = CARTESIAN_POINT('',(32.5,-24.375,0.));
#402 = CARTESIAN_POINT('',(32.5,-20.3125,0.));
#403 = CARTESIAN_POINT('',(32.5,-16.25,0.));
#404 = CARTESIAN_POINT('',(32.5,-12.1875,0.));
#405 = CARTESIAN_POINT('',(32.5,-8.125,0.));
#406 = CARTESIAN_POINT('',(32.5,-4.0625,0.));
#407 = CARTESIAN_POINT('',(32.5,0.,0.));
#408 = PCURVE('',#73,#409);
#409 = DEFINITIONAL_REPRESENTATION('',(#410),#420);
#410 = B_SPLINE_CURVE_WITH_KNOTS('',8,(#411,#412,#413,#414,#415,#416,
    #417,#418,#419),.UNSPECIFIED.,.F.,.F.,(9,9),(1.,2.),
  .PIECEWISE_BEZIER_KNOTS.);
#411 = CARTESIAN_POINT('',(45.961940777126,45.961940777126));
#412 = CARTESIAN_POINT('',(48.834562075696,43.089319478555));
#413 = CARTESIAN_POINT('',(51.707183374266,40.216698179985));
#414 = CARTESIAN_POINT('',(54.579804672837,37.344076881415));
#415 = CARTESIAN_POINT('',(57.452425971407,34.471455582844));
#416 = CARTESIAN_POINT('',(60.325047269977,31.598834284274));
#417 = CARTESIAN_POINT('',(63.197668568548,28.726212985703));
#418 = CARTESIAN_POINT('',(66.070289867118,25.853591687133));
#419 = CARTESIAN_POINT('',(68.942911165688,22.980970388563));
#420 = ( GEOMETRIC_REPRESENTATION_CONTEXT(2) 
PARAMETRIC_REPRESENTATION_CONTEXT() REPRESENTATION_CONTEXT('2D SPACE',''
  ) );
#421 = PCURVE('',#107,#422);
#422 = DEFINITIONAL_REPRESENTATION('',(#423),#427);
#423 = LINE('',#424,#425);
#424 = CARTESIAN_POINT('',(0.,0.));
#425 = VECTOR('',#426,1.);
#426 = DIRECTION('',(1.,0.));
#427 = ( GEOMETRIC_REPRESENTATION_CONTEXT(2) 
PARAMETRIC_REPRESENTATION_CONTEXT() REPRESENTATION_CONTEXT('2D SPACE',''
  ) );
#428 = FACE_BOUND('',#429,.T.);
#429 = EDGE_LOOP('',(#430));
#430 = ORIENTED_EDGE('',*,*,#431,.F.);
#431 = EDGE_CURVE('',#432,#432,#434,.T.);
#432 = VERTEX_POINT('',#433);
#433 = CARTESIAN_POINT('',(-7.25,2.312259830099E-13,0.));
#434 = SURFACE_CURVE('',#435,(#440,#447),.PCURVE_S1.);
#435 = CIRCLE('',#436,7.25);
#436 = AXIS2_PLACEMENT_3D('',#437,#438,#439);
#437 = CARTESIAN_POINT('',(-2.516418585382E-13,2.330017208687E-13,0.));
#438 = DIRECTION('',(-6.782799421514E-15,6.280369834735E-15,-1.));
#439 = DIRECTION('',(-1.,-4.259848888193E-29,6.782799421514E-15));
#440 = PCURVE('',#73,#441);
#441 = DEFINITIONAL_REPRESENTATION('',(#442),#446);
#442 = CIRCLE('',#443,7.25);
#443 = AXIS2_PLACEMENT_2D('',#444,#445);
#444 = CARTESIAN_POINT('',(45.961940777126,-3.410605131648E-13));
#445 = DIRECTION('',(-0.707106781187,-0.707106781187));
#446 = ( GEOMETRIC_REPRESENTATION_CONTEXT(2) 
PARAMETRIC_REPRESENTATION_CONTEXT() REPRESENTATION_CONTEXT('2D SPACE',''
  ) );
#447 = PCURVE('',#448,#453);
#448 = CYLINDRICAL_SURFACE('',#449,7.25);
#449 = AXIS2_PLACEMENT_3D('',#450,#451,#452);
#450 = CARTESIAN_POINT('',(5.048709793414E-29,-5.048709793414E-29,37.1)
  );
#451 = DIRECTION('',(-6.782799421514E-15,6.280369834735E-15,-1.));
#452 = DIRECTION('',(-1.,-4.259848888193E-29,6.782799421514E-15));
#453 = DEFINITIONAL_REPRESENTATION('',(#454),#458);
#454 = LINE('',#455,#456);
#455 = CARTESIAN_POINT('',(0.,37.1));
#456 = VECTOR('',#457,1.);
#457 = DIRECTION('',(1.,0.));
#458 = ( GEOMETRIC_REPRESENTATION_CONTEXT(2) 
PARAMETRIC_REPRESENTATION_CONTEXT() REPRESENTATION_CONTEXT('2D SPACE',''
  ) );
#459 = ADVANCED_FACE('',(#460),#107,.T.);
#460 = FACE_BOUND('',#461,.T.);
#461 = EDGE_LOOP('',(#462,#463,#486,#519));
#462 = ORIENTED_EDGE('',*,*,#396,.T.);
#463 = ORIENTED_EDGE('',*,*,#464,.T.);
#464 = EDGE_CURVE('',#334,#465,#467,.T.);
#465 = VERTEX_POINT('',#466);
#466 = CARTESIAN_POINT('',(20.,0.,37.1));
#467 = SURFACE_CURVE('',#468,(#472,#479),.PCURVE_S1.);
#468 = B_SPLINE_CURVE_WITH_KNOTS('',2,(#469,#470,#471),.UNSPECIFIED.,.F.
  ,.F.,(3,3),(0.,1.),.PIECEWISE_BEZIER_KNOTS.);
#469 = CARTESIAN_POINT('',(32.5,0.,0.));
#470 = CARTESIAN_POINT('',(26.25,1.110223024625E-14,18.55));
#471 = CARTESIAN_POINT('',(20.,1.33226762955E-14,37.1));
#472 = PCURVE('',#107,#473);
#473 = DEFINITIONAL_REPRESENTATION('',(#474),#478);
#474 = LINE('',#475,#476);
#475 = CARTESIAN_POINT('',(2.,0.));
#476 = VECTOR('',#477,1.);
#477 = DIRECTION('',(0.,1.));
#478 = ( GEOMETRIC_REPRESENTATION_CONTEXT(2) 
PARAMETRIC_REPRESENTATION_CONTEXT() REPRESENTATION_CONTEXT('2D SPACE',''
  ) );
#479 = PCURVE('',#361,#480);
#480 = DEFINITIONAL_REPRESENTATION('',(#481),#485);
#481 = LINE('',#482,#483);
#482 = CARTESIAN_POINT('',(2.,0.));
#483 = VECTOR('',#484,1.);
#484 = DIRECTION('',(0.,1.));
#485 = ( GEOMETRIC_REPRESENTATION_CONTEXT(2) 
PARAMETRIC_REPRESENTATION_CONTEXT() REPRESENTATION_CONTEXT('2D SPACE',''
  ) );
#486 = ORIENTED_EDGE('',*,*,#487,.F.);
#487 = EDGE_CURVE('',#92,#465,#488,.T.);
#488 = SURFACE_CURVE('',#489,(#499,#506),.PCURVE_S1.);
#489 = B_SPLINE_CURVE_WITH_KNOTS('',8,(#490,#491,#492,#493,#494,#495,
    #496,#497,#498),.UNSPECIFIED.,.F.,.F.,(9,9),(1.,2.),
  .PIECEWISE_BEZIER_KNOTS.);
#490 = CARTESIAN_POINT('',(14.142135623731,-14.14213562373,37.1));
#491 = CARTESIAN_POINT('',(15.530536541905,-12.75373470555,37.1));
#492 = CARTESIAN_POINT('',(16.763159151973,-11.20955552807,37.1));
#493 = CARTESIAN_POINT('',(17.819612684262,-9.529989669228,37.1));
#494 = CARTESIAN_POINT('',(18.682707373784,-7.738630776069,37.1));
#495 = CARTESIAN_POINT('',(19.339089286908,-5.861648647411,37.1));
#496 = CARTESIAN_POINT('',(19.779696238461,-3.926990782478,37.1));
#497 = CARTESIAN_POINT('',(20.,-1.963495391239,37.1));
#498 = CARTESIAN_POINT('',(20.,1.33226762955E-14,37.1));
#499 = PCURVE('',#107,#500);
#500 = DEFINITIONAL_REPRESENTATION('',(#501),#505);
#501 = LINE('',#502,#503);
#502 = CARTESIAN_POINT('',(0.,1.));
#503 = VECTOR('',#504,1.);
#504 = DIRECTION('',(1.,0.));
#505 = ( GEOMETRIC_REPRESENTATION_CONTEXT(2) 
PARAMETRIC_REPRESENTATION_CONTEXT() REPRESENTATION_CONTEXT('2D SPACE',''
  ) );
#506 = PCURVE('',#164,#507);
#507 = DEFINITIONAL_REPRESENTATION('',(#508),#518);
#508 = B_SPLINE_CURVE_WITH_KNOTS('',8,(#509,#510,#511,#512,#513,#514,
    #515,#516,#517),.UNSPECIFIED.,.F.,.F.,(9,9),(1.,2.),
  .PIECEWISE_BEZIER_KNOTS.);
#509 = CARTESIAN_POINT('',(20.,-20.));
#510 = CARTESIAN_POINT('',(21.963495408494,-20.));
#511 = CARTESIAN_POINT('',(23.926990782478,-19.77969623846));
#512 = CARTESIAN_POINT('',(25.861648647411,-19.3390892869));
#513 = CARTESIAN_POINT('',(27.738630776069,-18.68270737378));
#514 = CARTESIAN_POINT('',(29.529989669228,-17.81961268426));
#515 = CARTESIAN_POINT('',(31.209555528078,-16.76315915197));
#516 = CARTESIAN_POINT('',(32.753734717757,-15.5305365297));
#517 = CARTESIAN_POINT('',(34.142135623731,-14.14213562373));
#518 = ( GEOMETRIC_REPRESENTATION_CONTEXT(2) 
PARAMETRIC_REPRESENTATION_CONTEXT() REPRESENTATION_CONTEXT('2D SPACE',''
  ) );
#519 = ORIENTED_EDGE('',*,*,#91,.F.);
#520 = ADVANCED_FACE('',(#521,#628),#164,.T.);
#521 = FACE_BOUND('',#522,.T.);
#522 = EDGE_LOOP('',(#523,#524,#525,#560,#595));
#523 = ORIENTED_EDGE('',*,*,#142,.T.);
#524 = ORIENTED_EDGE('',*,*,#487,.T.);
#525 = ORIENTED_EDGE('',*,*,#526,.T.);
#526 = EDGE_CURVE('',#465,#527,#529,.T.);
#527 = VERTEX_POINT('',#528);
#528 = CARTESIAN_POINT('',(14.142135623731,14.142135623731,37.1));
#529 = SURFACE_CURVE('',#530,(#540,#553),.PCURVE_S1.);
#530 = B_SPLINE_CURVE_WITH_KNOTS('',8,(#531,#532,#533,#534,#535,#536,
    #537,#538,#539),.UNSPECIFIED.,.F.,.F.,(9,9),(2.,3.),
  .PIECEWISE_BEZIER_KNOTS.);
#531 = CARTESIAN_POINT('',(20.,1.33226762955E-14,37.1));
#532 = CARTESIAN_POINT('',(20.,1.963495391239,37.1));
#533 = CARTESIAN_POINT('',(19.779696238461,3.926990782478,37.1));
#534 = CARTESIAN_POINT('',(19.339089286908,5.861648647411,37.1));
#535 = CARTESIAN_POINT('',(18.682707373784,7.738630776069,37.1));
#536 = CARTESIAN_POINT('',(17.819612684262,9.529989669227,37.1));
#537 = CARTESIAN_POINT('',(16.763159151973,11.209555528079,37.1));
#538 = CARTESIAN_POINT('',(15.530536541905,12.753734705556,37.1));
#539 = CARTESIAN_POINT('',(14.142135623731,14.142135623731,37.1));
#540 = PCURVE('',#164,#541);
#541 = DEFINITIONAL_REPRESENTATION('',(#542),#552);
#542 = B_SPLINE_CURVE_WITH_KNOTS('',8,(#543,#544,#545,#546,#547,#548,
    #549,#550,#551),.UNSPECIFIED.,.F.,.F.,(9,9),(2.,3.),
  .PIECEWISE_BEZIER_KNOTS.);
#543 = CARTESIAN_POINT('',(34.142135623731,-14.14213562373));
#544 = CARTESIAN_POINT('',(35.530536529705,-12.75373471775));
#545 = CARTESIAN_POINT('',(36.763159151973,-11.20955552807));
#546 = CARTESIAN_POINT('',(37.819612684262,-9.529989669228));
#547 = CARTESIAN_POINT('',(38.682707373784,-7.738630776069));
#548 = CARTESIAN_POINT('',(39.339089286908,-5.861648647411));
#549 = CARTESIAN_POINT('',(39.779696238461,-3.926990782478));
#550 = CARTESIAN_POINT('',(40.,-1.963495408494));
#551 = CARTESIAN_POINT('',(40.,-3.552713678801E-15));
#552 = ( GEOMETRIC_REPRESENTATION_CONTEXT(2) 
PARAMETRIC_REPRESENTATION_CONTEXT() REPRESENTATION_CONTEXT('2D SPACE',''
  ) );
#553 = PCURVE('',#361,#554);
#554 = DEFINITIONAL_REPRESENTATION('',(#555),#559);
#555 = LINE('',#556,#557);
#556 = CARTESIAN_POINT('',(0.,1.));
#557 = VECTOR('',#558,1.);
#558 = DIRECTION('',(1.,0.));
#559 = ( GEOMETRIC_REPRESENTATION_CONTEXT(2) 
PARAMETRIC_REPRESENTATION_CONTEXT() REPRESENTATION_CONTEXT('2D SPACE',''
  ) );
#560 = ORIENTED_EDGE('',*,*,#561,.T.);
#561 = EDGE_CURVE('',#527,#562,#564,.T.);
#562 = VERTEX_POINT('',#563);
#563 = CARTESIAN_POINT('',(-14.14213562373,14.142135623731,37.1));
#564 = SURFACE_CURVE('',#565,(#575,#588),.PCURVE_S1.);
#565 = B_SPLINE_CURVE_WITH_KNOTS('',8,(#566,#567,#568,#569,#570,#571,
    #572,#573,#574),.UNSPECIFIED.,.F.,.F.,(9,9),(3.,4.),
  .PIECEWISE_BEZIER_KNOTS.);
#566 = CARTESIAN_POINT('',(14.142135623731,14.142135623731,37.1));
#567 = CARTESIAN_POINT('',(11.365333787382,16.91893746008,37.1));
#568 = CARTESIAN_POINT('',(7.965417423793,19.072626517313,37.1));
#569 = CARTESIAN_POINT('',(4.105530299812,20.440071268743,
    37.099999999999));
#570 = CARTESIAN_POINT('',(1.7763568394E-15,20.909395170541,
    37.100000000001));
#571 = CARTESIAN_POINT('',(-4.105530299812,20.440071268743,37.1));
#572 = CARTESIAN_POINT('',(-7.965417423794,19.072626517313,37.1));
#573 = CARTESIAN_POINT('',(-11.36533378738,16.91893746008,37.1));
#574 = CARTESIAN_POINT('',(-14.14213562373,14.142135623731,37.1));
#575 = PCURVE('',#164,#576);
#576 = DEFINITIONAL_REPRESENTATION('',(#577),#587);
#577 = B_SPLINE_CURVE_WITH_KNOTS('',8,(#578,#579,#580,#581,#582,#583,
    #584,#585,#586),.UNSPECIFIED.,.F.,.F.,(9,9),(3.,4.),
  .PIECEWISE_BEZIER_KNOTS.);
#578 = CARTESIAN_POINT('',(40.,-3.552713678801E-15));
#579 = CARTESIAN_POINT('',(40.,3.926990816987));
#580 = CARTESIAN_POINT('',(39.118784220776,7.853982870085));
#581 = CARTESIAN_POINT('',(37.356361317428,11.550264686701));
#582 = CARTESIAN_POINT('',(34.785175115599,14.785175115599));
#583 = CARTESIAN_POINT('',(31.550264686701,17.356361317428));
#584 = CARTESIAN_POINT('',(27.853982870085,19.118784220776));
#585 = CARTESIAN_POINT('',(23.926990816987,20.));
#586 = CARTESIAN_POINT('',(20.,20.));
#587 = ( GEOMETRIC_REPRESENTATION_CONTEXT(2) 
PARAMETRIC_REPRESENTATION_CONTEXT() REPRESENTATION_CONTEXT('2D SPACE',''
  ) );
#588 = PCURVE('',#298,#589);
#589 = DEFINITIONAL_REPRESENTATION('',(#590),#594);
#590 = LINE('',#591,#592);
#591 = CARTESIAN_POINT('',(0.,1.));
#592 = VECTOR('',#593,1.);
#593 = DIRECTION('',(1.,0.));
#594 = ( GEOMETRIC_REPRESENTATION_CONTEXT(2) 
PARAMETRIC_REPRESENTATION_CONTEXT() REPRESENTATION_CONTEXT('2D SPACE',''
  ) );
#595 = ORIENTED_EDGE('',*,*,#596,.T.);
#596 = EDGE_CURVE('',#562,#143,#597,.T.);
#597 = SURFACE_CURVE('',#598,(#608,#621),.PCURVE_S1.);
#598 = B_SPLINE_CURVE_WITH_KNOTS('',8,(#599,#600,#601,#602,#603,#604,
    #605,#606,#607),.UNSPECIFIED.,.F.,.F.,(9,9),(4.,5.),
  .PIECEWISE_BEZIER_KNOTS.);
#599 = CARTESIAN_POINT('',(-14.14213562373,14.142135623731,37.1));
#600 = CARTESIAN_POINT('',(-16.91893746008,11.365333787382,37.1));
#601 = CARTESIAN_POINT('',(-19.07262651731,7.965417423793,
    37.099999999999));
#602 = CARTESIAN_POINT('',(-20.44007126874,4.105530299812,
    37.100000000003));
#603 = CARTESIAN_POINT('',(-20.90939517053,-4.23661106197E-13,
    37.099999999997));
#604 = CARTESIAN_POINT('',(-20.44007126874,-4.105530299811,
    37.100000000002));
#605 = CARTESIAN_POINT('',(-19.07262651731,-7.965417423794,
    37.099999999999));
#606 = CARTESIAN_POINT('',(-16.91893746008,-11.36533378738,37.1));
#607 = CARTESIAN_POINT('',(-14.14213562373,-14.14213562373,37.1));
#608 = PCURVE('',#164,#609);
#609 = DEFINITIONAL_REPRESENTATION('',(#610),#620);
#610 = B_SPLINE_CURVE_WITH_KNOTS('',8,(#611,#612,#613,#614,#615,#616,
    #617,#618,#619),.UNSPECIFIED.,.F.,.F.,(9,9),(4.,5.),
  .PIECEWISE_BEZIER_KNOTS.);
#611 = CARTESIAN_POINT('',(20.,20.));
#612 = CARTESIAN_POINT('',(16.073009183013,20.));
#613 = CARTESIAN_POINT('',(12.146017129916,19.118784220775));
#614 = CARTESIAN_POINT('',(8.449735313298,17.35636131743));
#615 = CARTESIAN_POINT('',(5.214824884403,14.785175115596));
#616 = CARTESIAN_POINT('',(2.643638682571,11.550264686702));
#617 = CARTESIAN_POINT('',(0.881215779224,7.853982870084));
#618 = CARTESIAN_POINT('',(-1.24344978758E-13,3.926990816987));
#619 = CARTESIAN_POINT('',(7.105427357601E-15,0.));
#620 = ( GEOMETRIC_REPRESENTATION_CONTEXT(2) 
PARAMETRIC_REPRESENTATION_CONTEXT() REPRESENTATION_CONTEXT('2D SPACE',''
  ) );
#621 = PCURVE('',#196,#622);
#622 = DEFINITIONAL_REPRESENTATION('',(#623),#627);
#623 = LINE('',#624,#625);
#624 = CARTESIAN_POINT('',(0.,1.));
#625 = VECTOR('',#626,1.);
#626 = DIRECTION('',(1.,0.));
#627 = ( GEOMETRIC_REPRESENTATION_CONTEXT(2) 
PARAMETRIC_REPRESENTATION_CONTEXT() REPRESENTATION_CONTEXT('2D SPACE',''
  ) );
#628 = FACE_BOUND('',#629,.T.);
#629 = EDGE_LOOP('',(#630));
#630 = ORIENTED_EDGE('',*,*,#631,.T.);
#631 = EDGE_CURVE('',#632,#632,#634,.T.);
#632 = VERTEX_POINT('',#633);
#633 = CARTESIAN_POINT('',(-7.25,-1.775737858764E-15,37.1));
#634 = SURFACE_CURVE('',#635,(#640,#651),.PCURVE_S1.);
#635 = CIRCLE('',#636,7.25);
#636 = AXIS2_PLACEMENT_3D('',#637,#638,#639);
#637 = CARTESIAN_POINT('',(5.048709793414E-29,-5.048709793414E-29,37.1)
  );
#638 = DIRECTION('',(-6.782799421514E-15,6.280369834735E-15,-1.));
#639 = DIRECTION('',(-1.,-4.259848888193E-29,6.782799421514E-15));
#640 = PCURVE('',#164,#641);
#641 = DEFINITIONAL_REPRESENTATION('',(#642),#650);
#642 = ( BOUNDED_CURVE() B_SPLINE_CURVE(2,(#643,#644,#645,#646,#647,#648
,#649),.UNSPECIFIED.,.T.,.F.) B_SPLINE_CURVE_WITH_KNOTS((1,2,2,2,2,1),(
    -2.094395102393,0.,2.094395102393,4.188790204786,6.28318530718,
8.377580409573),.UNSPECIFIED.) CURVE() GEOMETRIC_REPRESENTATION_ITEM() 
RATIONAL_B_SPLINE_CURVE((1.,0.5,1.,0.5,1.,0.5,1.)) REPRESENTATION_ITEM(
  '') );
#643 = CARTESIAN_POINT('',(14.873475836398,5.126524163602));
#644 = CARTESIAN_POINT('',(23.752876153987,14.005924481191));
#645 = CARTESIAN_POINT('',(27.002962240596,1.876438076993));
#646 = CARTESIAN_POINT('',(30.253048327205,-10.2530483272));
#647 = CARTESIAN_POINT('',(18.123561923007,-7.002962240596));
#648 = CARTESIAN_POINT('',(5.994075518809,-3.752876153987));
#649 = CARTESIAN_POINT('',(14.873475836398,5.126524163602));
#650 = ( GEOMETRIC_REPRESENTATION_CONTEXT(2) 
PARAMETRIC_REPRESENTATION_CONTEXT() REPRESENTATION_CONTEXT('2D SPACE',''
  ) );
#651 = PCURVE('',#448,#652);
#652 = DEFINITIONAL_REPRESENTATION('',(#653),#657);
#653 = LINE('',#654,#655);
#654 = CARTESIAN_POINT('',(0.,0.));
#655 = VECTOR('',#656,1.);
#656 = DIRECTION('',(1.,0.));
#657 = ( GEOMETRIC_REPRESENTATION_CONTEXT(2) 
PARAMETRIC_REPRESENTATION_CONTEXT() REPRESENTATION_CONTEXT('2D SPACE',''
  ) );
#658 = ADVANCED_FACE('',(#659),#196,.T.);
#659 = FACE_BOUND('',#660,.T.);
#660 = EDGE_LOOP('',(#661,#662,#663,#664));
#661 = ORIENTED_EDGE('',*,*,#235,.T.);
#662 = ORIENTED_EDGE('',*,*,#182,.T.);
#663 = ORIENTED_EDGE('',*,*,#596,.F.);
#664 = ORIENTED_EDGE('',*,*,#665,.F.);
#665 = EDGE_CURVE('',#236,#562,#666,.T.);
#666 = SURFACE_CURVE('',#667,(#671,#678),.PCURVE_S1.);
#667 = B_SPLINE_CURVE_WITH_KNOTS('',2,(#668,#669,#670),.UNSPECIFIED.,.F.
  ,.F.,(3,3),(0.,1.),.PIECEWISE_BEZIER_KNOTS.);
#668 = CARTESIAN_POINT('',(-32.5,32.5,0.));
#669 = CARTESIAN_POINT('',(-13.80203820042,13.802038200428,18.55));
#670 = CARTESIAN_POINT('',(-14.14213562373,14.142135623731,37.1));
#671 = PCURVE('',#196,#672);
#672 = DEFINITIONAL_REPRESENTATION('',(#673),#677);
#673 = LINE('',#674,#675);
#674 = CARTESIAN_POINT('',(4.,0.));
#675 = VECTOR('',#676,1.);
#676 = DIRECTION('',(0.,1.));
#677 = ( GEOMETRIC_REPRESENTATION_CONTEXT(2) 
PARAMETRIC_REPRESENTATION_CONTEXT() REPRESENTATION_CONTEXT('2D SPACE',''
  ) );
#678 = PCURVE('',#298,#679);
#679 = DEFINITIONAL_REPRESENTATION('',(#680),#684);
#680 = LINE('',#681,#682);
#681 = CARTESIAN_POINT('',(4.,0.));
#682 = VECTOR('',#683,1.);
#683 = DIRECTION('',(0.,1.));
#684 = ( GEOMETRIC_REPRESENTATION_CONTEXT(2) 
PARAMETRIC_REPRESENTATION_CONTEXT() REPRESENTATION_CONTEXT('2D SPACE',''
  ) );
#685 = ADVANCED_FACE('',(#686),#298,.T.);
#686 = FACE_BOUND('',#687,.T.);
#687 = EDGE_LOOP('',(#688,#689,#690,#691));
#688 = ORIENTED_EDGE('',*,*,#270,.T.);
#689 = ORIENTED_EDGE('',*,*,#665,.T.);
#690 = ORIENTED_EDGE('',*,*,#561,.F.);
#691 = ORIENTED_EDGE('',*,*,#692,.F.);
#692 = EDGE_CURVE('',#271,#527,#693,.T.);
#693 = SURFACE_CURVE('',#694,(#698,#705),.PCURVE_S1.);
#694 = B_SPLINE_CURVE_WITH_KNOTS('',2,(#695,#696,#697),.UNSPECIFIED.,.F.
  ,.F.,(3,3),(0.,1.),.PIECEWISE_BEZIER_KNOTS.);
#695 = CARTESIAN_POINT('',(32.5,32.5,0.));
#696 = CARTESIAN_POINT('',(13.802038200428,13.802038200428,18.55));
#697 = CARTESIAN_POINT('',(14.142135623731,14.142135623731,37.1));
#698 = PCURVE('',#298,#699);
#699 = DEFINITIONAL_REPRESENTATION('',(#700),#704);
#700 = LINE('',#701,#702);
#701 = CARTESIAN_POINT('',(3.,0.));
#702 = VECTOR('',#703,1.);
#703 = DIRECTION('',(0.,1.));
#704 = ( GEOMETRIC_REPRESENTATION_CONTEXT(2) 
PARAMETRIC_REPRESENTATION_CONTEXT() REPRESENTATION_CONTEXT('2D SPACE',''
  ) );
#705 = PCURVE('',#361,#706);
#706 = DEFINITIONAL_REPRESENTATION('',(#707),#711);
#707 = LINE('',#708,#709);
#708 = CARTESIAN_POINT('',(3.,0.));
#709 = VECTOR('',#710,1.);
#710 = DIRECTION('',(0.,1.));
#711 = ( GEOMETRIC_REPRESENTATION_CONTEXT(2) 
PARAMETRIC_REPRESENTATION_CONTEXT() REPRESENTATION_CONTEXT('2D SPACE',''
  ) );
#712 = ADVANCED_FACE('',(#713),#361,.T.);
#713 = FACE_BOUND('',#714,.T.);
#714 = EDGE_LOOP('',(#715,#716,#717,#718));
#715 = ORIENTED_EDGE('',*,*,#333,.T.);
#716 = ORIENTED_EDGE('',*,*,#692,.T.);
#717 = ORIENTED_EDGE('',*,*,#526,.F.);
#718 = ORIENTED_EDGE('',*,*,#464,.F.);
#719 = ADVANCED_FACE('',(#720),#448,.F.);
#720 = FACE_BOUND('',#721,.F.);
#721 = EDGE_LOOP('',(#722,#723,#744,#745));
#722 = ORIENTED_EDGE('',*,*,#431,.F.);
#723 = ORIENTED_EDGE('',*,*,#724,.F.);
#724 = EDGE_CURVE('',#632,#432,#725,.T.);
#725 = SEAM_CURVE('',#726,(#730,#737),.PCURVE_S1.);
#726 = LINE('',#727,#728);
#727 = CARTESIAN_POINT('',(-7.25,-1.775737858764E-15,37.1));
#728 = VECTOR('',#729,1.);
#729 = DIRECTION('',(-6.782799421514E-15,6.280369834735E-15,-1.));
#730 = PCURVE('',#448,#731);
#731 = DEFINITIONAL_REPRESENTATION('',(#732),#736);
#732 = LINE('',#733,#734);
#733 = CARTESIAN_POINT('',(6.28318530718,-0.));
#734 = VECTOR('',#735,1.);
#735 = DIRECTION('',(0.,1.));
#736 = ( GEOMETRIC_REPRESENTATION_CONTEXT(2) 
PARAMETRIC_REPRESENTATION_CONTEXT() REPRESENTATION_CONTEXT('2D SPACE',''
  ) );
#737 = PCURVE('',#448,#738);
#738 = DEFINITIONAL_REPRESENTATION('',(#739),#743);
#739 = LINE('',#740,#741);
#740 = CARTESIAN_POINT('',(0.,-0.));
#741 = VECTOR('',#742,1.);
#742 = DIRECTION('',(0.,1.));
#743 = ( GEOMETRIC_REPRESENTATION_CONTEXT(2) 
PARAMETRIC_REPRESENTATION_CONTEXT() REPRESENTATION_CONTEXT('2D SPACE',''
  ) );
#744 = ORIENTED_EDGE('',*,*,#631,.T.);
#745 = ORIENTED_EDGE('',*,*,#724,.T.);
#746 = ( GEOMETRIC_REPRESENTATION_CONTEXT(3) 
GLOBAL_UNCERTAINTY_ASSIGNED_CONTEXT((#750)) GLOBAL_UNIT_ASSIGNED_CONTEXT
((#747,#748,#749)) REPRESENTATION_CONTEXT('Context #1',
  '3D Context with UNIT and UNCERTAINTY') );
#747 = ( LENGTH_UNIT() NAMED_UNIT(*) SI_UNIT(.MILLI.,.METRE.) );
#748 = ( NAMED_UNIT(*) PLANE_ANGLE_UNIT() SI_UNIT($,.RADIAN.) );
#749 = ( NAMED_UNIT(*) SI_UNIT($,.STERADIAN.) SOLID_ANGLE_UNIT() );
#750 = UNCERTAINTY_MEASURE_WITH_UNIT(LENGTH_MEASURE(1.E-07),#747,
  'distance_accuracy_value','confusion accuracy');
#751 = PRODUCT_RELATED_PRODUCT_CATEGORY('part',$,(#7));
ENDSEC;
END-ISO-10303-21;
