ISO-10303-21;
HEADER;
FILE_DESCRIPTION(('Open CASCADE Model'),'2;1');
FILE_NAME('Open CASCADE Shape Model','2026-06-10T00:30:27',('Author'),(
    'Open CASCADE'),'Open CASCADE STEP processor 7.8','Open CASCADE 7.8'
  ,'Unknown');
FILE_SCHEMA(('AUTOMOTIVE_DESIGN { 1 0 10303 214 1 1 1 1 }'));
ENDSEC;
DATA;
#1 = APPLICATION_PROTOCOL_DEFINITION('international standard',
  'automotive_design',2000,#2);
#2 = APPLICATION_CONTEXT(
  'core data for automotive mechanical design processes');
#3 = SHAPE_DEFINITION_REPRESENTATION(#4,#10);
#4 = PRODUCT_DEFINITION_SHAPE('','',#5);
#5 = PRODUCT_DEFINITION('design','',#6,#9);
#6 = PRODUCT_DEFINITION_FORMATION('','',#7);
#7 = PRODUCT('Open CASCADE STEP translator 7.8 25',
  'Open CASCADE STEP translator 7.8 25','',(#8));
#8 = PRODUCT_CONTEXT('',#2,'mechanical');
#9 = PRODUCT_DEFINITION_CONTEXT('part definition',#2,'design');
#10 = ADVANCED_BREP_SHAPE_REPRESENTATION('',(#11,#15),#746);
#11 = AXIS2_PLACEMENT_3D('',#12,#13,#14);
#12 = CARTESIAN_POINT('',(0.,0.,0.));
#13 = DIRECTION('',(0.,0.,1.));
#14 = DIRECTION('',(1.,0.,-0.));
#15 = MANIFOLD_SOLID_BREP('',#16);
#16 = CLOSED_SHELL('',(#17,#230,#459,#520,#658,#685,#712,#719));
#17 = ADVANCED_FACE('',(#18),#38,.T.);
#18 = FACE_BOUND('',#19,.T.);
#19 = EDGE_LOOP('',(#20,#90,#141,#181));
#20 = ORIENTED_EDGE('',*,*,#21,.T.);
#21 = EDGE_CURVE('',#22,#24,#26,.T.);
#22 = VERTEX_POINT('',#23);
#23 = CARTESIAN_POINT('',(-20.,-20.,0.));
#24 = VERTEX_POINT('',#25);
#25 = CARTESIAN_POINT('',(20.,-20.,0.));
#26 = SURFACE_CURVE('',#27,(#37,#72),.PCURVE_S1.);
#27 = B_SPLINE_CURVE_WITH_KNOTS('',8,(#28,#29,#30,#31,#32,#33,#34,#35,
    #36),.UNSPECIFIED.,.F.,.F.,(9,9),(0.,1.),.PIECEWISE_BEZIER_KNOTS.);
#28 = CARTESIAN_POINT('',(-20.,-20.,0.));
#29 = CARTESIAN_POINT('',(-15.,-20.,0.));
#30 = CARTESIAN_POINT('',(-10.,-20.,0.));
#31 = CARTESIAN_POINT('',(-5.,-20.,0.));
#32 = CARTESIAN_POINT('',(1.110223024625E-16,-20.,0.));
#33 = CARTESIAN_POINT('',(5.,-20.,0.));
#34 = CARTESIAN_POINT('',(10.,-20.,0.));
#35 = CARTESIAN_POINT('',(15.,-20.,0.));
#36 = CARTESIAN_POINT('',(20.,-20.,0.));
#37 = PCURVE('',#38,#66);
#38 = B_SPLINE_SURFACE_WITH_KNOTS('',8,2,(
    (#39,#40,#41)
    ,(#42,#43,#44)
    ,(#45,#46,#47)
    ,(#48,#49,#50)
    ,(#51,#52,#53)
    ,(#54,#55,#56)
    ,(#57,#58,#59)
    ,(#60,#61,#62)
    ,(#63,#64,#65
    )),.UNSPECIFIED.,.F.,.F.,.F.,(9,9),(3,3),(0.,1.),(0.,1.),
  .PIECEWISE_BEZIER_KNOTS.);
#39 = CARTESIAN_POINT('',(-20.,-20.,0.));
#40 = CARTESIAN_POINT('',(-9.516147160749,-9.516147160749,14.7));
#41 = CARTESIAN_POINT('',(-10.74802307403,-10.74802307403,29.4));
#42 = CARTESIAN_POINT('',(-15.,-20.,0.));
#43 = CARTESIAN_POINT('',(-8.184160626587,-13.34813369491,14.7));
#44 = CARTESIAN_POINT('',(-8.63765367841,-12.85839246966,29.4));
#45 = CARTESIAN_POINT('',(-10.,-20.,0.));
#46 = CARTESIAN_POINT('',(-5.992276044835,-16.32022459389,14.7));
#47 = CARTESIAN_POINT('',(-6.053717242083,-14.49519615315,29.4));
#48 = CARTESIAN_POINT('',(-5.,-20.,0.));
#49 = CARTESIAN_POINT('',(-3.16563181374,-18.20729835086,14.7));
#50 = CARTESIAN_POINT('',(-3.120203027857,-15.53445416424,29.4));
#51 = CARTESIAN_POINT('',(1.110223024625E-16,-20.,0.));
#52 = CARTESIAN_POINT('',(7.93809462607E-15,-18.85496533534,14.7));
#53 = CARTESIAN_POINT('',(-1.15463194561E-13,-15.89114032961,29.4));
#54 = CARTESIAN_POINT('',(5.,-20.,0.));
#55 = CARTESIAN_POINT('',(3.16563181374,-18.20729835086,14.7));
#56 = CARTESIAN_POINT('',(3.120203027857,-15.53445416424,29.4));
#57 = CARTESIAN_POINT('',(10.,-20.,0.));
#58 = CARTESIAN_POINT('',(5.992276044835,-16.32022459389,14.7));
#59 = CARTESIAN_POINT('',(6.053717242083,-14.49519615315,29.4));
#60 = CARTESIAN_POINT('',(15.,-20.,0.));
#61 = CARTESIAN_POINT('',(8.184160626587,-13.34813369491,14.7));
#62 = CARTESIAN_POINT('',(8.63765367841,-12.85839246966,29.4));
#63 = CARTESIAN_POINT('',(20.,-20.,0.));
#64 = CARTESIAN_POINT('',(9.516147160749,-9.516147160749,14.7));
#65 = CARTESIAN_POINT('',(10.748023074036,-10.74802307403,29.4));
#66 = DEFINITIONAL_REPRESENTATION('',(#67),#71);
#67 = LINE('',#68,#69);
#68 = CARTESIAN_POINT('',(0.,0.));
#69 = VECTOR('',#70,1.);
#70 = DIRECTION('',(1.,0.));
#71 = ( GEOMETRIC_REPRESENTATION_CONTEXT(2) 
PARAMETRIC_REPRESENTATION_CONTEXT() REPRESENTATION_CONTEXT('2D SPACE',''
  ) );
#72 = PCURVE('',#73,#78);
#73 = PLANE('',#74);
#74 = AXIS2_PLACEMENT_3D('',#75,#76,#77);
#75 = CARTESIAN_POINT('',(-20.,-20.,0.));
#76 = DIRECTION('',(0.,0.,-1.));
#77 = DIRECTION('',(0.707106781187,0.707106781187,0.));
#78 = DEFINITIONAL_REPRESENTATION('',(#79),#89);
#79 = B_SPLINE_CURVE_WITH_KNOTS('',8,(#80,#81,#82,#83,#84,#85,#86,#87,
    #88),.UNSPECIFIED.,.F.,.F.,(9,9),(0.,1.),.PIECEWISE_BEZIER_KNOTS.);
#80 = CARTESIAN_POINT('',(0.,0.));
#81 = CARTESIAN_POINT('',(3.535533905933,3.535533905933));
#82 = CARTESIAN_POINT('',(7.071067811865,7.071067811865));
#83 = CARTESIAN_POINT('',(10.606601717798,10.606601717798));
#84 = CARTESIAN_POINT('',(14.142135623731,14.142135623731));
#85 = CARTESIAN_POINT('',(17.677669529664,17.677669529664));
#86 = CARTESIAN_POINT('',(21.213203435596,21.213203435596));
#87 = CARTESIAN_POINT('',(24.748737341529,24.748737341529));
#88 = CARTESIAN_POINT('',(28.284271247462,28.284271247462));
#89 = ( GEOMETRIC_REPRESENTATION_CONTEXT(2) 
PARAMETRIC_REPRESENTATION_CONTEXT() REPRESENTATION_CONTEXT('2D SPACE',''
  ) );
#90 = ORIENTED_EDGE('',*,*,#91,.T.);
#91 = EDGE_CURVE('',#24,#92,#94,.T.);
#92 = VERTEX_POINT('',#93);
#93 = CARTESIAN_POINT('',(10.748023074036,-10.74802307403,29.4));
#94 = SURFACE_CURVE('',#95,(#99,#106),.PCURVE_S1.);
#95 = B_SPLINE_CURVE_WITH_KNOTS('',2,(#96,#97,#98),.UNSPECIFIED.,.F.,.F.
  ,(3,3),(0.,1.),.PIECEWISE_BEZIER_KNOTS.);
#96 = CARTESIAN_POINT('',(20.,-20.,0.));
#97 = CARTESIAN_POINT('',(9.516147160749,-9.516147160749,14.7));
#98 = CARTESIAN_POINT('',(10.748023074036,-10.74802307403,29.4));
#99 = PCURVE('',#38,#100);
#100 = DEFINITIONAL_REPRESENTATION('',(#101),#105);
#101 = LINE('',#102,#103);
#102 = CARTESIAN_POINT('',(1.,0.));
#103 = VECTOR('',#104,1.);
#104 = DIRECTION('',(0.,1.));
#105 = ( GEOMETRIC_REPRESENTATION_CONTEXT(2) 
PARAMETRIC_REPRESENTATION_CONTEXT() REPRESENTATION_CONTEXT('2D SPACE',''
  ) );
#106 = PCURVE('',#107,#135);
#107 = B_SPLINE_SURFACE_WITH_KNOTS('',8,2,(
    (#108,#109,#110)
    ,(#111,#112,#113)
    ,(#114,#115,#116)
    ,(#117,#118,#119)
    ,(#120,#121,#122)
    ,(#123,#124,#125)
    ,(#126,#127,#128)
    ,(#129,#130,#131)
    ,(#132,#133,#134
    )),.UNSPECIFIED.,.F.,.F.,.F.,(9,9),(3,3),(1.,2.),(0.,1.),
  .PIECEWISE_BEZIER_KNOTS.);
#108 = CARTESIAN_POINT('',(20.,-20.,0.));
#109 = CARTESIAN_POINT('',(9.516147160749,-9.516147160749,14.7));
#110 = CARTESIAN_POINT('',(10.748023074036,-10.74802307403,29.4));
#111 = CARTESIAN_POINT('',(20.,-17.5,0.));
#112 = CARTESIAN_POINT('',(11.432140427829,-8.850153893668,14.7));
#113 = CARTESIAN_POINT('',(11.803207771848,-9.692838376223,29.4));
#114 = CARTESIAN_POINT('',(20.,-15.,0.));
#115 = CARTESIAN_POINT('',(13.133159629723,-7.969186628749,14.7));
#116 = CARTESIAN_POINT('',(12.7400009555,-8.51926220134,29.4));
#117 = CARTESIAN_POINT('',(20.,-12.5,0.));
#118 = CARTESIAN_POINT('',(14.591065504282,-6.901385743534,14.7));
#119 = CARTESIAN_POINT('',(13.542905640039,-7.242792148613,29.4));
#120 = CARTESIAN_POINT('',(20.,-10.,0.));
#121 = CARTESIAN_POINT('',(15.782136175822,-5.679310470975,14.7));
#122 = CARTESIAN_POINT('',(14.198857604076,-5.881359389813,29.4));
#123 = CARTESIAN_POINT('',(20.,-7.5,0.));
#124 = CARTESIAN_POINT('',(16.687943215933,-4.339075133427,14.7));
#125 = CARTESIAN_POINT('',(14.69770785805,-4.454852972032,29.4));
#126 = CARTESIAN_POINT('',(20.,-5.,0.));
#127 = CARTESIAN_POINT('',(17.295980809076,-2.91924727982,14.7));
#128 = CARTESIAN_POINT('',(15.03256914123,-2.984512994683,29.4));
#129 = CARTESIAN_POINT('',(20.,-2.5,0.));
#130 = CARTESIAN_POINT('',(17.6,-1.45962363991,14.7));
#131 = CARTESIAN_POINT('',(15.2,-1.492256497342,29.4));
#132 = CARTESIAN_POINT('',(20.,0.,0.));
#133 = CARTESIAN_POINT('',(17.6,2.720046410332E-15,14.7));
#134 = CARTESIAN_POINT('',(15.2,4.329869796038E-15,29.4));
#135 = DEFINITIONAL_REPRESENTATION('',(#136),#140);
#136 = LINE('',#137,#138);
#137 = CARTESIAN_POINT('',(1.,0.));
#138 = VECTOR('',#139,1.);
#139 = DIRECTION('',(0.,1.));
#140 = ( GEOMETRIC_REPRESENTATION_CONTEXT(2) 
PARAMETRIC_REPRESENTATION_CONTEXT() REPRESENTATION_CONTEXT('2D SPACE',''
  ) );
#141 = ORIENTED_EDGE('',*,*,#142,.F.);
#142 = EDGE_CURVE('',#143,#92,#145,.T.);
#143 = VERTEX_POINT('',#144);
#144 = CARTESIAN_POINT('',(-10.74802307403,-10.74802307403,29.4));
#145 = SURFACE_CURVE('',#146,(#156,#163),.PCURVE_S1.);
#146 = B_SPLINE_CURVE_WITH_KNOTS('',8,(#147,#148,#149,#150,#151,#152,
    #153,#154,#155),.UNSPECIFIED.,.F.,.F.,(9,9),(0.,1.),
  .PIECEWISE_BEZIER_KNOTS.);
#147 = CARTESIAN_POINT('',(-10.74802307403,-10.74802307403,29.4));
#148 = CARTESIAN_POINT('',(-8.63765367841,-12.85839246966,29.4));
#149 = CARTESIAN_POINT('',(-6.053717242083,-14.49519615315,29.4));
#150 = CARTESIAN_POINT('',(-3.120203027857,-15.53445416424,29.4));
#151 = CARTESIAN_POINT('',(-1.15463194561E-13,-15.89114032961,29.4));
#152 = CARTESIAN_POINT('',(3.120203027857,-15.53445416424,29.4));
#153 = CARTESIAN_POINT('',(6.053717242083,-14.49519615315,29.4));
#154 = CARTESIAN_POINT('',(8.63765367841,-12.85839246966,29.4));
#155 = CARTESIAN_POINT('',(10.748023074036,-10.74802307403,29.4));
#156 = PCURVE('',#38,#157);
#157 = DEFINITIONAL_REPRESENTATION('',(#158),#162);
#158 = LINE('',#159,#160);
#159 = CARTESIAN_POINT('',(0.,1.));
#160 = VECTOR('',#161,1.);
#161 = DIRECTION('',(1.,0.));
#162 = ( GEOMETRIC_REPRESENTATION_CONTEXT(2) 
PARAMETRIC_REPRESENTATION_CONTEXT() REPRESENTATION_CONTEXT('2D SPACE',''
  ) );
#163 = PCURVE('',#164,#169);
#164 = PLANE('',#165);
#165 = AXIS2_PLACEMENT_3D('',#166,#167,#168);
#166 = CARTESIAN_POINT('',(-10.74802307403,-10.74802307403,29.4));
#167 = DIRECTION('',(-3.305457807755E-16,8.263644519388E-16,1.));
#168 = DIRECTION('',(0.707106781187,0.707106781187,-3.505967446185E-16)
  );
#169 = DEFINITIONAL_REPRESENTATION('',(#170),#180);
#170 = B_SPLINE_CURVE_WITH_KNOTS('',8,(#171,#172,#173,#174,#175,#176,
    #177,#178,#179),.UNSPECIFIED.,.F.,.F.,(9,9),(0.,1.),
  .PIECEWISE_BEZIER_KNOTS.);
#171 = CARTESIAN_POINT('',(0.,0.));
#172 = CARTESIAN_POINT('',(5.506706202141E-14,-2.98451302091));
#173 = CARTESIAN_POINT('',(0.66972399221,-5.969026981264));
#174 = CARTESIAN_POINT('',(2.009165398755,-8.778201161893));
#175 = CARTESIAN_POINT('',(3.963266912145,-11.23673308785));
#176 = CARTESIAN_POINT('',(6.421798838107,-13.19083460124));
#177 = CARTESIAN_POINT('',(9.230973018736,-14.53027600779));
#178 = CARTESIAN_POINT('',(12.21548697909,-15.2));
#179 = CARTESIAN_POINT('',(15.2,-15.2));
#180 = ( GEOMETRIC_REPRESENTATION_CONTEXT(2) 
PARAMETRIC_REPRESENTATION_CONTEXT() REPRESENTATION_CONTEXT('2D SPACE',''
  ) );
#181 = ORIENTED_EDGE('',*,*,#182,.F.);
#182 = EDGE_CURVE('',#22,#143,#183,.T.);
#183 = SURFACE_CURVE('',#184,(#188,#195),.PCURVE_S1.);
#184 = B_SPLINE_CURVE_WITH_KNOTS('',2,(#185,#186,#187),.UNSPECIFIED.,.F.
  ,.F.,(3,3),(0.,1.),.PIECEWISE_BEZIER_KNOTS.);
#185 = CARTESIAN_POINT('',(-20.,-20.,0.));
#186 = CARTESIAN_POINT('',(-9.516147160749,-9.516147160749,14.7));
#187 = CARTESIAN_POINT('',(-10.74802307403,-10.74802307403,29.4));
#188 = PCURVE('',#38,#189);
#189 = DEFINITIONAL_REPRESENTATION('',(#190),#194);
#190 = LINE('',#191,#192);
#191 = CARTESIAN_POINT('',(0.,0.));
#192 = VECTOR('',#193,1.);
#193 = DIRECTION('',(0.,1.));
#194 = ( GEOMETRIC_REPRESENTATION_CONTEXT(2) 
PARAMETRIC_REPRESENTATION_CONTEXT() REPRESENTATION_CONTEXT('2D SPACE',''
  ) );
#195 = PCURVE('',#196,#224);
#196 = B_SPLINE_SURFACE_WITH_KNOTS('',8,2,(
    (#197,#198,#199)
    ,(#200,#201,#202)
    ,(#203,#204,#205)
    ,(#206,#207,#208)
    ,(#209,#210,#211)
    ,(#212,#213,#214)
    ,(#215,#216,#217)
    ,(#218,#219,#220)
    ,(#221,#222,#223
    )),.UNSPECIFIED.,.F.,.F.,.F.,(9,9),(3,3),(4.,5.),(0.,1.),
  .PIECEWISE_BEZIER_KNOTS.);
#197 = CARTESIAN_POINT('',(-20.,20.,0.));
#198 = CARTESIAN_POINT('',(-9.516147160749,9.516147160749,14.7));
#199 = CARTESIAN_POINT('',(-10.74802307403,10.748023074036,29.4));
#200 = CARTESIAN_POINT('',(-20.,15.,0.));
#201 = CARTESIAN_POINT('',(-13.34813369491,8.184160626587,14.7));
#202 = CARTESIAN_POINT('',(-12.85839246966,8.63765367841,29.4));
#203 = CARTESIAN_POINT('',(-20.,10.,0.));
#204 = CARTESIAN_POINT('',(-16.32022459389,5.992276044835,14.7));
#205 = CARTESIAN_POINT('',(-14.49519615315,6.053717242083,
    29.399999999999));
#206 = CARTESIAN_POINT('',(-20.,5.,0.));
#207 = CARTESIAN_POINT('',(-18.20729835086,3.165631813741,
    14.700000000001));
#208 = CARTESIAN_POINT('',(-15.53445416424,3.120203027857,
    29.400000000001));
#209 = CARTESIAN_POINT('',(-20.,1.110223024625E-16,0.));
#210 = CARTESIAN_POINT('',(-18.85496533534,-6.755151993332E-13,
    14.699999999999));
#211 = CARTESIAN_POINT('',(-15.8911403296,-2.335909243811E-13,
    29.399999999999));
#212 = CARTESIAN_POINT('',(-20.,-5.,0.));
#213 = CARTESIAN_POINT('',(-18.20729835086,-3.16563181374,14.7));
#214 = CARTESIAN_POINT('',(-15.53445416424,-3.120203027857,
    29.400000000001));
#215 = CARTESIAN_POINT('',(-20.,-10.,0.));
#216 = CARTESIAN_POINT('',(-16.32022459389,-5.992276044835,14.7));
#217 = CARTESIAN_POINT('',(-14.49519615315,-6.053717242083,29.4));
#218 = CARTESIAN_POINT('',(-20.,-15.,0.));
#219 = CARTESIAN_POINT('',(-13.34813369491,-8.184160626587,14.7));
#220 = CARTESIAN_POINT('',(-12.85839246966,-8.63765367841,29.4));
#221 = CARTESIAN_POINT('',(-20.,-20.,0.));
#222 = CARTESIAN_POINT('',(-9.516147160749,-9.516147160749,14.7));
#223 = CARTESIAN_POINT('',(-10.74802307403,-10.74802307403,29.4));
#224 = DEFINITIONAL_REPRESENTATION('',(#225),#229);
#225 = LINE('',#226,#227);
#226 = CARTESIAN_POINT('',(5.,0.));
#227 = VECTOR('',#228,1.);
#228 = DIRECTION('',(0.,1.));
#229 = ( GEOMETRIC_REPRESENTATION_CONTEXT(2) 
PARAMETRIC_REPRESENTATION_CONTEXT() REPRESENTATION_CONTEXT('2D SPACE',''
  ) );
#230 = ADVANCED_FACE('',(#231,#428),#73,.T.);
#231 = FACE_BOUND('',#232,.T.);
#232 = EDGE_LOOP('',(#233,#234,#269,#332,#395));
#233 = ORIENTED_EDGE('',*,*,#21,.F.);
#234 = ORIENTED_EDGE('',*,*,#235,.F.);
#235 = EDGE_CURVE('',#236,#22,#238,.T.);
#236 = VERTEX_POINT('',#237);
#237 = CARTESIAN_POINT('',(-20.,20.,0.));
#238 = SURFACE_CURVE('',#239,(#249,#262),.PCURVE_S1.);
#239 = B_SPLINE_CURVE_WITH_KNOTS('',8,(#240,#241,#242,#243,#244,#245,
    #246,#247,#248),.UNSPECIFIED.,.F.,.F.,(9,9),(4.,5.),
  .PIECEWISE_BEZIER_KNOTS.);
#240 = CARTESIAN_POINT('',(-20.,20.,0.));
#241 = CARTESIAN_POINT('',(-20.,15.,0.));
#242 = CARTESIAN_POINT('',(-20.,10.,0.));
#243 = CARTESIAN_POINT('',(-20.,5.,0.));
#244 = CARTESIAN_POINT('',(-20.,1.110223024625E-16,0.));
#245 = CARTESIAN_POINT('',(-20.,-5.,0.));
#246 = CARTESIAN_POINT('',(-20.,-10.,0.));
#247 = CARTESIAN_POINT('',(-20.,-15.,0.));
#248 = CARTESIAN_POINT('',(-20.,-20.,0.));
#249 = PCURVE('',#73,#250);
#250 = DEFINITIONAL_REPRESENTATION('',(#251),#261);
#251 = B_SPLINE_CURVE_WITH_KNOTS('',8,(#252,#253,#254,#255,#256,#257,
    #258,#259,#260),.UNSPECIFIED.,.F.,.F.,(9,9),(4.,5.),
  .PIECEWISE_BEZIER_KNOTS.);
#252 = CARTESIAN_POINT('',(28.284271247462,-28.28427124746));
#253 = CARTESIAN_POINT('',(24.748737341529,-24.74873734152));
#254 = CARTESIAN_POINT('',(21.213203435596,-21.21320343559));
#255 = CARTESIAN_POINT('',(17.677669529664,-17.67766952966));
#256 = CARTESIAN_POINT('',(14.142135623731,-14.14213562373));
#257 = CARTESIAN_POINT('',(10.606601717798,-10.60660171779));
#258 = CARTESIAN_POINT('',(7.071067811865,-7.071067811865));
#259 = CARTESIAN_POINT('',(3.535533905933,-3.535533905933));
#260 = CARTESIAN_POINT('',(0.,0.));
#261 = ( GEOMETRIC_REPRESENTATION_CONTEXT(2) 
PARAMETRIC_REPRESENTATION_CONTEXT() REPRESENTATION_CONTEXT('2D SPACE',''
  ) );
#262 = PCURVE('',#196,#263);
#263 = DEFINITIONAL_REPRESENTATION('',(#264),#268);
#264 = LINE('',#265,#266);
#265 = CARTESIAN_POINT('',(0.,0.));
#266 = VECTOR('',#267,1.);
#267 = DIRECTION('',(1.,0.));
#268 = ( GEOMETRIC_REPRESENTATION_CONTEXT(2) 
PARAMETRIC_REPRESENTATION_CONTEXT() REPRESENTATION_CONTEXT('2D SPACE',''
  ) );
#269 = ORIENTED_EDGE('',*,*,#270,.F.);
#270 = EDGE_CURVE('',#271,#236,#273,.T.);
#271 = VERTEX_POINT('',#272);
#272 = CARTESIAN_POINT('',(20.,20.,0.));
#273 = SURFACE_CURVE('',#274,(#284,#297),.PCURVE_S1.);
#274 = B_SPLINE_CURVE_WITH_KNOTS('',8,(#275,#276,#277,#278,#279,#280,
    #281,#282,#283),.UNSPECIFIED.,.F.,.F.,(9,9),(3.,4.),
  .PIECEWISE_BEZIER_KNOTS.);
#275 = CARTESIAN_POINT('',(20.,20.,0.));
#276 = CARTESIAN_POINT('',(15.,20.,0.));
#277 = CARTESIAN_POINT('',(10.,20.,0.));
#278 = CARTESIAN_POINT('',(5.,20.,0.));
#279 = CARTESIAN_POINT('',(1.110223024625E-16,20.,0.));
#280 = CARTESIAN_POINT('',(-5.,20.,0.));
#281 = CARTESIAN_POINT('',(-10.,20.,0.));
#282 = CARTESIAN_POINT('',(-15.,20.,0.));
#283 = CARTESIAN_POINT('',(-20.,20.,0.));
#284 = PCURVE('',#73,#285);
#285 = DEFINITIONAL_REPRESENTATION('',(#286),#296);
#286 = B_SPLINE_CURVE_WITH_KNOTS('',8,(#287,#288,#289,#290,#291,#292,
    #293,#294,#295),.UNSPECIFIED.,.F.,.F.,(9,9),(3.,4.),
  .PIECEWISE_BEZIER_KNOTS.);
#287 = CARTESIAN_POINT('',(56.568542494924,0.));
#288 = CARTESIAN_POINT('',(53.033008588991,-3.535533905933));
#289 = CARTESIAN_POINT('',(49.497474683058,-7.071067811865));
#290 = CARTESIAN_POINT('',(45.961940777126,-10.60660171779));
#291 = CARTESIAN_POINT('',(42.426406871193,-14.14213562373));
#292 = CARTESIAN_POINT('',(38.89087296526,-17.67766952966));
#293 = CARTESIAN_POINT('',(35.355339059327,-21.21320343559));
#294 = CARTESIAN_POINT('',(31.819805153395,-24.74873734152));
#295 = CARTESIAN_POINT('',(28.284271247462,-28.28427124746));
#296 = ( GEOMETRIC_REPRESENTATION_CONTEXT(2) 
PARAMETRIC_REPRESENTATION_CONTEXT() REPRESENTATION_CONTEXT('2D SPACE',''
  ) );
#297 = PCURVE('',#298,#326);
#298 = B_SPLINE_SURFACE_WITH_KNOTS('',8,2,(
    (#299,#300,#301)
    ,(#302,#303,#304)
    ,(#305,#306,#307)
    ,(#308,#309,#310)
    ,(#311,#312,#313)
    ,(#314,#315,#316)
    ,(#317,#318,#319)
    ,(#320,#321,#322)
    ,(#323,#324,#325
    )),.UNSPECIFIED.,.F.,.F.,.F.,(9,9),(3,3),(3.,4.),(0.,1.),
  .PIECEWISE_BEZIER_KNOTS.);
#299 = CARTESIAN_POINT('',(20.,20.,0.));
#300 = CARTESIAN_POINT('',(9.516147160749,9.516147160749,14.7));
#301 = CARTESIAN_POINT('',(10.748023074036,10.748023074036,29.4));
#302 = CARTESIAN_POINT('',(15.,20.,0.));
#303 = CARTESIAN_POINT('',(8.184160626587,13.34813369491,14.7));
#304 = CARTESIAN_POINT('',(8.63765367841,12.858392469661,29.4));
#305 = CARTESIAN_POINT('',(10.,20.,0.));
#306 = CARTESIAN_POINT('',(5.992276044835,16.320224593892,
    14.700000000001));
#307 = CARTESIAN_POINT('',(6.053717242083,14.495196153158,
    29.400000000001));
#308 = CARTESIAN_POINT('',(5.,20.,0.));
#309 = CARTESIAN_POINT('',(3.16563181374,18.207298350865,14.699999999999
    ));
#310 = CARTESIAN_POINT('',(3.120203027857,15.534454164245,
    29.399999999998));
#311 = CARTESIAN_POINT('',(1.110223024625E-16,20.,0.));
#312 = CARTESIAN_POINT('',(3.756439603819E-13,18.854965335346,
    14.700000000001));
#313 = CARTESIAN_POINT('',(7.283063041541E-14,15.891140329611,
    29.400000000002));
#314 = CARTESIAN_POINT('',(-5.,20.,0.));
#315 = CARTESIAN_POINT('',(-3.16563181374,18.207298350865,
    14.699999999999));
#316 = CARTESIAN_POINT('',(-3.120203027857,15.534454164245,
    29.399999999998));
#317 = CARTESIAN_POINT('',(-10.,20.,0.));
#318 = CARTESIAN_POINT('',(-5.992276044835,16.320224593892,14.7));
#319 = CARTESIAN_POINT('',(-6.053717242083,14.495196153158,
    29.400000000001));
#320 = CARTESIAN_POINT('',(-15.,20.,0.));
#321 = CARTESIAN_POINT('',(-8.184160626587,13.34813369491,14.7));
#322 = CARTESIAN_POINT('',(-8.63765367841,12.858392469661,29.4));
#323 = CARTESIAN_POINT('',(-20.,20.,0.));
#324 = CARTESIAN_POINT('',(-9.516147160749,9.516147160749,14.7));
#325 = CARTESIAN_POINT('',(-10.74802307403,10.748023074036,29.4));
#326 = DEFINITIONAL_REPRESENTATION('',(#327),#331);
#327 = LINE('',#328,#329);
#328 = CARTESIAN_POINT('',(0.,0.));
#329 = VECTOR('',#330,1.);
#330 = DIRECTION('',(1.,0.));
#331 = ( GEOMETRIC_REPRESENTATION_CONTEXT(2) 
PARAMETRIC_REPRESENTATION_CONTEXT() REPRESENTATION_CONTEXT('2D SPACE',''
  ) );
#332 = ORIENTED_EDGE('',*,*,#333,.F.);
#333 = EDGE_CURVE('',#334,#271,#336,.T.);
#334 = VERTEX_POINT('',#335);
#335 = CARTESIAN_POINT('',(20.,0.,0.));
#336 = SURFACE_CURVE('',#337,(#347,#360),.PCURVE_S1.);
#337 = B_SPLINE_CURVE_WITH_KNOTS('',8,(#338,#339,#340,#341,#342,#343,
    #344,#345,#346),.UNSPECIFIED.,.F.,.F.,(9,9),(2.,3.),
  .PIECEWISE_BEZIER_KNOTS.);
#338 = CARTESIAN_POINT('',(20.,0.,0.));
#339 = CARTESIAN_POINT('',(20.,2.5,0.));
#340 = CARTESIAN_POINT('',(20.,5.,0.));
#341 = CARTESIAN_POINT('',(20.,7.5,0.));
#342 = CARTESIAN_POINT('',(20.,10.,0.));
#343 = CARTESIAN_POINT('',(20.,12.5,0.));
#344 = CARTESIAN_POINT('',(20.,15.,0.));
#345 = CARTESIAN_POINT('',(20.,17.5,0.));
#346 = CARTESIAN_POINT('',(20.,20.,0.));
#347 = PCURVE('',#73,#348);
#348 = DEFINITIONAL_REPRESENTATION('',(#349),#359);
#349 = B_SPLINE_CURVE_WITH_KNOTS('',8,(#350,#351,#352,#353,#354,#355,
    #356,#357,#358),.UNSPECIFIED.,.F.,.F.,(9,9),(2.,3.),
  .PIECEWISE_BEZIER_KNOTS.);
#350 = CARTESIAN_POINT('',(42.426406871193,14.142135623731));
#351 = CARTESIAN_POINT('',(44.194173824159,12.374368670765));
#352 = CARTESIAN_POINT('',(45.961940777126,10.606601717798));
#353 = CARTESIAN_POINT('',(47.729707730092,8.838834764832));
#354 = CARTESIAN_POINT('',(49.497474683058,7.071067811865));
#355 = CARTESIAN_POINT('',(51.265241636025,5.303300858899));
#356 = CARTESIAN_POINT('',(53.033008588991,3.535533905933));
#357 = CARTESIAN_POINT('',(54.800775541957,1.767766952966));
#358 = CARTESIAN_POINT('',(56.568542494924,0.));
#359 = ( GEOMETRIC_REPRESENTATION_CONTEXT(2) 
PARAMETRIC_REPRESENTATION_CONTEXT() REPRESENTATION_CONTEXT('2D SPACE',''
  ) );
#360 = PCURVE('',#361,#389);
#361 = B_SPLINE_SURFACE_WITH_KNOTS('',8,2,(
    (#362,#363,#364)
    ,(#365,#366,#367)
    ,(#368,#369,#370)
    ,(#371,#372,#373)
    ,(#374,#375,#376)
    ,(#377,#378,#379)
    ,(#380,#381,#382)
    ,(#383,#384,#385)
    ,(#386,#387,#388
    )),.UNSPECIFIED.,.F.,.F.,.F.,(9,9),(3,3),(2.,3.),(0.,1.),
  .PIECEWISE_BEZIER_KNOTS.);
#362 = CARTESIAN_POINT('',(20.,0.,0.));
#363 = CARTESIAN_POINT('',(17.6,2.720046410332E-15,14.7));
#364 = CARTESIAN_POINT('',(15.2,4.329869796038E-15,29.4));
#365 = CARTESIAN_POINT('',(20.,2.5,0.));
#366 = CARTESIAN_POINT('',(17.6,1.45962363991,14.7));
#367 = CARTESIAN_POINT('',(15.2,1.492256497342,29.4));
#368 = CARTESIAN_POINT('',(20.,5.,0.));
#369 = CARTESIAN_POINT('',(17.295980809076,2.919247279819,14.7));
#370 = CARTESIAN_POINT('',(15.03256914123,2.984512994683,29.4));
#371 = CARTESIAN_POINT('',(20.,7.5,0.));
#372 = CARTESIAN_POINT('',(16.687943215933,4.339075133427,14.7));
#373 = CARTESIAN_POINT('',(14.69770785805,4.454852972032,29.4));
#374 = CARTESIAN_POINT('',(20.,10.,0.));
#375 = CARTESIAN_POINT('',(15.782136175822,5.679310470975,14.7));
#376 = CARTESIAN_POINT('',(14.198857604076,5.881359389813,29.4));
#377 = CARTESIAN_POINT('',(20.,12.5,0.));
#378 = CARTESIAN_POINT('',(14.591065504281,6.901385743534,14.7));
#379 = CARTESIAN_POINT('',(13.542905640039,7.242792148613,29.4));
#380 = CARTESIAN_POINT('',(20.,15.,0.));
#381 = CARTESIAN_POINT('',(13.133159629723,7.969186628749,14.7));
#382 = CARTESIAN_POINT('',(12.7400009555,8.51926220134,29.4));
#383 = CARTESIAN_POINT('',(20.,17.5,0.));
#384 = CARTESIAN_POINT('',(11.432140427829,8.850153893668,14.7));
#385 = CARTESIAN_POINT('',(11.803207771848,9.692838376223,29.4));
#386 = CARTESIAN_POINT('',(20.,20.,0.));
#387 = CARTESIAN_POINT('',(9.516147160749,9.516147160749,14.7));
#388 = CARTESIAN_POINT('',(10.748023074036,10.748023074036,29.4));
#389 = DEFINITIONAL_REPRESENTATION('',(#390),#394);
#390 = LINE('',#391,#392);
#391 = CARTESIAN_POINT('',(0.,0.));
#392 = VECTOR('',#393,1.);
#393 = DIRECTION('',(1.,0.));
#394 = ( GEOMETRIC_REPRESENTATION_CONTEXT(2) 
PARAMETRIC_REPRESENTATION_CONTEXT() REPRESENTATION_CONTEXT('2D SPACE',''
  ) );
#395 = ORIENTED_EDGE('',*,*,#396,.F.);
#396 = EDGE_CURVE('',#24,#334,#397,.T.);
#397 = SURFACE_CURVE('',#398,(#408,#421),.PCURVE_S1.);
#398 = B_SPLINE_CURVE_WITH_KNOTS('',8,(#399,#400,#401,#402,#403,#404,
    #405,#406,#407),.UNSPECIFIED.,.F.,.F.,(9,9),(1.,2.),
  .PIECEWISE_BEZIER_KNOTS.);
#399 = CARTESIAN_POINT('',(20.,-20.,0.));
#400 = CARTESIAN_POINT('',(20.,-17.5,0.));
#401 = CARTESIAN_POINT('',(20.,-15.,0.));
#402 = CARTESIAN_POINT('',(20.,-12.5,0.));
#403 = CARTESIAN_POINT('',(20.,-10.,0.));
#404 = CARTESIAN_POINT('',(20.,-7.5,0.));
#405 = CARTESIAN_POINT('',(20.,-5.,0.));
#406 = CARTESIAN_POINT('',(20.,-2.5,0.));
#407 = CARTESIAN_POINT('',(20.,0.,0.));
#408 = PCURVE('',#73,#409);
#409 = DEFINITIONAL_REPRESENTATION('',(#410),#420);
#410 = B_SPLINE_CURVE_WITH_KNOTS('',8,(#411,#412,#413,#414,#415,#416,
    #417,#418,#419),.UNSPECIFIED.,.F.,.F.,(9,9),(1.,2.),
  .PIECEWISE_BEZIER_KNOTS.);
#411 = CARTESIAN_POINT('',(28.284271247462,28.284271247462));
#412 = CARTESIAN_POINT('',(30.052038200428,26.516504294496));
#413 = CARTESIAN_POINT('',(31.819805153395,24.748737341529));
#414 = CARTESIAN_POINT('',(33.587572106361,22.980970388563));
#415 = CARTESIAN_POINT('',(35.355339059327,21.213203435596));
#416 = CARTESIAN_POINT('',(37.123106012294,19.44543648263));
#417 = CARTESIAN_POINT('',(38.89087296526,17.677669529664));
#418 = CARTESIAN_POINT('',(40.658639918226,15.909902576697));
#419 = CARTESIAN_POINT('',(42.426406871193,14.142135623731));
#420 = ( GEOMETRIC_REPRESENTATION_CONTEXT(2) 
PARAMETRIC_REPRESENTATION_CONTEXT() REPRESENTATION_CONTEXT('2D SPACE',''
  ) );
#421 = PCURVE('',#107,#422);
#422 = DEFINITIONAL_REPRESENTATION('',(#423),#427);
#423 = LINE('',#424,#425);
#424 = CARTESIAN_POINT('',(0.,0.));
#425 = VECTOR('',#426,1.);
#426 = DIRECTION('',(1.,0.));
#427 = ( GEOMETRIC_REPRESENTATION_CONTEXT(2) 
PARAMETRIC_REPRESENTATION_CONTEXT() REPRESENTATION_CONTEXT('2D SPACE',''
  ) );
#428 = FACE_BOUND('',#429,.T.);
#429 = EDGE_LOOP('',(#430));
#430 = ORIENTED_EDGE('',*,*,#431,.F.);
#431 = EDGE_CURVE('',#432,#432,#434,.T.);
#432 = VERTEX_POINT('',#433);
#433 = CARTESIAN_POINT('',(-6.6,-2.591164866188E-14,0.));
#434 = SURFACE_CURVE('',#435,(#440,#447),.PCURVE_S1.);
#435 = CIRCLE('',#436,6.6);
#436 = AXIS2_PLACEMENT_3D('',#437,#438,#439);
#437 = CARTESIAN_POINT('',(9.718045954801E-15,-2.4295114887E-14,0.));
#438 = DIRECTION('',(3.305457807755E-16,-8.263644519388E-16,-1.));
#439 = DIRECTION('',(-1.,-2.731512829713E-31,-3.305457807755E-16));
#440 = PCURVE('',#73,#441);
#441 = DEFINITIONAL_REPRESENTATION('',(#442),#446);
#442 = CIRCLE('',#443,6.6);
#443 = AXIS2_PLACEMENT_2D('',#444,#445);
#444 = CARTESIAN_POINT('',(28.284271247462,2.48689957516E-14));
#445 = DIRECTION('',(-0.707106781187,-0.707106781187));
#446 = ( GEOMETRIC_REPRESENTATION_CONTEXT(2) 
PARAMETRIC_REPRESENTATION_CONTEXT() REPRESENTATION_CONTEXT('2D SPACE',''
  ) );
#447 = PCURVE('',#448,#453);
#448 = CYLINDRICAL_SURFACE('',#449,6.6);
#449 = AXIS2_PLACEMENT_3D('',#450,#451,#452);
#450 = CARTESIAN_POINT('',(-3.155443620884E-30,9.466330862652E-30,29.4)
  );
#451 = DIRECTION('',(3.305457807755E-16,-8.263644519388E-16,-1.));
#452 = DIRECTION('',(-1.,-2.731512829713E-31,-3.305457807755E-16));
#453 = DEFINITIONAL_REPRESENTATION('',(#454),#458);
#454 = LINE('',#455,#456);
#455 = CARTESIAN_POINT('',(0.,29.4));
#456 = VECTOR('',#457,1.);
#457 = DIRECTION('',(1.,0.));
#458 = ( GEOMETRIC_REPRESENTATION_CONTEXT(2) 
PARAMETRIC_REPRESENTATION_CONTEXT() REPRESENTATION_CONTEXT('2D SPACE',''
  ) );
#459 = ADVANCED_FACE('',(#460),#107,.T.);
#460 = FACE_BOUND('',#461,.T.);
#461 = EDGE_LOOP('',(#462,#463,#486,#519));
#462 = ORIENTED_EDGE('',*,*,#396,.T.);
#463 = ORIENTED_EDGE('',*,*,#464,.T.);
#464 = EDGE_CURVE('',#334,#465,#467,.T.);
#465 = VERTEX_POINT('',#466);
#466 = CARTESIAN_POINT('',(15.2,0.,29.4));
#467 = SURFACE_CURVE('',#468,(#472,#479),.PCURVE_S1.);
#468 = B_SPLINE_CURVE_WITH_KNOTS('',2,(#469,#470,#471),.UNSPECIFIED.,.F.
  ,.F.,(3,3),(0.,1.),.PIECEWISE_BEZIER_KNOTS.);
#469 = CARTESIAN_POINT('',(20.,0.,0.));
#470 = CARTESIAN_POINT('',(17.6,2.720046410332E-15,14.7));
#471 = CARTESIAN_POINT('',(15.2,4.329869796038E-15,29.4));
#472 = PCURVE('',#107,#473);
#473 = DEFINITIONAL_REPRESENTATION('',(#474),#478);
#474 = LINE('',#475,#476);
#475 = CARTESIAN_POINT('',(2.,0.));
#476 = VECTOR('',#477,1.);
#477 = DIRECTION('',(0.,1.));
#478 = ( GEOMETRIC_REPRESENTATION_CONTEXT(2) 
PARAMETRIC_REPRESENTATION_CONTEXT() REPRESENTATION_CONTEXT('2D SPACE',''
  ) );
#479 = PCURVE('',#361,#480);
#480 = DEFINITIONAL_REPRESENTATION('',(#481),#485);
#481 = LINE('',#482,#483);
#482 = CARTESIAN_POINT('',(2.,0.));
#483 = VECTOR('',#484,1.);
#484 = DIRECTION('',(0.,1.));
#485 = ( GEOMETRIC_REPRESENTATION_CONTEXT(2) 
PARAMETRIC_REPRESENTATION_CONTEXT() REPRESENTATION_CONTEXT('2D SPACE',''
  ) );
#486 = ORIENTED_EDGE('',*,*,#487,.F.);
#487 = EDGE_CURVE('',#92,#465,#488,.T.);
#488 = SURFACE_CURVE('',#489,(#499,#506),.PCURVE_S1.);
#489 = B_SPLINE_CURVE_WITH_KNOTS('',8,(#490,#491,#492,#493,#494,#495,
    #496,#497,#498),.UNSPECIFIED.,.F.,.F.,(9,9),(1.,2.),
  .PIECEWISE_BEZIER_KNOTS.);
#490 = CARTESIAN_POINT('',(10.748023074036,-10.74802307403,29.4));
#491 = CARTESIAN_POINT('',(11.803207771848,-9.692838376223,29.4));
#492 = CARTESIAN_POINT('',(12.7400009555,-8.51926220134,29.4));
#493 = CARTESIAN_POINT('',(13.542905640039,-7.242792148613,29.4));
#494 = CARTESIAN_POINT('',(14.198857604076,-5.881359389813,29.4));
#495 = CARTESIAN_POINT('',(14.69770785805,-4.454852972032,29.4));
#496 = CARTESIAN_POINT('',(15.03256914123,-2.984512994683,29.4));
#497 = CARTESIAN_POINT('',(15.2,-1.492256497342,29.4));
#498 = CARTESIAN_POINT('',(15.2,4.329869796038E-15,29.4));
#499 = PCURVE('',#107,#500);
#500 = DEFINITIONAL_REPRESENTATION('',(#501),#505);
#501 = LINE('',#502,#503);
#502 = CARTESIAN_POINT('',(0.,1.));
#503 = VECTOR('',#504,1.);
#504 = DIRECTION('',(1.,0.));
#505 = ( GEOMETRIC_REPRESENTATION_CONTEXT(2) 
PARAMETRIC_REPRESENTATION_CONTEXT() REPRESENTATION_CONTEXT('2D SPACE',''
  ) );
#506 = PCURVE('',#164,#507);
#507 = DEFINITIONAL_REPRESENTATION('',(#508),#518);
#508 = B_SPLINE_CURVE_WITH_KNOTS('',8,(#509,#510,#511,#512,#513,#514,
    #515,#516,#517),.UNSPECIFIED.,.F.,.F.,(9,9),(1.,2.),
  .PIECEWISE_BEZIER_KNOTS.);
#509 = CARTESIAN_POINT('',(15.2,-15.2));
#510 = CARTESIAN_POINT('',(16.692256510455,-15.2));
#511 = CARTESIAN_POINT('',(18.184512994683,-15.03256914123));
#512 = CARTESIAN_POINT('',(19.654852972032,-14.69770785805));
#513 = CARTESIAN_POINT('',(21.081359389813,-14.19885760407));
#514 = CARTESIAN_POINT('',(22.442792148613,-13.54290564003));
#515 = CARTESIAN_POINT('',(23.71926220134,-12.74000095549));
#516 = CARTESIAN_POINT('',(24.892838385496,-11.80320776257));
#517 = CARTESIAN_POINT('',(25.948023074036,-10.74802307403));
#518 = ( GEOMETRIC_REPRESENTATION_CONTEXT(2) 
PARAMETRIC_REPRESENTATION_CONTEXT() REPRESENTATION_CONTEXT('2D SPACE',''
  ) );
#519 = ORIENTED_EDGE('',*,*,#91,.F.);
#520 = ADVANCED_FACE('',(#521,#628),#164,.T.);
#521 = FACE_BOUND('',#522,.T.);
#522 = EDGE_LOOP('',(#523,#524,#525,#560,#595));
#523 = ORIENTED_EDGE('',*,*,#142,.T.);
#524 = ORIENTED_EDGE('',*,*,#487,.T.);
#525 = ORIENTED_EDGE('',*,*,#526,.T.);
#526 = EDGE_CURVE('',#465,#527,#529,.T.);
#527 = VERTEX_POINT('',#528);
#528 = CARTESIAN_POINT('',(10.748023074036,10.748023074036,29.4));
#529 = SURFACE_CURVE('',#530,(#540,#553),.PCURVE_S1.);
#530 = B_SPLINE_CURVE_WITH_KNOTS('',8,(#531,#532,#533,#534,#535,#536,
    #537,#538,#539),.UNSPECIFIED.,.F.,.F.,(9,9),(2.,3.),
  .PIECEWISE_BEZIER_KNOTS.);
#531 = CARTESIAN_POINT('',(15.2,4.329869796038E-15,29.4));
#532 = CARTESIAN_POINT('',(15.2,1.492256497342,29.4));
#533 = CARTESIAN_POINT('',(15.03256914123,2.984512994683,29.4));
#534 = CARTESIAN_POINT('',(14.69770785805,4.454852972032,29.4));
#535 = CARTESIAN_POINT('',(14.198857604076,5.881359389813,29.4));
#536 = CARTESIAN_POINT('',(13.542905640039,7.242792148613,29.4));
#537 = CARTESIAN_POINT('',(12.7400009555,8.51926220134,29.4));
#538 = CARTESIAN_POINT('',(11.803207771848,9.692838376223,29.4));
#539 = CARTESIAN_POINT('',(10.748023074036,10.748023074036,29.4));
#540 = PCURVE('',#164,#541);
#541 = DEFINITIONAL_REPRESENTATION('',(#542),#552);
#542 = B_SPLINE_CURVE_WITH_KNOTS('',8,(#543,#544,#545,#546,#547,#548,
    #549,#550,#551),.UNSPECIFIED.,.F.,.F.,(9,9),(2.,3.),
  .PIECEWISE_BEZIER_KNOTS.);
#543 = CARTESIAN_POINT('',(25.948023074036,-10.74802307403));
#544 = CARTESIAN_POINT('',(27.003207762575,-9.692838385496));
#545 = CARTESIAN_POINT('',(27.940000955499,-8.51926220134));
#546 = CARTESIAN_POINT('',(28.742905640039,-7.242792148613));
#547 = CARTESIAN_POINT('',(29.398857604076,-5.881359389813));
#548 = CARTESIAN_POINT('',(29.89770785805,-4.454852972032));
#549 = CARTESIAN_POINT('',(30.23256914123,-2.984512994683));
#550 = CARTESIAN_POINT('',(30.4,-1.492256510455));
#551 = CARTESIAN_POINT('',(30.4,1.7763568394E-15));
#552 = ( GEOMETRIC_REPRESENTATION_CONTEXT(2) 
PARAMETRIC_REPRESENTATION_CONTEXT() REPRESENTATION_CONTEXT('2D SPACE',''
  ) );
#553 = PCURVE('',#361,#554);
#554 = DEFINITIONAL_REPRESENTATION('',(#555),#559);
#555 = LINE('',#556,#557);
#556 = CARTESIAN_POINT('',(0.,1.));
#557 = VECTOR('',#558,1.);
#558 = DIRECTION('',(1.,0.));
#559 = ( GEOMETRIC_REPRESENTATION_CONTEXT(2) 
PARAMETRIC_REPRESENTATION_CONTEXT() REPRESENTATION_CONTEXT('2D SPACE',''
  ) );
#560 = ORIENTED_EDGE('',*,*,#561,.T.);
#561 = EDGE_CURVE('',#527,#562,#564,.T.);
#562 = VERTEX_POINT('',#563);
#563 = CARTESIAN_POINT('',(-10.74802307403,10.748023074036,29.4));
#564 = SURFACE_CURVE('',#565,(#575,#588),.PCURVE_S1.);
#565 = B_SPLINE_CURVE_WITH_KNOTS('',8,(#566,#567,#568,#569,#570,#571,
    #572,#573,#574),.UNSPECIFIED.,.F.,.F.,(9,9),(3.,4.),
  .PIECEWISE_BEZIER_KNOTS.);
#566 = CARTESIAN_POINT('',(10.748023074036,10.748023074036,29.4));
#567 = CARTESIAN_POINT('',(8.63765367841,12.858392469661,29.4));
#568 = CARTESIAN_POINT('',(6.053717242083,14.495196153158,
    29.400000000001));
#569 = CARTESIAN_POINT('',(3.120203027857,15.534454164245,
    29.399999999998));
#570 = CARTESIAN_POINT('',(7.283063041541E-14,15.891140329611,
    29.400000000002));
#571 = CARTESIAN_POINT('',(-3.120203027857,15.534454164245,
    29.399999999998));
#572 = CARTESIAN_POINT('',(-6.053717242083,14.495196153158,
    29.400000000001));
#573 = CARTESIAN_POINT('',(-8.63765367841,12.858392469661,29.4));
#574 = CARTESIAN_POINT('',(-10.74802307403,10.748023074036,29.4));
#575 = PCURVE('',#164,#576);
#576 = DEFINITIONAL_REPRESENTATION('',(#577),#587);
#577 = B_SPLINE_CURVE_WITH_KNOTS('',8,(#578,#579,#580,#581,#582,#583,
    #584,#585,#586),.UNSPECIFIED.,.F.,.F.,(9,9),(3.,4.),
  .PIECEWISE_BEZIER_KNOTS.);
#578 = CARTESIAN_POINT('',(30.4,1.7763568394E-15));
#579 = CARTESIAN_POINT('',(30.4,2.98451302091));
#580 = CARTESIAN_POINT('',(29.73027600779,5.969026981264));
#581 = CARTESIAN_POINT('',(28.390834601245,8.778201161893));
#582 = CARTESIAN_POINT('',(26.436733087855,11.236733087855));
#583 = CARTESIAN_POINT('',(23.978201161893,13.190834601245));
#584 = CARTESIAN_POINT('',(21.169026981264,14.53027600779));
#585 = CARTESIAN_POINT('',(18.18451302091,15.2));
#586 = CARTESIAN_POINT('',(15.2,15.2));
#587 = ( GEOMETRIC_REPRESENTATION_CONTEXT(2) 
PARAMETRIC_REPRESENTATION_CONTEXT() REPRESENTATION_CONTEXT('2D SPACE',''
  ) );
#588 = PCURVE('',#298,#589);
#589 = DEFINITIONAL_REPRESENTATION('',(#590),#594);
#590 = LINE('',#591,#592);
#591 = CARTESIAN_POINT('',(0.,1.));
#592 = VECTOR('',#593,1.);
#593 = DIRECTION('',(1.,0.));
#594 = ( GEOMETRIC_REPRESENTATION_CONTEXT(2) 
PARAMETRIC_REPRESENTATION_CONTEXT() REPRESENTATION_CONTEXT('2D SPACE',''
  ) );
#595 = ORIENTED_EDGE('',*,*,#596,.T.);
#596 = EDGE_CURVE('',#562,#143,#597,.T.);
#597 = SURFACE_CURVE('',#598,(#608,#621),.PCURVE_S1.);
#598 = B_SPLINE_CURVE_WITH_KNOTS('',8,(#599,#600,#601,#602,#603,#604,
    #605,#606,#607),.UNSPECIFIED.,.F.,.F.,(9,9),(4.,5.),
  .PIECEWISE_BEZIER_KNOTS.);
#599 = CARTESIAN_POINT('',(-10.74802307403,10.748023074036,29.4));
#600 = CARTESIAN_POINT('',(-12.85839246966,8.63765367841,29.4));
#601 = CARTESIAN_POINT('',(-14.49519615315,6.053717242083,
    29.399999999999));
#602 = CARTESIAN_POINT('',(-15.53445416424,3.120203027857,
    29.400000000001));
#603 = CARTESIAN_POINT('',(-15.8911403296,-2.335909243811E-13,
    29.399999999999));
#604 = CARTESIAN_POINT('',(-15.53445416424,-3.120203027857,
    29.400000000001));
#605 = CARTESIAN_POINT('',(-14.49519615315,-6.053717242083,29.4));
#606 = CARTESIAN_POINT('',(-12.85839246966,-8.63765367841,29.4));
#607 = CARTESIAN_POINT('',(-10.74802307403,-10.74802307403,29.4));
#608 = PCURVE('',#164,#609);
#609 = DEFINITIONAL_REPRESENTATION('',(#610),#620);
#610 = B_SPLINE_CURVE_WITH_KNOTS('',8,(#611,#612,#613,#614,#615,#616,
    #617,#618,#619),.UNSPECIFIED.,.F.,.F.,(9,9),(4.,5.),
  .PIECEWISE_BEZIER_KNOTS.);
#611 = CARTESIAN_POINT('',(15.2,15.2));
#612 = CARTESIAN_POINT('',(12.21548697909,15.2));
#613 = CARTESIAN_POINT('',(9.230973018736,14.530276007789));
#614 = CARTESIAN_POINT('',(6.421798838106,13.190834601247));
#615 = CARTESIAN_POINT('',(3.963266912146,11.236733087853));
#616 = CARTESIAN_POINT('',(2.009165398754,8.778201161894));
#617 = CARTESIAN_POINT('',(0.66972399221,5.969026981264));
#618 = CARTESIAN_POINT('',(-4.973799150321E-14,2.98451302091));
#619 = CARTESIAN_POINT('',(1.06581410364E-14,8.881784197001E-16));
#620 = ( GEOMETRIC_REPRESENTATION_CONTEXT(2) 
PARAMETRIC_REPRESENTATION_CONTEXT() REPRESENTATION_CONTEXT('2D SPACE',''
  ) );
#621 = PCURVE('',#196,#622);
#622 = DEFINITIONAL_REPRESENTATION('',(#623),#627);
#623 = LINE('',#624,#625);
#624 = CARTESIAN_POINT('',(0.,1.));
#625 = VECTOR('',#626,1.);
#626 = DIRECTION('',(1.,0.));
#627 = ( GEOMETRIC_REPRESENTATION_CONTEXT(2) 
PARAMETRIC_REPRESENTATION_CONTEXT() REPRESENTATION_CONTEXT('2D SPACE',''
  ) );
#628 = FACE_BOUND('',#629,.T.);
#629 = EDGE_LOOP('',(#630));
#630 = ORIENTED_EDGE('',*,*,#631,.T.);
#631 = EDGE_CURVE('',#632,#632,#634,.T.);
#632 = VERTEX_POINT('',#633);
#633 = CARTESIAN_POINT('',(-6.6,-1.616533774874E-15,29.4));
#634 = SURFACE_CURVE('',#635,(#640,#651),.PCURVE_S1.);
#635 = CIRCLE('',#636,6.6);
#636 = AXIS2_PLACEMENT_3D('',#637,#638,#639);
#637 = CARTESIAN_POINT('',(-3.155443620884E-30,9.466330862652E-30,29.4)
  );
#638 = DIRECTION('',(3.305457807755E-16,-8.263644519388E-16,-1.));
#639 = DIRECTION('',(-1.,-2.731512829713E-31,-3.305457807755E-16));
#640 = PCURVE('',#164,#641);
#641 = DEFINITIONAL_REPRESENTATION('',(#642),#650);
#642 = ( BOUNDED_CURVE() B_SPLINE_CURVE(2,(#643,#644,#645,#646,#647,#648
,#649),.UNSPECIFIED.,.T.,.F.) B_SPLINE_CURVE_WITH_KNOTS((1,2,2,2,2,1),(
    -2.094395102393,0.,2.094395102393,4.188790204786,6.28318530718,
8.377580409573),.UNSPECIFIED.) CURVE() GEOMETRIC_REPRESENTATION_ITEM() 
RATIONAL_B_SPLINE_CURVE((1.,0.5,1.,0.5,1.,0.5,1.)) REPRESENTATION_ITEM(
  '') );
#643 = CARTESIAN_POINT('',(10.533095244169,4.666904755831));
#644 = CARTESIAN_POINT('',(18.616411395353,12.750220907016));
#645 = CARTESIAN_POINT('',(21.575110453508,1.708205697677));
#646 = CARTESIAN_POINT('',(24.533809511662,-9.333809511662));
#647 = CARTESIAN_POINT('',(13.491794302323,-6.375110453508));
#648 = CARTESIAN_POINT('',(2.449779092984,-3.416411395353));
#649 = CARTESIAN_POINT('',(10.533095244169,4.666904755831));
#650 = ( GEOMETRIC_REPRESENTATION_CONTEXT(2) 
PARAMETRIC_REPRESENTATION_CONTEXT() REPRESENTATION_CONTEXT('2D SPACE',''
  ) );
#651 = PCURVE('',#448,#652);
#652 = DEFINITIONAL_REPRESENTATION('',(#653),#657);
#653 = LINE('',#654,#655);
#654 = CARTESIAN_POINT('',(0.,0.));
#655 = VECTOR('',#656,1.);
#656 = DIRECTION('',(1.,0.));
#657 = ( GEOMETRIC_REPRESENTATION_CONTEXT(2) 
PARAMETRIC_REPRESENTATION_CONTEXT() REPRESENTATION_CONTEXT('2D SPACE',''
  ) );
#658 = ADVANCED_FACE('',(#659),#196,.T.);
#659 = FACE_BOUND('',#660,.T.);
#660 = EDGE_LOOP('',(#661,#662,#663,#664));
#661 = ORIENTED_EDGE('',*,*,#235,.T.);
#662 = ORIENTED_EDGE('',*,*,#182,.T.);
#663 = ORIENTED_EDGE('',*,*,#596,.F.);
#664 = ORIENTED_EDGE('',*,*,#665,.F.);
#665 = EDGE_CURVE('',#236,#562,#666,.T.);
#666 = SURFACE_CURVE('',#667,(#671,#678),.PCURVE_S1.);
#667 = B_SPLINE_CURVE_WITH_KNOTS('',2,(#668,#669,#670),.UNSPECIFIED.,.F.
  ,.F.,(3,3),(0.,1.),.PIECEWISE_BEZIER_KNOTS.);
#668 = CARTESIAN_POINT('',(-20.,20.,0.));
#669 = CARTESIAN_POINT('',(-9.516147160749,9.516147160749,14.7));
#670 = CARTESIAN_POINT('',(-10.74802307403,10.748023074036,29.4));
#671 = PCURVE('',#196,#672);
#672 = DEFINITIONAL_REPRESENTATION('',(#673),#677);
#673 = LINE('',#674,#675);
#674 = CARTESIAN_POINT('',(4.,0.));
#675 = VECTOR('',#676,1.);
#676 = DIRECTION('',(0.,1.));
#677 = ( GEOMETRIC_REPRESENTATION_CONTEXT(2) 
PARAMETRIC_REPRESENTATION_CONTEXT() REPRESENTATION_CONTEXT('2D SPACE',''
  ) );
#678 = PCURVE('',#298,#679);
#679 = DEFINITIONAL_REPRESENTATION('',(#680),#684);
#680 = LINE('',#681,#682);
#681 = CARTESIAN_POINT('',(4.,0.));
#682 = VECTOR('',#683,1.);
#683 = DIRECTION('',(0.,1.));
#684 = ( GEOMETRIC_REPRESENTATION_CONTEXT(2) 
PARAMETRIC_REPRESENTATION_CONTEXT() REPRESENTATION_CONTEXT('2D SPACE',''
  ) );
#685 = ADVANCED_FACE('',(#686),#298,.T.);
#686 = FACE_BOUND('',#687,.T.);
#687 = EDGE_LOOP('',(#688,#689,#690,#691));
#688 = ORIENTED_EDGE('',*,*,#270,.T.);
#689 = ORIENTED_EDGE('',*,*,#665,.T.);
#690 = ORIENTED_EDGE('',*,*,#561,.F.);
#691 = ORIENTED_EDGE('',*,*,#692,.F.);
#692 = EDGE_CURVE('',#271,#527,#693,.T.);
#693 = SURFACE_CURVE('',#694,(#698,#705),.PCURVE_S1.);
#694 = B_SPLINE_CURVE_WITH_KNOTS('',2,(#695,#696,#697),.UNSPECIFIED.,.F.
  ,.F.,(3,3),(0.,1.),.PIECEWISE_BEZIER_KNOTS.);
#695 = CARTESIAN_POINT('',(20.,20.,0.));
#696 = CARTESIAN_POINT('',(9.516147160749,9.516147160749,14.7));
#697 = CARTESIAN_POINT('',(10.748023074036,10.748023074036,29.4));
#698 = PCURVE('',#298,#699);
#699 = DEFINITIONAL_REPRESENTATION('',(#700),#704);
#700 = LINE('',#701,#702);
#701 = CARTESIAN_POINT('',(3.,0.));
#702 = VECTOR('',#703,1.);
#703 = DIRECTION('',(0.,1.));
#704 = ( GEOMETRIC_REPRESENTATION_CONTEXT(2) 
PARAMETRIC_REPRESENTATION_CONTEXT() REPRESENTATION_CONTEXT('2D SPACE',''
  ) );
#705 = PCURVE('',#361,#706);
#706 = DEFINITIONAL_REPRESENTATION('',(#707),#711);
#707 = LINE('',#708,#709);
#708 = CARTESIAN_POINT('',(3.,0.));
#709 = VECTOR('',#710,1.);
#710 = DIRECTION('',(0.,1.));
#711 = ( GEOMETRIC_REPRESENTATION_CONTEXT(2) 
PARAMETRIC_REPRESENTATION_CONTEXT() REPRESENTATION_CONTEXT('2D SPACE',''
  ) );
#712 = ADVANCED_FACE('',(#713),#361,.T.);
#713 = FACE_BOUND('',#714,.T.);
#714 = EDGE_LOOP('',(#715,#716,#717,#718));
#715 = ORIENTED_EDGE('',*,*,#333,.T.);
#716 = ORIENTED_EDGE('',*,*,#692,.T.);
#717 = ORIENTED_EDGE('',*,*,#526,.F.);
#718 = ORIENTED_EDGE('',*,*,#464,.F.);
#719 = ADVANCED_FACE('',(#720),#448,.F.);
#720 = FACE_BOUND('',#721,.F.);
#721 = EDGE_LOOP('',(#722,#723,#744,#745));
#722 = ORIENTED_EDGE('',*,*,#431,.F.);
#723 = ORIENTED_EDGE('',*,*,#724,.F.);
#724 = EDGE_CURVE('',#632,#432,#725,.T.);
#725 = SEAM_CURVE('',#726,(#730,#737),.PCURVE_S1.);
#726 = LINE('',#727,#728);
#727 = CARTESIAN_POINT('',(-6.6,-1.616533774874E-15,29.4));
#728 = VECTOR('',#729,1.);
#729 = DIRECTION('',(3.305457807755E-16,-8.263644519388E-16,-1.));
#730 = PCURVE('',#448,#731);
#731 = DEFINITIONAL_REPRESENTATION('',(#732),#736);
#732 = LINE('',#733,#734);
#733 = CARTESIAN_POINT('',(6.28318530718,-0.));
#734 = VECTOR('',#735,1.);
#735 = DIRECTION('',(0.,1.));
#736 = ( GEOMETRIC_REPRESENTATION_CONTEXT(2) 
PARAMETRIC_REPRESENTATION_CONTEXT() REPRESENTATION_CONTEXT('2D SPACE',''
  ) );
#737 = PCURVE('',#448,#738);
#738 = DEFINITIONAL_REPRESENTATION('',(#739),#743);
#739 = LINE('',#740,#741);
#740 = CARTESIAN_POINT('',(0.,-0.));
#741 = VECTOR('',#742,1.);
#742 = DIRECTION('',(0.,1.));
#743 = ( GEOMETRIC_REPRESENTATION_CONTEXT(2) 
PARAMETRIC_REPRESENTATION_CONTEXT() REPRESENTATION_CONTEXT('2D SPACE',''
  ) );
#744 = ORIENTED_EDGE('',*,*,#631,.T.);
#745 = ORIENTED_EDGE('',*,*,#724,.T.);
#746 = ( GEOMETRIC_REPRESENTATION_CONTEXT(3) 
GLOBAL_UNCERTAINTY_ASSIGNED_CONTEXT((#750)) GLOBAL_UNIT_ASSIGNED_CONTEXT
((#747,#748,#749)) REPRESENTATION_CONTEXT('Context #1',
  '3D Context with UNIT and UNCERTAINTY') );
#747 = ( LENGTH_UNIT() NAMED_UNIT(*) SI_UNIT(.MILLI.,.METRE.) );
#748 = ( NAMED_UNIT(*) PLANE_ANGLE_UNIT() SI_UNIT($,.RADIAN.) );
#749 = ( NAMED_UNIT(*) SI_UNIT($,.STERADIAN.) SOLID_ANGLE_UNIT() );
#750 = UNCERTAINTY_MEASURE_WITH_UNIT(LENGTH_MEASURE(1.E-07),#747,
  'distance_accuracy_value','confusion accuracy');
#751 = PRODUCT_RELATED_PRODUCT_CATEGORY('part',$,(#7));
ENDSEC;
END-ISO-10303-21;
