ISO-10303-21;
HEADER;
FILE_DESCRIPTION(('Open CASCADE Model'),'2;1');
FILE_NAME('Open CASCADE Shape Model','2026-06-10T00:30:27',('Author'),(
    'Open CASCADE'),'Open CASCADE STEP processor 7.8','Open CASCADE 7.8'
  ,'Unknown');
FILE_SCHEMA(('AUTOMOTIVE_DESIGN { 1 0 10303 214 1 1 1 1 }'));
ENDSEC;
DATA;
#1 = APPLICATION_PROTOCOL_DEFINITION('international standard',
  'automotive_design',2000,#2);
#2 = APPLICATION_CONTEXT(
  'core data for automotive mechanical design processes');
#3 = SHAPE_DEFINITION_REPRESENTATION(#4,#10);
#4 = PRODUCT_DEFINITION_SHAPE('','',#5);
#5 = PRODUCT_DEFINITION('design','',#6,#9);
#6 = PRODUCT_DEFINITION_FORMATION('','',#7);
#7 = PRODUCT('Open CASCADE STEP translator 7.8 26',
  'Open CASCADE STEP translator 7.8 26','',(#8));
#8 = PRODUCT_CONTEXT('',#2,'mechanical');
#9 = PRODUCT_DEFINITION_CONTEXT('part definition',#2,'design');
#10 = ADVANCED_BREP_SHAPE_REPRESENTATION('',(#11,#15),#567);
#11 = AXIS2_PLACEMENT_3D('',#12,#13,#14);
#12 = CARTESIAN_POINT('',(0.,0.,0.));
#13 = DIRECTION('',(0.,0.,1.));
#14 = DIRECTION('',(1.,0.,-0.));
#15 = MANIFOLD_SOLID_BREP('',#16);
#16 = CLOSED_SHELL('',(#17,#171,#258,#345,#432,#502,#549,#558));
#17 = ADVANCED_FACE('',(#18),#32,.T.);
#18 = FACE_BOUND('',#19,.T.);
#19 = EDGE_LOOP('',(#20,#67,#106,#134));
#20 = ORIENTED_EDGE('',*,*,#21,.T.);
#21 = EDGE_CURVE('',#22,#24,#26,.T.);
#22 = VERTEX_POINT('',#23);
#23 = CARTESIAN_POINT('',(25.125,0.,0.));
#24 = VERTEX_POINT('',#25);
#25 = CARTESIAN_POINT('',(12.5625,21.758888270084,0.));
#26 = SURFACE_CURVE('',#27,(#31,#55),.PCURVE_S1.);
#27 = LINE('',#28,#29);
#28 = CARTESIAN_POINT('',(25.125,0.,0.));
#29 = VECTOR('',#30,1.);
#30 = DIRECTION('',(-0.5,0.866025403784,0.));
#31 = PCURVE('',#32,#49);
#32 = B_SPLINE_SURFACE_WITH_KNOTS('',7,1,(
    (#33,#34)
    ,(#35,#36)
    ,(#37,#38)
    ,(#39,#40)
    ,(#41,#42)
    ,(#43,#44)
    ,(#45,#46)
    ,(#47,#48
    )),.UNSPECIFIED.,.F.,.F.,.F.,(8,8),(2,2),(0.,25.125),(0.,1.),
  .PIECEWISE_BEZIER_KNOTS.);
#33 = CARTESIAN_POINT('',(25.125,0.,0.));
#34 = CARTESIAN_POINT('',(10.15,0.,65.));
#35 = CARTESIAN_POINT('',(23.330357142857,3.108412610012,0.));
#36 = CARTESIAN_POINT('',(10.15,1.518436449235,65.));
#37 = CARTESIAN_POINT('',(21.535714285714,6.216825220024,0.));
#38 = CARTESIAN_POINT('',(9.884982258507,3.036872593936,64.999999999999)
  );
#39 = CARTESIAN_POINT('',(19.741071428571,9.325237830036,0.));
#40 = CARTESIAN_POINT('',(9.354951164612,4.499805579223,65.000000000001)
  );
#41 = CARTESIAN_POINT('',(17.946428571429,12.433650440048,0.));
#42 = CARTESIAN_POINT('',(8.574421526004,5.851722570105,64.999999999999)
  );
#43 = CARTESIAN_POINT('',(16.151785714286,15.54206305006,0.));
#44 = CARTESIAN_POINT('',(7.572499943659,7.042209454858,65.000000000001)
  );
#45 = CARTESIAN_POINT('',(14.357142857143,18.650475660072,0.));
#46 = CARTESIAN_POINT('',(6.39000453907,8.030939623795,65.));
#47 = CARTESIAN_POINT('',(12.5625,21.758888270084,0.));
#48 = CARTESIAN_POINT('',(5.075,8.790157848412,65.));
#49 = DEFINITIONAL_REPRESENTATION('',(#50),#54);
#50 = LINE('',#51,#52);
#51 = CARTESIAN_POINT('',(0.,0.));
#52 = VECTOR('',#53,1.);
#53 = DIRECTION('',(1.,0.));
#54 = ( GEOMETRIC_REPRESENTATION_CONTEXT(2) 
PARAMETRIC_REPRESENTATION_CONTEXT() REPRESENTATION_CONTEXT('2D SPACE',''
  ) );
#55 = PCURVE('',#56,#61);
#56 = PLANE('',#57);
#57 = AXIS2_PLACEMENT_3D('',#58,#59,#60);
#58 = CARTESIAN_POINT('',(25.125,0.,0.));
#59 = DIRECTION('',(0.,0.,1.));
#60 = DIRECTION('',(-1.,7.070076972737E-17,0.));
#61 = DEFINITIONAL_REPRESENTATION('',(#62),#66);
#62 = LINE('',#63,#64);
#63 = CARTESIAN_POINT('',(0.,0.));
#64 = VECTOR('',#65,1.);
#65 = DIRECTION('',(0.5,-0.866025403784));
#66 = ( GEOMETRIC_REPRESENTATION_CONTEXT(2) 
PARAMETRIC_REPRESENTATION_CONTEXT() REPRESENTATION_CONTEXT('2D SPACE',''
  ) );
#67 = ORIENTED_EDGE('',*,*,#68,.T.);
#68 = EDGE_CURVE('',#24,#69,#71,.T.);
#69 = VERTEX_POINT('',#70);
#70 = CARTESIAN_POINT('',(5.075,8.790157848412,65.));
#71 = SURFACE_CURVE('',#72,(#75,#82),.PCURVE_S1.);
#72 = B_SPLINE_CURVE_WITH_KNOTS('',1,(#73,#74),.UNSPECIFIED.,.F.,.F.,(2,
    2),(0.,1.),.PIECEWISE_BEZIER_KNOTS.);
#73 = CARTESIAN_POINT('',(12.5625,21.758888270084,0.));
#74 = CARTESIAN_POINT('',(5.075,8.790157848412,65.));
#75 = PCURVE('',#32,#76);
#76 = DEFINITIONAL_REPRESENTATION('',(#77),#81);
#77 = LINE('',#78,#79);
#78 = CARTESIAN_POINT('',(25.125,0.));
#79 = VECTOR('',#80,1.);
#80 = DIRECTION('',(0.,1.));
#81 = ( GEOMETRIC_REPRESENTATION_CONTEXT(2) 
PARAMETRIC_REPRESENTATION_CONTEXT() REPRESENTATION_CONTEXT('2D SPACE',''
  ) );
#82 = PCURVE('',#83,#100);
#83 = B_SPLINE_SURFACE_WITH_KNOTS('',7,1,(
    (#84,#85)
    ,(#86,#87)
    ,(#88,#89)
    ,(#90,#91)
    ,(#92,#93)
    ,(#94,#95)
    ,(#96,#97)
    ,(#98,#99
    )),.UNSPECIFIED.,.F.,.F.,.F.,(8,8),(2,2),(0.,25.125),(0.,1.),
  .PIECEWISE_BEZIER_KNOTS.);
#84 = CARTESIAN_POINT('',(12.5625,21.758888270084,0.));
#85 = CARTESIAN_POINT('',(5.075,8.790157848412,65.));
#86 = CARTESIAN_POINT('',(8.973214285714,21.758888270084,0.));
#87 = CARTESIAN_POINT('',(3.75999546093,9.54937607303,65.));
#88 = CARTESIAN_POINT('',(5.383928571429,21.758888270084,0.));
#89 = CARTESIAN_POINT('',(2.312482314849,10.079082048794,65.));
#90 = CARTESIAN_POINT('',(1.794642857143,21.758888270084,0.));
#91 = CARTESIAN_POINT('',(0.780529638608,10.351528149328,65.000000000001
    ));
#92 = CARTESIAN_POINT('',(-1.794642857143,21.758888270084,0.));
#93 = CARTESIAN_POINT('',(-0.780529638608,10.351528149328,
    64.999999999999));
#94 = CARTESIAN_POINT('',(-5.383928571429,21.758888270084,0.));
#95 = CARTESIAN_POINT('',(-2.312482314849,10.079082048794,
    65.000000000001));
#96 = CARTESIAN_POINT('',(-8.973214285714,21.758888270084,0.));
#97 = CARTESIAN_POINT('',(-3.75999546093,9.54937607303,65.));
#98 = CARTESIAN_POINT('',(-12.5625,21.758888270084,0.));
#99 = CARTESIAN_POINT('',(-5.075,8.790157848412,65.));
#100 = DEFINITIONAL_REPRESENTATION('',(#101),#105);
#101 = LINE('',#102,#103);
#102 = CARTESIAN_POINT('',(0.,0.));
#103 = VECTOR('',#104,1.);
#104 = DIRECTION('',(0.,1.));
#105 = ( GEOMETRIC_REPRESENTATION_CONTEXT(2) 
PARAMETRIC_REPRESENTATION_CONTEXT() REPRESENTATION_CONTEXT('2D SPACE',''
  ) );
#106 = ORIENTED_EDGE('',*,*,#107,.F.);
#107 = EDGE_CURVE('',#108,#69,#110,.T.);
#108 = VERTEX_POINT('',#109);
#109 = CARTESIAN_POINT('',(10.15,0.,65.));
#110 = SURFACE_CURVE('',#111,(#116,#122),.PCURVE_S1.);
#111 = CIRCLE('',#112,10.15);
#112 = AXIS2_PLACEMENT_3D('',#113,#114,#115);
#113 = CARTESIAN_POINT('',(0.,0.,65.));
#114 = DIRECTION('',(0.,0.,1.));
#115 = DIRECTION('',(1.,0.,0.));
#116 = PCURVE('',#32,#117);
#117 = DEFINITIONAL_REPRESENTATION('',(#118),#121);
#118 = B_SPLINE_CURVE_WITH_KNOTS('',1,(#119,#120),.UNSPECIFIED.,.F.,.F.,
  (2,2),(0.,1.047197551197),.PIECEWISE_BEZIER_KNOTS.);
#119 = CARTESIAN_POINT('',(0.,1.));
#120 = CARTESIAN_POINT('',(25.125,1.));
#121 = ( GEOMETRIC_REPRESENTATION_CONTEXT(2) 
PARAMETRIC_REPRESENTATION_CONTEXT() REPRESENTATION_CONTEXT('2D SPACE',''
  ) );
#122 = PCURVE('',#123,#128);
#123 = PLANE('',#124);
#124 = AXIS2_PLACEMENT_3D('',#125,#126,#127);
#125 = CARTESIAN_POINT('',(0.,0.,65.));
#126 = DIRECTION('',(0.,0.,1.));
#127 = DIRECTION('',(1.,0.,0.));
#128 = DEFINITIONAL_REPRESENTATION('',(#129),#133);
#129 = CIRCLE('',#130,10.15);
#130 = AXIS2_PLACEMENT_2D('',#131,#132);
#131 = CARTESIAN_POINT('',(0.,0.));
#132 = DIRECTION('',(1.,0.));
#133 = ( GEOMETRIC_REPRESENTATION_CONTEXT(2) 
PARAMETRIC_REPRESENTATION_CONTEXT() REPRESENTATION_CONTEXT('2D SPACE',''
  ) );
#134 = ORIENTED_EDGE('',*,*,#135,.F.);
#135 = EDGE_CURVE('',#22,#108,#136,.T.);
#136 = SURFACE_CURVE('',#137,(#140,#147),.PCURVE_S1.);
#137 = B_SPLINE_CURVE_WITH_KNOTS('',1,(#138,#139),.UNSPECIFIED.,.F.,.F.,
  (2,2),(0.,1.),.PIECEWISE_BEZIER_KNOTS.);
#138 = CARTESIAN_POINT('',(25.125,0.,0.));
#139 = CARTESIAN_POINT('',(10.15,0.,65.));
#140 = PCURVE('',#32,#141);
#141 = DEFINITIONAL_REPRESENTATION('',(#142),#146);
#142 = LINE('',#143,#144);
#143 = CARTESIAN_POINT('',(0.,0.));
#144 = VECTOR('',#145,1.);
#145 = DIRECTION('',(0.,1.));
#146 = ( GEOMETRIC_REPRESENTATION_CONTEXT(2) 
PARAMETRIC_REPRESENTATION_CONTEXT() REPRESENTATION_CONTEXT('2D SPACE',''
  ) );
#147 = PCURVE('',#148,#165);
#148 = B_SPLINE_SURFACE_WITH_KNOTS('',7,1,(
    (#149,#150)
    ,(#151,#152)
    ,(#153,#154)
    ,(#155,#156)
    ,(#157,#158)
    ,(#159,#160)
    ,(#161,#162)
    ,(#163,#164
    )),.UNSPECIFIED.,.F.,.F.,.F.,(8,8),(2,2),(0.,25.125),(0.,1.),
  .PIECEWISE_BEZIER_KNOTS.);
#149 = CARTESIAN_POINT('',(12.5625,-21.75888827008,0.));
#150 = CARTESIAN_POINT('',(5.075,-8.790157848412,65.));
#151 = CARTESIAN_POINT('',(14.357142857143,-18.65047566007,0.));
#152 = CARTESIAN_POINT('',(6.39000453907,-8.030939623795,65.));
#153 = CARTESIAN_POINT('',(16.151785714286,-15.54206305006,0.));
#154 = CARTESIAN_POINT('',(7.572499943659,-7.042209454858,
    64.999999999999));
#155 = CARTESIAN_POINT('',(17.946428571429,-12.43365044004,0.));
#156 = CARTESIAN_POINT('',(8.574421526004,-5.851722570105,
    65.000000000001));
#157 = CARTESIAN_POINT('',(19.741071428571,-9.325237830036,0.));
#158 = CARTESIAN_POINT('',(9.354951164611,-4.499805579223,
    64.999999999999));
#159 = CARTESIAN_POINT('',(21.535714285714,-6.216825220024,0.));
#160 = CARTESIAN_POINT('',(9.884982258508,-3.036872593936,
    65.000000000001));
#161 = CARTESIAN_POINT('',(23.330357142857,-3.108412610012,0.));
#162 = CARTESIAN_POINT('',(10.15,-1.518436449235,65.));
#163 = CARTESIAN_POINT('',(25.125,0.,0.));
#164 = CARTESIAN_POINT('',(10.15,-2.6645352591E-15,65.));
#165 = DEFINITIONAL_REPRESENTATION('',(#166),#170);
#166 = LINE('',#167,#168);
#167 = CARTESIAN_POINT('',(25.125,0.));
#168 = VECTOR('',#169,1.);
#169 = DIRECTION('',(0.,1.));
#170 = ( GEOMETRIC_REPRESENTATION_CONTEXT(2) 
PARAMETRIC_REPRESENTATION_CONTEXT() REPRESENTATION_CONTEXT('2D SPACE',''
  ) );
#171 = ADVANCED_FACE('',(#172),#83,.T.);
#172 = FACE_BOUND('',#173,.T.);
#173 = EDGE_LOOP('',(#174,#197,#236,#257));
#174 = ORIENTED_EDGE('',*,*,#175,.T.);
#175 = EDGE_CURVE('',#24,#176,#178,.T.);
#176 = VERTEX_POINT('',#177);
#177 = CARTESIAN_POINT('',(-12.5625,21.758888270084,0.));
#178 = SURFACE_CURVE('',#179,(#183,#190),.PCURVE_S1.);
#179 = LINE('',#180,#181);
#180 = CARTESIAN_POINT('',(12.5625,21.758888270084,0.));
#181 = VECTOR('',#182,1.);
#182 = DIRECTION('',(-1.,1.414015394547E-16,0.));
#183 = PCURVE('',#83,#184);
#184 = DEFINITIONAL_REPRESENTATION('',(#185),#189);
#185 = LINE('',#186,#187);
#186 = CARTESIAN_POINT('',(0.,0.));
#187 = VECTOR('',#188,1.);
#188 = DIRECTION('',(1.,0.));
#189 = ( GEOMETRIC_REPRESENTATION_CONTEXT(2) 
PARAMETRIC_REPRESENTATION_CONTEXT() REPRESENTATION_CONTEXT('2D SPACE',''
  ) );
#190 = PCURVE('',#56,#191);
#191 = DEFINITIONAL_REPRESENTATION('',(#192),#196);
#192 = LINE('',#193,#194);
#193 = CARTESIAN_POINT('',(12.5625,-21.75888827008));
#194 = VECTOR('',#195,1.);
#195 = DIRECTION('',(1.,-7.070076972737E-17));
#196 = ( GEOMETRIC_REPRESENTATION_CONTEXT(2) 
PARAMETRIC_REPRESENTATION_CONTEXT() REPRESENTATION_CONTEXT('2D SPACE',''
  ) );
#197 = ORIENTED_EDGE('',*,*,#198,.T.);
#198 = EDGE_CURVE('',#176,#199,#201,.T.);
#199 = VERTEX_POINT('',#200);
#200 = CARTESIAN_POINT('',(-5.075,8.790157848412,65.));
#201 = SURFACE_CURVE('',#202,(#205,#212),.PCURVE_S1.);
#202 = B_SPLINE_CURVE_WITH_KNOTS('',1,(#203,#204),.UNSPECIFIED.,.F.,.F.,
  (2,2),(0.,1.),.PIECEWISE_BEZIER_KNOTS.);
#203 = CARTESIAN_POINT('',(-12.5625,21.758888270084,0.));
#204 = CARTESIAN_POINT('',(-5.075,8.790157848412,65.));
#205 = PCURVE('',#83,#206);
#206 = DEFINITIONAL_REPRESENTATION('',(#207),#211);
#207 = LINE('',#208,#209);
#208 = CARTESIAN_POINT('',(25.125,0.));
#209 = VECTOR('',#210,1.);
#210 = DIRECTION('',(0.,1.));
#211 = ( GEOMETRIC_REPRESENTATION_CONTEXT(2) 
PARAMETRIC_REPRESENTATION_CONTEXT() REPRESENTATION_CONTEXT('2D SPACE',''
  ) );
#212 = PCURVE('',#213,#230);
#213 = B_SPLINE_SURFACE_WITH_KNOTS('',7,1,(
    (#214,#215)
    ,(#216,#217)
    ,(#218,#219)
    ,(#220,#221)
    ,(#222,#223)
    ,(#224,#225)
    ,(#226,#227)
    ,(#228,#229
    )),.UNSPECIFIED.,.F.,.F.,.F.,(8,8),(2,2),(0.,25.125),(0.,1.),
  .PIECEWISE_BEZIER_KNOTS.);
#214 = CARTESIAN_POINT('',(-12.5625,21.758888270084,0.));
#215 = CARTESIAN_POINT('',(-5.075,8.790157848412,65.));
#216 = CARTESIAN_POINT('',(-14.35714285714,18.650475660072,0.));
#217 = CARTESIAN_POINT('',(-6.39000453907,8.030939623795,65.));
#218 = CARTESIAN_POINT('',(-16.15178571428,15.54206305006,0.));
#219 = CARTESIAN_POINT('',(-7.572499943659,7.042209454858,65.));
#220 = CARTESIAN_POINT('',(-17.94642857142,12.433650440048,0.));
#221 = CARTESIAN_POINT('',(-8.574421526004,5.851722570105,65.));
#222 = CARTESIAN_POINT('',(-19.74107142857,9.325237830036,0.));
#223 = CARTESIAN_POINT('',(-9.354951164611,4.499805579223,65.));
#224 = CARTESIAN_POINT('',(-21.53571428571,6.216825220024,0.));
#225 = CARTESIAN_POINT('',(-9.884982258508,3.036872593936,65.));
#226 = CARTESIAN_POINT('',(-23.33035714285,3.108412610012,0.));
#227 = CARTESIAN_POINT('',(-10.15,1.518436449235,65.));
#228 = CARTESIAN_POINT('',(-25.125,3.552713678801E-15,0.));
#229 = CARTESIAN_POINT('',(-10.15,8.881784197001E-16,65.));
#230 = DEFINITIONAL_REPRESENTATION('',(#231),#235);
#231 = LINE('',#232,#233);
#232 = CARTESIAN_POINT('',(0.,0.));
#233 = VECTOR('',#234,1.);
#234 = DIRECTION('',(0.,1.));
#235 = ( GEOMETRIC_REPRESENTATION_CONTEXT(2) 
PARAMETRIC_REPRESENTATION_CONTEXT() REPRESENTATION_CONTEXT('2D SPACE',''
  ) );
#236 = ORIENTED_EDGE('',*,*,#237,.F.);
#237 = EDGE_CURVE('',#69,#199,#238,.T.);
#238 = SURFACE_CURVE('',#239,(#244,#250),.PCURVE_S1.);
#239 = CIRCLE('',#240,10.15);
#240 = AXIS2_PLACEMENT_3D('',#241,#242,#243);
#241 = CARTESIAN_POINT('',(0.,0.,65.));
#242 = DIRECTION('',(0.,0.,1.));
#243 = DIRECTION('',(1.,0.,0.));
#244 = PCURVE('',#83,#245);
#245 = DEFINITIONAL_REPRESENTATION('',(#246),#249);
#246 = B_SPLINE_CURVE_WITH_KNOTS('',1,(#247,#248),.UNSPECIFIED.,.F.,.F.,
  (2,2),(1.047197551197,2.094395102393),.PIECEWISE_BEZIER_KNOTS.);
#247 = CARTESIAN_POINT('',(0.,1.));
#248 = CARTESIAN_POINT('',(25.125,1.));
#249 = ( GEOMETRIC_REPRESENTATION_CONTEXT(2) 
PARAMETRIC_REPRESENTATION_CONTEXT() REPRESENTATION_CONTEXT('2D SPACE',''
  ) );
#250 = PCURVE('',#123,#251);
#251 = DEFINITIONAL_REPRESENTATION('',(#252),#256);
#252 = CIRCLE('',#253,10.15);
#253 = AXIS2_PLACEMENT_2D('',#254,#255);
#254 = CARTESIAN_POINT('',(0.,0.));
#255 = DIRECTION('',(1.,0.));
#256 = ( GEOMETRIC_REPRESENTATION_CONTEXT(2) 
PARAMETRIC_REPRESENTATION_CONTEXT() REPRESENTATION_CONTEXT('2D SPACE',''
  ) );
#257 = ORIENTED_EDGE('',*,*,#68,.F.);
#258 = ADVANCED_FACE('',(#259),#213,.T.);
#259 = FACE_BOUND('',#260,.T.);
#260 = EDGE_LOOP('',(#261,#284,#323,#344));
#261 = ORIENTED_EDGE('',*,*,#262,.T.);
#262 = EDGE_CURVE('',#176,#263,#265,.T.);
#263 = VERTEX_POINT('',#264);
#264 = CARTESIAN_POINT('',(-25.125,3.076925082858E-15,0.));
#265 = SURFACE_CURVE('',#266,(#270,#277),.PCURVE_S1.);
#266 = LINE('',#267,#268);
#267 = CARTESIAN_POINT('',(-12.5625,21.758888270084,0.));
#268 = VECTOR('',#269,1.);
#269 = DIRECTION('',(-0.5,-0.866025403784,0.));
#270 = PCURVE('',#213,#271);
#271 = DEFINITIONAL_REPRESENTATION('',(#272),#276);
#272 = LINE('',#273,#274);
#273 = CARTESIAN_POINT('',(0.,0.));
#274 = VECTOR('',#275,1.);
#275 = DIRECTION('',(1.,0.));
#276 = ( GEOMETRIC_REPRESENTATION_CONTEXT(2) 
PARAMETRIC_REPRESENTATION_CONTEXT() REPRESENTATION_CONTEXT('2D SPACE',''
  ) );
#277 = PCURVE('',#56,#278);
#278 = DEFINITIONAL_REPRESENTATION('',(#279),#283);
#279 = LINE('',#280,#281);
#280 = CARTESIAN_POINT('',(37.6875,-21.75888827008));
#281 = VECTOR('',#282,1.);
#282 = DIRECTION('',(0.5,0.866025403784));
#283 = ( GEOMETRIC_REPRESENTATION_CONTEXT(2) 
PARAMETRIC_REPRESENTATION_CONTEXT() REPRESENTATION_CONTEXT('2D SPACE',''
  ) );
#284 = ORIENTED_EDGE('',*,*,#285,.T.);
#285 = EDGE_CURVE('',#263,#286,#288,.T.);
#286 = VERTEX_POINT('',#287);
#287 = CARTESIAN_POINT('',(-10.15,1.243016501135E-15,65.));
#288 = SURFACE_CURVE('',#289,(#292,#299),.PCURVE_S1.);
#289 = B_SPLINE_CURVE_WITH_KNOTS('',1,(#290,#291),.UNSPECIFIED.,.F.,.F.,
  (2,2),(0.,1.),.PIECEWISE_BEZIER_KNOTS.);
#290 = CARTESIAN_POINT('',(-25.125,3.552713678801E-15,0.));
#291 = CARTESIAN_POINT('',(-10.15,8.881784197001E-16,65.));
#292 = PCURVE('',#213,#293);
#293 = DEFINITIONAL_REPRESENTATION('',(#294),#298);
#294 = LINE('',#295,#296);
#295 = CARTESIAN_POINT('',(25.125,0.));
#296 = VECTOR('',#297,1.);
#297 = DIRECTION('',(0.,1.));
#298 = ( GEOMETRIC_REPRESENTATION_CONTEXT(2) 
PARAMETRIC_REPRESENTATION_CONTEXT() REPRESENTATION_CONTEXT('2D SPACE',''
  ) );
#299 = PCURVE('',#300,#317);
#300 = B_SPLINE_SURFACE_WITH_KNOTS('',7,1,(
    (#301,#302)
    ,(#303,#304)
    ,(#305,#306)
    ,(#307,#308)
    ,(#309,#310)
    ,(#311,#312)
    ,(#313,#314)
    ,(#315,#316
    )),.UNSPECIFIED.,.F.,.F.,.F.,(8,8),(2,2),(0.,25.125),(0.,1.),
  .PIECEWISE_BEZIER_KNOTS.);
#301 = CARTESIAN_POINT('',(-25.125,3.076925082858E-15,0.));
#302 = CARTESIAN_POINT('',(-10.15,2.6645352591E-15,65.));
#303 = CARTESIAN_POINT('',(-23.33035714285,-3.108412610012,0.));
#304 = CARTESIAN_POINT('',(-10.15,-1.518436449235,65.));
#305 = CARTESIAN_POINT('',(-21.53571428571,-6.216825220024,0.));
#306 = CARTESIAN_POINT('',(-9.884982258508,-3.036872593936,
    65.000000000001));
#307 = CARTESIAN_POINT('',(-19.74107142857,-9.325237830036,0.));
#308 = CARTESIAN_POINT('',(-9.354951164611,-4.499805579223,
    64.999999999999));
#309 = CARTESIAN_POINT('',(-17.94642857142,-12.43365044004,0.));
#310 = CARTESIAN_POINT('',(-8.574421526004,-5.851722570105,
    65.000000000001));
#311 = CARTESIAN_POINT('',(-16.15178571428,-15.54206305006,0.));
#312 = CARTESIAN_POINT('',(-7.572499943659,-7.042209454858,65.));
#313 = CARTESIAN_POINT('',(-14.35714285714,-18.65047566007,0.));
#314 = CARTESIAN_POINT('',(-6.39000453907,-8.030939623795,65.));
#315 = CARTESIAN_POINT('',(-12.5625,-21.75888827008,0.));
#316 = CARTESIAN_POINT('',(-5.075,-8.790157848412,65.));
#317 = DEFINITIONAL_REPRESENTATION('',(#318),#322);
#318 = LINE('',#319,#320);
#319 = CARTESIAN_POINT('',(0.,0.));
#320 = VECTOR('',#321,1.);
#321 = DIRECTION('',(0.,1.));
#322 = ( GEOMETRIC_REPRESENTATION_CONTEXT(2) 
PARAMETRIC_REPRESENTATION_CONTEXT() REPRESENTATION_CONTEXT('2D SPACE',''
  ) );
#323 = ORIENTED_EDGE('',*,*,#324,.F.);
#324 = EDGE_CURVE('',#199,#286,#325,.T.);
#325 = SURFACE_CURVE('',#326,(#331,#337),.PCURVE_S1.);
#326 = CIRCLE('',#327,10.15);
#327 = AXIS2_PLACEMENT_3D('',#328,#329,#330);
#328 = CARTESIAN_POINT('',(0.,0.,65.));
#329 = DIRECTION('',(0.,0.,1.));
#330 = DIRECTION('',(1.,0.,0.));
#331 = PCURVE('',#213,#332);
#332 = DEFINITIONAL_REPRESENTATION('',(#333),#336);
#333 = B_SPLINE_CURVE_WITH_KNOTS('',1,(#334,#335),.UNSPECIFIED.,.F.,.F.,
  (2,2),(2.094395102393,3.14159265359),.PIECEWISE_BEZIER_KNOTS.);
#334 = CARTESIAN_POINT('',(0.,1.));
#335 = CARTESIAN_POINT('',(25.125,1.));
#336 = ( GEOMETRIC_REPRESENTATION_CONTEXT(2) 
PARAMETRIC_REPRESENTATION_CONTEXT() REPRESENTATION_CONTEXT('2D SPACE',''
  ) );
#337 = PCURVE('',#123,#338);
#338 = DEFINITIONAL_REPRESENTATION('',(#339),#343);
#339 = CIRCLE('',#340,10.15);
#340 = AXIS2_PLACEMENT_2D('',#341,#342);
#341 = CARTESIAN_POINT('',(0.,0.));
#342 = DIRECTION('',(1.,0.));
#343 = ( GEOMETRIC_REPRESENTATION_CONTEXT(2) 
PARAMETRIC_REPRESENTATION_CONTEXT() REPRESENTATION_CONTEXT('2D SPACE',''
  ) );
#344 = ORIENTED_EDGE('',*,*,#198,.F.);
#345 = ADVANCED_FACE('',(#346),#300,.T.);
#346 = FACE_BOUND('',#347,.T.);
#347 = EDGE_LOOP('',(#348,#371,#410,#431));
#348 = ORIENTED_EDGE('',*,*,#349,.T.);
#349 = EDGE_CURVE('',#263,#350,#352,.T.);
#350 = VERTEX_POINT('',#351);
#351 = CARTESIAN_POINT('',(-12.5625,-21.75888827008,0.));
#352 = SURFACE_CURVE('',#353,(#357,#364),.PCURVE_S1.);
#353 = LINE('',#354,#355);
#354 = CARTESIAN_POINT('',(-25.125,3.076925082858E-15,0.));
#355 = VECTOR('',#356,1.);
#356 = DIRECTION('',(0.5,-0.866025403784,0.));
#357 = PCURVE('',#300,#358);
#358 = DEFINITIONAL_REPRESENTATION('',(#359),#363);
#359 = LINE('',#360,#361);
#360 = CARTESIAN_POINT('',(0.,0.));
#361 = VECTOR('',#362,1.);
#362 = DIRECTION('',(1.,0.));
#363 = ( GEOMETRIC_REPRESENTATION_CONTEXT(2) 
PARAMETRIC_REPRESENTATION_CONTEXT() REPRESENTATION_CONTEXT('2D SPACE',''
  ) );
#364 = PCURVE('',#56,#365);
#365 = DEFINITIONAL_REPRESENTATION('',(#366),#370);
#366 = LINE('',#367,#368);
#367 = CARTESIAN_POINT('',(50.25,4.757885959428E-16));
#368 = VECTOR('',#369,1.);
#369 = DIRECTION('',(-0.5,0.866025403784));
#370 = ( GEOMETRIC_REPRESENTATION_CONTEXT(2) 
PARAMETRIC_REPRESENTATION_CONTEXT() REPRESENTATION_CONTEXT('2D SPACE',''
  ) );
#371 = ORIENTED_EDGE('',*,*,#372,.T.);
#372 = EDGE_CURVE('',#350,#373,#375,.T.);
#373 = VERTEX_POINT('',#374);
#374 = CARTESIAN_POINT('',(-5.075,-8.790157848412,65.));
#375 = SURFACE_CURVE('',#376,(#379,#386),.PCURVE_S1.);
#376 = B_SPLINE_CURVE_WITH_KNOTS('',1,(#377,#378),.UNSPECIFIED.,.F.,.F.,
  (2,2),(0.,1.),.PIECEWISE_BEZIER_KNOTS.);
#377 = CARTESIAN_POINT('',(-12.5625,-21.75888827008,0.));
#378 = CARTESIAN_POINT('',(-5.075,-8.790157848412,65.));
#379 = PCURVE('',#300,#380);
#380 = DEFINITIONAL_REPRESENTATION('',(#381),#385);
#381 = LINE('',#382,#383);
#382 = CARTESIAN_POINT('',(25.125,0.));
#383 = VECTOR('',#384,1.);
#384 = DIRECTION('',(0.,1.));
#385 = ( GEOMETRIC_REPRESENTATION_CONTEXT(2) 
PARAMETRIC_REPRESENTATION_CONTEXT() REPRESENTATION_CONTEXT('2D SPACE',''
  ) );
#386 = PCURVE('',#387,#404);
#387 = B_SPLINE_SURFACE_WITH_KNOTS('',7,1,(
    (#388,#389)
    ,(#390,#391)
    ,(#392,#393)
    ,(#394,#395)
    ,(#396,#397)
    ,(#398,#399)
    ,(#400,#401)
    ,(#402,#403
    )),.UNSPECIFIED.,.F.,.F.,.F.,(8,8),(2,2),(0.,25.125),(0.,1.),
  .PIECEWISE_BEZIER_KNOTS.);
#388 = CARTESIAN_POINT('',(-12.5625,-21.75888827008,0.));
#389 = CARTESIAN_POINT('',(-5.075,-8.790157848412,65.));
#390 = CARTESIAN_POINT('',(-8.973214285714,-21.75888827008,0.));
#391 = CARTESIAN_POINT('',(-3.75999546093,-9.54937607303,65.));
#392 = CARTESIAN_POINT('',(-5.383928571429,-21.75888827008,0.));
#393 = CARTESIAN_POINT('',(-2.312482314849,-10.07908204879,65.));
#394 = CARTESIAN_POINT('',(-1.794642857143,-21.75888827008,0.));
#395 = CARTESIAN_POINT('',(-0.780529638608,-10.35152814932,65.));
#396 = CARTESIAN_POINT('',(1.794642857143,-21.75888827008,0.));
#397 = CARTESIAN_POINT('',(0.780529638608,-10.35152814932,65.));
#398 = CARTESIAN_POINT('',(5.383928571429,-21.75888827008,0.));
#399 = CARTESIAN_POINT('',(2.312482314849,-10.07908204879,65.));
#400 = CARTESIAN_POINT('',(8.973214285714,-21.75888827008,0.));
#401 = CARTESIAN_POINT('',(3.75999546093,-9.54937607303,65.));
#402 = CARTESIAN_POINT('',(12.5625,-21.75888827008,0.));
#403 = CARTESIAN_POINT('',(5.075,-8.790157848412,65.));
#404 = DEFINITIONAL_REPRESENTATION('',(#405),#409);
#405 = LINE('',#406,#407);
#406 = CARTESIAN_POINT('',(0.,0.));
#407 = VECTOR('',#408,1.);
#408 = DIRECTION('',(0.,1.));
#409 = ( GEOMETRIC_REPRESENTATION_CONTEXT(2) 
PARAMETRIC_REPRESENTATION_CONTEXT() REPRESENTATION_CONTEXT('2D SPACE',''
  ) );
#410 = ORIENTED_EDGE('',*,*,#411,.F.);
#411 = EDGE_CURVE('',#286,#373,#412,.T.);
#412 = SURFACE_CURVE('',#413,(#418,#424),.PCURVE_S1.);
#413 = CIRCLE('',#414,10.15);
#414 = AXIS2_PLACEMENT_3D('',#415,#416,#417);
#415 = CARTESIAN_POINT('',(0.,0.,65.));
#416 = DIRECTION('',(0.,0.,1.));
#417 = DIRECTION('',(1.,0.,0.));
#418 = PCURVE('',#300,#419);
#419 = DEFINITIONAL_REPRESENTATION('',(#420),#423);
#420 = B_SPLINE_CURVE_WITH_KNOTS('',1,(#421,#422),.UNSPECIFIED.,.F.,.F.,
  (2,2),(3.14159265359,4.188790204786),.PIECEWISE_BEZIER_KNOTS.);
#421 = CARTESIAN_POINT('',(0.,1.));
#422 = CARTESIAN_POINT('',(25.125,1.));
#423 = ( GEOMETRIC_REPRESENTATION_CONTEXT(2) 
PARAMETRIC_REPRESENTATION_CONTEXT() REPRESENTATION_CONTEXT('2D SPACE',''
  ) );
#424 = PCURVE('',#123,#425);
#425 = DEFINITIONAL_REPRESENTATION('',(#426),#430);
#426 = CIRCLE('',#427,10.15);
#427 = AXIS2_PLACEMENT_2D('',#428,#429);
#428 = CARTESIAN_POINT('',(0.,0.));
#429 = DIRECTION('',(1.,0.));
#430 = ( GEOMETRIC_REPRESENTATION_CONTEXT(2) 
PARAMETRIC_REPRESENTATION_CONTEXT() REPRESENTATION_CONTEXT('2D SPACE',''
  ) );
#431 = ORIENTED_EDGE('',*,*,#285,.F.);
#432 = ADVANCED_FACE('',(#433),#387,.T.);
#433 = FACE_BOUND('',#434,.T.);
#434 = EDGE_LOOP('',(#435,#458,#480,#501));
#435 = ORIENTED_EDGE('',*,*,#436,.T.);
#436 = EDGE_CURVE('',#350,#437,#439,.T.);
#437 = VERTEX_POINT('',#438);
#438 = CARTESIAN_POINT('',(12.5625,-21.75888827008,0.));
#439 = SURFACE_CURVE('',#440,(#444,#451),.PCURVE_S1.);
#440 = LINE('',#441,#442);
#441 = CARTESIAN_POINT('',(-12.5625,-21.75888827008,0.));
#442 = VECTOR('',#443,1.);
#443 = DIRECTION('',(1.,-7.070076972737E-16,0.));
#444 = PCURVE('',#387,#445);
#445 = DEFINITIONAL_REPRESENTATION('',(#446),#450);
#446 = LINE('',#447,#448);
#447 = CARTESIAN_POINT('',(0.,0.));
#448 = VECTOR('',#449,1.);
#449 = DIRECTION('',(1.,0.));
#450 = ( GEOMETRIC_REPRESENTATION_CONTEXT(2) 
PARAMETRIC_REPRESENTATION_CONTEXT() REPRESENTATION_CONTEXT('2D SPACE',''
  ) );
#451 = PCURVE('',#56,#452);
#452 = DEFINITIONAL_REPRESENTATION('',(#453),#457);
#453 = LINE('',#454,#455);
#454 = CARTESIAN_POINT('',(37.6875,21.758888270084));
#455 = VECTOR('',#456,1.);
#456 = DIRECTION('',(-1.,6.363069275464E-16));
#457 = ( GEOMETRIC_REPRESENTATION_CONTEXT(2) 
PARAMETRIC_REPRESENTATION_CONTEXT() REPRESENTATION_CONTEXT('2D SPACE',''
  ) );
#458 = ORIENTED_EDGE('',*,*,#459,.T.);
#459 = EDGE_CURVE('',#437,#460,#462,.T.);
#460 = VERTEX_POINT('',#461);
#461 = CARTESIAN_POINT('',(5.075,-8.790157848412,65.));
#462 = SURFACE_CURVE('',#463,(#466,#473),.PCURVE_S1.);
#463 = B_SPLINE_CURVE_WITH_KNOTS('',1,(#464,#465),.UNSPECIFIED.,.F.,.F.,
  (2,2),(0.,1.),.PIECEWISE_BEZIER_KNOTS.);
#464 = CARTESIAN_POINT('',(12.5625,-21.75888827008,0.));
#465 = CARTESIAN_POINT('',(5.075,-8.790157848412,65.));
#466 = PCURVE('',#387,#467);
#467 = DEFINITIONAL_REPRESENTATION('',(#468),#472);
#468 = LINE('',#469,#470);
#469 = CARTESIAN_POINT('',(25.125,0.));
#470 = VECTOR('',#471,1.);
#471 = DIRECTION('',(0.,1.));
#472 = ( GEOMETRIC_REPRESENTATION_CONTEXT(2) 
PARAMETRIC_REPRESENTATION_CONTEXT() REPRESENTATION_CONTEXT('2D SPACE',''
  ) );
#473 = PCURVE('',#148,#474);
#474 = DEFINITIONAL_REPRESENTATION('',(#475),#479);
#475 = LINE('',#476,#477);
#476 = CARTESIAN_POINT('',(0.,0.));
#477 = VECTOR('',#478,1.);
#478 = DIRECTION('',(0.,1.));
#479 = ( GEOMETRIC_REPRESENTATION_CONTEXT(2) 
PARAMETRIC_REPRESENTATION_CONTEXT() REPRESENTATION_CONTEXT('2D SPACE',''
  ) );
#480 = ORIENTED_EDGE('',*,*,#481,.F.);
#481 = EDGE_CURVE('',#373,#460,#482,.T.);
#482 = SURFACE_CURVE('',#483,(#488,#494),.PCURVE_S1.);
#483 = CIRCLE('',#484,10.15);
#484 = AXIS2_PLACEMENT_3D('',#485,#486,#487);
#485 = CARTESIAN_POINT('',(0.,0.,65.));
#486 = DIRECTION('',(0.,0.,1.));
#487 = DIRECTION('',(1.,0.,0.));
#488 = PCURVE('',#387,#489);
#489 = DEFINITIONAL_REPRESENTATION('',(#490),#493);
#490 = B_SPLINE_CURVE_WITH_KNOTS('',1,(#491,#492),.UNSPECIFIED.,.F.,.F.,
  (2,2),(4.188790204786,5.235987755983),.PIECEWISE_BEZIER_KNOTS.);
#491 = CARTESIAN_POINT('',(0.,1.));
#492 = CARTESIAN_POINT('',(25.125,1.));
#493 = ( GEOMETRIC_REPRESENTATION_CONTEXT(2) 
PARAMETRIC_REPRESENTATION_CONTEXT() REPRESENTATION_CONTEXT('2D SPACE',''
  ) );
#494 = PCURVE('',#123,#495);
#495 = DEFINITIONAL_REPRESENTATION('',(#496),#500);
#496 = CIRCLE('',#497,10.15);
#497 = AXIS2_PLACEMENT_2D('',#498,#499);
#498 = CARTESIAN_POINT('',(0.,0.));
#499 = DIRECTION('',(1.,0.));
#500 = ( GEOMETRIC_REPRESENTATION_CONTEXT(2) 
PARAMETRIC_REPRESENTATION_CONTEXT() REPRESENTATION_CONTEXT('2D SPACE',''
  ) );
#501 = ORIENTED_EDGE('',*,*,#372,.F.);
#502 = ADVANCED_FACE('',(#503),#148,.T.);
#503 = FACE_BOUND('',#504,.T.);
#504 = EDGE_LOOP('',(#505,#526,#527,#548));
#505 = ORIENTED_EDGE('',*,*,#506,.T.);
#506 = EDGE_CURVE('',#437,#22,#507,.T.);
#507 = SURFACE_CURVE('',#508,(#512,#519),.PCURVE_S1.);
#508 = LINE('',#509,#510);
#509 = CARTESIAN_POINT('',(12.5625,-21.75888827008,0.));
#510 = VECTOR('',#511,1.);
#511 = DIRECTION('',(0.5,0.866025403784,0.));
#512 = PCURVE('',#148,#513);
#513 = DEFINITIONAL_REPRESENTATION('',(#514),#518);
#514 = LINE('',#515,#516);
#515 = CARTESIAN_POINT('',(0.,0.));
#516 = VECTOR('',#517,1.);
#517 = DIRECTION('',(1.,0.));
#518 = ( GEOMETRIC_REPRESENTATION_CONTEXT(2) 
PARAMETRIC_REPRESENTATION_CONTEXT() REPRESENTATION_CONTEXT('2D SPACE',''
  ) );
#519 = PCURVE('',#56,#520);
#520 = DEFINITIONAL_REPRESENTATION('',(#521),#525);
#521 = LINE('',#522,#523);
#522 = CARTESIAN_POINT('',(12.5625,21.758888270084));
#523 = VECTOR('',#524,1.);
#524 = DIRECTION('',(-0.5,-0.866025403784));
#525 = ( GEOMETRIC_REPRESENTATION_CONTEXT(2) 
PARAMETRIC_REPRESENTATION_CONTEXT() REPRESENTATION_CONTEXT('2D SPACE',''
  ) );
#526 = ORIENTED_EDGE('',*,*,#135,.T.);
#527 = ORIENTED_EDGE('',*,*,#528,.F.);
#528 = EDGE_CURVE('',#460,#108,#529,.T.);
#529 = SURFACE_CURVE('',#530,(#535,#541),.PCURVE_S1.);
#530 = CIRCLE('',#531,10.15);
#531 = AXIS2_PLACEMENT_3D('',#532,#533,#534);
#532 = CARTESIAN_POINT('',(0.,0.,65.));
#533 = DIRECTION('',(0.,0.,1.));
#534 = DIRECTION('',(1.,0.,0.));
#535 = PCURVE('',#148,#536);
#536 = DEFINITIONAL_REPRESENTATION('',(#537),#540);
#537 = B_SPLINE_CURVE_WITH_KNOTS('',1,(#538,#539),.UNSPECIFIED.,.F.,.F.,
  (2,2),(5.235987755983,6.28318530718),.PIECEWISE_BEZIER_KNOTS.);
#538 = CARTESIAN_POINT('',(0.,1.));
#539 = CARTESIAN_POINT('',(25.125,1.));
#540 = ( GEOMETRIC_REPRESENTATION_CONTEXT(2) 
PARAMETRIC_REPRESENTATION_CONTEXT() REPRESENTATION_CONTEXT('2D SPACE',''
  ) );
#541 = PCURVE('',#123,#542);
#542 = DEFINITIONAL_REPRESENTATION('',(#543),#547);
#543 = CIRCLE('',#544,10.15);
#544 = AXIS2_PLACEMENT_2D('',#545,#546);
#545 = CARTESIAN_POINT('',(0.,0.));
#546 = DIRECTION('',(1.,0.));
#547 = ( GEOMETRIC_REPRESENTATION_CONTEXT(2) 
PARAMETRIC_REPRESENTATION_CONTEXT() REPRESENTATION_CONTEXT('2D SPACE',''
  ) );
#548 = ORIENTED_EDGE('',*,*,#459,.F.);
#549 = ADVANCED_FACE('',(#550),#56,.F.);
#550 = FACE_BOUND('',#551,.F.);
#551 = EDGE_LOOP('',(#552,#553,#554,#555,#556,#557));
#552 = ORIENTED_EDGE('',*,*,#21,.T.);
#553 = ORIENTED_EDGE('',*,*,#175,.T.);
#554 = ORIENTED_EDGE('',*,*,#262,.T.);
#555 = ORIENTED_EDGE('',*,*,#349,.T.);
#556 = ORIENTED_EDGE('',*,*,#436,.T.);
#557 = ORIENTED_EDGE('',*,*,#506,.T.);
#558 = ADVANCED_FACE('',(#559),#123,.T.);
#559 = FACE_BOUND('',#560,.T.);
#560 = EDGE_LOOP('',(#561,#562,#563,#564,#565,#566));
#561 = ORIENTED_EDGE('',*,*,#107,.T.);
#562 = ORIENTED_EDGE('',*,*,#237,.T.);
#563 = ORIENTED_EDGE('',*,*,#324,.T.);
#564 = ORIENTED_EDGE('',*,*,#411,.T.);
#565 = ORIENTED_EDGE('',*,*,#481,.T.);
#566 = ORIENTED_EDGE('',*,*,#528,.T.);
#567 = ( GEOMETRIC_REPRESENTATION_CONTEXT(3) 
GLOBAL_UNCERTAINTY_ASSIGNED_CONTEXT((#571)) GLOBAL_UNIT_ASSIGNED_CONTEXT
((#568,#569,#570)) REPRESENTATION_CONTEXT('Context #1',
  '3D Context with UNIT and UNCERTAINTY') );
#568 = ( LENGTH_UNIT() NAMED_UNIT(*) SI_UNIT(.MILLI.,.METRE.) );
#569 = ( NAMED_UNIT(*) PLANE_ANGLE_UNIT() SI_UNIT($,.RADIAN.) );
#570 = ( NAMED_UNIT(*) SI_UNIT($,.STERADIAN.) SOLID_ANGLE_UNIT() );
#571 = UNCERTAINTY_MEASURE_WITH_UNIT(LENGTH_MEASURE(1.E-07),#568,
  'distance_accuracy_value','confusion accuracy');
#572 = PRODUCT_RELATED_PRODUCT_CATEGORY('part',$,(#7));
ENDSEC;
END-ISO-10303-21;
