ISO-10303-21;
HEADER;
FILE_DESCRIPTION(('Open CASCADE Model'),'2;1');
FILE_NAME('Open CASCADE Shape Model','2026-06-10T00:30:26',('Author'),(
    'Open CASCADE'),'Open CASCADE STEP processor 7.8','Open CASCADE 7.8'
  ,'Unknown');
FILE_SCHEMA(('AUTOMOTIVE_DESIGN { 1 0 10303 214 1 1 1 1 }'));
ENDSEC;
DATA;
#1 = APPLICATION_PROTOCOL_DEFINITION('international standard',
  'automotive_design',2000,#2);
#2 = APPLICATION_CONTEXT(
  'core data for automotive mechanical design processes');
#3 = SHAPE_DEFINITION_REPRESENTATION(#4,#10);
#4 = PRODUCT_DEFINITION_SHAPE('','',#5);
#5 = PRODUCT_DEFINITION('design','',#6,#9);
#6 = PRODUCT_DEFINITION_FORMATION('','',#7);
#7 = PRODUCT('Open CASCADE STEP translator 7.8 26',
  'Open CASCADE STEP translator 7.8 26','',(#8));
#8 = PRODUCT_CONTEXT('',#2,'mechanical');
#9 = PRODUCT_DEFINITION_CONTEXT('part definition',#2,'design');
#10 = ADVANCED_BREP_SHAPE_REPRESENTATION('',(#11,#15),#671);
#11 = AXIS2_PLACEMENT_3D('',#12,#13,#14);
#12 = CARTESIAN_POINT('',(0.,0.,0.));
#13 = DIRECTION('',(0.,0.,1.));
#14 = DIRECTION('',(1.,0.,-0.));
#15 = MANIFOLD_SOLID_BREP('',#16);
#16 = CLOSED_SHELL('',(#17,#177,#386,#434,#559,#585,#611,#637,#644));
#17 = ADVANCED_FACE('',(#18),#33,.T.);
#18 = FACE_BOUND('',#19,.T.);
#19 = EDGE_LOOP('',(#20,#69,#110,#138));
#20 = ORIENTED_EDGE('',*,*,#21,.T.);
#21 = EDGE_CURVE('',#22,#24,#26,.T.);
#22 = VERTEX_POINT('',#23);
#23 = CARTESIAN_POINT('',(35.,0.,0.));
#24 = VERTEX_POINT('',#25);
#25 = CARTESIAN_POINT('',(17.5,30.310889132455,0.));
#26 = SURFACE_CURVE('',#27,(#32,#57),.PCURVE_S1.);
#27 = CIRCLE('',#28,35.);
#28 = AXIS2_PLACEMENT_3D('',#29,#30,#31);
#29 = CARTESIAN_POINT('',(0.,0.,0.));
#30 = DIRECTION('',(0.,0.,1.));
#31 = DIRECTION('',(1.,0.,0.));
#32 = PCURVE('',#33,#52);
#33 = B_SPLINE_SURFACE_WITH_KNOTS('',8,1,(
    (#34,#35)
    ,(#36,#37)
    ,(#38,#39)
    ,(#40,#41)
    ,(#42,#43)
    ,(#44,#45)
    ,(#46,#47)
    ,(#48,#49)
    ,(#50,#51
  )),.UNSPECIFIED.,.F.,.F.,.F.,(9,9),(2,2),(0.,24.65),(0.,1.),
  .PIECEWISE_BEZIER_KNOTS.);
#34 = CARTESIAN_POINT('',(35.,-3.552713678801E-15,0.));
#35 = CARTESIAN_POINT('',(24.65,0.,58.8));
#36 = CARTESIAN_POINT('',(35.,4.581489286485,0.));
#37 = CARTESIAN_POINT('',(23.109375,2.668440775411,58.8));
#38 = CARTESIAN_POINT('',(34.314610770001,9.162978640296,0.));
#39 = CARTESIAN_POINT('',(21.56875,5.336881550822,58.8));
#40 = CARTESIAN_POINT('',(32.943832588552,13.624844539237,0.));
#41 = CARTESIAN_POINT('',(20.028125,8.005322326232,58.8));
#42 = CARTESIAN_POINT('',(30.912718169335,17.847466156448,0.));
#43 = CARTESIAN_POINT('',(18.4875,10.673763101643,58.8));
#44 = CARTESIAN_POINT('',(28.271377787869,21.71777365009,0.));
#45 = CARTESIAN_POINT('',(16.946875,13.342203877054,58.8));
#46 = CARTESIAN_POINT('',(25.092677661831,25.135835327647,0.));
#47 = CARTESIAN_POINT('',(15.40625,16.010644652465,58.8));
#48 = CARTESIAN_POINT('',(21.467686109262,28.020144489213,0.));
#49 = CARTESIAN_POINT('',(13.865625,18.679085427876,58.8));
#50 = CARTESIAN_POINT('',(17.5,30.310889132455,0.));
#51 = CARTESIAN_POINT('',(12.325,21.347526203286,58.8));
#52 = DEFINITIONAL_REPRESENTATION('',(#53),#56);
#53 = B_SPLINE_CURVE_WITH_KNOTS('',1,(#54,#55),.UNSPECIFIED.,.F.,.F.,(2,
    2),(0.,1.047197551197),.PIECEWISE_BEZIER_KNOTS.);
#54 = CARTESIAN_POINT('',(0.,0.));
#55 = CARTESIAN_POINT('',(24.65,0.));
#56 = ( GEOMETRIC_REPRESENTATION_CONTEXT(2) 
PARAMETRIC_REPRESENTATION_CONTEXT() REPRESENTATION_CONTEXT('2D SPACE',''
  ) );
#57 = PCURVE('',#58,#63);
#58 = PLANE('',#59);
#59 = AXIS2_PLACEMENT_3D('',#60,#61,#62);
#60 = CARTESIAN_POINT('',(0.,0.,0.));
#61 = DIRECTION('',(0.,0.,1.));
#62 = DIRECTION('',(1.,0.,0.));
#63 = DEFINITIONAL_REPRESENTATION('',(#64),#68);
#64 = CIRCLE('',#65,35.);
#65 = AXIS2_PLACEMENT_2D('',#66,#67);
#66 = CARTESIAN_POINT('',(0.,0.));
#67 = DIRECTION('',(1.,0.));
#68 = ( GEOMETRIC_REPRESENTATION_CONTEXT(2) 
PARAMETRIC_REPRESENTATION_CONTEXT() REPRESENTATION_CONTEXT('2D SPACE',''
  ) );
#69 = ORIENTED_EDGE('',*,*,#70,.T.);
#70 = EDGE_CURVE('',#24,#71,#73,.T.);
#71 = VERTEX_POINT('',#72);
#72 = CARTESIAN_POINT('',(12.325,21.347526203286,58.8));
#73 = SURFACE_CURVE('',#74,(#77,#84),.PCURVE_S1.);
#74 = B_SPLINE_CURVE_WITH_KNOTS('',1,(#75,#76),.UNSPECIFIED.,.F.,.F.,(2,
    2),(0.,1.),.PIECEWISE_BEZIER_KNOTS.);
#75 = CARTESIAN_POINT('',(17.5,30.310889132455,0.));
#76 = CARTESIAN_POINT('',(12.325,21.347526203286,58.8));
#77 = PCURVE('',#33,#78);
#78 = DEFINITIONAL_REPRESENTATION('',(#79),#83);
#79 = LINE('',#80,#81);
#80 = CARTESIAN_POINT('',(24.65,0.));
#81 = VECTOR('',#82,1.);
#82 = DIRECTION('',(0.,1.));
#83 = ( GEOMETRIC_REPRESENTATION_CONTEXT(2) 
PARAMETRIC_REPRESENTATION_CONTEXT() REPRESENTATION_CONTEXT('2D SPACE',''
  ) );
#84 = PCURVE('',#85,#104);
#85 = B_SPLINE_SURFACE_WITH_KNOTS('',8,1,(
    (#86,#87)
    ,(#88,#89)
    ,(#90,#91)
    ,(#92,#93)
    ,(#94,#95)
    ,(#96,#97)
    ,(#98,#99)
    ,(#100,#101)
    ,(#102,#103
    )),.UNSPECIFIED.,.F.,.F.,.F.,(9,9),(2,2),(0.,24.65),(0.,1.),
  .PIECEWISE_BEZIER_KNOTS.);
#86 = CARTESIAN_POINT('',(17.5,30.310889132455,0.));
#87 = CARTESIAN_POINT('',(12.325,21.347526203286,58.8));
#88 = CARTESIAN_POINT('',(13.532313890738,32.601633775698,0.));
#89 = CARTESIAN_POINT('',(9.24375,21.347526203286,58.8));
#90 = CARTESIAN_POINT('',(9.221933108169,34.298813967943,0.));
#91 = CARTESIAN_POINT('',(6.1625,21.347526203286,58.8));
#92 = CARTESIAN_POINT('',(4.672454800683,35.342618189327,0.));
#93 = CARTESIAN_POINT('',(3.08125,21.347526203286,58.8));
#94 = CARTESIAN_POINT('',(1.7763568394E-15,35.694932312896,0.));
#95 = CARTESIAN_POINT('',(3.497202527569E-15,21.347526203286,58.8));
#96 = CARTESIAN_POINT('',(-4.672454800683,35.342618189326,0.));
#97 = CARTESIAN_POINT('',(-3.08125,21.347526203286,58.8));
#98 = CARTESIAN_POINT('',(-9.221933108169,34.298813967944,0.));
#99 = CARTESIAN_POINT('',(-6.1625,21.347526203286,58.8));
#100 = CARTESIAN_POINT('',(-13.53231389073,32.601633775698,0.));
#101 = CARTESIAN_POINT('',(-9.24375,21.347526203286,58.8));
#102 = CARTESIAN_POINT('',(-17.5,30.310889132455,0.));
#103 = CARTESIAN_POINT('',(-12.325,21.347526203286,58.8));
#104 = DEFINITIONAL_REPRESENTATION('',(#105),#109);
#105 = LINE('',#106,#107);
#106 = CARTESIAN_POINT('',(0.,0.));
#107 = VECTOR('',#108,1.);
#108 = DIRECTION('',(0.,1.));
#109 = ( GEOMETRIC_REPRESENTATION_CONTEXT(2) 
PARAMETRIC_REPRESENTATION_CONTEXT() REPRESENTATION_CONTEXT('2D SPACE',''
  ) );
#110 = ORIENTED_EDGE('',*,*,#111,.F.);
#111 = EDGE_CURVE('',#112,#71,#114,.T.);
#112 = VERTEX_POINT('',#113);
#113 = CARTESIAN_POINT('',(24.65,0.,58.8));
#114 = SURFACE_CURVE('',#115,(#119,#126),.PCURVE_S1.);
#115 = LINE('',#116,#117);
#116 = CARTESIAN_POINT('',(24.65,0.,58.8));
#117 = VECTOR('',#118,1.);
#118 = DIRECTION('',(-0.5,0.866025403784,0.));
#119 = PCURVE('',#33,#120);
#120 = DEFINITIONAL_REPRESENTATION('',(#121),#125);
#121 = LINE('',#122,#123);
#122 = CARTESIAN_POINT('',(0.,1.));
#123 = VECTOR('',#124,1.);
#124 = DIRECTION('',(1.,0.));
#125 = ( GEOMETRIC_REPRESENTATION_CONTEXT(2) 
PARAMETRIC_REPRESENTATION_CONTEXT() REPRESENTATION_CONTEXT('2D SPACE',''
  ) );
#126 = PCURVE('',#127,#132);
#127 = PLANE('',#128);
#128 = AXIS2_PLACEMENT_3D('',#129,#130,#131);
#129 = CARTESIAN_POINT('',(24.65,0.,58.8));
#130 = DIRECTION('',(0.,0.,1.));
#131 = DIRECTION('',(-1.,7.2063157785E-17,0.));
#132 = DEFINITIONAL_REPRESENTATION('',(#133),#137);
#133 = LINE('',#134,#135);
#134 = CARTESIAN_POINT('',(0.,0.));
#135 = VECTOR('',#136,1.);
#136 = DIRECTION('',(0.5,-0.866025403784));
#137 = ( GEOMETRIC_REPRESENTATION_CONTEXT(2) 
PARAMETRIC_REPRESENTATION_CONTEXT() REPRESENTATION_CONTEXT('2D SPACE',''
  ) );
#138 = ORIENTED_EDGE('',*,*,#139,.F.);
#139 = EDGE_CURVE('',#22,#112,#140,.T.);
#140 = SURFACE_CURVE('',#141,(#144,#151),.PCURVE_S1.);
#141 = B_SPLINE_CURVE_WITH_KNOTS('',1,(#142,#143),.UNSPECIFIED.,.F.,.F.,
  (2,2),(0.,1.),.PIECEWISE_BEZIER_KNOTS.);
#142 = CARTESIAN_POINT('',(35.,-3.552713678801E-15,0.));
#143 = CARTESIAN_POINT('',(24.65,0.,58.8));
#144 = PCURVE('',#33,#145);
#145 = DEFINITIONAL_REPRESENTATION('',(#146),#150);
#146 = LINE('',#147,#148);
#147 = CARTESIAN_POINT('',(0.,0.));
#148 = VECTOR('',#149,1.);
#149 = DIRECTION('',(0.,1.));
#150 = ( GEOMETRIC_REPRESENTATION_CONTEXT(2) 
PARAMETRIC_REPRESENTATION_CONTEXT() REPRESENTATION_CONTEXT('2D SPACE',''
  ) );
#151 = PCURVE('',#152,#171);
#152 = B_SPLINE_SURFACE_WITH_KNOTS('',8,1,(
    (#153,#154)
    ,(#155,#156)
    ,(#157,#158)
    ,(#159,#160)
    ,(#161,#162)
    ,(#163,#164)
    ,(#165,#166)
    ,(#167,#168)
    ,(#169,#170
    )),.UNSPECIFIED.,.F.,.F.,.F.,(9,9),(2,2),(0.,24.65),(0.,1.),
  .PIECEWISE_BEZIER_KNOTS.);
#153 = CARTESIAN_POINT('',(17.5,-30.31088913245,0.));
#154 = CARTESIAN_POINT('',(12.325,-21.34752620328,58.8));
#155 = CARTESIAN_POINT('',(21.467686109262,-28.02014448921,0.));
#156 = CARTESIAN_POINT('',(13.865625,-18.67908542787,58.8));
#157 = CARTESIAN_POINT('',(25.092677661832,-25.13583532764,0.));
#158 = CARTESIAN_POINT('',(15.40625,-16.01064465246,58.8));
#159 = CARTESIAN_POINT('',(28.271377787868,-21.71777365008,0.));
#160 = CARTESIAN_POINT('',(16.946875,-13.34220387705,58.8));
#161 = CARTESIAN_POINT('',(30.912718169336,-17.84746615644,0.));
#162 = CARTESIAN_POINT('',(18.4875,-10.67376310164,58.8));
#163 = CARTESIAN_POINT('',(32.943832588551,-13.62484453923,0.));
#164 = CARTESIAN_POINT('',(20.028125,-8.005322326232,58.8));
#165 = CARTESIAN_POINT('',(34.314610770001,-9.162978640297,0.));
#166 = CARTESIAN_POINT('',(21.56875,-5.336881550822,58.8));
#167 = CARTESIAN_POINT('',(35.,-4.581489286485,0.));
#168 = CARTESIAN_POINT('',(23.109375,-2.668440775411,58.8));
#169 = CARTESIAN_POINT('',(35.,-1.06581410364E-14,0.));
#170 = CARTESIAN_POINT('',(24.65,3.552713678801E-15,58.8));
#171 = DEFINITIONAL_REPRESENTATION('',(#172),#176);
#172 = LINE('',#173,#174);
#173 = CARTESIAN_POINT('',(24.65,0.));
#174 = VECTOR('',#175,1.);
#175 = DIRECTION('',(0.,1.));
#176 = ( GEOMETRIC_REPRESENTATION_CONTEXT(2) 
PARAMETRIC_REPRESENTATION_CONTEXT() REPRESENTATION_CONTEXT('2D SPACE',''
  ) );
#177 = ADVANCED_FACE('',(#178,#351),#58,.F.);
#178 = FACE_BOUND('',#179,.F.);
#179 = EDGE_LOOP('',(#180,#181,#204,#246,#288,#330));
#180 = ORIENTED_EDGE('',*,*,#21,.T.);
#181 = ORIENTED_EDGE('',*,*,#182,.T.);
#182 = EDGE_CURVE('',#24,#183,#185,.T.);
#183 = VERTEX_POINT('',#184);
#184 = CARTESIAN_POINT('',(-17.5,30.310889132455,0.));
#185 = SURFACE_CURVE('',#186,(#191,#198),.PCURVE_S1.);
#186 = CIRCLE('',#187,35.);
#187 = AXIS2_PLACEMENT_3D('',#188,#189,#190);
#188 = CARTESIAN_POINT('',(0.,0.,0.));
#189 = DIRECTION('',(0.,0.,1.));
#190 = DIRECTION('',(1.,0.,0.));
#191 = PCURVE('',#58,#192);
#192 = DEFINITIONAL_REPRESENTATION('',(#193),#197);
#193 = CIRCLE('',#194,35.);
#194 = AXIS2_PLACEMENT_2D('',#195,#196);
#195 = CARTESIAN_POINT('',(0.,0.));
#196 = DIRECTION('',(1.,0.));
#197 = ( GEOMETRIC_REPRESENTATION_CONTEXT(2) 
PARAMETRIC_REPRESENTATION_CONTEXT() REPRESENTATION_CONTEXT('2D SPACE',''
  ) );
#198 = PCURVE('',#85,#199);
#199 = DEFINITIONAL_REPRESENTATION('',(#200),#203);
#200 = B_SPLINE_CURVE_WITH_KNOTS('',1,(#201,#202),.UNSPECIFIED.,.F.,.F.,
  (2,2),(1.047197551197,2.094395102393),.PIECEWISE_BEZIER_KNOTS.);
#201 = CARTESIAN_POINT('',(0.,0.));
#202 = CARTESIAN_POINT('',(24.65,0.));
#203 = ( GEOMETRIC_REPRESENTATION_CONTEXT(2) 
PARAMETRIC_REPRESENTATION_CONTEXT() REPRESENTATION_CONTEXT('2D SPACE',''
  ) );
#204 = ORIENTED_EDGE('',*,*,#205,.T.);
#205 = EDGE_CURVE('',#183,#206,#208,.T.);
#206 = VERTEX_POINT('',#207);
#207 = CARTESIAN_POINT('',(-35.,4.286263797016E-15,0.));
#208 = SURFACE_CURVE('',#209,(#214,#221),.PCURVE_S1.);
#209 = CIRCLE('',#210,35.);
#210 = AXIS2_PLACEMENT_3D('',#211,#212,#213);
#211 = CARTESIAN_POINT('',(0.,0.,0.));
#212 = DIRECTION('',(0.,0.,1.));
#213 = DIRECTION('',(1.,0.,0.));
#214 = PCURVE('',#58,#215);
#215 = DEFINITIONAL_REPRESENTATION('',(#216),#220);
#216 = CIRCLE('',#217,35.);
#217 = AXIS2_PLACEMENT_2D('',#218,#219);
#218 = CARTESIAN_POINT('',(0.,0.));
#219 = DIRECTION('',(1.,0.));
#220 = ( GEOMETRIC_REPRESENTATION_CONTEXT(2) 
PARAMETRIC_REPRESENTATION_CONTEXT() REPRESENTATION_CONTEXT('2D SPACE',''
  ) );
#221 = PCURVE('',#222,#241);
#222 = B_SPLINE_SURFACE_WITH_KNOTS('',8,1,(
    (#223,#224)
    ,(#225,#226)
    ,(#227,#228)
    ,(#229,#230)
    ,(#231,#232)
    ,(#233,#234)
    ,(#235,#236)
    ,(#237,#238)
    ,(#239,#240
    )),.UNSPECIFIED.,.F.,.F.,.F.,(9,9),(2,2),(0.,24.65),(0.,1.),
  .PIECEWISE_BEZIER_KNOTS.);
#223 = CARTESIAN_POINT('',(-17.5,30.310889132455,0.));
#224 = CARTESIAN_POINT('',(-12.325,21.347526203286,58.8));
#225 = CARTESIAN_POINT('',(-21.46768610926,28.020144489213,0.));
#226 = CARTESIAN_POINT('',(-13.865625,18.679085427876,58.8));
#227 = CARTESIAN_POINT('',(-25.09267766183,25.135835327646,0.));
#228 = CARTESIAN_POINT('',(-15.40625,16.010644652465,58.8));
#229 = CARTESIAN_POINT('',(-28.27137778787,21.717773650091,0.));
#230 = CARTESIAN_POINT('',(-16.946875,13.342203877054,58.8));
#231 = CARTESIAN_POINT('',(-30.91271816933,17.847466156447,0.));
#232 = CARTESIAN_POINT('',(-18.4875,10.673763101643,58.8));
#233 = CARTESIAN_POINT('',(-32.94383258855,13.624844539238,0.));
#234 = CARTESIAN_POINT('',(-20.028125,8.005322326232,58.8));
#235 = CARTESIAN_POINT('',(-34.31461077,9.162978640296,0.));
#236 = CARTESIAN_POINT('',(-21.56875,5.336881550822,58.8));
#237 = CARTESIAN_POINT('',(-35.,4.581489286485,0.));
#238 = CARTESIAN_POINT('',(-23.109375,2.668440775411,58.8));
#239 = CARTESIAN_POINT('',(-35.,0.,0.));
#240 = CARTESIAN_POINT('',(-24.65,3.552713678801E-15,58.8));
#241 = DEFINITIONAL_REPRESENTATION('',(#242),#245);
#242 = B_SPLINE_CURVE_WITH_KNOTS('',1,(#243,#244),.UNSPECIFIED.,.F.,.F.,
  (2,2),(2.094395102393,3.14159265359),.PIECEWISE_BEZIER_KNOTS.);
#243 = CARTESIAN_POINT('',(0.,0.));
#244 = CARTESIAN_POINT('',(24.65,0.));
#245 = ( GEOMETRIC_REPRESENTATION_CONTEXT(2) 
PARAMETRIC_REPRESENTATION_CONTEXT() REPRESENTATION_CONTEXT('2D SPACE',''
  ) );
#246 = ORIENTED_EDGE('',*,*,#247,.T.);
#247 = EDGE_CURVE('',#206,#248,#250,.T.);
#248 = VERTEX_POINT('',#249);
#249 = CARTESIAN_POINT('',(-17.5,-30.31088913245,0.));
#250 = SURFACE_CURVE('',#251,(#256,#263),.PCURVE_S1.);
#251 = CIRCLE('',#252,35.);
#252 = AXIS2_PLACEMENT_3D('',#253,#254,#255);
#253 = CARTESIAN_POINT('',(0.,0.,0.));
#254 = DIRECTION('',(0.,0.,1.));
#255 = DIRECTION('',(1.,0.,0.));
#256 = PCURVE('',#58,#257);
#257 = DEFINITIONAL_REPRESENTATION('',(#258),#262);
#258 = CIRCLE('',#259,35.);
#259 = AXIS2_PLACEMENT_2D('',#260,#261);
#260 = CARTESIAN_POINT('',(0.,0.));
#261 = DIRECTION('',(1.,0.));
#262 = ( GEOMETRIC_REPRESENTATION_CONTEXT(2) 
PARAMETRIC_REPRESENTATION_CONTEXT() REPRESENTATION_CONTEXT('2D SPACE',''
  ) );
#263 = PCURVE('',#264,#283);
#264 = B_SPLINE_SURFACE_WITH_KNOTS('',8,1,(
    (#265,#266)
    ,(#267,#268)
    ,(#269,#270)
    ,(#271,#272)
    ,(#273,#274)
    ,(#275,#276)
    ,(#277,#278)
    ,(#279,#280)
    ,(#281,#282
    )),.UNSPECIFIED.,.F.,.F.,.F.,(9,9),(2,2),(0.,24.65),(0.,1.),
  .PIECEWISE_BEZIER_KNOTS.);
#265 = CARTESIAN_POINT('',(-35.,7.105427357601E-15,0.));
#266 = CARTESIAN_POINT('',(-24.65,3.018754359898E-15,58.8));
#267 = CARTESIAN_POINT('',(-35.,-4.581489286485,0.));
#268 = CARTESIAN_POINT('',(-23.109375,-2.668440775411,58.8));
#269 = CARTESIAN_POINT('',(-34.31461077,-9.162978640297,0.));
#270 = CARTESIAN_POINT('',(-21.56875,-5.336881550822,58.8));
#271 = CARTESIAN_POINT('',(-32.94383258855,-13.62484453923,0.));
#272 = CARTESIAN_POINT('',(-20.028125,-8.005322326232,58.8));
#273 = CARTESIAN_POINT('',(-30.91271816933,-17.84746615644,0.));
#274 = CARTESIAN_POINT('',(-18.4875,-10.67376310164,58.8));
#275 = CARTESIAN_POINT('',(-28.27137778786,-21.71777365008,0.));
#276 = CARTESIAN_POINT('',(-16.946875,-13.34220387705,58.8));
#277 = CARTESIAN_POINT('',(-25.09267766183,-25.13583532764,0.));
#278 = CARTESIAN_POINT('',(-15.40625,-16.01064465246,58.8));
#279 = CARTESIAN_POINT('',(-21.46768610926,-28.02014448921,0.));
#280 = CARTESIAN_POINT('',(-13.865625,-18.67908542787,58.8));
#281 = CARTESIAN_POINT('',(-17.5,-30.31088913245,0.));
#282 = CARTESIAN_POINT('',(-12.325,-21.34752620328,58.8));
#283 = DEFINITIONAL_REPRESENTATION('',(#284),#287);
#284 = B_SPLINE_CURVE_WITH_KNOTS('',1,(#285,#286),.UNSPECIFIED.,.F.,.F.,
  (2,2),(3.14159265359,4.188790204786),.PIECEWISE_BEZIER_KNOTS.);
#285 = CARTESIAN_POINT('',(0.,0.));
#286 = CARTESIAN_POINT('',(24.65,0.));
#287 = ( GEOMETRIC_REPRESENTATION_CONTEXT(2) 
PARAMETRIC_REPRESENTATION_CONTEXT() REPRESENTATION_CONTEXT('2D SPACE',''
  ) );
#288 = ORIENTED_EDGE('',*,*,#289,.T.);
#289 = EDGE_CURVE('',#248,#290,#292,.T.);
#290 = VERTEX_POINT('',#291);
#291 = CARTESIAN_POINT('',(17.5,-30.31088913245,0.));
#292 = SURFACE_CURVE('',#293,(#298,#305),.PCURVE_S1.);
#293 = CIRCLE('',#294,35.);
#294 = AXIS2_PLACEMENT_3D('',#295,#296,#297);
#295 = CARTESIAN_POINT('',(0.,0.,0.));
#296 = DIRECTION('',(0.,0.,1.));
#297 = DIRECTION('',(1.,0.,0.));
#298 = PCURVE('',#58,#299);
#299 = DEFINITIONAL_REPRESENTATION('',(#300),#304);
#300 = CIRCLE('',#301,35.);
#301 = AXIS2_PLACEMENT_2D('',#302,#303);
#302 = CARTESIAN_POINT('',(0.,0.));
#303 = DIRECTION('',(1.,0.));
#304 = ( GEOMETRIC_REPRESENTATION_CONTEXT(2) 
PARAMETRIC_REPRESENTATION_CONTEXT() REPRESENTATION_CONTEXT('2D SPACE',''
  ) );
#305 = PCURVE('',#306,#325);
#306 = B_SPLINE_SURFACE_WITH_KNOTS('',8,1,(
    (#307,#308)
    ,(#309,#310)
    ,(#311,#312)
    ,(#313,#314)
    ,(#315,#316)
    ,(#317,#318)
    ,(#319,#320)
    ,(#321,#322)
    ,(#323,#324
    )),.UNSPECIFIED.,.F.,.F.,.F.,(9,9),(2,2),(0.,24.65),(0.,1.),
  .PIECEWISE_BEZIER_KNOTS.);
#307 = CARTESIAN_POINT('',(-17.5,-30.31088913245,0.));
#308 = CARTESIAN_POINT('',(-12.325,-21.34752620328,58.8));
#309 = CARTESIAN_POINT('',(-13.53231389073,-32.60163377569,0.));
#310 = CARTESIAN_POINT('',(-9.24375,-21.34752620328,58.8));
#311 = CARTESIAN_POINT('',(-9.221933108169,-34.29881396794,0.));
#312 = CARTESIAN_POINT('',(-6.1625,-21.34752620328,58.8));
#313 = CARTESIAN_POINT('',(-4.672454800683,-35.34261818932,0.));
#314 = CARTESIAN_POINT('',(-3.08125,-21.34752620328,58.8));
#315 = CARTESIAN_POINT('',(-9.503509090791E-14,-35.69493231289,0.));
#316 = CARTESIAN_POINT('',(-1.43773881689E-14,-21.34752620328,58.8));
#317 = CARTESIAN_POINT('',(4.672454800683,-35.34261818932,0.));
#318 = CARTESIAN_POINT('',(3.08125,-21.34752620328,58.8));
#319 = CARTESIAN_POINT('',(9.221933108169,-34.29881396794,0.));
#320 = CARTESIAN_POINT('',(6.1625,-21.34752620328,58.8));
#321 = CARTESIAN_POINT('',(13.532313890738,-32.60163377569,0.));
#322 = CARTESIAN_POINT('',(9.24375,-21.34752620328,58.8));
#323 = CARTESIAN_POINT('',(17.5,-30.31088913245,0.));
#324 = CARTESIAN_POINT('',(12.325,-21.34752620328,58.8));
#325 = DEFINITIONAL_REPRESENTATION('',(#326),#329);
#326 = B_SPLINE_CURVE_WITH_KNOTS('',1,(#327,#328),.UNSPECIFIED.,.F.,.F.,
  (2,2),(4.188790204786,5.235987755983),.PIECEWISE_BEZIER_KNOTS.);
#327 = CARTESIAN_POINT('',(0.,0.));
#328 = CARTESIAN_POINT('',(24.65,0.));
#329 = ( GEOMETRIC_REPRESENTATION_CONTEXT(2) 
PARAMETRIC_REPRESENTATION_CONTEXT() REPRESENTATION_CONTEXT('2D SPACE',''
  ) );
#330 = ORIENTED_EDGE('',*,*,#331,.T.);
#331 = EDGE_CURVE('',#290,#22,#332,.T.);
#332 = SURFACE_CURVE('',#333,(#338,#345),.PCURVE_S1.);
#333 = CIRCLE('',#334,35.);
#334 = AXIS2_PLACEMENT_3D('',#335,#336,#337);
#335 = CARTESIAN_POINT('',(0.,0.,0.));
#336 = DIRECTION('',(0.,0.,1.));
#337 = DIRECTION('',(1.,0.,0.));
#338 = PCURVE('',#58,#339);
#339 = DEFINITIONAL_REPRESENTATION('',(#340),#344);
#340 = CIRCLE('',#341,35.);
#341 = AXIS2_PLACEMENT_2D('',#342,#343);
#342 = CARTESIAN_POINT('',(0.,0.));
#343 = DIRECTION('',(1.,0.));
#344 = ( GEOMETRIC_REPRESENTATION_CONTEXT(2) 
PARAMETRIC_REPRESENTATION_CONTEXT() REPRESENTATION_CONTEXT('2D SPACE',''
  ) );
#345 = PCURVE('',#152,#346);
#346 = DEFINITIONAL_REPRESENTATION('',(#347),#350);
#347 = B_SPLINE_CURVE_WITH_KNOTS('',1,(#348,#349),.UNSPECIFIED.,.F.,.F.,
  (2,2),(5.235987755983,6.28318530718),.PIECEWISE_BEZIER_KNOTS.);
#348 = CARTESIAN_POINT('',(0.,0.));
#349 = CARTESIAN_POINT('',(24.65,0.));
#350 = ( GEOMETRIC_REPRESENTATION_CONTEXT(2) 
PARAMETRIC_REPRESENTATION_CONTEXT() REPRESENTATION_CONTEXT('2D SPACE',''
  ) );
#351 = FACE_BOUND('',#352,.F.);
#352 = EDGE_LOOP('',(#353));
#353 = ORIENTED_EDGE('',*,*,#354,.T.);
#354 = EDGE_CURVE('',#355,#355,#357,.T.);
#355 = VERTEX_POINT('',#356);
#356 = CARTESIAN_POINT('',(-12.65,-3.098356401843E-15,0.));
#357 = SURFACE_CURVE('',#358,(#363,#374),.PCURVE_S1.);
#358 = CIRCLE('',#359,12.65);
#359 = AXIS2_PLACEMENT_3D('',#360,#361,#362);
#360 = CARTESIAN_POINT('',(0.,0.,0.));
#361 = DIRECTION('',(0.,0.,-1.));
#362 = DIRECTION('',(-1.,0.,0.));
#363 = PCURVE('',#58,#364);
#364 = DEFINITIONAL_REPRESENTATION('',(#365),#373);
#365 = ( BOUNDED_CURVE() B_SPLINE_CURVE(2,(#366,#367,#368,#369,#370,#371
,#372),.UNSPECIFIED.,.T.,.F.) B_SPLINE_CURVE_WITH_KNOTS((1,2,2,2,2,1),(
    -2.094395102393,0.,2.094395102393,4.188790204786,6.28318530718,
8.377580409573),.UNSPECIFIED.) CURVE() GEOMETRIC_REPRESENTATION_ITEM() 
RATIONAL_B_SPLINE_CURVE((1.,0.5,1.,0.5,1.,0.5,1.)) REPRESENTATION_ITEM(
  '') );
#366 = CARTESIAN_POINT('',(-12.65,0.));
#367 = CARTESIAN_POINT('',(-12.65,21.910442715746));
#368 = CARTESIAN_POINT('',(6.325,10.955221357873));
#369 = CARTESIAN_POINT('',(25.3,3.098356401843E-15));
#370 = CARTESIAN_POINT('',(6.325,-10.95522135787));
#371 = CARTESIAN_POINT('',(-12.65,-21.91044271574));
#372 = CARTESIAN_POINT('',(-12.65,0.));
#373 = ( GEOMETRIC_REPRESENTATION_CONTEXT(2) 
PARAMETRIC_REPRESENTATION_CONTEXT() REPRESENTATION_CONTEXT('2D SPACE',''
  ) );
#374 = PCURVE('',#375,#380);
#375 = CYLINDRICAL_SURFACE('',#376,12.65);
#376 = AXIS2_PLACEMENT_3D('',#377,#378,#379);
#377 = CARTESIAN_POINT('',(0.,0.,58.8));
#378 = DIRECTION('',(0.,0.,-1.));
#379 = DIRECTION('',(-1.,0.,0.));
#380 = DEFINITIONAL_REPRESENTATION('',(#381),#385);
#381 = LINE('',#382,#383);
#382 = CARTESIAN_POINT('',(0.,58.8));
#383 = VECTOR('',#384,1.);
#384 = DIRECTION('',(1.,0.));
#385 = ( GEOMETRIC_REPRESENTATION_CONTEXT(2) 
PARAMETRIC_REPRESENTATION_CONTEXT() REPRESENTATION_CONTEXT('2D SPACE',''
  ) );
#386 = ADVANCED_FACE('',(#387),#85,.T.);
#387 = FACE_BOUND('',#388,.T.);
#388 = EDGE_LOOP('',(#389,#390,#412,#433));
#389 = ORIENTED_EDGE('',*,*,#182,.T.);
#390 = ORIENTED_EDGE('',*,*,#391,.T.);
#391 = EDGE_CURVE('',#183,#392,#394,.T.);
#392 = VERTEX_POINT('',#393);
#393 = CARTESIAN_POINT('',(-12.325,21.347526203286,58.8));
#394 = SURFACE_CURVE('',#395,(#398,#405),.PCURVE_S1.);
#395 = B_SPLINE_CURVE_WITH_KNOTS('',1,(#396,#397),.UNSPECIFIED.,.F.,.F.,
  (2,2),(0.,1.),.PIECEWISE_BEZIER_KNOTS.);
#396 = CARTESIAN_POINT('',(-17.5,30.310889132455,0.));
#397 = CARTESIAN_POINT('',(-12.325,21.347526203286,58.8));
#398 = PCURVE('',#85,#399);
#399 = DEFINITIONAL_REPRESENTATION('',(#400),#404);
#400 = LINE('',#401,#402);
#401 = CARTESIAN_POINT('',(24.65,0.));
#402 = VECTOR('',#403,1.);
#403 = DIRECTION('',(0.,1.));
#404 = ( GEOMETRIC_REPRESENTATION_CONTEXT(2) 
PARAMETRIC_REPRESENTATION_CONTEXT() REPRESENTATION_CONTEXT('2D SPACE',''
  ) );
#405 = PCURVE('',#222,#406);
#406 = DEFINITIONAL_REPRESENTATION('',(#407),#411);
#407 = LINE('',#408,#409);
#408 = CARTESIAN_POINT('',(0.,0.));
#409 = VECTOR('',#410,1.);
#410 = DIRECTION('',(0.,1.));
#411 = ( GEOMETRIC_REPRESENTATION_CONTEXT(2) 
PARAMETRIC_REPRESENTATION_CONTEXT() REPRESENTATION_CONTEXT('2D SPACE',''
  ) );
#412 = ORIENTED_EDGE('',*,*,#413,.F.);
#413 = EDGE_CURVE('',#71,#392,#414,.T.);
#414 = SURFACE_CURVE('',#415,(#419,#426),.PCURVE_S1.);
#415 = LINE('',#416,#417);
#416 = CARTESIAN_POINT('',(12.325,21.347526203286,58.8));
#417 = VECTOR('',#418,1.);
#418 = DIRECTION('',(-1.,1.4412631557E-16,0.));
#419 = PCURVE('',#85,#420);
#420 = DEFINITIONAL_REPRESENTATION('',(#421),#425);
#421 = LINE('',#422,#423);
#422 = CARTESIAN_POINT('',(0.,1.));
#423 = VECTOR('',#424,1.);
#424 = DIRECTION('',(1.,0.));
#425 = ( GEOMETRIC_REPRESENTATION_CONTEXT(2) 
PARAMETRIC_REPRESENTATION_CONTEXT() REPRESENTATION_CONTEXT('2D SPACE',''
  ) );
#426 = PCURVE('',#127,#427);
#427 = DEFINITIONAL_REPRESENTATION('',(#428),#432);
#428 = LINE('',#429,#430);
#429 = CARTESIAN_POINT('',(12.325,-21.34752620328));
#430 = VECTOR('',#431,1.);
#431 = DIRECTION('',(1.,-7.2063157785E-17));
#432 = ( GEOMETRIC_REPRESENTATION_CONTEXT(2) 
PARAMETRIC_REPRESENTATION_CONTEXT() REPRESENTATION_CONTEXT('2D SPACE',''
  ) );
#433 = ORIENTED_EDGE('',*,*,#70,.F.);
#434 = ADVANCED_FACE('',(#435,#529),#127,.T.);
#435 = FACE_BOUND('',#436,.T.);
#436 = EDGE_LOOP('',(#437,#438,#439,#462,#485,#508));
#437 = ORIENTED_EDGE('',*,*,#111,.T.);
#438 = ORIENTED_EDGE('',*,*,#413,.T.);
#439 = ORIENTED_EDGE('',*,*,#440,.T.);
#440 = EDGE_CURVE('',#392,#441,#443,.T.);
#441 = VERTEX_POINT('',#442);
#442 = CARTESIAN_POINT('',(-24.65,3.018754359898E-15,58.8));
#443 = SURFACE_CURVE('',#444,(#448,#455),.PCURVE_S1.);
#444 = LINE('',#445,#446);
#445 = CARTESIAN_POINT('',(-12.325,21.347526203286,58.8));
#446 = VECTOR('',#447,1.);
#447 = DIRECTION('',(-0.5,-0.866025403784,0.));
#448 = PCURVE('',#127,#449);
#449 = DEFINITIONAL_REPRESENTATION('',(#450),#454);
#450 = LINE('',#451,#452);
#451 = CARTESIAN_POINT('',(36.975,-21.34752620328));
#452 = VECTOR('',#453,1.);
#453 = DIRECTION('',(0.5,0.866025403784));
#454 = ( GEOMETRIC_REPRESENTATION_CONTEXT(2) 
PARAMETRIC_REPRESENTATION_CONTEXT() REPRESENTATION_CONTEXT('2D SPACE',''
  ) );
#455 = PCURVE('',#222,#456);
#456 = DEFINITIONAL_REPRESENTATION('',(#457),#461);
#457 = LINE('',#458,#459);
#458 = CARTESIAN_POINT('',(0.,1.));
#459 = VECTOR('',#460,1.);
#460 = DIRECTION('',(1.,0.));
#461 = ( GEOMETRIC_REPRESENTATION_CONTEXT(2) 
PARAMETRIC_REPRESENTATION_CONTEXT() REPRESENTATION_CONTEXT('2D SPACE',''
  ) );
#462 = ORIENTED_EDGE('',*,*,#463,.T.);
#463 = EDGE_CURVE('',#441,#464,#466,.T.);
#464 = VERTEX_POINT('',#465);
#465 = CARTESIAN_POINT('',(-12.325,-21.34752620328,58.8));
#466 = SURFACE_CURVE('',#467,(#471,#478),.PCURVE_S1.);
#467 = LINE('',#468,#469);
#468 = CARTESIAN_POINT('',(-24.65,3.018754359898E-15,58.8));
#469 = VECTOR('',#470,1.);
#470 = DIRECTION('',(0.5,-0.866025403784,0.));
#471 = PCURVE('',#127,#472);
#472 = DEFINITIONAL_REPRESENTATION('',(#473),#477);
#473 = LINE('',#474,#475);
#474 = CARTESIAN_POINT('',(49.3,5.339593189023E-16));
#475 = VECTOR('',#476,1.);
#476 = DIRECTION('',(-0.5,0.866025403784));
#477 = ( GEOMETRIC_REPRESENTATION_CONTEXT(2) 
PARAMETRIC_REPRESENTATION_CONTEXT() REPRESENTATION_CONTEXT('2D SPACE',''
  ) );
#478 = PCURVE('',#264,#479);
#479 = DEFINITIONAL_REPRESENTATION('',(#480),#484);
#480 = LINE('',#481,#482);
#481 = CARTESIAN_POINT('',(0.,1.));
#482 = VECTOR('',#483,1.);
#483 = DIRECTION('',(1.,0.));
#484 = ( GEOMETRIC_REPRESENTATION_CONTEXT(2) 
PARAMETRIC_REPRESENTATION_CONTEXT() REPRESENTATION_CONTEXT('2D SPACE',''
  ) );
#485 = ORIENTED_EDGE('',*,*,#486,.T.);
#486 = EDGE_CURVE('',#464,#487,#489,.T.);
#487 = VERTEX_POINT('',#488);
#488 = CARTESIAN_POINT('',(12.325,-21.34752620328,58.8));
#489 = SURFACE_CURVE('',#490,(#494,#501),.PCURVE_S1.);
#490 = LINE('',#491,#492);
#491 = CARTESIAN_POINT('',(-12.325,-21.34752620328,58.8));
#492 = VECTOR('',#493,1.);
#493 = DIRECTION('',(1.,-7.2063157785E-16,0.));
#494 = PCURVE('',#127,#495);
#495 = DEFINITIONAL_REPRESENTATION('',(#496),#500);
#496 = LINE('',#497,#498);
#497 = CARTESIAN_POINT('',(36.975,21.347526203286));
#498 = VECTOR('',#499,1.);
#499 = DIRECTION('',(-1.,6.48568420065E-16));
#500 = ( GEOMETRIC_REPRESENTATION_CONTEXT(2) 
PARAMETRIC_REPRESENTATION_CONTEXT() REPRESENTATION_CONTEXT('2D SPACE',''
  ) );
#501 = PCURVE('',#306,#502);
#502 = DEFINITIONAL_REPRESENTATION('',(#503),#507);
#503 = LINE('',#504,#505);
#504 = CARTESIAN_POINT('',(0.,1.));
#505 = VECTOR('',#506,1.);
#506 = DIRECTION('',(1.,0.));
#507 = ( GEOMETRIC_REPRESENTATION_CONTEXT(2) 
PARAMETRIC_REPRESENTATION_CONTEXT() REPRESENTATION_CONTEXT('2D SPACE',''
  ) );
#508 = ORIENTED_EDGE('',*,*,#509,.T.);
#509 = EDGE_CURVE('',#487,#112,#510,.T.);
#510 = SURFACE_CURVE('',#511,(#515,#522),.PCURVE_S1.);
#511 = LINE('',#512,#513);
#512 = CARTESIAN_POINT('',(12.325,-21.34752620328,58.8));
#513 = VECTOR('',#514,1.);
#514 = DIRECTION('',(0.5,0.866025403784,0.));
#515 = PCURVE('',#127,#516);
#516 = DEFINITIONAL_REPRESENTATION('',(#517),#521);
#517 = LINE('',#518,#519);
#518 = CARTESIAN_POINT('',(12.325,21.347526203286));
#519 = VECTOR('',#520,1.);
#520 = DIRECTION('',(-0.5,-0.866025403784));
#521 = ( GEOMETRIC_REPRESENTATION_CONTEXT(2) 
PARAMETRIC_REPRESENTATION_CONTEXT() REPRESENTATION_CONTEXT('2D SPACE',''
  ) );
#522 = PCURVE('',#152,#523);
#523 = DEFINITIONAL_REPRESENTATION('',(#524),#528);
#524 = LINE('',#525,#526);
#525 = CARTESIAN_POINT('',(0.,1.));
#526 = VECTOR('',#527,1.);
#527 = DIRECTION('',(1.,0.));
#528 = ( GEOMETRIC_REPRESENTATION_CONTEXT(2) 
PARAMETRIC_REPRESENTATION_CONTEXT() REPRESENTATION_CONTEXT('2D SPACE',''
  ) );
#529 = FACE_BOUND('',#530,.T.);
#530 = EDGE_LOOP('',(#531));
#531 = ORIENTED_EDGE('',*,*,#532,.T.);
#532 = EDGE_CURVE('',#533,#533,#535,.T.);
#533 = VERTEX_POINT('',#534);
#534 = CARTESIAN_POINT('',(-12.65,-3.098356401843E-15,58.8));
#535 = SURFACE_CURVE('',#536,(#541,#552),.PCURVE_S1.);
#536 = CIRCLE('',#537,12.65);
#537 = AXIS2_PLACEMENT_3D('',#538,#539,#540);
#538 = CARTESIAN_POINT('',(0.,0.,58.8));
#539 = DIRECTION('',(0.,0.,-1.));
#540 = DIRECTION('',(-1.,0.,0.));
#541 = PCURVE('',#127,#542);
#542 = DEFINITIONAL_REPRESENTATION('',(#543),#551);
#543 = ( BOUNDED_CURVE() B_SPLINE_CURVE(2,(#544,#545,#546,#547,#548,#549
,#550),.UNSPECIFIED.,.T.,.F.) B_SPLINE_CURVE_WITH_KNOTS((1,2,2,2,2,1),(
    -2.094395102393,0.,2.094395102393,4.188790204786,6.28318530718,
8.377580409573),.UNSPECIFIED.) CURVE() GEOMETRIC_REPRESENTATION_ITEM() 
RATIONAL_B_SPLINE_CURVE((1.,0.5,1.,0.5,1.,0.5,1.)) REPRESENTATION_ITEM(
  '') );
#544 = CARTESIAN_POINT('',(37.3,2.687955785381E-15));
#545 = CARTESIAN_POINT('',(37.3,-21.91044271574));
#546 = CARTESIAN_POINT('',(18.325,-10.95522135787));
#547 = CARTESIAN_POINT('',(-0.65,-3.145197454403E-15));
#548 = CARTESIAN_POINT('',(18.325,10.955221357873));
#549 = CARTESIAN_POINT('',(37.3,21.910442715746));
#550 = CARTESIAN_POINT('',(37.3,2.687955785381E-15));
#551 = ( GEOMETRIC_REPRESENTATION_CONTEXT(2) 
PARAMETRIC_REPRESENTATION_CONTEXT() REPRESENTATION_CONTEXT('2D SPACE',''
  ) );
#552 = PCURVE('',#375,#553);
#553 = DEFINITIONAL_REPRESENTATION('',(#554),#558);
#554 = LINE('',#555,#556);
#555 = CARTESIAN_POINT('',(0.,0.));
#556 = VECTOR('',#557,1.);
#557 = DIRECTION('',(1.,0.));
#558 = ( GEOMETRIC_REPRESENTATION_CONTEXT(2) 
PARAMETRIC_REPRESENTATION_CONTEXT() REPRESENTATION_CONTEXT('2D SPACE',''
  ) );
#559 = ADVANCED_FACE('',(#560),#152,.T.);
#560 = FACE_BOUND('',#561,.T.);
#561 = EDGE_LOOP('',(#562,#563,#564,#565));
#562 = ORIENTED_EDGE('',*,*,#331,.T.);
#563 = ORIENTED_EDGE('',*,*,#139,.T.);
#564 = ORIENTED_EDGE('',*,*,#509,.F.);
#565 = ORIENTED_EDGE('',*,*,#566,.F.);
#566 = EDGE_CURVE('',#290,#487,#567,.T.);
#567 = SURFACE_CURVE('',#568,(#571,#578),.PCURVE_S1.);
#568 = B_SPLINE_CURVE_WITH_KNOTS('',1,(#569,#570),.UNSPECIFIED.,.F.,.F.,
  (2,2),(0.,1.),.PIECEWISE_BEZIER_KNOTS.);
#569 = CARTESIAN_POINT('',(17.5,-30.31088913245,0.));
#570 = CARTESIAN_POINT('',(12.325,-21.34752620328,58.8));
#571 = PCURVE('',#152,#572);
#572 = DEFINITIONAL_REPRESENTATION('',(#573),#577);
#573 = LINE('',#574,#575);
#574 = CARTESIAN_POINT('',(0.,0.));
#575 = VECTOR('',#576,1.);
#576 = DIRECTION('',(0.,1.));
#577 = ( GEOMETRIC_REPRESENTATION_CONTEXT(2) 
PARAMETRIC_REPRESENTATION_CONTEXT() REPRESENTATION_CONTEXT('2D SPACE',''
  ) );
#578 = PCURVE('',#306,#579);
#579 = DEFINITIONAL_REPRESENTATION('',(#580),#584);
#580 = LINE('',#581,#582);
#581 = CARTESIAN_POINT('',(24.65,0.));
#582 = VECTOR('',#583,1.);
#583 = DIRECTION('',(0.,1.));
#584 = ( GEOMETRIC_REPRESENTATION_CONTEXT(2) 
PARAMETRIC_REPRESENTATION_CONTEXT() REPRESENTATION_CONTEXT('2D SPACE',''
  ) );
#585 = ADVANCED_FACE('',(#586),#306,.T.);
#586 = FACE_BOUND('',#587,.T.);
#587 = EDGE_LOOP('',(#588,#589,#590,#591));
#588 = ORIENTED_EDGE('',*,*,#289,.T.);
#589 = ORIENTED_EDGE('',*,*,#566,.T.);
#590 = ORIENTED_EDGE('',*,*,#486,.F.);
#591 = ORIENTED_EDGE('',*,*,#592,.F.);
#592 = EDGE_CURVE('',#248,#464,#593,.T.);
#593 = SURFACE_CURVE('',#594,(#597,#604),.PCURVE_S1.);
#594 = B_SPLINE_CURVE_WITH_KNOTS('',1,(#595,#596),.UNSPECIFIED.,.F.,.F.,
  (2,2),(0.,1.),.PIECEWISE_BEZIER_KNOTS.);
#595 = CARTESIAN_POINT('',(-17.5,-30.31088913245,0.));
#596 = CARTESIAN_POINT('',(-12.325,-21.34752620328,58.8));
#597 = PCURVE('',#306,#598);
#598 = DEFINITIONAL_REPRESENTATION('',(#599),#603);
#599 = LINE('',#600,#601);
#600 = CARTESIAN_POINT('',(0.,0.));
#601 = VECTOR('',#602,1.);
#602 = DIRECTION('',(0.,1.));
#603 = ( GEOMETRIC_REPRESENTATION_CONTEXT(2) 
PARAMETRIC_REPRESENTATION_CONTEXT() REPRESENTATION_CONTEXT('2D SPACE',''
  ) );
#604 = PCURVE('',#264,#605);
#605 = DEFINITIONAL_REPRESENTATION('',(#606),#610);
#606 = LINE('',#607,#608);
#607 = CARTESIAN_POINT('',(24.65,0.));
#608 = VECTOR('',#609,1.);
#609 = DIRECTION('',(0.,1.));
#610 = ( GEOMETRIC_REPRESENTATION_CONTEXT(2) 
PARAMETRIC_REPRESENTATION_CONTEXT() REPRESENTATION_CONTEXT('2D SPACE',''
  ) );
#611 = ADVANCED_FACE('',(#612),#222,.T.);
#612 = FACE_BOUND('',#613,.T.);
#613 = EDGE_LOOP('',(#614,#615,#635,#636));
#614 = ORIENTED_EDGE('',*,*,#205,.T.);
#615 = ORIENTED_EDGE('',*,*,#616,.T.);
#616 = EDGE_CURVE('',#206,#441,#617,.T.);
#617 = SURFACE_CURVE('',#618,(#621,#628),.PCURVE_S1.);
#618 = B_SPLINE_CURVE_WITH_KNOTS('',1,(#619,#620),.UNSPECIFIED.,.F.,.F.,
  (2,2),(0.,1.),.PIECEWISE_BEZIER_KNOTS.);
#619 = CARTESIAN_POINT('',(-35.,0.,0.));
#620 = CARTESIAN_POINT('',(-24.65,3.552713678801E-15,58.8));
#621 = PCURVE('',#222,#622);
#622 = DEFINITIONAL_REPRESENTATION('',(#623),#627);
#623 = LINE('',#624,#625);
#624 = CARTESIAN_POINT('',(24.65,0.));
#625 = VECTOR('',#626,1.);
#626 = DIRECTION('',(0.,1.));
#627 = ( GEOMETRIC_REPRESENTATION_CONTEXT(2) 
PARAMETRIC_REPRESENTATION_CONTEXT() REPRESENTATION_CONTEXT('2D SPACE',''
  ) );
#628 = PCURVE('',#264,#629);
#629 = DEFINITIONAL_REPRESENTATION('',(#630),#634);
#630 = LINE('',#631,#632);
#631 = CARTESIAN_POINT('',(0.,0.));
#632 = VECTOR('',#633,1.);
#633 = DIRECTION('',(0.,1.));
#634 = ( GEOMETRIC_REPRESENTATION_CONTEXT(2) 
PARAMETRIC_REPRESENTATION_CONTEXT() REPRESENTATION_CONTEXT('2D SPACE',''
  ) );
#635 = ORIENTED_EDGE('',*,*,#440,.F.);
#636 = ORIENTED_EDGE('',*,*,#391,.F.);
#637 = ADVANCED_FACE('',(#638),#264,.T.);
#638 = FACE_BOUND('',#639,.T.);
#639 = EDGE_LOOP('',(#640,#641,#642,#643));
#640 = ORIENTED_EDGE('',*,*,#247,.T.);
#641 = ORIENTED_EDGE('',*,*,#592,.T.);
#642 = ORIENTED_EDGE('',*,*,#463,.F.);
#643 = ORIENTED_EDGE('',*,*,#616,.F.);
#644 = ADVANCED_FACE('',(#645),#375,.F.);
#645 = FACE_BOUND('',#646,.F.);
#646 = EDGE_LOOP('',(#647,#648,#669,#670));
#647 = ORIENTED_EDGE('',*,*,#354,.F.);
#648 = ORIENTED_EDGE('',*,*,#649,.F.);
#649 = EDGE_CURVE('',#533,#355,#650,.T.);
#650 = SEAM_CURVE('',#651,(#655,#662),.PCURVE_S1.);
#651 = LINE('',#652,#653);
#652 = CARTESIAN_POINT('',(-12.65,-3.098356401843E-15,58.8));
#653 = VECTOR('',#654,1.);
#654 = DIRECTION('',(0.,0.,-1.));
#655 = PCURVE('',#375,#656);
#656 = DEFINITIONAL_REPRESENTATION('',(#657),#661);
#657 = LINE('',#658,#659);
#658 = CARTESIAN_POINT('',(6.28318530718,-0.));
#659 = VECTOR('',#660,1.);
#660 = DIRECTION('',(0.,1.));
#661 = ( GEOMETRIC_REPRESENTATION_CONTEXT(2) 
PARAMETRIC_REPRESENTATION_CONTEXT() REPRESENTATION_CONTEXT('2D SPACE',''
  ) );
#662 = PCURVE('',#375,#663);
#663 = DEFINITIONAL_REPRESENTATION('',(#664),#668);
#664 = LINE('',#665,#666);
#665 = CARTESIAN_POINT('',(0.,-0.));
#666 = VECTOR('',#667,1.);
#667 = DIRECTION('',(0.,1.));
#668 = ( GEOMETRIC_REPRESENTATION_CONTEXT(2) 
PARAMETRIC_REPRESENTATION_CONTEXT() REPRESENTATION_CONTEXT('2D SPACE',''
  ) );
#669 = ORIENTED_EDGE('',*,*,#532,.T.);
#670 = ORIENTED_EDGE('',*,*,#649,.T.);
#671 = ( GEOMETRIC_REPRESENTATION_CONTEXT(3) 
GLOBAL_UNCERTAINTY_ASSIGNED_CONTEXT((#675)) GLOBAL_UNIT_ASSIGNED_CONTEXT
((#672,#673,#674)) REPRESENTATION_CONTEXT('Context #1',
  '3D Context with UNIT and UNCERTAINTY') );
#672 = ( LENGTH_UNIT() NAMED_UNIT(*) SI_UNIT(.MILLI.,.METRE.) );
#673 = ( NAMED_UNIT(*) PLANE_ANGLE_UNIT() SI_UNIT($,.RADIAN.) );
#674 = ( NAMED_UNIT(*) SI_UNIT($,.STERADIAN.) SOLID_ANGLE_UNIT() );
#675 = UNCERTAINTY_MEASURE_WITH_UNIT(LENGTH_MEASURE(1.E-07),#672,
  'distance_accuracy_value','confusion accuracy');
#676 = PRODUCT_RELATED_PRODUCT_CATEGORY('part',$,(#7));
ENDSEC;
END-ISO-10303-21;
