ISO-10303-21;
HEADER;
FILE_DESCRIPTION(('Open CASCADE Model'),'2;1');
FILE_NAME('Open CASCADE Shape Model','2026-06-04T19:11:33',('Author'),(
    'Open CASCADE'),'Open CASCADE STEP processor 7.8','Open CASCADE 7.8'
  ,'Unknown');
FILE_SCHEMA(('AUTOMOTIVE_DESIGN { 1 0 10303 214 1 1 1 1 }'));
ENDSEC;
DATA;
#1 = APPLICATION_PROTOCOL_DEFINITION('international standard',
  'automotive_design',2000,#2);
#2 = APPLICATION_CONTEXT(
  'core data for automotive mechanical design processes');
#3 = SHAPE_DEFINITION_REPRESENTATION(#4,#10);
#4 = PRODUCT_DEFINITION_SHAPE('','',#5);
#5 = PRODUCT_DEFINITION('design','',#6,#9);
#6 = PRODUCT_DEFINITION_FORMATION('','',#7);
#7 = PRODUCT('Open CASCADE STEP translator 7.8 44',
  'Open CASCADE STEP translator 7.8 44','',(#8));
#8 = PRODUCT_CONTEXT('',#2,'mechanical');
#9 = PRODUCT_DEFINITION_CONTEXT('part definition',#2,'design');
#10 = ADVANCED_BREP_SHAPE_REPRESENTATION('',(#11,#15),#428);
#11 = AXIS2_PLACEMENT_3D('',#12,#13,#14);
#12 = CARTESIAN_POINT('',(0.,0.,0.));
#13 = DIRECTION('',(0.,0.,1.));
#14 = DIRECTION('',(1.,0.,-0.));
#15 = MANIFOLD_SOLID_BREP('',#16);
#16 = CLOSED_SHELL('',(#17,#54,#107,#162,#197,#306,#400));
#17 = ADVANCED_FACE('',(#18),#31,.F.);
#18 = FACE_BOUND('',#19,.T.);
#19 = EDGE_LOOP('',(#20));
#20 = ORIENTED_EDGE('',*,*,#21,.F.);
#21 = EDGE_CURVE('',#22,#22,#24,.T.);
#22 = VERTEX_POINT('',#23);
#23 = CARTESIAN_POINT('',(22.,0.,0.));
#24 = SURFACE_CURVE('',#25,(#30,#42),.PCURVE_S1.);
#25 = CIRCLE('',#26,22.);
#26 = AXIS2_PLACEMENT_3D('',#27,#28,#29);
#27 = CARTESIAN_POINT('',(0.,0.,0.));
#28 = DIRECTION('',(0.,-0.,1.));
#29 = DIRECTION('',(1.,0.,0.));
#30 = PCURVE('',#31,#36);
#31 = PLANE('',#32);
#32 = AXIS2_PLACEMENT_3D('',#33,#34,#35);
#33 = CARTESIAN_POINT('',(0.,0.,0.));
#34 = DIRECTION('',(0.,0.,1.));
#35 = DIRECTION('',(1.,0.,-0.));
#36 = DEFINITIONAL_REPRESENTATION('',(#37),#41);
#37 = CIRCLE('',#38,22.);
#38 = AXIS2_PLACEMENT_2D('',#39,#40);
#39 = CARTESIAN_POINT('',(0.,0.));
#40 = DIRECTION('',(1.,-0.));
#41 = ( GEOMETRIC_REPRESENTATION_CONTEXT(2) 
PARAMETRIC_REPRESENTATION_CONTEXT() REPRESENTATION_CONTEXT('2D SPACE',''
  ) );
#42 = PCURVE('',#43,#48);
#43 = CONICAL_SURFACE('',#44,23.2,0.785398163397);
#44 = AXIS2_PLACEMENT_3D('',#45,#46,#47);
#45 = CARTESIAN_POINT('',(0.,0.,1.2));
#46 = DIRECTION('',(0.,-0.,1.));
#47 = DIRECTION('',(1.,0.,0.));
#48 = DEFINITIONAL_REPRESENTATION('',(#49),#53);
#49 = LINE('',#50,#51);
#50 = CARTESIAN_POINT('',(0.,-1.2));
#51 = VECTOR('',#52,1.);
#52 = DIRECTION('',(1.,0.));
#53 = ( GEOMETRIC_REPRESENTATION_CONTEXT(2) 
PARAMETRIC_REPRESENTATION_CONTEXT() REPRESENTATION_CONTEXT('2D SPACE',''
  ) );
#54 = ADVANCED_FACE('',(#55),#43,.T.);
#55 = FACE_BOUND('',#56,.T.);
#56 = EDGE_LOOP('',(#57,#78,#79,#80));
#57 = ORIENTED_EDGE('',*,*,#58,.F.);
#58 = EDGE_CURVE('',#22,#59,#61,.T.);
#59 = VERTEX_POINT('',#60);
#60 = CARTESIAN_POINT('',(23.2,0.,1.2));
#61 = SEAM_CURVE('',#62,(#66,#72),.PCURVE_S1.);
#62 = LINE('',#63,#64);
#63 = CARTESIAN_POINT('',(23.2,0.,1.2));
#64 = VECTOR('',#65,1.);
#65 = DIRECTION('',(0.707106781187,0.,0.707106781187));
#66 = PCURVE('',#43,#67);
#67 = DEFINITIONAL_REPRESENTATION('',(#68),#71);
#68 = B_SPLINE_CURVE_WITH_KNOTS('',1,(#69,#70),.UNSPECIFIED.,.F.,.F.,(2,
    2),(-1.697056274848,0.),.PIECEWISE_BEZIER_KNOTS.);
#69 = CARTESIAN_POINT('',(0.,-1.2));
#70 = CARTESIAN_POINT('',(0.,0.));
#71 = ( GEOMETRIC_REPRESENTATION_CONTEXT(2) 
PARAMETRIC_REPRESENTATION_CONTEXT() REPRESENTATION_CONTEXT('2D SPACE',''
  ) );
#72 = PCURVE('',#43,#73);
#73 = DEFINITIONAL_REPRESENTATION('',(#74),#77);
#74 = B_SPLINE_CURVE_WITH_KNOTS('',1,(#75,#76),.UNSPECIFIED.,.F.,.F.,(2,
    2),(-1.697056274848,0.),.PIECEWISE_BEZIER_KNOTS.);
#75 = CARTESIAN_POINT('',(6.28318530718,-1.2));
#76 = CARTESIAN_POINT('',(6.28318530718,0.));
#77 = ( GEOMETRIC_REPRESENTATION_CONTEXT(2) 
PARAMETRIC_REPRESENTATION_CONTEXT() REPRESENTATION_CONTEXT('2D SPACE',''
  ) );
#78 = ORIENTED_EDGE('',*,*,#21,.T.);
#79 = ORIENTED_EDGE('',*,*,#58,.T.);
#80 = ORIENTED_EDGE('',*,*,#81,.F.);
#81 = EDGE_CURVE('',#59,#59,#82,.T.);
#82 = SURFACE_CURVE('',#83,(#88,#95),.PCURVE_S1.);
#83 = CIRCLE('',#84,23.2);
#84 = AXIS2_PLACEMENT_3D('',#85,#86,#87);
#85 = CARTESIAN_POINT('',(0.,0.,1.2));
#86 = DIRECTION('',(0.,-0.,1.));
#87 = DIRECTION('',(1.,0.,0.));
#88 = PCURVE('',#43,#89);
#89 = DEFINITIONAL_REPRESENTATION('',(#90),#94);
#90 = LINE('',#91,#92);
#91 = CARTESIAN_POINT('',(0.,0.));
#92 = VECTOR('',#93,1.);
#93 = DIRECTION('',(1.,0.));
#94 = ( GEOMETRIC_REPRESENTATION_CONTEXT(2) 
PARAMETRIC_REPRESENTATION_CONTEXT() REPRESENTATION_CONTEXT('2D SPACE',''
  ) );
#95 = PCURVE('',#96,#101);
#96 = CYLINDRICAL_SURFACE('',#97,23.2);
#97 = AXIS2_PLACEMENT_3D('',#98,#99,#100);
#98 = CARTESIAN_POINT('',(0.,0.,0.));
#99 = DIRECTION('',(0.,0.,1.));
#100 = DIRECTION('',(1.,0.,-0.));
#101 = DEFINITIONAL_REPRESENTATION('',(#102),#106);
#102 = LINE('',#103,#104);
#103 = CARTESIAN_POINT('',(0.,1.2));
#104 = VECTOR('',#105,1.);
#105 = DIRECTION('',(1.,0.));
#106 = ( GEOMETRIC_REPRESENTATION_CONTEXT(2) 
PARAMETRIC_REPRESENTATION_CONTEXT() REPRESENTATION_CONTEXT('2D SPACE',''
  ) );
#107 = ADVANCED_FACE('',(#108),#96,.T.);
#108 = FACE_BOUND('',#109,.T.);
#109 = EDGE_LOOP('',(#110,#133,#134,#135));
#110 = ORIENTED_EDGE('',*,*,#111,.F.);
#111 = EDGE_CURVE('',#59,#112,#114,.T.);
#112 = VERTEX_POINT('',#113);
#113 = CARTESIAN_POINT('',(23.2,0.,18.8));
#114 = SEAM_CURVE('',#115,(#119,#126),.PCURVE_S1.);
#115 = LINE('',#116,#117);
#116 = CARTESIAN_POINT('',(23.2,0.,0.));
#117 = VECTOR('',#118,1.);
#118 = DIRECTION('',(0.,0.,1.));
#119 = PCURVE('',#96,#120);
#120 = DEFINITIONAL_REPRESENTATION('',(#121),#125);
#121 = LINE('',#122,#123);
#122 = CARTESIAN_POINT('',(0.,0.));
#123 = VECTOR('',#124,1.);
#124 = DIRECTION('',(0.,1.));
#125 = ( GEOMETRIC_REPRESENTATION_CONTEXT(2) 
PARAMETRIC_REPRESENTATION_CONTEXT() REPRESENTATION_CONTEXT('2D SPACE',''
  ) );
#126 = PCURVE('',#96,#127);
#127 = DEFINITIONAL_REPRESENTATION('',(#128),#132);
#128 = LINE('',#129,#130);
#129 = CARTESIAN_POINT('',(6.28318530718,0.));
#130 = VECTOR('',#131,1.);
#131 = DIRECTION('',(0.,1.));
#132 = ( GEOMETRIC_REPRESENTATION_CONTEXT(2) 
PARAMETRIC_REPRESENTATION_CONTEXT() REPRESENTATION_CONTEXT('2D SPACE',''
  ) );
#133 = ORIENTED_EDGE('',*,*,#81,.T.);
#134 = ORIENTED_EDGE('',*,*,#111,.T.);
#135 = ORIENTED_EDGE('',*,*,#136,.F.);
#136 = EDGE_CURVE('',#112,#112,#137,.T.);
#137 = SURFACE_CURVE('',#138,(#143,#150),.PCURVE_S1.);
#138 = CIRCLE('',#139,23.2);
#139 = AXIS2_PLACEMENT_3D('',#140,#141,#142);
#140 = CARTESIAN_POINT('',(0.,0.,18.8));
#141 = DIRECTION('',(0.,0.,1.));
#142 = DIRECTION('',(1.,0.,-0.));
#143 = PCURVE('',#96,#144);
#144 = DEFINITIONAL_REPRESENTATION('',(#145),#149);
#145 = LINE('',#146,#147);
#146 = CARTESIAN_POINT('',(0.,18.8));
#147 = VECTOR('',#148,1.);
#148 = DIRECTION('',(1.,0.));
#149 = ( GEOMETRIC_REPRESENTATION_CONTEXT(2) 
PARAMETRIC_REPRESENTATION_CONTEXT() REPRESENTATION_CONTEXT('2D SPACE',''
  ) );
#150 = PCURVE('',#151,#156);
#151 = PLANE('',#152);
#152 = AXIS2_PLACEMENT_3D('',#153,#154,#155);
#153 = CARTESIAN_POINT('',(0.,0.,18.8));
#154 = DIRECTION('',(0.,0.,1.));
#155 = DIRECTION('',(1.,0.,-0.));
#156 = DEFINITIONAL_REPRESENTATION('',(#157),#161);
#157 = CIRCLE('',#158,23.2);
#158 = AXIS2_PLACEMENT_2D('',#159,#160);
#159 = CARTESIAN_POINT('',(0.,0.));
#160 = DIRECTION('',(1.,0.));
#161 = ( GEOMETRIC_REPRESENTATION_CONTEXT(2) 
PARAMETRIC_REPRESENTATION_CONTEXT() REPRESENTATION_CONTEXT('2D SPACE',''
  ) );
#162 = ADVANCED_FACE('',(#163,#166),#151,.T.);
#163 = FACE_BOUND('',#164,.T.);
#164 = EDGE_LOOP('',(#165));
#165 = ORIENTED_EDGE('',*,*,#136,.T.);
#166 = FACE_BOUND('',#167,.T.);
#167 = EDGE_LOOP('',(#168));
#168 = ORIENTED_EDGE('',*,*,#169,.F.);
#169 = EDGE_CURVE('',#170,#170,#172,.T.);
#170 = VERTEX_POINT('',#171);
#171 = CARTESIAN_POINT('',(15.,0.,18.8));
#172 = SURFACE_CURVE('',#173,(#178,#185),.PCURVE_S1.);
#173 = CIRCLE('',#174,15.);
#174 = AXIS2_PLACEMENT_3D('',#175,#176,#177);
#175 = CARTESIAN_POINT('',(0.,0.,18.8));
#176 = DIRECTION('',(0.,0.,1.));
#177 = DIRECTION('',(1.,0.,-0.));
#178 = PCURVE('',#151,#179);
#179 = DEFINITIONAL_REPRESENTATION('',(#180),#184);
#180 = CIRCLE('',#181,15.);
#181 = AXIS2_PLACEMENT_2D('',#182,#183);
#182 = CARTESIAN_POINT('',(0.,0.));
#183 = DIRECTION('',(1.,0.));
#184 = ( GEOMETRIC_REPRESENTATION_CONTEXT(2) 
PARAMETRIC_REPRESENTATION_CONTEXT() REPRESENTATION_CONTEXT('2D SPACE',''
  ) );
#185 = PCURVE('',#186,#191);
#186 = CYLINDRICAL_SURFACE('',#187,15.);
#187 = AXIS2_PLACEMENT_3D('',#188,#189,#190);
#188 = CARTESIAN_POINT('',(0.,0.,18.8));
#189 = DIRECTION('',(0.,0.,1.));
#190 = DIRECTION('',(1.,0.,-0.));
#191 = DEFINITIONAL_REPRESENTATION('',(#192),#196);
#192 = LINE('',#193,#194);
#193 = CARTESIAN_POINT('',(0.,0.));
#194 = VECTOR('',#195,1.);
#195 = DIRECTION('',(1.,0.));
#196 = ( GEOMETRIC_REPRESENTATION_CONTEXT(2) 
PARAMETRIC_REPRESENTATION_CONTEXT() REPRESENTATION_CONTEXT('2D SPACE',''
  ) );
#197 = ADVANCED_FACE('',(#198),#186,.T.);
#198 = FACE_BOUND('',#199,.T.);
#199 = EDGE_LOOP('',(#200,#223,#224,#225));
#200 = ORIENTED_EDGE('',*,*,#201,.F.);
#201 = EDGE_CURVE('',#170,#202,#204,.T.);
#202 = VERTEX_POINT('',#203);
#203 = CARTESIAN_POINT('',(15.,0.,92.7));
#204 = SEAM_CURVE('',#205,(#209,#216),.PCURVE_S1.);
#205 = LINE('',#206,#207);
#206 = CARTESIAN_POINT('',(15.,0.,18.8));
#207 = VECTOR('',#208,1.);
#208 = DIRECTION('',(0.,0.,1.));
#209 = PCURVE('',#186,#210);
#210 = DEFINITIONAL_REPRESENTATION('',(#211),#215);
#211 = LINE('',#212,#213);
#212 = CARTESIAN_POINT('',(0.,0.));
#213 = VECTOR('',#214,1.);
#214 = DIRECTION('',(0.,1.));
#215 = ( GEOMETRIC_REPRESENTATION_CONTEXT(2) 
PARAMETRIC_REPRESENTATION_CONTEXT() REPRESENTATION_CONTEXT('2D SPACE',''
  ) );
#216 = PCURVE('',#186,#217);
#217 = DEFINITIONAL_REPRESENTATION('',(#218),#222);
#218 = LINE('',#219,#220);
#219 = CARTESIAN_POINT('',(6.28318530718,0.));
#220 = VECTOR('',#221,1.);
#221 = DIRECTION('',(0.,1.));
#222 = ( GEOMETRIC_REPRESENTATION_CONTEXT(2) 
PARAMETRIC_REPRESENTATION_CONTEXT() REPRESENTATION_CONTEXT('2D SPACE',''
  ) );
#223 = ORIENTED_EDGE('',*,*,#169,.T.);
#224 = ORIENTED_EDGE('',*,*,#201,.T.);
#225 = ORIENTED_EDGE('',*,*,#226,.F.);
#226 = EDGE_CURVE('',#202,#202,#227,.T.);
#227 = SURFACE_CURVE('',#228,(#244,#268),.PCURVE_S1.);
#228 = B_SPLINE_CURVE_WITH_KNOTS('',14,(#229,#230,#231,#232,#233,#234,
    #235,#236,#237,#238,#239,#240,#241,#242,#243),.UNSPECIFIED.,.T.,.F.,
  (15,15),(1.863933305354E-15,94.247779607694),
  .PIECEWISE_BEZIER_KNOTS.);
#229 = CARTESIAN_POINT('',(15.,0.,92.7));
#230 = CARTESIAN_POINT('',(14.999999999994,6.634601369125,
    92.700000000053));
#231 = CARTESIAN_POINT('',(11.840280719124,13.410432498803,
    92.699999999759));
#232 = CARTESIAN_POINT('',(5.298026155182,18.561421233246,
    92.700000000663));
#233 = CARTESIAN_POINT('',(-3.625138360841,20.254821369271,
    92.699999998669));
#234 = CARTESIAN_POINT('',(-12.86851046777,16.90287884982,
    92.700000002084));
#235 = CARTESIAN_POINT('',(-19.06930853597,10.266257944521,
    92.699999997377));
#236 = CARTESIAN_POINT('',(-22.99199342043,5.584794848801E-10,
    92.700000002695));
#237 = CARTESIAN_POINT('',(-19.06930853601,-10.26625794553,
    92.699999997724));
#238 = CARTESIAN_POINT('',(-12.86851046771,-16.90287884905,
    92.70000000158));
#239 = CARTESIAN_POINT('',(-3.625138360893,-20.25482136973,
    92.699999999107));
#240 = CARTESIAN_POINT('',(5.298026155213,-18.56142123302,
    92.700000000399));
#241 = CARTESIAN_POINT('',(11.840280719111,-13.41043249888,
    92.699999999868));
#242 = CARTESIAN_POINT('',(14.999999999997,-6.634601369108,
    92.700000000027));
#243 = CARTESIAN_POINT('',(15.,-3.673940397442E-15,92.7));
#244 = PCURVE('',#186,#245);
#245 = DEFINITIONAL_REPRESENTATION('',(#246),#267);
#246 = B_SPLINE_CURVE_WITH_KNOTS('',10,(#247,#248,#249,#250,#251,#252,
    #253,#254,#255,#256,#257,#258,#259,#260,#261,#262,#263,#264,#265,
    #266),.UNSPECIFIED.,.F.,.F.,(11,9,11),(1.863933305354E-15,
    47.123889803847,94.247779607694),.UNSPECIFIED.);
#247 = CARTESIAN_POINT('',(-6.661338147751E-16,73.9));
#248 = CARTESIAN_POINT('',(0.309614730559,73.900000000033));
#249 = CARTESIAN_POINT('',(0.623949579201,73.89999999991));
#250 = CARTESIAN_POINT('',(0.939954840905,73.900000000143));
#251 = CARTESIAN_POINT('',(1.256000383978,73.899999999842));
#252 = CARTESIAN_POINT('',(1.570490452414,73.900000000131));
#253 = CARTESIAN_POINT('',(1.885076880231,73.899999999917));
#254 = CARTESIAN_POINT('',(2.199055319893,73.900000000039));
#255 = CARTESIAN_POINT('',(2.513289229732,73.899999999987));
#256 = CARTESIAN_POINT('',(2.827435001534,73.900000000001));
#257 = CARTESIAN_POINT('',(3.455750305646,73.900000000001));
#258 = CARTESIAN_POINT('',(3.769896077447,73.899999999989));
#259 = CARTESIAN_POINT('',(4.084129987288,73.900000000032));
#260 = CARTESIAN_POINT('',(4.398108426945,73.899999999937));
#261 = CARTESIAN_POINT('',(4.712694854769,73.900000000089));
#262 = CARTESIAN_POINT('',(5.027184923202,73.899999999904));
#263 = CARTESIAN_POINT('',(5.343230466272,73.900000000074));
#264 = CARTESIAN_POINT('',(5.659235727982,73.89999999996));
#265 = CARTESIAN_POINT('',(5.973570576622,73.900000000012));
#266 = CARTESIAN_POINT('',(6.28318530718,73.9));
#267 = ( GEOMETRIC_REPRESENTATION_CONTEXT(2) 
PARAMETRIC_REPRESENTATION_CONTEXT() REPRESENTATION_CONTEXT('2D SPACE',''
  ) );
#268 = PCURVE('',#269,#300);
#269 = B_SPLINE_SURFACE_WITH_KNOTS('',1,14,(
    (#270,#271,#272,#273,#274,#275,#276,#277,#278,#279,#280,#281,#282
      ,#283,#284)
    ,(#285,#286,#287,#288,#289,#290,#291,#292,#293,#294,#295,#296,#297
      ,#298,#299
    )),.UNSPECIFIED.,.F.,.T.,.F.,(2,2),(15,15),(0.,94.247779607694),(
    1.863933305354E-15,94.247779607694),.PIECEWISE_BEZIER_KNOTS.);
#270 = CARTESIAN_POINT('',(15.,0.,92.7));
#271 = CARTESIAN_POINT('',(14.999999999994,6.634601369125,
    92.700000000053));
#272 = CARTESIAN_POINT('',(11.840280719124,13.410432498803,
    92.699999999759));
#273 = CARTESIAN_POINT('',(5.298026155182,18.561421233246,
    92.700000000663));
#274 = CARTESIAN_POINT('',(-3.625138360841,20.254821369271,
    92.699999998669));
#275 = CARTESIAN_POINT('',(-12.86851046777,16.90287884982,
    92.700000002084));
#276 = CARTESIAN_POINT('',(-19.06930853597,10.266257944521,
    92.699999997377));
#277 = CARTESIAN_POINT('',(-22.99199342043,5.584794848801E-10,
    92.700000002695));
#278 = CARTESIAN_POINT('',(-19.06930853601,-10.26625794553,
    92.699999997724));
#279 = CARTESIAN_POINT('',(-12.86851046771,-16.90287884905,
    92.70000000158));
#280 = CARTESIAN_POINT('',(-3.625138360893,-20.25482136973,
    92.699999999107));
#281 = CARTESIAN_POINT('',(5.298026155213,-18.56142123302,
    92.700000000399));
#282 = CARTESIAN_POINT('',(11.840280719111,-13.41043249888,
    92.699999999868));
#283 = CARTESIAN_POINT('',(14.999999999997,-6.634601369108,
    92.700000000027));
#284 = CARTESIAN_POINT('',(15.,-3.673940397442E-15,92.7));
#285 = CARTESIAN_POINT('',(14.810706713898,0.,92.715024029004));
#286 = CARTESIAN_POINT('',(14.810706713892,6.550875669447,
    92.715024029057));
#287 = CARTESIAN_POINT('',(11.690861676084,13.241198843096,
    92.715024028766));
#288 = CARTESIAN_POINT('',(5.231167436445,18.327184405225,
    92.715024029657));
#289 = CARTESIAN_POINT('',(-3.579390737271,19.999214589562,
    92.715024027702));
#290 = CARTESIAN_POINT('',(-12.7061156256,16.689572084269,
    92.715024031029));
#291 = CARTESIAN_POINT('',(-18.82866239743,10.136702364475,
    92.71502402648));
#292 = CARTESIAN_POINT('',(-22.70184475466,4.335944936429E-10,
    92.715024031568));
#293 = CARTESIAN_POINT('',(-18.82866239745,-10.13670236526,
    92.715024026866));
#294 = CARTESIAN_POINT('',(-12.70611562556,-16.68957208368,
    92.715024030472));
#295 = CARTESIAN_POINT('',(-3.579390737304,-19.99921458991,
    92.715024028182));
#296 = CARTESIAN_POINT('',(5.231167436463,-18.32718440505,92.71502402937
    ));
#297 = CARTESIAN_POINT('',(11.690861676077,-13.24119884315,
    92.715024028884));
#298 = CARTESIAN_POINT('',(14.810706713893,-6.550875669435,
    92.715024029029));
#299 = CARTESIAN_POINT('',(14.810706713898,-3.627576914057E-15,
    92.715024029004));
#300 = DEFINITIONAL_REPRESENTATION('',(#301),#305);
#301 = LINE('',#302,#303);
#302 = CARTESIAN_POINT('',(0.,0.));
#303 = VECTOR('',#304,1.);
#304 = DIRECTION('',(0.,1.));
#305 = ( GEOMETRIC_REPRESENTATION_CONTEXT(2) 
PARAMETRIC_REPRESENTATION_CONTEXT() REPRESENTATION_CONTEXT('2D SPACE',''
  ) );
#306 = ADVANCED_FACE('',(#307),#269,.F.);
#307 = FACE_BOUND('',#308,.F.);
#308 = EDGE_LOOP('',(#309,#329,#398,#399));
#309 = ORIENTED_EDGE('',*,*,#310,.T.);
#310 = EDGE_CURVE('',#202,#311,#313,.T.);
#311 = VERTEX_POINT('',#312);
#312 = CARTESIAN_POINT('',(14.810706713898,0.,92.715024029004));
#313 = SEAM_CURVE('',#314,(#317,#323),.PCURVE_S1.);
#314 = B_SPLINE_CURVE_WITH_KNOTS('',1,(#315,#316),.UNSPECIFIED.,.F.,.F.,
  (2,2),(0.,94.247779607694),.PIECEWISE_BEZIER_KNOTS.);
#315 = CARTESIAN_POINT('',(15.,0.,92.7));
#316 = CARTESIAN_POINT('',(14.810706713898,0.,92.715024029004));
#317 = PCURVE('',#269,#318);
#318 = DEFINITIONAL_REPRESENTATION('',(#319),#322);
#319 = B_SPLINE_CURVE_WITH_KNOTS('',1,(#320,#321),.UNSPECIFIED.,.F.,.F.,
  (2,2),(0.,94.247779607694),.PIECEWISE_BEZIER_KNOTS.);
#320 = CARTESIAN_POINT('',(0.,1.863933305354E-15));
#321 = CARTESIAN_POINT('',(94.247779607694,1.863933305354E-15));
#322 = ( GEOMETRIC_REPRESENTATION_CONTEXT(2) 
PARAMETRIC_REPRESENTATION_CONTEXT() REPRESENTATION_CONTEXT('2D SPACE',''
  ) );
#323 = PCURVE('',#269,#324);
#324 = DEFINITIONAL_REPRESENTATION('',(#325),#328);
#325 = B_SPLINE_CURVE_WITH_KNOTS('',1,(#326,#327),.UNSPECIFIED.,.F.,.F.,
  (2,2),(0.,94.247779607694),.PIECEWISE_BEZIER_KNOTS.);
#326 = CARTESIAN_POINT('',(0.,94.247779607694));
#327 = CARTESIAN_POINT('',(94.247779607694,94.247779607694));
#328 = ( GEOMETRIC_REPRESENTATION_CONTEXT(2) 
PARAMETRIC_REPRESENTATION_CONTEXT() REPRESENTATION_CONTEXT('2D SPACE',''
  ) );
#329 = ORIENTED_EDGE('',*,*,#330,.T.);
#330 = EDGE_CURVE('',#311,#311,#331,.T.);
#331 = SURFACE_CURVE('',#332,(#348,#355),.PCURVE_S1.);
#332 = B_SPLINE_CURVE_WITH_KNOTS('',14,(#333,#334,#335,#336,#337,#338,
    #339,#340,#341,#342,#343,#344,#345,#346,#347),.UNSPECIFIED.,.T.,.F.,
  (15,15),(1.863933305354E-15,94.247779607694),
  .PIECEWISE_BEZIER_KNOTS.);
#333 = CARTESIAN_POINT('',(14.810706713898,0.,92.715024029004));
#334 = CARTESIAN_POINT('',(14.810706713892,6.550875669447,
    92.715024029057));
#335 = CARTESIAN_POINT('',(11.690861676084,13.241198843096,
    92.715024028766));
#336 = CARTESIAN_POINT('',(5.231167436445,18.327184405225,
    92.715024029657));
#337 = CARTESIAN_POINT('',(-3.579390737271,19.999214589562,
    92.715024027702));
#338 = CARTESIAN_POINT('',(-12.7061156256,16.689572084269,
    92.715024031029));
#339 = CARTESIAN_POINT('',(-18.82866239743,10.136702364475,
    92.71502402648));
#340 = CARTESIAN_POINT('',(-22.70184475466,4.335944936429E-10,
    92.715024031568));
#341 = CARTESIAN_POINT('',(-18.82866239745,-10.13670236526,
    92.715024026866));
#342 = CARTESIAN_POINT('',(-12.70611562556,-16.68957208368,
    92.715024030472));
#343 = CARTESIAN_POINT('',(-3.579390737304,-19.99921458991,
    92.715024028182));
#344 = CARTESIAN_POINT('',(5.231167436463,-18.32718440505,92.71502402937
    ));
#345 = CARTESIAN_POINT('',(11.690861676077,-13.24119884315,
    92.715024028884));
#346 = CARTESIAN_POINT('',(14.810706713893,-6.550875669435,
    92.715024029029));
#347 = CARTESIAN_POINT('',(14.810706713898,-3.627576914057E-15,
    92.715024029004));
#348 = PCURVE('',#269,#349);
#349 = DEFINITIONAL_REPRESENTATION('',(#350),#354);
#350 = LINE('',#351,#352);
#351 = CARTESIAN_POINT('',(94.247779607694,0.));
#352 = VECTOR('',#353,1.);
#353 = DIRECTION('',(0.,1.));
#354 = ( GEOMETRIC_REPRESENTATION_CONTEXT(2) 
PARAMETRIC_REPRESENTATION_CONTEXT() REPRESENTATION_CONTEXT('2D SPACE',''
  ) );
#355 = PCURVE('',#356,#361);
#356 = CONICAL_SURFACE('',#357,15.,0.158406041008);
#357 = AXIS2_PLACEMENT_3D('',#358,#359,#360);
#358 = CARTESIAN_POINT('',(0.,0.,93.9));
#359 = DIRECTION('',(0.,0.,1.));
#360 = DIRECTION('',(1.,0.,0.));
#361 = DEFINITIONAL_REPRESENTATION('',(#362),#397);
#362 = B_SPLINE_CURVE_WITH_KNOTS('',9,(#363,#364,#365,#366,#367,#368,
    #369,#370,#371,#372,#373,#374,#375,#376,#377,#378,#379,#380,#381,
    #382,#383,#384,#385,#386,#387,#388,#389,#390,#391,#392,#393,#394,
    #395,#396),.UNSPECIFIED.,.F.,.F.,(10,8,8,8,10),(1.863933305354E-15,
    23.561944901923,47.123889803847,70.68583470577,94.247779607694),
  .UNSPECIFIED.);
#363 = CARTESIAN_POINT('',(4.440892098501E-16,-1.184975970996));
#364 = CARTESIAN_POINT('',(0.172008183644,-1.184975970996));
#365 = CARTESIAN_POINT('',(0.345502741869,-1.184975970995));
#366 = CARTESIAN_POINT('',(0.519877872496,-1.184975970996));
#367 = CARTESIAN_POINT('',(0.694876636025,-1.184975970995));
#368 = CARTESIAN_POINT('',(0.869990426263,-1.184975970996));
#369 = CARTESIAN_POINT('',(1.045161585281,-1.184975970996));
#370 = CARTESIAN_POINT('',(1.220239781119,-1.184975970996));
#371 = CARTESIAN_POINT('',(1.395213103928,-1.184975970996));
#372 = CARTESIAN_POINT('',(1.744941288524,-1.184975970996));
#373 = CARTESIAN_POINT('',(1.919696499711,-1.184975970996));
#374 = CARTESIAN_POINT('',(2.094343803256,-1.184975970996));
#375 = CARTESIAN_POINT('',(2.26891850962,-1.184975970996));
#376 = CARTESIAN_POINT('',(2.443460115261,-1.184975970996));
#377 = CARTESIAN_POINT('',(2.61799464139,-1.184975970996));
#378 = CARTESIAN_POINT('',(2.792529462503,-1.184975970996));
#379 = CARTESIAN_POINT('',(2.96706062467,-1.184975970996));
#380 = CARTESIAN_POINT('',(3.31612468251,-1.184975970996));
#381 = CARTESIAN_POINT('',(3.490655844676,-1.184975970996));
#382 = CARTESIAN_POINT('',(3.66519066579,-1.184975970996));
#383 = CARTESIAN_POINT('',(3.839725191918,-1.184975970996));
#384 = CARTESIAN_POINT('',(4.01426679756,-1.184975970996));
#385 = CARTESIAN_POINT('',(4.188841503924,-1.184975970996));
#386 = CARTESIAN_POINT('',(4.363488807469,-1.184975970996));
#387 = CARTESIAN_POINT('',(4.538244018656,-1.184975970996));
#388 = CARTESIAN_POINT('',(4.887972203252,-1.184975970996));
#389 = CARTESIAN_POINT('',(5.062945526063,-1.184975970996));
#390 = CARTESIAN_POINT('',(5.238023721886,-1.184975970996));
#391 = CARTESIAN_POINT('',(5.413194880942,-1.184975970996));
#392 = CARTESIAN_POINT('',(5.588308671125,-1.184975970996));
#393 = CARTESIAN_POINT('',(5.763307434703,-1.184975970995));
#394 = CARTESIAN_POINT('',(5.937682565304,-1.184975970996));
#395 = CARTESIAN_POINT('',(6.111177123536,-1.184975970996));
#396 = CARTESIAN_POINT('',(6.28318530718,-1.184975970996));
#397 = ( GEOMETRIC_REPRESENTATION_CONTEXT(2) 
PARAMETRIC_REPRESENTATION_CONTEXT() REPRESENTATION_CONTEXT('2D SPACE',''
  ) );
#398 = ORIENTED_EDGE('',*,*,#310,.F.);
#399 = ORIENTED_EDGE('',*,*,#226,.F.);
#400 = ADVANCED_FACE('',(#401),#356,.F.);
#401 = FACE_BOUND('',#402,.T.);
#402 = EDGE_LOOP('',(#403,#426,#427));
#403 = ORIENTED_EDGE('',*,*,#404,.F.);
#404 = EDGE_CURVE('',#311,#405,#407,.T.);
#405 = VERTEX_POINT('',#406);
#406 = CARTESIAN_POINT('',(0.,0.,0.));
#407 = SEAM_CURVE('',#408,(#412,#419),.PCURVE_S1.);
#408 = LINE('',#409,#410);
#409 = CARTESIAN_POINT('',(15.,0.,93.9));
#410 = VECTOR('',#411,1.);
#411 = DIRECTION('',(-0.157744405085,0.,-0.98747997583));
#412 = PCURVE('',#356,#413);
#413 = DEFINITIONAL_REPRESENTATION('',(#414),#418);
#414 = LINE('',#415,#416);
#415 = CARTESIAN_POINT('',(0.,-0.));
#416 = VECTOR('',#417,1.);
#417 = DIRECTION('',(0.,-1.));
#418 = ( GEOMETRIC_REPRESENTATION_CONTEXT(2) 
PARAMETRIC_REPRESENTATION_CONTEXT() REPRESENTATION_CONTEXT('2D SPACE',''
  ) );
#419 = PCURVE('',#356,#420);
#420 = DEFINITIONAL_REPRESENTATION('',(#421),#425);
#421 = LINE('',#422,#423);
#422 = CARTESIAN_POINT('',(6.28318530718,-0.));
#423 = VECTOR('',#424,1.);
#424 = DIRECTION('',(0.,-1.));
#425 = ( GEOMETRIC_REPRESENTATION_CONTEXT(2) 
PARAMETRIC_REPRESENTATION_CONTEXT() REPRESENTATION_CONTEXT('2D SPACE',''
  ) );
#426 = ORIENTED_EDGE('',*,*,#330,.T.);
#427 = ORIENTED_EDGE('',*,*,#404,.T.);
#428 = ( GEOMETRIC_REPRESENTATION_CONTEXT(3) 
GLOBAL_UNCERTAINTY_ASSIGNED_CONTEXT((#432)) GLOBAL_UNIT_ASSIGNED_CONTEXT
((#429,#430,#431)) REPRESENTATION_CONTEXT('Context #1',
  '3D Context with UNIT and UNCERTAINTY') );
#429 = ( LENGTH_UNIT() NAMED_UNIT(*) SI_UNIT(.MILLI.,.METRE.) );
#430 = ( NAMED_UNIT(*) PLANE_ANGLE_UNIT() SI_UNIT($,.RADIAN.) );
#431 = ( NAMED_UNIT(*) SI_UNIT($,.STERADIAN.) SOLID_ANGLE_UNIT() );
#432 = UNCERTAINTY_MEASURE_WITH_UNIT(LENGTH_MEASURE(1.E-05),#429,
  'distance_accuracy_value','confusion accuracy');
#433 = PRODUCT_RELATED_PRODUCT_CATEGORY('part',$,(#7));
ENDSEC;
END-ISO-10303-21;
