ISO-10303-21;
HEADER;
FILE_DESCRIPTION(('Open CASCADE Model'),'2;1');
FILE_NAME('Open CASCADE Shape Model','2026-06-04T19:11:33',('Author'),(
    'Open CASCADE'),'Open CASCADE STEP processor 7.8','Open CASCADE 7.8'
  ,'Unknown');
FILE_SCHEMA(('AUTOMOTIVE_DESIGN { 1 0 10303 214 1 1 1 1 }'));
ENDSEC;
DATA;
#1 = APPLICATION_PROTOCOL_DEFINITION('international standard',
  'automotive_design',2000,#2);
#2 = APPLICATION_CONTEXT(
  'core data for automotive mechanical design processes');
#3 = SHAPE_DEFINITION_REPRESENTATION(#4,#10);
#4 = PRODUCT_DEFINITION_SHAPE('','',#5);
#5 = PRODUCT_DEFINITION('design','',#6,#9);
#6 = PRODUCT_DEFINITION_FORMATION('','',#7);
#7 = PRODUCT('Open CASCADE STEP translator 7.8 37',
  'Open CASCADE STEP translator 7.8 37','',(#8));
#8 = PRODUCT_CONTEXT('',#2,'mechanical');
#9 = PRODUCT_DEFINITION_CONTEXT('part definition',#2,'design');
#10 = ADVANCED_BREP_SHAPE_REPRESENTATION('',(#11,#15),#418);
#11 = AXIS2_PLACEMENT_3D('',#12,#13,#14);
#12 = CARTESIAN_POINT('',(0.,0.,0.));
#13 = DIRECTION('',(0.,0.,1.));
#14 = DIRECTION('',(1.,0.,-0.));
#15 = MANIFOLD_SOLID_BREP('',#16);
#16 = CLOSED_SHELL('',(#17,#54,#107,#162,#197,#301,#390));
#17 = ADVANCED_FACE('',(#18),#31,.F.);
#18 = FACE_BOUND('',#19,.T.);
#19 = EDGE_LOOP('',(#20));
#20 = ORIENTED_EDGE('',*,*,#21,.F.);
#21 = EDGE_CURVE('',#22,#22,#24,.T.);
#22 = VERTEX_POINT('',#23);
#23 = CARTESIAN_POINT('',(7.6,0.,0.));
#24 = SURFACE_CURVE('',#25,(#30,#42),.PCURVE_S1.);
#25 = CIRCLE('',#26,7.6);
#26 = AXIS2_PLACEMENT_3D('',#27,#28,#29);
#27 = CARTESIAN_POINT('',(0.,0.,0.));
#28 = DIRECTION('',(0.,-0.,1.));
#29 = DIRECTION('',(1.,0.,0.));
#30 = PCURVE('',#31,#36);
#31 = PLANE('',#32);
#32 = AXIS2_PLACEMENT_3D('',#33,#34,#35);
#33 = CARTESIAN_POINT('',(0.,0.,0.));
#34 = DIRECTION('',(0.,0.,1.));
#35 = DIRECTION('',(1.,0.,-0.));
#36 = DEFINITIONAL_REPRESENTATION('',(#37),#41);
#37 = CIRCLE('',#38,7.6);
#38 = AXIS2_PLACEMENT_2D('',#39,#40);
#39 = CARTESIAN_POINT('',(0.,0.));
#40 = DIRECTION('',(1.,-0.));
#41 = ( GEOMETRIC_REPRESENTATION_CONTEXT(2) 
PARAMETRIC_REPRESENTATION_CONTEXT() REPRESENTATION_CONTEXT('2D SPACE',''
  ) );
#42 = PCURVE('',#43,#48);
#43 = CONICAL_SURFACE('',#44,8.7,0.785398163397);
#44 = AXIS2_PLACEMENT_3D('',#45,#46,#47);
#45 = CARTESIAN_POINT('',(0.,0.,1.1));
#46 = DIRECTION('',(0.,-0.,1.));
#47 = DIRECTION('',(1.,0.,0.));
#48 = DEFINITIONAL_REPRESENTATION('',(#49),#53);
#49 = LINE('',#50,#51);
#50 = CARTESIAN_POINT('',(0.,-1.1));
#51 = VECTOR('',#52,1.);
#52 = DIRECTION('',(1.,0.));
#53 = ( GEOMETRIC_REPRESENTATION_CONTEXT(2) 
PARAMETRIC_REPRESENTATION_CONTEXT() REPRESENTATION_CONTEXT('2D SPACE',''
  ) );
#54 = ADVANCED_FACE('',(#55),#43,.T.);
#55 = FACE_BOUND('',#56,.T.);
#56 = EDGE_LOOP('',(#57,#78,#79,#80));
#57 = ORIENTED_EDGE('',*,*,#58,.F.);
#58 = EDGE_CURVE('',#22,#59,#61,.T.);
#59 = VERTEX_POINT('',#60);
#60 = CARTESIAN_POINT('',(8.7,0.,1.1));
#61 = SEAM_CURVE('',#62,(#66,#72),.PCURVE_S1.);
#62 = LINE('',#63,#64);
#63 = CARTESIAN_POINT('',(8.7,0.,1.1));
#64 = VECTOR('',#65,1.);
#65 = DIRECTION('',(0.707106781187,0.,0.707106781187));
#66 = PCURVE('',#43,#67);
#67 = DEFINITIONAL_REPRESENTATION('',(#68),#71);
#68 = B_SPLINE_CURVE_WITH_KNOTS('',1,(#69,#70),.UNSPECIFIED.,.F.,.F.,(2,
    2),(-1.55563491861,0.),.PIECEWISE_BEZIER_KNOTS.);
#69 = CARTESIAN_POINT('',(0.,-1.1));
#70 = CARTESIAN_POINT('',(0.,0.));
#71 = ( GEOMETRIC_REPRESENTATION_CONTEXT(2) 
PARAMETRIC_REPRESENTATION_CONTEXT() REPRESENTATION_CONTEXT('2D SPACE',''
  ) );
#72 = PCURVE('',#43,#73);
#73 = DEFINITIONAL_REPRESENTATION('',(#74),#77);
#74 = B_SPLINE_CURVE_WITH_KNOTS('',1,(#75,#76),.UNSPECIFIED.,.F.,.F.,(2,
    2),(-1.55563491861,0.),.PIECEWISE_BEZIER_KNOTS.);
#75 = CARTESIAN_POINT('',(6.28318530718,-1.1));
#76 = CARTESIAN_POINT('',(6.28318530718,0.));
#77 = ( GEOMETRIC_REPRESENTATION_CONTEXT(2) 
PARAMETRIC_REPRESENTATION_CONTEXT() REPRESENTATION_CONTEXT('2D SPACE',''
  ) );
#78 = ORIENTED_EDGE('',*,*,#21,.T.);
#79 = ORIENTED_EDGE('',*,*,#58,.T.);
#80 = ORIENTED_EDGE('',*,*,#81,.F.);
#81 = EDGE_CURVE('',#59,#59,#82,.T.);
#82 = SURFACE_CURVE('',#83,(#88,#95),.PCURVE_S1.);
#83 = CIRCLE('',#84,8.7);
#84 = AXIS2_PLACEMENT_3D('',#85,#86,#87);
#85 = CARTESIAN_POINT('',(0.,0.,1.1));
#86 = DIRECTION('',(0.,-0.,1.));
#87 = DIRECTION('',(1.,0.,0.));
#88 = PCURVE('',#43,#89);
#89 = DEFINITIONAL_REPRESENTATION('',(#90),#94);
#90 = LINE('',#91,#92);
#91 = CARTESIAN_POINT('',(0.,0.));
#92 = VECTOR('',#93,1.);
#93 = DIRECTION('',(1.,0.));
#94 = ( GEOMETRIC_REPRESENTATION_CONTEXT(2) 
PARAMETRIC_REPRESENTATION_CONTEXT() REPRESENTATION_CONTEXT('2D SPACE',''
  ) );
#95 = PCURVE('',#96,#101);
#96 = CYLINDRICAL_SURFACE('',#97,8.7);
#97 = AXIS2_PLACEMENT_3D('',#98,#99,#100);
#98 = CARTESIAN_POINT('',(0.,0.,0.));
#99 = DIRECTION('',(0.,0.,1.));
#100 = DIRECTION('',(1.,0.,-0.));
#101 = DEFINITIONAL_REPRESENTATION('',(#102),#106);
#102 = LINE('',#103,#104);
#103 = CARTESIAN_POINT('',(0.,1.1));
#104 = VECTOR('',#105,1.);
#105 = DIRECTION('',(1.,0.));
#106 = ( GEOMETRIC_REPRESENTATION_CONTEXT(2) 
PARAMETRIC_REPRESENTATION_CONTEXT() REPRESENTATION_CONTEXT('2D SPACE',''
  ) );
#107 = ADVANCED_FACE('',(#108),#96,.T.);
#108 = FACE_BOUND('',#109,.T.);
#109 = EDGE_LOOP('',(#110,#133,#134,#135));
#110 = ORIENTED_EDGE('',*,*,#111,.F.);
#111 = EDGE_CURVE('',#59,#112,#114,.T.);
#112 = VERTEX_POINT('',#113);
#113 = CARTESIAN_POINT('',(8.7,0.,2.5));
#114 = SEAM_CURVE('',#115,(#119,#126),.PCURVE_S1.);
#115 = LINE('',#116,#117);
#116 = CARTESIAN_POINT('',(8.7,0.,0.));
#117 = VECTOR('',#118,1.);
#118 = DIRECTION('',(0.,0.,1.));
#119 = PCURVE('',#96,#120);
#120 = DEFINITIONAL_REPRESENTATION('',(#121),#125);
#121 = LINE('',#122,#123);
#122 = CARTESIAN_POINT('',(0.,0.));
#123 = VECTOR('',#124,1.);
#124 = DIRECTION('',(0.,1.));
#125 = ( GEOMETRIC_REPRESENTATION_CONTEXT(2) 
PARAMETRIC_REPRESENTATION_CONTEXT() REPRESENTATION_CONTEXT('2D SPACE',''
  ) );
#126 = PCURVE('',#96,#127);
#127 = DEFINITIONAL_REPRESENTATION('',(#128),#132);
#128 = LINE('',#129,#130);
#129 = CARTESIAN_POINT('',(6.28318530718,0.));
#130 = VECTOR('',#131,1.);
#131 = DIRECTION('',(0.,1.));
#132 = ( GEOMETRIC_REPRESENTATION_CONTEXT(2) 
PARAMETRIC_REPRESENTATION_CONTEXT() REPRESENTATION_CONTEXT('2D SPACE',''
  ) );
#133 = ORIENTED_EDGE('',*,*,#81,.T.);
#134 = ORIENTED_EDGE('',*,*,#111,.T.);
#135 = ORIENTED_EDGE('',*,*,#136,.F.);
#136 = EDGE_CURVE('',#112,#112,#137,.T.);
#137 = SURFACE_CURVE('',#138,(#143,#150),.PCURVE_S1.);
#138 = CIRCLE('',#139,8.7);
#139 = AXIS2_PLACEMENT_3D('',#140,#141,#142);
#140 = CARTESIAN_POINT('',(0.,0.,2.5));
#141 = DIRECTION('',(0.,0.,1.));
#142 = DIRECTION('',(1.,0.,-0.));
#143 = PCURVE('',#96,#144);
#144 = DEFINITIONAL_REPRESENTATION('',(#145),#149);
#145 = LINE('',#146,#147);
#146 = CARTESIAN_POINT('',(0.,2.5));
#147 = VECTOR('',#148,1.);
#148 = DIRECTION('',(1.,0.));
#149 = ( GEOMETRIC_REPRESENTATION_CONTEXT(2) 
PARAMETRIC_REPRESENTATION_CONTEXT() REPRESENTATION_CONTEXT('2D SPACE',''
  ) );
#150 = PCURVE('',#151,#156);
#151 = PLANE('',#152);
#152 = AXIS2_PLACEMENT_3D('',#153,#154,#155);
#153 = CARTESIAN_POINT('',(0.,0.,2.5));
#154 = DIRECTION('',(0.,0.,1.));
#155 = DIRECTION('',(1.,0.,-0.));
#156 = DEFINITIONAL_REPRESENTATION('',(#157),#161);
#157 = CIRCLE('',#158,8.7);
#158 = AXIS2_PLACEMENT_2D('',#159,#160);
#159 = CARTESIAN_POINT('',(0.,0.));
#160 = DIRECTION('',(1.,0.));
#161 = ( GEOMETRIC_REPRESENTATION_CONTEXT(2) 
PARAMETRIC_REPRESENTATION_CONTEXT() REPRESENTATION_CONTEXT('2D SPACE',''
  ) );
#162 = ADVANCED_FACE('',(#163,#166),#151,.T.);
#163 = FACE_BOUND('',#164,.T.);
#164 = EDGE_LOOP('',(#165));
#165 = ORIENTED_EDGE('',*,*,#136,.T.);
#166 = FACE_BOUND('',#167,.T.);
#167 = EDGE_LOOP('',(#168));
#168 = ORIENTED_EDGE('',*,*,#169,.F.);
#169 = EDGE_CURVE('',#170,#170,#172,.T.);
#170 = VERTEX_POINT('',#171);
#171 = CARTESIAN_POINT('',(6.145,0.,2.5));
#172 = SURFACE_CURVE('',#173,(#178,#185),.PCURVE_S1.);
#173 = CIRCLE('',#174,6.145);
#174 = AXIS2_PLACEMENT_3D('',#175,#176,#177);
#175 = CARTESIAN_POINT('',(0.,0.,2.5));
#176 = DIRECTION('',(0.,0.,1.));
#177 = DIRECTION('',(1.,0.,-0.));
#178 = PCURVE('',#151,#179);
#179 = DEFINITIONAL_REPRESENTATION('',(#180),#184);
#180 = CIRCLE('',#181,6.145);
#181 = AXIS2_PLACEMENT_2D('',#182,#183);
#182 = CARTESIAN_POINT('',(0.,0.));
#183 = DIRECTION('',(1.,0.));
#184 = ( GEOMETRIC_REPRESENTATION_CONTEXT(2) 
PARAMETRIC_REPRESENTATION_CONTEXT() REPRESENTATION_CONTEXT('2D SPACE',''
  ) );
#185 = PCURVE('',#186,#191);
#186 = CYLINDRICAL_SURFACE('',#187,6.145);
#187 = AXIS2_PLACEMENT_3D('',#188,#189,#190);
#188 = CARTESIAN_POINT('',(0.,0.,2.5));
#189 = DIRECTION('',(0.,0.,1.));
#190 = DIRECTION('',(1.,0.,-0.));
#191 = DEFINITIONAL_REPRESENTATION('',(#192),#196);
#192 = LINE('',#193,#194);
#193 = CARTESIAN_POINT('',(0.,0.));
#194 = VECTOR('',#195,1.);
#195 = DIRECTION('',(1.,0.));
#196 = ( GEOMETRIC_REPRESENTATION_CONTEXT(2) 
PARAMETRIC_REPRESENTATION_CONTEXT() REPRESENTATION_CONTEXT('2D SPACE',''
  ) );
#197 = ADVANCED_FACE('',(#198),#186,.T.);
#198 = FACE_BOUND('',#199,.T.);
#199 = EDGE_LOOP('',(#200,#223,#224,#225));
#200 = ORIENTED_EDGE('',*,*,#201,.F.);
#201 = EDGE_CURVE('',#170,#202,#204,.T.);
#202 = VERTEX_POINT('',#203);
#203 = CARTESIAN_POINT('',(6.145,0.,8.3));
#204 = SEAM_CURVE('',#205,(#209,#216),.PCURVE_S1.);
#205 = LINE('',#206,#207);
#206 = CARTESIAN_POINT('',(6.145,0.,2.5));
#207 = VECTOR('',#208,1.);
#208 = DIRECTION('',(0.,0.,1.));
#209 = PCURVE('',#186,#210);
#210 = DEFINITIONAL_REPRESENTATION('',(#211),#215);
#211 = LINE('',#212,#213);
#212 = CARTESIAN_POINT('',(0.,0.));
#213 = VECTOR('',#214,1.);
#214 = DIRECTION('',(0.,1.));
#215 = ( GEOMETRIC_REPRESENTATION_CONTEXT(2) 
PARAMETRIC_REPRESENTATION_CONTEXT() REPRESENTATION_CONTEXT('2D SPACE',''
  ) );
#216 = PCURVE('',#186,#217);
#217 = DEFINITIONAL_REPRESENTATION('',(#218),#222);
#218 = LINE('',#219,#220);
#219 = CARTESIAN_POINT('',(6.28318530718,0.));
#220 = VECTOR('',#221,1.);
#221 = DIRECTION('',(0.,1.));
#222 = ( GEOMETRIC_REPRESENTATION_CONTEXT(2) 
PARAMETRIC_REPRESENTATION_CONTEXT() REPRESENTATION_CONTEXT('2D SPACE',''
  ) );
#223 = ORIENTED_EDGE('',*,*,#169,.T.);
#224 = ORIENTED_EDGE('',*,*,#201,.T.);
#225 = ORIENTED_EDGE('',*,*,#226,.F.);
#226 = EDGE_CURVE('',#202,#202,#227,.T.);
#227 = SURFACE_CURVE('',#228,(#243,#265),.PCURVE_S1.);
#228 = B_SPLINE_CURVE_WITH_KNOTS('',13,(#229,#230,#231,#232,#233,#234,
    #235,#236,#237,#238,#239,#240,#241,#242),.UNSPECIFIED.,.T.,.F.,(14,
    14),(7.635913440933E-16,38.610173712619),.PIECEWISE_BEZIER_KNOTS.);
#229 = CARTESIAN_POINT('',(6.145,0.,8.3));
#230 = CARTESIAN_POINT('',(6.145,2.927050029666,8.3));
#231 = CARTESIAN_POINT('',(4.632203971278,5.921600038813,8.299999999994)
  );
#232 = CARTESIAN_POINT('',(1.519081572529,8.062830708714,8.300000000049)
  );
#233 = CARTESIAN_POINT('',(-2.764969997889,8.391682932662,8.299999999797
    ));
#234 = CARTESIAN_POINT('',(-6.465880640835,6.10946998121,8.300000000502)
  );
#235 = CARTESIAN_POINT('',(-9.180109834992,2.777948939206,8.299999999202
    ));
#236 = CARTESIAN_POINT('',(-9.18010983502,-2.777948939206,8.30000000083)
  );
#237 = CARTESIAN_POINT('',(-6.465880640812,-6.10946998121,8.299999999422
    ));
#238 = CARTESIAN_POINT('',(-2.764969997905,-8.391682932662,
    8.300000000269));
#239 = CARTESIAN_POINT('',(1.519081572537,-8.062830708713,8.299999999922
    ));
#240 = CARTESIAN_POINT('',(4.632203971275,-5.921600038813,8.300000000012
    ));
#241 = CARTESIAN_POINT('',(6.145000000001,-2.927050029666,8.3));
#242 = CARTESIAN_POINT('',(6.145,-1.505090916152E-15,8.3));
#243 = PCURVE('',#186,#244);
#244 = DEFINITIONAL_REPRESENTATION('',(#245),#264);
#245 = B_SPLINE_CURVE_WITH_KNOTS('',9,(#246,#247,#248,#249,#250,#251,
    #252,#253,#254,#255,#256,#257,#258,#259,#260,#261,#262,#263),
  .UNSPECIFIED.,.F.,.F.,(10,8,10),(7.635913440933E-16,19.305086856309,
    38.610173712619),.UNSPECIFIED.);
#246 = CARTESIAN_POINT('',(-2.22044604925E-16,5.8));
#247 = CARTESIAN_POINT('',(0.344016367287,5.8));
#248 = CARTESIAN_POINT('',(0.693951626852,5.799999999998));
#249 = CARTESIAN_POINT('',(1.045310680394,5.800000000007));
#250 = CARTESIAN_POINT('',(1.396480962002,5.799999999984));
#251 = CARTESIAN_POINT('',(1.74485073445,5.800000000018));
#252 = CARTESIAN_POINT('',(2.094637362127,5.799999999993));
#253 = CARTESIAN_POINT('',(2.443412978475,5.799999999999));
#254 = CARTESIAN_POINT('',(2.792527182977,5.799999999999));
#255 = CARTESIAN_POINT('',(3.490658124203,5.8));
#256 = CARTESIAN_POINT('',(3.839772328705,5.8));
#257 = CARTESIAN_POINT('',(4.188547945048,5.800000000008));
#258 = CARTESIAN_POINT('',(4.538334572741,5.799999999978));
#259 = CARTESIAN_POINT('',(4.886704345161,5.800000000026));
#260 = CARTESIAN_POINT('',(5.2378746268,5.799999999984));
#261 = CARTESIAN_POINT('',(5.589233680319,5.800000000005));
#262 = CARTESIAN_POINT('',(5.939168939893,5.799999999999));
#263 = CARTESIAN_POINT('',(6.28318530718,5.8));
#264 = ( GEOMETRIC_REPRESENTATION_CONTEXT(2) 
PARAMETRIC_REPRESENTATION_CONTEXT() REPRESENTATION_CONTEXT('2D SPACE',''
  ) );
#265 = PCURVE('',#266,#295);
#266 = B_SPLINE_SURFACE_WITH_KNOTS('',1,13,(
    (#267,#268,#269,#270,#271,#272,#273,#274,#275,#276,#277,#278,#279
      ,#280)
    ,(#281,#282,#283,#284,#285,#286,#287,#288,#289,#290,#291,#292,#293
      ,#294
    )),.UNSPECIFIED.,.F.,.T.,.F.,(2,2),(14,14),(0.,38.610173712619),(
    7.635913440933E-16,38.610173712619),.PIECEWISE_BEZIER_KNOTS.);
#267 = CARTESIAN_POINT('',(6.145,0.,8.3));
#268 = CARTESIAN_POINT('',(6.145,2.927050029666,8.3));
#269 = CARTESIAN_POINT('',(4.632203971278,5.921600038813,8.299999999994)
  );
#270 = CARTESIAN_POINT('',(1.519081572529,8.062830708714,8.300000000049)
  );
#271 = CARTESIAN_POINT('',(-2.764969997889,8.391682932662,8.299999999797
    ));
#272 = CARTESIAN_POINT('',(-6.465880640835,6.10946998121,8.300000000502)
  );
#273 = CARTESIAN_POINT('',(-9.180109834992,2.777948939206,8.299999999202
    ));
#274 = CARTESIAN_POINT('',(-9.18010983502,-2.777948939206,8.30000000083)
  );
#275 = CARTESIAN_POINT('',(-6.465880640812,-6.10946998121,8.299999999422
    ));
#276 = CARTESIAN_POINT('',(-2.764969997905,-8.391682932662,
    8.300000000269));
#277 = CARTESIAN_POINT('',(1.519081572537,-8.062830708713,8.299999999922
    ));
#278 = CARTESIAN_POINT('',(4.632203971275,-5.921600038813,8.300000000012
    ));
#279 = CARTESIAN_POINT('',(6.145000000001,-2.927050029666,8.3));
#280 = CARTESIAN_POINT('',(6.145,-1.505090916152E-15,8.3));
#281 = CARTESIAN_POINT('',(5.543104873963,0.,8.479281662368));
#282 = CARTESIAN_POINT('',(5.543104873962,2.640349110785,8.479281662367)
  );
#283 = CARTESIAN_POINT('',(4.178485339365,5.341586661806,8.479281662364)
  );
#284 = CARTESIAN_POINT('',(1.370289417166,7.273086444178,8.479281662403)
  );
#285 = CARTESIAN_POINT('',(-2.494144616939,7.569728000732,8.47928166222)
  );
#286 = CARTESIAN_POINT('',(-5.832555654363,5.511054976548,8.479281662737
    ));
#287 = CARTESIAN_POINT('',(-8.280929465853,2.505852286966,8.479281661779
    ));
#288 = CARTESIAN_POINT('',(-8.280929466604,-2.505852286958,
    8.479281662978));
#289 = CARTESIAN_POINT('',(-5.832555653858,-5.511054976567,
    8.479281661945));
#290 = CARTESIAN_POINT('',(-2.494144617166,-7.569728000716,
    8.479281662561));
#291 = CARTESIAN_POINT('',(1.370289417232,-7.273086444185,8.479281662313
    ));
#292 = CARTESIAN_POINT('',(4.178485339354,-5.341586661804,8.479281662375
    ));
#293 = CARTESIAN_POINT('',(5.543104873963,-2.640349110785,8.479281662368
    ));
#294 = CARTESIAN_POINT('',(5.543104873963,-1.357669128247E-15,
    8.479281662368));
#295 = DEFINITIONAL_REPRESENTATION('',(#296),#300);
#296 = LINE('',#297,#298);
#297 = CARTESIAN_POINT('',(0.,0.));
#298 = VECTOR('',#299,1.);
#299 = DIRECTION('',(0.,1.));
#300 = ( GEOMETRIC_REPRESENTATION_CONTEXT(2) 
PARAMETRIC_REPRESENTATION_CONTEXT() REPRESENTATION_CONTEXT('2D SPACE',''
  ) );
#301 = ADVANCED_FACE('',(#302),#266,.F.);
#302 = FACE_BOUND('',#303,.F.);
#303 = EDGE_LOOP('',(#304,#324,#388,#389));
#304 = ORIENTED_EDGE('',*,*,#305,.T.);
#305 = EDGE_CURVE('',#202,#306,#308,.T.);
#306 = VERTEX_POINT('',#307);
#307 = CARTESIAN_POINT('',(5.543104873963,0.,8.479281662368));
#308 = SEAM_CURVE('',#309,(#312,#318),.PCURVE_S1.);
#309 = B_SPLINE_CURVE_WITH_KNOTS('',1,(#310,#311),.UNSPECIFIED.,.F.,.F.,
  (2,2),(0.,38.610173712619),.PIECEWISE_BEZIER_KNOTS.);
#310 = CARTESIAN_POINT('',(6.145,0.,8.3));
#311 = CARTESIAN_POINT('',(5.543104873963,0.,8.479281662368));
#312 = PCURVE('',#266,#313);
#313 = DEFINITIONAL_REPRESENTATION('',(#314),#317);
#314 = B_SPLINE_CURVE_WITH_KNOTS('',1,(#315,#316),.UNSPECIFIED.,.F.,.F.,
  (2,2),(0.,38.610173712619),.PIECEWISE_BEZIER_KNOTS.);
#315 = CARTESIAN_POINT('',(0.,7.635913440933E-16));
#316 = CARTESIAN_POINT('',(38.610173712619,7.635913440933E-16));
#317 = ( GEOMETRIC_REPRESENTATION_CONTEXT(2) 
PARAMETRIC_REPRESENTATION_CONTEXT() REPRESENTATION_CONTEXT('2D SPACE',''
  ) );
#318 = PCURVE('',#266,#319);
#319 = DEFINITIONAL_REPRESENTATION('',(#320),#323);
#320 = B_SPLINE_CURVE_WITH_KNOTS('',1,(#321,#322),.UNSPECIFIED.,.F.,.F.,
  (2,2),(0.,38.610173712619),.PIECEWISE_BEZIER_KNOTS.);
#321 = CARTESIAN_POINT('',(0.,38.610173712619));
#322 = CARTESIAN_POINT('',(38.610173712619,38.610173712619));
#323 = ( GEOMETRIC_REPRESENTATION_CONTEXT(2) 
PARAMETRIC_REPRESENTATION_CONTEXT() REPRESENTATION_CONTEXT('2D SPACE',''
  ) );
#324 = ORIENTED_EDGE('',*,*,#325,.T.);
#325 = EDGE_CURVE('',#306,#306,#326,.T.);
#326 = SURFACE_CURVE('',#327,(#342,#349),.PCURVE_S1.);
#327 = B_SPLINE_CURVE_WITH_KNOTS('',13,(#328,#329,#330,#331,#332,#333,
    #334,#335,#336,#337,#338,#339,#340,#341),.UNSPECIFIED.,.T.,.F.,(14,
    14),(7.635913440933E-16,38.610173712619),.PIECEWISE_BEZIER_KNOTS.);
#328 = CARTESIAN_POINT('',(5.543104873963,0.,8.479281662368));
#329 = CARTESIAN_POINT('',(5.543104873962,2.640349110785,8.479281662367)
  );
#330 = CARTESIAN_POINT('',(4.178485339365,5.341586661806,8.479281662364)
  );
#331 = CARTESIAN_POINT('',(1.370289417166,7.273086444178,8.479281662403)
  );
#332 = CARTESIAN_POINT('',(-2.494144616939,7.569728000732,8.47928166222)
  );
#333 = CARTESIAN_POINT('',(-5.832555654363,5.511054976548,8.479281662737
    ));
#334 = CARTESIAN_POINT('',(-8.280929465853,2.505852286966,8.479281661779
    ));
#335 = CARTESIAN_POINT('',(-8.280929466604,-2.505852286958,
    8.479281662978));
#336 = CARTESIAN_POINT('',(-5.832555653858,-5.511054976567,
    8.479281661945));
#337 = CARTESIAN_POINT('',(-2.494144617166,-7.569728000716,
    8.479281662561));
#338 = CARTESIAN_POINT('',(1.370289417232,-7.273086444185,8.479281662313
    ));
#339 = CARTESIAN_POINT('',(4.178485339354,-5.341586661804,8.479281662375
    ));
#340 = CARTESIAN_POINT('',(5.543104873963,-2.640349110785,8.479281662368
    ));
#341 = CARTESIAN_POINT('',(5.543104873963,-1.357669128247E-15,
    8.479281662368));
#342 = PCURVE('',#266,#343);
#343 = DEFINITIONAL_REPRESENTATION('',(#344),#348);
#344 = LINE('',#345,#346);
#345 = CARTESIAN_POINT('',(38.610173712619,0.));
#346 = VECTOR('',#347,1.);
#347 = DIRECTION('',(0.,1.));
#348 = ( GEOMETRIC_REPRESENTATION_CONTEXT(2) 
PARAMETRIC_REPRESENTATION_CONTEXT() REPRESENTATION_CONTEXT('2D SPACE',''
  ) );
#349 = PCURVE('',#350,#355);
#350 = CONICAL_SURFACE('',#351,6.145,0.578988276219);
#351 = AXIS2_PLACEMENT_3D('',#352,#353,#354);
#352 = CARTESIAN_POINT('',(0.,0.,9.4));
#353 = DIRECTION('',(0.,0.,1.));
#354 = DIRECTION('',(1.,0.,0.));
#355 = DEFINITIONAL_REPRESENTATION('',(#356),#387);
#356 = B_SPLINE_CURVE_WITH_KNOTS('',8,(#357,#358,#359,#360,#361,#362,
    #363,#364,#365,#366,#367,#368,#369,#370,#371,#372,#373,#374,#375,
    #376,#377,#378,#379,#380,#381,#382,#383,#384,#385,#386),
  .UNSPECIFIED.,.F.,.F.,(9,7,7,7,9),(7.635913440933E-16,9.652543428155,
    19.305086856309,28.957630284464,38.610173712619),.UNSPECIFIED.);
#357 = CARTESIAN_POINT('',(8.881784197001E-16,-0.920718337632));
#358 = CARTESIAN_POINT('',(0.193509206599,-0.920718337632));
#359 = CARTESIAN_POINT('',(0.388935446108,-0.920718337633));
#360 = CARTESIAN_POINT('',(0.585373005012,-0.920718337631));
#361 = CARTESIAN_POINT('',(0.782400171775,-0.920718337633));
#362 = CARTESIAN_POINT('',(0.979509157192,-0.920718337633));
#363 = CARTESIAN_POINT('',(1.176499674944,-0.920718337633));
#364 = CARTESIAN_POINT('',(1.373356269865,-0.920718337632));
#365 = CARTESIAN_POINT('',(1.766793290723,-0.920718337632));
#366 = CARTESIAN_POINT('',(1.963375180791,-0.920718337632));
#367 = CARTESIAN_POINT('',(2.159828246553,-0.920718337633));
#368 = CARTESIAN_POINT('',(2.356202170569,-0.920718337633));
#369 = CARTESIAN_POINT('',(2.552547447569,-0.920718337634));
#370 = CARTESIAN_POINT('',(2.74889312042,-0.920718337634));
#371 = CARTESIAN_POINT('',(2.94524332637,-0.920718337633));
#372 = CARTESIAN_POINT('',(3.33794198081,-0.920718337632));
#373 = CARTESIAN_POINT('',(3.534292186759,-0.920718337632));
#374 = CARTESIAN_POINT('',(3.73063785961,-0.920718337632));
#375 = CARTESIAN_POINT('',(3.92698313661,-0.920718337632));
#376 = CARTESIAN_POINT('',(4.123357060626,-0.920718337633));
#377 = CARTESIAN_POINT('',(4.319810126389,-0.920718337633));
#378 = CARTESIAN_POINT('',(4.516392016457,-0.920718337633));
#379 = CARTESIAN_POINT('',(4.909829037315,-0.920718337632));
#380 = CARTESIAN_POINT('',(5.106685632238,-0.920718337632));
#381 = CARTESIAN_POINT('',(5.303676149978,-0.920718337632));
#382 = CARTESIAN_POINT('',(5.500785135422,-0.920718337632));
#383 = CARTESIAN_POINT('',(5.697812302149,-0.920718337634));
#384 = CARTESIAN_POINT('',(5.894249861081,-0.920718337631));
#385 = CARTESIAN_POINT('',(6.089676100581,-0.920718337632));
#386 = CARTESIAN_POINT('',(6.28318530718,-0.920718337632));
#387 = ( GEOMETRIC_REPRESENTATION_CONTEXT(2) 
PARAMETRIC_REPRESENTATION_CONTEXT() REPRESENTATION_CONTEXT('2D SPACE',''
  ) );
#388 = ORIENTED_EDGE('',*,*,#305,.F.);
#389 = ORIENTED_EDGE('',*,*,#226,.F.);
#390 = ADVANCED_FACE('',(#391),#350,.F.);
#391 = FACE_BOUND('',#392,.T.);
#392 = EDGE_LOOP('',(#393,#416,#417));
#393 = ORIENTED_EDGE('',*,*,#394,.F.);
#394 = EDGE_CURVE('',#306,#395,#397,.T.);
#395 = VERTEX_POINT('',#396);
#396 = CARTESIAN_POINT('',(0.,0.,0.));
#397 = SEAM_CURVE('',#398,(#402,#409),.PCURVE_S1.);
#398 = LINE('',#399,#400);
#399 = CARTESIAN_POINT('',(6.145,0.,9.4));
#400 = VECTOR('',#401,1.);
#401 = DIRECTION('',(-0.547177387307,0.,-0.837016670575));
#402 = PCURVE('',#350,#403);
#403 = DEFINITIONAL_REPRESENTATION('',(#404),#408);
#404 = LINE('',#405,#406);
#405 = CARTESIAN_POINT('',(0.,-0.));
#406 = VECTOR('',#407,1.);
#407 = DIRECTION('',(0.,-1.));
#408 = ( GEOMETRIC_REPRESENTATION_CONTEXT(2) 
PARAMETRIC_REPRESENTATION_CONTEXT() REPRESENTATION_CONTEXT('2D SPACE',''
  ) );
#409 = PCURVE('',#350,#410);
#410 = DEFINITIONAL_REPRESENTATION('',(#411),#415);
#411 = LINE('',#412,#413);
#412 = CARTESIAN_POINT('',(6.28318530718,-0.));
#413 = VECTOR('',#414,1.);
#414 = DIRECTION('',(0.,-1.));
#415 = ( GEOMETRIC_REPRESENTATION_CONTEXT(2) 
PARAMETRIC_REPRESENTATION_CONTEXT() REPRESENTATION_CONTEXT('2D SPACE',''
  ) );
#416 = ORIENTED_EDGE('',*,*,#325,.T.);
#417 = ORIENTED_EDGE('',*,*,#394,.T.);
#418 = ( GEOMETRIC_REPRESENTATION_CONTEXT(3) 
GLOBAL_UNCERTAINTY_ASSIGNED_CONTEXT((#422)) GLOBAL_UNIT_ASSIGNED_CONTEXT
((#419,#420,#421)) REPRESENTATION_CONTEXT('Context #1',
  '3D Context with UNIT and UNCERTAINTY') );
#419 = ( LENGTH_UNIT() NAMED_UNIT(*) SI_UNIT(.MILLI.,.METRE.) );
#420 = ( NAMED_UNIT(*) PLANE_ANGLE_UNIT() SI_UNIT($,.RADIAN.) );
#421 = ( NAMED_UNIT(*) SI_UNIT($,.STERADIAN.) SOLID_ANGLE_UNIT() );
#422 = UNCERTAINTY_MEASURE_WITH_UNIT(LENGTH_MEASURE(2.E-05),#419,
  'distance_accuracy_value','confusion accuracy');
#423 = PRODUCT_RELATED_PRODUCT_CATEGORY('part',$,(#7));
ENDSEC;
END-ISO-10303-21;
