ISO-10303-21;
HEADER;
FILE_DESCRIPTION(('Open CASCADE Model'),'2;1');
FILE_NAME('Open CASCADE Shape Model','2026-06-10T00:30:28',('Author'),(
    'Open CASCADE'),'Open CASCADE STEP processor 7.8','Open CASCADE 7.8'
  ,'Unknown');
FILE_SCHEMA(('AUTOMOTIVE_DESIGN { 1 0 10303 214 1 1 1 1 }'));
ENDSEC;
DATA;
#1 = APPLICATION_PROTOCOL_DEFINITION('international standard',
  'automotive_design',2000,#2);
#2 = APPLICATION_CONTEXT(
  'core data for automotive mechanical design processes');
#3 = SHAPE_DEFINITION_REPRESENTATION(#4,#10);
#4 = PRODUCT_DEFINITION_SHAPE('','',#5);
#5 = PRODUCT_DEFINITION('design','',#6,#9);
#6 = PRODUCT_DEFINITION_FORMATION('','',#7);
#7 = PRODUCT('Open CASCADE STEP translator 7.8 61',
  'Open CASCADE STEP translator 7.8 61','',(#8));
#8 = PRODUCT_CONTEXT('',#2,'mechanical');
#9 = PRODUCT_DEFINITION_CONTEXT('part definition',#2,'design');
#10 = ADVANCED_BREP_SHAPE_REPRESENTATION('',(#11,#15),#698);
#11 = AXIS2_PLACEMENT_3D('',#12,#13,#14);
#12 = CARTESIAN_POINT('',(0.,0.,0.));
#13 = DIRECTION('',(0.,0.,1.));
#14 = DIRECTION('',(1.,0.,-0.));
#15 = MANIFOLD_SOLID_BREP('',#16);
#16 = CLOSED_SHELL('',(#17,#381,#515,#641,#684,#691));
#17 = ADVANCED_FACE('',(#18),#63,.T.);
#18 = FACE_BOUND('',#19,.T.);
#19 = EDGE_LOOP('',(#20,#180,#205,#358));
#20 = ORIENTED_EDGE('',*,*,#21,.F.);
#21 = EDGE_CURVE('',#22,#24,#26,.T.);
#22 = VERTEX_POINT('',#23);
#23 = CARTESIAN_POINT('',(-7.3,-5.5,0.));
#24 = VERTEX_POINT('',#25);
#25 = CARTESIAN_POINT('',(40.916518972806,-5.5,103.27472878509));
#26 = SURFACE_CURVE('',#27,(#62,#105),.PCURVE_S1.);
#27 = B_SPLINE_CURVE_WITH_KNOTS('',9,(#28,#29,#30,#31,#32,#33,#34,#35,
    #36,#37,#38,#39,#40,#41,#42,#43,#44,#45,#46,#47,#48,#49,#50,#51,#52,
    #53,#54,#55,#56,#57,#58,#59,#60,#61),.UNSPECIFIED.,.F.,.F.,(10,8,8,8
    ,10),(0.,38.438280496931,49.171644802329,85.234451619902,
    116.45203935372),.UNSPECIFIED.);
#28 = CARTESIAN_POINT('',(-7.3,-5.5,-1.7763568394E-15));
#29 = CARTESIAN_POINT('',(-3.326525197705,-5.5,2.428461649959));
#30 = CARTESIAN_POINT('',(4.341443060361E-02,-5.5,5.018490244836));
#31 = CARTESIAN_POINT('',(2.906313006991,-5.500000000001,7.790877937657)
  );
#32 = CARTESIAN_POINT('',(5.345188485297,-5.499999999999,10.786540464696
    ));
#33 = CARTESIAN_POINT('',(7.375759780423,-5.500000000001,14.078296439356
    ));
#34 = CARTESIAN_POINT('',(8.998793466824,-5.499999999999,17.611637230316
    ));
#35 = CARTESIAN_POINT('',(10.278879637954,-5.5,21.354385753321));
#36 = CARTESIAN_POINT('',(11.27423471995,-5.5,25.264872601249));
#37 = CARTESIAN_POINT('',(12.274589966572,-5.5,30.438074439192));
#38 = CARTESIAN_POINT('',(12.467669243044,-5.5,31.587048451035));
#39 = CARTESIAN_POINT('',(12.639407550489,-5.499999999999,
    32.754036836071));
#40 = CARTESIAN_POINT('',(12.793903620149,-5.500000000001,
    33.937595838595));
#41 = CARTESIAN_POINT('',(12.935430938888,-5.499999999999,
    35.136554738303));
#42 = CARTESIAN_POINT('',(13.068454686091,-5.500000000001,
    36.349998193273));
#43 = CARTESIAN_POINT('',(13.197648670459,-5.5,37.57724858248));
#44 = CARTESIAN_POINT('',(13.327912266905,-5.5,38.817848348761));
#45 = CARTESIAN_POINT('',(13.922927149372,-5.5,44.283802633766));
#46 = CARTESIAN_POINT('',(14.625817375433,-5.5,48.445651323534));
#47 = CARTESIAN_POINT('',(15.553180402521,-5.500000000001,
    52.551545565347));
#48 = CARTESIAN_POINT('',(16.683851525852,-5.499999999998,56.59741574283
    ));
#49 = CARTESIAN_POINT('',(17.996181777022,-5.500000000001,
    60.580476909537));
#50 = CARTESIAN_POINT('',(19.468602285045,-5.499999999999,
    64.498990245669));
#51 = CARTESIAN_POINT('',(21.079950186701,-5.5,68.351974532353));
#52 = CARTESIAN_POINT('',(22.809556085777,-5.5,72.138867641591));
#53 = CARTESIAN_POINT('',(26.219091272795,-5.5,79.079571446059));
#54 = CARTESIAN_POINT('',(27.86997055489,-5.5,82.260484898883));
#55 = CARTESIAN_POINT('',(29.584452480714,-5.5,85.400105879937));
#56 = CARTESIAN_POINT('',(31.357302088548,-5.5,88.496694237999));
#57 = CARTESIAN_POINT('',(33.183324982869,-5.5,91.548536013616));
#58 = CARTESIAN_POINT('',(35.057364435059,-5.5,94.553937259984));
#59 = CARTESIAN_POINT('',(36.974298484217,-5.5,97.51121786391));
#60 = CARTESIAN_POINT('',(38.929037037879,-5.5,100.41870536669));
#61 = CARTESIAN_POINT('',(40.916518972806,-5.5,103.27472878509));
#62 = PCURVE('',#63,#68);
#63 = PLANE('',#64);
#64 = AXIS2_PLACEMENT_3D('',#65,#66,#67);
#65 = CARTESIAN_POINT('',(23.455018606188,-5.5,52.984969552684));
#66 = DIRECTION('',(1.553239980012E-16,-1.,-5.826438361025E-17));
#67 = DIRECTION('',(0.365867241331,2.603220528679E-18,0.930667052023));
#68 = DEFINITIONAL_REPRESENTATION('',(#69),#104);
#69 = B_SPLINE_CURVE_WITH_KNOTS('',9,(#70,#71,#72,#73,#74,#75,#76,#77,
    #78,#79,#80,#81,#82,#83,#84,#85,#86,#87,#88,#89,#90,#91,#92,#93,#94,
    #95,#96,#97,#98,#99,#100,#101,#102,#103),.UNSPECIFIED.,.F.,.F.,(10,8
    ,8,8,10),(0.,38.438280496931,49.171644802329,85.234451619902,
    116.45203935372),.UNSPECIFIED.);
#70 = CARTESIAN_POINT('',(-60.56361922964,9.237217858899));
#71 = CARTESIAN_POINT('',(-56.84976572051,6.427730342908));
#72 = CARTESIAN_POINT('',(-53.2063609282,4.23904518051));
#73 = CARTESIAN_POINT('',(-49.5787502427,2.588965639254));
#74 = CARTESIAN_POINT('',(-45.89848118661,1.415199372334));
#75 = CARTESIAN_POINT('',(-42.09203283962,0.72975924876));
#76 = CARTESIAN_POINT('',(-38.20985412448,0.511988920373));
#77 = CARTESIAN_POINT('',(-34.25825979401,0.690003974258));
#78 = CARTESIAN_POINT('',(-30.25473070928,1.194378829692));
#79 = CARTESIAN_POINT('',(-25.07420499081,2.156086246638));
#80 = CARTESIAN_POINT('',(-23.93425135212,2.396765677671));
#81 = CARTESIAN_POINT('',(-22.78534029129,2.66389731446));
#82 = CARTESIAN_POINT('',(-21.62731587272,2.953138379965));
#83 = CARTESIAN_POINT('',(-20.45970411835,3.260083352559));
#84 = CARTESIAN_POINT('',(-19.2817232439,3.580241743281));
#85 = CARTESIAN_POINT('',(-18.09229389542,3.909015873032));
#86 = CARTESIAN_POINT('',(-16.89004938552,4.241678649826));
#87 = CARTESIAN_POINT('',(-11.585369371,5.687731518745));
#88 = CARTESIAN_POINT('',(-7.454909411967,6.556258843122));
#89 = CARTESIAN_POINT('',(-3.294397169589,7.195404827995));
#90 = CARTESIAN_POINT('',(0.884636426103,7.623377827455));
#91 = CARTESIAN_POINT('',(5.071678868859,7.859306902433));
#92 = CARTESIAN_POINT('',(9.257220553059,7.922629313301));
#93 = CARTESIAN_POINT('',(13.432605492241,7.832681643743));
#94 = CARTESIAN_POINT('',(17.589748277426,7.60849455558));
#95 = CARTESIAN_POINT('',(25.296669859188,6.974728648144));
#96 = CARTESIAN_POINT('',(28.861043853779,6.602101723327));
#97 = CARTESIAN_POINT('',(32.410258429197,6.155174350836));
#98 = CARTESIAN_POINT('',(35.940778783036,5.638181872733));
#99 = CARTESIAN_POINT('',(39.449109330542,5.055331460173));
#100 = CARTESIAN_POINT('',(42.931786893163,4.410802550929));
#101 = CARTESIAN_POINT('',(46.385373887202,3.708747286876));
#102 = CARTESIAN_POINT('',(49.806451512366,2.953290951512));
#103 = CARTESIAN_POINT('',(53.191612940397,2.148532407449));
#104 = ( GEOMETRIC_REPRESENTATION_CONTEXT(2) 
PARAMETRIC_REPRESENTATION_CONTEXT() REPRESENTATION_CONTEXT('2D SPACE',''
  ) );
#105 = PCURVE('',#106,#175);
#106 = B_SPLINE_SURFACE_WITH_KNOTS('',1,9,(
    (#107,#108,#109,#110,#111,#112,#113,#114,#115,#116,#117,#118,#119
      ,#120,#121,#122,#123,#124,#125,#126,#127,#128,#129,#130,#131,#132
      ,#133,#134,#135,#136,#137,#138,#139,#140)
    ,(#141,#142,#143,#144,#145,#146,#147,#148,#149,#150,#151,#152,#153
      ,#154,#155,#156,#157,#158,#159,#160,#161,#162,#163,#164,#165,#166
      ,#167,#168,#169,#170,#171,#172,#173,#174
  )),.UNSPECIFIED.,.F.,.F.,.F.,(2,2),(10,8,8,8,10),(0.,11.),(0.,
    38.438280496931,49.171644802329,85.234451619902,116.45203935372),
  .UNSPECIFIED.);
#107 = CARTESIAN_POINT('',(-7.3,5.5,0.));
#108 = CARTESIAN_POINT('',(-3.326525197705,5.5,2.428461649959));
#109 = CARTESIAN_POINT('',(4.341443060365E-02,5.5,5.018490244836));
#110 = CARTESIAN_POINT('',(2.906313006991,5.500000000001,7.790877937657)
  );
#111 = CARTESIAN_POINT('',(5.345188485297,5.499999999999,10.786540464696
    ));
#112 = CARTESIAN_POINT('',(7.375759780422,5.500000000001,14.078296439356
    ));
#113 = CARTESIAN_POINT('',(8.998793466824,5.499999999999,17.611637230316
    ));
#114 = CARTESIAN_POINT('',(10.278879637954,5.5,21.354385753321));
#115 = CARTESIAN_POINT('',(11.27423471995,5.5,25.264872601249));
#116 = CARTESIAN_POINT('',(12.274589966572,5.5,30.438074439192));
#117 = CARTESIAN_POINT('',(12.467669243044,5.5,31.587048451035));
#118 = CARTESIAN_POINT('',(12.639407550489,5.499999999999,
    32.754036836071));
#119 = CARTESIAN_POINT('',(12.793903620149,5.500000000001,
    33.937595838595));
#120 = CARTESIAN_POINT('',(12.935430938888,5.499999999999,
    35.136554738303));
#121 = CARTESIAN_POINT('',(13.068454686091,5.500000000001,
    36.349998193273));
#122 = CARTESIAN_POINT('',(13.197648670459,5.5,37.57724858248));
#123 = CARTESIAN_POINT('',(13.327912266905,5.5,38.817848348761));
#124 = CARTESIAN_POINT('',(13.922927149372,5.5,44.283802633766));
#125 = CARTESIAN_POINT('',(14.625817375433,5.499999999999,
    48.445651323533));
#126 = CARTESIAN_POINT('',(15.553180402521,5.500000000001,
    52.551545565347));
#127 = CARTESIAN_POINT('',(16.683851525852,5.499999999998,
    56.597415742828));
#128 = CARTESIAN_POINT('',(17.996181777022,5.500000000002,
    60.580476909539));
#129 = CARTESIAN_POINT('',(19.468602285045,5.499999999999,
    64.498990245667));
#130 = CARTESIAN_POINT('',(21.079950186701,5.5,68.351974532354));
#131 = CARTESIAN_POINT('',(22.809556085777,5.5,72.138867641591));
#132 = CARTESIAN_POINT('',(26.219091272795,5.5,79.079571446059));
#133 = CARTESIAN_POINT('',(27.86997055489,5.5,82.260484898883));
#134 = CARTESIAN_POINT('',(29.584452480714,5.5,85.400105879937));
#135 = CARTESIAN_POINT('',(31.357302088548,5.5,88.496694237999));
#136 = CARTESIAN_POINT('',(33.183324982869,5.5,91.548536013616));
#137 = CARTESIAN_POINT('',(35.057364435059,5.5,94.553937259984));
#138 = CARTESIAN_POINT('',(36.974298484217,5.5,97.51121786391));
#139 = CARTESIAN_POINT('',(38.929037037879,5.5,100.41870536669));
#140 = CARTESIAN_POINT('',(40.916518972806,5.5,103.27472878509));
#141 = CARTESIAN_POINT('',(-7.3,-5.5,0.));
#142 = CARTESIAN_POINT('',(-3.326525197705,-5.5,2.428461649959));
#143 = CARTESIAN_POINT('',(4.341443060356E-02,-5.5,5.018490244836));
#144 = CARTESIAN_POINT('',(2.906313006991,-5.500000000001,7.790877937656
    ));
#145 = CARTESIAN_POINT('',(5.345188485297,-5.499999999999,
    10.786540464697));
#146 = CARTESIAN_POINT('',(7.375759780423,-5.500000000001,
    14.078296439355));
#147 = CARTESIAN_POINT('',(8.998793466824,-5.499999999999,
    17.611637230317));
#148 = CARTESIAN_POINT('',(10.278879637954,-5.5,21.354385753321));
#149 = CARTESIAN_POINT('',(11.27423471995,-5.5,25.264872601249));
#150 = CARTESIAN_POINT('',(12.274589966572,-5.5,30.438074439192));
#151 = CARTESIAN_POINT('',(12.467669243044,-5.5,31.587048451035));
#152 = CARTESIAN_POINT('',(12.639407550489,-5.499999999999,
    32.754036836071));
#153 = CARTESIAN_POINT('',(12.793903620148,-5.500000000001,
    33.937595838594));
#154 = CARTESIAN_POINT('',(12.935430938889,-5.499999999999,
    35.136554738303));
#155 = CARTESIAN_POINT('',(13.06845468609,-5.500000000001,
    36.349998193273));
#156 = CARTESIAN_POINT('',(13.197648670459,-5.5,37.57724858248));
#157 = CARTESIAN_POINT('',(13.327912266905,-5.5,38.817848348761));
#158 = CARTESIAN_POINT('',(13.922927149372,-5.5,44.283802633766));
#159 = CARTESIAN_POINT('',(14.625817375433,-5.5,48.445651323534));
#160 = CARTESIAN_POINT('',(15.553180402521,-5.500000000001,
    52.551545565347));
#161 = CARTESIAN_POINT('',(16.683851525852,-5.499999999998,
    56.59741574283));
#162 = CARTESIAN_POINT('',(17.996181777022,-5.500000000001,
    60.580476909537));
#163 = CARTESIAN_POINT('',(19.468602285044,-5.499999999999,
    64.498990245669));
#164 = CARTESIAN_POINT('',(21.079950186701,-5.5,68.351974532353));
#165 = CARTESIAN_POINT('',(22.809556085777,-5.5,72.138867641591));
#166 = CARTESIAN_POINT('',(26.219091272795,-5.5,79.079571446059));
#167 = CARTESIAN_POINT('',(27.86997055489,-5.5,82.260484898883));
#168 = CARTESIAN_POINT('',(29.584452480714,-5.5,85.400105879937));
#169 = CARTESIAN_POINT('',(31.357302088548,-5.5,88.496694237999));
#170 = CARTESIAN_POINT('',(33.183324982869,-5.5,91.548536013616));
#171 = CARTESIAN_POINT('',(35.057364435059,-5.5,94.553937259984));
#172 = CARTESIAN_POINT('',(36.974298484217,-5.5,97.51121786391));
#173 = CARTESIAN_POINT('',(38.929037037879,-5.5,100.41870536669));
#174 = CARTESIAN_POINT('',(40.916518972806,-5.5,103.27472878509));
#175 = DEFINITIONAL_REPRESENTATION('',(#176),#179);
#176 = B_SPLINE_CURVE_WITH_KNOTS('',1,(#177,#178),.UNSPECIFIED.,.F.,.F.,
  (2,2),(0.,116.45203935372),.PIECEWISE_BEZIER_KNOTS.);
#177 = CARTESIAN_POINT('',(11.,0.));
#178 = CARTESIAN_POINT('',(11.,116.45203935372));
#179 = ( GEOMETRIC_REPRESENTATION_CONTEXT(2) 
PARAMETRIC_REPRESENTATION_CONTEXT() REPRESENTATION_CONTEXT('2D SPACE',''
  ) );
#180 = ORIENTED_EDGE('',*,*,#181,.T.);
#181 = EDGE_CURVE('',#22,#182,#184,.T.);
#182 = VERTEX_POINT('',#183);
#183 = CARTESIAN_POINT('',(7.3,-5.5,7.105427357601E-15));
#184 = SURFACE_CURVE('',#185,(#188,#194),.PCURVE_S1.);
#185 = B_SPLINE_CURVE_WITH_KNOTS('',1,(#186,#187),.UNSPECIFIED.,.F.,.F.,
  (2,2),(0.,14.6),.PIECEWISE_BEZIER_KNOTS.);
#186 = CARTESIAN_POINT('',(-7.3,-5.5,-1.7763568394E-15));
#187 = CARTESIAN_POINT('',(7.3,-5.5,7.105427357601E-15));
#188 = PCURVE('',#63,#189);
#189 = DEFINITIONAL_REPRESENTATION('',(#190),#193);
#190 = B_SPLINE_CURVE_WITH_KNOTS('',1,(#191,#192),.UNSPECIFIED.,.F.,.F.,
  (2,2),(0.,14.6),.PIECEWISE_BEZIER_KNOTS.);
#191 = CARTESIAN_POINT('',(-60.56361922964,9.237217858899));
#192 = CARTESIAN_POINT('',(-55.22195750621,-4.350521100636));
#193 = ( GEOMETRIC_REPRESENTATION_CONTEXT(2) 
PARAMETRIC_REPRESENTATION_CONTEXT() REPRESENTATION_CONTEXT('2D SPACE',''
  ) );
#194 = PCURVE('',#195,#200);
#195 = PLANE('',#196);
#196 = AXIS2_PLACEMENT_3D('',#197,#198,#199);
#197 = CARTESIAN_POINT('',(-1.249000902703E-15,1.387778780781E-16,
    3.299444051308E-15));
#198 = DIRECTION('',(-5.213675762045E-16,0.,1.));
#199 = DIRECTION('',(1.,0.,5.213675762045E-16));
#200 = DEFINITIONAL_REPRESENTATION('',(#201),#204);
#201 = B_SPLINE_CURVE_WITH_KNOTS('',1,(#202,#203),.UNSPECIFIED.,.F.,.F.,
  (2,2),(0.,14.6),.PIECEWISE_BEZIER_KNOTS.);
#202 = CARTESIAN_POINT('',(-7.3,-5.5));
#203 = CARTESIAN_POINT('',(7.3,-5.5));
#204 = ( GEOMETRIC_REPRESENTATION_CONTEXT(2) 
PARAMETRIC_REPRESENTATION_CONTEXT() REPRESENTATION_CONTEXT('2D SPACE',''
  ) );
#205 = ORIENTED_EDGE('',*,*,#206,.T.);
#206 = EDGE_CURVE('',#182,#207,#209,.T.);
#207 = VERTEX_POINT('',#208);
#208 = CARTESIAN_POINT('',(55.010481027194,-5.5,107.0852712149));
#209 = SURFACE_CURVE('',#210,(#245,#283),.PCURVE_S1.);
#210 = B_SPLINE_CURVE_WITH_KNOTS('',9,(#211,#212,#213,#214,#215,#216,
    #217,#218,#219,#220,#221,#222,#223,#224,#225,#226,#227,#228,#229,
    #230,#231,#232,#233,#234,#235,#236,#237,#238,#239,#240,#241,#242,
    #243,#244),.UNSPECIFIED.,.F.,.F.,(10,8,8,8,10),(0.,38.438280496931,
    49.171644802329,85.234451619902,116.45203935372),.UNSPECIFIED.);
#211 = CARTESIAN_POINT('',(7.3,-5.5,7.105427357601E-15));
#212 = CARTESIAN_POINT('',(11.273474802296,-5.5,3.947399732268));
#213 = CARTESIAN_POINT('',(14.465635697033,-5.5,8.15099725612));
#214 = CARTESIAN_POINT('',(16.936643568035,-5.500000000001,
    12.543726669082));
#215 = CARTESIAN_POINT('',(18.760135467336,-5.499999999999,
    17.038398485413));
#216 = CARTESIAN_POINT('',(20.077047485934,-5.500000000001,
    21.515920342274));
#217 = CARTESIAN_POINT('',(21.043268055242,-5.499999999999,
    25.984527121511));
#218 = CARTESIAN_POINT('',(21.750862087702,-5.5,30.430122157939));
#219 = CARTESIAN_POINT('',(22.298268163056,-5.5,34.848101109221));
#220 = CARTESIAN_POINT('',(22.902711202021,-5.5,40.449029677329));
#221 = CARTESIAN_POINT('',(23.037456303184,-5.5,41.659189423496));
#222 = CARTESIAN_POINT('',(23.17969003428,-5.499999999999,
    42.856468864804));
#223 = CARTESIAN_POINT('',(23.333938115957,-5.500000000001,
    44.040128183918));
#224 = CARTESIAN_POINT('',(23.504551513192,-5.499999999999,
    45.209154527902));
#225 = CARTESIAN_POINT('',(23.695689498507,-5.500000000001,
    46.362279665696));
#226 = CARTESIAN_POINT('',(23.911302715044,-5.5,47.497997645093));
#227 = CARTESIAN_POINT('',(24.155116239777,-5.5,48.614582450203));
#228 = CARTESIAN_POINT('',(25.356247276761,-5.5,53.390931232228));
#229 = CARTESIAN_POINT('',(26.465313003745,-5.499999999999,
    57.032226455004));
#230 = CARTESIAN_POINT('',(27.741024304206,-5.500000000001,
    60.638772952472));
#231 = CARTESIAN_POINT('',(29.167882730444,-5.499999999998,
    64.213879120961));
#232 = CARTESIAN_POINT('',(30.730874098514,-5.500000000002,
    67.759568687278));
#233 = CARTESIAN_POINT('',(32.41490412688,-5.499999999999,
    71.276819251065));
#234 = CARTESIAN_POINT('',(34.204472526403,-5.5,74.765850811532));
#235 = CARTESIAN_POINT('',(36.083585540823,-5.5,78.226464276659));
#236 = CARTESIAN_POINT('',(39.725924158225,-5.5,84.629293823297));
#237 = CARTESIAN_POINT('',(41.475302161162,-5.5,87.568287531351));
#238 = CARTESIAN_POINT('',(43.279666450292,-5.5,90.473502656038));
#239 = CARTESIAN_POINT('',(45.13459906324,-5.5,93.342998401937));
#240 = CARTESIAN_POINT('',(47.035641471444,-5.5,96.174807781829));
#241 = CARTESIAN_POINT('',(48.978297479428,-5.5,98.966943795882));
#242 = CARTESIAN_POINT('',(50.958036124003,-5.5,101.71740561062));
#243 = CARTESIAN_POINT('',(52.970294573541,-5.5,104.42418473809));
#244 = CARTESIAN_POINT('',(55.010481027194,-5.5,107.0852712149));
#245 = PCURVE('',#63,#246);
#246 = DEFINITIONAL_REPRESENTATION('',(#247),#282);
#247 = B_SPLINE_CURVE_WITH_KNOTS('',9,(#248,#249,#250,#251,#252,#253,
    #254,#255,#256,#257,#258,#259,#260,#261,#262,#263,#264,#265,#266,
    #267,#268,#269,#270,#271,#272,#273,#274,#275,#276,#277,#278,#279,
    #280,#281),.UNSPECIFIED.,.F.,.F.,(10,8,8,8,10),(0.,38.438280496931,
    49.171644802329,85.234451619902,116.45203935372),.UNSPECIFIED.);
#248 = CARTESIAN_POINT('',(-55.22195750621,-4.350521100636));
#249 = CARTESIAN_POINT('',(-50.09447836981,-6.604278930701));
#250 = CARTESIAN_POINT('',(-45.01442155395,-8.037159270473));
#251 = CARTESIAN_POINT('',(-40.02219218779,-8.729689089071));
#252 = CARTESIAN_POINT('',(-35.17199326789,-8.782299741254));
#253 = CARTESIAN_POINT('',(-30.52309623367,-8.369727797608));
#254 = CARTESIAN_POINT('',(-26.01080268158,-7.634040611539));
#255 = CARTESIAN_POINT('',(-21.6145483779,-6.666077471706));
#256 = CARTESIAN_POINT('',(-17.30260298074,-5.559136498952));
#257 = CARTESIAN_POINT('',(-11.86885739446,-4.072475436037));
#258 = CARTESIAN_POINT('',(-10.69330277257,-3.755120454212));
#259 = CARTESIAN_POINT('',(-9.526995581665,-3.449447375136));
#260 = CARTESIAN_POINT('',(-8.368968532422,-3.159938812831));
#261 = CARTESIAN_POINT('',(-7.218572378149,-2.891014636755));
#262 = CARTESIAN_POINT('',(-6.075465678144,-2.647009749004));
#263 = CARTESIAN_POINT('',(-4.9396045616,-2.432151861564));
#264 = CARTESIAN_POINT('',(-3.811232491002,-2.250539273513));
#265 = CARTESIAN_POINT('',(1.073412448376,-1.620882802283));
#266 = CARTESIAN_POINT('',(4.868016756889,-1.320823094887));
#267 = CARTESIAN_POINT('',(8.691251727905,-1.188568352361));
#268 = CARTESIAN_POINT('',(12.540526002579,-1.208484246232));
#269 = CARTESIAN_POINT('',(16.412229798711,-1.365857154847));
#270 = CARTESIAN_POINT('',(20.301750432933,-1.646281656023));
#271 = CARTESIAN_POINT('',(24.203621603234,-2.035251650857));
#272 = CARTESIAN_POINT('',(28.111806429749,-2.517955118607));
#273 = CARTESIAN_POINT('',(35.403321310466,-3.565174079195));
#274 = CARTESIAN_POINT('',(38.778586024633,-4.117981027808));
#275 = CARTESIAN_POINT('',(42.142531805037,-4.734320378406));
#276 = CARTESIAN_POINT('',(45.491736029619,-5.410790552438));
#277 = CARTESIAN_POINT('',(48.822736858637,-6.143961800456));
#278 = CARTESIAN_POINT('',(52.132040046178,-6.930376639619));
#279 = CARTESIAN_POINT('',(55.416125751451,-7.766550291197));
#280 = CARTESIAN_POINT('',(58.671455350273,-8.648971118076));
#281 = CARTESIAN_POINT('',(61.894478246423,-9.574101062262));
#282 = ( GEOMETRIC_REPRESENTATION_CONTEXT(2) 
PARAMETRIC_REPRESENTATION_CONTEXT() REPRESENTATION_CONTEXT('2D SPACE',''
  ) );
#283 = PCURVE('',#284,#353);
#284 = B_SPLINE_SURFACE_WITH_KNOTS('',1,9,(
    (#285,#286,#287,#288,#289,#290,#291,#292,#293,#294,#295,#296,#297
      ,#298,#299,#300,#301,#302,#303,#304,#305,#306,#307,#308,#309,#310
      ,#311,#312,#313,#314,#315,#316,#317,#318)
    ,(#319,#320,#321,#322,#323,#324,#325,#326,#327,#328,#329,#330,#331
      ,#332,#333,#334,#335,#336,#337,#338,#339,#340,#341,#342,#343,#344
      ,#345,#346,#347,#348,#349,#350,#351,#352
  )),.UNSPECIFIED.,.F.,.F.,.F.,(2,2),(10,8,8,8,10),(0.,11.),(0.,
    38.438280496931,49.171644802329,85.234451619902,116.45203935372),
  .UNSPECIFIED.);
#285 = CARTESIAN_POINT('',(7.3,-5.5,7.105427357601E-15));
#286 = CARTESIAN_POINT('',(11.273474802296,-5.5,3.947399732268));
#287 = CARTESIAN_POINT('',(14.465635697033,-5.5,8.15099725612));
#288 = CARTESIAN_POINT('',(16.936643568035,-5.500000000001,
    12.543726669082));
#289 = CARTESIAN_POINT('',(18.760135467336,-5.499999999999,
    17.038398485413));
#290 = CARTESIAN_POINT('',(20.077047485934,-5.500000000001,
    21.515920342274));
#291 = CARTESIAN_POINT('',(21.043268055242,-5.499999999999,
    25.984527121511));
#292 = CARTESIAN_POINT('',(21.750862087702,-5.5,30.430122157939));
#293 = CARTESIAN_POINT('',(22.298268163056,-5.5,34.848101109221));
#294 = CARTESIAN_POINT('',(22.902711202021,-5.5,40.449029677329));
#295 = CARTESIAN_POINT('',(23.037456303184,-5.5,41.659189423496));
#296 = CARTESIAN_POINT('',(23.17969003428,-5.499999999999,
    42.856468864804));
#297 = CARTESIAN_POINT('',(23.333938115957,-5.500000000001,
    44.040128183918));
#298 = CARTESIAN_POINT('',(23.504551513192,-5.499999999999,
    45.209154527902));
#299 = CARTESIAN_POINT('',(23.695689498507,-5.500000000001,
    46.362279665696));
#300 = CARTESIAN_POINT('',(23.911302715044,-5.5,47.497997645093));
#301 = CARTESIAN_POINT('',(24.155116239777,-5.5,48.614582450203));
#302 = CARTESIAN_POINT('',(25.356247276761,-5.5,53.390931232228));
#303 = CARTESIAN_POINT('',(26.465313003745,-5.499999999999,
    57.032226455004));
#304 = CARTESIAN_POINT('',(27.741024304206,-5.500000000001,
    60.638772952472));
#305 = CARTESIAN_POINT('',(29.167882730444,-5.499999999998,
    64.213879120961));
#306 = CARTESIAN_POINT('',(30.730874098514,-5.500000000002,
    67.759568687278));
#307 = CARTESIAN_POINT('',(32.41490412688,-5.499999999999,
    71.276819251065));
#308 = CARTESIAN_POINT('',(34.204472526403,-5.5,74.765850811532));
#309 = CARTESIAN_POINT('',(36.083585540823,-5.5,78.226464276659));
#310 = CARTESIAN_POINT('',(39.725924158225,-5.5,84.629293823297));
#311 = CARTESIAN_POINT('',(41.475302161162,-5.5,87.568287531351));
#312 = CARTESIAN_POINT('',(43.279666450292,-5.5,90.473502656038));
#313 = CARTESIAN_POINT('',(45.13459906324,-5.5,93.342998401937));
#314 = CARTESIAN_POINT('',(47.035641471444,-5.5,96.174807781829));
#315 = CARTESIAN_POINT('',(48.978297479428,-5.5,98.966943795882));
#316 = CARTESIAN_POINT('',(50.958036124003,-5.5,101.71740561062));
#317 = CARTESIAN_POINT('',(52.970294573541,-5.5,104.42418473809));
#318 = CARTESIAN_POINT('',(55.010481027194,-5.5,107.0852712149));
#319 = CARTESIAN_POINT('',(7.3,5.5,7.105427357601E-15));
#320 = CARTESIAN_POINT('',(11.273474802295,5.5,3.947399732268));
#321 = CARTESIAN_POINT('',(14.465635697033,5.5,8.15099725612));
#322 = CARTESIAN_POINT('',(16.936643568034,5.500000000001,
    12.543726669082));
#323 = CARTESIAN_POINT('',(18.760135467337,5.499999999999,
    17.038398485413));
#324 = CARTESIAN_POINT('',(20.077047485933,5.500000000001,
    21.515920342274));
#325 = CARTESIAN_POINT('',(21.043268055243,5.499999999999,
    25.984527121511));
#326 = CARTESIAN_POINT('',(21.750862087702,5.5,30.430122157939));
#327 = CARTESIAN_POINT('',(22.298268163056,5.5,34.848101109221));
#328 = CARTESIAN_POINT('',(22.902711202021,5.5,40.449029677329));
#329 = CARTESIAN_POINT('',(23.037456303185,5.5,41.659189423496));
#330 = CARTESIAN_POINT('',(23.179690034278,5.499999999999,
    42.856468864804));
#331 = CARTESIAN_POINT('',(23.333938115959,5.500000000001,
    44.040128183918));
#332 = CARTESIAN_POINT('',(23.50455151319,5.499999999999,45.209154527902
    ));
#333 = CARTESIAN_POINT('',(23.695689498508,5.500000000001,
    46.362279665696));
#334 = CARTESIAN_POINT('',(23.911302715044,5.5,47.497997645093));
#335 = CARTESIAN_POINT('',(24.155116239777,5.5,48.614582450203));
#336 = CARTESIAN_POINT('',(25.356247276761,5.5,53.390931232228));
#337 = CARTESIAN_POINT('',(26.465313003744,5.5,57.032226455004));
#338 = CARTESIAN_POINT('',(27.741024304208,5.500000000001,
    60.638772952473));
#339 = CARTESIAN_POINT('',(29.167882730443,5.499999999998,
    64.213879120959));
#340 = CARTESIAN_POINT('',(30.730874098516,5.500000000001,67.75956868728
    ));
#341 = CARTESIAN_POINT('',(32.414904126879,5.499999999999,
    71.276819251063));
#342 = CARTESIAN_POINT('',(34.204472526404,5.5,74.765850811533));
#343 = CARTESIAN_POINT('',(36.083585540823,5.5,78.226464276658));
#344 = CARTESIAN_POINT('',(39.725924158226,5.5,84.629293823298));
#345 = CARTESIAN_POINT('',(41.475302161162,5.5,87.568287531349));
#346 = CARTESIAN_POINT('',(43.279666450292,5.5,90.473502656042));
#347 = CARTESIAN_POINT('',(45.134599063239,5.5,93.342998401931));
#348 = CARTESIAN_POINT('',(47.035641471445,5.5,96.174807781834));
#349 = CARTESIAN_POINT('',(48.978297479427,5.5,98.966943795879));
#350 = CARTESIAN_POINT('',(50.958036124004,5.5,101.71740561062));
#351 = CARTESIAN_POINT('',(52.970294573541,5.5,104.42418473809));
#352 = CARTESIAN_POINT('',(55.010481027194,5.5,107.0852712149));
#353 = DEFINITIONAL_REPRESENTATION('',(#354),#357);
#354 = B_SPLINE_CURVE_WITH_KNOTS('',1,(#355,#356),.UNSPECIFIED.,.F.,.F.,
  (2,2),(0.,116.45203935372),.PIECEWISE_BEZIER_KNOTS.);
#355 = CARTESIAN_POINT('',(0.,0.));
#356 = CARTESIAN_POINT('',(0.,116.45203935372));
#357 = ( GEOMETRIC_REPRESENTATION_CONTEXT(2) 
PARAMETRIC_REPRESENTATION_CONTEXT() REPRESENTATION_CONTEXT('2D SPACE',''
  ) );
#358 = ORIENTED_EDGE('',*,*,#359,.F.);
#359 = EDGE_CURVE('',#24,#207,#360,.T.);
#360 = SURFACE_CURVE('',#361,(#364,#370),.PCURVE_S1.);
#361 = B_SPLINE_CURVE_WITH_KNOTS('',1,(#362,#363),.UNSPECIFIED.,.F.,.F.,
  (2,2),(0.,14.6),.PIECEWISE_BEZIER_KNOTS.);
#362 = CARTESIAN_POINT('',(40.916518972806,-5.5,103.27472878509));
#363 = CARTESIAN_POINT('',(55.010481027194,-5.5,107.0852712149));
#364 = PCURVE('',#63,#365);
#365 = DEFINITIONAL_REPRESENTATION('',(#366),#369);
#366 = B_SPLINE_CURVE_WITH_KNOTS('',1,(#367,#368),.UNSPECIFIED.,.F.,.F.,
  (2,2),(0.,14.6),.PIECEWISE_BEZIER_KNOTS.);
#367 = CARTESIAN_POINT('',(53.191612940397,2.148532407449));
#368 = CARTESIAN_POINT('',(61.894478246423,-9.574101062262));
#369 = ( GEOMETRIC_REPRESENTATION_CONTEXT(2) 
PARAMETRIC_REPRESENTATION_CONTEXT() REPRESENTATION_CONTEXT('2D SPACE',''
  ) );
#370 = PCURVE('',#371,#376);
#371 = PLANE('',#372);
#372 = AXIS2_PLACEMENT_3D('',#373,#374,#375);
#373 = CARTESIAN_POINT('',(47.9635,0.,105.18));
#374 = DIRECTION('',(-0.260996056837,0.,0.965339866739));
#375 = DIRECTION('',(0.965339866739,0.,0.260996056837));
#376 = DEFINITIONAL_REPRESENTATION('',(#377),#380);
#377 = B_SPLINE_CURVE_WITH_KNOTS('',1,(#378,#379),.UNSPECIFIED.,.F.,.F.,
  (2,2),(0.,14.6),.PIECEWISE_BEZIER_KNOTS.);
#378 = CARTESIAN_POINT('',(-7.3,-5.5));
#379 = CARTESIAN_POINT('',(7.3,-5.5));
#380 = ( GEOMETRIC_REPRESENTATION_CONTEXT(2) 
PARAMETRIC_REPRESENTATION_CONTEXT() REPRESENTATION_CONTEXT('2D SPACE',''
  ) );
#381 = ADVANCED_FACE('',(#382),#284,.T.);
#382 = FACE_BOUND('',#383,.T.);
#383 = EDGE_LOOP('',(#384,#385,#406,#496));
#384 = ORIENTED_EDGE('',*,*,#206,.F.);
#385 = ORIENTED_EDGE('',*,*,#386,.T.);
#386 = EDGE_CURVE('',#182,#387,#389,.T.);
#387 = VERTEX_POINT('',#388);
#388 = CARTESIAN_POINT('',(7.3,5.5,7.105427357601E-15));
#389 = SURFACE_CURVE('',#390,(#393,#400),.PCURVE_S1.);
#390 = B_SPLINE_CURVE_WITH_KNOTS('',1,(#391,#392),.UNSPECIFIED.,.F.,.F.,
  (2,2),(0.,11.),.PIECEWISE_BEZIER_KNOTS.);
#391 = CARTESIAN_POINT('',(7.3,-5.5,7.105427357601E-15));
#392 = CARTESIAN_POINT('',(7.3,5.5,7.105427357601E-15));
#393 = PCURVE('',#284,#394);
#394 = DEFINITIONAL_REPRESENTATION('',(#395),#399);
#395 = LINE('',#396,#397);
#396 = CARTESIAN_POINT('',(0.,0.));
#397 = VECTOR('',#398,1.);
#398 = DIRECTION('',(1.,0.));
#399 = ( GEOMETRIC_REPRESENTATION_CONTEXT(2) 
PARAMETRIC_REPRESENTATION_CONTEXT() REPRESENTATION_CONTEXT('2D SPACE',''
  ) );
#400 = PCURVE('',#195,#401);
#401 = DEFINITIONAL_REPRESENTATION('',(#402),#405);
#402 = B_SPLINE_CURVE_WITH_KNOTS('',1,(#403,#404),.UNSPECIFIED.,.F.,.F.,
  (2,2),(0.,11.),.PIECEWISE_BEZIER_KNOTS.);
#403 = CARTESIAN_POINT('',(7.3,-5.5));
#404 = CARTESIAN_POINT('',(7.3,5.5));
#405 = ( GEOMETRIC_REPRESENTATION_CONTEXT(2) 
PARAMETRIC_REPRESENTATION_CONTEXT() REPRESENTATION_CONTEXT('2D SPACE',''
  ) );
#406 = ORIENTED_EDGE('',*,*,#407,.T.);
#407 = EDGE_CURVE('',#387,#408,#410,.T.);
#408 = VERTEX_POINT('',#409);
#409 = CARTESIAN_POINT('',(55.010481027194,5.5,107.0852712149));
#410 = SURFACE_CURVE('',#411,(#446,#453),.PCURVE_S1.);
#411 = B_SPLINE_CURVE_WITH_KNOTS('',9,(#412,#413,#414,#415,#416,#417,
    #418,#419,#420,#421,#422,#423,#424,#425,#426,#427,#428,#429,#430,
    #431,#432,#433,#434,#435,#436,#437,#438,#439,#440,#441,#442,#443,
    #444,#445),.UNSPECIFIED.,.F.,.F.,(10,8,8,8,10),(0.,38.438280496931,
    49.171644802329,85.234451619902,116.45203935372),.UNSPECIFIED.);
#412 = CARTESIAN_POINT('',(7.3,5.5,7.105427357601E-15));
#413 = CARTESIAN_POINT('',(11.273474802295,5.5,3.947399732268));
#414 = CARTESIAN_POINT('',(14.465635697033,5.5,8.15099725612));
#415 = CARTESIAN_POINT('',(16.936643568034,5.500000000001,
    12.543726669082));
#416 = CARTESIAN_POINT('',(18.760135467337,5.499999999999,
    17.038398485413));
#417 = CARTESIAN_POINT('',(20.077047485933,5.500000000001,
    21.515920342274));
#418 = CARTESIAN_POINT('',(21.043268055243,5.499999999999,
    25.984527121511));
#419 = CARTESIAN_POINT('',(21.750862087702,5.5,30.430122157939));
#420 = CARTESIAN_POINT('',(22.298268163056,5.5,34.848101109221));
#421 = CARTESIAN_POINT('',(22.902711202021,5.5,40.449029677329));
#422 = CARTESIAN_POINT('',(23.037456303185,5.5,41.659189423496));
#423 = CARTESIAN_POINT('',(23.179690034278,5.499999999999,
    42.856468864804));
#424 = CARTESIAN_POINT('',(23.333938115959,5.500000000001,
    44.040128183918));
#425 = CARTESIAN_POINT('',(23.50455151319,5.499999999999,45.209154527902
    ));
#426 = CARTESIAN_POINT('',(23.695689498508,5.500000000001,
    46.362279665696));
#427 = CARTESIAN_POINT('',(23.911302715044,5.5,47.497997645093));
#428 = CARTESIAN_POINT('',(24.155116239777,5.5,48.614582450203));
#429 = CARTESIAN_POINT('',(25.356247276761,5.5,53.390931232228));
#430 = CARTESIAN_POINT('',(26.465313003744,5.5,57.032226455004));
#431 = CARTESIAN_POINT('',(27.741024304208,5.500000000001,
    60.638772952473));
#432 = CARTESIAN_POINT('',(29.167882730443,5.499999999998,
    64.213879120959));
#433 = CARTESIAN_POINT('',(30.730874098516,5.500000000001,67.75956868728
    ));
#434 = CARTESIAN_POINT('',(32.414904126879,5.499999999999,
    71.276819251063));
#435 = CARTESIAN_POINT('',(34.204472526404,5.5,74.765850811533));
#436 = CARTESIAN_POINT('',(36.083585540823,5.5,78.226464276658));
#437 = CARTESIAN_POINT('',(39.725924158226,5.5,84.629293823298));
#438 = CARTESIAN_POINT('',(41.475302161162,5.5,87.568287531349));
#439 = CARTESIAN_POINT('',(43.279666450292,5.5,90.473502656042));
#440 = CARTESIAN_POINT('',(45.134599063239,5.5,93.342998401931));
#441 = CARTESIAN_POINT('',(47.035641471445,5.5,96.174807781834));
#442 = CARTESIAN_POINT('',(48.978297479427,5.5,98.966943795879));
#443 = CARTESIAN_POINT('',(50.958036124004,5.5,101.71740561062));
#444 = CARTESIAN_POINT('',(52.970294573541,5.5,104.42418473809));
#445 = CARTESIAN_POINT('',(55.010481027194,5.5,107.0852712149));
#446 = PCURVE('',#284,#447);
#447 = DEFINITIONAL_REPRESENTATION('',(#448),#452);
#448 = LINE('',#449,#450);
#449 = CARTESIAN_POINT('',(11.,0.));
#450 = VECTOR('',#451,1.);
#451 = DIRECTION('',(0.,1.));
#452 = ( GEOMETRIC_REPRESENTATION_CONTEXT(2) 
PARAMETRIC_REPRESENTATION_CONTEXT() REPRESENTATION_CONTEXT('2D SPACE',''
  ) );
#453 = PCURVE('',#454,#459);
#454 = PLANE('',#455);
#455 = AXIS2_PLACEMENT_3D('',#456,#457,#458);
#456 = CARTESIAN_POINT('',(23.455018606188,5.5,52.984969552684));
#457 = DIRECTION('',(2.636411477113E-16,1.,-9.896742570805E-17));
#458 = DIRECTION('',(-0.365867241331,4.351937084374E-18,-0.930667052023)
  );
#459 = DEFINITIONAL_REPRESENTATION('',(#460),#495);
#460 = B_SPLINE_CURVE_WITH_KNOTS('',9,(#461,#462,#463,#464,#465,#466,
    #467,#468,#469,#470,#471,#472,#473,#474,#475,#476,#477,#478,#479,
    #480,#481,#482,#483,#484,#485,#486,#487,#488,#489,#490,#491,#492,
    #493,#494),.UNSPECIFIED.,.F.,.F.,(10,8,8,8,10),(0.,38.438280496931,
    49.171644802329,85.234451619902,116.45203935372),.UNSPECIFIED.);
#461 = CARTESIAN_POINT('',(55.221957506214,-4.350521100636));
#462 = CARTESIAN_POINT('',(50.094478369815,-6.604278930701));
#463 = CARTESIAN_POINT('',(45.014421553959,-8.037159270473));
#464 = CARTESIAN_POINT('',(40.022192187793,-8.72968908907));
#465 = CARTESIAN_POINT('',(35.171993267891,-8.782299741255));
#466 = CARTESIAN_POINT('',(30.523096233679,-8.369727797607));
#467 = CARTESIAN_POINT('',(26.010802681587,-7.63404061154));
#468 = CARTESIAN_POINT('',(21.614548377909,-6.666077471705));
#469 = CARTESIAN_POINT('',(17.302602980742,-5.559136498952));
#470 = CARTESIAN_POINT('',(11.868857394462,-4.072475436037));
#471 = CARTESIAN_POINT('',(10.693302772575,-3.755120454212));
#472 = CARTESIAN_POINT('',(9.526995581666,-3.449447375134));
#473 = CARTESIAN_POINT('',(8.368968532421,-3.159938812832));
#474 = CARTESIAN_POINT('',(7.218572378149,-2.891014636753));
#475 = CARTESIAN_POINT('',(6.075465678144,-2.647009749005));
#476 = CARTESIAN_POINT('',(4.9396045616,-2.432151861563));
#477 = CARTESIAN_POINT('',(3.811232491002,-2.250539273513));
#478 = CARTESIAN_POINT('',(-1.073412448377,-1.620882802283));
#479 = CARTESIAN_POINT('',(-4.868016756888,-1.320823094887));
#480 = CARTESIAN_POINT('',(-8.691251727907,-1.188568352361));
#481 = CARTESIAN_POINT('',(-12.54052600257,-1.208484246231));
#482 = CARTESIAN_POINT('',(-16.41222979871,-1.365857154848));
#483 = CARTESIAN_POINT('',(-20.30175043293,-1.646281656023));
#484 = CARTESIAN_POINT('',(-24.20362160323,-2.035251650857));
#485 = CARTESIAN_POINT('',(-28.11180642974,-2.517955118607));
#486 = CARTESIAN_POINT('',(-35.40332131046,-3.565174079195));
#487 = CARTESIAN_POINT('',(-38.77858602463,-4.117981027808));
#488 = CARTESIAN_POINT('',(-42.14253180504,-4.734320378405));
#489 = CARTESIAN_POINT('',(-45.49173602961,-5.410790552439));
#490 = CARTESIAN_POINT('',(-48.82273685864,-6.143961800456));
#491 = CARTESIAN_POINT('',(-52.13204004617,-6.93037663962));
#492 = CARTESIAN_POINT('',(-55.41612575145,-7.766550291197));
#493 = CARTESIAN_POINT('',(-58.67145535027,-8.648971118076));
#494 = CARTESIAN_POINT('',(-61.89447824642,-9.574101062262));
#495 = ( GEOMETRIC_REPRESENTATION_CONTEXT(2) 
PARAMETRIC_REPRESENTATION_CONTEXT() REPRESENTATION_CONTEXT('2D SPACE',''
  ) );
#496 = ORIENTED_EDGE('',*,*,#497,.F.);
#497 = EDGE_CURVE('',#207,#408,#498,.T.);
#498 = SURFACE_CURVE('',#499,(#502,#509),.PCURVE_S1.);
#499 = B_SPLINE_CURVE_WITH_KNOTS('',1,(#500,#501),.UNSPECIFIED.,.F.,.F.,
  (2,2),(0.,11.),.PIECEWISE_BEZIER_KNOTS.);
#500 = CARTESIAN_POINT('',(55.010481027194,-5.5,107.0852712149));
#501 = CARTESIAN_POINT('',(55.010481027194,5.5,107.0852712149));
#502 = PCURVE('',#284,#503);
#503 = DEFINITIONAL_REPRESENTATION('',(#504),#508);
#504 = LINE('',#505,#506);
#505 = CARTESIAN_POINT('',(0.,116.45203935372));
#506 = VECTOR('',#507,1.);
#507 = DIRECTION('',(1.,0.));
#508 = ( GEOMETRIC_REPRESENTATION_CONTEXT(2) 
PARAMETRIC_REPRESENTATION_CONTEXT() REPRESENTATION_CONTEXT('2D SPACE',''
  ) );
#509 = PCURVE('',#371,#510);
#510 = DEFINITIONAL_REPRESENTATION('',(#511),#514);
#511 = B_SPLINE_CURVE_WITH_KNOTS('',1,(#512,#513),.UNSPECIFIED.,.F.,.F.,
  (2,2),(0.,11.),.PIECEWISE_BEZIER_KNOTS.);
#512 = CARTESIAN_POINT('',(7.3,-5.5));
#513 = CARTESIAN_POINT('',(7.3,5.5));
#514 = ( GEOMETRIC_REPRESENTATION_CONTEXT(2) 
PARAMETRIC_REPRESENTATION_CONTEXT() REPRESENTATION_CONTEXT('2D SPACE',''
  ) );
#515 = ADVANCED_FACE('',(#516),#454,.T.);
#516 = FACE_BOUND('',#517,.T.);
#517 = EDGE_LOOP('',(#518,#519,#539,#623));
#518 = ORIENTED_EDGE('',*,*,#407,.F.);
#519 = ORIENTED_EDGE('',*,*,#520,.T.);
#520 = EDGE_CURVE('',#387,#521,#523,.T.);
#521 = VERTEX_POINT('',#522);
#522 = CARTESIAN_POINT('',(-7.3,5.5,0.));
#523 = SURFACE_CURVE('',#524,(#527,#533),.PCURVE_S1.);
#524 = B_SPLINE_CURVE_WITH_KNOTS('',1,(#525,#526),.UNSPECIFIED.,.F.,.F.,
  (2,2),(0.,14.6),.PIECEWISE_BEZIER_KNOTS.);
#525 = CARTESIAN_POINT('',(7.3,5.5,7.105427357601E-15));
#526 = CARTESIAN_POINT('',(-7.3,5.5,0.));
#527 = PCURVE('',#454,#528);
#528 = DEFINITIONAL_REPRESENTATION('',(#529),#532);
#529 = B_SPLINE_CURVE_WITH_KNOTS('',1,(#530,#531),.UNSPECIFIED.,.F.,.F.,
  (2,2),(0.,14.6),.PIECEWISE_BEZIER_KNOTS.);
#530 = CARTESIAN_POINT('',(55.221957506214,-4.350521100636));
#531 = CARTESIAN_POINT('',(60.563619229642,9.237217858899));
#532 = ( GEOMETRIC_REPRESENTATION_CONTEXT(2) 
PARAMETRIC_REPRESENTATION_CONTEXT() REPRESENTATION_CONTEXT('2D SPACE',''
  ) );
#533 = PCURVE('',#195,#534);
#534 = DEFINITIONAL_REPRESENTATION('',(#535),#538);
#535 = B_SPLINE_CURVE_WITH_KNOTS('',1,(#536,#537),.UNSPECIFIED.,.F.,.F.,
  (2,2),(0.,14.6),.PIECEWISE_BEZIER_KNOTS.);
#536 = CARTESIAN_POINT('',(7.3,5.5));
#537 = CARTESIAN_POINT('',(-7.3,5.5));
#538 = ( GEOMETRIC_REPRESENTATION_CONTEXT(2) 
PARAMETRIC_REPRESENTATION_CONTEXT() REPRESENTATION_CONTEXT('2D SPACE',''
  ) );
#539 = ORIENTED_EDGE('',*,*,#540,.T.);
#540 = EDGE_CURVE('',#521,#541,#543,.T.);
#541 = VERTEX_POINT('',#542);
#542 = CARTESIAN_POINT('',(40.916518972806,5.5,103.27472878509));
#543 = SURFACE_CURVE('',#544,(#579,#617),.PCURVE_S1.);
#544 = B_SPLINE_CURVE_WITH_KNOTS('',9,(#545,#546,#547,#548,#549,#550,
    #551,#552,#553,#554,#555,#556,#557,#558,#559,#560,#561,#562,#563,
    #564,#565,#566,#567,#568,#569,#570,#571,#572,#573,#574,#575,#576,
    #577,#578),.UNSPECIFIED.,.F.,.F.,(10,8,8,8,10),(0.,38.438280496931,
    49.171644802329,85.234451619902,116.45203935372),.UNSPECIFIED.);
#545 = CARTESIAN_POINT('',(-7.3,5.5,0.));
#546 = CARTESIAN_POINT('',(-3.326525197705,5.5,2.428461649959));
#547 = CARTESIAN_POINT('',(4.341443060365E-02,5.5,5.018490244836));
#548 = CARTESIAN_POINT('',(2.906313006991,5.500000000001,7.790877937657)
  );
#549 = CARTESIAN_POINT('',(5.345188485297,5.499999999999,10.786540464696
    ));
#550 = CARTESIAN_POINT('',(7.375759780422,5.500000000001,14.078296439356
    ));
#551 = CARTESIAN_POINT('',(8.998793466824,5.499999999999,17.611637230316
    ));
#552 = CARTESIAN_POINT('',(10.278879637954,5.5,21.354385753321));
#553 = CARTESIAN_POINT('',(11.27423471995,5.5,25.264872601249));
#554 = CARTESIAN_POINT('',(12.274589966572,5.5,30.438074439192));
#555 = CARTESIAN_POINT('',(12.467669243044,5.5,31.587048451035));
#556 = CARTESIAN_POINT('',(12.639407550489,5.499999999999,
    32.754036836071));
#557 = CARTESIAN_POINT('',(12.793903620149,5.500000000001,
    33.937595838595));
#558 = CARTESIAN_POINT('',(12.935430938888,5.499999999999,
    35.136554738303));
#559 = CARTESIAN_POINT('',(13.068454686091,5.500000000001,
    36.349998193273));
#560 = CARTESIAN_POINT('',(13.197648670459,5.5,37.57724858248));
#561 = CARTESIAN_POINT('',(13.327912266905,5.5,38.817848348761));
#562 = CARTESIAN_POINT('',(13.922927149372,5.5,44.283802633766));
#563 = CARTESIAN_POINT('',(14.625817375433,5.499999999999,
    48.445651323533));
#564 = CARTESIAN_POINT('',(15.553180402521,5.500000000001,
    52.551545565347));
#565 = CARTESIAN_POINT('',(16.683851525852,5.499999999998,
    56.597415742828));
#566 = CARTESIAN_POINT('',(17.996181777022,5.500000000002,
    60.580476909539));
#567 = CARTESIAN_POINT('',(19.468602285045,5.499999999999,
    64.498990245667));
#568 = CARTESIAN_POINT('',(21.079950186701,5.5,68.351974532354));
#569 = CARTESIAN_POINT('',(22.809556085777,5.5,72.138867641591));
#570 = CARTESIAN_POINT('',(26.219091272795,5.5,79.079571446059));
#571 = CARTESIAN_POINT('',(27.86997055489,5.5,82.260484898883));
#572 = CARTESIAN_POINT('',(29.584452480714,5.5,85.400105879937));
#573 = CARTESIAN_POINT('',(31.357302088548,5.5,88.496694237999));
#574 = CARTESIAN_POINT('',(33.183324982869,5.5,91.548536013616));
#575 = CARTESIAN_POINT('',(35.057364435059,5.5,94.553937259984));
#576 = CARTESIAN_POINT('',(36.974298484217,5.5,97.51121786391));
#577 = CARTESIAN_POINT('',(38.929037037879,5.5,100.41870536669));
#578 = CARTESIAN_POINT('',(40.916518972806,5.5,103.27472878509));
#579 = PCURVE('',#454,#580);
#580 = DEFINITIONAL_REPRESENTATION('',(#581),#616);
#581 = B_SPLINE_CURVE_WITH_KNOTS('',9,(#582,#583,#584,#585,#586,#587,
    #588,#589,#590,#591,#592,#593,#594,#595,#596,#597,#598,#599,#600,
    #601,#602,#603,#604,#605,#606,#607,#608,#609,#610,#611,#612,#613,
    #614,#615),.UNSPECIFIED.,.F.,.F.,(10,8,8,8,10),(0.,38.438280496931,
    49.171644802329,85.234451619902,116.45203935372),.UNSPECIFIED.);
#582 = CARTESIAN_POINT('',(60.563619229642,9.237217858899));
#583 = CARTESIAN_POINT('',(56.849765720511,6.427730342908));
#584 = CARTESIAN_POINT('',(53.206360928202,4.23904518051));
#585 = CARTESIAN_POINT('',(49.578750242706,2.588965639254));
#586 = CARTESIAN_POINT('',(45.898481186615,1.415199372334));
#587 = CARTESIAN_POINT('',(42.092032839626,0.72975924876));
#588 = CARTESIAN_POINT('',(38.209854124481,0.511988920373));
#589 = CARTESIAN_POINT('',(34.258259794015,0.690003974258));
#590 = CARTESIAN_POINT('',(30.254730709286,1.194378829692));
#591 = CARTESIAN_POINT('',(25.074204990815,2.156086246638));
#592 = CARTESIAN_POINT('',(23.934251352121,2.396765677671));
#593 = CARTESIAN_POINT('',(22.785340291299,2.66389731446));
#594 = CARTESIAN_POINT('',(21.627315872722,2.953138379965));
#595 = CARTESIAN_POINT('',(20.459704118354,3.260083352558));
#596 = CARTESIAN_POINT('',(19.2817232439,3.580241743281));
#597 = CARTESIAN_POINT('',(18.092293895426,3.909015873032));
#598 = CARTESIAN_POINT('',(16.890049385523,4.241678649826));
#599 = CARTESIAN_POINT('',(11.585369371006,5.687731518745));
#600 = CARTESIAN_POINT('',(7.454909411968,6.556258843122));
#601 = CARTESIAN_POINT('',(3.294397169588,7.195404827996));
#602 = CARTESIAN_POINT('',(-0.884636426101,7.623377827455));
#603 = CARTESIAN_POINT('',(-5.071678868861,7.859306902434));
#604 = CARTESIAN_POINT('',(-9.257220553057,7.922629313301));
#605 = CARTESIAN_POINT('',(-13.43260549224,7.832681643744));
#606 = CARTESIAN_POINT('',(-17.58974827742,7.60849455558));
#607 = CARTESIAN_POINT('',(-25.29666985918,6.974728648144));
#608 = CARTESIAN_POINT('',(-28.86104385377,6.602101723327));
#609 = CARTESIAN_POINT('',(-32.41025842919,6.155174350836));
#610 = CARTESIAN_POINT('',(-35.94077878303,5.638181872733));
#611 = CARTESIAN_POINT('',(-39.44910933054,5.055331460173));
#612 = CARTESIAN_POINT('',(-42.93178689316,4.410802550929));
#613 = CARTESIAN_POINT('',(-46.3853738872,3.708747286876));
#614 = CARTESIAN_POINT('',(-49.80645151236,2.953290951512));
#615 = CARTESIAN_POINT('',(-53.19161294039,2.148532407449));
#616 = ( GEOMETRIC_REPRESENTATION_CONTEXT(2) 
PARAMETRIC_REPRESENTATION_CONTEXT() REPRESENTATION_CONTEXT('2D SPACE',''
  ) );
#617 = PCURVE('',#106,#618);
#618 = DEFINITIONAL_REPRESENTATION('',(#619),#622);
#619 = B_SPLINE_CURVE_WITH_KNOTS('',1,(#620,#621),.UNSPECIFIED.,.F.,.F.,
  (2,2),(0.,116.45203935372),.PIECEWISE_BEZIER_KNOTS.);
#620 = CARTESIAN_POINT('',(0.,0.));
#621 = CARTESIAN_POINT('',(0.,116.45203935372));
#622 = ( GEOMETRIC_REPRESENTATION_CONTEXT(2) 
PARAMETRIC_REPRESENTATION_CONTEXT() REPRESENTATION_CONTEXT('2D SPACE',''
  ) );
#623 = ORIENTED_EDGE('',*,*,#624,.F.);
#624 = EDGE_CURVE('',#408,#541,#625,.T.);
#625 = SURFACE_CURVE('',#626,(#629,#635),.PCURVE_S1.);
#626 = B_SPLINE_CURVE_WITH_KNOTS('',1,(#627,#628),.UNSPECIFIED.,.F.,.F.,
  (2,2),(0.,14.6),.PIECEWISE_BEZIER_KNOTS.);
#627 = CARTESIAN_POINT('',(55.010481027194,5.5,107.0852712149));
#628 = CARTESIAN_POINT('',(40.916518972806,5.5,103.27472878509));
#629 = PCURVE('',#454,#630);
#630 = DEFINITIONAL_REPRESENTATION('',(#631),#634);
#631 = B_SPLINE_CURVE_WITH_KNOTS('',1,(#632,#633),.UNSPECIFIED.,.F.,.F.,
  (2,2),(0.,14.6),.PIECEWISE_BEZIER_KNOTS.);
#632 = CARTESIAN_POINT('',(-61.89447824642,-9.574101062262));
#633 = CARTESIAN_POINT('',(-53.19161294039,2.148532407449));
#634 = ( GEOMETRIC_REPRESENTATION_CONTEXT(2) 
PARAMETRIC_REPRESENTATION_CONTEXT() REPRESENTATION_CONTEXT('2D SPACE',''
  ) );
#635 = PCURVE('',#371,#636);
#636 = DEFINITIONAL_REPRESENTATION('',(#637),#640);
#637 = B_SPLINE_CURVE_WITH_KNOTS('',1,(#638,#639),.UNSPECIFIED.,.F.,.F.,
  (2,2),(0.,14.6),.PIECEWISE_BEZIER_KNOTS.);
#638 = CARTESIAN_POINT('',(7.3,5.5));
#639 = CARTESIAN_POINT('',(-7.3,5.5));
#640 = ( GEOMETRIC_REPRESENTATION_CONTEXT(2) 
PARAMETRIC_REPRESENTATION_CONTEXT() REPRESENTATION_CONTEXT('2D SPACE',''
  ) );
#641 = ADVANCED_FACE('',(#642),#106,.T.);
#642 = FACE_BOUND('',#643,.T.);
#643 = EDGE_LOOP('',(#644,#645,#664,#665));
#644 = ORIENTED_EDGE('',*,*,#540,.F.);
#645 = ORIENTED_EDGE('',*,*,#646,.T.);
#646 = EDGE_CURVE('',#521,#22,#647,.T.);
#647 = SURFACE_CURVE('',#648,(#651,#658),.PCURVE_S1.);
#648 = B_SPLINE_CURVE_WITH_KNOTS('',1,(#649,#650),.UNSPECIFIED.,.F.,.F.,
  (2,2),(0.,11.),.PIECEWISE_BEZIER_KNOTS.);
#649 = CARTESIAN_POINT('',(-7.3,5.5,0.));
#650 = CARTESIAN_POINT('',(-7.3,-5.5,0.));
#651 = PCURVE('',#106,#652);
#652 = DEFINITIONAL_REPRESENTATION('',(#653),#657);
#653 = LINE('',#654,#655);
#654 = CARTESIAN_POINT('',(0.,0.));
#655 = VECTOR('',#656,1.);
#656 = DIRECTION('',(1.,0.));
#657 = ( GEOMETRIC_REPRESENTATION_CONTEXT(2) 
PARAMETRIC_REPRESENTATION_CONTEXT() REPRESENTATION_CONTEXT('2D SPACE',''
  ) );
#658 = PCURVE('',#195,#659);
#659 = DEFINITIONAL_REPRESENTATION('',(#660),#663);
#660 = B_SPLINE_CURVE_WITH_KNOTS('',1,(#661,#662),.UNSPECIFIED.,.F.,.F.,
  (2,2),(0.,11.),.PIECEWISE_BEZIER_KNOTS.);
#661 = CARTESIAN_POINT('',(-7.3,5.5));
#662 = CARTESIAN_POINT('',(-7.3,-5.5));
#663 = ( GEOMETRIC_REPRESENTATION_CONTEXT(2) 
PARAMETRIC_REPRESENTATION_CONTEXT() REPRESENTATION_CONTEXT('2D SPACE',''
  ) );
#664 = ORIENTED_EDGE('',*,*,#21,.T.);
#665 = ORIENTED_EDGE('',*,*,#666,.F.);
#666 = EDGE_CURVE('',#541,#24,#667,.T.);
#667 = SURFACE_CURVE('',#668,(#671,#678),.PCURVE_S1.);
#668 = B_SPLINE_CURVE_WITH_KNOTS('',1,(#669,#670),.UNSPECIFIED.,.F.,.F.,
  (2,2),(0.,11.),.PIECEWISE_BEZIER_KNOTS.);
#669 = CARTESIAN_POINT('',(40.916518972806,5.5,103.27472878509));
#670 = CARTESIAN_POINT('',(40.916518972806,-5.5,103.27472878509));
#671 = PCURVE('',#106,#672);
#672 = DEFINITIONAL_REPRESENTATION('',(#673),#677);
#673 = LINE('',#674,#675);
#674 = CARTESIAN_POINT('',(0.,116.45203935372));
#675 = VECTOR('',#676,1.);
#676 = DIRECTION('',(1.,0.));
#677 = ( GEOMETRIC_REPRESENTATION_CONTEXT(2) 
PARAMETRIC_REPRESENTATION_CONTEXT() REPRESENTATION_CONTEXT('2D SPACE',''
  ) );
#678 = PCURVE('',#371,#679);
#679 = DEFINITIONAL_REPRESENTATION('',(#680),#683);
#680 = B_SPLINE_CURVE_WITH_KNOTS('',1,(#681,#682),.UNSPECIFIED.,.F.,.F.,
  (2,2),(0.,11.),.PIECEWISE_BEZIER_KNOTS.);
#681 = CARTESIAN_POINT('',(-7.3,5.5));
#682 = CARTESIAN_POINT('',(-7.3,-5.5));
#683 = ( GEOMETRIC_REPRESENTATION_CONTEXT(2) 
PARAMETRIC_REPRESENTATION_CONTEXT() REPRESENTATION_CONTEXT('2D SPACE',''
  ) );
#684 = ADVANCED_FACE('',(#685),#195,.F.);
#685 = FACE_BOUND('',#686,.F.);
#686 = EDGE_LOOP('',(#687,#688,#689,#690));
#687 = ORIENTED_EDGE('',*,*,#181,.T.);
#688 = ORIENTED_EDGE('',*,*,#386,.T.);
#689 = ORIENTED_EDGE('',*,*,#520,.T.);
#690 = ORIENTED_EDGE('',*,*,#646,.T.);
#691 = ADVANCED_FACE('',(#692),#371,.T.);
#692 = FACE_BOUND('',#693,.T.);
#693 = EDGE_LOOP('',(#694,#695,#696,#697));
#694 = ORIENTED_EDGE('',*,*,#359,.T.);
#695 = ORIENTED_EDGE('',*,*,#497,.T.);
#696 = ORIENTED_EDGE('',*,*,#624,.T.);
#697 = ORIENTED_EDGE('',*,*,#666,.T.);
#698 = ( GEOMETRIC_REPRESENTATION_CONTEXT(3) 
GLOBAL_UNCERTAINTY_ASSIGNED_CONTEXT((#702)) GLOBAL_UNIT_ASSIGNED_CONTEXT
((#699,#700,#701)) REPRESENTATION_CONTEXT('Context #1',
  '3D Context with UNIT and UNCERTAINTY') );
#699 = ( LENGTH_UNIT() NAMED_UNIT(*) SI_UNIT(.MILLI.,.METRE.) );
#700 = ( NAMED_UNIT(*) PLANE_ANGLE_UNIT() SI_UNIT($,.RADIAN.) );
#701 = ( NAMED_UNIT(*) SI_UNIT($,.STERADIAN.) SOLID_ANGLE_UNIT() );
#702 = UNCERTAINTY_MEASURE_WITH_UNIT(LENGTH_MEASURE(5.E-05),#699,
  'distance_accuracy_value','confusion accuracy');
#703 = PRODUCT_RELATED_PRODUCT_CATEGORY('part',$,(#7));
ENDSEC;
END-ISO-10303-21;
