ISO-10303-21;
HEADER;
FILE_DESCRIPTION(('Open CASCADE Model'),'2;1');
FILE_NAME('Open CASCADE Shape Model','2026-06-10T00:30:28',('Author'),(
    'Open CASCADE'),'Open CASCADE STEP processor 7.8','Open CASCADE 7.8'
  ,'Unknown');
FILE_SCHEMA(('AUTOMOTIVE_DESIGN { 1 0 10303 214 1 1 1 1 }'));
ENDSEC;
DATA;
#1 = APPLICATION_PROTOCOL_DEFINITION('international standard',
  'automotive_design',2000,#2);
#2 = APPLICATION_CONTEXT(
  'core data for automotive mechanical design processes');
#3 = SHAPE_DEFINITION_REPRESENTATION(#4,#10);
#4 = PRODUCT_DEFINITION_SHAPE('','',#5);
#5 = PRODUCT_DEFINITION('design','',#6,#9);
#6 = PRODUCT_DEFINITION_FORMATION('','',#7);
#7 = PRODUCT('Open CASCADE STEP translator 7.8 25',
  'Open CASCADE STEP translator 7.8 25','',(#8));
#8 = PRODUCT_CONTEXT('',#2,'mechanical');
#9 = PRODUCT_DEFINITION_CONTEXT('part definition',#2,'design');
#10 = ADVANCED_BREP_SHAPE_REPRESENTATION('',(#11,#15),#575);
#11 = AXIS2_PLACEMENT_3D('',#12,#13,#14);
#12 = CARTESIAN_POINT('',(0.,0.,0.));
#13 = DIRECTION('',(0.,0.,1.));
#14 = DIRECTION('',(1.,0.,-0.));
#15 = MANIFOLD_SOLID_BREP('',#16);
#16 = CLOSED_SHELL('',(#17,#567,#571));
#17 = ADVANCED_FACE('',(#18),#86,.T.);
#18 = FACE_BOUND('',#19,.T.);
#19 = EDGE_LOOP('',(#20,#498,#532,#533));
#20 = ORIENTED_EDGE('',*,*,#21,.T.);
#21 = EDGE_CURVE('',#22,#24,#26,.T.);
#22 = VERTEX_POINT('',#23);
#23 = CARTESIAN_POINT('',(4.15,-4.996003610813E-16,0.));
#24 = VERTEX_POINT('',#25);
#25 = CARTESIAN_POINT('',(36.581443851719,-4.718447854657E-16,
    94.378535478697));
#26 = SEAM_CURVE('',#27,(#85,#491),.PCURVE_S1.);
#27 = ( BOUNDED_CURVE() B_SPLINE_CURVE(11,(#28,#29,#30,#31,#32,#33,#34,
    #35,#36,#37,#38,#39,#40,#41,#42,#43,#44,#45,#46,#47,#48,#49,#50,#51,
    #52,#53,#54,#55,#56,#57,#58,#59,#60,#61,#62,#63,#64,#65,#66,#67,#68,
    #69,#70,#71,#72,#73,#74,#75,#76,#77,#78,#79,#80,#81,#82,#83,#84),
.UNSPECIFIED.,.F.,.F.) B_SPLINE_CURVE_WITH_KNOTS((12,9,9,9,9,9,12),(0.,
    15.189156806249,30.378313612497,60.756627224995,83.812175450781,
97.970430879721,112.12868630866),.UNSPECIFIED.) CURVE() 
GEOMETRIC_REPRESENTATION_ITEM() RATIONAL_B_SPLINE_CURVE((1.669078461068,
    1.669078461068,1.669078461068,1.669078461068,1.669078461069,
    1.669078461068,1.669078461069,1.669078461068,1.669078461068,
    1.669078461068,1.669078461068,1.669078461068,1.669078461068,
    1.669078461068,1.669078461068,1.669078461069,1.669078461068,
    1.669078461068,1.669078461068,1.669078461068,1.669078461068,
    1.669078461068,1.669078461068,1.669078461068,1.669078461069,
    1.669078461068,1.669078461068,1.669078461068,1.669078461068,
    1.669078461068,1.669078461069,1.669078461067,1.669078461069,
    1.669078461067,1.669078461069,1.669078461068,1.669078461068,
    1.669078461068,1.669078461068,1.669078461068,1.669078461069,
    1.669078461067,1.669078461069,1.669078461068,1.669078461069,
    1.669078461068,1.669078461068,1.669078461068,1.669078461068,
    1.669078461068,1.669078461068,1.669078461068,1.669078461068,
    1.669078461068,1.669078461068,1.669078461068,1.669078461068)) 
REPRESENTATION_ITEM('') );
#28 = CARTESIAN_POINT('',(4.15,-4.996003610813E-16,0.));
#29 = CARTESIAN_POINT('',(7.824211122371,-1.387778780781E-15,
    0.997503332247));
#30 = CARTESIAN_POINT('',(11.250664614333,3.219646771413E-15,
    2.043003845984));
#31 = CARTESIAN_POINT('',(14.435712110168,-9.631184738623E-15,
    3.13615670867));
#32 = CARTESIAN_POINT('',(17.385353743915,1.490474410559E-14,
    4.276723335267));
#33 = CARTESIAN_POINT('',(20.105377341681,-2.009503674572E-14,
    5.464596764684));
#34 = CARTESIAN_POINT('',(22.601222088042,1.859623566247E-14,
    6.699795451287));
#35 = CARTESIAN_POINT('',(24.877718123279,-1.393329895905E-14,
    7.982370312581));
#36 = CARTESIAN_POINT('',(26.93885352752,5.467848396279E-15,
    9.31216987007));
#37 = CARTESIAN_POINT('',(28.787720148729,-1.193489751472E-15,
    10.688408325022));
#38 = CARTESIAN_POINT('',(32.065859312428,-1.52655665886E-15,
    13.529554487777));
#39 = CARTESIAN_POINT('',(34.515248414424,2.164934898019E-15,
    16.530382026118));
#40 = CARTESIAN_POINT('',(35.535326814632,-1.446065489574E-14,
    18.066387254082));
#41 = CARTESIAN_POINT('',(36.354107695338,2.936539900134E-14,
    19.631134252476));
#42 = CARTESIAN_POINT('',(36.975196829591,-4.038436252074E-14,
    21.216000000251));
#43 = CARTESIAN_POINT('',(37.406009968538,3.522182545623E-14,
    22.80787779461));
#44 = CARTESIAN_POINT('',(37.660531875287,-2.264854970235E-14,
    24.392143875696));
#45 = CARTESIAN_POINT('',(37.758484704095,7.965850201685E-15,
    25.958715801693));
#46 = CARTESIAN_POINT('',(37.720729657469,-8.881784197001E-16,
    27.504638912139));
#47 = CARTESIAN_POINT('',(37.250863235314,-3.441691376338E-15,
    32.08192320463));
#48 = CARTESIAN_POINT('',(35.840954030434,6.633582572135E-15,
    36.501824378638));
#49 = CARTESIAN_POINT('',(34.597730956731,-2.889355421587E-14,
    39.399477257154));
#50 = CARTESIAN_POINT('',(33.11783235321,6.200595592531E-14,
    42.305833982509));
#51 = CARTESIAN_POINT('',(31.39697348688,-9.545142454215E-14,
    45.236111760635));
#52 = CARTESIAN_POINT('',(29.50119729142,1.028899188071E-13,
    48.16988221461));
#53 = CARTESIAN_POINT('',(27.45683437251,-8.065770273902E-14,
    51.116107675837));
#54 = CARTESIAN_POINT('',(25.321403071851,4.060640712567E-14,
    54.054182617713));
#55 = CARTESIAN_POINT('',(23.143343377804,-1.143529715364E-14,
    56.978237460036));
#56 = CARTESIAN_POINT('',(19.334956896351,6.689093723367E-15,
    62.075962859342));
#57 = CARTESIAN_POINT('',(15.747506652802,-4.135580766729E-15,
    67.061076991993));
#58 = CARTESIAN_POINT('',(14.266312013342,8.520961713998E-15,
    69.186265120472));
#59 = CARTESIAN_POINT('',(12.878926077306,-1.876276911617E-14,
    71.28197276102));
#60 = CARTESIAN_POINT('',(11.613366473838,2.914335439641E-14,
    73.340717456924));
#61 = CARTESIAN_POINT('',(10.50026108488,-3.619327060278E-14,
    75.361764782167));
#62 = CARTESIAN_POINT('',(9.573802296296,2.978173263557E-14,
    77.336989230125));
#63 = CARTESIAN_POINT('',(8.870364771439,-1.790234627208E-14,
    79.256810502088));
#64 = CARTESIAN_POINT('',(8.43489548824,6.272760089132E-15,
    81.118731729121));
#65 = CARTESIAN_POINT('',(8.268480004024,-7.382983113757E-15,
    83.969194878258));
#66 = CARTESIAN_POINT('',(9.025444246642,6.189493362285E-15,
    86.417299174136));
#67 = CARTESIAN_POINT('',(9.452218581355,-3.039235529911E-14,
    87.277253886445));
#68 = CARTESIAN_POINT('',(10.017667446303,6.064593272015E-14,
    88.047217356932));
#69 = CARTESIAN_POINT('',(10.708088140543,-8.312794896881E-14,
    88.719730141077));
#70 = CARTESIAN_POINT('',(11.509418741507,8.040790255848E-14,
    89.261827197429));
#71 = CARTESIAN_POINT('',(12.34491788113,-5.775935285612E-14,
    89.714245190825));
#72 = CARTESIAN_POINT('',(13.237435378075,2.658984143977E-14,
    90.121686971094));
#73 = CARTESIAN_POINT('',(14.191886651185,-6.245004513517E-15,
    90.502075854517));
#74 = CARTESIAN_POINT('',(16.263569237725,2.303712776097E-15,
    91.236456241312));
#75 = CARTESIAN_POINT('',(18.73065089395,-3.608224830032E-16,
    91.936652831563));
#76 = CARTESIAN_POINT('',(20.08078156616,-9.103828801926E-15,
    92.283150647701));
#77 = CARTESIAN_POINT('',(21.564953497406,2.312039448782E-14,
    92.623087751816));
#78 = CARTESIAN_POINT('',(23.196822638221,-3.863576125696E-14,
    92.950775765849));
#79 = CARTESIAN_POINT('',(24.986677944935,4.229949723822E-14,
    93.260345496926));
#80 = CARTESIAN_POINT('',(26.943037549719,-3.472222509515E-14,
    93.546648394817));
#81 = CARTESIAN_POINT('',(29.073761285202,1.82909243307E-14,
    93.805294924702));
#82 = CARTESIAN_POINT('',(31.386144445539,-7.133182933217E-15,
    94.032411075685));
#83 = CARTESIAN_POINT('',(33.886573893685,1.054711873394E-15,
    94.224492658576));
#84 = CARTESIAN_POINT('',(36.581443851719,-4.718447854657E-16,
    94.378535478697));
#85 = PCURVE('',#86,#486);
#86 = ( BOUNDED_SURFACE() B_SPLINE_SURFACE(6,11,(
    (#87,#88,#89,#90,#91,#92,#93,#94,#95,#96,#97,#98,#99,#100,#101,#102
      ,#103,#104,#105,#106,#107,#108,#109,#110,#111,#112,#113,#114,#115
      ,#116,#117,#118,#119,#120,#121,#122,#123,#124,#125,#126,#127,#128
      ,#129,#130,#131,#132,#133,#134,#135,#136,#137,#138,#139,#140,#141
      ,#142,#143)
    ,(#144,#145,#146,#147,#148,#149,#150,#151,#152,#153,#154,#155,#156
      ,#157,#158,#159,#160,#161,#162,#163,#164,#165,#166,#167,#168,#169
      ,#170,#171,#172,#173,#174,#175,#176,#177,#178,#179,#180,#181,#182
      ,#183,#184,#185,#186,#187,#188,#189,#190,#191,#192,#193,#194,#195
      ,#196,#197,#198,#199,#200)
    ,(#201,#202,#203,#204,#205,#206,#207,#208,#209,#210,#211,#212,#213
      ,#214,#215,#216,#217,#218,#219,#220,#221,#222,#223,#224,#225,#226
      ,#227,#228,#229,#230,#231,#232,#233,#234,#235,#236,#237,#238,#239
      ,#240,#241,#242,#243,#244,#245,#246,#247,#248,#249,#250,#251,#252
      ,#253,#254,#255,#256,#257)
    ,(#258,#259,#260,#261,#262,#263,#264,#265,#266,#267,#268,#269,#270
      ,#271,#272,#273,#274,#275,#276,#277,#278,#279,#280,#281,#282,#283
      ,#284,#285,#286,#287,#288,#289,#290,#291,#292,#293,#294,#295,#296
      ,#297,#298,#299,#300,#301,#302,#303,#304,#305,#306,#307,#308,#309
      ,#310,#311,#312,#313,#314)
    ,(#315,#316,#317,#318,#319,#320,#321,#322,#323,#324,#325,#326,#327
      ,#328,#329,#330,#331,#332,#333,#334,#335,#336,#337,#338,#339,#340
      ,#341,#342,#343,#344,#345,#346,#347,#348,#349,#350,#351,#352,#353
      ,#354,#355,#356,#357,#358,#359,#360,#361,#362,#363,#364,#365,#366
      ,#367,#368,#369,#370,#371)
    ,(#372,#373,#374,#375,#376,#377,#378,#379,#380,#381,#382,#383,#384
      ,#385,#386,#387,#388,#389,#390,#391,#392,#393,#394,#395,#396,#397
      ,#398,#399,#400,#401,#402,#403,#404,#405,#406,#407,#408,#409,#410
      ,#411,#412,#413,#414,#415,#416,#417,#418,#419,#420,#421,#422,#423
      ,#424,#425,#426,#427,#428)
    ,(#429,#430,#431,#432,#433,#434,#435,#436,#437,#438,#439,#440,#441
      ,#442,#443,#444,#445,#446,#447,#448,#449,#450,#451,#452,#453,#454
      ,#455,#456,#457,#458,#459,#460,#461,#462,#463,#464,#465,#466,#467
      ,#468,#469,#470,#471,#472,#473,#474,#475,#476,#477,#478,#479,#480
      ,#481,#482,#483,#484,#485
)),.UNSPECIFIED.,.T.,.F.,.F.) B_SPLINE_SURFACE_WITH_KNOTS((1,6,6,1),(12,
    9,9,9,9,9,12),(-6.28318530718,0.,6.28318530718,12.566370614359),(0.,
    15.189156806249,30.378313612497,60.756627224995,83.812175450781,
    97.970430879721,112.12868630866),.UNSPECIFIED.) 
GEOMETRIC_REPRESENTATION_ITEM() RATIONAL_B_SPLINE_SURFACE((
    (1.669078461068,1.669078461068,1.669078461068,1.669078461068
      ,1.669078461069,1.669078461068,1.669078461069,1.669078461068
      ,1.669078461068,1.669078461068,1.669078461068,1.669078461068
      ,1.669078461068,1.669078461068,1.669078461068,1.669078461069
      ,1.669078461068,1.669078461068,1.669078461068,1.669078461068
      ,1.669078461068,1.669078461068,1.669078461068,1.669078461068
      ,1.669078461069,1.669078461068,1.669078461068,1.669078461068
      ,1.669078461068,1.669078461068,1.669078461069,1.669078461067
      ,1.669078461069,1.669078461067,1.669078461069,1.669078461068
      ,1.669078461068,1.669078461068,1.669078461068,1.669078461068
      ,1.669078461069,1.669078461067,1.669078461069,1.669078461068
      ,1.669078461069,1.669078461068,1.669078461068,1.669078461068
      ,1.669078461068,1.669078461068,1.669078461068,1.669078461068
      ,1.669078461068,1.669078461068,1.669078461068,1.669078461068
      ,1.669078461068)
    ,(1.03672962321,1.03672962321,1.03672962321,1.036729623209
      ,1.03672962321,1.036729623209,1.03672962321,1.03672962321
      ,1.03672962321,1.03672962321,1.03672962321,1.03672962321
      ,1.03672962321,1.03672962321,1.03672962321,1.03672962321
      ,1.03672962321,1.03672962321,1.03672962321,1.03672962321
      ,1.03672962321,1.03672962321,1.03672962321,1.036729623209
      ,1.03672962321,1.036729623209,1.03672962321,1.03672962321
      ,1.03672962321,1.03672962321,1.03672962321,1.036729623209
      ,1.03672962321,1.036729623209,1.03672962321,1.036729623209
      ,1.03672962321,1.03672962321,1.03672962321,1.036729623209
      ,1.03672962321,1.036729623209,1.03672962321,1.03672962321
      ,1.03672962321,1.03672962321,1.03672962321,1.03672962321
      ,1.036729623209,1.03672962321,1.036729623209,1.03672962321
      ,1.03672962321,1.03672962321,1.03672962321,1.03672962321
      ,1.03672962321)
    ,(1.038346699848,1.038346699847,1.038346699848,1.038346699847
      ,1.038346699848,1.038346699847,1.038346699848,1.038346699847
      ,1.038346699848,1.038346699848,1.038346699848,1.038346699848
      ,1.038346699847,1.038346699848,1.038346699847,1.038346699848
      ,1.038346699847,1.038346699848,1.038346699847,1.038346699848
      ,1.038346699847,1.038346699848,1.038346699848,1.038346699847
      ,1.038346699848,1.038346699847,1.038346699848,1.038346699847
      ,1.038346699848,1.038346699847,1.038346699848,1.038346699847
      ,1.038346699848,1.038346699847,1.038346699848,1.038346699847
      ,1.038346699848,1.038346699847,1.038346699848,1.038346699847
      ,1.038346699848,1.038346699846,1.038346699849,1.038346699847
      ,1.038346699848,1.038346699847,1.038346699848,1.038346699848
      ,1.038346699847,1.038346699848,1.038346699847,1.038346699848
      ,1.038346699847,1.038346699848,1.038346699847,1.038346699848
      ,1.038346699848)
    ,(0.853534330196,0.853534330196,0.853534330196,0.853534330196
      ,0.853534330197,0.853534330196,0.853534330196,0.853534330196
      ,0.853534330196,0.853534330196,0.853534330196,0.853534330196
      ,0.853534330196,0.853534330196,0.853534330196,0.853534330197
      ,0.853534330196,0.853534330196,0.853534330196,0.853534330196
      ,0.853534330196,0.853534330196,0.853534330196,0.853534330196
      ,0.853534330196,0.853534330196,0.853534330196,0.853534330196
      ,0.853534330196,0.853534330196,0.853534330196,0.853534330196
      ,0.853534330197,0.853534330195,0.853534330197,0.853534330196
      ,0.853534330196,0.853534330196,0.853534330196,0.853534330196
      ,0.853534330197,0.853534330196,0.853534330197,0.853534330196
      ,0.853534330196,0.853534330196,0.853534330196,0.853534330196
      ,0.853534330196,0.853534330197,0.853534330196,0.853534330197
      ,0.853534330196,0.853534330196,0.853534330196,0.853534330196
      ,0.853534330196)
    ,(1.038346699848,1.038346699847,1.038346699848,1.038346699847
      ,1.038346699848,1.038346699847,1.038346699848,1.038346699847
      ,1.038346699848,1.038346699847,1.038346699847,1.038346699848
      ,1.038346699847,1.038346699848,1.038346699847,1.038346699848
      ,1.038346699847,1.038346699848,1.038346699847,1.038346699848
      ,1.038346699848,1.038346699847,1.038346699848,1.038346699847
      ,1.038346699848,1.038346699847,1.038346699848,1.038346699847
      ,1.038346699848,1.038346699847,1.038346699848,1.038346699847
      ,1.038346699848,1.038346699847,1.038346699848,1.038346699847
      ,1.038346699848,1.038346699847,1.038346699848,1.038346699847
      ,1.038346699848,1.038346699847,1.038346699848,1.038346699847
      ,1.038346699848,1.038346699847,1.038346699848,1.038346699848
      ,1.038346699847,1.038346699848,1.038346699847,1.038346699848
      ,1.038346699847,1.038346699848,1.038346699847,1.038346699848
      ,1.038346699848)
    ,(1.03672962321,1.03672962321,1.03672962321,1.036729623209
      ,1.03672962321,1.036729623209,1.03672962321,1.036729623209
      ,1.03672962321,1.03672962321,1.03672962321,1.03672962321
      ,1.03672962321,1.03672962321,1.036729623209,1.03672962321
      ,1.03672962321,1.03672962321,1.03672962321,1.03672962321
      ,1.03672962321,1.03672962321,1.03672962321,1.036729623209
      ,1.03672962321,1.036729623209,1.03672962321,1.03672962321
      ,1.03672962321,1.03672962321,1.03672962321,1.036729623209
      ,1.03672962321,1.036729623209,1.03672962321,1.036729623209
      ,1.03672962321,1.03672962321,1.03672962321,1.03672962321
      ,1.03672962321,1.03672962321,1.03672962321,1.03672962321
      ,1.03672962321,1.03672962321,1.03672962321,1.03672962321
      ,1.036729623209,1.03672962321,1.036729623209,1.03672962321
      ,1.036729623209,1.03672962321,1.03672962321,1.03672962321
      ,1.03672962321)
    ,(1.669078461068,1.669078461068,1.669078461068,1.669078461068
      ,1.669078461069,1.669078461068,1.669078461069,1.669078461068
      ,1.669078461068,1.669078461068,1.669078461068,1.669078461068
      ,1.669078461068,1.669078461068,1.669078461068,1.669078461069
      ,1.669078461068,1.669078461068,1.669078461068,1.669078461068
      ,1.669078461068,1.669078461068,1.669078461068,1.669078461068
      ,1.669078461069,1.669078461068,1.669078461068,1.669078461068
      ,1.669078461068,1.669078461068,1.669078461069,1.669078461067
      ,1.669078461069,1.669078461067,1.669078461069,1.669078461068
      ,1.669078461068,1.669078461068,1.669078461068,1.669078461068
      ,1.669078461069,1.669078461067,1.669078461069,1.669078461068
      ,1.669078461069,1.669078461068,1.669078461068,1.669078461068
      ,1.669078461068,1.669078461068,1.669078461068,1.669078461068
      ,1.669078461068,1.669078461068,1.669078461068,1.669078461068
,1.669078461068))) REPRESENTATION_ITEM('') SURFACE() );
#87 = CARTESIAN_POINT('',(4.15,-4.996003610813E-16,0.));
#88 = CARTESIAN_POINT('',(7.824211122371,-1.387778780781E-15,
    0.997503332247));
#89 = CARTESIAN_POINT('',(11.250664614333,3.219646771413E-15,
    2.043003845984));
#90 = CARTESIAN_POINT('',(14.435712110168,-9.631184738623E-15,
    3.13615670867));
#91 = CARTESIAN_POINT('',(17.385353743915,1.490474410559E-14,
    4.276723335267));
#92 = CARTESIAN_POINT('',(20.105377341681,-2.009503674572E-14,
    5.464596764684));
#93 = CARTESIAN_POINT('',(22.601222088042,1.859623566247E-14,
    6.699795451287));
#94 = CARTESIAN_POINT('',(24.877718123279,-1.393329895905E-14,
    7.982370312581));
#95 = CARTESIAN_POINT('',(26.93885352752,5.467848396279E-15,
    9.31216987007));
#96 = CARTESIAN_POINT('',(28.787720148729,-1.193489751472E-15,
    10.688408325022));
#97 = CARTESIAN_POINT('',(32.065859312428,-1.52655665886E-15,
    13.529554487777));
#98 = CARTESIAN_POINT('',(34.515248414424,2.164934898019E-15,
    16.530382026118));
#99 = CARTESIAN_POINT('',(35.535326814632,-1.446065489574E-14,
    18.066387254082));
#100 = CARTESIAN_POINT('',(36.354107695338,2.936539900134E-14,
    19.631134252476));
#101 = CARTESIAN_POINT('',(36.975196829591,-4.038436252074E-14,
    21.216000000251));
#102 = CARTESIAN_POINT('',(37.406009968538,3.522182545623E-14,
    22.80787779461));
#103 = CARTESIAN_POINT('',(37.660531875287,-2.264854970235E-14,
    24.392143875696));
#104 = CARTESIAN_POINT('',(37.758484704095,7.965850201685E-15,
    25.958715801693));
#105 = CARTESIAN_POINT('',(37.720729657469,-8.881784197001E-16,
    27.504638912139));
#106 = CARTESIAN_POINT('',(37.250863235314,-3.441691376338E-15,
    32.08192320463));
#107 = CARTESIAN_POINT('',(35.840954030434,6.633582572135E-15,
    36.501824378638));
#108 = CARTESIAN_POINT('',(34.597730956731,-2.889355421587E-14,
    39.399477257154));
#109 = CARTESIAN_POINT('',(33.11783235321,6.200595592531E-14,
    42.305833982509));
#110 = CARTESIAN_POINT('',(31.39697348688,-9.545142454215E-14,
    45.236111760635));
#111 = CARTESIAN_POINT('',(29.50119729142,1.028899188071E-13,
    48.16988221461));
#112 = CARTESIAN_POINT('',(27.45683437251,-8.065770273902E-14,
    51.116107675837));
#113 = CARTESIAN_POINT('',(25.321403071851,4.060640712567E-14,
    54.054182617713));
#114 = CARTESIAN_POINT('',(23.143343377804,-1.143529715364E-14,
    56.978237460036));
#115 = CARTESIAN_POINT('',(19.334956896351,6.689093723367E-15,
    62.075962859342));
#116 = CARTESIAN_POINT('',(15.747506652802,-4.135580766729E-15,
    67.061076991993));
#117 = CARTESIAN_POINT('',(14.266312013342,8.520961713998E-15,
    69.186265120472));
#118 = CARTESIAN_POINT('',(12.878926077306,-1.876276911617E-14,
    71.28197276102));
#119 = CARTESIAN_POINT('',(11.613366473838,2.914335439641E-14,
    73.340717456924));
#120 = CARTESIAN_POINT('',(10.50026108488,-3.619327060278E-14,
    75.361764782167));
#121 = CARTESIAN_POINT('',(9.573802296296,2.978173263557E-14,
    77.336989230125));
#122 = CARTESIAN_POINT('',(8.870364771439,-1.790234627208E-14,
    79.256810502088));
#123 = CARTESIAN_POINT('',(8.43489548824,6.272760089132E-15,
    81.118731729121));
#124 = CARTESIAN_POINT('',(8.268480004024,-7.382983113757E-15,
    83.969194878258));
#125 = CARTESIAN_POINT('',(9.025444246642,6.189493362285E-15,
    86.417299174136));
#126 = CARTESIAN_POINT('',(9.452218581355,-3.039235529911E-14,
    87.277253886445));
#127 = CARTESIAN_POINT('',(10.017667446303,6.064593272015E-14,
    88.047217356932));
#128 = CARTESIAN_POINT('',(10.708088140543,-8.312794896881E-14,
    88.719730141077));
#129 = CARTESIAN_POINT('',(11.509418741507,8.040790255848E-14,
    89.261827197429));
#130 = CARTESIAN_POINT('',(12.34491788113,-5.775935285612E-14,
    89.714245190825));
#131 = CARTESIAN_POINT('',(13.237435378075,2.658984143977E-14,
    90.121686971094));
#132 = CARTESIAN_POINT('',(14.191886651185,-6.245004513517E-15,
    90.502075854517));
#133 = CARTESIAN_POINT('',(16.263569237725,2.303712776097E-15,
    91.236456241312));
#134 = CARTESIAN_POINT('',(18.73065089395,-3.608224830032E-16,
    91.936652831563));
#135 = CARTESIAN_POINT('',(20.08078156616,-9.103828801926E-15,
    92.283150647701));
#136 = CARTESIAN_POINT('',(21.564953497406,2.312039448782E-14,
    92.623087751816));
#137 = CARTESIAN_POINT('',(23.196822638221,-3.863576125696E-14,
    92.950775765849));
#138 = CARTESIAN_POINT('',(24.986677944935,4.229949723822E-14,
    93.260345496926));
#139 = CARTESIAN_POINT('',(26.943037549719,-3.472222509515E-14,
    93.546648394817));
#140 = CARTESIAN_POINT('',(29.073761285202,1.82909243307E-14,
    93.805294924702));
#141 = CARTESIAN_POINT('',(31.386144445539,-7.133182933217E-15,
    94.032411075685));
#142 = CARTESIAN_POINT('',(33.886573893685,1.054711873394E-15,
    94.224492658576));
#143 = CARTESIAN_POINT('',(36.581443851719,-4.718447854657E-16,
    94.378535478697));
#144 = CARTESIAN_POINT('',(4.15,6.89540376362,0.));
#145 = CARTESIAN_POINT('',(7.824211122371,6.89540376362,0.997503332247)
  );
#146 = CARTESIAN_POINT('',(11.250664614333,6.89540376362,2.043003845984)
  );
#147 = CARTESIAN_POINT('',(14.435712110168,6.895403763619,3.13615670867)
  );
#148 = CARTESIAN_POINT('',(17.385353743916,6.895403763621,4.276723335268
    ));
#149 = CARTESIAN_POINT('',(20.10537734168,6.895403763618,5.464596764683)
  );
#150 = CARTESIAN_POINT('',(22.601222088043,6.895403763622,6.699795451288
    ));
#151 = CARTESIAN_POINT('',(24.877718123278,6.895403763619,7.98237031258)
  );
#152 = CARTESIAN_POINT('',(26.938853527521,6.89540376362,9.31216987007)
  );
#153 = CARTESIAN_POINT('',(28.787720148729,6.89540376362,10.688408325022
    ));
#154 = CARTESIAN_POINT('',(32.065859312429,6.89540376362,13.529554487776
    ));
#155 = CARTESIAN_POINT('',(34.515248414424,6.89540376362,16.530382026119
    ));
#156 = CARTESIAN_POINT('',(35.535326814633,6.895403763619,
    18.066387254077));
#157 = CARTESIAN_POINT('',(36.354107695335,6.895403763622,
    19.631134252487));
#158 = CARTESIAN_POINT('',(36.975196829596,6.895403763617,
    21.216000000235));
#159 = CARTESIAN_POINT('',(37.406009968532,6.895403763623,
    22.807877794626));
#160 = CARTESIAN_POINT('',(37.660531875291,6.895403763618,
    24.392143875685));
#161 = CARTESIAN_POINT('',(37.758484704093,6.895403763621,
    25.958715801698));
#162 = CARTESIAN_POINT('',(37.720729657469,6.89540376362,27.504638912138
    ));
#163 = CARTESIAN_POINT('',(37.250863235313,6.89540376362,32.081923204631
    ));
#164 = CARTESIAN_POINT('',(35.840954030435,6.89540376362,36.501824378637
    ));
#165 = CARTESIAN_POINT('',(34.59773095673,6.89540376362,39.399477257156)
  );
#166 = CARTESIAN_POINT('',(33.117832353211,6.89540376362,42.305833982507
    ));
#167 = CARTESIAN_POINT('',(31.39697348688,6.89540376362,45.236111760638)
  );
#168 = CARTESIAN_POINT('',(29.501197291419,6.89540376362,48.169882214608
    ));
#169 = CARTESIAN_POINT('',(27.456834372511,6.89540376362,51.116107675838
    ));
#170 = CARTESIAN_POINT('',(25.321403071851,6.89540376362,54.054182617713
    ));
#171 = CARTESIAN_POINT('',(23.143343377805,6.89540376362,56.978237460036
    ));
#172 = CARTESIAN_POINT('',(19.334956896351,6.89540376362,62.075962859342
    ));
#173 = CARTESIAN_POINT('',(15.747506652802,6.89540376362,67.061076991993
    ));
#174 = CARTESIAN_POINT('',(14.266312013341,6.89540376362,69.186265120474
    ));
#175 = CARTESIAN_POINT('',(12.878926077309,6.895403763619,
    71.281972761017));
#176 = CARTESIAN_POINT('',(11.613366473834,6.895403763621,
    73.340717456926));
#177 = CARTESIAN_POINT('',(10.500261084884,6.895403763619,
    75.361764782167));
#178 = CARTESIAN_POINT('',(9.573802296293,6.895403763621,77.336989230124
    ));
#179 = CARTESIAN_POINT('',(8.870364771441,6.895403763619,79.256810502088
    ));
#180 = CARTESIAN_POINT('',(8.43489548824,6.89540376362,81.118731729122)
  );
#181 = CARTESIAN_POINT('',(8.268480004025,6.89540376362,83.969194878257)
  );
#182 = CARTESIAN_POINT('',(9.025444246641,6.89540376362,86.417299174137)
  );
#183 = CARTESIAN_POINT('',(9.452218581356,6.895403763619,87.27725388644)
  );
#184 = CARTESIAN_POINT('',(10.0176674463,6.895403763623,88.047217356944)
  );
#185 = CARTESIAN_POINT('',(10.708088140548,6.895403763616,
    88.719730141059));
#186 = CARTESIAN_POINT('',(11.509418741502,6.895403763624,
    89.261827197447));
#187 = CARTESIAN_POINT('',(12.344917881134,6.895403763617,
    89.714245190812));
#188 = CARTESIAN_POINT('',(13.237435378073,6.895403763622,90.1216869711)
  );
#189 = CARTESIAN_POINT('',(14.191886651186,6.895403763619,
    90.502075854515));
#190 = CARTESIAN_POINT('',(16.263569237725,6.89540376362,91.236456241313
    ));
#191 = CARTESIAN_POINT('',(18.730650893951,6.89540376362,91.936652831564
    ));
#192 = CARTESIAN_POINT('',(20.08078156616,6.895403763621,92.283150647696
    ));
#193 = CARTESIAN_POINT('',(21.564953497406,6.895403763619,
    92.623087751829));
#194 = CARTESIAN_POINT('',(23.196822638222,6.895403763621,
    92.950775765829));
#195 = CARTESIAN_POINT('',(24.986677944934,6.895403763619,
    93.260345496948));
#196 = CARTESIAN_POINT('',(26.94303754972,6.89540376362,93.546648394799)
  );
#197 = CARTESIAN_POINT('',(29.073761285201,6.89540376362,93.805294924713
    ));
#198 = CARTESIAN_POINT('',(31.38614444554,6.89540376362,94.03241107568)
  );
#199 = CARTESIAN_POINT('',(33.886573893685,6.89540376362,94.224492658578
    ));
#200 = CARTESIAN_POINT('',(36.581443851719,6.89540376362,94.378535478697
    ));
#201 = CARTESIAN_POINT('',(-4.376374990775,7.885466390469,
    7.105427357601E-15));
#202 = CARTESIAN_POINT('',(-0.702163868404,7.885466390469,0.79990738271)
  );
#203 = CARTESIAN_POINT('',(2.729326767157,7.88546639047,1.629580493909)
  );
#204 = CARTESIAN_POINT('',(5.925926623905,7.885466390467,2.48642847157)
  );
#205 = CARTESIAN_POINT('',(8.895836083777,7.885466390473,3.367748410353)
  );
#206 = CARTESIAN_POINT('',(11.647479417674,7.885466390465,4.270698601528
    ));
#207 = CARTESIAN_POINT('',(14.189648555751,7.885466390473,5.192305079102
    ));
#208 = CARTESIAN_POINT('',(16.531777694785,7.885466390467,6.129559643877
    ));
#209 = CARTESIAN_POINT('',(18.684189024495,7.88546639047,7.079667532297)
  );
#210 = CARTESIAN_POINT('',(20.658149854663,7.885466390469,8.040502902572
    ));
#211 = CARTESIAN_POINT('',(24.273012995129,7.885466390469,9.982157707861
    ));
#212 = CARTESIAN_POINT('',(27.268862870638,7.885466390469,
    11.970582918858));
#213 = CARTESIAN_POINT('',(28.623850676661,7.885466390468,
    12.978098639128));
#214 = CARTESIAN_POINT('',(29.846929506782,7.885466390472,
    14.003186295982));
#215 = CARTESIAN_POINT('',(30.948824711957,7.885466390465,
    15.051984776142));
#216 = CARTESIAN_POINT('',(31.936243837722,7.885466390473,
    16.135361224563));
#217 = CARTESIAN_POINT('',(32.808967089819,7.885466390466,
    17.265782596298));
#218 = CARTESIAN_POINT('',(33.560724318652,7.885466390471,
    18.450926807351));
#219 = CARTESIAN_POINT('',(34.184044193265,7.885466390469,
    19.690955185051));
#220 = CARTESIAN_POINT('',(35.658996945317,7.88546639047,23.565288179149
    ));
#221 = CARTESIAN_POINT('',(35.942840098544,7.885466390469,
    27.850389132799));
#222 = CARTESIAN_POINT('',(35.598149647152,7.88546639047,30.843904933936
    ));
#223 = CARTESIAN_POINT('',(34.765521051159,7.885466390468,
    33.889769980505));
#224 = CARTESIAN_POINT('',(33.565695267456,7.88546639047,36.948300958569
    ));
#225 = CARTESIAN_POINT('',(32.045249339337,7.885466390468,40.01740453915
    ));
#226 = CARTESIAN_POINT('',(30.292638873676,7.88546639047,43.063993474926
    ));
#227 = CARTESIAN_POINT('',(28.363430506817,7.885466390469,
    46.086161249781));
#228 = CARTESIAN_POINT('',(26.322764436147,7.885466390469,49.06646158196
    ));
#229 = CARTESIAN_POINT('',(22.638704595465,7.885466390469,
    54.215448337933));
#230 = CARTESIAN_POINT('',(18.956896946214,7.885466390469,
    59.161657786938));
#231 = CARTESIAN_POINT('',(17.39252872471,7.88546639047,61.252832646414)
  );
#232 = CARTESIAN_POINT('',(15.874644645817,7.885466390466,
    63.294570282352));
#233 = CARTESIAN_POINT('',(14.424506007604,7.885466390474,
    65.284428695979));
#234 = CARTESIAN_POINT('',(13.060621470793,7.885466390464,
    67.212849764908));
#235 = CARTESIAN_POINT('',(11.797740754934,7.885466390473,
    69.078069617503));
#236 = CARTESIAN_POINT('',(10.648312262803,7.885466390467,
    70.879858530414));
#237 = CARTESIAN_POINT('',(9.61574447835,7.88546639047,72.610516962305)
  );
#238 = CARTESIAN_POINT('',(8.110098610144,7.885466390469,75.337216123007
    ));
#239 = CARTESIAN_POINT('',(6.936115953677,7.885466390469,78.089991806655
    ));
#240 = CARTESIAN_POINT('',(6.543834890505,7.885466390469,79.152610179506
    ));
#241 = CARTESIAN_POINT('',(6.217802028192,7.885466390469,80.24770010616)
  );
#242 = CARTESIAN_POINT('',(5.984233514742,7.88546639047,81.380735094489)
  );
#243 = CARTESIAN_POINT('',(5.86972431465,7.885466390469,82.584085533466)
  );
#244 = CARTESIAN_POINT('',(5.966967888276,7.88546639047,83.812399811058)
  );
#245 = CARTESIAN_POINT('',(6.263633990191,7.885466390469,85.016143782014
    ));
#246 = CARTESIAN_POINT('',(6.766305063865,7.885466390469,86.174023609747
    ));
#247 = CARTESIAN_POINT('',(8.166154039946,7.885466390469,88.364049449598
    ));
#248 = CARTESIAN_POINT('',(10.328432052013,7.885466390469,
    90.273410156916));
#249 = CARTESIAN_POINT('',(11.593236540789,7.88546639047,91.150316155001
    ));
#250 = CARTESIAN_POINT('',(13.035069143785,7.885466390468,
    91.950176670059));
#251 = CARTESIAN_POINT('',(14.651294992561,7.885466390472,
    92.676597535038));
#252 = CARTESIAN_POINT('',(16.44282987638,7.885466390466,93.333375260817
    ));
#253 = CARTESIAN_POINT('',(18.412457003849,7.885466390472,
    93.923546405883));
#254 = CARTESIAN_POINT('',(20.563653792233,7.885466390468,
    94.449347110398));
#255 = CARTESIAN_POINT('',(22.900492991766,7.88546639047,94.912469869691
    ));
#256 = CARTESIAN_POINT('',(25.428005337203,7.885466390469,
    95.314217184297));
#257 = CARTESIAN_POINT('',(28.15121380272,7.885466390469,95.65536428643)
  );
#258 = CARTESIAN_POINT('',(-11.40883522218,1.43773881689E-14,
    -7.105427357601E-15));
#259 = CARTESIAN_POINT('',(-7.734624099815,1.165734175856E-14,
    0.636932418729));
#260 = CARTESIAN_POINT('',(-4.298978883663,2.556288514199E-14,
    1.288593464211));
#261 = CARTESIAN_POINT('',(-1.092850766806,-1.38500322322E-14,
    1.950539774015));
#262 = CARTESIAN_POINT('',(1.893775372935,6.467049118442E-14,
    2.61803589857));
#263 = CARTESIAN_POINT('',(4.671498317122,-5.151434834261E-14,
    3.285984539346));
#264 = CARTESIAN_POINT('',(7.251875303521,7.818745650923E-14,
    3.948943615058));
#265 = CARTESIAN_POINT('',(9.648137904068,-3.10862446895E-14,
    4.601381800636));
#266 = CARTESIAN_POINT('',(11.875832612304,3.697042672002E-14,
    5.238324180183));
#267 = CARTESIAN_POINT('',(13.952969768949,8.049116928532E-15,
    5.8565396591));
#268 = CARTESIAN_POINT('',(17.845559138689,2.056688153118E-14,
    7.05630389463));
#269 = CARTESIAN_POINT('',(21.292123844584,8.354428260304E-15,
    8.209710810875));
#270 = CARTESIAN_POINT('',(22.923341241734,3.53328477587E-14,
    8.781334202966));
#271 = CARTESIAN_POINT('',(24.479880569898,-2.564615186884E-14,
    9.361316775675));
#272 = CARTESIAN_POINT('',(25.978339329503,6.664113705313E-14,
    9.967972874672));
#273 = CARTESIAN_POINT('',(27.42484094591,-3.561040351485E-14,
    10.631943010735));
#274 = CARTESIAN_POINT('',(28.807449862294,4.973799150321E-14,
    11.388038262236));
#275 = CARTESIAN_POINT('',(30.098457762989,-2.609024107869E-15,
    12.258585092893));
#276 = CARTESIAN_POINT('',(31.267024955319,1.79301018477E-14,
    13.246314862402));
#277 = CARTESIAN_POINT('',(34.346043153086,1.007527394847E-14,
    16.540861363892));
#278 = CARTESIAN_POINT('',(36.026874605926,1.909583602355E-14,
    20.714780579713));
#279 = CARTESIAN_POINT('',(36.423283970097,3.774758283726E-15,
    23.787363064139));
#280 = CARTESIAN_POINT('',(36.124516550953,3.025357742104E-14,
    26.948293038297));
#281 = CARTESIAN_POINT('',(35.354433118122,-2.553512956638E-15,
    30.112605843817));
#282 = CARTESIAN_POINT('',(34.143555462737,2.758904216194E-14,
    33.293330697434));
#283 = CARTESIAN_POINT('',(32.631579208827,6.911138328292E-15,
    36.422698322187));
#284 = CARTESIAN_POINT('',(30.872461247592,1.720845688169E-14,
    39.51422493996));
#285 = CARTESIAN_POINT('',(28.945115925015,1.38500322322E-14,
    42.540915933005));
#286 = CARTESIAN_POINT('',(25.363599329014,1.426636586643E-14,
    47.732182491656));
#287 = CARTESIAN_POINT('',(21.603966730257,1.501576640806E-14,
    52.646303785867));
#288 = CARTESIAN_POINT('',(19.970997853882,8.409939411536E-15,
    54.709424875492));
#289 = CARTESIAN_POINT('',(18.345480343329,2.900457651833E-14,
    56.706648645761));
#290 = CARTESIAN_POINT('',(16.743102949152,-7.74380559676E-15,
    58.639690412064));
#291 = CARTESIAN_POINT('',(15.172378531859,3.372302437299E-14,
    60.491714364469));
#292 = CARTESIAN_POINT('',(13.632020713809,5.218048215738E-15,
    62.266203637752));
#293 = CARTESIAN_POINT('',(12.114743781486,1.459943277382E-14,
    63.970640760267));
#294 = CARTESIAN_POINT('',(10.58969572624,1.618150058391E-14,
    65.593035083702));
#295 = CARTESIAN_POINT('',(7.979467379984,1.126876369995E-14,
    68.217655069175));
#296 = CARTESIAN_POINT('',(5.212860977612,1.787459069647E-14,
    71.221720359541));
#297 = CARTESIAN_POINT('',(4.145032038687,-5.606626274357E-15,
    72.451493488614));
#298 = CARTESIAN_POINT('',(3.083714861417,5.859202012459E-14,
    73.814744137247));
#299 = CARTESIAN_POINT('',(2.088050221058,-5.029310301552E-14,
    75.327612769969));
#300 = CARTESIAN_POINT('',(1.218166434863,8.174017018803E-14,
    77.07635771971));
#301 = CARTESIAN_POINT('',(0.706504944637,-3.722022690056E-14,
    78.944622711149));
#302 = CARTESIAN_POINT('',(0.511719375226,4.13835632429E-14,
    80.805147963073));
#303 = CARTESIAN_POINT('',(0.64176711375,5.800915303666E-15,
    82.6042937628));
#304 = CARTESIAN_POINT('',(1.487495123676,2.370326157575E-14,
    85.994919948139));
#305 = CARTESIAN_POINT('',(3.398374445414,3.802513859341E-15,
    88.901585908359));
#306 = CARTESIAN_POINT('',(4.592802837393,5.62883073485E-14,
    90.215966736014));
#307 = CARTESIAN_POINT('',(5.999714428527,-7.749356711884E-14,
    91.395167017441));
#308 = CARTESIAN_POINT('',(7.603037862245,1.535993554569E-13,
    92.450458348506));
#309 = CARTESIAN_POINT('',(9.39595804276,-1.416367023666E-13,
    93.393609406137));
#310 = CARTESIAN_POINT('',(11.376528076896,1.436628593865E-13,
    94.234407736403));
#311 = CARTESIAN_POINT('',(13.544610813934,-6.430966870141E-14,
    94.980554263231));
#312 = CARTESIAN_POINT('',(15.901621085379,4.729550084903E-14,
    95.638332675029));
#313 = CARTESIAN_POINT('',(18.451471106362,6.217248937901E-15,
    96.213009977086));
#314 = CARTESIAN_POINT('',(21.198052860892,1.426636586643E-14,
    96.708478631321));
#315 = CARTESIAN_POINT('',(-4.376374990775,-7.885466390469,
    -7.105427357601E-15));
#316 = CARTESIAN_POINT('',(-0.702163868404,-7.885466390469,
    0.799907382709));
#317 = CARTESIAN_POINT('',(2.729326767156,-7.88546639047,1.629580493914)
  );
#318 = CARTESIAN_POINT('',(5.925926623907,-7.885466390469,2.486428471558
    ));
#319 = CARTESIAN_POINT('',(8.895836083773,-7.88546639047,3.367748410372)
  );
#320 = CARTESIAN_POINT('',(11.647479417679,-7.885466390469,
    4.270698601504));
#321 = CARTESIAN_POINT('',(14.189648555746,-7.88546639047,5.192305079124
    ));
#322 = CARTESIAN_POINT('',(16.531777694788,-7.885466390469,
    6.129559643862));
#323 = CARTESIAN_POINT('',(18.684189024493,-7.885466390469,
    7.079667532303));
#324 = CARTESIAN_POINT('',(20.658149854663,-7.885466390469,
    8.040502902571));
#325 = CARTESIAN_POINT('',(24.273012995129,-7.885466390469,
    9.982157707861));
#326 = CARTESIAN_POINT('',(27.268862870638,-7.885466390469,
    11.970582918859));
#327 = CARTESIAN_POINT('',(28.623850676662,-7.88546639047,
    12.978098639123));
#328 = CARTESIAN_POINT('',(29.846929506779,-7.885466390468,
    14.003186295991));
#329 = CARTESIAN_POINT('',(30.948824711961,-7.88546639047,15.05198477613
    ));
#330 = CARTESIAN_POINT('',(31.936243837717,-7.885466390468,
    16.135361224574));
#331 = CARTESIAN_POINT('',(32.808967089823,-7.88546639047,
    17.265782596291));
#332 = CARTESIAN_POINT('',(33.56072431865,-7.885466390469,
    18.450926807354));
#333 = CARTESIAN_POINT('',(34.184044193265,-7.885466390469,
    19.69095518505));
#334 = CARTESIAN_POINT('',(35.658996945317,-7.885466390469,
    23.565288179148));
#335 = CARTESIAN_POINT('',(35.942840098543,-7.885466390469,27.8503891328
    ));
#336 = CARTESIAN_POINT('',(35.598149647157,-7.88546639047,
    30.843904933934));
#337 = CARTESIAN_POINT('',(34.765521051152,-7.885466390468,
    33.889769980509));
#338 = CARTESIAN_POINT('',(33.565695267466,-7.885466390471,
    36.948300958565));
#339 = CARTESIAN_POINT('',(32.045249339328,-7.885466390467,
    40.017404539153));
#340 = CARTESIAN_POINT('',(30.292638873682,-7.885466390471,
    43.063993474925));
#341 = CARTESIAN_POINT('',(28.363430506814,-7.885466390468,
    46.086161249781));
#342 = CARTESIAN_POINT('',(26.322764436147,-7.88546639047,49.06646158196
    ));
#343 = CARTESIAN_POINT('',(22.638704595464,-7.885466390469,
    54.215448337932));
#344 = CARTESIAN_POINT('',(18.956896946214,-7.885466390469,
    59.161657786939));
#345 = CARTESIAN_POINT('',(17.392528724709,-7.885466390468,
    61.252832646411));
#346 = CARTESIAN_POINT('',(15.87464464582,-7.885466390471,
    63.294570282359));
#347 = CARTESIAN_POINT('',(14.4245060076,-7.885466390467,65.284428695969
    ));
#348 = CARTESIAN_POINT('',(13.060621470797,-7.885466390471,
    67.212849764918));
#349 = CARTESIAN_POINT('',(11.797740754931,-7.885466390468,
    69.078069617495));
#350 = CARTESIAN_POINT('',(10.648312262805,-7.88546639047,
    70.879858530418));
#351 = CARTESIAN_POINT('',(9.61574447835,-7.885466390469,72.610516962304
    ));
#352 = CARTESIAN_POINT('',(8.110098610144,-7.885466390469,
    75.337216123008));
#353 = CARTESIAN_POINT('',(6.936115953677,-7.885466390469,
    78.089991806655));
#354 = CARTESIAN_POINT('',(6.543834890505,-7.88546639047,79.152610179507
    ));
#355 = CARTESIAN_POINT('',(6.217802028191,-7.885466390468,
    80.247700106158));
#356 = CARTESIAN_POINT('',(5.984233514742,-7.885466390472,
    81.380735094492));
#357 = CARTESIAN_POINT('',(5.86972431465,-7.885466390467,82.584085533462
    ));
#358 = CARTESIAN_POINT('',(5.966967888277,-7.885466390471,
    83.812399811061));
#359 = CARTESIAN_POINT('',(6.26363399019,-7.885466390469,85.016143782012
    ));
#360 = CARTESIAN_POINT('',(6.766305063865,-7.885466390469,
    86.174023609747));
#361 = CARTESIAN_POINT('',(8.166154039947,-7.885466390469,
    88.364049449598));
#362 = CARTESIAN_POINT('',(10.328432052013,-7.885466390469,
    90.273410156916));
#363 = CARTESIAN_POINT('',(11.593236540789,-7.88546639047,
    91.150316155003));
#364 = CARTESIAN_POINT('',(13.035069143784,-7.885466390467,
    91.950176670053));
#365 = CARTESIAN_POINT('',(14.651294992562,-7.885466390473,
    92.676597535048));
#366 = CARTESIAN_POINT('',(16.442829876378,-7.885466390465,
    93.333375260806));
#367 = CARTESIAN_POINT('',(18.412457003851,-7.885466390473,
    93.923546405891));
#368 = CARTESIAN_POINT('',(20.563653792232,-7.885466390467,
    94.449347110393));
#369 = CARTESIAN_POINT('',(22.900492991767,-7.88546639047,
    94.912469869693));
#370 = CARTESIAN_POINT('',(25.428005337202,-7.885466390469,
    95.314217184297));
#371 = CARTESIAN_POINT('',(28.15121380272,-7.885466390469,95.65536428643
    ));
#372 = CARTESIAN_POINT('',(4.15,-6.89540376362,0.));
#373 = CARTESIAN_POINT('',(7.824211122371,-6.89540376362,0.997503332247)
  );
#374 = CARTESIAN_POINT('',(11.250664614333,-6.89540376362,2.043003845984
    ));
#375 = CARTESIAN_POINT('',(14.435712110167,-6.895403763619,
    3.136156708672));
#376 = CARTESIAN_POINT('',(17.385353743916,-6.895403763622,
    4.276723335264));
#377 = CARTESIAN_POINT('',(20.10537734168,-6.895403763618,5.464596764689
    ));
#378 = CARTESIAN_POINT('',(22.601222088043,-6.895403763622,
    6.699795451281));
#379 = CARTESIAN_POINT('',(24.877718123278,-6.895403763618,
    7.982370312585));
#380 = CARTESIAN_POINT('',(26.938853527521,-6.895403763621,
    9.312169870068));
#381 = CARTESIAN_POINT('',(28.787720148729,-6.89540376362,
    10.688408325022));
#382 = CARTESIAN_POINT('',(32.065859312429,-6.89540376362,
    13.529554487776));
#383 = CARTESIAN_POINT('',(34.515248414424,-6.89540376362,16.53038202612
    ));
#384 = CARTESIAN_POINT('',(35.535326814633,-6.895403763619,
    18.066387254076));
#385 = CARTESIAN_POINT('',(36.354107695335,-6.895403763622,
    19.631134252488));
#386 = CARTESIAN_POINT('',(36.975196829595,-6.895403763617,
    21.216000000234));
#387 = CARTESIAN_POINT('',(37.406009968534,-6.895403763623,
    22.807877794627));
#388 = CARTESIAN_POINT('',(37.66053187529,-6.895403763618,
    24.392143875685));
#389 = CARTESIAN_POINT('',(37.758484704094,-6.895403763621,
    25.958715801698));
#390 = CARTESIAN_POINT('',(37.720729657469,-6.89540376362,
    27.504638912139));
#391 = CARTESIAN_POINT('',(37.250863235314,-6.89540376362,
    32.081923204631));
#392 = CARTESIAN_POINT('',(35.840954030434,-6.89540376362,
    36.501824378638));
#393 = CARTESIAN_POINT('',(34.597730956732,-6.89540376362,
    39.399477257156));
#394 = CARTESIAN_POINT('',(33.117832353208,-6.895403763621,
    42.305833982508));
#395 = CARTESIAN_POINT('',(31.396973486883,-6.895403763619,
    45.236111760637));
#396 = CARTESIAN_POINT('',(29.501197291417,-6.895403763621,
    48.169882214608));
#397 = CARTESIAN_POINT('',(27.456834372512,-6.895403763619,
    51.116107675838));
#398 = CARTESIAN_POINT('',(25.32140307185,-6.89540376362,54.054182617713
    ));
#399 = CARTESIAN_POINT('',(23.143343377805,-6.89540376362,
    56.978237460036));
#400 = CARTESIAN_POINT('',(19.334956896351,-6.89540376362,
    62.075962859342));
#401 = CARTESIAN_POINT('',(15.747506652802,-6.89540376362,
    67.061076991993));
#402 = CARTESIAN_POINT('',(14.266312013342,-6.895403763621,
    69.186265120474));
#403 = CARTESIAN_POINT('',(12.878926077307,-6.895403763617,
    71.281972761015));
#404 = CARTESIAN_POINT('',(11.613366473838,-6.895403763624,
    73.340717456929));
#405 = CARTESIAN_POINT('',(10.50026108488,-6.895403763616,
    75.361764782164));
#406 = CARTESIAN_POINT('',(9.573802296296,-6.895403763623,
    77.336989230127));
#407 = CARTESIAN_POINT('',(8.870364771439,-6.895403763618,
    79.256810502087));
#408 = CARTESIAN_POINT('',(8.43489548824,-6.89540376362,81.118731729122)
  );
#409 = CARTESIAN_POINT('',(8.268480004025,-6.895403763619,
    83.969194878257));
#410 = CARTESIAN_POINT('',(9.025444246641,-6.89540376362,86.417299174136
    ));
#411 = CARTESIAN_POINT('',(9.452218581356,-6.895403763618,
    87.277253886443));
#412 = CARTESIAN_POINT('',(10.017667446301,-6.895403763623,
    88.047217356938));
#413 = CARTESIAN_POINT('',(10.708088140547,-6.895403763616,
    88.719730141068));
#414 = CARTESIAN_POINT('',(11.509418741504,-6.895403763624,
    89.261827197439));
#415 = CARTESIAN_POINT('',(12.344917881133,-6.895403763617,
    89.714245190817));
#416 = CARTESIAN_POINT('',(13.237435378073,-6.895403763621,
    90.121686971098));
#417 = CARTESIAN_POINT('',(14.191886651186,-6.89540376362,
    90.502075854516));
#418 = CARTESIAN_POINT('',(16.263569237725,-6.89540376362,
    91.236456241314));
#419 = CARTESIAN_POINT('',(18.730650893951,-6.89540376362,
    91.936652831562));
#420 = CARTESIAN_POINT('',(20.08078156616,-6.89540376362,92.283150647704
    ));
#421 = CARTESIAN_POINT('',(21.564953497406,-6.895403763619,
    92.62308775181));
#422 = CARTESIAN_POINT('',(23.196822638222,-6.895403763621,
    92.950775765857));
#423 = CARTESIAN_POINT('',(24.986677944933,-6.895403763619,
    93.260345496918));
#424 = CARTESIAN_POINT('',(26.943037549722,-6.89540376362,
    93.546648394823));
#425 = CARTESIAN_POINT('',(29.0737612852,-6.89540376362,93.805294924699)
  );
#426 = CARTESIAN_POINT('',(31.38614444554,-6.89540376362,94.032411075686
    ));
#427 = CARTESIAN_POINT('',(33.886573893684,-6.89540376362,
    94.224492658576));
#428 = CARTESIAN_POINT('',(36.581443851719,-6.89540376362,
    94.378535478697));
#429 = CARTESIAN_POINT('',(4.15,-4.996003610813E-16,0.));
#430 = CARTESIAN_POINT('',(7.824211122371,-1.387778780781E-15,
    0.997503332247));
#431 = CARTESIAN_POINT('',(11.250664614333,3.219646771413E-15,
    2.043003845984));
#432 = CARTESIAN_POINT('',(14.435712110168,-9.631184738623E-15,
    3.13615670867));
#433 = CARTESIAN_POINT('',(17.385353743915,1.490474410559E-14,
    4.276723335267));
#434 = CARTESIAN_POINT('',(20.105377341681,-2.009503674572E-14,
    5.464596764684));
#435 = CARTESIAN_POINT('',(22.601222088042,1.859623566247E-14,
    6.699795451287));
#436 = CARTESIAN_POINT('',(24.877718123279,-1.393329895905E-14,
    7.982370312581));
#437 = CARTESIAN_POINT('',(26.93885352752,5.467848396279E-15,
    9.31216987007));
#438 = CARTESIAN_POINT('',(28.787720148729,-1.193489751472E-15,
    10.688408325022));
#439 = CARTESIAN_POINT('',(32.065859312428,-1.52655665886E-15,
    13.529554487777));
#440 = CARTESIAN_POINT('',(34.515248414424,2.164934898019E-15,
    16.530382026118));
#441 = CARTESIAN_POINT('',(35.535326814632,-1.446065489574E-14,
    18.066387254082));
#442 = CARTESIAN_POINT('',(36.354107695338,2.936539900134E-14,
    19.631134252476));
#443 = CARTESIAN_POINT('',(36.975196829591,-4.038436252074E-14,
    21.216000000251));
#444 = CARTESIAN_POINT('',(37.406009968538,3.522182545623E-14,
    22.80787779461));
#445 = CARTESIAN_POINT('',(37.660531875287,-2.264854970235E-14,
    24.392143875696));
#446 = CARTESIAN_POINT('',(37.758484704095,7.965850201685E-15,
    25.958715801693));
#447 = CARTESIAN_POINT('',(37.720729657469,-8.881784197001E-16,
    27.504638912139));
#448 = CARTESIAN_POINT('',(37.250863235314,-3.441691376338E-15,
    32.08192320463));
#449 = CARTESIAN_POINT('',(35.840954030434,6.633582572135E-15,
    36.501824378638));
#450 = CARTESIAN_POINT('',(34.597730956731,-2.889355421587E-14,
    39.399477257154));
#451 = CARTESIAN_POINT('',(33.11783235321,6.200595592531E-14,
    42.305833982509));
#452 = CARTESIAN_POINT('',(31.39697348688,-9.545142454215E-14,
    45.236111760635));
#453 = CARTESIAN_POINT('',(29.50119729142,1.028899188071E-13,
    48.16988221461));
#454 = CARTESIAN_POINT('',(27.45683437251,-8.065770273902E-14,
    51.116107675837));
#455 = CARTESIAN_POINT('',(25.321403071851,4.060640712567E-14,
    54.054182617713));
#456 = CARTESIAN_POINT('',(23.143343377804,-1.143529715364E-14,
    56.978237460036));
#457 = CARTESIAN_POINT('',(19.334956896351,6.689093723367E-15,
    62.075962859342));
#458 = CARTESIAN_POINT('',(15.747506652802,-4.135580766729E-15,
    67.061076991993));
#459 = CARTESIAN_POINT('',(14.266312013342,8.520961713998E-15,
    69.186265120472));
#460 = CARTESIAN_POINT('',(12.878926077306,-1.876276911617E-14,
    71.28197276102));
#461 = CARTESIAN_POINT('',(11.613366473838,2.914335439641E-14,
    73.340717456924));
#462 = CARTESIAN_POINT('',(10.50026108488,-3.619327060278E-14,
    75.361764782167));
#463 = CARTESIAN_POINT('',(9.573802296296,2.978173263557E-14,
    77.336989230125));
#464 = CARTESIAN_POINT('',(8.870364771439,-1.790234627208E-14,
    79.256810502088));
#465 = CARTESIAN_POINT('',(8.43489548824,6.272760089132E-15,
    81.118731729121));
#466 = CARTESIAN_POINT('',(8.268480004024,-7.382983113757E-15,
    83.969194878258));
#467 = CARTESIAN_POINT('',(9.025444246642,6.189493362285E-15,
    86.417299174136));
#468 = CARTESIAN_POINT('',(9.452218581355,-3.039235529911E-14,
    87.277253886445));
#469 = CARTESIAN_POINT('',(10.017667446303,6.064593272015E-14,
    88.047217356932));
#470 = CARTESIAN_POINT('',(10.708088140543,-8.312794896881E-14,
    88.719730141077));
#471 = CARTESIAN_POINT('',(11.509418741507,8.040790255848E-14,
    89.261827197429));
#472 = CARTESIAN_POINT('',(12.34491788113,-5.775935285612E-14,
    89.714245190825));
#473 = CARTESIAN_POINT('',(13.237435378075,2.658984143977E-14,
    90.121686971094));
#474 = CARTESIAN_POINT('',(14.191886651185,-6.245004513517E-15,
    90.502075854517));
#475 = CARTESIAN_POINT('',(16.263569237725,2.303712776097E-15,
    91.236456241312));
#476 = CARTESIAN_POINT('',(18.73065089395,-3.608224830032E-16,
    91.936652831563));
#477 = CARTESIAN_POINT('',(20.08078156616,-9.103828801926E-15,
    92.283150647701));
#478 = CARTESIAN_POINT('',(21.564953497406,2.312039448782E-14,
    92.623087751816));
#479 = CARTESIAN_POINT('',(23.196822638221,-3.863576125696E-14,
    92.950775765849));
#480 = CARTESIAN_POINT('',(24.986677944935,4.229949723822E-14,
    93.260345496926));
#481 = CARTESIAN_POINT('',(26.943037549719,-3.472222509515E-14,
    93.546648394817));
#482 = CARTESIAN_POINT('',(29.073761285202,1.82909243307E-14,
    93.805294924702));
#483 = CARTESIAN_POINT('',(31.386144445539,-7.133182933217E-15,
    94.032411075685));
#484 = CARTESIAN_POINT('',(33.886573893685,1.054711873394E-15,
    94.224492658576));
#485 = CARTESIAN_POINT('',(36.581443851719,-4.718447854657E-16,
    94.378535478697));
#486 = DEFINITIONAL_REPRESENTATION('',(#487),#490);
#487 = B_SPLINE_CURVE_WITH_KNOTS('',1,(#488,#489),.UNSPECIFIED.,.F.,.F.,
  (2,2),(0.,112.12868630866),.PIECEWISE_BEZIER_KNOTS.);
#488 = CARTESIAN_POINT('',(6.28318530718,0.));
#489 = CARTESIAN_POINT('',(6.28318530718,112.12868630866));
#490 = ( GEOMETRIC_REPRESENTATION_CONTEXT(2) 
PARAMETRIC_REPRESENTATION_CONTEXT() REPRESENTATION_CONTEXT('2D SPACE',''
  ) );
#491 = PCURVE('',#86,#492);
#492 = DEFINITIONAL_REPRESENTATION('',(#493),#497);
#493 = LINE('',#494,#495);
#494 = CARTESIAN_POINT('',(0.,0.));
#495 = VECTOR('',#496,1.);
#496 = DIRECTION('',(0.,1.));
#497 = ( GEOMETRIC_REPRESENTATION_CONTEXT(2) 
PARAMETRIC_REPRESENTATION_CONTEXT() REPRESENTATION_CONTEXT('2D SPACE',''
  ) );
#498 = ORIENTED_EDGE('',*,*,#499,.F.);
#499 = EDGE_CURVE('',#24,#24,#500,.T.);
#500 = SURFACE_CURVE('',#501,(#509,#516),.PCURVE_S1.);
#501 = ( BOUNDED_CURVE() B_SPLINE_CURVE(6,(#502,#503,#504,#505,#506,#507
,#508),.UNSPECIFIED.,.T.,.F.) B_SPLINE_CURVE_WITH_KNOTS((1,6,6,1),(
    -6.28318530718,0.,6.28318530718,12.566370614359),.UNSPECIFIED.) 
CURVE() GEOMETRIC_REPRESENTATION_ITEM() RATIONAL_B_SPLINE_CURVE((
    1.669078461068,1.03672962321,1.038346699848,0.853534330196,
1.038346699848,1.03672962321,1.669078461068)) REPRESENTATION_ITEM('') );
#502 = CARTESIAN_POINT('',(36.581443851719,-4.718447854657E-16,
    94.378535478697));
#503 = CARTESIAN_POINT('',(36.581443851719,6.89540376362,94.378535478697
    ));
#504 = CARTESIAN_POINT('',(28.15121380272,7.885466390469,95.65536428643)
  );
#505 = CARTESIAN_POINT('',(21.198052860892,1.426636586643E-14,
    96.708478631321));
#506 = CARTESIAN_POINT('',(28.15121380272,-7.885466390469,95.65536428643
    ));
#507 = CARTESIAN_POINT('',(36.581443851719,-6.89540376362,
    94.378535478697));
#508 = CARTESIAN_POINT('',(36.581443851719,-4.718447854657E-16,
    94.378535478697));
#509 = PCURVE('',#86,#510);
#510 = DEFINITIONAL_REPRESENTATION('',(#511),#515);
#511 = LINE('',#512,#513);
#512 = CARTESIAN_POINT('',(0.,112.12868630866));
#513 = VECTOR('',#514,1.);
#514 = DIRECTION('',(1.,0.));
#515 = ( GEOMETRIC_REPRESENTATION_CONTEXT(2) 
PARAMETRIC_REPRESENTATION_CONTEXT() REPRESENTATION_CONTEXT('2D SPACE',''
  ) );
#516 = PCURVE('',#517,#522);
#517 = PLANE('',#518);
#518 = AXIS2_PLACEMENT_3D('',#519,#520,#521);
#519 = CARTESIAN_POINT('',(32.478890042827,-2.250778785341E-15,
    94.99990154558));
#520 = DIRECTION('',(0.149750487061,-3.228320710491E-14,0.988723819691)
  );
#521 = DIRECTION('',(0.988723819691,0.,-0.149750487061));
#522 = DEFINITIONAL_REPRESENTATION('',(#523),#531);
#523 = ( BOUNDED_CURVE() B_SPLINE_CURVE(6,(#524,#525,#526,#527,#528,#529
,#530),.UNSPECIFIED.,.T.,.F.) B_SPLINE_CURVE_WITH_KNOTS((1,6,6,1),(
    -6.28318530718,0.,6.28318530718,12.566370614359),.UNSPECIFIED.) 
CURVE() GEOMETRIC_REPRESENTATION_ITEM() RATIONAL_B_SPLINE_CURVE((
    1.669078461068,1.03672962321,1.038346699848,0.853534330196,
1.038346699848,1.03672962321,1.669078461068)) REPRESENTATION_ITEM('') );
#524 = CARTESIAN_POINT('',(4.149342543575,1.778933999879E-15));
#525 = CARTESIAN_POINT('',(4.149342543575,6.89540376362));
#526 = CARTESIAN_POINT('',(-4.377032447199,7.885466390469));
#527 = CARTESIAN_POINT('',(-11.40949267861,1.651714465178E-14));
#528 = CARTESIAN_POINT('',(-4.377032447199,-7.885466390469));
#529 = CARTESIAN_POINT('',(4.149342543575,-6.89540376362));
#530 = CARTESIAN_POINT('',(4.149342543575,1.778933999879E-15));
#531 = ( GEOMETRIC_REPRESENTATION_CONTEXT(2) 
PARAMETRIC_REPRESENTATION_CONTEXT() REPRESENTATION_CONTEXT('2D SPACE',''
  ) );
#532 = ORIENTED_EDGE('',*,*,#21,.F.);
#533 = ORIENTED_EDGE('',*,*,#534,.T.);
#534 = EDGE_CURVE('',#22,#22,#535,.T.);
#535 = SURFACE_CURVE('',#536,(#544,#551),.PCURVE_S1.);
#536 = ( BOUNDED_CURVE() B_SPLINE_CURVE(6,(#537,#538,#539,#540,#541,#542
,#543),.UNSPECIFIED.,.T.,.F.) B_SPLINE_CURVE_WITH_KNOTS((1,6,6,1),(
    -6.28318530718,0.,6.28318530718,12.566370614359),.UNSPECIFIED.) 
CURVE() GEOMETRIC_REPRESENTATION_ITEM() RATIONAL_B_SPLINE_CURVE((
    1.669078461068,1.03672962321,1.038346699848,0.853534330196,
1.038346699848,1.03672962321,1.669078461068)) REPRESENTATION_ITEM('') );
#537 = CARTESIAN_POINT('',(4.15,-4.996003610813E-16,0.));
#538 = CARTESIAN_POINT('',(4.15,6.89540376362,0.));
#539 = CARTESIAN_POINT('',(-4.376374990775,7.885466390469,
    7.105427357601E-15));
#540 = CARTESIAN_POINT('',(-11.40883522218,1.43773881689E-14,
    -7.105427357601E-15));
#541 = CARTESIAN_POINT('',(-4.376374990775,-7.885466390469,
    -7.105427357601E-15));
#542 = CARTESIAN_POINT('',(4.15,-6.89540376362,0.));
#543 = CARTESIAN_POINT('',(4.15,-4.996003610813E-16,0.));
#544 = PCURVE('',#86,#545);
#545 = DEFINITIONAL_REPRESENTATION('',(#546),#550);
#546 = LINE('',#547,#548);
#547 = CARTESIAN_POINT('',(0.,0.));
#548 = VECTOR('',#549,1.);
#549 = DIRECTION('',(1.,0.));
#550 = ( GEOMETRIC_REPRESENTATION_CONTEXT(2) 
PARAMETRIC_REPRESENTATION_CONTEXT() REPRESENTATION_CONTEXT('2D SPACE',''
  ) );
#551 = PCURVE('',#552,#557);
#552 = PLANE('',#553);
#553 = AXIS2_PLACEMENT_3D('',#554,#555,#556);
#554 = CARTESIAN_POINT('',(6.57456424697E-04,-5.748730745734E-15,
    -8.248374355823E-16));
#555 = DIRECTION('',(-2.325477031153E-16,-4.006666812158E-16,1.));
#556 = DIRECTION('',(0.,1.,4.006666812158E-16));
#557 = DEFINITIONAL_REPRESENTATION('',(#558),#566);
#558 = ( BOUNDED_CURVE() B_SPLINE_CURVE(6,(#559,#560,#561,#562,#563,#564
,#565),.UNSPECIFIED.,.T.,.F.) B_SPLINE_CURVE_WITH_KNOTS((1,6,6,1),(
    -6.28318530718,0.,6.28318530718,12.566370614359),.UNSPECIFIED.) 
CURVE() GEOMETRIC_REPRESENTATION_ITEM() RATIONAL_B_SPLINE_CURVE((
    1.669078461068,1.03672962321,1.038346699848,0.853534330196,
1.038346699848,1.03672962321,1.669078461068)) REPRESENTATION_ITEM('') );
#559 = CARTESIAN_POINT('',(5.249130384653E-15,-4.149342543575));
#560 = CARTESIAN_POINT('',(6.89540376362,-4.149342543575));
#561 = CARTESIAN_POINT('',(7.885466390469,4.377032447199));
#562 = CARTESIAN_POINT('',(2.012611891463E-14,11.40949267861));
#563 = CARTESIAN_POINT('',(-7.885466390469,4.377032447199));
#564 = CARTESIAN_POINT('',(-6.89540376362,-4.149342543575));
#565 = CARTESIAN_POINT('',(5.249130384653E-15,-4.149342543575));
#566 = ( GEOMETRIC_REPRESENTATION_CONTEXT(2) 
PARAMETRIC_REPRESENTATION_CONTEXT() REPRESENTATION_CONTEXT('2D SPACE',''
  ) );
#567 = ADVANCED_FACE('',(#568),#552,.F.);
#568 = FACE_BOUND('',#569,.F.);
#569 = EDGE_LOOP('',(#570));
#570 = ORIENTED_EDGE('',*,*,#534,.T.);
#571 = ADVANCED_FACE('',(#572),#517,.T.);
#572 = FACE_BOUND('',#573,.T.);
#573 = EDGE_LOOP('',(#574));
#574 = ORIENTED_EDGE('',*,*,#499,.T.);
#575 = ( GEOMETRIC_REPRESENTATION_CONTEXT(3) 
GLOBAL_UNCERTAINTY_ASSIGNED_CONTEXT((#579)) GLOBAL_UNIT_ASSIGNED_CONTEXT
((#576,#577,#578)) REPRESENTATION_CONTEXT('Context #1',
  '3D Context with UNIT and UNCERTAINTY') );
#576 = ( LENGTH_UNIT() NAMED_UNIT(*) SI_UNIT(.MILLI.,.METRE.) );
#577 = ( NAMED_UNIT(*) PLANE_ANGLE_UNIT() SI_UNIT($,.RADIAN.) );
#578 = ( NAMED_UNIT(*) SI_UNIT($,.STERADIAN.) SOLID_ANGLE_UNIT() );
#579 = UNCERTAINTY_MEASURE_WITH_UNIT(LENGTH_MEASURE(2.E-05),#576,
  'distance_accuracy_value','confusion accuracy');
#580 = PRODUCT_RELATED_PRODUCT_CATEGORY('part',$,(#7));
ENDSEC;
END-ISO-10303-21;
