ISO-10303-21;
HEADER;
FILE_DESCRIPTION(('Open CASCADE Model'),'2;1');
FILE_NAME('Open CASCADE Shape Model','2026-06-10T00:30:28',('Author'),(
    'Open CASCADE'),'Open CASCADE STEP processor 7.8','Open CASCADE 7.8'
  ,'Unknown');
FILE_SCHEMA(('AUTOMOTIVE_DESIGN { 1 0 10303 214 1 1 1 1 }'));
ENDSEC;
DATA;
#1 = APPLICATION_PROTOCOL_DEFINITION('international standard',
  'automotive_design',2000,#2);
#2 = APPLICATION_CONTEXT(
  'core data for automotive mechanical design processes');
#3 = SHAPE_DEFINITION_REPRESENTATION(#4,#10);
#4 = PRODUCT_DEFINITION_SHAPE('','',#5);
#5 = PRODUCT_DEFINITION('design','',#6,#9);
#6 = PRODUCT_DEFINITION_FORMATION('','',#7);
#7 = PRODUCT('Open CASCADE STEP translator 7.8 43',
  'Open CASCADE STEP translator 7.8 43','',(#8));
#8 = PRODUCT_CONTEXT('',#2,'mechanical');
#9 = PRODUCT_DEFINITION_CONTEXT('part definition',#2,'design');
#10 = ADVANCED_BREP_SHAPE_REPRESENTATION('',(#11,#15),#527);
#11 = AXIS2_PLACEMENT_3D('',#12,#13,#14);
#12 = CARTESIAN_POINT('',(0.,0.,0.));
#13 = DIRECTION('',(0.,0.,1.));
#14 = DIRECTION('',(1.,0.,-0.));
#15 = MANIFOLD_SOLID_BREP('',#16);
#16 = CLOSED_SHELL('',(#17,#519,#523));
#17 = ADVANCED_FACE('',(#18),#80,.F.);
#18 = FACE_BOUND('',#19,.F.);
#19 = EDGE_LOOP('',(#20,#450,#484,#485));
#20 = ORIENTED_EDGE('',*,*,#21,.T.);
#21 = EDGE_CURVE('',#22,#24,#26,.T.);
#22 = VERTEX_POINT('',#23);
#23 = CARTESIAN_POINT('',(3.4,-4.163336342344E-16,0.));
#24 = VERTEX_POINT('',#25);
#25 = CARTESIAN_POINT('',(55.481688566542,-3.885780586188E-16,
    43.270960341331));
#26 = SEAM_CURVE('',#27,(#79,#443),.PCURVE_S1.);
#27 = ( BOUNDED_CURVE() B_SPLINE_CURVE(10,(#28,#29,#30,#31,#32,#33,#34,
    #35,#36,#37,#38,#39,#40,#41,#42,#43,#44,#45,#46,#47,#48,#49,#50,#51,
    #52,#53,#54,#55,#56,#57,#58,#59,#60,#61,#62,#63,#64,#65,#66,#67,#68,
    #69,#70,#71,#72,#73,#74,#75,#76,#77,#78),.UNSPECIFIED.,.F.,.F.) 
B_SPLINE_CURVE_WITH_KNOTS((11,8,8,8,8,8,11),(0.,18.177746774548,
    36.355493549096,36.439451896169,48.621379944332,61.367312718562,
74.113245492792),.UNSPECIFIED.) CURVE() GEOMETRIC_REPRESENTATION_ITEM() 
RATIONAL_B_SPLINE_CURVE((1.669078461068,1.669078461068,1.669078461068,
    1.669078461069,1.669078461068,1.669078461069,1.669078461068,
    1.669078461068,1.669078461068,1.669078461068,1.669078461068,
    1.669078461069,1.669078461068,1.669078461069,1.669078461068,
    1.669078461069,1.669078461068,1.669078461068,1.669078461068,
    1.669078461068,1.669078461068,1.669078461068,1.669078461068,
    1.669078461068,1.669078461068,1.669078461068,1.669078461068,
    1.669078461068,1.669078461069,1.669078461067,1.669078461069,
    1.669078461068,1.669078461068,1.669078461068,1.669078461068,
    1.669078461068,1.669078461068,1.669078461068,1.669078461068,
    1.669078461068,1.669078461068,1.669078461068,1.669078461068,
    1.669078461068,1.669078461068,1.669078461068,1.669078461068,
    1.669078461068,1.669078461068,1.669078461068,1.669078461068)) 
REPRESENTATION_ITEM('') );
#28 = CARTESIAN_POINT('',(3.4,-4.163336342344E-16,0.));
#29 = CARTESIAN_POINT('',(6.771955995399,-1.915134717478E-15,
    5.354001728552E-02));
#30 = CARTESIAN_POINT('',(9.779242966695,5.301314942585E-15,
    0.39464765268));
#31 = CARTESIAN_POINT('',(12.435970308894,-1.34892097492E-14,
    1.009910905593));
#32 = CARTESIAN_POINT('',(14.750453453675,1.948441408217E-14,
    1.886989017833));
#33 = CARTESIAN_POINT('',(16.735791561008,-2.18436380095E-14,
    2.996436270002));
#34 = CARTESIAN_POINT('',(18.384615854651,1.576516694968E-14,
    4.332650545661));
#35 = CARTESIAN_POINT('',(19.707138246627,-8.38218383592E-15,
    5.801394025768));
#36 = CARTESIAN_POINT('',(20.774981250147,1.276756478319E-15,
    7.363721544917));
#37 = CARTESIAN_POINT('',(22.4993505337,-1.249000902703E-15,
    10.630864476662));
#38 = CARTESIAN_POINT('',(23.574670707064,-4.440892098501E-16,
    14.139063961842));
#39 = CARTESIAN_POINT('',(23.992996500007,9.159339953158E-16,
    15.9423155057));
#40 = CARTESIAN_POINT('',(24.324730351271,-2.886579864025E-15,
    17.795430266947));
#41 = CARTESIAN_POINT('',(24.587065727105,2.914335439641E-15,
    19.695739150324));
#42 = CARTESIAN_POINT('',(24.796987159515,-4.302114220422E-15,
    21.633583996801));
#43 = CARTESIAN_POINT('',(24.973919465261,2.942091015257E-15,
    23.595977437855));
#44 = CARTESIAN_POINT('',(25.136256410947,-2.720046410332E-15,
    25.569438953499));
#45 = CARTESIAN_POINT('',(25.306032704486,9.71445146547E-16,
    27.547125802741));
#46 = CARTESIAN_POINT('',(25.505454056117,-9.71445146547E-16,
    29.50262109445));
#47 = CARTESIAN_POINT('',(25.506371526358,6.633582572135E-15,
    29.511611030191));
#48 = CARTESIAN_POINT('',(25.507289627697,-1.781907954523E-14,
    29.52060049348));
#49 = CARTESIAN_POINT('',(25.508208362381,2.312039448782E-14,
    29.529589482625));
#50 = CARTESIAN_POINT('',(25.509127732655,-1.937339177971E-14,
    29.538577995927));
#51 = CARTESIAN_POINT('',(25.510047740766,8.021361352917E-15,
    29.547566031694));
#52 = CARTESIAN_POINT('',(25.510968388962,-1.249000902703E-15,
    29.556553588227));
#53 = CARTESIAN_POINT('',(25.645564237796,-9.436895709314E-16,
    30.869519507802));
#54 = CARTESIAN_POINT('',(25.793917909494,5.689893001204E-15,
    32.172184343794));
#55 = CARTESIAN_POINT('',(25.961670676016,-1.56263890716E-14,
    33.45061268596));
#56 = CARTESIAN_POINT('',(26.15717365719,2.256528297551E-14,
    34.708138183736));
#57 = CARTESIAN_POINT('',(26.388049394912,-2.434163981491E-14,
    35.938920211579));
#58 = CARTESIAN_POINT('',(26.66234531718,1.723621245731E-14,
    37.136706654341));
#59 = CARTESIAN_POINT('',(26.988695505578,-9.103828801926E-15,
    38.294483006629));
#60 = CARTESIAN_POINT('',(27.376187642035,1.831867990632E-15,
    39.404046839847));
#61 = CARTESIAN_POINT('',(28.312223719589,-2.359223927328E-15,
    41.555900115316));
#62 = CARTESIAN_POINT('',(29.569681016318,1.304512053935E-15,
    43.416643359319));
#63 = CARTESIAN_POINT('',(30.304813603311,-5.273559366969E-15,
    44.278845790945));
#64 = CARTESIAN_POINT('',(31.135340356858,8.354428260304E-15,
    45.036349352784));
#65 = CARTESIAN_POINT('',(32.066651444032,-1.196265309034E-14,
    45.674907125666));
#66 = CARTESIAN_POINT('',(33.086320239326,1.08246744901E-14,
    46.174660402222));
#67 = CARTESIAN_POINT('',(34.170655083881,-7.771561172376E-15,
    46.534152663575));
#68 = CARTESIAN_POINT('',(35.307453418452,2.137179322403E-15,
    46.778612262236));
#69 = CARTESIAN_POINT('',(37.700567883639,-2.942091015257E-15,
    47.065808414792));
#70 = CARTESIAN_POINT('',(40.380223576515,2.081668171172E-15,
    46.987717065249));
#71 = CARTESIAN_POINT('',(41.803782990046,-7.827072323607E-15,
    46.866763195592));
#72 = CARTESIAN_POINT('',(43.331088099931,1.273980920757E-14,
    46.665839462104));
#73 = CARTESIAN_POINT('',(44.98039199522,-1.637578961322E-14,
    46.377701003001));
#74 = CARTESIAN_POINT('',(46.765995797657,1.401656568589E-14,
    45.991363769562));
#75 = CARTESIAN_POINT('',(48.699298674408,-9.964251646011E-15,
    45.496648950665));
#76 = CARTESIAN_POINT('',(50.790306668236,4.024558464266E-15,
    44.884621669472));
#77 = CARTESIAN_POINT('',(53.048283143535,-1.498801083244E-15,
    44.145563088223));
#78 = CARTESIAN_POINT('',(55.481688566542,-3.885780586188E-16,
    43.270960341331));
#79 = PCURVE('',#80,#438);
#80 = ( BOUNDED_SURFACE() B_SPLINE_SURFACE(6,10,(
    (#81,#82,#83,#84,#85,#86,#87,#88,#89,#90,#91,#92,#93,#94,#95,#96,#97
      ,#98,#99,#100,#101,#102,#103,#104,#105,#106,#107,#108,#109,#110
      ,#111,#112,#113,#114,#115,#116,#117,#118,#119,#120,#121,#122,#123
      ,#124,#125,#126,#127,#128,#129,#130,#131)
    ,(#132,#133,#134,#135,#136,#137,#138,#139,#140,#141,#142,#143,#144
      ,#145,#146,#147,#148,#149,#150,#151,#152,#153,#154,#155,#156,#157
      ,#158,#159,#160,#161,#162,#163,#164,#165,#166,#167,#168,#169,#170
      ,#171,#172,#173,#174,#175,#176,#177,#178,#179,#180,#181,#182)
    ,(#183,#184,#185,#186,#187,#188,#189,#190,#191,#192,#193,#194,#195
      ,#196,#197,#198,#199,#200,#201,#202,#203,#204,#205,#206,#207,#208
      ,#209,#210,#211,#212,#213,#214,#215,#216,#217,#218,#219,#220,#221
      ,#222,#223,#224,#225,#226,#227,#228,#229,#230,#231,#232,#233)
    ,(#234,#235,#236,#237,#238,#239,#240,#241,#242,#243,#244,#245,#246
      ,#247,#248,#249,#250,#251,#252,#253,#254,#255,#256,#257,#258,#259
      ,#260,#261,#262,#263,#264,#265,#266,#267,#268,#269,#270,#271,#272
      ,#273,#274,#275,#276,#277,#278,#279,#280,#281,#282,#283,#284)
    ,(#285,#286,#287,#288,#289,#290,#291,#292,#293,#294,#295,#296,#297
      ,#298,#299,#300,#301,#302,#303,#304,#305,#306,#307,#308,#309,#310
      ,#311,#312,#313,#314,#315,#316,#317,#318,#319,#320,#321,#322,#323
      ,#324,#325,#326,#327,#328,#329,#330,#331,#332,#333,#334,#335)
    ,(#336,#337,#338,#339,#340,#341,#342,#343,#344,#345,#346,#347,#348
      ,#349,#350,#351,#352,#353,#354,#355,#356,#357,#358,#359,#360,#361
      ,#362,#363,#364,#365,#366,#367,#368,#369,#370,#371,#372,#373,#374
      ,#375,#376,#377,#378,#379,#380,#381,#382,#383,#384,#385,#386)
    ,(#387,#388,#389,#390,#391,#392,#393,#394,#395,#396,#397,#398,#399
      ,#400,#401,#402,#403,#404,#405,#406,#407,#408,#409,#410,#411,#412
      ,#413,#414,#415,#416,#417,#418,#419,#420,#421,#422,#423,#424,#425
      ,#426,#427,#428,#429,#430,#431,#432,#433,#434,#435,#436,#437
)),.UNSPECIFIED.,.T.,.F.,.F.) B_SPLINE_SURFACE_WITH_KNOTS((1,6,6,1),(11,
    8,8,8,8,8,11),(-6.28318530718,0.,6.28318530718,12.566370614359),(0.,
    18.177746774548,36.355493549096,36.439451896169,48.621379944332,
    61.367312718562,74.113245492792),.UNSPECIFIED.) 
GEOMETRIC_REPRESENTATION_ITEM() RATIONAL_B_SPLINE_SURFACE((
    (1.669078461068,1.669078461068,1.669078461068,1.669078461069
      ,1.669078461068,1.669078461069,1.669078461068,1.669078461068
      ,1.669078461068,1.669078461068,1.669078461068,1.669078461069
      ,1.669078461068,1.669078461069,1.669078461068,1.669078461069
      ,1.669078461068,1.669078461068,1.669078461068,1.669078461068
      ,1.669078461068,1.669078461068,1.669078461068,1.669078461068
      ,1.669078461068,1.669078461068,1.669078461068,1.669078461068
      ,1.669078461069,1.669078461067,1.669078461069,1.669078461068
      ,1.669078461068,1.669078461068,1.669078461068,1.669078461068
      ,1.669078461068,1.669078461068,1.669078461068,1.669078461068
      ,1.669078461068,1.669078461068,1.669078461068,1.669078461068
      ,1.669078461068,1.669078461068,1.669078461068,1.669078461068
      ,1.669078461068,1.669078461068,1.669078461068)
    ,(1.03672962321,1.03672962321,1.03672962321,1.03672962321
      ,1.036729623209,1.03672962321,1.036729623209,1.03672962321
      ,1.03672962321,1.03672962321,1.03672962321,1.03672962321
      ,1.036729623209,1.03672962321,1.036729623209,1.03672962321
      ,1.036729623209,1.03672962321,1.03672962321,1.03672962321
      ,1.036729623209,1.03672962321,1.036729623209,1.03672962321
      ,1.03672962321,1.03672962321,1.03672962321,1.036729623209
      ,1.03672962321,1.036729623209,1.03672962321,1.036729623209
      ,1.03672962321,1.03672962321,1.03672962321,1.03672962321
      ,1.03672962321,1.03672962321,1.03672962321,1.03672962321
      ,1.03672962321,1.03672962321,1.03672962321,1.03672962321
      ,1.03672962321,1.03672962321,1.03672962321,1.03672962321
      ,1.03672962321,1.03672962321,1.03672962321)
    ,(1.038346699848,1.038346699848,1.038346699847,1.038346699848
      ,1.038346699847,1.038346699848,1.038346699847,1.038346699848
      ,1.038346699847,1.038346699848,1.038346699847,1.038346699848
      ,1.038346699847,1.038346699848,1.038346699847,1.038346699848
      ,1.038346699847,1.038346699848,1.038346699847,1.038346699848
      ,1.038346699847,1.038346699848,1.038346699847,1.038346699848
      ,1.038346699847,1.038346699848,1.038346699848,1.038346699847
      ,1.038346699848,1.038346699847,1.038346699848,1.038346699847
      ,1.038346699848,1.038346699847,1.038346699848,1.038346699847
      ,1.038346699848,1.038346699847,1.038346699848,1.038346699847
      ,1.038346699848,1.038346699847,1.038346699848,1.038346699847
      ,1.038346699848,1.038346699847,1.038346699848,1.038346699847
      ,1.038346699848,1.038346699847,1.038346699848)
    ,(0.853534330196,0.853534330196,0.853534330196,0.853534330196
      ,0.853534330196,0.853534330196,0.853534330196,0.853534330196
      ,0.853534330196,0.853534330196,0.853534330196,0.853534330196
      ,0.853534330196,0.853534330197,0.853534330196,0.853534330196
      ,0.853534330196,0.853534330196,0.853534330196,0.853534330196
      ,0.853534330196,0.853534330196,0.853534330196,0.853534330196
      ,0.853534330196,0.853534330196,0.853534330196,0.853534330196
      ,0.853534330196,0.853534330196,0.853534330196,0.853534330196
      ,0.853534330196,0.853534330196,0.853534330196,0.853534330196
      ,0.853534330196,0.853534330196,0.853534330196,0.853534330196
      ,0.853534330196,0.853534330196,0.853534330196,0.853534330196
      ,0.853534330196,0.853534330196,0.853534330196,0.853534330196
      ,0.853534330196,0.853534330196,0.853534330196)
    ,(1.038346699848,1.038346699848,1.038346699847,1.038346699848
      ,1.038346699847,1.038346699848,1.038346699847,1.038346699848
      ,1.038346699847,1.038346699848,1.038346699847,1.038346699848
      ,1.038346699847,1.038346699848,1.038346699847,1.038346699848
      ,1.038346699847,1.038346699848,1.038346699847,1.038346699848
      ,1.038346699847,1.038346699848,1.038346699847,1.038346699848
      ,1.038346699848,1.038346699847,1.038346699848,1.038346699847
      ,1.038346699848,1.038346699847,1.038346699848,1.038346699847
      ,1.038346699848,1.038346699847,1.038346699848,1.038346699847
      ,1.038346699848,1.038346699847,1.038346699848,1.038346699847
      ,1.038346699848,1.038346699847,1.038346699848,1.038346699847
      ,1.038346699848,1.038346699847,1.038346699848,1.038346699847
      ,1.038346699848,1.038346699848,1.038346699848)
    ,(1.03672962321,1.03672962321,1.03672962321,1.03672962321
      ,1.036729623209,1.03672962321,1.036729623209,1.03672962321
      ,1.03672962321,1.03672962321,1.03672962321,1.03672962321
      ,1.036729623209,1.03672962321,1.036729623209,1.03672962321
      ,1.036729623209,1.03672962321,1.03672962321,1.03672962321
      ,1.036729623209,1.03672962321,1.036729623209,1.03672962321
      ,1.03672962321,1.03672962321,1.03672962321,1.036729623209
      ,1.03672962321,1.036729623209,1.03672962321,1.036729623209
      ,1.03672962321,1.03672962321,1.03672962321,1.03672962321
      ,1.03672962321,1.03672962321,1.03672962321,1.03672962321
      ,1.03672962321,1.03672962321,1.03672962321,1.03672962321
      ,1.03672962321,1.03672962321,1.03672962321,1.03672962321
      ,1.03672962321,1.03672962321,1.03672962321)
    ,(1.669078461068,1.669078461068,1.669078461068,1.669078461069
      ,1.669078461068,1.669078461069,1.669078461068,1.669078461068
      ,1.669078461068,1.669078461068,1.669078461068,1.669078461069
      ,1.669078461068,1.669078461069,1.669078461068,1.669078461069
      ,1.669078461068,1.669078461068,1.669078461068,1.669078461068
      ,1.669078461068,1.669078461068,1.669078461068,1.669078461068
      ,1.669078461068,1.669078461068,1.669078461068,1.669078461068
      ,1.669078461069,1.669078461067,1.669078461069,1.669078461068
      ,1.669078461068,1.669078461068,1.669078461068,1.669078461068
      ,1.669078461068,1.669078461068,1.669078461068,1.669078461068
      ,1.669078461068,1.669078461068,1.669078461068,1.669078461068
      ,1.669078461068,1.669078461068,1.669078461068,1.669078461068
      ,1.669078461068,1.669078461068,1.669078461068
))) REPRESENTATION_ITEM('') SURFACE() );
#81 = CARTESIAN_POINT('',(3.4,-4.163336342344E-16,0.));
#82 = CARTESIAN_POINT('',(6.771955995399,-1.915134717478E-15,
    5.354001728552E-02));
#83 = CARTESIAN_POINT('',(9.779242966695,5.301314942585E-15,
    0.39464765268));
#84 = CARTESIAN_POINT('',(12.435970308894,-1.34892097492E-14,
    1.009910905593));
#85 = CARTESIAN_POINT('',(14.750453453675,1.948441408217E-14,
    1.886989017833));
#86 = CARTESIAN_POINT('',(16.735791561008,-2.18436380095E-14,
    2.996436270002));
#87 = CARTESIAN_POINT('',(18.384615854651,1.576516694968E-14,
    4.332650545661));
#88 = CARTESIAN_POINT('',(19.707138246627,-8.38218383592E-15,
    5.801394025768));
#89 = CARTESIAN_POINT('',(20.774981250147,1.276756478319E-15,
    7.363721544917));
#90 = CARTESIAN_POINT('',(22.4993505337,-1.249000902703E-15,
    10.630864476662));
#91 = CARTESIAN_POINT('',(23.574670707064,-4.440892098501E-16,
    14.139063961842));
#92 = CARTESIAN_POINT('',(23.992996500007,9.159339953158E-16,
    15.9423155057));
#93 = CARTESIAN_POINT('',(24.324730351271,-2.886579864025E-15,
    17.795430266947));
#94 = CARTESIAN_POINT('',(24.587065727105,2.914335439641E-15,
    19.695739150324));
#95 = CARTESIAN_POINT('',(24.796987159515,-4.302114220422E-15,
    21.633583996801));
#96 = CARTESIAN_POINT('',(24.973919465261,2.942091015257E-15,
    23.595977437855));
#97 = CARTESIAN_POINT('',(25.136256410947,-2.720046410332E-15,
    25.569438953499));
#98 = CARTESIAN_POINT('',(25.306032704486,9.71445146547E-16,
    27.547125802741));
#99 = CARTESIAN_POINT('',(25.505454056117,-9.71445146547E-16,
    29.50262109445));
#100 = CARTESIAN_POINT('',(25.506371526358,6.633582572135E-15,
    29.511611030191));
#101 = CARTESIAN_POINT('',(25.507289627697,-1.781907954523E-14,
    29.52060049348));
#102 = CARTESIAN_POINT('',(25.508208362381,2.312039448782E-14,
    29.529589482625));
#103 = CARTESIAN_POINT('',(25.509127732655,-1.937339177971E-14,
    29.538577995927));
#104 = CARTESIAN_POINT('',(25.510047740766,8.021361352917E-15,
    29.547566031694));
#105 = CARTESIAN_POINT('',(25.510968388962,-1.249000902703E-15,
    29.556553588227));
#106 = CARTESIAN_POINT('',(25.645564237796,-9.436895709314E-16,
    30.869519507802));
#107 = CARTESIAN_POINT('',(25.793917909494,5.689893001204E-15,
    32.172184343794));
#108 = CARTESIAN_POINT('',(25.961670676016,-1.56263890716E-14,
    33.45061268596));
#109 = CARTESIAN_POINT('',(26.15717365719,2.256528297551E-14,
    34.708138183736));
#110 = CARTESIAN_POINT('',(26.388049394912,-2.434163981491E-14,
    35.938920211579));
#111 = CARTESIAN_POINT('',(26.66234531718,1.723621245731E-14,
    37.136706654341));
#112 = CARTESIAN_POINT('',(26.988695505578,-9.103828801926E-15,
    38.294483006629));
#113 = CARTESIAN_POINT('',(27.376187642035,1.831867990632E-15,
    39.404046839847));
#114 = CARTESIAN_POINT('',(28.312223719589,-2.359223927328E-15,
    41.555900115316));
#115 = CARTESIAN_POINT('',(29.569681016318,1.304512053935E-15,
    43.416643359319));
#116 = CARTESIAN_POINT('',(30.304813603311,-5.273559366969E-15,
    44.278845790945));
#117 = CARTESIAN_POINT('',(31.135340356858,8.354428260304E-15,
    45.036349352784));
#118 = CARTESIAN_POINT('',(32.066651444032,-1.196265309034E-14,
    45.674907125666));
#119 = CARTESIAN_POINT('',(33.086320239326,1.08246744901E-14,
    46.174660402222));
#120 = CARTESIAN_POINT('',(34.170655083881,-7.771561172376E-15,
    46.534152663575));
#121 = CARTESIAN_POINT('',(35.307453418452,2.137179322403E-15,
    46.778612262236));
#122 = CARTESIAN_POINT('',(37.700567883639,-2.942091015257E-15,
    47.065808414792));
#123 = CARTESIAN_POINT('',(40.380223576515,2.081668171172E-15,
    46.987717065249));
#124 = CARTESIAN_POINT('',(41.803782990046,-7.827072323607E-15,
    46.866763195592));
#125 = CARTESIAN_POINT('',(43.331088099931,1.273980920757E-14,
    46.665839462104));
#126 = CARTESIAN_POINT('',(44.98039199522,-1.637578961322E-14,
    46.377701003001));
#127 = CARTESIAN_POINT('',(46.765995797657,1.401656568589E-14,
    45.991363769562));
#128 = CARTESIAN_POINT('',(48.699298674408,-9.964251646011E-15,
    45.496648950665));
#129 = CARTESIAN_POINT('',(50.790306668236,4.024558464266E-15,
    44.884621669472));
#130 = CARTESIAN_POINT('',(53.048283143535,-1.498801083244E-15,
    44.145563088223));
#131 = CARTESIAN_POINT('',(55.481688566542,-3.885780586188E-16,
    43.270960341331));
#132 = CARTESIAN_POINT('',(3.4,5.649246456942,3.552713678801E-15));
#133 = CARTESIAN_POINT('',(6.771955995399,5.649246456942,
    5.354001728552E-02));
#134 = CARTESIAN_POINT('',(9.779242966695,5.649246456942,0.39464765268)
  );
#135 = CARTESIAN_POINT('',(12.435970308894,5.649246456941,1.009910905593
    ));
#136 = CARTESIAN_POINT('',(14.750453453675,5.649246456942,1.886989017832
    ));
#137 = CARTESIAN_POINT('',(16.735791561008,5.649246456941,2.996436270003
    ));
#138 = CARTESIAN_POINT('',(18.384615854651,5.649246456942,4.33265054566)
  );
#139 = CARTESIAN_POINT('',(19.707138246628,5.649246456941,5.801394025768
    ));
#140 = CARTESIAN_POINT('',(20.774981250147,5.649246456942,7.363721544917
    ));
#141 = CARTESIAN_POINT('',(22.4993505337,5.649246456942,10.630864476663)
  );
#142 = CARTESIAN_POINT('',(23.574670707064,5.649246456942,
    14.139063961842));
#143 = CARTESIAN_POINT('',(23.992996500007,5.649246456941,15.9423155057)
  );
#144 = CARTESIAN_POINT('',(24.324730351271,5.649246456944,
    17.795430266947));
#145 = CARTESIAN_POINT('',(24.587065727105,5.64924645694,19.695739150324
    ));
#146 = CARTESIAN_POINT('',(24.796987159515,5.649246456941,
    21.633583996801));
#147 = CARTESIAN_POINT('',(24.973919465261,5.649246456943,
    23.595977437855));
#148 = CARTESIAN_POINT('',(25.136256410947,5.649246456941,25.5694389535)
  );
#149 = CARTESIAN_POINT('',(25.306032704486,5.649246456941,
    27.547125802741));
#150 = CARTESIAN_POINT('',(25.505454056117,5.649246456942,29.50262109445
    ));
#151 = CARTESIAN_POINT('',(25.506371526358,5.649246456941,
    29.511611030191));
#152 = CARTESIAN_POINT('',(25.507289627697,5.649246456942,
    29.520600493481));
#153 = CARTESIAN_POINT('',(25.508208362381,5.649246456941,
    29.529589482624));
#154 = CARTESIAN_POINT('',(25.509127732654,5.649246456942,
    29.538577995927));
#155 = CARTESIAN_POINT('',(25.510047740766,5.649246456941,
    29.547566031693));
#156 = CARTESIAN_POINT('',(25.510968388962,5.649246456942,
    29.556553588227));
#157 = CARTESIAN_POINT('',(25.645564237796,5.649246456942,
    30.869519507802));
#158 = CARTESIAN_POINT('',(25.793917909494,5.649246456941,
    32.172184343794));
#159 = CARTESIAN_POINT('',(25.961670676016,5.649246456942,
    33.450612685959));
#160 = CARTESIAN_POINT('',(26.15717365719,5.649246456941,34.708138183737
    ));
#161 = CARTESIAN_POINT('',(26.388049394912,5.649246456943,
    35.938920211578));
#162 = CARTESIAN_POINT('',(26.66234531718,5.649246456941,37.136706654342
    ));
#163 = CARTESIAN_POINT('',(26.988695505578,5.649246456942,
    38.294483006628));
#164 = CARTESIAN_POINT('',(27.376187642035,5.649246456941,
    39.404046839847));
#165 = CARTESIAN_POINT('',(28.312223719589,5.649246456942,
    41.555900115316));
#166 = CARTESIAN_POINT('',(29.569681016318,5.649246456942,
    43.416643359319));
#167 = CARTESIAN_POINT('',(30.304813603311,5.649246456942,
    44.278845790946));
#168 = CARTESIAN_POINT('',(31.135340356859,5.649246456942,
    45.036349352783));
#169 = CARTESIAN_POINT('',(32.066651444031,5.649246456942,
    45.674907125668));
#170 = CARTESIAN_POINT('',(33.086320239327,5.649246456942,46.17466040222
    ));
#171 = CARTESIAN_POINT('',(34.17065508388,5.649246456942,46.534152663576
    ));
#172 = CARTESIAN_POINT('',(35.307453418453,5.649246456942,
    46.778612262236));
#173 = CARTESIAN_POINT('',(37.700567883638,5.649246456942,
    47.065808414792));
#174 = CARTESIAN_POINT('',(40.380223576515,5.649246456942,
    46.987717065249));
#175 = CARTESIAN_POINT('',(41.803782990044,5.649246456941,
    46.866763195589));
#176 = CARTESIAN_POINT('',(43.331088099935,5.649246456942,
    46.665839462108));
#177 = CARTESIAN_POINT('',(44.980391995215,5.649246456941,
    46.377701002995));
#178 = CARTESIAN_POINT('',(46.765995797662,5.649246456942,
    45.991363769566));
#179 = CARTESIAN_POINT('',(48.699298674405,5.649246456941,
    45.496648950663));
#180 = CARTESIAN_POINT('',(50.790306668237,5.649246456942,
    44.884621669473));
#181 = CARTESIAN_POINT('',(53.048283143534,5.649246456942,
    44.145563088222));
#182 = CARTESIAN_POINT('',(55.481688566542,5.649246456942,
    43.270960341331));
#183 = CARTESIAN_POINT('',(-3.585463847864,6.460382103035,0.));
#184 = CARTESIAN_POINT('',(-0.213507852465,6.460382103035,-0.38865932469
    ));
#185 = CARTESIAN_POINT('',(2.824881842733,6.460382103035,-0.557737077002
    ));
#186 = CARTESIAN_POINT('',(5.559331522221,6.460382103035,-0.528364609747
    ));
#187 = CARTESIAN_POINT('',(8.025577484036,6.460382103034,-0.322802952473
    ));
#188 = CARTESIAN_POINT('',(10.254311354192,6.460382103036,
    5.472487117236E-02));
#189 = CARTESIAN_POINT('',(12.297809183819,6.460382103034,0.574851609166
    ));
#190 = CARTESIAN_POINT('',(14.189807341023,6.460382103035,1.301680629307
    ));
#191 = CARTESIAN_POINT('',(15.89928175557,6.460382103035,2.241006531528)
  );
#192 = CARTESIAN_POINT('',(18.938803672236,6.460382103035,4.521219600475
    ));
#193 = CARTESIAN_POINT('',(21.214440001644,6.460382103035,7.509770331534
    ));
#194 = CARTESIAN_POINT('',(22.160522463351,6.460382103034,9.157573653801
    ));
#195 = CARTESIAN_POINT('',(22.924846155406,6.460382103037,
    10.922879756446));
#196 = CARTESIAN_POINT('',(23.533785060552,6.460382103034,
    12.773228375294));
#197 = CARTESIAN_POINT('',(24.013933492761,6.460382103033,
    14.683529550697));
#198 = CARTESIAN_POINT('',(24.389312368131,6.460382103038,16.63220413487
    ));
#199 = CARTESIAN_POINT('',(24.68502989484,6.460382103034,18.598193032007
    ));
#200 = CARTESIAN_POINT('',(24.924277802772,6.460382103035,20.57210075439
    ));
#201 = CARTESIAN_POINT('',(25.126165408271,6.460382103035,
    22.527461935574));
#202 = CARTESIAN_POINT('',(25.127092800613,6.460382103035,
    22.536451331788));
#203 = CARTESIAN_POINT('',(25.128019407304,6.460382103035,
    22.545440332603));
#204 = CARTESIAN_POINT('',(25.128945230361,6.460382103035,
    22.554428936328));
#205 = CARTESIAN_POINT('',(25.129870271801,6.460382103035,
    22.563417141277));
#206 = CARTESIAN_POINT('',(25.130794533639,6.460382103035,22.57240494576
    ));
#207 = CARTESIAN_POINT('',(25.131718017889,6.460382103035,
    22.581392348094));
#208 = CARTESIAN_POINT('',(25.266521050524,6.460382103035,
    23.894347002806));
#209 = CARTESIAN_POINT('',(25.384813408939,6.460382103035,
    25.198646313052));
#210 = CARTESIAN_POINT('',(25.492187783072,6.460382103035,
    26.480304605749));
#211 = CARTESIAN_POINT('',(25.59511297511,6.460382103036,27.743520270792
    ));
#212 = CARTESIAN_POINT('',(25.698945559907,6.460382103034,
    28.983835710702));
#213 = CARTESIAN_POINT('',(25.808594049451,6.460382103036,
    30.197227263628));
#214 = CARTESIAN_POINT('',(25.928348301251,6.460382103035,
    31.380475244977));
#215 = CARTESIAN_POINT('',(26.062019829391,6.460382103035,
    32.531612692402));
#216 = CARTESIAN_POINT('',(26.372462036674,6.460382103035,
    34.820829211445));
#217 = CARTESIAN_POINT('',(26.784391954926,6.460382103035,
    36.980770851927));
#218 = CARTESIAN_POINT('',(27.028302448825,6.460382103036,
    38.053044509556));
#219 = CARTESIAN_POINT('',(27.31745038078,6.460382103033,39.097349338698
    ));
#220 = CARTESIAN_POINT('',(27.661494431985,6.460382103037,
    40.116548629326));
#221 = CARTESIAN_POINT('',(28.088881950004,6.460382103034,
    41.119423572531));
#222 = CARTESIAN_POINT('',(28.639939802949,6.460382103036,
    42.095349364794));
#223 = CARTESIAN_POINT('',(29.34287904971,6.460382103035,43.00556071979)
  );
#224 = CARTESIAN_POINT('',(31.067819356503,6.460382103035,
    44.640344708795));
#225 = CARTESIAN_POINT('',(33.442157796265,6.460382103035,
    45.814968095117));
#226 = CARTESIAN_POINT('',(34.794263332239,6.460382103035,46.26515168487
    ));
#227 = CARTESIAN_POINT('',(36.305542192632,6.460382103036,
    46.564002334876));
#228 = CARTESIAN_POINT('',(37.972088487545,6.460382103034,
    46.706999328141));
#229 = CARTESIAN_POINT('',(39.794163867036,6.460382103036,
    46.693565100568));
#230 = CARTESIAN_POINT('',(41.775090232133,6.460382103034,
    46.522272926109));
#231 = CARTESIAN_POINT('',(43.919658600661,6.460382103035,46.19038429016
    ));
#232 = CARTESIAN_POINT('',(46.233443180592,6.460382103035,
    45.695987402622));
#233 = CARTESIAN_POINT('',(48.722864874687,6.460382103035,
    45.035898717658));
#234 = CARTESIAN_POINT('',(-9.346997531429,1.176836406103E-14,0.));
#235 = CARTESIAN_POINT('',(-5.97504153603,1.285083151004E-14,
    -0.753380474084));
#236 = CARTESIAN_POINT('',(-2.910998656547,7.355227538142E-15,
    -1.343253517899));
#237 = CARTESIAN_POINT('',(-0.11244444885,2.203792703881E-14,
    -1.797117320982));
#238 = CARTESIAN_POINT('',(2.478973813795,-4.940492459582E-15,
    -2.14541504351));
#239 = CARTESIAN_POINT('',(4.908457829758,3.19744231092E-14,
    -2.371566307307));
#240 = CARTESIAN_POINT('',(7.27747804717,-5.773159728051E-15,
    -2.524539586641));
#241 = CARTESIAN_POINT('',(9.63917354657,2.14828155265E-14,
    -2.409633445852));
#242 = CARTESIAN_POINT('',(11.877858485655,9.325873406851E-15,
    -1.984152419079));
#243 = CARTESIAN_POINT('',(16.002103816505,1.343369859796E-14,
    -0.517948236538));
#244 = CARTESIAN_POINT('',(19.267747697965,1.08246744901E-14,
    2.042001922576));
#245 = CARTESIAN_POINT('',(20.649118050359,1.271205363196E-14,
    3.561593262896));
#246 = CARTESIAN_POINT('',(21.770237081016,1.337818744673E-14,
    5.254475750555));
#247 = CARTESIAN_POINT('',(22.665050761619,6.189493362285E-15,
    7.063617693192));
#248 = CARTESIAN_POINT('',(23.368079448521,1.959543638463E-14,
    8.951201151909));
#249 = CARTESIAN_POINT('',(23.907134869955,5.301314942585E-15,
    10.888560573942));
#250 = CARTESIAN_POINT('',(24.312863231596,1.443289932013E-14,
    12.848386137598));
#251 = CARTESIAN_POINT('',(24.609410562315,1.199040866595E-14,
    14.81917687775));
#252 = CARTESIAN_POINT('',(24.813332306856,1.096345236817E-14,
    16.77442744605));
#253 = CARTESIAN_POINT('',(24.814267882837,2.001177001887E-14,
    16.783416397268));
#254 = CARTESIAN_POINT('',(24.815201504648,-7.660538869914E-15,
    16.792405016638));
#255 = CARTESIAN_POINT('',(24.816133174117,3.79973830178E-14,
    16.801393302473));
#256 = CARTESIAN_POINT('',(24.817062893072,-1.046385200709E-14,
    16.810381253095));
#257 = CARTESIAN_POINT('',(24.817990663337,2.253752739989E-14,
    16.81936886682));
#258 = CARTESIAN_POINT('',(24.818916486733,1.060262988517E-14,
    16.828356141971));
#259 = CARTESIAN_POINT('',(24.953890402288,1.257327575388E-14,
    18.141301505547));
#260 = CARTESIAN_POINT('',(25.04738852043,1.235123114895E-14,
    19.446948912164));
#261 = CARTESIAN_POINT('',(25.104963461186,8.743006318923E-15,
    20.731271232506));
#262 = CARTESIAN_POINT('',(25.131531511869,1.451616604697E-14,
    21.999180084867));
#263 = CARTESIAN_POINT('',(25.130580302665,1.226796442211E-14,
    23.24735857811));
#264 = CARTESIAN_POINT('',(25.104429402187,7.160938508832E-15,
    24.473621054108));
#265 = CARTESIAN_POINT('',(25.053785599754,1.632027846199E-14,
    25.67787775471));
#266 = CARTESIAN_POINT('',(24.978108684289,1.018629625094E-14,
    26.863304661477));
#267 = CARTESIAN_POINT('',(24.772567954103,1.201816424157E-14,
    29.265816871682));
#268 = CARTESIAN_POINT('',(24.487116198416,1.24344978758E-14,
    31.672534055911));
#269 = CARTESIAN_POINT('',(24.325872117457,5.96744875736E-15,
    32.918072148219));
#270 = CARTESIAN_POINT('',(24.168496757029,2.484124017599E-14,
    34.198927505433));
#271 = CARTESIAN_POINT('',(24.028169421784,-6.439293542826E-15,
    35.53207572968));
#272 = CARTESIAN_POINT('',(23.967049862321,2.77000644644E-14,
    36.949919885017));
#273 = CARTESIAN_POINT('',(24.078266723066,3.080868893335E-15,
    38.434273267684));
#274 = CARTESIAN_POINT('',(24.423363770257,1.346145417358E-14,
    39.893589342501));
#275 = CARTESIAN_POINT('',(25.597201386674,1.124100812433E-14,
    42.639848944345));
#276 = CARTESIAN_POINT('',(27.719717517095,1.074140776325E-14,
    44.847697654536));
#277 = CARTESIAN_POINT('',(29.012888681448,1.892930256986E-14,
    45.768949133555));
#278 = CARTESIAN_POINT('',(30.510949267677,-6.022959908591E-15,
    46.480008193389));
#279 = CARTESIAN_POINT('',(32.191716904,3.819167204711E-14,
    46.978600961704));
#280 = CARTESIAN_POINT('',(34.043873638742,-1.540434446667E-14,
    47.272733028329));
#281 = CARTESIAN_POINT('',(36.064079332784,3.055888875281E-14,
    47.36819629067));
#282 = CARTESIAN_POINT('',(38.252823708749,3.164135620182E-15,
    47.267362925464));
#283 = CARTESIAN_POINT('',(40.612638199029,1.373900992974E-14,
    46.974760309587));
#284 = CARTESIAN_POINT('',(43.148261496873,1.165734175856E-14,
    46.491600461464));
#285 = CARTESIAN_POINT('',(-3.585463847864,-6.460382103035,0.));
#286 = CARTESIAN_POINT('',(-0.213507852464,-6.460382103035,
    -0.38865932469));
#287 = CARTESIAN_POINT('',(2.824881842733,-6.460382103035,
    -0.557737077003));
#288 = CARTESIAN_POINT('',(5.559331522223,-6.460382103035,
    -0.528364609745));
#289 = CARTESIAN_POINT('',(8.025577484034,-6.460382103035,
    -0.322802952476));
#290 = CARTESIAN_POINT('',(10.254311354194,-6.460382103035,
    5.472487117456E-02));
#291 = CARTESIAN_POINT('',(12.297809183817,-6.460382103035,
    0.574851609165));
#292 = CARTESIAN_POINT('',(14.189807341023,-6.460382103035,
    1.301680629308));
#293 = CARTESIAN_POINT('',(15.89928175557,-6.460382103035,2.241006531528
    ));
#294 = CARTESIAN_POINT('',(18.938803672236,-6.460382103035,
    4.521219600475));
#295 = CARTESIAN_POINT('',(21.214440001644,-6.460382103035,
    7.509770331534));
#296 = CARTESIAN_POINT('',(22.160522463351,-6.460382103034,9.1575736538)
  );
#297 = CARTESIAN_POINT('',(22.924846155406,-6.460382103037,
    10.922879756447));
#298 = CARTESIAN_POINT('',(23.533785060552,-6.460382103034,
    12.773228375293));
#299 = CARTESIAN_POINT('',(24.013933492762,-6.460382103033,
    14.683529550698));
#300 = CARTESIAN_POINT('',(24.389312368131,-6.460382103038,
    16.632204134869));
#301 = CARTESIAN_POINT('',(24.68502989484,-6.460382103034,
    18.598193032007));
#302 = CARTESIAN_POINT('',(24.924277802772,-6.460382103035,
    20.57210075439));
#303 = CARTESIAN_POINT('',(25.126165408271,-6.460382103035,
    22.527461935574));
#304 = CARTESIAN_POINT('',(25.127092800613,-6.460382103035,
    22.536451331789));
#305 = CARTESIAN_POINT('',(25.128019407304,-6.460382103035,
    22.545440332603));
#306 = CARTESIAN_POINT('',(25.128945230361,-6.460382103035,
    22.554428936328));
#307 = CARTESIAN_POINT('',(25.129870271801,-6.460382103035,
    22.563417141276));
#308 = CARTESIAN_POINT('',(25.130794533639,-6.460382103035,
    22.572404945761));
#309 = CARTESIAN_POINT('',(25.131718017889,-6.460382103035,
    22.581392348094));
#310 = CARTESIAN_POINT('',(25.266521050524,-6.460382103035,
    23.894347002806));
#311 = CARTESIAN_POINT('',(25.384813408939,-6.460382103035,
    25.198646313051));
#312 = CARTESIAN_POINT('',(25.492187783072,-6.460382103035,
    26.480304605749));
#313 = CARTESIAN_POINT('',(25.59511297511,-6.460382103035,
    27.743520270791));
#314 = CARTESIAN_POINT('',(25.698945559907,-6.460382103035,
    28.983835710703));
#315 = CARTESIAN_POINT('',(25.808594049451,-6.460382103035,
    30.197227263628));
#316 = CARTESIAN_POINT('',(25.928348301251,-6.460382103035,
    31.380475244977));
#317 = CARTESIAN_POINT('',(26.062019829391,-6.460382103035,
    32.531612692402));
#318 = CARTESIAN_POINT('',(26.372462036674,-6.460382103035,
    34.820829211445));
#319 = CARTESIAN_POINT('',(26.784391954926,-6.460382103035,
    36.980770851927));
#320 = CARTESIAN_POINT('',(27.028302448825,-6.460382103035,
    38.053044509557));
#321 = CARTESIAN_POINT('',(27.317450380781,-6.460382103035,
    39.097349338698));
#322 = CARTESIAN_POINT('',(27.661494431985,-6.460382103035,
    40.116548629326));
#323 = CARTESIAN_POINT('',(28.088881950004,-6.460382103036,
    41.119423572532));
#324 = CARTESIAN_POINT('',(28.639939802949,-6.460382103035,
    42.095349364794));
#325 = CARTESIAN_POINT('',(29.34287904971,-6.460382103035,43.00556071979
    ));
#326 = CARTESIAN_POINT('',(31.067819356503,-6.460382103035,
    44.640344708795));
#327 = CARTESIAN_POINT('',(33.442157796265,-6.460382103035,
    45.814968095117));
#328 = CARTESIAN_POINT('',(34.79426333224,-6.460382103035,
    46.265151684869));
#329 = CARTESIAN_POINT('',(36.305542192631,-6.460382103035,
    46.564002334877));
#330 = CARTESIAN_POINT('',(37.972088487546,-6.460382103035,
    46.706999328139));
#331 = CARTESIAN_POINT('',(39.794163867036,-6.460382103036,
    46.693565100571));
#332 = CARTESIAN_POINT('',(41.775090232133,-6.460382103035,
    46.522272926107));
#333 = CARTESIAN_POINT('',(43.919658600661,-6.460382103035,
    46.190384290161));
#334 = CARTESIAN_POINT('',(46.233443180592,-6.460382103035,
    45.695987402622));
#335 = CARTESIAN_POINT('',(48.722864874687,-6.460382103035,
    45.035898717658));
#336 = CARTESIAN_POINT('',(3.4,-5.649246456942,0.));
#337 = CARTESIAN_POINT('',(6.771955995399,-5.649246456942,
    5.354001728529E-02));
#338 = CARTESIAN_POINT('',(9.779242966695,-5.649246456942,0.394647652681
    ));
#339 = CARTESIAN_POINT('',(12.435970308893,-5.649246456941,
    1.009910905591));
#340 = CARTESIAN_POINT('',(14.750453453676,-5.649246456942,
    1.886989017835));
#341 = CARTESIAN_POINT('',(16.735791561007,-5.649246456941,2.99643627));
#342 = CARTESIAN_POINT('',(18.384615854651,-5.649246456942,
    4.332650545662));
#343 = CARTESIAN_POINT('',(19.707138246627,-5.649246456941,
    5.801394025767));
#344 = CARTESIAN_POINT('',(20.774981250147,-5.649246456942,
    7.363721544917));
#345 = CARTESIAN_POINT('',(22.4993505337,-5.649246456942,10.630864476663
    ));
#346 = CARTESIAN_POINT('',(23.574670707064,-5.649246456942,
    14.139063961842));
#347 = CARTESIAN_POINT('',(23.992996500007,-5.649246456941,15.9423155057
    ));
#348 = CARTESIAN_POINT('',(24.324730351271,-5.649246456944,
    17.795430266947));
#349 = CARTESIAN_POINT('',(24.587065727105,-5.64924645694,
    19.695739150325));
#350 = CARTESIAN_POINT('',(24.796987159515,-5.649246456941,21.6335839968
    ));
#351 = CARTESIAN_POINT('',(24.973919465261,-5.649246456944,
    23.595977437855));
#352 = CARTESIAN_POINT('',(25.136256410947,-5.649246456941,25.5694389535
    ));
#353 = CARTESIAN_POINT('',(25.306032704486,-5.649246456941,
    27.547125802741));
#354 = CARTESIAN_POINT('',(25.505454056117,-5.649246456942,
    29.50262109445));
#355 = CARTESIAN_POINT('',(25.506371526358,-5.649246456941,
    29.511611030191));
#356 = CARTESIAN_POINT('',(25.507289627697,-5.649246456942,
    29.520600493481));
#357 = CARTESIAN_POINT('',(25.508208362381,-5.649246456941,
    29.529589482624));
#358 = CARTESIAN_POINT('',(25.509127732654,-5.649246456942,
    29.538577995927));
#359 = CARTESIAN_POINT('',(25.510047740766,-5.649246456941,
    29.547566031693));
#360 = CARTESIAN_POINT('',(25.510968388962,-5.649246456942,
    29.556553588227));
#361 = CARTESIAN_POINT('',(25.645564237796,-5.649246456942,
    30.869519507802));
#362 = CARTESIAN_POINT('',(25.793917909494,-5.649246456942,
    32.172184343795));
#363 = CARTESIAN_POINT('',(25.961670676016,-5.649246456942,
    33.450612685958));
#364 = CARTESIAN_POINT('',(26.15717365719,-5.649246456942,
    34.708138183738));
#365 = CARTESIAN_POINT('',(26.388049394912,-5.649246456942,
    35.938920211577));
#366 = CARTESIAN_POINT('',(26.66234531718,-5.649246456942,
    37.136706654342));
#367 = CARTESIAN_POINT('',(26.988695505578,-5.649246456942,
    38.294483006628));
#368 = CARTESIAN_POINT('',(27.376187642035,-5.649246456942,
    39.404046839847));
#369 = CARTESIAN_POINT('',(28.312223719589,-5.649246456942,
    41.555900115316));
#370 = CARTESIAN_POINT('',(29.569681016318,-5.649246456942,
    43.416643359319));
#371 = CARTESIAN_POINT('',(30.304813603311,-5.649246456941,
    44.278845790945));
#372 = CARTESIAN_POINT('',(31.135340356859,-5.649246456942,
    45.036349352783));
#373 = CARTESIAN_POINT('',(32.06665144403,-5.649246456941,
    45.674907125667));
#374 = CARTESIAN_POINT('',(33.086320239328,-5.649246456942,
    46.174660402221));
#375 = CARTESIAN_POINT('',(34.170655083879,-5.649246456941,
    46.534152663576));
#376 = CARTESIAN_POINT('',(35.307453418453,-5.649246456942,
    46.778612262236));
#377 = CARTESIAN_POINT('',(37.700567883638,-5.649246456941,
    47.065808414792));
#378 = CARTESIAN_POINT('',(40.380223576516,-5.649246456942,
    46.987717065249));
#379 = CARTESIAN_POINT('',(41.803782990043,-5.649246456941,
    46.86676319559));
#380 = CARTESIAN_POINT('',(43.331088099937,-5.649246456942,
    46.665839462106));
#381 = CARTESIAN_POINT('',(44.980391995212,-5.649246456941,
    46.377701002998));
#382 = CARTESIAN_POINT('',(46.765995797664,-5.649246456942,
    45.991363769564));
#383 = CARTESIAN_POINT('',(48.699298674403,-5.649246456941,
    45.496648950664));
#384 = CARTESIAN_POINT('',(50.790306668238,-5.649246456942,
    44.884621669472));
#385 = CARTESIAN_POINT('',(53.048283143534,-5.649246456942,
    44.145563088222));
#386 = CARTESIAN_POINT('',(55.481688566542,-5.649246456942,
    43.270960341331));
#387 = CARTESIAN_POINT('',(3.4,-4.163336342344E-16,0.));
#388 = CARTESIAN_POINT('',(6.771955995399,-1.915134717478E-15,
    5.354001728552E-02));
#389 = CARTESIAN_POINT('',(9.779242966695,5.301314942585E-15,
    0.39464765268));
#390 = CARTESIAN_POINT('',(12.435970308894,-1.34892097492E-14,
    1.009910905593));
#391 = CARTESIAN_POINT('',(14.750453453675,1.948441408217E-14,
    1.886989017833));
#392 = CARTESIAN_POINT('',(16.735791561008,-2.18436380095E-14,
    2.996436270002));
#393 = CARTESIAN_POINT('',(18.384615854651,1.576516694968E-14,
    4.332650545661));
#394 = CARTESIAN_POINT('',(19.707138246627,-8.38218383592E-15,
    5.801394025768));
#395 = CARTESIAN_POINT('',(20.774981250147,1.276756478319E-15,
    7.363721544917));
#396 = CARTESIAN_POINT('',(22.4993505337,-1.249000902703E-15,
    10.630864476662));
#397 = CARTESIAN_POINT('',(23.574670707064,-4.440892098501E-16,
    14.139063961842));
#398 = CARTESIAN_POINT('',(23.992996500007,9.159339953158E-16,
    15.9423155057));
#399 = CARTESIAN_POINT('',(24.324730351271,-2.886579864025E-15,
    17.795430266947));
#400 = CARTESIAN_POINT('',(24.587065727105,2.914335439641E-15,
    19.695739150324));
#401 = CARTESIAN_POINT('',(24.796987159515,-4.302114220422E-15,
    21.633583996801));
#402 = CARTESIAN_POINT('',(24.973919465261,2.942091015257E-15,
    23.595977437855));
#403 = CARTESIAN_POINT('',(25.136256410947,-2.720046410332E-15,
    25.569438953499));
#404 = CARTESIAN_POINT('',(25.306032704486,9.71445146547E-16,
    27.547125802741));
#405 = CARTESIAN_POINT('',(25.505454056117,-9.71445146547E-16,
    29.50262109445));
#406 = CARTESIAN_POINT('',(25.506371526358,6.633582572135E-15,
    29.511611030191));
#407 = CARTESIAN_POINT('',(25.507289627697,-1.781907954523E-14,
    29.52060049348));
#408 = CARTESIAN_POINT('',(25.508208362381,2.312039448782E-14,
    29.529589482625));
#409 = CARTESIAN_POINT('',(25.509127732655,-1.937339177971E-14,
    29.538577995927));
#410 = CARTESIAN_POINT('',(25.510047740766,8.021361352917E-15,
    29.547566031694));
#411 = CARTESIAN_POINT('',(25.510968388962,-1.249000902703E-15,
    29.556553588227));
#412 = CARTESIAN_POINT('',(25.645564237796,-9.436895709314E-16,
    30.869519507802));
#413 = CARTESIAN_POINT('',(25.793917909494,5.689893001204E-15,
    32.172184343794));
#414 = CARTESIAN_POINT('',(25.961670676016,-1.56263890716E-14,
    33.45061268596));
#415 = CARTESIAN_POINT('',(26.15717365719,2.256528297551E-14,
    34.708138183736));
#416 = CARTESIAN_POINT('',(26.388049394912,-2.434163981491E-14,
    35.938920211579));
#417 = CARTESIAN_POINT('',(26.66234531718,1.723621245731E-14,
    37.136706654341));
#418 = CARTESIAN_POINT('',(26.988695505578,-9.103828801926E-15,
    38.294483006629));
#419 = CARTESIAN_POINT('',(27.376187642035,1.831867990632E-15,
    39.404046839847));
#420 = CARTESIAN_POINT('',(28.312223719589,-2.359223927328E-15,
    41.555900115316));
#421 = CARTESIAN_POINT('',(29.569681016318,1.304512053935E-15,
    43.416643359319));
#422 = CARTESIAN_POINT('',(30.304813603311,-5.273559366969E-15,
    44.278845790945));
#423 = CARTESIAN_POINT('',(31.135340356858,8.354428260304E-15,
    45.036349352784));
#424 = CARTESIAN_POINT('',(32.066651444032,-1.196265309034E-14,
    45.674907125666));
#425 = CARTESIAN_POINT('',(33.086320239326,1.08246744901E-14,
    46.174660402222));
#426 = CARTESIAN_POINT('',(34.170655083881,-7.771561172376E-15,
    46.534152663575));
#427 = CARTESIAN_POINT('',(35.307453418452,2.137179322403E-15,
    46.778612262236));
#428 = CARTESIAN_POINT('',(37.700567883639,-2.942091015257E-15,
    47.065808414792));
#429 = CARTESIAN_POINT('',(40.380223576515,2.081668171172E-15,
    46.987717065249));
#430 = CARTESIAN_POINT('',(41.803782990046,-7.827072323607E-15,
    46.866763195592));
#431 = CARTESIAN_POINT('',(43.331088099931,1.273980920757E-14,
    46.665839462104));
#432 = CARTESIAN_POINT('',(44.98039199522,-1.637578961322E-14,
    46.377701003001));
#433 = CARTESIAN_POINT('',(46.765995797657,1.401656568589E-14,
    45.991363769562));
#434 = CARTESIAN_POINT('',(48.699298674408,-9.964251646011E-15,
    45.496648950665));
#435 = CARTESIAN_POINT('',(50.790306668236,4.024558464266E-15,
    44.884621669472));
#436 = CARTESIAN_POINT('',(53.048283143535,-1.498801083244E-15,
    44.145563088223));
#437 = CARTESIAN_POINT('',(55.481688566542,-3.885780586188E-16,
    43.270960341331));
#438 = DEFINITIONAL_REPRESENTATION('',(#439),#442);
#439 = B_SPLINE_CURVE_WITH_KNOTS('',1,(#440,#441),.UNSPECIFIED.,.F.,.F.,
  (2,2),(0.,74.113245492792),.PIECEWISE_BEZIER_KNOTS.);
#440 = CARTESIAN_POINT('',(6.28318530718,0.));
#441 = CARTESIAN_POINT('',(6.28318530718,74.113245492792));
#442 = ( GEOMETRIC_REPRESENTATION_CONTEXT(2) 
PARAMETRIC_REPRESENTATION_CONTEXT() REPRESENTATION_CONTEXT('2D SPACE',''
  ) );
#443 = PCURVE('',#80,#444);
#444 = DEFINITIONAL_REPRESENTATION('',(#445),#449);
#445 = LINE('',#446,#447);
#446 = CARTESIAN_POINT('',(0.,0.));
#447 = VECTOR('',#448,1.);
#448 = DIRECTION('',(0.,1.));
#449 = ( GEOMETRIC_REPRESENTATION_CONTEXT(2) 
PARAMETRIC_REPRESENTATION_CONTEXT() REPRESENTATION_CONTEXT('2D SPACE',''
  ) );
#450 = ORIENTED_EDGE('',*,*,#451,.F.);
#451 = EDGE_CURVE('',#24,#24,#452,.T.);
#452 = SURFACE_CURVE('',#453,(#461,#468),.PCURVE_S1.);
#453 = ( BOUNDED_CURVE() B_SPLINE_CURVE(6,(#454,#455,#456,#457,#458,#459
,#460),.UNSPECIFIED.,.T.,.F.) B_SPLINE_CURVE_WITH_KNOTS((1,6,6,1),(
    -6.28318530718,0.,6.28318530718,12.566370614359),.UNSPECIFIED.) 
CURVE() GEOMETRIC_REPRESENTATION_ITEM() RATIONAL_B_SPLINE_CURVE((
    1.669078461068,1.03672962321,1.038346699848,0.853534330196,
1.038346699848,1.03672962321,1.669078461068)) REPRESENTATION_ITEM('') );
#454 = CARTESIAN_POINT('',(55.481688566542,-3.885780586188E-16,
    43.270960341331));
#455 = CARTESIAN_POINT('',(55.481688566542,5.649246456942,
    43.270960341331));
#456 = CARTESIAN_POINT('',(48.722864874687,6.460382103035,
    45.035898717658));
#457 = CARTESIAN_POINT('',(43.148261496873,1.165734175856E-14,
    46.491600461464));
#458 = CARTESIAN_POINT('',(48.722864874687,-6.460382103035,
    45.035898717658));
#459 = CARTESIAN_POINT('',(55.481688566542,-5.649246456942,
    43.270960341331));
#460 = CARTESIAN_POINT('',(55.481688566542,-3.885780586188E-16,
    43.270960341331));
#461 = PCURVE('',#80,#462);
#462 = DEFINITIONAL_REPRESENTATION('',(#463),#467);
#463 = LINE('',#464,#465);
#464 = CARTESIAN_POINT('',(0.,74.113245492792));
#465 = VECTOR('',#466,1.);
#466 = DIRECTION('',(1.,0.));
#467 = ( GEOMETRIC_REPRESENTATION_CONTEXT(2) 
PARAMETRIC_REPRESENTATION_CONTEXT() REPRESENTATION_CONTEXT('2D SPACE',''
  ) );
#468 = PCURVE('',#469,#474);
#469 = PLANE('',#470);
#470 = AXIS2_PLACEMENT_3D('',#471,#472,#473);
#471 = CARTESIAN_POINT('',(52.192521163104,-2.557537081093E-15,
    44.129863908158));
#472 = DIRECTION('',(0.252658723138,5.06677664892E-15,0.967555460748));
#473 = DIRECTION('',(0.967555460748,0.,-0.252658723138));
#474 = DEFINITIONAL_REPRESENTATION('',(#475),#483);
#475 = ( BOUNDED_CURVE() B_SPLINE_CURVE(6,(#476,#477,#478,#479,#480,#481
,#482),.UNSPECIFIED.,.T.,.F.) B_SPLINE_CURVE_WITH_KNOTS((1,6,6,1),(
    -6.28318530718,0.,6.28318530718,12.566370614359),.UNSPECIFIED.) 
CURVE() GEOMETRIC_REPRESENTATION_ITEM() RATIONAL_B_SPLINE_CURVE((
    1.669078461068,1.03672962321,1.038346699848,0.853534330196,
1.038346699848,1.03672962321,1.669078461068)) REPRESENTATION_ITEM('') );
#476 = CARTESIAN_POINT('',(3.399461361001,2.168959022474E-15));
#477 = CARTESIAN_POINT('',(3.399461361001,5.649246456942));
#478 = CARTESIAN_POINT('',(-3.586002486862,6.460382103035));
#479 = CARTESIAN_POINT('',(-9.347536170427,1.421487883966E-14));
#480 = CARTESIAN_POINT('',(-3.586002486862,-6.460382103035));
#481 = CARTESIAN_POINT('',(3.399461361001,-5.649246456942));
#482 = CARTESIAN_POINT('',(3.399461361001,2.168959022474E-15));
#483 = ( GEOMETRIC_REPRESENTATION_CONTEXT(2) 
PARAMETRIC_REPRESENTATION_CONTEXT() REPRESENTATION_CONTEXT('2D SPACE',''
  ) );
#484 = ORIENTED_EDGE('',*,*,#21,.F.);
#485 = ORIENTED_EDGE('',*,*,#486,.T.);
#486 = EDGE_CURVE('',#22,#22,#487,.T.);
#487 = SURFACE_CURVE('',#488,(#496,#503),.PCURVE_S1.);
#488 = ( BOUNDED_CURVE() B_SPLINE_CURVE(6,(#489,#490,#491,#492,#493,#494
,#495),.UNSPECIFIED.,.T.,.F.) B_SPLINE_CURVE_WITH_KNOTS((1,6,6,1),(
    -6.28318530718,0.,6.28318530718,12.566370614359),.UNSPECIFIED.) 
CURVE() GEOMETRIC_REPRESENTATION_ITEM() RATIONAL_B_SPLINE_CURVE((
    1.669078461068,1.03672962321,1.038346699848,0.853534330196,
1.038346699848,1.03672962321,1.669078461068)) REPRESENTATION_ITEM('') );
#489 = CARTESIAN_POINT('',(3.4,-4.163336342344E-16,0.));
#490 = CARTESIAN_POINT('',(3.4,5.649246456942,3.552713678801E-15));
#491 = CARTESIAN_POINT('',(-3.585463847864,6.460382103035,0.));
#492 = CARTESIAN_POINT('',(-9.346997531429,1.176836406103E-14,0.));
#493 = CARTESIAN_POINT('',(-3.585463847864,-6.460382103035,0.));
#494 = CARTESIAN_POINT('',(3.4,-5.649246456942,0.));
#495 = CARTESIAN_POINT('',(3.4,-4.163336342344E-16,0.));
#496 = PCURVE('',#80,#497);
#497 = DEFINITIONAL_REPRESENTATION('',(#498),#502);
#498 = LINE('',#499,#500);
#499 = CARTESIAN_POINT('',(0.,0.));
#500 = VECTOR('',#501,1.);
#501 = DIRECTION('',(1.,0.));
#502 = ( GEOMETRIC_REPRESENTATION_CONTEXT(2) 
PARAMETRIC_REPRESENTATION_CONTEXT() REPRESENTATION_CONTEXT('2D SPACE',''
  ) );
#503 = PCURVE('',#504,#509);
#504 = PLANE('',#505);
#505 = AXIS2_PLACEMENT_3D('',#506,#507,#508);
#506 = CARTESIAN_POINT('',(5.386389985446E-04,2.265971840087E-16,
    4.201645751958E-16));
#507 = DIRECTION('',(0.,0.,1.));
#508 = DIRECTION('',(1.,0.,-0.));
#509 = DEFINITIONAL_REPRESENTATION('',(#510),#518);
#510 = ( BOUNDED_CURVE() B_SPLINE_CURVE(6,(#511,#512,#513,#514,#515,#516
,#517),.UNSPECIFIED.,.T.,.F.) B_SPLINE_CURVE_WITH_KNOTS((1,6,6,1),(
    -6.28318530718,0.,6.28318530718,12.566370614359),.UNSPECIFIED.) 
CURVE() GEOMETRIC_REPRESENTATION_ITEM() RATIONAL_B_SPLINE_CURVE((
    1.669078461068,1.03672962321,1.038346699848,0.853534330196,
1.038346699848,1.03672962321,1.669078461068)) REPRESENTATION_ITEM('') );
#511 = CARTESIAN_POINT('',(3.399461361001,-6.429308182432E-16));
#512 = CARTESIAN_POINT('',(3.399461361001,5.649246456942));
#513 = CARTESIAN_POINT('',(-3.586002486862,6.460382103035));
#514 = CARTESIAN_POINT('',(-9.347536170427,1.154176687702E-14));
#515 = CARTESIAN_POINT('',(-3.586002486862,-6.460382103035));
#516 = CARTESIAN_POINT('',(3.399461361001,-5.649246456942));
#517 = CARTESIAN_POINT('',(3.399461361001,-6.429308182432E-16));
#518 = ( GEOMETRIC_REPRESENTATION_CONTEXT(2) 
PARAMETRIC_REPRESENTATION_CONTEXT() REPRESENTATION_CONTEXT('2D SPACE',''
  ) );
#519 = ADVANCED_FACE('',(#520),#504,.T.);
#520 = FACE_BOUND('',#521,.T.);
#521 = EDGE_LOOP('',(#522));
#522 = ORIENTED_EDGE('',*,*,#486,.T.);
#523 = ADVANCED_FACE('',(#524),#469,.F.);
#524 = FACE_BOUND('',#525,.F.);
#525 = EDGE_LOOP('',(#526));
#526 = ORIENTED_EDGE('',*,*,#451,.T.);
#527 = ( GEOMETRIC_REPRESENTATION_CONTEXT(3) 
GLOBAL_UNCERTAINTY_ASSIGNED_CONTEXT((#531)) GLOBAL_UNIT_ASSIGNED_CONTEXT
((#528,#529,#530)) REPRESENTATION_CONTEXT('Context #1',
  '3D Context with UNIT and UNCERTAINTY') );
#528 = ( LENGTH_UNIT() NAMED_UNIT(*) SI_UNIT(.MILLI.,.METRE.) );
#529 = ( NAMED_UNIT(*) PLANE_ANGLE_UNIT() SI_UNIT($,.RADIAN.) );
#530 = ( NAMED_UNIT(*) SI_UNIT($,.STERADIAN.) SOLID_ANGLE_UNIT() );
#531 = UNCERTAINTY_MEASURE_WITH_UNIT(LENGTH_MEASURE(2.E-05),#528,
  'distance_accuracy_value','confusion accuracy');
#532 = PRODUCT_RELATED_PRODUCT_CATEGORY('part',$,(#7));
ENDSEC;
END-ISO-10303-21;
