ISO-10303-21;
HEADER;
FILE_DESCRIPTION(('Open CASCADE Model'),'2;1');
FILE_NAME('Open CASCADE Shape Model','2026-06-10T00:30:28',('Author'),(
    'Open CASCADE'),'Open CASCADE STEP processor 7.8','Open CASCADE 7.8'
  ,'Unknown');
FILE_SCHEMA(('AUTOMOTIVE_DESIGN { 1 0 10303 214 1 1 1 1 }'));
ENDSEC;
DATA;
#1 = APPLICATION_PROTOCOL_DEFINITION('international standard',
  'automotive_design',2000,#2);
#2 = APPLICATION_CONTEXT(
  'core data for automotive mechanical design processes');
#3 = SHAPE_DEFINITION_REPRESENTATION(#4,#10);
#4 = PRODUCT_DEFINITION_SHAPE('','',#5);
#5 = PRODUCT_DEFINITION('design','',#6,#9);
#6 = PRODUCT_DEFINITION_FORMATION('','',#7);
#7 = PRODUCT('Open CASCADE STEP translator 7.8 25',
  'Open CASCADE STEP translator 7.8 25','',(#8));
#8 = PRODUCT_CONTEXT('',#2,'mechanical');
#9 = PRODUCT_DEFINITION_CONTEXT('part definition',#2,'design');
#10 = ADVANCED_BREP_SHAPE_REPRESENTATION('',(#11,#15),#662);
#11 = AXIS2_PLACEMENT_3D('',#12,#13,#14);
#12 = CARTESIAN_POINT('',(0.,0.,0.));
#13 = DIRECTION('',(0.,0.,1.));
#14 = DIRECTION('',(1.,0.,-0.));
#15 = MANIFOLD_SOLID_BREP('',#16);
#16 = CLOSED_SHELL('',(#17,#357,#485,#605,#648,#655));
#17 = ADVANCED_FACE('',(#18),#60,.T.);
#18 = FACE_BOUND('',#19,.T.);
#19 = EDGE_LOOP('',(#20,#168,#193,#334));
#20 = ORIENTED_EDGE('',*,*,#21,.F.);
#21 = EDGE_CURVE('',#22,#24,#26,.T.);
#22 = VERTEX_POINT('',#23);
#23 = CARTESIAN_POINT('',(-6.35,-3.75,-4.440892098501E-16));
#24 = VERTEX_POINT('',#25);
#25 = CARTESIAN_POINT('',(4.813211050695,-3.75,59.640473800408));
#26 = SURFACE_CURVE('',#27,(#59,#99),.PCURVE_S1.);
#27 = B_SPLINE_CURVE_WITH_KNOTS('',9,(#28,#29,#30,#31,#32,#33,#34,#35,
    #36,#37,#38,#39,#40,#41,#42,#43,#44,#45,#46,#47,#48,#49,#50,#51,#52,
    #53,#54,#55,#56,#57,#58),.UNSPECIFIED.,.F.,.F.,(10,7,7,7,10),(0.,
    16.860008786462,33.720017572923,53.779074004764,63.448423770804),
  .UNSPECIFIED.);
#28 = CARTESIAN_POINT('',(-6.35,-3.75,0.));
#29 = CARTESIAN_POINT('',(-3.670137882843,-3.75,0.810003777974));
#30 = CARTESIAN_POINT('',(-1.367521815655,-3.75,1.634613282022));
#31 = CARTESIAN_POINT('',(0.616758149586,-3.75,2.459788408875));
#32 = CARTESIAN_POINT('',(2.340611527469,-3.75,3.300394813233));
#33 = CARTESIAN_POINT('',(3.900471830804,-3.75,4.13733330852));
#34 = CARTESIAN_POINT('',(5.337049018154,-3.75,5.170874589331));
#35 = CARTESIAN_POINT('',(6.53120232204,-3.75,6.409212105441));
#36 = CARTESIAN_POINT('',(8.40818161707,-3.75,9.260189132254));
#37 = CARTESIAN_POINT('',(9.241559407486,-3.75,12.729900390611));
#38 = CARTESIAN_POINT('',(9.394126195169,-3.75,14.586855310515));
#39 = CARTESIAN_POINT('',(9.310268372017,-3.75,16.519238519659));
#40 = CARTESIAN_POINT('',(9.032322906319,-3.75,18.499460091323));
#41 = CARTESIAN_POINT('',(8.60035784798,-3.75,20.509991972634));
#42 = CARTESIAN_POINT('',(8.04849434151,-3.75,22.53482797365));
#43 = CARTESIAN_POINT('',(6.652449485002,-3.75,26.976737051141));
#44 = CARTESIAN_POINT('',(4.985782175277,-3.75,31.398600943943));
#45 = CARTESIAN_POINT('',(4.048907354693,-3.75,33.784157402676));
#46 = CARTESIAN_POINT('',(3.131212085625,-3.75,36.133357528104));
#47 = CARTESIAN_POINT('',(2.237834078658,-3.75,38.488901954426));
#48 = CARTESIAN_POINT('',(1.463977222681,-3.75,40.795372546699));
#49 = CARTESIAN_POINT('',(0.712520168083,-3.75,43.171156671831));
#50 = CARTESIAN_POINT('',(-5.3869692204E-02,-3.75,46.963515943189));
#51 = CARTESIAN_POINT('',(0.142927146212,-3.75,51.001966900109));
#52 = CARTESIAN_POINT('',(0.331303278601,-3.75,52.334367471267));
#53 = CARTESIAN_POINT('',(0.669201820326,-3.75,53.668724080784));
#54 = CARTESIAN_POINT('',(1.171456782167,-3.75,54.980516526341));
#55 = CARTESIAN_POINT('',(1.841069693419,-3.75,56.245428009591));
#56 = CARTESIAN_POINT('',(2.674096816011,-3.75,57.447240365396));
#57 = CARTESIAN_POINT('',(3.665835532201,-3.75,58.580229164526));
#58 = CARTESIAN_POINT('',(4.813211050695,-3.75,59.640473800408));
#59 = PCURVE('',#60,#65);
#60 = PLANE('',#61);
#61 = AXIS2_PLACEMENT_3D('',#62,#63,#64);
#62 = CARTESIAN_POINT('',(7.288861942232,-3.75,30.455359737877));
#63 = DIRECTION('',(1.051261697253E-17,-1.,-2.488356828965E-17));
#64 = DIRECTION('',(-1.389643440189E-03,-2.489815305241E-17,
    0.999999034445));
#65 = DEFINITIONAL_REPRESENTATION('',(#66),#98);
#66 = B_SPLINE_CURVE_WITH_KNOTS('',9,(#67,#68,#69,#70,#71,#72,#73,#74,
    #75,#76,#77,#78,#79,#80,#81,#82,#83,#84,#85,#86,#87,#88,#89,#90,#91,
    #92,#93,#94,#95,#96,#97),.UNSPECIFIED.,.F.,.F.,(10,7,7,7,10),(0.,
    16.860008786462,33.720017572923,53.779074004764,63.448423770804),
  .UNSPECIFIED.);
#67 = CARTESIAN_POINT('',(-30.43637717652,13.68117086404));
#68 = CARTESIAN_POINT('',(-29.63009823346,11.000185718));
#69 = CARTESIAN_POINT('',(-28.80868934093,8.696425960927));
#70 = CARTESIAN_POINT('',(-27.98627245247,6.711001212415));
#71 = CARTESIAN_POINT('',(-27.1480624013,4.985981355831));
#72 = CARTESIAN_POINT('',(-26.31329236376,3.424959512537));
#73 = CARTESIAN_POINT('',(-25.28174841096,1.98694745842));
#74 = CARTESIAN_POINT('',(-24.04507153783,0.791074459949));
#75 = CARTESIAN_POINT('',(-21.19670559576,-1.089864864278));
#76 = CARTESIAN_POINT('',(-17.72815578558,-1.928063511512));
#77 = CARTESIAN_POINT('',(-15.8714146721,-2.083210657106));
#78 = CARTESIAN_POINT('',(-13.93891679631,-2.002038238574));
#79 = CARTESIAN_POINT('',(-11.95831089156,-1.726844843164));
#80 = CARTESIAN_POINT('',(-9.947180674126,-1.297674124352));
#81 = CARTESIAN_POINT('',(-7.921579734699,-0.748624950803));
#82 = CARTESIAN_POINT('',(-3.477734941539,0.641245887936));
#83 = CARTESIAN_POINT('',(0.946440755005,2.30176677425));
#84 = CARTESIAN_POINT('',(3.333296832302,3.235325617346));
#85 = CARTESIAN_POINT('',(5.683769958658,4.149755449785));
#86 = CARTESIAN_POINT('',(8.04055358746,5.039859227287));
#87 = CARTESIAN_POINT('',(10.348097337812,5.810510164333));
#88 = CARTESIAN_POINT('',(12.72492342636,6.558665000534));
#89 = CARTESIAN_POINT('',(16.51834404463,7.319784093645));
#90 = CARTESIAN_POINT('',(20.556517624768,7.117375438366));
#91 = CARTESIAN_POINT('',(21.888655133763,6.927147926151));
#92 = CARTESIAN_POINT('',(23.222540896394,6.587395430777));
#93 = CARTESIAN_POINT('',(24.53363412003,6.083318030124));
#94 = CARTESIAN_POINT('',(25.797613858749,5.411947989474));
#95 = CARTESIAN_POINT('',(26.998267443462,4.577251580559));
#96 = CARTESIAN_POINT('',(28.129876985428,3.583939371495));
#97 = CARTESIAN_POINT('',(29.188526154723,2.435091598852));
#98 = ( GEOMETRIC_REPRESENTATION_CONTEXT(2) 
PARAMETRIC_REPRESENTATION_CONTEXT() REPRESENTATION_CONTEXT('2D SPACE',''
  ) );
#99 = PCURVE('',#100,#163);
#100 = B_SPLINE_SURFACE_WITH_KNOTS('',1,9,(
    (#101,#102,#103,#104,#105,#106,#107,#108,#109,#110,#111,#112,#113
      ,#114,#115,#116,#117,#118,#119,#120,#121,#122,#123,#124,#125,#126
      ,#127,#128,#129,#130,#131)
    ,(#132,#133,#134,#135,#136,#137,#138,#139,#140,#141,#142,#143,#144
      ,#145,#146,#147,#148,#149,#150,#151,#152,#153,#154,#155,#156,#157
      ,#158,#159,#160,#161,#162
    )),.UNSPECIFIED.,.F.,.F.,.F.,(2,2),(10,7,7,7,10),(0.,7.5),(0.,
    16.860008786462,33.720017572923,53.779074004764,63.448423770804),
  .UNSPECIFIED.);
#101 = CARTESIAN_POINT('',(-6.35,3.75,-8.881784197001E-16));
#102 = CARTESIAN_POINT('',(-3.670137882843,3.75,0.810003777974));
#103 = CARTESIAN_POINT('',(-1.367521815655,3.75,1.634613282022));
#104 = CARTESIAN_POINT('',(0.616758149585,3.75,2.459788408875));
#105 = CARTESIAN_POINT('',(2.340611527469,3.75,3.300394813233));
#106 = CARTESIAN_POINT('',(3.900471830804,3.75,4.13733330852));
#107 = CARTESIAN_POINT('',(5.337049018154,3.75,5.170874589331));
#108 = CARTESIAN_POINT('',(6.53120232204,3.75,6.409212105441));
#109 = CARTESIAN_POINT('',(8.40818161707,3.75,9.260189132254));
#110 = CARTESIAN_POINT('',(9.241559407486,3.75,12.729900390611));
#111 = CARTESIAN_POINT('',(9.394126195169,3.75,14.586855310515));
#112 = CARTESIAN_POINT('',(9.310268372017,3.75,16.519238519658));
#113 = CARTESIAN_POINT('',(9.032322906318,3.75,18.499460091324));
#114 = CARTESIAN_POINT('',(8.60035784798,3.75,20.509991972634));
#115 = CARTESIAN_POINT('',(8.04849434151,3.75,22.53482797365));
#116 = CARTESIAN_POINT('',(6.652449485002,3.75,26.97673705114));
#117 = CARTESIAN_POINT('',(4.985782175277,3.75,31.398600943943));
#118 = CARTESIAN_POINT('',(4.048907354693,3.75,33.784157402675));
#119 = CARTESIAN_POINT('',(3.131212085625,3.75,36.133357528106));
#120 = CARTESIAN_POINT('',(2.237834078658,3.75,38.488901954424));
#121 = CARTESIAN_POINT('',(1.463977222681,3.75,40.795372546701));
#122 = CARTESIAN_POINT('',(0.712520168083,3.75,43.17115667183));
#123 = CARTESIAN_POINT('',(-5.386969220401E-02,3.75,46.96351594319));
#124 = CARTESIAN_POINT('',(0.142927146212,3.75,51.001966900109));
#125 = CARTESIAN_POINT('',(0.331303278601,3.75,52.334367471267));
#126 = CARTESIAN_POINT('',(0.669201820326,3.75,53.668724080783));
#127 = CARTESIAN_POINT('',(1.171456782167,3.75,54.980516526342));
#128 = CARTESIAN_POINT('',(1.841069693419,3.75,56.245428009589));
#129 = CARTESIAN_POINT('',(2.674096816011,3.75,57.447240365397));
#130 = CARTESIAN_POINT('',(3.665835532201,3.75,58.580229164526));
#131 = CARTESIAN_POINT('',(4.813211050695,3.75,59.640473800408));
#132 = CARTESIAN_POINT('',(-6.35,-3.75,-4.440892098501E-16));
#133 = CARTESIAN_POINT('',(-3.670137882843,-3.75,0.810003777974));
#134 = CARTESIAN_POINT('',(-1.367521815655,-3.75,1.634613282022));
#135 = CARTESIAN_POINT('',(0.616758149586,-3.75,2.459788408875));
#136 = CARTESIAN_POINT('',(2.340611527469,-3.75,3.300394813233));
#137 = CARTESIAN_POINT('',(3.900471830804,-3.75,4.13733330852));
#138 = CARTESIAN_POINT('',(5.337049018154,-3.75,5.170874589331));
#139 = CARTESIAN_POINT('',(6.53120232204,-3.75,6.409212105441));
#140 = CARTESIAN_POINT('',(8.40818161707,-3.75,9.260189132254));
#141 = CARTESIAN_POINT('',(9.241559407486,-3.75,12.729900390611));
#142 = CARTESIAN_POINT('',(9.394126195169,-3.75,14.586855310516));
#143 = CARTESIAN_POINT('',(9.310268372017,-3.75,16.519238519658));
#144 = CARTESIAN_POINT('',(9.032322906319,-3.75,18.499460091324));
#145 = CARTESIAN_POINT('',(8.60035784798,-3.75,20.509991972634));
#146 = CARTESIAN_POINT('',(8.04849434151,-3.75,22.53482797365));
#147 = CARTESIAN_POINT('',(6.652449485002,-3.75,26.97673705114));
#148 = CARTESIAN_POINT('',(4.985782175277,-3.75,31.398600943943));
#149 = CARTESIAN_POINT('',(4.048907354693,-3.75,33.784157402676));
#150 = CARTESIAN_POINT('',(3.131212085625,-3.75,36.133357528105));
#151 = CARTESIAN_POINT('',(2.237834078658,-3.75,38.488901954424));
#152 = CARTESIAN_POINT('',(1.463977222681,-3.75,40.7953725467));
#153 = CARTESIAN_POINT('',(0.712520168083,-3.75,43.17115667183));
#154 = CARTESIAN_POINT('',(-5.3869692204E-02,-3.75,46.96351594319));
#155 = CARTESIAN_POINT('',(0.142927146212,-3.75,51.001966900109));
#156 = CARTESIAN_POINT('',(0.331303278601,-3.75,52.334367471267));
#157 = CARTESIAN_POINT('',(0.669201820326,-3.75,53.668724080783));
#158 = CARTESIAN_POINT('',(1.171456782167,-3.75,54.980516526342));
#159 = CARTESIAN_POINT('',(1.841069693419,-3.75,56.24542800959));
#160 = CARTESIAN_POINT('',(2.674096816011,-3.75,57.447240365397));
#161 = CARTESIAN_POINT('',(3.665835532201,-3.75,58.580229164526));
#162 = CARTESIAN_POINT('',(4.813211050695,-3.75,59.640473800408));
#163 = DEFINITIONAL_REPRESENTATION('',(#164),#167);
#164 = B_SPLINE_CURVE_WITH_KNOTS('',1,(#165,#166),.UNSPECIFIED.,.F.,.F.,
  (2,2),(0.,63.448423770804),.PIECEWISE_BEZIER_KNOTS.);
#165 = CARTESIAN_POINT('',(7.5,0.));
#166 = CARTESIAN_POINT('',(7.5,63.448423770804));
#167 = ( GEOMETRIC_REPRESENTATION_CONTEXT(2) 
PARAMETRIC_REPRESENTATION_CONTEXT() REPRESENTATION_CONTEXT('2D SPACE',''
  ) );
#168 = ORIENTED_EDGE('',*,*,#169,.T.);
#169 = EDGE_CURVE('',#22,#170,#172,.T.);
#170 = VERTEX_POINT('',#171);
#171 = CARTESIAN_POINT('',(6.35,-3.75,0.));
#172 = SURFACE_CURVE('',#173,(#176,#182),.PCURVE_S1.);
#173 = B_SPLINE_CURVE_WITH_KNOTS('',1,(#174,#175),.UNSPECIFIED.,.F.,.F.,
  (2,2),(0.,12.7),.PIECEWISE_BEZIER_KNOTS.);
#174 = CARTESIAN_POINT('',(-6.35,-3.75,0.));
#175 = CARTESIAN_POINT('',(6.35,-3.75,0.));
#176 = PCURVE('',#60,#177);
#177 = DEFINITIONAL_REPRESENTATION('',(#178),#181);
#178 = B_SPLINE_CURVE_WITH_KNOTS('',1,(#179,#180),.UNSPECIFIED.,.F.,.F.,
  (2,2),(0.,12.7),.PIECEWISE_BEZIER_KNOTS.);
#179 = CARTESIAN_POINT('',(-30.43637717652,13.68117086404));
#180 = CARTESIAN_POINT('',(-30.45402564821,0.981183126587));
#181 = ( GEOMETRIC_REPRESENTATION_CONTEXT(2) 
PARAMETRIC_REPRESENTATION_CONTEXT() REPRESENTATION_CONTEXT('2D SPACE',''
  ) );
#182 = PCURVE('',#183,#188);
#183 = PLANE('',#184);
#184 = AXIS2_PLACEMENT_3D('',#185,#186,#187);
#185 = CARTESIAN_POINT('',(1.231138403545E-15,0.,-9.838114921183E-17));
#186 = DIRECTION('',(0.,0.,1.));
#187 = DIRECTION('',(1.,0.,-0.));
#188 = DEFINITIONAL_REPRESENTATION('',(#189),#192);
#189 = B_SPLINE_CURVE_WITH_KNOTS('',1,(#190,#191),.UNSPECIFIED.,.F.,.F.,
  (2,2),(0.,12.7),.PIECEWISE_BEZIER_KNOTS.);
#190 = CARTESIAN_POINT('',(-6.35,-3.75));
#191 = CARTESIAN_POINT('',(6.35,-3.75));
#192 = ( GEOMETRIC_REPRESENTATION_CONTEXT(2) 
PARAMETRIC_REPRESENTATION_CONTEXT() REPRESENTATION_CONTEXT('2D SPACE',''
  ) );
#193 = ORIENTED_EDGE('',*,*,#194,.T.);
#194 = EDGE_CURVE('',#170,#195,#197,.T.);
#195 = VERTEX_POINT('',#196);
#196 = CARTESIAN_POINT('',(17.492838949305,-3.75,60.359526199592));
#197 = SURFACE_CURVE('',#198,(#230,#265),.PCURVE_S1.);
#198 = B_SPLINE_CURVE_WITH_KNOTS('',9,(#199,#200,#201,#202,#203,#204,
    #205,#206,#207,#208,#209,#210,#211,#212,#213,#214,#215,#216,#217,
    #218,#219,#220,#221,#222,#223,#224,#225,#226,#227,#228,#229),
  .UNSPECIFIED.,.F.,.F.,(10,7,7,7,10),(0.,16.860008786462,
    33.720017572923,53.779074004764,63.448423770804),.UNSPECIFIED.);
#199 = CARTESIAN_POINT('',(6.35,-3.75,0.));
#200 = CARTESIAN_POINT('',(9.029862117157,-3.75,1.858259286036));
#201 = CARTESIAN_POINT('',(11.2351400299,-3.75,3.898878213226));
#202 = CARTESIAN_POINT('',(12.968366692008,-3.75,6.120083907267));
#203 = CARTESIAN_POINT('',(14.2330754907,-3.75,8.491197735888));
#204 = CARTESIAN_POINT('',(14.994275814967,-3.75,11.015505908091));
#205 = CARTESIAN_POINT('',(15.272700608052,-3.75,13.476924751712));
#206 = CARTESIAN_POINT('',(15.248933539237,-3.75,15.851447839403));
#207 = CARTESIAN_POINT('',(14.746381027232,-3.75,20.430367023782));
#208 = CARTESIAN_POINT('',(13.600510252821,-3.75,24.735650073518));
#209 = CARTESIAN_POINT('',(12.93140993319,-3.75,26.83665385431));
#210 = CARTESIAN_POINT('',(12.199890086247,-3.75,28.916877914951));
#211 = CARTESIAN_POINT('',(11.425056645509,-3.75,30.988099204568));
#212 = CARTESIAN_POINT('',(10.628284462872,-3.75,33.052032798487));
#213 = CARTESIAN_POINT('',(9.836895295632,-3.75,35.108871909059));
#214 = CARTESIAN_POINT('',(8.175348548899,-3.75,39.585938155612));
#215 = CARTESIAN_POINT('',(6.824559923832,-3.75,43.965974096416));
#216 = CARTESIAN_POINT('',(6.237296866049,-3.75,46.301520153104));
#217 = CARTESIAN_POINT('',(5.849649723414,-3.75,48.585601525844));
#218 = CARTESIAN_POINT('',(5.759954449612,-3.75,50.748887543683));
#219 = CARTESIAN_POINT('',(5.976480820028,-3.75,52.820166304841));
#220 = CARTESIAN_POINT('',(6.699823848546,-3.75,54.654420405659));
#221 = CARTESIAN_POINT('',(8.362222146229,-3.75,56.813501264323));
#222 = CARTESIAN_POINT('',(10.678384163762,-3.75,58.241137202609));
#223 = CARTESIAN_POINT('',(11.490013583309,-3.75,58.632286367272));
#224 = CARTESIAN_POINT('',(12.346360763321,-3.75,58.964167477184));
#225 = CARTESIAN_POINT('',(13.244181871892,-3.75,59.25831788008));
#226 = CARTESIAN_POINT('',(14.192065558606,-3.75,59.536071519822));
#227 = CARTESIAN_POINT('',(15.205545740409,-3.75,59.810663706956));
#228 = CARTESIAN_POINT('',(16.300915213918,-3.75,60.084836016208));
#229 = CARTESIAN_POINT('',(17.492838949305,-3.75,60.359526199592));
#230 = PCURVE('',#60,#231);
#231 = DEFINITIONAL_REPRESENTATION('',(#232),#264);
#232 = B_SPLINE_CURVE_WITH_KNOTS('',9,(#233,#234,#235,#236,#237,#238,
    #239,#240,#241,#242,#243,#244,#245,#246,#247,#248,#249,#250,#251,
    #252,#253,#254,#255,#256,#257,#258,#259,#260,#261,#262,#263),
  .UNSPECIFIED.,.F.,.F.,(10,7,7,7,10),(0.,16.860008786462,
    33.720017572923,53.779074004764,63.448423770804),.UNSPECIFIED.);
#233 = CARTESIAN_POINT('',(-30.45402564821,0.981183126587));
#234 = CARTESIAN_POINT('',(-28.59949220924,-1.701258720843));
#235 = CARTESIAN_POINT('',(-26.56193980236,-3.909370236975));
#236 = CARTESIAN_POINT('',(-24.34314482008,-5.64568190948));
#237 = CARTESIAN_POINT('',(-21.97379077518,-6.913684489803));
#238 = CARTESIAN_POINT('',(-19.45054283738,-7.678391967382));
#239 = CARTESIAN_POINT('',(-16.98951328158,-7.960236986182));
#240 = CARTESIAN_POINT('',(-14.61495945887,-7.939769680749));
#241 = CARTESIAN_POINT('',(-10.03534632689,-7.443580718993));
#242 = CARTESIAN_POINT('',(-5.728475082337,-6.303693859332));
#243 = CARTESIAN_POINT('',(-3.62654351931,-5.637513831876));
#244 = CARTESIAN_POINT('',(-1.545304915482,-4.908885460975));
#245 = CARTESIAN_POINT('',(0.526991116465,-4.136931027459));
#246 = CARTESIAN_POINT('',(2.59202994678,-3.343027745929));
#247 = CARTESIAN_POINT('',(4.649966820126,-2.554497615797));
#248 = CARTESIAN_POINT('',(9.129337701362,-0.899173999119));
#249 = CARTESIAN_POINT('',(13.511246527554,0.445526633475));
#250 = CARTESIAN_POINT('',(15.847606415399,1.029543547966));
#251 = CARTESIAN_POINT('',(18.132224274042,1.414016257609));
#252 = CARTESIAN_POINT('',(20.295632847558,1.500705248582));
#253 = CARTESIAN_POINT('',(22.366608714333,1.281300748291));
#254 = CARTESIAN_POINT('',(24.199855855183,0.555409459022));
#255 = CARTESIAN_POINT('',(26.356624488246,-1.109987586077));
#256 = CARTESIAN_POINT('',(27.781040408718,-3.428131272145));
#257 = CARTESIAN_POINT('',(28.171061320206,-4.24030346589));
#258 = CARTESIAN_POINT('',(28.501752092427,-5.097111015459));
#259 = CARTESIAN_POINT('',(28.794654560091,-5.995340021313));
#260 = CARTESIAN_POINT('',(29.071090711299,-6.943608771316));
#261 = CARTESIAN_POINT('',(29.344274257213,-7.957469559779));
#262 = CARTESIAN_POINT('',(29.616924128733,-9.053218977401));
#263 = CARTESIAN_POINT('',(29.889957697888,-10.24552328333));
#264 = ( GEOMETRIC_REPRESENTATION_CONTEXT(2) 
PARAMETRIC_REPRESENTATION_CONTEXT() REPRESENTATION_CONTEXT('2D SPACE',''
  ) );
#265 = PCURVE('',#266,#329);
#266 = B_SPLINE_SURFACE_WITH_KNOTS('',1,9,(
    (#267,#268,#269,#270,#271,#272,#273,#274,#275,#276,#277,#278,#279
      ,#280,#281,#282,#283,#284,#285,#286,#287,#288,#289,#290,#291,#292
      ,#293,#294,#295,#296,#297)
    ,(#298,#299,#300,#301,#302,#303,#304,#305,#306,#307,#308,#309,#310
      ,#311,#312,#313,#314,#315,#316,#317,#318,#319,#320,#321,#322,#323
      ,#324,#325,#326,#327,#328
    )),.UNSPECIFIED.,.F.,.F.,.F.,(2,2),(10,7,7,7,10),(0.,7.5),(0.,
    16.860008786462,33.720017572923,53.779074004764,63.448423770804),
  .UNSPECIFIED.);
#267 = CARTESIAN_POINT('',(6.35,-3.75,0.));
#268 = CARTESIAN_POINT('',(9.029862117157,-3.75,1.858259286036));
#269 = CARTESIAN_POINT('',(11.2351400299,-3.75,3.898878213226));
#270 = CARTESIAN_POINT('',(12.968366692008,-3.75,6.120083907267));
#271 = CARTESIAN_POINT('',(14.2330754907,-3.75,8.491197735888));
#272 = CARTESIAN_POINT('',(14.994275814967,-3.75,11.015505908091));
#273 = CARTESIAN_POINT('',(15.272700608052,-3.75,13.476924751712));
#274 = CARTESIAN_POINT('',(15.248933539237,-3.75,15.851447839403));
#275 = CARTESIAN_POINT('',(14.746381027232,-3.75,20.430367023782));
#276 = CARTESIAN_POINT('',(13.600510252821,-3.75,24.735650073518));
#277 = CARTESIAN_POINT('',(12.93140993319,-3.75,26.83665385431));
#278 = CARTESIAN_POINT('',(12.199890086247,-3.75,28.916877914951));
#279 = CARTESIAN_POINT('',(11.425056645509,-3.75,30.988099204568));
#280 = CARTESIAN_POINT('',(10.628284462872,-3.75,33.052032798487));
#281 = CARTESIAN_POINT('',(9.836895295632,-3.75,35.108871909059));
#282 = CARTESIAN_POINT('',(8.175348548899,-3.75,39.585938155612));
#283 = CARTESIAN_POINT('',(6.824559923832,-3.75,43.965974096416));
#284 = CARTESIAN_POINT('',(6.237296866049,-3.75,46.301520153104));
#285 = CARTESIAN_POINT('',(5.849649723414,-3.75,48.585601525844));
#286 = CARTESIAN_POINT('',(5.759954449612,-3.75,50.748887543683));
#287 = CARTESIAN_POINT('',(5.976480820028,-3.75,52.820166304841));
#288 = CARTESIAN_POINT('',(6.699823848546,-3.75,54.654420405659));
#289 = CARTESIAN_POINT('',(8.362222146229,-3.75,56.813501264323));
#290 = CARTESIAN_POINT('',(10.678384163762,-3.75,58.241137202609));
#291 = CARTESIAN_POINT('',(11.490013583309,-3.75,58.632286367272));
#292 = CARTESIAN_POINT('',(12.346360763321,-3.75,58.964167477184));
#293 = CARTESIAN_POINT('',(13.244181871892,-3.75,59.25831788008));
#294 = CARTESIAN_POINT('',(14.192065558606,-3.75,59.536071519822));
#295 = CARTESIAN_POINT('',(15.205545740409,-3.75,59.810663706956));
#296 = CARTESIAN_POINT('',(16.300915213918,-3.75,60.084836016208));
#297 = CARTESIAN_POINT('',(17.492838949305,-3.75,60.359526199592));
#298 = CARTESIAN_POINT('',(6.35,3.75,1.7763568394E-15));
#299 = CARTESIAN_POINT('',(9.029862117157,3.75,1.858259286036));
#300 = CARTESIAN_POINT('',(11.2351400299,3.75,3.898878213226));
#301 = CARTESIAN_POINT('',(12.968366692008,3.75,6.120083907267));
#302 = CARTESIAN_POINT('',(14.2330754907,3.75,8.491197735887));
#303 = CARTESIAN_POINT('',(14.994275814967,3.75,11.015505908092));
#304 = CARTESIAN_POINT('',(15.272700608052,3.75,13.476924751712));
#305 = CARTESIAN_POINT('',(15.248933539237,3.75,15.851447839403));
#306 = CARTESIAN_POINT('',(14.746381027232,3.75,20.430367023782));
#307 = CARTESIAN_POINT('',(13.600510252821,3.75,24.735650073518));
#308 = CARTESIAN_POINT('',(12.93140993319,3.75,26.83665385431));
#309 = CARTESIAN_POINT('',(12.199890086248,3.75,28.91687791495));
#310 = CARTESIAN_POINT('',(11.425056645508,3.75,30.988099204569));
#311 = CARTESIAN_POINT('',(10.628284462872,3.75,33.052032798487));
#312 = CARTESIAN_POINT('',(9.836895295632,3.75,35.108871909059));
#313 = CARTESIAN_POINT('',(8.175348548899,3.75,39.585938155611));
#314 = CARTESIAN_POINT('',(6.824559923832,3.75,43.965974096417));
#315 = CARTESIAN_POINT('',(6.237296866049,3.75,46.301520153103));
#316 = CARTESIAN_POINT('',(5.849649723415,3.75,48.585601525846));
#317 = CARTESIAN_POINT('',(5.759954449611,3.75,50.748887543681));
#318 = CARTESIAN_POINT('',(5.976480820028,3.75,52.820166304843));
#319 = CARTESIAN_POINT('',(6.699823848545,3.75,54.654420405658));
#320 = CARTESIAN_POINT('',(8.362222146229,3.75,56.813501264324));
#321 = CARTESIAN_POINT('',(10.678384163762,3.75,58.241137202608));
#322 = CARTESIAN_POINT('',(11.490013583309,3.75,58.632286367275));
#323 = CARTESIAN_POINT('',(12.34636076332,3.75,58.964167477178));
#324 = CARTESIAN_POINT('',(13.244181871893,3.75,59.258317880086));
#325 = CARTESIAN_POINT('',(14.192065558606,3.75,59.536071519817));
#326 = CARTESIAN_POINT('',(15.205545740409,3.75,59.810663706958));
#327 = CARTESIAN_POINT('',(16.300915213918,3.75,60.084836016207));
#328 = CARTESIAN_POINT('',(17.492838949305,3.75,60.359526199592));
#329 = DEFINITIONAL_REPRESENTATION('',(#330),#333);
#330 = B_SPLINE_CURVE_WITH_KNOTS('',1,(#331,#332),.UNSPECIFIED.,.F.,.F.,
  (2,2),(0.,63.448423770804),.PIECEWISE_BEZIER_KNOTS.);
#331 = CARTESIAN_POINT('',(0.,0.));
#332 = CARTESIAN_POINT('',(0.,63.448423770804));
#333 = ( GEOMETRIC_REPRESENTATION_CONTEXT(2) 
PARAMETRIC_REPRESENTATION_CONTEXT() REPRESENTATION_CONTEXT('2D SPACE',''
  ) );
#334 = ORIENTED_EDGE('',*,*,#335,.F.);
#335 = EDGE_CURVE('',#24,#195,#336,.T.);
#336 = SURFACE_CURVE('',#337,(#340,#346),.PCURVE_S1.);
#337 = B_SPLINE_CURVE_WITH_KNOTS('',1,(#338,#339),.UNSPECIFIED.,.F.,.F.,
  (2,2),(0.,12.7),.PIECEWISE_BEZIER_KNOTS.);
#338 = CARTESIAN_POINT('',(4.813211050695,-3.75,59.640473800408));
#339 = CARTESIAN_POINT('',(17.492838949305,-3.75,60.359526199592));
#340 = PCURVE('',#60,#341);
#341 = DEFINITIONAL_REPRESENTATION('',(#342),#345);
#342 = B_SPLINE_CURVE_WITH_KNOTS('',1,(#343,#344),.UNSPECIFIED.,.F.,.F.,
  (2,2),(0.,12.7),.PIECEWISE_BEZIER_KNOTS.);
#343 = CARTESIAN_POINT('',(29.188526154723,2.435091598852));
#344 = CARTESIAN_POINT('',(29.889957697888,-10.24552328333));
#345 = ( GEOMETRIC_REPRESENTATION_CONTEXT(2) 
PARAMETRIC_REPRESENTATION_CONTEXT() REPRESENTATION_CONTEXT('2D SPACE',''
  ) );
#346 = PCURVE('',#347,#352);
#347 = PLANE('',#348);
#348 = AXIS2_PLACEMENT_3D('',#349,#350,#351);
#349 = CARTESIAN_POINT('',(11.153025,-8.793845739605E-17,60.));
#350 = DIRECTION('',(-5.661829914832E-02,-1.787011729132E-16,
    0.998395897528));
#351 = DIRECTION('',(0.998395897528,0.,5.661829914832E-02));
#352 = DEFINITIONAL_REPRESENTATION('',(#353),#356);
#353 = B_SPLINE_CURVE_WITH_KNOTS('',1,(#354,#355),.UNSPECIFIED.,.F.,.F.,
  (2,2),(0.,12.7),.PIECEWISE_BEZIER_KNOTS.);
#354 = CARTESIAN_POINT('',(-6.35,-3.75));
#355 = CARTESIAN_POINT('',(6.35,-3.75));
#356 = ( GEOMETRIC_REPRESENTATION_CONTEXT(2) 
PARAMETRIC_REPRESENTATION_CONTEXT() REPRESENTATION_CONTEXT('2D SPACE',''
  ) );
#357 = ADVANCED_FACE('',(#358),#266,.T.);
#358 = FACE_BOUND('',#359,.T.);
#359 = EDGE_LOOP('',(#360,#361,#382,#466));
#360 = ORIENTED_EDGE('',*,*,#194,.F.);
#361 = ORIENTED_EDGE('',*,*,#362,.T.);
#362 = EDGE_CURVE('',#170,#363,#365,.T.);
#363 = VERTEX_POINT('',#364);
#364 = CARTESIAN_POINT('',(6.35,3.75,0.));
#365 = SURFACE_CURVE('',#366,(#369,#376),.PCURVE_S1.);
#366 = B_SPLINE_CURVE_WITH_KNOTS('',1,(#367,#368),.UNSPECIFIED.,.F.,.F.,
  (2,2),(0.,7.5),.PIECEWISE_BEZIER_KNOTS.);
#367 = CARTESIAN_POINT('',(6.35,-3.75,0.));
#368 = CARTESIAN_POINT('',(6.35,3.75,1.7763568394E-15));
#369 = PCURVE('',#266,#370);
#370 = DEFINITIONAL_REPRESENTATION('',(#371),#375);
#371 = LINE('',#372,#373);
#372 = CARTESIAN_POINT('',(0.,0.));
#373 = VECTOR('',#374,1.);
#374 = DIRECTION('',(1.,0.));
#375 = ( GEOMETRIC_REPRESENTATION_CONTEXT(2) 
PARAMETRIC_REPRESENTATION_CONTEXT() REPRESENTATION_CONTEXT('2D SPACE',''
  ) );
#376 = PCURVE('',#183,#377);
#377 = DEFINITIONAL_REPRESENTATION('',(#378),#381);
#378 = B_SPLINE_CURVE_WITH_KNOTS('',1,(#379,#380),.UNSPECIFIED.,.F.,.F.,
  (2,2),(0.,7.5),.PIECEWISE_BEZIER_KNOTS.);
#379 = CARTESIAN_POINT('',(6.35,-3.75));
#380 = CARTESIAN_POINT('',(6.35,3.75));
#381 = ( GEOMETRIC_REPRESENTATION_CONTEXT(2) 
PARAMETRIC_REPRESENTATION_CONTEXT() REPRESENTATION_CONTEXT('2D SPACE',''
  ) );
#382 = ORIENTED_EDGE('',*,*,#383,.T.);
#383 = EDGE_CURVE('',#363,#384,#386,.T.);
#384 = VERTEX_POINT('',#385);
#385 = CARTESIAN_POINT('',(17.492838949305,3.75,60.359526199592));
#386 = SURFACE_CURVE('',#387,(#419,#426),.PCURVE_S1.);
#387 = B_SPLINE_CURVE_WITH_KNOTS('',9,(#388,#389,#390,#391,#392,#393,
    #394,#395,#396,#397,#398,#399,#400,#401,#402,#403,#404,#405,#406,
    #407,#408,#409,#410,#411,#412,#413,#414,#415,#416,#417,#418),
  .UNSPECIFIED.,.F.,.F.,(10,7,7,7,10),(0.,16.860008786462,
    33.720017572923,53.779074004764,63.448423770804),.UNSPECIFIED.);
#388 = CARTESIAN_POINT('',(6.35,3.75,1.7763568394E-15));
#389 = CARTESIAN_POINT('',(9.029862117157,3.75,1.858259286036));
#390 = CARTESIAN_POINT('',(11.2351400299,3.75,3.898878213226));
#391 = CARTESIAN_POINT('',(12.968366692008,3.75,6.120083907267));
#392 = CARTESIAN_POINT('',(14.2330754907,3.75,8.491197735887));
#393 = CARTESIAN_POINT('',(14.994275814967,3.75,11.015505908092));
#394 = CARTESIAN_POINT('',(15.272700608052,3.75,13.476924751712));
#395 = CARTESIAN_POINT('',(15.248933539237,3.75,15.851447839403));
#396 = CARTESIAN_POINT('',(14.746381027232,3.75,20.430367023782));
#397 = CARTESIAN_POINT('',(13.600510252821,3.75,24.735650073518));
#398 = CARTESIAN_POINT('',(12.93140993319,3.75,26.83665385431));
#399 = CARTESIAN_POINT('',(12.199890086248,3.75,28.91687791495));
#400 = CARTESIAN_POINT('',(11.425056645508,3.75,30.988099204569));
#401 = CARTESIAN_POINT('',(10.628284462872,3.75,33.052032798487));
#402 = CARTESIAN_POINT('',(9.836895295632,3.75,35.108871909059));
#403 = CARTESIAN_POINT('',(8.175348548899,3.75,39.585938155611));
#404 = CARTESIAN_POINT('',(6.824559923832,3.75,43.965974096417));
#405 = CARTESIAN_POINT('',(6.237296866049,3.75,46.301520153103));
#406 = CARTESIAN_POINT('',(5.849649723415,3.75,48.585601525846));
#407 = CARTESIAN_POINT('',(5.759954449611,3.75,50.748887543681));
#408 = CARTESIAN_POINT('',(5.976480820028,3.75,52.820166304843));
#409 = CARTESIAN_POINT('',(6.699823848545,3.75,54.654420405658));
#410 = CARTESIAN_POINT('',(8.362222146229,3.75,56.813501264324));
#411 = CARTESIAN_POINT('',(10.678384163762,3.75,58.241137202608));
#412 = CARTESIAN_POINT('',(11.490013583309,3.75,58.632286367275));
#413 = CARTESIAN_POINT('',(12.34636076332,3.75,58.964167477178));
#414 = CARTESIAN_POINT('',(13.244181871893,3.75,59.258317880086));
#415 = CARTESIAN_POINT('',(14.192065558606,3.75,59.536071519817));
#416 = CARTESIAN_POINT('',(15.205545740409,3.75,59.810663706958));
#417 = CARTESIAN_POINT('',(16.300915213918,3.75,60.084836016207));
#418 = CARTESIAN_POINT('',(17.492838949305,3.75,60.359526199592));
#419 = PCURVE('',#266,#420);
#420 = DEFINITIONAL_REPRESENTATION('',(#421),#425);
#421 = LINE('',#422,#423);
#422 = CARTESIAN_POINT('',(7.5,0.));
#423 = VECTOR('',#424,1.);
#424 = DIRECTION('',(0.,1.));
#425 = ( GEOMETRIC_REPRESENTATION_CONTEXT(2) 
PARAMETRIC_REPRESENTATION_CONTEXT() REPRESENTATION_CONTEXT('2D SPACE',''
  ) );
#426 = PCURVE('',#427,#432);
#427 = PLANE('',#428);
#428 = AXIS2_PLACEMENT_3D('',#429,#430,#431);
#429 = CARTESIAN_POINT('',(7.288861942232,3.75,30.455359737877));
#430 = DIRECTION('',(1.422131924312E-16,1.,-1.961608475033E-17));
#431 = DIRECTION('',(1.389643440189E-03,-1.98136914399E-17,
    -0.999999034445));
#432 = DEFINITIONAL_REPRESENTATION('',(#433),#465);
#433 = B_SPLINE_CURVE_WITH_KNOTS('',9,(#434,#435,#436,#437,#438,#439,
    #440,#441,#442,#443,#444,#445,#446,#447,#448,#449,#450,#451,#452,
    #453,#454,#455,#456,#457,#458,#459,#460,#461,#462,#463,#464),
  .UNSPECIFIED.,.F.,.F.,(10,7,7,7,10),(0.,16.860008786462,
    33.720017572923,53.779074004764,63.448423770804),.UNSPECIFIED.);
#434 = CARTESIAN_POINT('',(30.454025648215,0.981183126587));
#435 = CARTESIAN_POINT('',(28.599492209243,-1.701258720843));
#436 = CARTESIAN_POINT('',(26.561939802368,-3.909370236975));
#437 = CARTESIAN_POINT('',(24.343144820084,-5.64568190948));
#438 = CARTESIAN_POINT('',(21.97379077519,-6.913684489803));
#439 = CARTESIAN_POINT('',(19.450542837381,-7.678391967382));
#440 = CARTESIAN_POINT('',(16.989513281583,-7.960236986182));
#441 = CARTESIAN_POINT('',(14.614959458873,-7.939769680749));
#442 = CARTESIAN_POINT('',(10.03534632689,-7.443580718993));
#443 = CARTESIAN_POINT('',(5.728475082337,-6.303693859332));
#444 = CARTESIAN_POINT('',(3.626543519309,-5.637513831876));
#445 = CARTESIAN_POINT('',(1.545304915483,-4.908885460976));
#446 = CARTESIAN_POINT('',(-0.526991116466,-4.136931027459));
#447 = CARTESIAN_POINT('',(-2.592029946779,-3.343027745929));
#448 = CARTESIAN_POINT('',(-4.649966820126,-2.554497615797));
#449 = CARTESIAN_POINT('',(-9.129337701362,-0.899173999119));
#450 = CARTESIAN_POINT('',(-13.51124652755,0.445526633475));
#451 = CARTESIAN_POINT('',(-15.84760641539,1.029543547966));
#452 = CARTESIAN_POINT('',(-18.13222427404,1.414016257609));
#453 = CARTESIAN_POINT('',(-20.29563284755,1.500705248583));
#454 = CARTESIAN_POINT('',(-22.36660871433,1.281300748291));
#455 = CARTESIAN_POINT('',(-24.19985585518,0.555409459022));
#456 = CARTESIAN_POINT('',(-26.35662448824,-1.109987586077));
#457 = CARTESIAN_POINT('',(-27.78104040871,-3.428131272145));
#458 = CARTESIAN_POINT('',(-28.1710613202,-4.24030346589));
#459 = CARTESIAN_POINT('',(-28.50175209242,-5.097111015458));
#460 = CARTESIAN_POINT('',(-28.79465456009,-5.995340021313));
#461 = CARTESIAN_POINT('',(-29.07109071129,-6.943608771316));
#462 = CARTESIAN_POINT('',(-29.34427425721,-7.95746955978));
#463 = CARTESIAN_POINT('',(-29.61692412873,-9.053218977401));
#464 = CARTESIAN_POINT('',(-29.88995769788,-10.24552328333));
#465 = ( GEOMETRIC_REPRESENTATION_CONTEXT(2) 
PARAMETRIC_REPRESENTATION_CONTEXT() REPRESENTATION_CONTEXT('2D SPACE',''
  ) );
#466 = ORIENTED_EDGE('',*,*,#467,.F.);
#467 = EDGE_CURVE('',#195,#384,#468,.T.);
#468 = SURFACE_CURVE('',#469,(#472,#479),.PCURVE_S1.);
#469 = B_SPLINE_CURVE_WITH_KNOTS('',1,(#470,#471),.UNSPECIFIED.,.F.,.F.,
  (2,2),(0.,7.5),.PIECEWISE_BEZIER_KNOTS.);
#470 = CARTESIAN_POINT('',(17.492838949305,-3.75,60.359526199592));
#471 = CARTESIAN_POINT('',(17.492838949305,3.75,60.359526199592));
#472 = PCURVE('',#266,#473);
#473 = DEFINITIONAL_REPRESENTATION('',(#474),#478);
#474 = LINE('',#475,#476);
#475 = CARTESIAN_POINT('',(0.,63.448423770804));
#476 = VECTOR('',#477,1.);
#477 = DIRECTION('',(1.,0.));
#478 = ( GEOMETRIC_REPRESENTATION_CONTEXT(2) 
PARAMETRIC_REPRESENTATION_CONTEXT() REPRESENTATION_CONTEXT('2D SPACE',''
  ) );
#479 = PCURVE('',#347,#480);
#480 = DEFINITIONAL_REPRESENTATION('',(#481),#484);
#481 = B_SPLINE_CURVE_WITH_KNOTS('',1,(#482,#483),.UNSPECIFIED.,.F.,.F.,
  (2,2),(0.,7.5),.PIECEWISE_BEZIER_KNOTS.);
#482 = CARTESIAN_POINT('',(6.35,-3.75));
#483 = CARTESIAN_POINT('',(6.35,3.75));
#484 = ( GEOMETRIC_REPRESENTATION_CONTEXT(2) 
PARAMETRIC_REPRESENTATION_CONTEXT() REPRESENTATION_CONTEXT('2D SPACE',''
  ) );
#485 = ADVANCED_FACE('',(#486),#427,.T.);
#486 = FACE_BOUND('',#487,.T.);
#487 = EDGE_LOOP('',(#488,#489,#509,#587));
#488 = ORIENTED_EDGE('',*,*,#383,.F.);
#489 = ORIENTED_EDGE('',*,*,#490,.T.);
#490 = EDGE_CURVE('',#363,#491,#493,.T.);
#491 = VERTEX_POINT('',#492);
#492 = CARTESIAN_POINT('',(-6.35,3.75,-8.881784197001E-16));
#493 = SURFACE_CURVE('',#494,(#497,#503),.PCURVE_S1.);
#494 = B_SPLINE_CURVE_WITH_KNOTS('',1,(#495,#496),.UNSPECIFIED.,.F.,.F.,
  (2,2),(0.,12.7),.PIECEWISE_BEZIER_KNOTS.);
#495 = CARTESIAN_POINT('',(6.35,3.75,0.));
#496 = CARTESIAN_POINT('',(-6.35,3.75,-8.881784197001E-16));
#497 = PCURVE('',#427,#498);
#498 = DEFINITIONAL_REPRESENTATION('',(#499),#502);
#499 = B_SPLINE_CURVE_WITH_KNOTS('',1,(#500,#501),.UNSPECIFIED.,.F.,.F.,
  (2,2),(0.,12.7),.PIECEWISE_BEZIER_KNOTS.);
#500 = CARTESIAN_POINT('',(30.454025648215,0.981183126587));
#501 = CARTESIAN_POINT('',(30.436377176525,13.68117086404));
#502 = ( GEOMETRIC_REPRESENTATION_CONTEXT(2) 
PARAMETRIC_REPRESENTATION_CONTEXT() REPRESENTATION_CONTEXT('2D SPACE',''
  ) );
#503 = PCURVE('',#183,#504);
#504 = DEFINITIONAL_REPRESENTATION('',(#505),#508);
#505 = B_SPLINE_CURVE_WITH_KNOTS('',1,(#506,#507),.UNSPECIFIED.,.F.,.F.,
  (2,2),(0.,12.7),.PIECEWISE_BEZIER_KNOTS.);
#506 = CARTESIAN_POINT('',(6.35,3.75));
#507 = CARTESIAN_POINT('',(-6.35,3.75));
#508 = ( GEOMETRIC_REPRESENTATION_CONTEXT(2) 
PARAMETRIC_REPRESENTATION_CONTEXT() REPRESENTATION_CONTEXT('2D SPACE',''
  ) );
#509 = ORIENTED_EDGE('',*,*,#510,.T.);
#510 = EDGE_CURVE('',#491,#511,#513,.T.);
#511 = VERTEX_POINT('',#512);
#512 = CARTESIAN_POINT('',(4.813211050695,3.75,59.640473800408));
#513 = SURFACE_CURVE('',#514,(#546,#581),.PCURVE_S1.);
#514 = B_SPLINE_CURVE_WITH_KNOTS('',9,(#515,#516,#517,#518,#519,#520,
    #521,#522,#523,#524,#525,#526,#527,#528,#529,#530,#531,#532,#533,
    #534,#535,#536,#537,#538,#539,#540,#541,#542,#543,#544,#545),
  .UNSPECIFIED.,.F.,.F.,(10,7,7,7,10),(0.,16.860008786462,
    33.720017572923,53.779074004764,63.448423770804),.UNSPECIFIED.);
#515 = CARTESIAN_POINT('',(-6.35,3.75,-8.881784197001E-16));
#516 = CARTESIAN_POINT('',(-3.670137882843,3.75,0.810003777974));
#517 = CARTESIAN_POINT('',(-1.367521815655,3.75,1.634613282022));
#518 = CARTESIAN_POINT('',(0.616758149585,3.75,2.459788408875));
#519 = CARTESIAN_POINT('',(2.340611527469,3.75,3.300394813233));
#520 = CARTESIAN_POINT('',(3.900471830804,3.75,4.13733330852));
#521 = CARTESIAN_POINT('',(5.337049018154,3.75,5.170874589331));
#522 = CARTESIAN_POINT('',(6.53120232204,3.75,6.409212105441));
#523 = CARTESIAN_POINT('',(8.40818161707,3.75,9.260189132254));
#524 = CARTESIAN_POINT('',(9.241559407486,3.75,12.729900390611));
#525 = CARTESIAN_POINT('',(9.394126195169,3.75,14.586855310515));
#526 = CARTESIAN_POINT('',(9.310268372017,3.75,16.519238519658));
#527 = CARTESIAN_POINT('',(9.032322906318,3.75,18.499460091324));
#528 = CARTESIAN_POINT('',(8.60035784798,3.75,20.509991972634));
#529 = CARTESIAN_POINT('',(8.04849434151,3.75,22.53482797365));
#530 = CARTESIAN_POINT('',(6.652449485002,3.75,26.97673705114));
#531 = CARTESIAN_POINT('',(4.985782175277,3.75,31.398600943943));
#532 = CARTESIAN_POINT('',(4.048907354693,3.75,33.784157402675));
#533 = CARTESIAN_POINT('',(3.131212085625,3.75,36.133357528106));
#534 = CARTESIAN_POINT('',(2.237834078658,3.75,38.488901954424));
#535 = CARTESIAN_POINT('',(1.463977222681,3.75,40.795372546701));
#536 = CARTESIAN_POINT('',(0.712520168083,3.75,43.17115667183));
#537 = CARTESIAN_POINT('',(-5.386969220401E-02,3.75,46.96351594319));
#538 = CARTESIAN_POINT('',(0.142927146212,3.75,51.001966900109));
#539 = CARTESIAN_POINT('',(0.331303278601,3.75,52.334367471267));
#540 = CARTESIAN_POINT('',(0.669201820326,3.75,53.668724080783));
#541 = CARTESIAN_POINT('',(1.171456782167,3.75,54.980516526342));
#542 = CARTESIAN_POINT('',(1.841069693419,3.75,56.245428009589));
#543 = CARTESIAN_POINT('',(2.674096816011,3.75,57.447240365397));
#544 = CARTESIAN_POINT('',(3.665835532201,3.75,58.580229164526));
#545 = CARTESIAN_POINT('',(4.813211050695,3.75,59.640473800408));
#546 = PCURVE('',#427,#547);
#547 = DEFINITIONAL_REPRESENTATION('',(#548),#580);
#548 = B_SPLINE_CURVE_WITH_KNOTS('',9,(#549,#550,#551,#552,#553,#554,
    #555,#556,#557,#558,#559,#560,#561,#562,#563,#564,#565,#566,#567,
    #568,#569,#570,#571,#572,#573,#574,#575,#576,#577,#578,#579),
  .UNSPECIFIED.,.F.,.F.,(10,7,7,7,10),(0.,16.860008786462,
    33.720017572923,53.779074004764,63.448423770804),.UNSPECIFIED.);
#549 = CARTESIAN_POINT('',(30.436377176525,13.68117086404));
#550 = CARTESIAN_POINT('',(29.630098233466,11.000185718));
#551 = CARTESIAN_POINT('',(28.808689340936,8.696425960927));
#552 = CARTESIAN_POINT('',(27.986272452473,6.711001212415));
#553 = CARTESIAN_POINT('',(27.148062401305,4.985981355831));
#554 = CARTESIAN_POINT('',(26.313292363766,3.424959512537));
#555 = CARTESIAN_POINT('',(25.281748410961,1.98694745842));
#556 = CARTESIAN_POINT('',(24.045071537839,0.791074459949));
#557 = CARTESIAN_POINT('',(21.196705595765,-1.089864864278));
#558 = CARTESIAN_POINT('',(17.728155785585,-1.928063511512));
#559 = CARTESIAN_POINT('',(15.871414672108,-2.083210657106));
#560 = CARTESIAN_POINT('',(13.938916796313,-2.002038238574));
#561 = CARTESIAN_POINT('',(11.958310891568,-1.726844843164));
#562 = CARTESIAN_POINT('',(9.947180674127,-1.297674124352));
#563 = CARTESIAN_POINT('',(7.921579734699,-0.748624950803));
#564 = CARTESIAN_POINT('',(3.477734941539,0.641245887936));
#565 = CARTESIAN_POINT('',(-0.946440755006,2.30176677425));
#566 = CARTESIAN_POINT('',(-3.3332968323,3.235325617346));
#567 = CARTESIAN_POINT('',(-5.683769958661,4.149755449785));
#568 = CARTESIAN_POINT('',(-8.040553587457,5.039859227287));
#569 = CARTESIAN_POINT('',(-10.34809733781,5.810510164333));
#570 = CARTESIAN_POINT('',(-12.72492342636,6.558665000534));
#571 = CARTESIAN_POINT('',(-16.51834404463,7.319784093645));
#572 = CARTESIAN_POINT('',(-20.55651762476,7.117375438366));
#573 = CARTESIAN_POINT('',(-21.88865513376,6.927147926151));
#574 = CARTESIAN_POINT('',(-23.22254089639,6.587395430777));
#575 = CARTESIAN_POINT('',(-24.53363412003,6.083318030124));
#576 = CARTESIAN_POINT('',(-25.79761385874,5.411947989474));
#577 = CARTESIAN_POINT('',(-26.99826744346,4.577251580559));
#578 = CARTESIAN_POINT('',(-28.12987698542,3.583939371495));
#579 = CARTESIAN_POINT('',(-29.18852615472,2.435091598852));
#580 = ( GEOMETRIC_REPRESENTATION_CONTEXT(2) 
PARAMETRIC_REPRESENTATION_CONTEXT() REPRESENTATION_CONTEXT('2D SPACE',''
  ) );
#581 = PCURVE('',#100,#582);
#582 = DEFINITIONAL_REPRESENTATION('',(#583),#586);
#583 = B_SPLINE_CURVE_WITH_KNOTS('',1,(#584,#585),.UNSPECIFIED.,.F.,.F.,
  (2,2),(0.,63.448423770804),.PIECEWISE_BEZIER_KNOTS.);
#584 = CARTESIAN_POINT('',(0.,0.));
#585 = CARTESIAN_POINT('',(0.,63.448423770804));
#586 = ( GEOMETRIC_REPRESENTATION_CONTEXT(2) 
PARAMETRIC_REPRESENTATION_CONTEXT() REPRESENTATION_CONTEXT('2D SPACE',''
  ) );
#587 = ORIENTED_EDGE('',*,*,#588,.F.);
#588 = EDGE_CURVE('',#384,#511,#589,.T.);
#589 = SURFACE_CURVE('',#590,(#593,#599),.PCURVE_S1.);
#590 = B_SPLINE_CURVE_WITH_KNOTS('',1,(#591,#592),.UNSPECIFIED.,.F.,.F.,
  (2,2),(0.,12.7),.PIECEWISE_BEZIER_KNOTS.);
#591 = CARTESIAN_POINT('',(17.492838949305,3.75,60.359526199592));
#592 = CARTESIAN_POINT('',(4.813211050695,3.75,59.640473800408));
#593 = PCURVE('',#427,#594);
#594 = DEFINITIONAL_REPRESENTATION('',(#595),#598);
#595 = B_SPLINE_CURVE_WITH_KNOTS('',1,(#596,#597),.UNSPECIFIED.,.F.,.F.,
  (2,2),(0.,12.7),.PIECEWISE_BEZIER_KNOTS.);
#596 = CARTESIAN_POINT('',(-29.88995769788,-10.24552328333));
#597 = CARTESIAN_POINT('',(-29.18852615472,2.435091598852));
#598 = ( GEOMETRIC_REPRESENTATION_CONTEXT(2) 
PARAMETRIC_REPRESENTATION_CONTEXT() REPRESENTATION_CONTEXT('2D SPACE',''
  ) );
#599 = PCURVE('',#347,#600);
#600 = DEFINITIONAL_REPRESENTATION('',(#601),#604);
#601 = B_SPLINE_CURVE_WITH_KNOTS('',1,(#602,#603),.UNSPECIFIED.,.F.,.F.,
  (2,2),(0.,12.7),.PIECEWISE_BEZIER_KNOTS.);
#602 = CARTESIAN_POINT('',(6.35,3.75));
#603 = CARTESIAN_POINT('',(-6.35,3.75));
#604 = ( GEOMETRIC_REPRESENTATION_CONTEXT(2) 
PARAMETRIC_REPRESENTATION_CONTEXT() REPRESENTATION_CONTEXT('2D SPACE',''
  ) );
#605 = ADVANCED_FACE('',(#606),#100,.T.);
#606 = FACE_BOUND('',#607,.T.);
#607 = EDGE_LOOP('',(#608,#609,#628,#629));
#608 = ORIENTED_EDGE('',*,*,#510,.F.);
#609 = ORIENTED_EDGE('',*,*,#610,.T.);
#610 = EDGE_CURVE('',#491,#22,#611,.T.);
#611 = SURFACE_CURVE('',#612,(#615,#622),.PCURVE_S1.);
#612 = B_SPLINE_CURVE_WITH_KNOTS('',1,(#613,#614),.UNSPECIFIED.,.F.,.F.,
  (2,2),(0.,7.5),.PIECEWISE_BEZIER_KNOTS.);
#613 = CARTESIAN_POINT('',(-6.35,3.75,-8.881784197001E-16));
#614 = CARTESIAN_POINT('',(-6.35,-3.75,-4.440892098501E-16));
#615 = PCURVE('',#100,#616);
#616 = DEFINITIONAL_REPRESENTATION('',(#617),#621);
#617 = LINE('',#618,#619);
#618 = CARTESIAN_POINT('',(0.,0.));
#619 = VECTOR('',#620,1.);
#620 = DIRECTION('',(1.,0.));
#621 = ( GEOMETRIC_REPRESENTATION_CONTEXT(2) 
PARAMETRIC_REPRESENTATION_CONTEXT() REPRESENTATION_CONTEXT('2D SPACE',''
  ) );
#622 = PCURVE('',#183,#623);
#623 = DEFINITIONAL_REPRESENTATION('',(#624),#627);
#624 = B_SPLINE_CURVE_WITH_KNOTS('',1,(#625,#626),.UNSPECIFIED.,.F.,.F.,
  (2,2),(0.,7.5),.PIECEWISE_BEZIER_KNOTS.);
#625 = CARTESIAN_POINT('',(-6.35,3.75));
#626 = CARTESIAN_POINT('',(-6.35,-3.75));
#627 = ( GEOMETRIC_REPRESENTATION_CONTEXT(2) 
PARAMETRIC_REPRESENTATION_CONTEXT() REPRESENTATION_CONTEXT('2D SPACE',''
  ) );
#628 = ORIENTED_EDGE('',*,*,#21,.T.);
#629 = ORIENTED_EDGE('',*,*,#630,.F.);
#630 = EDGE_CURVE('',#511,#24,#631,.T.);
#631 = SURFACE_CURVE('',#632,(#635,#642),.PCURVE_S1.);
#632 = B_SPLINE_CURVE_WITH_KNOTS('',1,(#633,#634),.UNSPECIFIED.,.F.,.F.,
  (2,2),(0.,7.5),.PIECEWISE_BEZIER_KNOTS.);
#633 = CARTESIAN_POINT('',(4.813211050695,3.75,59.640473800408));
#634 = CARTESIAN_POINT('',(4.813211050695,-3.75,59.640473800408));
#635 = PCURVE('',#100,#636);
#636 = DEFINITIONAL_REPRESENTATION('',(#637),#641);
#637 = LINE('',#638,#639);
#638 = CARTESIAN_POINT('',(0.,63.448423770804));
#639 = VECTOR('',#640,1.);
#640 = DIRECTION('',(1.,0.));
#641 = ( GEOMETRIC_REPRESENTATION_CONTEXT(2) 
PARAMETRIC_REPRESENTATION_CONTEXT() REPRESENTATION_CONTEXT('2D SPACE',''
  ) );
#642 = PCURVE('',#347,#643);
#643 = DEFINITIONAL_REPRESENTATION('',(#644),#647);
#644 = B_SPLINE_CURVE_WITH_KNOTS('',1,(#645,#646),.UNSPECIFIED.,.F.,.F.,
  (2,2),(0.,7.5),.PIECEWISE_BEZIER_KNOTS.);
#645 = CARTESIAN_POINT('',(-6.35,3.75));
#646 = CARTESIAN_POINT('',(-6.35,-3.75));
#647 = ( GEOMETRIC_REPRESENTATION_CONTEXT(2) 
PARAMETRIC_REPRESENTATION_CONTEXT() REPRESENTATION_CONTEXT('2D SPACE',''
  ) );
#648 = ADVANCED_FACE('',(#649),#183,.F.);
#649 = FACE_BOUND('',#650,.F.);
#650 = EDGE_LOOP('',(#651,#652,#653,#654));
#651 = ORIENTED_EDGE('',*,*,#169,.T.);
#652 = ORIENTED_EDGE('',*,*,#362,.T.);
#653 = ORIENTED_EDGE('',*,*,#490,.T.);
#654 = ORIENTED_EDGE('',*,*,#610,.T.);
#655 = ADVANCED_FACE('',(#656),#347,.T.);
#656 = FACE_BOUND('',#657,.T.);
#657 = EDGE_LOOP('',(#658,#659,#660,#661));
#658 = ORIENTED_EDGE('',*,*,#335,.T.);
#659 = ORIENTED_EDGE('',*,*,#467,.T.);
#660 = ORIENTED_EDGE('',*,*,#588,.T.);
#661 = ORIENTED_EDGE('',*,*,#630,.T.);
#662 = ( GEOMETRIC_REPRESENTATION_CONTEXT(3) 
GLOBAL_UNCERTAINTY_ASSIGNED_CONTEXT((#666)) GLOBAL_UNIT_ASSIGNED_CONTEXT
((#663,#664,#665)) REPRESENTATION_CONTEXT('Context #1',
  '3D Context with UNIT and UNCERTAINTY') );
#663 = ( LENGTH_UNIT() NAMED_UNIT(*) SI_UNIT(.MILLI.,.METRE.) );
#664 = ( NAMED_UNIT(*) PLANE_ANGLE_UNIT() SI_UNIT($,.RADIAN.) );
#665 = ( NAMED_UNIT(*) SI_UNIT($,.STERADIAN.) SOLID_ANGLE_UNIT() );
#666 = UNCERTAINTY_MEASURE_WITH_UNIT(LENGTH_MEASURE(5.E-05),#663,
  'distance_accuracy_value','confusion accuracy');
#667 = PRODUCT_RELATED_PRODUCT_CATEGORY('part',$,(#7));
ENDSEC;
END-ISO-10303-21;
