ISO-10303-21;
HEADER;
FILE_DESCRIPTION(('Open CASCADE Model'),'2;1');
FILE_NAME('Open CASCADE Shape Model','2026-06-10T00:30:28',('Author'),(
    'Open CASCADE'),'Open CASCADE STEP processor 7.8','Open CASCADE 7.8'
  ,'Unknown');
FILE_SCHEMA(('AUTOMOTIVE_DESIGN { 1 0 10303 214 1 1 1 1 }'));
ENDSEC;
DATA;
#1 = APPLICATION_PROTOCOL_DEFINITION('international standard',
  'automotive_design',2000,#2);
#2 = APPLICATION_CONTEXT(
  'core data for automotive mechanical design processes');
#3 = SHAPE_DEFINITION_REPRESENTATION(#4,#10);
#4 = PRODUCT_DEFINITION_SHAPE('','',#5);
#5 = PRODUCT_DEFINITION('design','',#6,#9);
#6 = PRODUCT_DEFINITION_FORMATION('','',#7);
#7 = PRODUCT('Open CASCADE STEP translator 7.8 57',
  'Open CASCADE STEP translator 7.8 57','',(#8));
#8 = PRODUCT_CONTEXT('',#2,'mechanical');
#9 = PRODUCT_DEFINITION_CONTEXT('part definition',#2,'design');
#10 = ADVANCED_BREP_SHAPE_REPRESENTATION('',(#11,#15),#1190);
#11 = AXIS2_PLACEMENT_3D('',#12,#13,#14);
#12 = CARTESIAN_POINT('',(0.,0.,0.));
#13 = DIRECTION('',(0.,0.,1.));
#14 = DIRECTION('',(1.,0.,-0.));
#15 = MANIFOLD_SOLID_BREP('',#16);
#16 = CLOSED_SHELL('',(#17,#709,#925,#1133,#1176,#1183));
#17 = ADVANCED_FACE('',(#18),#104,.T.);
#18 = FACE_BOUND('',#19,.T.);
#19 = EDGE_LOOP('',(#20,#344,#369,#686));
#20 = ORIENTED_EDGE('',*,*,#21,.F.);
#21 = EDGE_CURVE('',#22,#24,#26,.T.);
#22 = VERTEX_POINT('',#23);
#23 = CARTESIAN_POINT('',(-10.25,-6.8,8.881784197001E-16));
#24 = VERTEX_POINT('',#25);
#25 = CARTESIAN_POINT('',(15.123157987584,-6.8,44.562573952004));
#26 = SURFACE_CURVE('',#27,(#103,#187),.PCURVE_S1.);
#27 = B_SPLINE_CURVE_WITH_KNOTS('',11,(#28,#29,#30,#31,#32,#33,#34,#35,
    #36,#37,#38,#39,#40,#41,#42,#43,#44,#45,#46,#47,#48,#49,#50,#51,#52,
    #53,#54,#55,#56,#57,#58,#59,#60,#61,#62,#63,#64,#65,#66,#67,#68,#69,
    #70,#71,#72,#73,#74,#75,#76,#77,#78,#79,#80,#81,#82,#83,#84,#85,#86,
    #87,#88,#89,#90,#91,#92,#93,#94,#95,#96,#97,#98,#99,#100,#101,#102),
  .UNSPECIFIED.,.F.,.F.,(12,9,9,9,9,9,9,9,12),(0.,11.294323807865,
    16.941485711797,22.588647615729,30.209674355491,34.290747950712,
    41.465512936307,48.640277921903,62.989807893093),.UNSPECIFIED.);
#28 = CARTESIAN_POINT('',(-10.25,-6.8,4.440892098501E-16));
#29 = CARTESIAN_POINT('',(-7.456419112089,-6.8,0.592299076712));
#30 = CARTESIAN_POINT('',(-4.927686594501,-6.800000000001,1.142854248568
    ));
#31 = CARTESIAN_POINT('',(-2.651693895604,-6.799999999997,1.646249888443
    ));
#32 = CARTESIAN_POINT('',(-0.611005094197,-6.800000000005,2.095956389216
    ));
#33 = CARTESIAN_POINT('',(1.203074271725,-6.799999999994,2.481994824998)
  );
#34 = CARTESIAN_POINT('',(2.812052325248,-6.800000000005,2.7905776231));
#35 = CARTESIAN_POINT('',(4.243678147063,-6.799999999997,3.005391467395)
  );
#36 = CARTESIAN_POINT('',(5.521017465622,-6.800000000002,3.103241225102)
  );
#37 = CARTESIAN_POINT('',(6.687691266732,-6.799999999999,3.045661750978)
  );
#38 = CARTESIAN_POINT('',(8.439765075771,-6.8,2.666411090272));
#39 = CARTESIAN_POINT('',(10.448224372057,-6.8,1.987142141343));
#40 = CARTESIAN_POINT('',(11.160432816405,-6.800000000001,1.734717178517
    ));
#41 = CARTESIAN_POINT('',(11.927498381528,-6.799999999997,1.471408626124
    ));
#42 = CARTESIAN_POINT('',(12.761812402688,-6.800000000003,1.21524569461)
  );
#43 = CARTESIAN_POINT('',(13.665424087814,-6.799999999998,1.000188106256
    ));
#44 = CARTESIAN_POINT('',(14.618652082789,-6.800000000001,0.867087731258
    ));
#45 = CARTESIAN_POINT('',(15.580526852568,-6.8,0.841247150782));
#46 = CARTESIAN_POINT('',(16.505774478723,-6.8,0.922521313082));
#47 = CARTESIAN_POINT('',(18.227775738966,-6.8,1.277246488281));
#48 = CARTESIAN_POINT('',(19.615813495993,-6.8,1.951144700934));
#49 = CARTESIAN_POINT('',(20.207389917643,-6.799999999998,2.35166961094)
  );
#50 = CARTESIAN_POINT('',(20.689654774732,-6.800000000004,2.793680942811
    ));
#51 = CARTESIAN_POINT('',(21.066507538644,-6.799999999995,3.258439690593
    ));
#52 = CARTESIAN_POINT('',(21.347585909914,-6.800000000004,3.732954623385
    ));
#53 = CARTESIAN_POINT('',(21.543523853956,-6.799999999997,4.20907405974)
  );
#54 = CARTESIAN_POINT('',(21.663599358843,-6.800000000001,4.681716012209
    ));
#55 = CARTESIAN_POINT('',(21.71596974292,-6.8,5.14760541284));
#56 = CARTESIAN_POINT('',(21.699097969387,-6.8,6.221826645816));
#57 = CARTESIAN_POINT('',(21.389589033375,-6.8,7.242432835773));
#58 = CARTESIAN_POINT('',(21.131730523726,-6.800000000001,7.808452329205
    ));
#59 = CARTESIAN_POINT('',(20.806870327439,-6.799999999997,8.354375453085
    ));
#60 = CARTESIAN_POINT('',(20.425452278586,-6.800000000004,8.881334120932
    ));
#61 = CARTESIAN_POINT('',(19.995924803648,-6.799999999996,9.390621898967
    ));
#62 = CARTESIAN_POINT('',(19.525264223584,-6.800000000003,9.883347819767
    ));
#63 = CARTESIAN_POINT('',(19.019370034331,-6.799999999999,
    10.360412540494));
#64 = CARTESIAN_POINT('',(18.483321646079,-6.8,10.822608463647));
#65 = CARTESIAN_POINT('',(17.620622083815,-6.8,11.510570046794));
#66 = CARTESIAN_POINT('',(16.705616605317,-6.8,12.166044546383));
#67 = CARTESIAN_POINT('',(16.380700439667,-6.799999999999,12.39075528004
    ));
#68 = CARTESIAN_POINT('',(16.050474022632,-6.800000000003,
    12.611630362612));
#69 = CARTESIAN_POINT('',(15.715383442065,-6.799999999995,
    12.828702043251));
#70 = CARTESIAN_POINT('',(15.375816777261,-6.800000000005,
    13.041988851764));
#71 = CARTESIAN_POINT('',(15.032100406178,-6.799999999997,
    13.251498078311));
#72 = CARTESIAN_POINT('',(14.684495313192,-6.800000000001,13.45722825328
    ));
#73 = CARTESIAN_POINT('',(14.333193396333,-6.8,13.65917162698));
#74 = CARTESIAN_POINT('',(13.354414738943,-6.8,14.205667135258));
#75 = CARTESIAN_POINT('',(12.348745312382,-6.8,14.723171118229));
#76 = CARTESIAN_POINT('',(11.69709886641,-6.799999999999,15.041160017135
    ));
#77 = CARTESIAN_POINT('',(11.033963311815,-6.800000000003,
    15.347356177799));
#78 = CARTESIAN_POINT('',(10.357822953489,-6.799999999997,
    15.641928792539));
#79 = CARTESIAN_POINT('',(9.666218624135,-6.800000000002,15.925287463039
    ));
#80 = CARTESIAN_POINT('',(8.955096575289,-6.799999999999,16.198542098129
    ));
#81 = CARTESIAN_POINT('',(8.218355177162,-6.8,16.464291649016));
#82 = CARTESIAN_POINT('',(7.448127990824,-6.8,16.727770731583));
#83 = CARTESIAN_POINT('',(5.824555563967,-6.8,17.268995642066));
#84 = CARTESIAN_POINT('',(4.015112913299,-6.800000000001,17.900844502069
    ));
#85 = CARTESIAN_POINT('',(3.058409844765,-6.799999999998,18.254600033441
    ));
#86 = CARTESIAN_POINT('',(2.05225931753,-6.800000000005,18.668583031169)
  );
#87 = CARTESIAN_POINT('',(0.997237322594,-6.799999999994,19.16591348293)
  );
#88 = CARTESIAN_POINT('',(-8.344968596559E-02,-6.800000000006,
    19.783230049755));
#89 = CARTESIAN_POINT('',(-1.135074220894,-6.799999999996,20.55009774189
    ));
#90 = CARTESIAN_POINT('',(-2.089350965146,-6.800000000002,
    21.458460571971));
#91 = CARTESIAN_POINT('',(-2.894853550475,-6.8,22.465304358785));
#92 = CARTESIAN_POINT('',(-4.810826689887,-6.800000000001,
    25.674535574026));
#93 = CARTESIAN_POINT('',(-5.163067310084,-6.799999999999,
    29.157043977318));
#94 = CARTESIAN_POINT('',(-4.651710877519,-6.800000000002,
    31.343695211873));
#95 = CARTESIAN_POINT('',(-3.623004485446,-6.799999999996,
    33.225275948304));
#96 = CARTESIAN_POINT('',(-2.232438079066,-6.800000000006,
    35.054543424518));
#97 = CARTESIAN_POINT('',(-0.357011150902,-6.799999999994,36.7204331098)
  );
#98 = CARTESIAN_POINT('',(1.866262141042,-6.800000000005,38.353847785598
    ));
#99 = CARTESIAN_POINT('',(4.529946232641,-6.799999999997,39.929197383409
    ));
#100 = CARTESIAN_POINT('',(7.611093904688,-6.800000000001,
    41.482529871484));
#101 = CARTESIAN_POINT('',(11.13628753076,-6.8,43.023256567299));
#102 = CARTESIAN_POINT('',(15.123157987584,-6.8,44.562573952004));
#103 = PCURVE('',#104,#109);
#104 = PLANE('',#105);
#105 = AXIS2_PLACEMENT_3D('',#106,#107,#108);
#106 = CARTESIAN_POINT('',(10.938819475872,-6.8,21.286746743836));
#107 = DIRECTION('',(1.005707384969E-16,-1.,-6.028698189562E-17));
#108 = DIRECTION('',(-7.171483643072E-02,-6.73441676044E-17,
    0.997425176259));
#109 = DEFINITIONAL_REPRESENTATION('',(#110),#186);
#110 = B_SPLINE_CURVE_WITH_KNOTS('',11,(#111,#112,#113,#114,#115,#116,
    #117,#118,#119,#120,#121,#122,#123,#124,#125,#126,#127,#128,#129,
    #130,#131,#132,#133,#134,#135,#136,#137,#138,#139,#140,#141,#142,
    #143,#144,#145,#146,#147,#148,#149,#150,#151,#152,#153,#154,#155,
    #156,#157,#158,#159,#160,#161,#162,#163,#164,#165,#166,#167,#168,
    #169,#170,#171,#172,#173,#174,#175,#176,#177,#178,#179,#180,#181,
    #182,#183,#184,#185),.UNSPECIFIED.,.F.,.F.,(12,9,9,9,9,9,9,9,12),(0.
    ,11.294323807865,16.941485711797,22.588647615729,30.209674355491,
    34.290747950712,41.465512936307,48.640277921903,62.989807893093),
  .UNSPECIFIED.);
#111 = CARTESIAN_POINT('',(-19.71238440008,22.660837561323));
#112 = CARTESIAN_POINT('',(-19.32195158552,19.8319730204));
#113 = CARTESIAN_POINT('',(-18.95416163507,17.270268569236));
#114 = CARTESIAN_POINT('',(-18.61528459436,14.9640352144));
#115 = CARTESIAN_POINT('',(-18.31308367216,12.896350198822));
#116 = CARTESIAN_POINT('',(-18.05813562231,11.059257084241));
#117 = CARTESIAN_POINT('',(-17.86573496845,9.432291900717));
#118 = CARTESIAN_POINT('',(-17.75414304358,7.988946923349));
#119 = CARTESIAN_POINT('',(-17.74814941205,6.707879249024));
#120 = CARTESIAN_POINT('',(-17.88924844999,5.548338729884));
#121 = CARTESIAN_POINT('',(-18.39317229372,3.827974101183));
#122 = CARTESIAN_POINT('',(-19.21472857475,1.87339989514));
#123 = CARTESIAN_POINT('',(-19.51757949988,1.181127876923));
#124 = CARTESIAN_POINT('',(-19.83522006069,0.434920500194));
#125 = CARTESIAN_POINT('',(-20.15055611137,-0.378874626684));
#126 = CARTESIAN_POINT('',(-20.42986232853,-1.264736851219));
#127 = CARTESIAN_POINT('',(-20.63098058327,-2.2059651805));
#128 = CARTESIAN_POINT('',(-20.72573532058,-3.163510139284));
#129 = CARTESIAN_POINT('',(-20.71102440709,-4.092203979141));
#130 = CARTESIAN_POINT('',(-20.48070562541,-5.835210447575));
#131 = CARTESIAN_POINT('',(-19.90808548258,-7.268002752123));
#132 = CARTESIAN_POINT('',(-19.55101665993,-7.886779547165));
#133 = CARTESIAN_POINT('',(-19.14472897468,-8.399501427617));
#134 = CARTESIAN_POINT('',(-18.70819283307,-8.808713959663));
#135 = CARTESIAN_POINT('',(-18.25505718202,-9.123098364458));
#136 = CARTESIAN_POINT('',(-17.7942153269,-9.35267663033));
#137 = CARTESIAN_POINT('',(-17.33140153934,-9.506338402267));
#138 = CARTESIAN_POINT('',(-16.87046745533,-9.591985123998));
#139 = CARTESIAN_POINT('',(-15.79780219621,-9.652194392321));
#140 = CARTESIAN_POINT('',(-14.75762750458,-9.416674993239));
#141 = CARTESIAN_POINT('',(-14.17457313073,-9.20007241919));
#142 = CARTESIAN_POINT('',(-13.60675836683,-8.915199468181));
#143 = CARTESIAN_POINT('',(-13.05380319169,-8.572554258246));
#144 = CARTESIAN_POINT('',(-12.51502324731,-8.180656230546));
#145 = CARTESIAN_POINT('',(-11.98981266239,-7.746543277333));
#146 = CARTESIAN_POINT('',(-11.4776961802,-7.276164294862));
#147 = CARTESIAN_POINT('',(-10.9782477076,-6.774642441755));
#148 = CARTESIAN_POINT('',(-10.23018914627,-5.963501231211));
#149 = CARTESIAN_POINT('',(-9.51078290977,-5.097858977064));
#150 = CARTESIAN_POINT('',(-9.263349456971,-4.789894506779));
#151 = CARTESIAN_POINT('',(-9.019360955322,-4.476358384981));
#152 = CARTESIAN_POINT('',(-8.778817229825,-4.157697863667));
#153 = CARTESIAN_POINT('',(-8.541727629427,-3.834301351759));
#154 = CARTESIAN_POINT('',(-8.30810828888,-3.50649490966));
#155 = CARTESIAN_POINT('',(-8.077979390463,-3.174538744367));
#156 = CARTESIAN_POINT('',(-7.851362425851,-2.838623704037));
#157 = CARTESIAN_POINT('',(-7.236081095865,-1.901557065157));
#158 = CARTESIAN_POINT('',(-6.647788176006,-0.935589773603));
#159 = CARTESIAN_POINT('',(-6.283885324183,-0.308425724242));
#160 = CARTESIAN_POINT('',(-5.930920906834,0.331043565606));
#161 = CARTESIAN_POINT('',(-5.588617469454,0.984317754802));
#162 = CARTESIAN_POINT('',(-5.256390106231,1.653820304203));
#163 = CARTESIAN_POINT('',(-4.932841052248,2.343514927656));
#164 = CARTESIAN_POINT('',(-4.614940470755,3.059301160967));
#165 = CARTESIAN_POINT('',(-4.296903083703,3.808649788751));
#166 = CARTESIAN_POINT('',(-3.640637500942,5.389227946851));
#167 = CARTESIAN_POINT('',(-2.880651656662,7.14869866398));
#168 = CARTESIAN_POINT('',(-2.459197179357,8.077568870671));
#169 = CARTESIAN_POINT('',(-1.974124194395,9.051440014675));
#170 = CARTESIAN_POINT('',(-1.402413551091,10.068079541931));
#171 = CARTESIAN_POINT('',(-0.709185173565,11.101713215309));
#172 = CARTESIAN_POINT('',(0.131125050938,12.095634211314));
#173 = CARTESIAN_POINT('',(1.105584807463,12.98231076937));
#174 = CARTESIAN_POINT('',(2.167602635142,13.713533690036));
#175 = CARTESIAN_POINT('',(5.50597434596,15.394424044653));
#176 = CARTESIAN_POINT('',(9.004776782399,15.496010186828));
#177 = CARTESIAN_POINT('',(11.149125932523,14.829155071329));
#178 = CARTESIAN_POINT('',(12.952088419561,13.668160162152));
#179 = CARTESIAN_POINT('',(14.67692161207,12.149988601323));
#180 = CARTESIAN_POINT('',(16.204025989649,10.159921560646));
#181 = CARTESIAN_POINT('',(17.673793230089,7.825232739258));
#182 = CARTESIAN_POINT('',(19.054060911423,5.055431225968));
#183 = CARTESIAN_POINT('',(20.382429840811,1.870819980791));
#184 = CARTESIAN_POINT('',(21.666380752671,-1.755789856016));
#185 = CARTESIAN_POINT('',(22.915816903747,-5.842786718596));
#186 = ( GEOMETRIC_REPRESENTATION_CONTEXT(2) 
PARAMETRIC_REPRESENTATION_CONTEXT() REPRESENTATION_CONTEXT('2D SPACE',''
  ) );
#187 = PCURVE('',#188,#339);
#188 = B_SPLINE_SURFACE_WITH_KNOTS('',1,11,(
    (#189,#190,#191,#192,#193,#194,#195,#196,#197,#198,#199,#200,#201
      ,#202,#203,#204,#205,#206,#207,#208,#209,#210,#211,#212,#213,#214
      ,#215,#216,#217,#218,#219,#220,#221,#222,#223,#224,#225,#226,#227
      ,#228,#229,#230,#231,#232,#233,#234,#235,#236,#237,#238,#239,#240
      ,#241,#242,#243,#244,#245,#246,#247,#248,#249,#250,#251,#252,#253
      ,#254,#255,#256,#257,#258,#259,#260,#261,#262,#263)
    ,(#264,#265,#266,#267,#268,#269,#270,#271,#272,#273,#274,#275,#276
      ,#277,#278,#279,#280,#281,#282,#283,#284,#285,#286,#287,#288,#289
      ,#290,#291,#292,#293,#294,#295,#296,#297,#298,#299,#300,#301,#302
      ,#303,#304,#305,#306,#307,#308,#309,#310,#311,#312,#313,#314,#315
      ,#316,#317,#318,#319,#320,#321,#322,#323,#324,#325,#326,#327,#328
      ,#329,#330,#331,#332,#333,#334,#335,#336,#337,#338
  )),.UNSPECIFIED.,.F.,.F.,.F.,(2,2),(12,9,9,9,9,9,9,9,12),(0.,13.6),(0.
    ,11.294323807865,16.941485711797,22.588647615729,30.209674355491,
    34.290747950712,41.465512936307,48.640277921903,62.989807893093),
  .UNSPECIFIED.);
#189 = CARTESIAN_POINT('',(-10.25,6.8,1.33226762955E-15));
#190 = CARTESIAN_POINT('',(-7.456419112089,6.8,0.592299076712));
#191 = CARTESIAN_POINT('',(-4.927686594501,6.800000000001,1.142854248567
    ));
#192 = CARTESIAN_POINT('',(-2.651693895604,6.799999999997,1.646249888443
    ));
#193 = CARTESIAN_POINT('',(-0.611005094197,6.800000000005,2.095956389216
    ));
#194 = CARTESIAN_POINT('',(1.203074271724,6.799999999994,2.481994824998)
  );
#195 = CARTESIAN_POINT('',(2.81205232525,6.800000000005,2.790577623099)
  );
#196 = CARTESIAN_POINT('',(4.243678147062,6.799999999997,3.005391467395)
  );
#197 = CARTESIAN_POINT('',(5.521017465623,6.800000000002,3.103241225101)
  );
#198 = CARTESIAN_POINT('',(6.687691266732,6.799999999999,3.045661750978)
  );
#199 = CARTESIAN_POINT('',(8.439765075771,6.8,2.666411090272));
#200 = CARTESIAN_POINT('',(10.448224372057,6.8,1.987142141343));
#201 = CARTESIAN_POINT('',(11.160432816407,6.800000000001,1.734717178517
    ));
#202 = CARTESIAN_POINT('',(11.927498381523,6.799999999997,1.471408626123
    ));
#203 = CARTESIAN_POINT('',(12.761812402695,6.800000000003,1.21524569461)
  );
#204 = CARTESIAN_POINT('',(13.665424087807,6.799999999998,1.000188106255
    ));
#205 = CARTESIAN_POINT('',(14.618652082793,6.800000000001,0.867087731259
    ));
#206 = CARTESIAN_POINT('',(15.580526852566,6.8,0.841247150782));
#207 = CARTESIAN_POINT('',(16.505774478723,6.8,0.922521313082));
#208 = CARTESIAN_POINT('',(18.227775738966,6.8,1.277246488281));
#209 = CARTESIAN_POINT('',(19.615813495994,6.8,1.951144700934));
#210 = CARTESIAN_POINT('',(20.20738991764,6.799999999998,2.35166961094)
  );
#211 = CARTESIAN_POINT('',(20.689654774738,6.800000000004,2.793680942811
    ));
#212 = CARTESIAN_POINT('',(21.066507538637,6.799999999995,3.258439690593
    ));
#213 = CARTESIAN_POINT('',(21.34758590992,6.800000000004,3.732954623384)
  );
#214 = CARTESIAN_POINT('',(21.543523853952,6.799999999997,4.20907405974)
  );
#215 = CARTESIAN_POINT('',(21.663599358844,6.800000000001,4.681716012209
    ));
#216 = CARTESIAN_POINT('',(21.71596974292,6.8,5.14760541284));
#217 = CARTESIAN_POINT('',(21.699097969387,6.8,6.221826645816));
#218 = CARTESIAN_POINT('',(21.389589033376,6.8,7.242432835773));
#219 = CARTESIAN_POINT('',(21.131730523723,6.800000000001,7.808452329207
    ));
#220 = CARTESIAN_POINT('',(20.806870327444,6.799999999997,8.354375453082
    ));
#221 = CARTESIAN_POINT('',(20.425452278577,6.800000000004,8.881334120936
    ));
#222 = CARTESIAN_POINT('',(19.995924803657,6.799999999996,9.390621898963
    ));
#223 = CARTESIAN_POINT('',(19.525264223577,6.800000000003,9.88334781977)
  );
#224 = CARTESIAN_POINT('',(19.019370034334,6.799999999999,
    10.360412540493));
#225 = CARTESIAN_POINT('',(18.483321646078,6.8,10.822608463647));
#226 = CARTESIAN_POINT('',(17.620622083816,6.8,11.510570046794));
#227 = CARTESIAN_POINT('',(16.705616605316,6.8,12.166044546383));
#228 = CARTESIAN_POINT('',(16.380700439667,6.799999999999,12.39075528004
    ));
#229 = CARTESIAN_POINT('',(16.050474022631,6.800000000003,
    12.611630362613));
#230 = CARTESIAN_POINT('',(15.715383442067,6.799999999996,12.82870204325
    ));
#231 = CARTESIAN_POINT('',(15.37581677726,6.800000000004,13.041988851765
    ));
#232 = CARTESIAN_POINT('',(15.032100406179,6.799999999997,13.25149807831
    ));
#233 = CARTESIAN_POINT('',(14.684495313191,6.800000000001,
    13.457228253281));
#234 = CARTESIAN_POINT('',(14.333193396333,6.8,13.659171626979));
#235 = CARTESIAN_POINT('',(13.354414738943,6.8,14.205667135259));
#236 = CARTESIAN_POINT('',(12.348745312382,6.8,14.723171118229));
#237 = CARTESIAN_POINT('',(11.697098866411,6.799999999999,
    15.041160017138));
#238 = CARTESIAN_POINT('',(11.033963311812,6.800000000003,
    15.347356177793));
#239 = CARTESIAN_POINT('',(10.357822953493,6.799999999997,
    15.641928792547));
#240 = CARTESIAN_POINT('',(9.666218624131,6.800000000003,15.925287463032
    ));
#241 = CARTESIAN_POINT('',(8.955096575292,6.799999999999,16.198542098134
    ));
#242 = CARTESIAN_POINT('',(8.218355177161,6.8,16.464291649014));
#243 = CARTESIAN_POINT('',(7.448127990824,6.8,16.727770731583));
#244 = CARTESIAN_POINT('',(5.824555563967,6.8,17.268995642065));
#245 = CARTESIAN_POINT('',(4.015112913299,6.800000000001,17.90084450207)
  );
#246 = CARTESIAN_POINT('',(3.058409844765,6.799999999998,18.254600033437
    ));
#247 = CARTESIAN_POINT('',(2.052259317531,6.800000000005,18.668583031177
    ));
#248 = CARTESIAN_POINT('',(0.997237322594,6.799999999993,19.16591348292)
  );
#249 = CARTESIAN_POINT('',(-8.344968596528E-02,6.800000000006,
    19.783230049765));
#250 = CARTESIAN_POINT('',(-1.135074220895,6.799999999996,
    20.550097741883));
#251 = CARTESIAN_POINT('',(-2.089350965146,6.800000000002,
    21.458460571974));
#252 = CARTESIAN_POINT('',(-2.894853550475,6.8,22.465304358784));
#253 = CARTESIAN_POINT('',(-4.810826689888,6.800000000001,
    25.674535574026));
#254 = CARTESIAN_POINT('',(-5.163067310084,6.799999999999,
    29.157043977318));
#255 = CARTESIAN_POINT('',(-4.65171087752,6.800000000002,31.343695211872
    ));
#256 = CARTESIAN_POINT('',(-3.623004485446,6.799999999996,
    33.225275948306));
#257 = CARTESIAN_POINT('',(-2.232438079067,6.800000000005,
    35.054543424514));
#258 = CARTESIAN_POINT('',(-0.357011150901,6.799999999995,
    36.720433109804));
#259 = CARTESIAN_POINT('',(1.866262141041,6.800000000004,38.353847785595
    ));
#260 = CARTESIAN_POINT('',(4.529946232641,6.799999999998,39.92919738341)
  );
#261 = CARTESIAN_POINT('',(7.611093904688,6.800000000001,41.482529871483
    ));
#262 = CARTESIAN_POINT('',(11.13628753076,6.8,43.023256567299));
#263 = CARTESIAN_POINT('',(15.123157987584,6.8,44.562573952004));
#264 = CARTESIAN_POINT('',(-10.25,-6.8,8.881784197001E-16));
#265 = CARTESIAN_POINT('',(-7.456419112089,-6.8,0.592299076712));
#266 = CARTESIAN_POINT('',(-4.927686594501,-6.800000000001,
    1.142854248567));
#267 = CARTESIAN_POINT('',(-2.651693895604,-6.799999999997,
    1.646249888443));
#268 = CARTESIAN_POINT('',(-0.611005094197,-6.800000000005,
    2.095956389216));
#269 = CARTESIAN_POINT('',(1.203074271724,-6.799999999994,2.481994824998
    ));
#270 = CARTESIAN_POINT('',(2.812052325249,-6.800000000005,2.790577623099
    ));
#271 = CARTESIAN_POINT('',(4.243678147063,-6.799999999997,3.005391467395
    ));
#272 = CARTESIAN_POINT('',(5.521017465623,-6.800000000002,3.103241225101
    ));
#273 = CARTESIAN_POINT('',(6.687691266732,-6.799999999999,3.045661750978
    ));
#274 = CARTESIAN_POINT('',(8.439765075771,-6.8,2.666411090272));
#275 = CARTESIAN_POINT('',(10.448224372057,-6.8,1.987142141343));
#276 = CARTESIAN_POINT('',(11.160432816406,-6.800000000001,
    1.734717178517));
#277 = CARTESIAN_POINT('',(11.927498381525,-6.799999999997,
    1.471408626123));
#278 = CARTESIAN_POINT('',(12.761812402691,-6.800000000003,1.21524569461
    ));
#279 = CARTESIAN_POINT('',(13.665424087811,-6.799999999998,
    1.000188106255));
#280 = CARTESIAN_POINT('',(14.61865208279,-6.800000000001,0.867087731259
    ));
#281 = CARTESIAN_POINT('',(15.580526852567,-6.8,0.841247150782));
#282 = CARTESIAN_POINT('',(16.505774478723,-6.8,0.922521313082));
#283 = CARTESIAN_POINT('',(18.227775738966,-6.8,1.277246488281));
#284 = CARTESIAN_POINT('',(19.615813495993,-6.8,1.951144700934));
#285 = CARTESIAN_POINT('',(20.207389917643,-6.799999999998,2.35166961094
    ));
#286 = CARTESIAN_POINT('',(20.689654774731,-6.800000000004,
    2.793680942811));
#287 = CARTESIAN_POINT('',(21.066507538646,-6.799999999995,
    3.258439690593));
#288 = CARTESIAN_POINT('',(21.347585909912,-6.800000000004,
    3.732954623384));
#289 = CARTESIAN_POINT('',(21.543523853957,-6.799999999997,4.20907405974
    ));
#290 = CARTESIAN_POINT('',(21.663599358842,-6.800000000001,
    4.681716012209));
#291 = CARTESIAN_POINT('',(21.715969742921,-6.8,5.14760541284));
#292 = CARTESIAN_POINT('',(21.699097969387,-6.8,6.221826645816));
#293 = CARTESIAN_POINT('',(21.389589033375,-6.8,7.242432835773));
#294 = CARTESIAN_POINT('',(21.131730523725,-6.800000000001,
    7.808452329207));
#295 = CARTESIAN_POINT('',(20.806870327441,-6.799999999997,
    8.354375453082));
#296 = CARTESIAN_POINT('',(20.425452278583,-6.800000000004,
    8.881334120936));
#297 = CARTESIAN_POINT('',(19.995924803651,-6.799999999996,
    9.390621898963));
#298 = CARTESIAN_POINT('',(19.525264223582,-6.800000000003,9.88334781977
    ));
#299 = CARTESIAN_POINT('',(19.019370034332,-6.799999999999,
    10.360412540493));
#300 = CARTESIAN_POINT('',(18.483321646079,-6.8,10.822608463647));
#301 = CARTESIAN_POINT('',(17.620622083815,-6.8,11.510570046794));
#302 = CARTESIAN_POINT('',(16.705616605317,-6.8,12.166044546383));
#303 = CARTESIAN_POINT('',(16.380700439666,-6.799999999999,
    12.39075528004));
#304 = CARTESIAN_POINT('',(16.050474022634,-6.800000000003,
    12.611630362613));
#305 = CARTESIAN_POINT('',(15.715383442063,-6.799999999995,
    12.828702043251));
#306 = CARTESIAN_POINT('',(15.375816777263,-6.800000000005,
    13.041988851763));
#307 = CARTESIAN_POINT('',(15.032100406176,-6.799999999997,
    13.251498078311));
#308 = CARTESIAN_POINT('',(14.684495313192,-6.800000000001,
    13.45722825328));
#309 = CARTESIAN_POINT('',(14.333193396333,-6.8,13.65917162698));
#310 = CARTESIAN_POINT('',(13.354414738943,-6.8,14.205667135259));
#311 = CARTESIAN_POINT('',(12.348745312382,-6.8,14.723171118229));
#312 = CARTESIAN_POINT('',(11.69709886641,-6.799999999999,
    15.041160017137));
#313 = CARTESIAN_POINT('',(11.033963311815,-6.800000000003,
    15.347356177795));
#314 = CARTESIAN_POINT('',(10.35782295349,-6.799999999997,
    15.641928792544));
#315 = CARTESIAN_POINT('',(9.666218624134,-6.800000000002,
    15.925287463035));
#316 = CARTESIAN_POINT('',(8.95509657529,-6.799999999999,16.198542098133
    ));
#317 = CARTESIAN_POINT('',(8.218355177162,-6.8,16.464291649015));
#318 = CARTESIAN_POINT('',(7.448127990824,-6.8,16.727770731583));
#319 = CARTESIAN_POINT('',(5.824555563967,-6.8,17.268995642066));
#320 = CARTESIAN_POINT('',(4.015112913299,-6.800000000001,
    17.900844502069));
#321 = CARTESIAN_POINT('',(3.058409844765,-6.799999999998,
    18.254600033441));
#322 = CARTESIAN_POINT('',(2.05225931753,-6.800000000005,18.66858303117)
  );
#323 = CARTESIAN_POINT('',(0.997237322594,-6.799999999994,
    19.165913482928));
#324 = CARTESIAN_POINT('',(-8.344968596556E-02,-6.800000000006,
    19.783230049757));
#325 = CARTESIAN_POINT('',(-1.135074220894,-6.799999999996,
    20.550097741889));
#326 = CARTESIAN_POINT('',(-2.089350965146,-6.800000000002,
    21.458460571971));
#327 = CARTESIAN_POINT('',(-2.894853550475,-6.8,22.465304358785));
#328 = CARTESIAN_POINT('',(-4.810826689888,-6.800000000001,
    25.674535574025));
#329 = CARTESIAN_POINT('',(-5.163067310084,-6.799999999999,
    29.157043977319));
#330 = CARTESIAN_POINT('',(-4.65171087752,-6.800000000002,31.34369521187
    ));
#331 = CARTESIAN_POINT('',(-3.623004485446,-6.799999999996,
    33.22527594831));
#332 = CARTESIAN_POINT('',(-2.232438079067,-6.800000000006,
    35.054543424509));
#333 = CARTESIAN_POINT('',(-0.357011150901,-6.799999999994,
    36.72043310981));
#334 = CARTESIAN_POINT('',(1.866262141041,-6.800000000005,38.35384778559
    ));
#335 = CARTESIAN_POINT('',(4.529946232641,-6.799999999997,
    39.929197383413));
#336 = CARTESIAN_POINT('',(7.611093904688,-6.800000000001,
    41.482529871482));
#337 = CARTESIAN_POINT('',(11.13628753076,-6.8,43.023256567299));
#338 = CARTESIAN_POINT('',(15.123157987584,-6.8,44.562573952004));
#339 = DEFINITIONAL_REPRESENTATION('',(#340),#343);
#340 = B_SPLINE_CURVE_WITH_KNOTS('',1,(#341,#342),.UNSPECIFIED.,.F.,.F.,
  (2,2),(0.,62.989807893093),.PIECEWISE_BEZIER_KNOTS.);
#341 = CARTESIAN_POINT('',(13.6,0.));
#342 = CARTESIAN_POINT('',(13.6,62.989807893093));
#343 = ( GEOMETRIC_REPRESENTATION_CONTEXT(2) 
PARAMETRIC_REPRESENTATION_CONTEXT() REPRESENTATION_CONTEXT('2D SPACE',''
  ) );
#344 = ORIENTED_EDGE('',*,*,#345,.T.);
#345 = EDGE_CURVE('',#22,#346,#348,.T.);
#346 = VERTEX_POINT('',#347);
#347 = CARTESIAN_POINT('',(10.25,-6.8,-1.7763568394E-15));
#348 = SURFACE_CURVE('',#349,(#352,#358),.PCURVE_S1.);
#349 = B_SPLINE_CURVE_WITH_KNOTS('',1,(#350,#351),.UNSPECIFIED.,.F.,.F.,
  (2,2),(0.,20.5),.PIECEWISE_BEZIER_KNOTS.);
#350 = CARTESIAN_POINT('',(-10.25,-6.8,4.440892098501E-16));
#351 = CARTESIAN_POINT('',(10.25,-6.8,-1.7763568394E-15));
#352 = PCURVE('',#104,#353);
#353 = DEFINITIONAL_REPRESENTATION('',(#354),#357);
#354 = B_SPLINE_CURVE_WITH_KNOTS('',1,(#355,#356),.UNSPECIFIED.,.F.,.F.,
  (2,2),(0.,20.5),.PIECEWISE_BEZIER_KNOTS.);
#355 = CARTESIAN_POINT('',(-19.71238440008,22.660837561323));
#356 = CARTESIAN_POINT('',(-21.18253854691,2.213621448009));
#357 = ( GEOMETRIC_REPRESENTATION_CONTEXT(2) 
PARAMETRIC_REPRESENTATION_CONTEXT() REPRESENTATION_CONTEXT('2D SPACE',''
  ) );
#358 = PCURVE('',#359,#364);
#359 = PLANE('',#360);
#360 = AXIS2_PLACEMENT_3D('',#361,#362,#363);
#361 = CARTESIAN_POINT('',(-4.167406074839E-16,2.08370303742E-16,
    -3.112531412146E-16));
#362 = DIRECTION('',(0.,0.,1.));
#363 = DIRECTION('',(1.,0.,-0.));
#364 = DEFINITIONAL_REPRESENTATION('',(#365),#368);
#365 = B_SPLINE_CURVE_WITH_KNOTS('',1,(#366,#367),.UNSPECIFIED.,.F.,.F.,
  (2,2),(0.,20.5),.PIECEWISE_BEZIER_KNOTS.);
#366 = CARTESIAN_POINT('',(-10.25,-6.8));
#367 = CARTESIAN_POINT('',(10.25,-6.8));
#368 = ( GEOMETRIC_REPRESENTATION_CONTEXT(2) 
PARAMETRIC_REPRESENTATION_CONTEXT() REPRESENTATION_CONTEXT('2D SPACE',''
  ) );
#369 = ORIENTED_EDGE('',*,*,#370,.T.);
#370 = EDGE_CURVE('',#346,#371,#373,.T.);
#371 = VERTEX_POINT('',#372);
#372 = CARTESIAN_POINT('',(35.604482012416,-6.8,45.437426047996));
#373 = SURFACE_CURVE('',#374,(#450,#529),.PCURVE_S1.);
#374 = B_SPLINE_CURVE_WITH_KNOTS('',11,(#375,#376,#377,#378,#379,#380,
    #381,#382,#383,#384,#385,#386,#387,#388,#389,#390,#391,#392,#393,
    #394,#395,#396,#397,#398,#399,#400,#401,#402,#403,#404,#405,#406,
    #407,#408,#409,#410,#411,#412,#413,#414,#415,#416,#417,#418,#419,
    #420,#421,#422,#423,#424,#425,#426,#427,#428,#429,#430,#431,#432,
    #433,#434,#435,#436,#437,#438,#439,#440,#441,#442,#443,#444,#445,
    #446,#447,#448,#449),.UNSPECIFIED.,.F.,.F.,(12,9,9,9,9,9,9,9,12),(0.
    ,11.294323807865,16.941485711797,22.588647615729,30.209674355491,
    34.290747950712,41.465512936307,48.640277921903,62.989807893093),
  .UNSPECIFIED.);
#375 = CARTESIAN_POINT('',(10.25,-6.8,-1.7763568394E-15));
#376 = CARTESIAN_POINT('',(13.04358088791,-6.8,0.97098818964));
#377 = CARTESIAN_POINT('',(15.564618479226,-6.800000000002,
    1.955776822569));
#378 = CARTESIAN_POINT('',(17.822920197794,-6.799999999996,
    2.961245345364));
#379 = CARTESIAN_POINT('',(19.822966097952,-6.800000000006,3.99538718462
    ));
#380 = CARTESIAN_POINT('',(21.57797769312,-6.799999999993,5.06964508566)
  );
#381 = CARTESIAN_POINT('',(23.088362835795,-6.800000000007,
    6.199270440662));
#382 = CARTESIAN_POINT('',(24.348288420698,-6.799999999996,
    7.402040385181));
#383 = CARTESIAN_POINT('',(25.356604694938,-6.800000000002,
    8.702613871481));
#384 = CARTESIAN_POINT('',(26.091606648162,-6.799999999999,
    10.140919864248));
#385 = CARTESIAN_POINT('',(26.648950676204,-6.800000000001,
    12.566910944072));
#386 = CARTESIAN_POINT('',(26.18457647021,-6.8,15.259689867625));
#387 = CARTESIAN_POINT('',(25.904765581047,-6.800000000001,
    16.179775527816));
#388 = CARTESIAN_POINT('',(25.490539593069,-6.799999999997,
    17.107418460821));
#389 = CARTESIAN_POINT('',(24.932246668094,-6.800000000004,
    18.024772433647));
#390 = CARTESIAN_POINT('',(24.230577094912,-6.799999999997,
    18.898060701417));
#391 = CARTESIAN_POINT('',(23.407951724822,-6.800000000002,
    19.686614371395));
#392 = CARTESIAN_POINT('',(22.508079589598,-6.799999999999,
    20.365313839825));
#393 = CARTESIAN_POINT('',(21.578974104738,-6.8,20.934487135902));
#394 = CARTESIAN_POINT('',(19.723015134316,-6.8,21.876199973144));
#395 = CARTESIAN_POINT('',(17.959493669393,-6.800000000001,
    22.490557874062));
#396 = CARTESIAN_POINT('',(17.122533391286,-6.799999999998,
    22.732298523539));
#397 = CARTESIAN_POINT('',(16.33998217222,-6.800000000005,
    22.930873231342));
#398 = CARTESIAN_POINT('',(15.610680037647,-6.799999999994,
    23.105203980728));
#399 = CARTESIAN_POINT('',(14.927728784107,-6.800000000005,
    23.268464980221));
#400 = CARTESIAN_POINT('',(14.283233942982,-6.799999999996,
    23.428990888491));
#401 = CARTESIAN_POINT('',(13.670657023247,-6.800000000002,
    23.592046670594));
#402 = CARTESIAN_POINT('',(13.084580203425,-6.8,23.761090371805));
#403 = CARTESIAN_POINT('',(11.757115542708,-6.800000000001,
    24.177298278807));
#404 = CARTESIAN_POINT('',(10.52506960455,-6.799999999999,
    24.644920407008));
#405 = CARTESIAN_POINT('',(9.839152268745,-6.800000000003,
    24.933438129944));
#406 = CARTESIAN_POINT('',(9.168637423459,-6.799999999994,25.242225586)
  );
#407 = CARTESIAN_POINT('',(8.509814419941,-6.800000000008,
    25.570600587088));
#408 = CARTESIAN_POINT('',(7.860968016649,-6.799999999992,
    25.917719291952));
#409 = CARTESIAN_POINT('',(7.221855078052,-6.800000000005,
    26.282922393581));
#410 = CARTESIAN_POINT('',(6.593309293158,-6.799999999997,
    26.665758959779));
#411 = CARTESIAN_POINT('',(5.976984437092,-6.800000000001,27.06588631348
    ));
#412 = CARTESIAN_POINT('',(5.053015048753,-6.799999999999,
    27.706433204411));
#413 = CARTESIAN_POINT('',(4.170819672871,-6.8,28.38729835739));
#414 = CARTESIAN_POINT('',(3.868720267543,-6.799999999999,
    28.629653730741));
#415 = CARTESIAN_POINT('',(3.572718093946,-6.800000000003,
    28.876935339801));
#416 = CARTESIAN_POINT('',(3.283401023328,-6.799999999996,
    29.129179995953));
#417 = CARTESIAN_POINT('',(3.001414935623,-6.800000000004,
    29.386438229989));
#418 = CARTESIAN_POINT('',(2.727467411937,-6.799999999997,
    29.648771812256));
#419 = CARTESIAN_POINT('',(2.462331427121,-6.800000000001,
    29.916251272975));
#420 = CARTESIAN_POINT('',(2.206849042249,-6.8,30.188953422365));
#421 = CARTESIAN_POINT('',(1.531362122539,-6.8,30.955708635351));
#422 = CARTESIAN_POINT('',(0.943808900611,-6.8,31.763428675765));
#423 = CARTESIAN_POINT('',(0.610314441492,-6.799999999999,
    32.295412276226));
#424 = CARTESIAN_POINT('',(0.324348119184,-6.800000000002,
    32.844804027079));
#425 = CARTESIAN_POINT('',(9.304390569419E-02,-6.799999999998,
    33.411809993853));
#426 = CARTESIAN_POINT('',(-7.552075471379E-02,-6.800000000001,
    33.996395832846));
#427 = CARTESIAN_POINT('',(-0.171673836693,-6.799999999999,
    34.597826893068));
#428 = CARTESIAN_POINT('',(-0.183695433492,-6.8,35.213879481261));
#429 = CARTESIAN_POINT('',(-9.810082927663E-02,-6.8,35.839694239433));
#430 = CARTESIAN_POINT('',(0.295703812813,-6.8,37.092790929557));
#431 = CARTESIAN_POINT('',(1.176846545365,-6.8,38.288232540065));
#432 = CARTESIAN_POINT('',(1.75038489843,-6.799999999998,38.856739719313
    ));
#433 = CARTESIAN_POINT('',(2.459974230715,-6.800000000003,
    39.374012165542));
#434 = CARTESIAN_POINT('',(3.310656828139,-6.799999999996,
    39.817305148843));
#435 = CARTESIAN_POINT('',(4.284844513562,-6.800000000004,
    40.150355266297));
#436 = CARTESIAN_POINT('',(5.333428076642,-6.799999999997,
    40.343972765335));
#437 = CARTESIAN_POINT('',(6.393740477272,-6.800000000001,
    40.406588891426));
#438 = CARTESIAN_POINT('',(7.419973624124,-6.8,40.38159308356));
#439 = CARTESIAN_POINT('',(10.359077994333,-6.800000000001,
    40.151638647393));
#440 = CARTESIAN_POINT('',(12.867832976328,-6.799999999999,
    39.75298287087));
#441 = CARTESIAN_POINT('',(14.342824836387,-6.800000000003,
    39.671713605321));
#442 = CARTESIAN_POINT('',(15.894085003732,-6.799999999995,
    39.947997118857));
#443 = CARTESIAN_POINT('',(17.722049639063,-6.800000000007,
    40.332078237062));
#444 = CARTESIAN_POINT('',(19.748664450178,-6.799999999993,
    40.938023553548));
#445 = CARTESIAN_POINT('',(22.155889810652,-6.800000000006,
    41.637932350541));
#446 = CARTESIAN_POINT('',(24.896107499879,-6.799999999997,
    42.460396759409));
#447 = CARTESIAN_POINT('',(28.037210952571,-6.800000000001,
    43.372370875435));
#448 = CARTESIAN_POINT('',(31.597564010517,-6.8,44.367445444241));
#449 = CARTESIAN_POINT('',(35.604482012416,-6.8,45.437426047996));
#450 = PCURVE('',#104,#451);
#451 = DEFINITIONAL_REPRESENTATION('',(#452),#528);
#452 = B_SPLINE_CURVE_WITH_KNOTS('',11,(#453,#454,#455,#456,#457,#458,
    #459,#460,#461,#462,#463,#464,#465,#466,#467,#468,#469,#470,#471,
    #472,#473,#474,#475,#476,#477,#478,#479,#480,#481,#482,#483,#484,
    #485,#486,#487,#488,#489,#490,#491,#492,#493,#494,#495,#496,#497,
    #498,#499,#500,#501,#502,#503,#504,#505,#506,#507,#508,#509,#510,
    #511,#512,#513,#514,#515,#516,#517,#518,#519,#520,#521,#522,#523,
    #524,#525,#526,#527),.UNSPECIFIED.,.F.,.F.,(12,9,9,9,9,9,9,9,12),(0.
    ,11.294323807865,16.941485711797,22.588647615729,30.209674355491,
    34.290747950712,41.465512936307,48.640277921903,62.989807893093),
  .UNSPECIFIED.);
#453 = CARTESIAN_POINT('',(-21.18253854691,2.213621448009));
#454 = CARTESIAN_POINT('',(-20.41439167714,-0.642400720705));
#455 = CARTESIAN_POINT('',(-19.61293449986,-3.227571040309));
#456 = CARTESIAN_POINT('',(-18.77200861965,-5.552165040646));
#457 = CARTESIAN_POINT('',(-17.88396247794,-7.621224487986));
#458 = CARTESIAN_POINT('',(-16.93833097113,-9.448757467292));
#459 = CARTESIAN_POINT('',(-15.91993122576,-11.036264532));
#460 = CARTESIAN_POINT('',(-14.81061355909,-12.37920248043));
#461 = CARTESIAN_POINT('',(-13.58570005695,-13.47819293283));
#462 = CARTESIAN_POINT('',(-12.20380799345,-14.31445026458));
#463 = CARTESIAN_POINT('',(-9.824033248868,-15.04433878346));
#464 = CARTESIAN_POINT('',(-7.104885236191,-14.77427245924));
#465 = CARTESIAN_POINT('',(-6.167102042253,-14.56116582642));
#466 = CARTESIAN_POINT('',(-5.212141477321,-14.21453215856));
#467 = CARTESIAN_POINT('',(-4.257111643489,-13.72346462957));
#468 = CARTESIAN_POINT('',(-3.335751820414,-13.08622945714));
#469 = CARTESIAN_POINT('',(-2.490234093287,-12.32227319985));
#470 = CARTESIAN_POINT('',(-1.748747973374,-11.47339089812));
#471 = CARTESIAN_POINT('',(-1.114409550339,-10.58749586595));
#472 = CARTESIAN_POINT('',(-4.202166368128E-02,-8.803850444842));
#473 = CARTESIAN_POINT('',(0.697225027327,-7.088928313229));
#474 = CARTESIAN_POINT('',(0.998365706683,-6.271459451452));
#475 = CARTESIAN_POINT('',(1.252549652289,-5.505163916533));
#476 = CARTESIAN_POINT('',(1.478733314012,-4.790241707587));
#477 = CARTESIAN_POINT('',(1.690551682645,-4.120757169023));
#478 = CARTESIAN_POINT('',(1.896884107108,-3.489433877769));
#479 = CARTESIAN_POINT('',(2.103450902911,-2.890127754373));
#480 = CARTESIAN_POINT('',(2.314089749657,-2.317682920442));
#481 = CARTESIAN_POINT('',(2.82442490567,-1.023484529221));
#482 = CARTESIAN_POINT('',(3.379198962243,0.17185366337));
#483 = CARTESIAN_POINT('',(3.716164252439,0.835313881627));
#484 = CARTESIAN_POINT('',(4.072242497677,1.481957627468));
#485 = CARTESIAN_POINT('',(4.44701937495,2.115534918385));
#486 = CARTESIAN_POINT('',(4.839776224012,2.737817095412));
#487 = CARTESIAN_POINT('',(5.249872871878,3.349093950144));
#488 = CARTESIAN_POINT('',(5.676799759549,3.948566278705));
#489 = CARTESIAN_POINT('',(6.120096492081,4.534609139177));
#490 = CARTESIAN_POINT('',(6.825256401223,5.41026275369));
#491 = CARTESIAN_POINT('',(7.567634943522,6.241358498897));
#492 = CARTESIAN_POINT('',(7.831031303943,6.525299575546));
#493 = CARTESIAN_POINT('',(8.098903953908,6.802805835572));
#494 = CARTESIAN_POINT('',(8.371247450927,7.073288281473));
#495 = CARTESIAN_POINT('',(8.64806587651,7.33609907253));
#496 = CARTESIAN_POINT('',(8.929370097893,7.590528019685));
#497 = CARTESIAN_POINT('',(9.21517502993,7.835799080299));
#498 = CARTESIAN_POINT('',(9.505496896793,8.071066853023));
#499 = CARTESIAN_POINT('',(10.318720284211,8.689826788294));
#500 = CARTESIAN_POINT('',(11.166496871095,9.217941653658));
#501 = CARTESIAN_POINT('',(11.721027208137,9.512426306435));
#502 = CARTESIAN_POINT('',(12.289512400096,9.758256776319));
#503 = CARTESIAN_POINT('',(12.871646370282,9.948302682065));
#504 = CARTESIAN_POINT('',(13.466815590828,10.074509840361));
#505 = CARTESIAN_POINT('',(14.073593674624,10.127283814993));
#506 = CARTESIAN_POINT('',(14.688922162835,10.095094347705));
#507 = CARTESIAN_POINT('',(15.306987155269,9.96483993149));
#508 = CARTESIAN_POINT('',(16.528615706793,9.482183642778));
#509 = CARTESIAN_POINT('',(17.657788258925,8.517578797892));
#510 = CARTESIAN_POINT('',(18.183700423214,7.904746805626));
#511 = CARTESIAN_POINT('',(18.64875290117,7.159888431928));
#512 = CARTESIAN_POINT('',(19.029897919845,6.279605508464));
#513 = CARTESIAN_POINT('',(19.292226781436,5.284041549925));
#514 = CARTESIAN_POINT('',(19.410146750832,4.224272657424));
#515 = CARTESIAN_POINT('',(19.396561521058,3.162199869095));
#516 = CARTESIAN_POINT('',(19.298033930725,2.140401661986));
#517 = CARTESIAN_POINT('',(18.857894197537,-0.774643887738));
#518 = CARTESIAN_POINT('',(18.280349936193,-3.24834973404));
#519 = CARTESIAN_POINT('',(18.093511124698,-4.713715537954));
#520 = CARTESIAN_POINT('',(18.257834887722,-6.280795110774));
#521 = CARTESIAN_POINT('',(18.509834879921,-8.131597373933));
#522 = CARTESIAN_POINT('',(18.968881644333,-10.19644927837));
#523 = CARTESIAN_POINT('',(19.494354526561,-12.64767030273));
#524 = CARTESIAN_POINT('',(20.118186971175,-15.43981531495));
#525 = CARTESIAN_POINT('',(20.802549194275,-18.63823305446));
#526 = CARTESIAN_POINT('',(21.539731484271,-22.26078044076));
#527 = CARTESIAN_POINT('',(22.319601607468,-26.33411481905));
#528 = ( GEOMETRIC_REPRESENTATION_CONTEXT(2) 
PARAMETRIC_REPRESENTATION_CONTEXT() REPRESENTATION_CONTEXT('2D SPACE',''
  ) );
#529 = PCURVE('',#530,#681);
#530 = B_SPLINE_SURFACE_WITH_KNOTS('',1,11,(
    (#531,#532,#533,#534,#535,#536,#537,#538,#539,#540,#541,#542,#543
      ,#544,#545,#546,#547,#548,#549,#550,#551,#552,#553,#554,#555,#556
      ,#557,#558,#559,#560,#561,#562,#563,#564,#565,#566,#567,#568,#569
      ,#570,#571,#572,#573,#574,#575,#576,#577,#578,#579,#580,#581,#582
      ,#583,#584,#585,#586,#587,#588,#589,#590,#591,#592,#593,#594,#595
      ,#596,#597,#598,#599,#600,#601,#602,#603,#604,#605)
    ,(#606,#607,#608,#609,#610,#611,#612,#613,#614,#615,#616,#617,#618
      ,#619,#620,#621,#622,#623,#624,#625,#626,#627,#628,#629,#630,#631
      ,#632,#633,#634,#635,#636,#637,#638,#639,#640,#641,#642,#643,#644
      ,#645,#646,#647,#648,#649,#650,#651,#652,#653,#654,#655,#656,#657
      ,#658,#659,#660,#661,#662,#663,#664,#665,#666,#667,#668,#669,#670
      ,#671,#672,#673,#674,#675,#676,#677,#678,#679,#680
  )),.UNSPECIFIED.,.F.,.F.,.F.,(2,2),(12,9,9,9,9,9,9,9,12),(0.,13.6),(0.
    ,11.294323807865,16.941485711797,22.588647615729,30.209674355491,
    34.290747950712,41.465512936307,48.640277921903,62.989807893093),
  .UNSPECIFIED.);
#531 = CARTESIAN_POINT('',(10.25,-6.8,-1.7763568394E-15));
#532 = CARTESIAN_POINT('',(13.04358088791,-6.8,0.97098818964));
#533 = CARTESIAN_POINT('',(15.564618479226,-6.800000000001,
    1.955776822569));
#534 = CARTESIAN_POINT('',(17.822920197794,-6.799999999997,
    2.961245345364));
#535 = CARTESIAN_POINT('',(19.822966097952,-6.800000000005,3.99538718462
    ));
#536 = CARTESIAN_POINT('',(21.57797769312,-6.799999999994,5.06964508566)
  );
#537 = CARTESIAN_POINT('',(23.088362835795,-6.800000000005,
    6.199270440662));
#538 = CARTESIAN_POINT('',(24.348288420698,-6.799999999997,
    7.402040385181));
#539 = CARTESIAN_POINT('',(25.356604694938,-6.800000000002,
    8.702613871481));
#540 = CARTESIAN_POINT('',(26.091606648162,-6.799999999999,
    10.140919864248));
#541 = CARTESIAN_POINT('',(26.648950676204,-6.8,12.566910944072));
#542 = CARTESIAN_POINT('',(26.18457647021,-6.8,15.259689867625));
#543 = CARTESIAN_POINT('',(25.904765581047,-6.800000000001,
    16.179775527816));
#544 = CARTESIAN_POINT('',(25.490539593069,-6.799999999997,
    17.107418460821));
#545 = CARTESIAN_POINT('',(24.932246668094,-6.800000000003,
    18.024772433647));
#546 = CARTESIAN_POINT('',(24.230577094912,-6.799999999998,
    18.898060701417));
#547 = CARTESIAN_POINT('',(23.407951724822,-6.800000000001,
    19.686614371395));
#548 = CARTESIAN_POINT('',(22.508079589598,-6.8,20.365313839825));
#549 = CARTESIAN_POINT('',(21.578974104738,-6.8,20.934487135902));
#550 = CARTESIAN_POINT('',(19.723015134316,-6.8,21.876199973144));
#551 = CARTESIAN_POINT('',(17.959493669393,-6.8,22.490557874062));
#552 = CARTESIAN_POINT('',(17.122533391286,-6.799999999998,
    22.732298523539));
#553 = CARTESIAN_POINT('',(16.33998217222,-6.800000000004,
    22.930873231342));
#554 = CARTESIAN_POINT('',(15.610680037647,-6.799999999995,
    23.105203980728));
#555 = CARTESIAN_POINT('',(14.927728784107,-6.800000000004,
    23.268464980221));
#556 = CARTESIAN_POINT('',(14.283233942982,-6.799999999997,
    23.428990888491));
#557 = CARTESIAN_POINT('',(13.670657023247,-6.800000000001,
    23.592046670594));
#558 = CARTESIAN_POINT('',(13.084580203425,-6.8,23.761090371805));
#559 = CARTESIAN_POINT('',(11.757115542708,-6.8,24.177298278807));
#560 = CARTESIAN_POINT('',(10.52506960455,-6.8,24.644920407008));
#561 = CARTESIAN_POINT('',(9.839152268745,-6.800000000001,
    24.933438129944));
#562 = CARTESIAN_POINT('',(9.168637423459,-6.799999999997,25.242225586)
  );
#563 = CARTESIAN_POINT('',(8.509814419941,-6.800000000004,
    25.570600587088));
#564 = CARTESIAN_POINT('',(7.860968016649,-6.799999999996,
    25.917719291952));
#565 = CARTESIAN_POINT('',(7.221855078052,-6.800000000003,
    26.282922393581));
#566 = CARTESIAN_POINT('',(6.593309293158,-6.799999999999,
    26.665758959779));
#567 = CARTESIAN_POINT('',(5.976984437092,-6.8,27.06588631348));
#568 = CARTESIAN_POINT('',(5.053015048753,-6.8,27.706433204411));
#569 = CARTESIAN_POINT('',(4.170819672871,-6.8,28.38729835739));
#570 = CARTESIAN_POINT('',(3.868720267543,-6.799999999999,
    28.629653730741));
#571 = CARTESIAN_POINT('',(3.572718093946,-6.800000000003,
    28.876935339801));
#572 = CARTESIAN_POINT('',(3.283401023328,-6.799999999996,
    29.129179995953));
#573 = CARTESIAN_POINT('',(3.001414935623,-6.800000000004,
    29.386438229989));
#574 = CARTESIAN_POINT('',(2.727467411937,-6.799999999997,
    29.648771812256));
#575 = CARTESIAN_POINT('',(2.462331427121,-6.800000000001,
    29.916251272975));
#576 = CARTESIAN_POINT('',(2.206849042249,-6.8,30.188953422365));
#577 = CARTESIAN_POINT('',(1.531362122539,-6.8,30.955708635351));
#578 = CARTESIAN_POINT('',(0.943808900611,-6.8,31.763428675765));
#579 = CARTESIAN_POINT('',(0.610314441492,-6.799999999999,
    32.295412276226));
#580 = CARTESIAN_POINT('',(0.324348119184,-6.800000000003,
    32.844804027079));
#581 = CARTESIAN_POINT('',(9.304390569419E-02,-6.799999999997,
    33.411809993853));
#582 = CARTESIAN_POINT('',(-7.552075471379E-02,-6.800000000003,
    33.996395832846));
#583 = CARTESIAN_POINT('',(-0.171673836693,-6.799999999999,
    34.597826893068));
#584 = CARTESIAN_POINT('',(-0.183695433492,-6.8,35.213879481261));
#585 = CARTESIAN_POINT('',(-9.810082927663E-02,-6.8,35.839694239433));
#586 = CARTESIAN_POINT('',(0.295703812813,-6.8,37.092790929557));
#587 = CARTESIAN_POINT('',(1.176846545365,-6.800000000001,
    38.288232540065));
#588 = CARTESIAN_POINT('',(1.75038489843,-6.799999999998,38.856739719313
    ));
#589 = CARTESIAN_POINT('',(2.459974230715,-6.800000000005,
    39.374012165542));
#590 = CARTESIAN_POINT('',(3.310656828139,-6.799999999993,
    39.817305148843));
#591 = CARTESIAN_POINT('',(4.284844513562,-6.800000000006,
    40.150355266297));
#592 = CARTESIAN_POINT('',(5.333428076642,-6.799999999996,
    40.343972765335));
#593 = CARTESIAN_POINT('',(6.393740477272,-6.800000000002,
    40.406588891426));
#594 = CARTESIAN_POINT('',(7.419973624124,-6.8,40.38159308356));
#595 = CARTESIAN_POINT('',(10.359077994333,-6.800000000001,
    40.151638647393));
#596 = CARTESIAN_POINT('',(12.867832976328,-6.799999999999,
    39.75298287087));
#597 = CARTESIAN_POINT('',(14.342824836387,-6.800000000002,
    39.671713605321));
#598 = CARTESIAN_POINT('',(15.894085003732,-6.799999999996,
    39.947997118857));
#599 = CARTESIAN_POINT('',(17.722049639063,-6.800000000005,
    40.332078237062));
#600 = CARTESIAN_POINT('',(19.748664450178,-6.799999999995,
    40.938023553548));
#601 = CARTESIAN_POINT('',(22.155889810652,-6.800000000004,
    41.637932350541));
#602 = CARTESIAN_POINT('',(24.896107499879,-6.799999999998,
    42.460396759409));
#603 = CARTESIAN_POINT('',(28.037210952571,-6.800000000001,
    43.372370875435));
#604 = CARTESIAN_POINT('',(31.597564010517,-6.8,44.367445444241));
#605 = CARTESIAN_POINT('',(35.604482012416,-6.8,45.437426047996));
#606 = CARTESIAN_POINT('',(10.25,6.8,-8.881784197001E-16));
#607 = CARTESIAN_POINT('',(13.04358088791,6.8,0.97098818964));
#608 = CARTESIAN_POINT('',(15.564618479226,6.800000000001,1.955776822569
    ));
#609 = CARTESIAN_POINT('',(17.822920197793,6.799999999997,2.961245345364
    ));
#610 = CARTESIAN_POINT('',(19.822966097952,6.800000000005,3.99538718462)
  );
#611 = CARTESIAN_POINT('',(21.57797769312,6.799999999994,5.06964508566)
  );
#612 = CARTESIAN_POINT('',(23.088362835795,6.800000000005,6.199270440662
    ));
#613 = CARTESIAN_POINT('',(24.348288420698,6.799999999997,7.402040385181
    ));
#614 = CARTESIAN_POINT('',(25.356604694938,6.800000000002,8.702613871481
    ));
#615 = CARTESIAN_POINT('',(26.091606648162,6.799999999999,
    10.140919864248));
#616 = CARTESIAN_POINT('',(26.648950676204,6.8,12.566910944072));
#617 = CARTESIAN_POINT('',(26.18457647021,6.8,15.259689867624));
#618 = CARTESIAN_POINT('',(25.904765581045,6.800000000001,
    16.179775527817));
#619 = CARTESIAN_POINT('',(25.490539593074,6.799999999997,
    17.107418460819));
#620 = CARTESIAN_POINT('',(24.932246668086,6.800000000003,
    18.024772433651));
#621 = CARTESIAN_POINT('',(24.23057709492,6.799999999998,18.898060701413
    ));
#622 = CARTESIAN_POINT('',(23.407951724816,6.800000000001,
    19.686614371397));
#623 = CARTESIAN_POINT('',(22.508079589601,6.8,20.365313839824));
#624 = CARTESIAN_POINT('',(21.578974104737,6.8,20.934487135902));
#625 = CARTESIAN_POINT('',(19.723015134316,6.8,21.876199973145));
#626 = CARTESIAN_POINT('',(17.959493669393,6.8,22.490557874061));
#627 = CARTESIAN_POINT('',(17.122533391286,6.799999999998,
    22.732298523543));
#628 = CARTESIAN_POINT('',(16.339982172222,6.800000000004,
    22.930873231333));
#629 = CARTESIAN_POINT('',(15.610680037643,6.799999999995,
    23.105203980741));
#630 = CARTESIAN_POINT('',(14.927728784111,6.800000000004,
    23.268464980209));
#631 = CARTESIAN_POINT('',(14.283233942979,6.799999999997,
    23.428990888499));
#632 = CARTESIAN_POINT('',(13.670657023248,6.800000000001,23.59204667059
    ));
#633 = CARTESIAN_POINT('',(13.084580203424,6.8,23.761090371805));
#634 = CARTESIAN_POINT('',(11.757115542709,6.8,24.177298278807));
#635 = CARTESIAN_POINT('',(10.52506960455,6.8,24.644920407008));
#636 = CARTESIAN_POINT('',(9.839152268746,6.800000000001,24.933438129945
    ));
#637 = CARTESIAN_POINT('',(9.168637423458,6.799999999997,25.242225585999
    ));
#638 = CARTESIAN_POINT('',(8.509814419942,6.800000000004,25.57060058709)
  );
#639 = CARTESIAN_POINT('',(7.860968016648,6.799999999996,25.91771929195)
  );
#640 = CARTESIAN_POINT('',(7.221855078053,6.800000000003,26.282922393582
    ));
#641 = CARTESIAN_POINT('',(6.593309293158,6.799999999999,26.665758959778
    ));
#642 = CARTESIAN_POINT('',(5.976984437092,6.8,27.06588631348));
#643 = CARTESIAN_POINT('',(5.053015048753,6.8,27.706433204411));
#644 = CARTESIAN_POINT('',(4.170819672871,6.8,28.38729835739));
#645 = CARTESIAN_POINT('',(3.868720267543,6.799999999999,28.629653730739
    ));
#646 = CARTESIAN_POINT('',(3.572718093946,6.800000000003,28.876935339806
    ));
#647 = CARTESIAN_POINT('',(3.283401023328,6.799999999995,29.129179995948
    ));
#648 = CARTESIAN_POINT('',(3.001414935622,6.800000000005,29.386438229993
    ));
#649 = CARTESIAN_POINT('',(2.727467411937,6.799999999997,29.648771812254
    ));
#650 = CARTESIAN_POINT('',(2.462331427121,6.800000000001,29.916251272976
    ));
#651 = CARTESIAN_POINT('',(2.206849042249,6.8,30.188953422365));
#652 = CARTESIAN_POINT('',(1.531362122539,6.8,30.95570863535));
#653 = CARTESIAN_POINT('',(0.943808900611,6.8,31.763428675766));
#654 = CARTESIAN_POINT('',(0.610314441492,6.799999999999,32.295412276224
    ));
#655 = CARTESIAN_POINT('',(0.324348119184,6.800000000003,32.844804027082
    ));
#656 = CARTESIAN_POINT('',(9.304390569406E-02,6.799999999997,
    33.411809993848));
#657 = CARTESIAN_POINT('',(-7.552075471367E-02,6.800000000002,
    33.996395832851));
#658 = CARTESIAN_POINT('',(-0.171673836693,6.799999999999,
    34.597826893065));
#659 = CARTESIAN_POINT('',(-0.183695433492,6.8,35.213879481263));
#660 = CARTESIAN_POINT('',(-9.810082927664E-02,6.8,35.839694239432));
#661 = CARTESIAN_POINT('',(0.295703812813,6.8,37.092790929557));
#662 = CARTESIAN_POINT('',(1.176846545365,6.800000000001,38.288232540065
    ));
#663 = CARTESIAN_POINT('',(1.750384898431,6.799999999998,38.856739719315
    ));
#664 = CARTESIAN_POINT('',(2.459974230715,6.800000000005,39.374012165538
    ));
#665 = CARTESIAN_POINT('',(3.31065682814,6.799999999994,39.81730514885)
  );
#666 = CARTESIAN_POINT('',(4.284844513562,6.800000000006,40.150355266288
    ));
#667 = CARTESIAN_POINT('',(5.333428076642,6.799999999996,40.343972765343
    ));
#668 = CARTESIAN_POINT('',(6.393740477272,6.800000000002,40.406588891422
    ));
#669 = CARTESIAN_POINT('',(7.419973624123,6.8,40.381593083561));
#670 = CARTESIAN_POINT('',(10.359077994334,6.800000000001,
    40.151638647393));
#671 = CARTESIAN_POINT('',(12.867832976327,6.799999999999,39.75298287087
    ));
#672 = CARTESIAN_POINT('',(14.342824836391,6.800000000002,
    39.671713605321));
#673 = CARTESIAN_POINT('',(15.894085003723,6.799999999996,
    39.947997118857));
#674 = CARTESIAN_POINT('',(17.722049639076,6.800000000006,
    40.332078237061));
#675 = CARTESIAN_POINT('',(19.748664450163,6.799999999994,
    40.938023553551));
#676 = CARTESIAN_POINT('',(22.155889810665,6.800000000005,
    41.637932350537));
#677 = CARTESIAN_POINT('',(24.896107499871,6.799999999997,
    42.460396759412));
#678 = CARTESIAN_POINT('',(28.037210952575,6.800000000001,
    43.372370875433));
#679 = CARTESIAN_POINT('',(31.597564010517,6.8,44.367445444242));
#680 = CARTESIAN_POINT('',(35.604482012416,6.8,45.437426047996));
#681 = DEFINITIONAL_REPRESENTATION('',(#682),#685);
#682 = B_SPLINE_CURVE_WITH_KNOTS('',1,(#683,#684),.UNSPECIFIED.,.F.,.F.,
  (2,2),(0.,62.989807893093),.PIECEWISE_BEZIER_KNOTS.);
#683 = CARTESIAN_POINT('',(0.,0.));
#684 = CARTESIAN_POINT('',(0.,62.989807893093));
#685 = ( GEOMETRIC_REPRESENTATION_CONTEXT(2) 
PARAMETRIC_REPRESENTATION_CONTEXT() REPRESENTATION_CONTEXT('2D SPACE',''
  ) );
#686 = ORIENTED_EDGE('',*,*,#687,.F.);
#687 = EDGE_CURVE('',#24,#371,#688,.T.);
#688 = SURFACE_CURVE('',#689,(#692,#698),.PCURVE_S1.);
#689 = B_SPLINE_CURVE_WITH_KNOTS('',1,(#690,#691),.UNSPECIFIED.,.F.,.F.,
  (2,2),(0.,20.5),.PIECEWISE_BEZIER_KNOTS.);
#690 = CARTESIAN_POINT('',(15.123157987584,-6.8,44.562573952004));
#691 = CARTESIAN_POINT('',(35.604482012416,-6.8,45.437426047996));
#692 = PCURVE('',#104,#693);
#693 = DEFINITIONAL_REPRESENTATION('',(#694),#697);
#694 = B_SPLINE_CURVE_WITH_KNOTS('',1,(#695,#696),.UNSPECIFIED.,.F.,.F.,
  (2,2),(0.,20.5),.PIECEWISE_BEZIER_KNOTS.);
#695 = CARTESIAN_POINT('',(22.915816903747,-5.842786718596));
#696 = CARTESIAN_POINT('',(22.319601607468,-26.33411481905));
#697 = ( GEOMETRIC_REPRESENTATION_CONTEXT(2) 
PARAMETRIC_REPRESENTATION_CONTEXT() REPRESENTATION_CONTEXT('2D SPACE',''
  ) );
#698 = PCURVE('',#699,#704);
#699 = PLANE('',#700);
#700 = AXIS2_PLACEMENT_3D('',#701,#702,#703);
#701 = CARTESIAN_POINT('',(25.36382,-6.251109112259E-16,45.));
#702 = DIRECTION('',(-4.267571199965E-02,0.,0.999088976821));
#703 = DIRECTION('',(0.999088976821,0.,4.267571199965E-02));
#704 = DEFINITIONAL_REPRESENTATION('',(#705),#708);
#705 = B_SPLINE_CURVE_WITH_KNOTS('',1,(#706,#707),.UNSPECIFIED.,.F.,.F.,
  (2,2),(0.,20.5),.PIECEWISE_BEZIER_KNOTS.);
#706 = CARTESIAN_POINT('',(-10.25,-6.8));
#707 = CARTESIAN_POINT('',(10.25,-6.8));
#708 = ( GEOMETRIC_REPRESENTATION_CONTEXT(2) 
PARAMETRIC_REPRESENTATION_CONTEXT() REPRESENTATION_CONTEXT('2D SPACE',''
  ) );
#709 = ADVANCED_FACE('',(#710),#530,.T.);
#710 = FACE_BOUND('',#711,.T.);
#711 = EDGE_LOOP('',(#712,#713,#734,#906));
#712 = ORIENTED_EDGE('',*,*,#370,.F.);
#713 = ORIENTED_EDGE('',*,*,#714,.T.);
#714 = EDGE_CURVE('',#346,#715,#717,.T.);
#715 = VERTEX_POINT('',#716);
#716 = CARTESIAN_POINT('',(10.25,6.8,-1.7763568394E-15));
#717 = SURFACE_CURVE('',#718,(#721,#728),.PCURVE_S1.);
#718 = B_SPLINE_CURVE_WITH_KNOTS('',1,(#719,#720),.UNSPECIFIED.,.F.,.F.,
  (2,2),(0.,13.6),.PIECEWISE_BEZIER_KNOTS.);
#719 = CARTESIAN_POINT('',(10.25,-6.8,-1.7763568394E-15));
#720 = CARTESIAN_POINT('',(10.25,6.8,-8.881784197001E-16));
#721 = PCURVE('',#530,#722);
#722 = DEFINITIONAL_REPRESENTATION('',(#723),#727);
#723 = LINE('',#724,#725);
#724 = CARTESIAN_POINT('',(0.,0.));
#725 = VECTOR('',#726,1.);
#726 = DIRECTION('',(1.,0.));
#727 = ( GEOMETRIC_REPRESENTATION_CONTEXT(2) 
PARAMETRIC_REPRESENTATION_CONTEXT() REPRESENTATION_CONTEXT('2D SPACE',''
  ) );
#728 = PCURVE('',#359,#729);
#729 = DEFINITIONAL_REPRESENTATION('',(#730),#733);
#730 = B_SPLINE_CURVE_WITH_KNOTS('',1,(#731,#732),.UNSPECIFIED.,.F.,.F.,
  (2,2),(0.,13.6),.PIECEWISE_BEZIER_KNOTS.);
#731 = CARTESIAN_POINT('',(10.25,-6.8));
#732 = CARTESIAN_POINT('',(10.25,6.8));
#733 = ( GEOMETRIC_REPRESENTATION_CONTEXT(2) 
PARAMETRIC_REPRESENTATION_CONTEXT() REPRESENTATION_CONTEXT('2D SPACE',''
  ) );
#734 = ORIENTED_EDGE('',*,*,#735,.T.);
#735 = EDGE_CURVE('',#715,#736,#738,.T.);
#736 = VERTEX_POINT('',#737);
#737 = CARTESIAN_POINT('',(35.604482012416,6.8,45.437426047996));
#738 = SURFACE_CURVE('',#739,(#815,#822),.PCURVE_S1.);
#739 = B_SPLINE_CURVE_WITH_KNOTS('',11,(#740,#741,#742,#743,#744,#745,
    #746,#747,#748,#749,#750,#751,#752,#753,#754,#755,#756,#757,#758,
    #759,#760,#761,#762,#763,#764,#765,#766,#767,#768,#769,#770,#771,
    #772,#773,#774,#775,#776,#777,#778,#779,#780,#781,#782,#783,#784,
    #785,#786,#787,#788,#789,#790,#791,#792,#793,#794,#795,#796,#797,
    #798,#799,#800,#801,#802,#803,#804,#805,#806,#807,#808,#809,#810,
    #811,#812,#813,#814),.UNSPECIFIED.,.F.,.F.,(12,9,9,9,9,9,9,9,12),(0.
    ,11.294323807865,16.941485711797,22.588647615729,30.209674355491,
    34.290747950712,41.465512936307,48.640277921903,62.989807893093),
  .UNSPECIFIED.);
#740 = CARTESIAN_POINT('',(10.25,6.8,-8.881784197001E-16));
#741 = CARTESIAN_POINT('',(13.04358088791,6.8,0.97098818964));
#742 = CARTESIAN_POINT('',(15.564618479226,6.800000000001,1.955776822569
    ));
#743 = CARTESIAN_POINT('',(17.822920197793,6.799999999997,2.961245345364
    ));
#744 = CARTESIAN_POINT('',(19.822966097952,6.800000000005,3.99538718462)
  );
#745 = CARTESIAN_POINT('',(21.57797769312,6.799999999994,5.06964508566)
  );
#746 = CARTESIAN_POINT('',(23.088362835795,6.800000000005,6.199270440662
    ));
#747 = CARTESIAN_POINT('',(24.348288420698,6.799999999997,7.402040385181
    ));
#748 = CARTESIAN_POINT('',(25.356604694938,6.800000000002,8.702613871481
    ));
#749 = CARTESIAN_POINT('',(26.091606648162,6.799999999999,
    10.140919864248));
#750 = CARTESIAN_POINT('',(26.648950676204,6.8,12.566910944072));
#751 = CARTESIAN_POINT('',(26.18457647021,6.8,15.259689867624));
#752 = CARTESIAN_POINT('',(25.904765581045,6.800000000001,
    16.179775527817));
#753 = CARTESIAN_POINT('',(25.490539593074,6.799999999997,
    17.107418460819));
#754 = CARTESIAN_POINT('',(24.932246668086,6.800000000003,
    18.024772433651));
#755 = CARTESIAN_POINT('',(24.23057709492,6.799999999998,18.898060701413
    ));
#756 = CARTESIAN_POINT('',(23.407951724816,6.800000000001,
    19.686614371397));
#757 = CARTESIAN_POINT('',(22.508079589601,6.8,20.365313839824));
#758 = CARTESIAN_POINT('',(21.578974104737,6.8,20.934487135902));
#759 = CARTESIAN_POINT('',(19.723015134316,6.8,21.876199973145));
#760 = CARTESIAN_POINT('',(17.959493669393,6.8,22.490557874061));
#761 = CARTESIAN_POINT('',(17.122533391286,6.799999999998,
    22.732298523543));
#762 = CARTESIAN_POINT('',(16.339982172222,6.800000000004,
    22.930873231333));
#763 = CARTESIAN_POINT('',(15.610680037643,6.799999999995,
    23.105203980741));
#764 = CARTESIAN_POINT('',(14.927728784111,6.800000000004,
    23.268464980209));
#765 = CARTESIAN_POINT('',(14.283233942979,6.799999999997,
    23.428990888499));
#766 = CARTESIAN_POINT('',(13.670657023248,6.800000000001,23.59204667059
    ));
#767 = CARTESIAN_POINT('',(13.084580203424,6.8,23.761090371805));
#768 = CARTESIAN_POINT('',(11.757115542709,6.8,24.177298278807));
#769 = CARTESIAN_POINT('',(10.52506960455,6.8,24.644920407008));
#770 = CARTESIAN_POINT('',(9.839152268746,6.800000000001,24.933438129945
    ));
#771 = CARTESIAN_POINT('',(9.168637423458,6.799999999997,25.242225585999
    ));
#772 = CARTESIAN_POINT('',(8.509814419942,6.800000000004,25.57060058709)
  );
#773 = CARTESIAN_POINT('',(7.860968016648,6.799999999996,25.91771929195)
  );
#774 = CARTESIAN_POINT('',(7.221855078053,6.800000000003,26.282922393582
    ));
#775 = CARTESIAN_POINT('',(6.593309293158,6.799999999999,26.665758959778
    ));
#776 = CARTESIAN_POINT('',(5.976984437092,6.8,27.06588631348));
#777 = CARTESIAN_POINT('',(5.053015048753,6.8,27.706433204411));
#778 = CARTESIAN_POINT('',(4.170819672871,6.8,28.38729835739));
#779 = CARTESIAN_POINT('',(3.868720267543,6.799999999999,28.629653730739
    ));
#780 = CARTESIAN_POINT('',(3.572718093946,6.800000000003,28.876935339806
    ));
#781 = CARTESIAN_POINT('',(3.283401023328,6.799999999995,29.129179995948
    ));
#782 = CARTESIAN_POINT('',(3.001414935622,6.800000000005,29.386438229993
    ));
#783 = CARTESIAN_POINT('',(2.727467411937,6.799999999997,29.648771812254
    ));
#784 = CARTESIAN_POINT('',(2.462331427121,6.800000000001,29.916251272976
    ));
#785 = CARTESIAN_POINT('',(2.206849042249,6.8,30.188953422365));
#786 = CARTESIAN_POINT('',(1.531362122539,6.8,30.95570863535));
#787 = CARTESIAN_POINT('',(0.943808900611,6.8,31.763428675766));
#788 = CARTESIAN_POINT('',(0.610314441492,6.799999999999,32.295412276224
    ));
#789 = CARTESIAN_POINT('',(0.324348119184,6.800000000003,32.844804027082
    ));
#790 = CARTESIAN_POINT('',(9.304390569406E-02,6.799999999997,
    33.411809993848));
#791 = CARTESIAN_POINT('',(-7.552075471367E-02,6.800000000002,
    33.996395832851));
#792 = CARTESIAN_POINT('',(-0.171673836693,6.799999999999,
    34.597826893065));
#793 = CARTESIAN_POINT('',(-0.183695433492,6.8,35.213879481263));
#794 = CARTESIAN_POINT('',(-9.810082927664E-02,6.8,35.839694239432));
#795 = CARTESIAN_POINT('',(0.295703812813,6.8,37.092790929557));
#796 = CARTESIAN_POINT('',(1.176846545365,6.800000000001,38.288232540065
    ));
#797 = CARTESIAN_POINT('',(1.750384898431,6.799999999998,38.856739719315
    ));
#798 = CARTESIAN_POINT('',(2.459974230715,6.800000000005,39.374012165538
    ));
#799 = CARTESIAN_POINT('',(3.31065682814,6.799999999994,39.81730514885)
  );
#800 = CARTESIAN_POINT('',(4.284844513562,6.800000000006,40.150355266288
    ));
#801 = CARTESIAN_POINT('',(5.333428076642,6.799999999996,40.343972765343
    ));
#802 = CARTESIAN_POINT('',(6.393740477272,6.800000000002,40.406588891422
    ));
#803 = CARTESIAN_POINT('',(7.419973624123,6.8,40.381593083561));
#804 = CARTESIAN_POINT('',(10.359077994334,6.800000000001,
    40.151638647393));
#805 = CARTESIAN_POINT('',(12.867832976327,6.799999999999,39.75298287087
    ));
#806 = CARTESIAN_POINT('',(14.342824836391,6.800000000002,
    39.671713605321));
#807 = CARTESIAN_POINT('',(15.894085003723,6.799999999996,
    39.947997118857));
#808 = CARTESIAN_POINT('',(17.722049639076,6.800000000006,
    40.332078237061));
#809 = CARTESIAN_POINT('',(19.748664450163,6.799999999994,
    40.938023553551));
#810 = CARTESIAN_POINT('',(22.155889810665,6.800000000005,
    41.637932350537));
#811 = CARTESIAN_POINT('',(24.896107499871,6.799999999997,
    42.460396759412));
#812 = CARTESIAN_POINT('',(28.037210952575,6.800000000001,
    43.372370875433));
#813 = CARTESIAN_POINT('',(31.597564010517,6.8,44.367445444242));
#814 = CARTESIAN_POINT('',(35.604482012416,6.8,45.437426047996));
#815 = PCURVE('',#530,#816);
#816 = DEFINITIONAL_REPRESENTATION('',(#817),#821);
#817 = LINE('',#818,#819);
#818 = CARTESIAN_POINT('',(13.6,0.));
#819 = VECTOR('',#820,1.);
#820 = DIRECTION('',(0.,1.));
#821 = ( GEOMETRIC_REPRESENTATION_CONTEXT(2) 
PARAMETRIC_REPRESENTATION_CONTEXT() REPRESENTATION_CONTEXT('2D SPACE',''
  ) );
#822 = PCURVE('',#823,#828);
#823 = PLANE('',#824);
#824 = AXIS2_PLACEMENT_3D('',#825,#826,#827);
#825 = CARTESIAN_POINT('',(10.938819475872,6.8,21.286746743836));
#826 = DIRECTION('',(1.416601314901E-16,1.,-5.102870097933E-17));
#827 = DIRECTION('',(7.171483643072E-02,-6.105644422716E-17,
    -0.997425176259));
#828 = DEFINITIONAL_REPRESENTATION('',(#829),#905);
#829 = B_SPLINE_CURVE_WITH_KNOTS('',11,(#830,#831,#832,#833,#834,#835,
    #836,#837,#838,#839,#840,#841,#842,#843,#844,#845,#846,#847,#848,
    #849,#850,#851,#852,#853,#854,#855,#856,#857,#858,#859,#860,#861,
    #862,#863,#864,#865,#866,#867,#868,#869,#870,#871,#872,#873,#874,
    #875,#876,#877,#878,#879,#880,#881,#882,#883,#884,#885,#886,#887,
    #888,#889,#890,#891,#892,#893,#894,#895,#896,#897,#898,#899,#900,
    #901,#902,#903,#904),.UNSPECIFIED.,.F.,.F.,(12,9,9,9,9,9,9,9,12),(0.
    ,11.294323807865,16.941485711797,22.588647615729,30.209674355491,
    34.290747950712,41.465512936307,48.640277921903,62.989807893093),
  .UNSPECIFIED.);
#830 = CARTESIAN_POINT('',(21.182538546913,2.213621448009));
#831 = CARTESIAN_POINT('',(20.414391677148,-0.642400720705));
#832 = CARTESIAN_POINT('',(19.612934499868,-3.227571040309));
#833 = CARTESIAN_POINT('',(18.772008619655,-5.552165040646));
#834 = CARTESIAN_POINT('',(17.883962477942,-7.621224487987));
#835 = CARTESIAN_POINT('',(16.93833097113,-9.448757467291));
#836 = CARTESIAN_POINT('',(15.919931225765,-11.036264532));
#837 = CARTESIAN_POINT('',(14.81061355909,-12.37920248043));
#838 = CARTESIAN_POINT('',(13.585700056957,-13.47819293283));
#839 = CARTESIAN_POINT('',(12.203807993458,-14.31445026458));
#840 = CARTESIAN_POINT('',(9.824033248868,-15.04433878346));
#841 = CARTESIAN_POINT('',(7.104885236191,-14.77427245924));
#842 = CARTESIAN_POINT('',(6.167102042252,-14.56116582642));
#843 = CARTESIAN_POINT('',(5.212141477324,-14.21453215856));
#844 = CARTESIAN_POINT('',(4.257111643484,-13.72346462956));
#845 = CARTESIAN_POINT('',(3.335751820418,-13.08622945715));
#846 = CARTESIAN_POINT('',(2.490234093283,-12.32227319984));
#847 = CARTESIAN_POINT('',(1.748747973376,-11.47339089813));
#848 = CARTESIAN_POINT('',(1.114409550339,-10.58749586595));
#849 = CARTESIAN_POINT('',(4.202166368084E-02,-8.803850444842));
#850 = CARTESIAN_POINT('',(-0.697225027326,-7.088928313229));
#851 = CARTESIAN_POINT('',(-0.998365706688,-6.271459451452));
#852 = CARTESIAN_POINT('',(-1.25254965228,-5.505163916534));
#853 = CARTESIAN_POINT('',(-1.478733314025,-4.790241707584));
#854 = CARTESIAN_POINT('',(-1.690551682633,-4.120757169026));
#855 = CARTESIAN_POINT('',(-1.896884107116,-3.489433877767));
#856 = CARTESIAN_POINT('',(-2.103450902908,-2.890127754374));
#857 = CARTESIAN_POINT('',(-2.314089749657,-2.317682920442));
#858 = CARTESIAN_POINT('',(-2.82442490567,-1.023484529222));
#859 = CARTESIAN_POINT('',(-3.379198962243,0.17185366337));
#860 = CARTESIAN_POINT('',(-3.71616425244,0.835313881626));
#861 = CARTESIAN_POINT('',(-4.072242497676,1.481957627469));
#862 = CARTESIAN_POINT('',(-4.447019374952,2.115534918384));
#863 = CARTESIAN_POINT('',(-4.839776224011,2.737817095413));
#864 = CARTESIAN_POINT('',(-5.249872871879,3.349093950143));
#865 = CARTESIAN_POINT('',(-5.676799759548,3.948566278705));
#866 = CARTESIAN_POINT('',(-6.120096492081,4.534609139176));
#867 = CARTESIAN_POINT('',(-6.825256401222,5.41026275369));
#868 = CARTESIAN_POINT('',(-7.567634943523,6.241358498897));
#869 = CARTESIAN_POINT('',(-7.831031303941,6.525299575546));
#870 = CARTESIAN_POINT('',(-8.098903953913,6.802805835572));
#871 = CARTESIAN_POINT('',(-8.371247450922,7.073288281472));
#872 = CARTESIAN_POINT('',(-8.648065876514,7.33609907253));
#873 = CARTESIAN_POINT('',(-8.929370097891,7.590528019685));
#874 = CARTESIAN_POINT('',(-9.21517502993,7.835799080299));
#875 = CARTESIAN_POINT('',(-9.505496896793,8.071066853023));
#876 = CARTESIAN_POINT('',(-10.31872028421,8.689826788294));
#877 = CARTESIAN_POINT('',(-11.16649687109,9.217941653657));
#878 = CARTESIAN_POINT('',(-11.72102720813,9.512426306435));
#879 = CARTESIAN_POINT('',(-12.2895124001,9.758256776318));
#880 = CARTESIAN_POINT('',(-12.87164637027,9.948302682066));
#881 = CARTESIAN_POINT('',(-13.46681559083,10.07450984036));
#882 = CARTESIAN_POINT('',(-14.07359367462,10.127283814994));
#883 = CARTESIAN_POINT('',(-14.68892216283,10.095094347704));
#884 = CARTESIAN_POINT('',(-15.30698715526,9.96483993149));
#885 = CARTESIAN_POINT('',(-16.52861570679,9.482183642778));
#886 = CARTESIAN_POINT('',(-17.65778825892,8.517578797892));
#887 = CARTESIAN_POINT('',(-18.18370042321,7.904746805625));
#888 = CARTESIAN_POINT('',(-18.64875290116,7.159888431929));
#889 = CARTESIAN_POINT('',(-19.02989791985,6.279605508463));
#890 = CARTESIAN_POINT('',(-19.29222678142,5.284041549926));
#891 = CARTESIAN_POINT('',(-19.41014675083,4.224272657424));
#892 = CARTESIAN_POINT('',(-19.39656152105,3.162199869095));
#893 = CARTESIAN_POINT('',(-19.29803393072,2.140401661986));
#894 = CARTESIAN_POINT('',(-18.85789419753,-0.774643887739));
#895 = CARTESIAN_POINT('',(-18.28034993619,-3.248349734039));
#896 = CARTESIAN_POINT('',(-18.09351112469,-4.713715537959));
#897 = CARTESIAN_POINT('',(-18.25783488772,-6.280795110765));
#898 = CARTESIAN_POINT('',(-18.50983487991,-8.131597373946));
#899 = CARTESIAN_POINT('',(-18.96888164433,-10.19644927836));
#900 = CARTESIAN_POINT('',(-19.49435452655,-12.64767030274));
#901 = CARTESIAN_POINT('',(-20.11818697117,-15.43981531494));
#902 = CARTESIAN_POINT('',(-20.80254919427,-18.63823305446));
#903 = CARTESIAN_POINT('',(-21.53973148427,-22.26078044076));
#904 = CARTESIAN_POINT('',(-22.31960160746,-26.33411481905));
#905 = ( GEOMETRIC_REPRESENTATION_CONTEXT(2) 
PARAMETRIC_REPRESENTATION_CONTEXT() REPRESENTATION_CONTEXT('2D SPACE',''
  ) );
#906 = ORIENTED_EDGE('',*,*,#907,.F.);
#907 = EDGE_CURVE('',#371,#736,#908,.T.);
#908 = SURFACE_CURVE('',#909,(#912,#919),.PCURVE_S1.);
#909 = B_SPLINE_CURVE_WITH_KNOTS('',1,(#910,#911),.UNSPECIFIED.,.F.,.F.,
  (2,2),(0.,13.6),.PIECEWISE_BEZIER_KNOTS.);
#910 = CARTESIAN_POINT('',(35.604482012416,-6.8,45.437426047996));
#911 = CARTESIAN_POINT('',(35.604482012416,6.8,45.437426047996));
#912 = PCURVE('',#530,#913);
#913 = DEFINITIONAL_REPRESENTATION('',(#914),#918);
#914 = LINE('',#915,#916);
#915 = CARTESIAN_POINT('',(0.,62.989807893093));
#916 = VECTOR('',#917,1.);
#917 = DIRECTION('',(1.,0.));
#918 = ( GEOMETRIC_REPRESENTATION_CONTEXT(2) 
PARAMETRIC_REPRESENTATION_CONTEXT() REPRESENTATION_CONTEXT('2D SPACE',''
  ) );
#919 = PCURVE('',#699,#920);
#920 = DEFINITIONAL_REPRESENTATION('',(#921),#924);
#921 = B_SPLINE_CURVE_WITH_KNOTS('',1,(#922,#923),.UNSPECIFIED.,.F.,.F.,
  (2,2),(0.,13.6),.PIECEWISE_BEZIER_KNOTS.);
#922 = CARTESIAN_POINT('',(10.25,-6.8));
#923 = CARTESIAN_POINT('',(10.25,6.8));
#924 = ( GEOMETRIC_REPRESENTATION_CONTEXT(2) 
PARAMETRIC_REPRESENTATION_CONTEXT() REPRESENTATION_CONTEXT('2D SPACE',''
  ) );
#925 = ADVANCED_FACE('',(#926),#823,.T.);
#926 = FACE_BOUND('',#927,.T.);
#927 = EDGE_LOOP('',(#928,#929,#949,#1115));
#928 = ORIENTED_EDGE('',*,*,#735,.F.);
#929 = ORIENTED_EDGE('',*,*,#930,.T.);
#930 = EDGE_CURVE('',#715,#931,#933,.T.);
#931 = VERTEX_POINT('',#932);
#932 = CARTESIAN_POINT('',(-10.25,6.8,1.33226762955E-15));
#933 = SURFACE_CURVE('',#934,(#937,#943),.PCURVE_S1.);
#934 = B_SPLINE_CURVE_WITH_KNOTS('',1,(#935,#936),.UNSPECIFIED.,.F.,.F.,
  (2,2),(0.,20.5),.PIECEWISE_BEZIER_KNOTS.);
#935 = CARTESIAN_POINT('',(10.25,6.8,-1.7763568394E-15));
#936 = CARTESIAN_POINT('',(-10.25,6.8,1.33226762955E-15));
#937 = PCURVE('',#823,#938);
#938 = DEFINITIONAL_REPRESENTATION('',(#939),#942);
#939 = B_SPLINE_CURVE_WITH_KNOTS('',1,(#940,#941),.UNSPECIFIED.,.F.,.F.,
  (2,2),(0.,20.5),.PIECEWISE_BEZIER_KNOTS.);
#940 = CARTESIAN_POINT('',(21.182538546913,2.213621448009));
#941 = CARTESIAN_POINT('',(19.712384400083,22.660837561323));
#942 = ( GEOMETRIC_REPRESENTATION_CONTEXT(2) 
PARAMETRIC_REPRESENTATION_CONTEXT() REPRESENTATION_CONTEXT('2D SPACE',''
  ) );
#943 = PCURVE('',#359,#944);
#944 = DEFINITIONAL_REPRESENTATION('',(#945),#948);
#945 = B_SPLINE_CURVE_WITH_KNOTS('',1,(#946,#947),.UNSPECIFIED.,.F.,.F.,
  (2,2),(0.,20.5),.PIECEWISE_BEZIER_KNOTS.);
#946 = CARTESIAN_POINT('',(10.25,6.8));
#947 = CARTESIAN_POINT('',(-10.25,6.8));
#948 = ( GEOMETRIC_REPRESENTATION_CONTEXT(2) 
PARAMETRIC_REPRESENTATION_CONTEXT() REPRESENTATION_CONTEXT('2D SPACE',''
  ) );
#949 = ORIENTED_EDGE('',*,*,#950,.T.);
#950 = EDGE_CURVE('',#931,#951,#953,.T.);
#951 = VERTEX_POINT('',#952);
#952 = CARTESIAN_POINT('',(15.123157987584,6.8,44.562573952004));
#953 = SURFACE_CURVE('',#954,(#1030,#1109),.PCURVE_S1.);
#954 = B_SPLINE_CURVE_WITH_KNOTS('',11,(#955,#956,#957,#958,#959,#960,
    #961,#962,#963,#964,#965,#966,#967,#968,#969,#970,#971,#972,#973,
    #974,#975,#976,#977,#978,#979,#980,#981,#982,#983,#984,#985,#986,
    #987,#988,#989,#990,#991,#992,#993,#994,#995,#996,#997,#998,#999,
    #1000,#1001,#1002,#1003,#1004,#1005,#1006,#1007,#1008,#1009,#1010,
    #1011,#1012,#1013,#1014,#1015,#1016,#1017,#1018,#1019,#1020,#1021,
    #1022,#1023,#1024,#1025,#1026,#1027,#1028,#1029),.UNSPECIFIED.,.F.,
  .F.,(12,9,9,9,9,9,9,9,12),(0.,11.294323807865,16.941485711797,
    22.588647615729,30.209674355491,34.290747950712,41.465512936307,
    48.640277921903,62.989807893093),.UNSPECIFIED.);
#955 = CARTESIAN_POINT('',(-10.25,6.8,1.33226762955E-15));
#956 = CARTESIAN_POINT('',(-7.456419112089,6.8,0.592299076712));
#957 = CARTESIAN_POINT('',(-4.927686594501,6.800000000002,1.142854248567
    ));
#958 = CARTESIAN_POINT('',(-2.651693895604,6.799999999996,1.646249888443
    ));
#959 = CARTESIAN_POINT('',(-0.611005094197,6.800000000006,2.095956389216
    ));
#960 = CARTESIAN_POINT('',(1.203074271724,6.799999999993,2.481994824998)
  );
#961 = CARTESIAN_POINT('',(2.81205232525,6.800000000007,2.790577623099)
  );
#962 = CARTESIAN_POINT('',(4.243678147062,6.799999999996,3.005391467395)
  );
#963 = CARTESIAN_POINT('',(5.521017465623,6.800000000002,3.103241225101)
  );
#964 = CARTESIAN_POINT('',(6.687691266732,6.799999999999,3.045661750978)
  );
#965 = CARTESIAN_POINT('',(8.439765075771,6.800000000001,2.666411090272)
  );
#966 = CARTESIAN_POINT('',(10.448224372057,6.8,1.987142141343));
#967 = CARTESIAN_POINT('',(11.160432816407,6.800000000001,1.734717178517
    ));
#968 = CARTESIAN_POINT('',(11.927498381523,6.799999999997,1.471408626123
    ));
#969 = CARTESIAN_POINT('',(12.761812402695,6.800000000004,1.21524569461)
  );
#970 = CARTESIAN_POINT('',(13.665424087807,6.799999999997,1.000188106255
    ));
#971 = CARTESIAN_POINT('',(14.618652082793,6.800000000002,0.867087731259
    ));
#972 = CARTESIAN_POINT('',(15.580526852566,6.799999999999,0.841247150782
    ));
#973 = CARTESIAN_POINT('',(16.505774478723,6.8,0.922521313082));
#974 = CARTESIAN_POINT('',(18.227775738966,6.8,1.277246488281));
#975 = CARTESIAN_POINT('',(19.615813495994,6.800000000001,1.951144700934
    ));
#976 = CARTESIAN_POINT('',(20.20738991764,6.799999999998,2.35166961094)
  );
#977 = CARTESIAN_POINT('',(20.689654774738,6.800000000005,2.793680942811
    ));
#978 = CARTESIAN_POINT('',(21.066507538637,6.799999999994,3.258439690593
    ));
#979 = CARTESIAN_POINT('',(21.34758590992,6.800000000005,3.732954623384)
  );
#980 = CARTESIAN_POINT('',(21.543523853952,6.799999999996,4.20907405974)
  );
#981 = CARTESIAN_POINT('',(21.663599358844,6.800000000002,4.681716012209
    ));
#982 = CARTESIAN_POINT('',(21.71596974292,6.8,5.14760541284));
#983 = CARTESIAN_POINT('',(21.699097969387,6.800000000001,6.221826645816
    ));
#984 = CARTESIAN_POINT('',(21.389589033376,6.799999999999,7.242432835773
    ));
#985 = CARTESIAN_POINT('',(21.131730523723,6.800000000003,7.808452329207
    ));
#986 = CARTESIAN_POINT('',(20.806870327444,6.799999999994,8.354375453082
    ));
#987 = CARTESIAN_POINT('',(20.425452278577,6.800000000008,8.881334120936
    ));
#988 = CARTESIAN_POINT('',(19.995924803657,6.799999999992,9.390621898963
    ));
#989 = CARTESIAN_POINT('',(19.525264223577,6.800000000005,9.88334781977)
  );
#990 = CARTESIAN_POINT('',(19.019370034334,6.799999999997,
    10.360412540493));
#991 = CARTESIAN_POINT('',(18.483321646078,6.800000000001,
    10.822608463647));
#992 = CARTESIAN_POINT('',(17.620622083816,6.799999999999,
    11.510570046794));
#993 = CARTESIAN_POINT('',(16.705616605316,6.8,12.166044546383));
#994 = CARTESIAN_POINT('',(16.380700439667,6.799999999999,12.39075528004
    ));
#995 = CARTESIAN_POINT('',(16.050474022631,6.800000000003,
    12.611630362613));
#996 = CARTESIAN_POINT('',(15.715383442067,6.799999999996,12.82870204325
    ));
#997 = CARTESIAN_POINT('',(15.37581677726,6.800000000004,13.041988851765
    ));
#998 = CARTESIAN_POINT('',(15.032100406179,6.799999999997,13.25149807831
    ));
#999 = CARTESIAN_POINT('',(14.684495313191,6.800000000001,
    13.457228253281));
#1000 = CARTESIAN_POINT('',(14.333193396333,6.8,13.659171626979));
#1001 = CARTESIAN_POINT('',(13.354414738943,6.8,14.205667135259));
#1002 = CARTESIAN_POINT('',(12.348745312382,6.8,14.723171118229));
#1003 = CARTESIAN_POINT('',(11.697098866411,6.799999999999,
    15.041160017138));
#1004 = CARTESIAN_POINT('',(11.033963311812,6.800000000002,
    15.347356177793));
#1005 = CARTESIAN_POINT('',(10.357822953493,6.799999999998,
    15.641928792547));
#1006 = CARTESIAN_POINT('',(9.666218624131,6.800000000001,
    15.925287463032));
#1007 = CARTESIAN_POINT('',(8.955096575292,6.799999999999,
    16.198542098134));
#1008 = CARTESIAN_POINT('',(8.218355177161,6.8,16.464291649014));
#1009 = CARTESIAN_POINT('',(7.448127990824,6.8,16.727770731583));
#1010 = CARTESIAN_POINT('',(5.824555563967,6.8,17.268995642065));
#1011 = CARTESIAN_POINT('',(4.015112913299,6.8,17.90084450207));
#1012 = CARTESIAN_POINT('',(3.058409844765,6.799999999998,
    18.254600033437));
#1013 = CARTESIAN_POINT('',(2.052259317531,6.800000000003,
    18.668583031177));
#1014 = CARTESIAN_POINT('',(0.997237322594,6.799999999996,19.16591348292
    ));
#1015 = CARTESIAN_POINT('',(-8.344968596528E-02,6.800000000004,
    19.783230049765));
#1016 = CARTESIAN_POINT('',(-1.135074220895,6.799999999997,
    20.550097741883));
#1017 = CARTESIAN_POINT('',(-2.089350965146,6.800000000001,
    21.458460571974));
#1018 = CARTESIAN_POINT('',(-2.894853550475,6.8,22.465304358784));
#1019 = CARTESIAN_POINT('',(-4.810826689888,6.800000000001,
    25.674535574026));
#1020 = CARTESIAN_POINT('',(-5.163067310084,6.799999999999,
    29.157043977318));
#1021 = CARTESIAN_POINT('',(-4.65171087752,6.800000000003,
    31.343695211872));
#1022 = CARTESIAN_POINT('',(-3.623004485446,6.799999999995,
    33.225275948306));
#1023 = CARTESIAN_POINT('',(-2.232438079067,6.800000000007,
    35.054543424514));
#1024 = CARTESIAN_POINT('',(-0.357011150901,6.799999999993,
    36.720433109804));
#1025 = CARTESIAN_POINT('',(1.866262141041,6.800000000006,
    38.353847785595));
#1026 = CARTESIAN_POINT('',(4.529946232641,6.799999999997,39.92919738341
    ));
#1027 = CARTESIAN_POINT('',(7.611093904688,6.800000000001,
    41.482529871483));
#1028 = CARTESIAN_POINT('',(11.13628753076,6.8,43.023256567299));
#1029 = CARTESIAN_POINT('',(15.123157987584,6.8,44.562573952004));
#1030 = PCURVE('',#823,#1031);
#1031 = DEFINITIONAL_REPRESENTATION('',(#1032),#1108);
#1032 = B_SPLINE_CURVE_WITH_KNOTS('',11,(#1033,#1034,#1035,#1036,#1037,
    #1038,#1039,#1040,#1041,#1042,#1043,#1044,#1045,#1046,#1047,#1048,
    #1049,#1050,#1051,#1052,#1053,#1054,#1055,#1056,#1057,#1058,#1059,
    #1060,#1061,#1062,#1063,#1064,#1065,#1066,#1067,#1068,#1069,#1070,
    #1071,#1072,#1073,#1074,#1075,#1076,#1077,#1078,#1079,#1080,#1081,
    #1082,#1083,#1084,#1085,#1086,#1087,#1088,#1089,#1090,#1091,#1092,
    #1093,#1094,#1095,#1096,#1097,#1098,#1099,#1100,#1101,#1102,#1103,
    #1104,#1105,#1106,#1107),.UNSPECIFIED.,.F.,.F.,(12,9,9,9,9,9,9,9,12)
  ,(0.,11.294323807865,16.941485711797,22.588647615729,30.209674355491,
    34.290747950712,41.465512936307,48.640277921903,62.989807893093),
  .UNSPECIFIED.);
#1033 = CARTESIAN_POINT('',(19.712384400083,22.660837561323));
#1034 = CARTESIAN_POINT('',(19.321951585528,19.8319730204));
#1035 = CARTESIAN_POINT('',(18.954161635076,17.270268569236));
#1036 = CARTESIAN_POINT('',(18.615284594363,14.9640352144));
#1037 = CARTESIAN_POINT('',(18.313083672164,12.896350198821));
#1038 = CARTESIAN_POINT('',(18.058135622311,11.059257084242));
#1039 = CARTESIAN_POINT('',(17.865734968453,9.432291900716));
#1040 = CARTESIAN_POINT('',(17.754143043585,7.98894692335));
#1041 = CARTESIAN_POINT('',(17.748149412055,6.707879249023));
#1042 = CARTESIAN_POINT('',(17.889248449996,5.548338729884));
#1043 = CARTESIAN_POINT('',(18.393172293727,3.827974101182));
#1044 = CARTESIAN_POINT('',(19.214728574751,1.87339989514));
#1045 = CARTESIAN_POINT('',(19.517579499881,1.181127876921));
#1046 = CARTESIAN_POINT('',(19.835220060696,0.434920500199));
#1047 = CARTESIAN_POINT('',(20.150556111372,-0.378874626691));
#1048 = CARTESIAN_POINT('',(20.429862328538,-1.264736851212));
#1049 = CARTESIAN_POINT('',(20.630980583271,-2.205965180505));
#1050 = CARTESIAN_POINT('',(20.725735320588,-3.163510139282));
#1051 = CARTESIAN_POINT('',(20.711024407099,-4.092203979141));
#1052 = CARTESIAN_POINT('',(20.480705625414,-5.835210447574));
#1053 = CARTESIAN_POINT('',(19.908085482583,-7.268002752124));
#1054 = CARTESIAN_POINT('',(19.551016659938,-7.886779547163));
#1055 = CARTESIAN_POINT('',(19.144728974682,-8.399501427622));
#1056 = CARTESIAN_POINT('',(18.708192833078,-8.808713959656));
#1057 = CARTESIAN_POINT('',(18.255057182022,-9.123098364464));
#1058 = CARTESIAN_POINT('',(17.794215326901,-9.352676630326));
#1059 = CARTESIAN_POINT('',(17.331401539345,-9.506338402269));
#1060 = CARTESIAN_POINT('',(16.870467455332,-9.591985123998));
#1061 = CARTESIAN_POINT('',(15.79780219621,-9.652194392321));
#1062 = CARTESIAN_POINT('',(14.757627504581,-9.416674993239));
#1063 = CARTESIAN_POINT('',(14.174573130735,-9.200072419187));
#1064 = CARTESIAN_POINT('',(13.60675836684,-8.915199468187));
#1065 = CARTESIAN_POINT('',(13.053803191688,-8.572554258238));
#1066 = CARTESIAN_POINT('',(12.515023247317,-8.180656230555));
#1067 = CARTESIAN_POINT('',(11.989812662393,-7.746543277326));
#1068 = CARTESIAN_POINT('',(11.477696180207,-7.276164294866));
#1069 = CARTESIAN_POINT('',(10.978247707606,-6.774642441754));
#1070 = CARTESIAN_POINT('',(10.230189146279,-5.963501231212));
#1071 = CARTESIAN_POINT('',(9.510782909769,-5.097858977063));
#1072 = CARTESIAN_POINT('',(9.263349456971,-4.78989450678));
#1073 = CARTESIAN_POINT('',(9.019360955321,-4.47635838498));
#1074 = CARTESIAN_POINT('',(8.778817229826,-4.157697863669));
#1075 = CARTESIAN_POINT('',(8.541727629426,-3.834301351757));
#1076 = CARTESIAN_POINT('',(8.308108288881,-3.506494909661));
#1077 = CARTESIAN_POINT('',(8.077979390462,-3.174538744367));
#1078 = CARTESIAN_POINT('',(7.851362425852,-2.838623704037));
#1079 = CARTESIAN_POINT('',(7.236081095864,-1.901557065157));
#1080 = CARTESIAN_POINT('',(6.647788176007,-0.935589773602));
#1081 = CARTESIAN_POINT('',(6.28388532418,-0.308425724243));
#1082 = CARTESIAN_POINT('',(5.930920906839,0.331043565609));
#1083 = CARTESIAN_POINT('',(5.588617469447,0.984317754798));
#1084 = CARTESIAN_POINT('',(5.256390106238,1.653820304208));
#1085 = CARTESIAN_POINT('',(4.932841052243,2.343514927653));
#1086 = CARTESIAN_POINT('',(4.614940470757,3.059301160969));
#1087 = CARTESIAN_POINT('',(4.296903083702,3.808649788751));
#1088 = CARTESIAN_POINT('',(3.640637500943,5.389227946851));
#1089 = CARTESIAN_POINT('',(2.880651656661,7.14869866398));
#1090 = CARTESIAN_POINT('',(2.459197179361,8.077568870672));
#1091 = CARTESIAN_POINT('',(1.974124194387,9.051440014674));
#1092 = CARTESIAN_POINT('',(1.402413551101,10.068079541933));
#1093 = CARTESIAN_POINT('',(0.709185173556,11.101713215308));
#1094 = CARTESIAN_POINT('',(-0.131125050931,12.095634211314));
#1095 = CARTESIAN_POINT('',(-1.105584807466,12.982310769369));
#1096 = CARTESIAN_POINT('',(-2.167602635142,13.713533690036));
#1097 = CARTESIAN_POINT('',(-5.50597434596,15.394424044653));
#1098 = CARTESIAN_POINT('',(-9.004776782399,15.496010186828));
#1099 = CARTESIAN_POINT('',(-11.14912593252,14.829155071329));
#1100 = CARTESIAN_POINT('',(-12.95208841956,13.668160162151));
#1101 = CARTESIAN_POINT('',(-14.67692161206,12.149988601324));
#1102 = CARTESIAN_POINT('',(-16.20402598965,10.159921560645));
#1103 = CARTESIAN_POINT('',(-17.67379323008,7.825232739259));
#1104 = CARTESIAN_POINT('',(-19.05406091142,5.055431225967));
#1105 = CARTESIAN_POINT('',(-20.38242984081,1.870819980791));
#1106 = CARTESIAN_POINT('',(-21.66638075267,-1.755789856016));
#1107 = CARTESIAN_POINT('',(-22.91581690374,-5.842786718596));
#1108 = ( GEOMETRIC_REPRESENTATION_CONTEXT(2) 
PARAMETRIC_REPRESENTATION_CONTEXT() REPRESENTATION_CONTEXT('2D SPACE',''
  ) );
#1109 = PCURVE('',#188,#1110);
#1110 = DEFINITIONAL_REPRESENTATION('',(#1111),#1114);
#1111 = B_SPLINE_CURVE_WITH_KNOTS('',1,(#1112,#1113),.UNSPECIFIED.,.F.,
  .F.,(2,2),(0.,62.989807893093),.PIECEWISE_BEZIER_KNOTS.);
#1112 = CARTESIAN_POINT('',(0.,0.));
#1113 = CARTESIAN_POINT('',(0.,62.989807893093));
#1114 = ( GEOMETRIC_REPRESENTATION_CONTEXT(2) 
PARAMETRIC_REPRESENTATION_CONTEXT() REPRESENTATION_CONTEXT('2D SPACE',''
  ) );
#1115 = ORIENTED_EDGE('',*,*,#1116,.F.);
#1116 = EDGE_CURVE('',#736,#951,#1117,.T.);
#1117 = SURFACE_CURVE('',#1118,(#1121,#1127),.PCURVE_S1.);
#1118 = B_SPLINE_CURVE_WITH_KNOTS('',1,(#1119,#1120),.UNSPECIFIED.,.F.,
  .F.,(2,2),(0.,20.5),.PIECEWISE_BEZIER_KNOTS.);
#1119 = CARTESIAN_POINT('',(35.604482012416,6.8,45.437426047996));
#1120 = CARTESIAN_POINT('',(15.123157987584,6.8,44.562573952004));
#1121 = PCURVE('',#823,#1122);
#1122 = DEFINITIONAL_REPRESENTATION('',(#1123),#1126);
#1123 = B_SPLINE_CURVE_WITH_KNOTS('',1,(#1124,#1125),.UNSPECIFIED.,.F.,
  .F.,(2,2),(0.,20.5),.PIECEWISE_BEZIER_KNOTS.);
#1124 = CARTESIAN_POINT('',(-22.31960160746,-26.33411481905));
#1125 = CARTESIAN_POINT('',(-22.91581690374,-5.842786718596));
#1126 = ( GEOMETRIC_REPRESENTATION_CONTEXT(2) 
PARAMETRIC_REPRESENTATION_CONTEXT() REPRESENTATION_CONTEXT('2D SPACE',''
  ) );
#1127 = PCURVE('',#699,#1128);
#1128 = DEFINITIONAL_REPRESENTATION('',(#1129),#1132);
#1129 = B_SPLINE_CURVE_WITH_KNOTS('',1,(#1130,#1131),.UNSPECIFIED.,.F.,
  .F.,(2,2),(0.,20.5),.PIECEWISE_BEZIER_KNOTS.);
#1130 = CARTESIAN_POINT('',(10.25,6.8));
#1131 = CARTESIAN_POINT('',(-10.25,6.8));
#1132 = ( GEOMETRIC_REPRESENTATION_CONTEXT(2) 
PARAMETRIC_REPRESENTATION_CONTEXT() REPRESENTATION_CONTEXT('2D SPACE',''
  ) );
#1133 = ADVANCED_FACE('',(#1134),#188,.T.);
#1134 = FACE_BOUND('',#1135,.T.);
#1135 = EDGE_LOOP('',(#1136,#1137,#1156,#1157));
#1136 = ORIENTED_EDGE('',*,*,#950,.F.);
#1137 = ORIENTED_EDGE('',*,*,#1138,.T.);
#1138 = EDGE_CURVE('',#931,#22,#1139,.T.);
#1139 = SURFACE_CURVE('',#1140,(#1143,#1150),.PCURVE_S1.);
#1140 = B_SPLINE_CURVE_WITH_KNOTS('',1,(#1141,#1142),.UNSPECIFIED.,.F.,
  .F.,(2,2),(0.,13.6),.PIECEWISE_BEZIER_KNOTS.);
#1141 = CARTESIAN_POINT('',(-10.25,6.8,1.33226762955E-15));
#1142 = CARTESIAN_POINT('',(-10.25,-6.8,8.881784197001E-16));
#1143 = PCURVE('',#188,#1144);
#1144 = DEFINITIONAL_REPRESENTATION('',(#1145),#1149);
#1145 = LINE('',#1146,#1147);
#1146 = CARTESIAN_POINT('',(0.,0.));
#1147 = VECTOR('',#1148,1.);
#1148 = DIRECTION('',(1.,0.));
#1149 = ( GEOMETRIC_REPRESENTATION_CONTEXT(2) 
PARAMETRIC_REPRESENTATION_CONTEXT() REPRESENTATION_CONTEXT('2D SPACE',''
  ) );
#1150 = PCURVE('',#359,#1151);
#1151 = DEFINITIONAL_REPRESENTATION('',(#1152),#1155);
#1152 = B_SPLINE_CURVE_WITH_KNOTS('',1,(#1153,#1154),.UNSPECIFIED.,.F.,
  .F.,(2,2),(0.,13.6),.PIECEWISE_BEZIER_KNOTS.);
#1153 = CARTESIAN_POINT('',(-10.25,6.8));
#1154 = CARTESIAN_POINT('',(-10.25,-6.8));
#1155 = ( GEOMETRIC_REPRESENTATION_CONTEXT(2) 
PARAMETRIC_REPRESENTATION_CONTEXT() REPRESENTATION_CONTEXT('2D SPACE',''
  ) );
#1156 = ORIENTED_EDGE('',*,*,#21,.T.);
#1157 = ORIENTED_EDGE('',*,*,#1158,.F.);
#1158 = EDGE_CURVE('',#951,#24,#1159,.T.);
#1159 = SURFACE_CURVE('',#1160,(#1163,#1170),.PCURVE_S1.);
#1160 = B_SPLINE_CURVE_WITH_KNOTS('',1,(#1161,#1162),.UNSPECIFIED.,.F.,
  .F.,(2,2),(0.,13.6),.PIECEWISE_BEZIER_KNOTS.);
#1161 = CARTESIAN_POINT('',(15.123157987584,6.8,44.562573952004));
#1162 = CARTESIAN_POINT('',(15.123157987584,-6.8,44.562573952004));
#1163 = PCURVE('',#188,#1164);
#1164 = DEFINITIONAL_REPRESENTATION('',(#1165),#1169);
#1165 = LINE('',#1166,#1167);
#1166 = CARTESIAN_POINT('',(0.,62.989807893093));
#1167 = VECTOR('',#1168,1.);
#1168 = DIRECTION('',(1.,0.));
#1169 = ( GEOMETRIC_REPRESENTATION_CONTEXT(2) 
PARAMETRIC_REPRESENTATION_CONTEXT() REPRESENTATION_CONTEXT('2D SPACE',''
  ) );
#1170 = PCURVE('',#699,#1171);
#1171 = DEFINITIONAL_REPRESENTATION('',(#1172),#1175);
#1172 = B_SPLINE_CURVE_WITH_KNOTS('',1,(#1173,#1174),.UNSPECIFIED.,.F.,
  .F.,(2,2),(0.,13.6),.PIECEWISE_BEZIER_KNOTS.);
#1173 = CARTESIAN_POINT('',(-10.25,6.8));
#1174 = CARTESIAN_POINT('',(-10.25,-6.8));
#1175 = ( GEOMETRIC_REPRESENTATION_CONTEXT(2) 
PARAMETRIC_REPRESENTATION_CONTEXT() REPRESENTATION_CONTEXT('2D SPACE',''
  ) );
#1176 = ADVANCED_FACE('',(#1177),#359,.F.);
#1177 = FACE_BOUND('',#1178,.F.);
#1178 = EDGE_LOOP('',(#1179,#1180,#1181,#1182));
#1179 = ORIENTED_EDGE('',*,*,#345,.T.);
#1180 = ORIENTED_EDGE('',*,*,#714,.T.);
#1181 = ORIENTED_EDGE('',*,*,#930,.T.);
#1182 = ORIENTED_EDGE('',*,*,#1138,.T.);
#1183 = ADVANCED_FACE('',(#1184),#699,.T.);
#1184 = FACE_BOUND('',#1185,.T.);
#1185 = EDGE_LOOP('',(#1186,#1187,#1188,#1189));
#1186 = ORIENTED_EDGE('',*,*,#687,.T.);
#1187 = ORIENTED_EDGE('',*,*,#907,.T.);
#1188 = ORIENTED_EDGE('',*,*,#1116,.T.);
#1189 = ORIENTED_EDGE('',*,*,#1158,.T.);
#1190 = ( GEOMETRIC_REPRESENTATION_CONTEXT(3) 
GLOBAL_UNCERTAINTY_ASSIGNED_CONTEXT((#1194)) 
GLOBAL_UNIT_ASSIGNED_CONTEXT((#1191,#1192,#1193)) REPRESENTATION_CONTEXT
('Context #1','3D Context with UNIT and UNCERTAINTY') );
#1191 = ( LENGTH_UNIT() NAMED_UNIT(*) SI_UNIT(.MILLI.,.METRE.) );
#1192 = ( NAMED_UNIT(*) PLANE_ANGLE_UNIT() SI_UNIT($,.RADIAN.) );
#1193 = ( NAMED_UNIT(*) SI_UNIT($,.STERADIAN.) SOLID_ANGLE_UNIT() );
#1194 = UNCERTAINTY_MEASURE_WITH_UNIT(LENGTH_MEASURE(5.E-05),#1191,
  'distance_accuracy_value','confusion accuracy');
#1195 = PRODUCT_RELATED_PRODUCT_CATEGORY('part',$,(#7));
ENDSEC;
END-ISO-10303-21;
