ISO-10303-21;
HEADER;
FILE_DESCRIPTION(('Open CASCADE Model'),'2;1');
FILE_NAME('Open CASCADE Shape Model','2026-06-10T00:30:28',('Author'),(
    'Open CASCADE'),'Open CASCADE STEP processor 7.8','Open CASCADE 7.8'
  ,'Unknown');
FILE_SCHEMA(('AUTOMOTIVE_DESIGN { 1 0 10303 214 1 1 1 1 }'));
ENDSEC;
DATA;
#1 = APPLICATION_PROTOCOL_DEFINITION('international standard',
  'automotive_design',2000,#2);
#2 = APPLICATION_CONTEXT(
  'core data for automotive mechanical design processes');
#3 = SHAPE_DEFINITION_REPRESENTATION(#4,#10);
#4 = PRODUCT_DEFINITION_SHAPE('','',#5);
#5 = PRODUCT_DEFINITION('design','',#6,#9);
#6 = PRODUCT_DEFINITION_FORMATION('','',#7);
#7 = PRODUCT('Open CASCADE STEP translator 7.8 42',
  'Open CASCADE STEP translator 7.8 42','',(#8));
#8 = PRODUCT_CONTEXT('',#2,'mechanical');
#9 = PRODUCT_DEFINITION_CONTEXT('part definition',#2,'design');
#10 = ADVANCED_BREP_SHAPE_REPRESENTATION('',(#11,#15),#1322);
#11 = AXIS2_PLACEMENT_3D('',#12,#13,#14);
#12 = CARTESIAN_POINT('',(0.,0.,0.));
#13 = DIRECTION('',(0.,0.,1.));
#14 = DIRECTION('',(1.,0.,-0.));
#15 = MANIFOLD_SOLID_BREP('',#16);
#16 = CLOSED_SHELL('',(#17,#797,#1035,#1265,#1308,#1315));
#17 = ADVANCED_FACE('',(#18),#115,.T.);
#18 = FACE_BOUND('',#19,.T.);
#19 = EDGE_LOOP('',(#20,#388,#413,#774));
#20 = ORIENTED_EDGE('',*,*,#21,.F.);
#21 = EDGE_CURVE('',#22,#24,#26,.T.);
#22 = VERTEX_POINT('',#23);
#23 = CARTESIAN_POINT('',(-10.35,-8.6,1.7763568394E-15));
#24 = VERTEX_POINT('',#25);
#25 = CARTESIAN_POINT('',(3.736498592935,-8.6,119.65199866685));
#26 = SURFACE_CURVE('',#27,(#114,#209),.PCURVE_S1.);
#27 = B_SPLINE_CURVE_WITH_KNOTS('',10,(#28,#29,#30,#31,#32,#33,#34,#35,
    #36,#37,#38,#39,#40,#41,#42,#43,#44,#45,#46,#47,#48,#49,#50,#51,#52,
    #53,#54,#55,#56,#57,#58,#59,#60,#61,#62,#63,#64,#65,#66,#67,#68,#69,
    #70,#71,#72,#73,#74,#75,#76,#77,#78,#79,#80,#81,#82,#83,#84,#85,#86,
    #87,#88,#89,#90,#91,#92,#93,#94,#95,#96,#97,#98,#99,#100,#101,#102,
    #103,#104,#105,#106,#107,#108,#109,#110,#111,#112,#113),
  .UNSPECIFIED.,.F.,.F.,(11,8,8,8,9,8,8,9,9,8,11),(0.,13.86104383207,
    27.722087664139,55.444175328278,56.353,70.903621842077,
    78.178932763116,85.454243684154,97.813270990724,108.38977099072,
    118.96627099072),.UNSPECIFIED.);
#28 = CARTESIAN_POINT('',(-10.35,-8.6,1.7763568394E-15));
#29 = CARTESIAN_POINT('',(-13.09310781451,-8.6,1.116219987377));
#30 = CARTESIAN_POINT('',(-15.58937283037,-8.599999999999,2.336340067339
    ));
#31 = CARTESIAN_POINT('',(-17.84032283786,-8.600000000003,3.664141309389
    ));
#32 = CARTESIAN_POINT('',(-19.8439599845,-8.599999999997,5.104372467935)
  );
#33 = CARTESIAN_POINT('',(-21.59733906399,-8.600000000003,6.660038913598
    ));
#34 = CARTESIAN_POINT('',(-23.09217903219,-8.599999999997,8.333923732542
    ));
#35 = CARTESIAN_POINT('',(-24.31288009316,-8.600000000001,
    10.124559382229));
#36 = CARTESIAN_POINT('',(-25.2414304591,-8.6,12.016344802691));
#37 = CARTESIAN_POINT('',(-26.49616684561,-8.600000000001,
    15.929613985081));
#38 = CARTESIAN_POINT('',(-26.59631176377,-8.599999999999,
    19.935874348989));
#39 = CARTESIAN_POINT('',(-26.37052877024,-8.600000000002,
    21.921727758788));
#40 = CARTESIAN_POINT('',(-25.89711942345,-8.599999999996,
    23.838305755847));
#41 = CARTESIAN_POINT('',(-25.24176001883,-8.600000000004,
    25.650479464829));
#42 = CARTESIAN_POINT('',(-24.47350136623,-8.599999999997,
    27.355655365497));
#43 = CARTESIAN_POINT('',(-23.63519354393,-8.600000000001,
    28.978212102902));
#44 = CARTESIAN_POINT('',(-22.74394707606,-8.6,30.547739494715));
#45 = CARTESIAN_POINT('',(-19.94848950605,-8.600000000001,
    35.143597680915));
#46 = CARTESIAN_POINT('',(-16.82932931853,-8.599999999999,
    39.550521182275));
#47 = CARTESIAN_POINT('',(-14.64503354435,-8.600000000003,
    42.529843433361));
#48 = CARTESIAN_POINT('',(-12.30268524832,-8.599999999995,
    45.592886343753));
#49 = CARTESIAN_POINT('',(-9.823229549115,-8.600000000006,
    48.719010153407));
#50 = CARTESIAN_POINT('',(-7.240015531688,-8.599999999995,
    51.895376061847));
#51 = CARTESIAN_POINT('',(-4.586223373633,-8.600000000003,
    55.113574302868));
#52 = CARTESIAN_POINT('',(-1.916757248322,-8.599999999999,
    58.348541928473));
#53 = CARTESIAN_POINT('',(0.801698735259,-8.6,61.693065286193));
#54 = CARTESIAN_POINT('',(3.412991348175,-8.6,65.023252951939));
#55 = CARTESIAN_POINT('',(3.495770836771,-8.600000000001,65.128947340438
    ));
#56 = CARTESIAN_POINT('',(3.57843791271,-8.599999999998,65.23462614089)
  );
#57 = CARTESIAN_POINT('',(3.660990345557,-8.600000000002,65.340288782701
    ));
#58 = CARTESIAN_POINT('',(3.743425895973,-8.599999999998,65.445934695626
    ));
#59 = CARTESIAN_POINT('',(3.825742315648,-8.600000000001,65.551563310394
    ));
#60 = CARTESIAN_POINT('',(3.907937347235,-8.6,65.657174058047));
#61 = CARTESIAN_POINT('',(3.990008724285,-8.6,65.762766370481));
#62 = CARTESIAN_POINT('',(5.383931328648,-8.6,67.558607729371));
#63 = CARTESIAN_POINT('',(6.65462829706,-8.6,69.247856283226));
#64 = CARTESIAN_POINT('',(7.869518000192,-8.600000000001,70.931543235722
    ));
#65 = CARTESIAN_POINT('',(9.012527251997,-8.599999999999,72.606028772095
    ));
#66 = CARTESIAN_POINT('',(10.066038807015,-8.600000000002,
    74.266991763858));
#67 = CARTESIAN_POINT('',(11.010488733164,-8.599999999999,
    75.909858593318));
#68 = CARTESIAN_POINT('',(11.82333232847,-8.600000000001,77.530585895666
    ));
#69 = CARTESIAN_POINT('',(12.477151803588,-8.6,79.125138704163));
#70 = CARTESIAN_POINT('',(13.16644252561,-8.6,81.466438878044));
#71 = CARTESIAN_POINT('',(13.311908084156,-8.6,83.688982456065));
#72 = CARTESIAN_POINT('',(13.294051786994,-8.599999999999,
    84.414333178136));
#73 = CARTESIAN_POINT('',(13.203259782311,-8.600000000002,
    85.120582003179));
#74 = CARTESIAN_POINT('',(13.032237898898,-8.599999999998,
    85.803476187277));
#75 = CARTESIAN_POINT('',(12.772897595349,-8.600000000001,
    86.457212541458));
#76 = CARTESIAN_POINT('',(12.416753222664,-8.599999999999,
    87.072956396219));
#77 = CARTESIAN_POINT('',(11.956354894211,-8.6,87.637760698279));
#78 = CARTESIAN_POINT('',(10.820253540255,-8.6,88.631967184019));
#79 = CARTESIAN_POINT('',(9.276738588106,-8.6,89.283687475563));
#80 = CARTESIAN_POINT('',(8.409482921403,-8.600000000001,89.505728895968
    ));
#81 = CARTESIAN_POINT('',(7.458526259973,-8.599999999998,89.607935009542
    ));
#82 = CARTESIAN_POINT('',(6.453448126287,-8.600000000002,89.571317709491
    ));
#83 = CARTESIAN_POINT('',(5.43812910672,-8.599999999999,89.395927113169)
  );
#84 = CARTESIAN_POINT('',(4.4553901613,-8.600000000001,89.111228567863)
  );
#85 = CARTESIAN_POINT('',(3.528602028388,-8.6,88.761964491484));
#86 = CARTESIAN_POINT('',(2.654021595441,-8.6,88.382530829324));
#87 = CARTESIAN_POINT('',(0.409994578051,-8.6,87.346959613513));
#88 = CARTESIAN_POINT('',(-0.727353487006,-8.6,86.977316839218));
#89 = CARTESIAN_POINT('',(-1.837095178509,-8.600000000001,
    86.962337825004));
#90 = CARTESIAN_POINT('',(-3.049156394397,-8.599999999999,87.09563334871
    ));
#91 = CARTESIAN_POINT('',(-4.252140770071,-8.6,87.411187966785));
#92 = CARTESIAN_POINT('',(-5.523639774311,-8.6,87.854762600663));
#93 = CARTESIAN_POINT('',(-6.766961018355,-8.6,88.457177963583));
#94 = CARTESIAN_POINT('',(-7.975649419256,-8.6,89.228440181365));
#95 = CARTESIAN_POINT('',(-9.089177811541,-8.6,90.222223336269));
#96 = CARTESIAN_POINT('',(-10.79232847171,-8.6,92.574318558596));
#97 = CARTESIAN_POINT('',(-11.45599042899,-8.6,93.777435424625));
#98 = CARTESIAN_POINT('',(-11.97074295842,-8.599999999999,
    95.108671530113));
#99 = CARTESIAN_POINT('',(-12.29435392399,-8.600000000001,
    96.569117889522));
#100 = CARTESIAN_POINT('',(-12.40289761172,-8.599999999999,
    98.157386696269));
#101 = CARTESIAN_POINT('',(-12.22535039486,-8.600000000001,
    99.847676766739));
#102 = CARTESIAN_POINT('',(-11.72761729422,-8.6,101.55351719434));
#103 = CARTESIAN_POINT('',(-10.98385744464,-8.6,103.16762117176));
#104 = CARTESIAN_POINT('',(-9.16368314919,-8.6,106.18586047045));
#105 = CARTESIAN_POINT('',(-6.914448750478,-8.6,108.82302319224));
#106 = CARTESIAN_POINT('',(-5.742485255574,-8.600000000001,
    110.05659766672));
#107 = CARTESIAN_POINT('',(-4.56213139134,-8.599999999999,
    111.25715640352));
#108 = CARTESIAN_POINT('',(-3.365635570257,-8.600000000001,
    112.47561144367));
#109 = CARTESIAN_POINT('',(-2.124094367901,-8.599999999999,
    113.74624217913));
#110 = CARTESIAN_POINT('',(-0.812620083099,-8.6,115.08797516576));
#111 = CARTESIAN_POINT('',(0.586864356128,-8.6,116.51274702489));
#112 = CARTESIAN_POINT('',(2.097483712704,-8.6,118.03187101185));
#113 = CARTESIAN_POINT('',(3.736498592935,-8.6,119.65199866685));
#114 = PCURVE('',#115,#120);
#115 = PLANE('',#116);
#116 = AXIS2_PLACEMENT_3D('',#117,#118,#119);
#117 = CARTESIAN_POINT('',(-4.099733153257,-8.6,55.641432362157));
#118 = DIRECTION('',(-4.233054575299E-16,-1.,4.73956146115E-17));
#119 = DIRECTION('',(-0.218453530265,4.622168654556E-17,-0.975847352363)
  );
#120 = DEFINITIONAL_REPRESENTATION('',(#121),#208);
#121 = B_SPLINE_CURVE_WITH_KNOTS('',10,(#122,#123,#124,#125,#126,#127,
    #128,#129,#130,#131,#132,#133,#134,#135,#136,#137,#138,#139,#140,
    #141,#142,#143,#144,#145,#146,#147,#148,#149,#150,#151,#152,#153,
    #154,#155,#156,#157,#158,#159,#160,#161,#162,#163,#164,#165,#166,
    #167,#168,#169,#170,#171,#172,#173,#174,#175,#176,#177,#178,#179,
    #180,#181,#182,#183,#184,#185,#186,#187,#188,#189,#190,#191,#192,
    #193,#194,#195,#196,#197,#198,#199,#200,#201,#202,#203,#204,#205,
    #206,#207),.UNSPECIFIED.,.F.,.F.,(11,8,8,8,9,8,8,9,9,8,11),(0.,
    13.86104383207,27.722087664139,55.444175328278,56.353,
    70.903621842077,78.178932763116,85.454243684154,97.813270990724,
    108.38977099072,118.96627099072),.UNSPECIFIED.);
#122 = CARTESIAN_POINT('',(55.66293731009,6.055760974553));
#123 = CARTESIAN_POINT('',(55.172918576732,3.135064279713));
#124 = CARTESIAN_POINT('',(54.527585532326,0.432551134382));
#125 = CARTESIAN_POINT('',(53.723582181393,-2.054095339547));
#126 = CARTESIAN_POINT('',(52.755838026589,-4.323962925181));
#127 = CARTESIAN_POINT('',(51.620776894235,-6.374834084561));
#128 = CARTESIAN_POINT('',(50.313873893743,-8.199235757692));
#129 = CARTESIAN_POINT('',(48.833153292113,-9.781624335152));
#130 = CARTESIAN_POINT('',(47.189904603784,-11.10101495489));
#131 = CARTESIAN_POINT('',(43.645252826248,-13.18031360335));
#132 = CARTESIAN_POINT('',(39.757631268162,-14.15322147625));
#133 = CARTESIAN_POINT('',(37.770418384016,-14.36670842776));
#134 = CARTESIAN_POINT('',(35.796712876922,-14.3234163996));
#135 = CARTESIAN_POINT('',(33.885142385456,-14.07976140393));
#136 = CARTESIAN_POINT('',(32.053322182658,-13.70255992709));
#137 = CARTESIAN_POINT('',(30.286823183173,-13.23895270557));
#138 = CARTESIAN_POINT('',(28.560508096167,-12.71210099918));
#139 = CARTESIAN_POINT('',(23.464974478452,-10.98814257622));
#140 = CARTESIAN_POINT('',(18.483098293154,-8.907026362114));
#141 = CARTESIAN_POINT('',(15.098567439583,-7.426330577647));
#142 = CARTESIAN_POINT('',(11.597810870923,-5.809688731784));
#143 = CARTESIAN_POINT('',(8.005545377484,-4.073031234674));
#144 = CARTESIAN_POINT('',(4.341584894059,-2.246097021291));
#145 = CARTESIAN_POINT('',(0.621384395661,-0.359427736974));
#146 = CARTESIAN_POINT('',(-3.118604495764,1.538873615529));
#147 = CARTESIAN_POINT('',(-6.976205065796,3.461048755076));
#148 = CARTESIAN_POINT('',(-10.79640597213,5.281780485609));
#149 = CARTESIAN_POINT('',(-10.91763103282,5.339471318088));
#150 = CARTESIAN_POINT('',(-11.03881632502,5.397055858238));
#151 = CARTESIAN_POINT('',(-11.15996080466,5.454532054142));
#152 = CARTESIAN_POINT('',(-11.28106342609,5.51189784512));
#153 = CARTESIAN_POINT('',(-11.40212314262,5.569151161522));
#154 = CARTESIAN_POINT('',(-11.52313890592,5.626289924816));
#155 = CARTESIAN_POINT('',(-11.64410966649,5.683312047395));
#156 = CARTESIAN_POINT('',(-13.70108401566,6.651259845616));
#157 = CARTESIAN_POINT('',(-15.62712098307,7.522243807813));
#158 = CARTESIAN_POINT('',(-17.53553938241,8.339983349394));
#159 = CARTESIAN_POINT('',(-19.41927606583,9.089588624697));
#160 = CARTESIAN_POINT('',(-21.27026572208,9.754811857155));
#161 = CARTESIAN_POINT('',(-23.07977138842,10.317560758377));
#162 = CARTESIAN_POINT('',(-24.83892238827,10.756718427947));
#163 = CARTESIAN_POINT('',(-26.53779169714,11.046410741454));
#164 = CARTESIAN_POINT('',(-28.97312126452,11.207587979154));
#165 = CARTESIAN_POINT('',(-31.17376199544,10.864017668534));
#166 = CARTESIAN_POINT('',(-31.87769280595,10.688137222309));
#167 = CARTESIAN_POINT('',(-32.54705001804,10.445255535848));
#168 = CARTESIAN_POINT('',(-33.17609016535,10.129183638409));
#169 = CARTESIAN_POINT('',(-33.75738325087,9.733296075396));
#170 = CARTESIAN_POINT('',(-34.28045426578,9.251242113441));
#171 = CARTESIAN_POINT('',(-34.73104140837,8.678580129894));
#172 = CARTESIAN_POINT('',(-35.45304982367,7.352730714998));
#173 = CARTESIAN_POINT('',(-35.75184305434,5.704125137177));
#174 = CARTESIAN_POINT('',(-35.77906652452,4.80931025885));
#175 = CARTESIAN_POINT('',(-35.67106425003,3.858994432255));
#176 = CARTESIAN_POINT('',(-35.41576848823,2.886190775044));
#177 = CARTESIAN_POINT('',(-35.02281401501,1.933709092938));
#178 = CARTESIAN_POINT('',(-34.5303089014,1.036899297268));
#179 = CARTESIAN_POINT('',(-33.98702033774,0.208793522044));
#180 = CARTESIAN_POINT('',(-33.42569582005,-0.561774854876));
#181 = CARTESIAN_POINT('',(-31.92492076696,-2.525378490493));
#182 = CARTESIAN_POINT('',(-31.31574814439,-3.554506819513));
#183 = CARTESIAN_POINT('',(-31.05870392284,-4.634173092438));
#184 = CARTESIAN_POINT('',(-30.92400095522,-5.846078698588));
#185 = CARTESIAN_POINT('',(-30.96913791007,-7.088941836833));
#186 = CARTESIAN_POINT('',(-31.12423559591,-8.42663121836));
#187 = CARTESIAN_POINT('',(-31.44049311783,-9.771522725214));
#188 = CARTESIAN_POINT('',(-31.92908506286,-11.1195030553));
#189 = CARTESIAN_POINT('',(-32.65561151505,-12.42323222719));
#190 = CARTESIAN_POINT('',(-34.57883813598,-14.59907079444));
#191 = CARTESIAN_POINT('',(-35.60791724681,-15.50952868502));
#192 = CARTESIAN_POINT('',(-36.79455096845,-16.30266180484));
#193 = CARTESIAN_POINT('',(-38.14902972369,-16.93749637177));
#194 = CARTESIAN_POINT('',(-39.67522588182,-17.3903813699));
#195 = CARTESIAN_POINT('',(-41.36347678813,-17.58637222148));
#196 = CARTESIAN_POINT('',(-43.13684820592,-17.47330755651));
#197 = CARTESIAN_POINT('',(-44.87444426354,-17.10011818858));
#198 = CARTESIAN_POINT('',(-48.2174085925,-15.98325095151));
#199 = CARTESIAN_POINT('',(-51.28223004711,-14.36443902514));
#200 = CARTESIAN_POINT('',(-52.74202999478,-13.49026025037));
#201 = CARTESIAN_POINT('',(-54.17144452804,-12.60068135144));
#202 = CARTESIAN_POINT('',(-55.62184938902,-11.69925987732));
#203 = CARTESIAN_POINT('',(-57.13301008667,-10.76527895197));
#204 = CARTESIAN_POINT('',(-58.72883285662,-9.778586551062));
#205 = CARTESIAN_POINT('',(-60.42491501937,-8.724149808817));
#206 = CARTESIAN_POINT('',(-62.23734827129,-7.581873907136));
#207 = CARTESIAN_POINT('',(-64.17639414065,-6.336368181492));
#208 = ( GEOMETRIC_REPRESENTATION_CONTEXT(2) 
PARAMETRIC_REPRESENTATION_CONTEXT() REPRESENTATION_CONTEXT('2D SPACE',''
  ) );
#209 = PCURVE('',#210,#383);
#210 = B_SPLINE_SURFACE_WITH_KNOTS('',1,10,(
    (#211,#212,#213,#214,#215,#216,#217,#218,#219,#220,#221,#222,#223
      ,#224,#225,#226,#227,#228,#229,#230,#231,#232,#233,#234,#235,#236
      ,#237,#238,#239,#240,#241,#242,#243,#244,#245,#246,#247,#248,#249
      ,#250,#251,#252,#253,#254,#255,#256,#257,#258,#259,#260,#261,#262
      ,#263,#264,#265,#266,#267,#268,#269,#270,#271,#272,#273,#274,#275
      ,#276,#277,#278,#279,#280,#281,#282,#283,#284,#285,#286,#287,#288
      ,#289,#290,#291,#292,#293,#294,#295,#296)
    ,(#297,#298,#299,#300,#301,#302,#303,#304,#305,#306,#307,#308,#309
      ,#310,#311,#312,#313,#314,#315,#316,#317,#318,#319,#320,#321,#322
      ,#323,#324,#325,#326,#327,#328,#329,#330,#331,#332,#333,#334,#335
      ,#336,#337,#338,#339,#340,#341,#342,#343,#344,#345,#346,#347,#348
      ,#349,#350,#351,#352,#353,#354,#355,#356,#357,#358,#359,#360,#361
      ,#362,#363,#364,#365,#366,#367,#368,#369,#370,#371,#372,#373,#374
      ,#375,#376,#377,#378,#379,#380,#381,#382
  )),.UNSPECIFIED.,.F.,.F.,.F.,(2,2),(11,8,8,8,9,8,8,9,9,8,11),(0.,17.2)
  ,(0.,13.86104383207,27.722087664139,55.444175328278,56.353,
    70.903621842077,78.178932763116,85.454243684154,97.813270990724,
    108.38977099072,118.96627099072),.UNSPECIFIED.);
#211 = CARTESIAN_POINT('',(-10.35,8.6,0.));
#212 = CARTESIAN_POINT('',(-13.09310781451,8.6,1.116219987378));
#213 = CARTESIAN_POINT('',(-15.58937283037,8.599999999999,2.336340067339
    ));
#214 = CARTESIAN_POINT('',(-17.84032283786,8.600000000003,3.664141309389
    ));
#215 = CARTESIAN_POINT('',(-19.8439599845,8.599999999997,5.104372467935)
  );
#216 = CARTESIAN_POINT('',(-21.59733906399,8.600000000003,6.660038913599
    ));
#217 = CARTESIAN_POINT('',(-23.09217903219,8.599999999997,8.333923732541
    ));
#218 = CARTESIAN_POINT('',(-24.31288009316,8.600000000001,
    10.124559382229));
#219 = CARTESIAN_POINT('',(-25.2414304591,8.6,12.016344802691));
#220 = CARTESIAN_POINT('',(-26.49616684561,8.600000000001,
    15.929613985081));
#221 = CARTESIAN_POINT('',(-26.59631176377,8.599999999999,
    19.935874348989));
#222 = CARTESIAN_POINT('',(-26.37052877024,8.600000000002,
    21.921727758787));
#223 = CARTESIAN_POINT('',(-25.89711942345,8.599999999996,
    23.838305755847));
#224 = CARTESIAN_POINT('',(-25.24176001883,8.600000000004,
    25.650479464828));
#225 = CARTESIAN_POINT('',(-24.47350136623,8.599999999997,
    27.355655365498));
#226 = CARTESIAN_POINT('',(-23.63519354393,8.600000000001,
    28.978212102902));
#227 = CARTESIAN_POINT('',(-22.74394707606,8.6,30.547739494715));
#228 = CARTESIAN_POINT('',(-19.94848950605,8.600000000001,
    35.143597680915));
#229 = CARTESIAN_POINT('',(-16.82932931853,8.599999999999,
    39.550521182276));
#230 = CARTESIAN_POINT('',(-14.64503354435,8.600000000003,42.52984343336
    ));
#231 = CARTESIAN_POINT('',(-12.30268524832,8.599999999995,
    45.592886343754));
#232 = CARTESIAN_POINT('',(-9.823229549116,8.600000000006,
    48.719010153406));
#233 = CARTESIAN_POINT('',(-7.240015531687,8.599999999995,
    51.895376061848));
#234 = CARTESIAN_POINT('',(-4.586223373633,8.600000000003,
    55.113574302867));
#235 = CARTESIAN_POINT('',(-1.916757248322,8.599999999999,
    58.348541928474));
#236 = CARTESIAN_POINT('',(0.801698735259,8.6,61.693065286192));
#237 = CARTESIAN_POINT('',(3.412991348175,8.6,65.023252951939));
#238 = CARTESIAN_POINT('',(3.495770836771,8.600000000001,65.128947340436
    ));
#239 = CARTESIAN_POINT('',(3.57843791271,8.599999999998,65.234626140893)
  );
#240 = CARTESIAN_POINT('',(3.660990345557,8.600000000002,65.340288782698
    ));
#241 = CARTESIAN_POINT('',(3.743425895973,8.599999999998,65.445934695629
    ));
#242 = CARTESIAN_POINT('',(3.825742315648,8.600000000001,65.551563310393
    ));
#243 = CARTESIAN_POINT('',(3.907937347235,8.6,65.657174058047));
#244 = CARTESIAN_POINT('',(3.990008724285,8.6,65.762766370481));
#245 = CARTESIAN_POINT('',(5.383931328648,8.6,67.558607729371));
#246 = CARTESIAN_POINT('',(6.65462829706,8.6,69.247856283226));
#247 = CARTESIAN_POINT('',(7.869518000192,8.600000000001,70.931543235723
    ));
#248 = CARTESIAN_POINT('',(9.012527251996,8.599999999999,72.606028772095
    ));
#249 = CARTESIAN_POINT('',(10.066038807016,8.600000000002,
    74.266991763858));
#250 = CARTESIAN_POINT('',(11.010488733163,8.599999999999,
    75.909858593319));
#251 = CARTESIAN_POINT('',(11.823332328471,8.600000000001,
    77.530585895666));
#252 = CARTESIAN_POINT('',(12.477151803588,8.6,79.125138704163));
#253 = CARTESIAN_POINT('',(13.16644252561,8.6,81.466438878045));
#254 = CARTESIAN_POINT('',(13.311908084156,8.6,83.688982456064));
#255 = CARTESIAN_POINT('',(13.294051786994,8.599999999999,
    84.414333178141));
#256 = CARTESIAN_POINT('',(13.203259782311,8.600000000002,
    85.120582003168));
#257 = CARTESIAN_POINT('',(13.032237898898,8.599999999998,85.80347618729
    ));
#258 = CARTESIAN_POINT('',(12.772897595349,8.600000000001,
    86.457212541447));
#259 = CARTESIAN_POINT('',(12.416753222664,8.599999999999,
    87.072956396224));
#260 = CARTESIAN_POINT('',(11.956354894211,8.6,87.637760698278));
#261 = CARTESIAN_POINT('',(10.820253540255,8.6,88.63196718402));
#262 = CARTESIAN_POINT('',(9.276738588106,8.6,89.283687475562));
#263 = CARTESIAN_POINT('',(8.409482921403,8.600000000001,89.505728895972
    ));
#264 = CARTESIAN_POINT('',(7.458526259973,8.599999999998,89.607935009534
    ));
#265 = CARTESIAN_POINT('',(6.453448126287,8.600000000002,89.571317709501
    ));
#266 = CARTESIAN_POINT('',(5.438129106721,8.599999999999,89.395927113159
    ));
#267 = CARTESIAN_POINT('',(4.4553901613,8.600000000001,89.111228567869)
  );
#268 = CARTESIAN_POINT('',(3.528602028388,8.6,88.761964491481));
#269 = CARTESIAN_POINT('',(2.654021595441,8.6,88.382530829325));
#270 = CARTESIAN_POINT('',(0.409994578051,8.6,87.346959613513));
#271 = CARTESIAN_POINT('',(-0.727353487006,8.6,86.97731683922));
#272 = CARTESIAN_POINT('',(-1.837095178509,8.600000000001,86.962337825)
  );
#273 = CARTESIAN_POINT('',(-3.049156394397,8.599999999999,
    87.095633348715));
#274 = CARTESIAN_POINT('',(-4.252140770071,8.6,87.411187966779));
#275 = CARTESIAN_POINT('',(-5.523639774311,8.6,87.854762600667));
#276 = CARTESIAN_POINT('',(-6.766961018355,8.6,88.457177963581));
#277 = CARTESIAN_POINT('',(-7.975649419256,8.6,89.228440181366));
#278 = CARTESIAN_POINT('',(-9.089177811541,8.6,90.222223336268));
#279 = CARTESIAN_POINT('',(-10.79232847171,8.6,92.574318558597));
#280 = CARTESIAN_POINT('',(-11.45599042899,8.6,93.777435424621));
#281 = CARTESIAN_POINT('',(-11.97074295842,8.599999999999,
    95.108671530122));
#282 = CARTESIAN_POINT('',(-12.29435392399,8.600000000001,
    96.569117889507));
#283 = CARTESIAN_POINT('',(-12.40289761172,8.599999999999,
    98.157386696285));
#284 = CARTESIAN_POINT('',(-12.22535039486,8.600000000001,
    99.847676766727));
#285 = CARTESIAN_POINT('',(-11.72761729422,8.6,101.55351719434));
#286 = CARTESIAN_POINT('',(-10.98385744464,8.6,103.16762117175));
#287 = CARTESIAN_POINT('',(-9.16368314919,8.6,106.18586047045));
#288 = CARTESIAN_POINT('',(-6.914448750478,8.6,108.82302319224));
#289 = CARTESIAN_POINT('',(-5.742485255574,8.600000000001,
    110.05659766673));
#290 = CARTESIAN_POINT('',(-4.56213139134,8.599999999999,111.2571564035)
  );
#291 = CARTESIAN_POINT('',(-3.365635570257,8.600000000001,
    112.47561144369));
#292 = CARTESIAN_POINT('',(-2.124094367901,8.599999999999,
    113.74624217912));
#293 = CARTESIAN_POINT('',(-0.812620083099,8.6,115.08797516577));
#294 = CARTESIAN_POINT('',(0.586864356128,8.6,116.51274702488));
#295 = CARTESIAN_POINT('',(2.097483712704,8.6,118.03187101186));
#296 = CARTESIAN_POINT('',(3.736498592935,8.6,119.65199866685));
#297 = CARTESIAN_POINT('',(-10.35,-8.6,1.7763568394E-15));
#298 = CARTESIAN_POINT('',(-13.09310781451,-8.6,1.116219987377));
#299 = CARTESIAN_POINT('',(-15.58937283037,-8.599999999999,
    2.336340067339));
#300 = CARTESIAN_POINT('',(-17.84032283786,-8.600000000003,
    3.664141309389));
#301 = CARTESIAN_POINT('',(-19.8439599845,-8.599999999997,5.104372467935
    ));
#302 = CARTESIAN_POINT('',(-21.59733906399,-8.600000000003,
    6.660038913598));
#303 = CARTESIAN_POINT('',(-23.09217903219,-8.599999999997,
    8.333923732542));
#304 = CARTESIAN_POINT('',(-24.31288009316,-8.600000000001,
    10.124559382229));
#305 = CARTESIAN_POINT('',(-25.2414304591,-8.6,12.016344802691));
#306 = CARTESIAN_POINT('',(-26.49616684561,-8.600000000001,
    15.929613985081));
#307 = CARTESIAN_POINT('',(-26.59631176377,-8.599999999999,
    19.935874348989));
#308 = CARTESIAN_POINT('',(-26.37052877024,-8.600000000002,
    21.921727758788));
#309 = CARTESIAN_POINT('',(-25.89711942345,-8.599999999996,
    23.838305755847));
#310 = CARTESIAN_POINT('',(-25.24176001883,-8.600000000004,
    25.650479464829));
#311 = CARTESIAN_POINT('',(-24.47350136623,-8.599999999997,
    27.355655365497));
#312 = CARTESIAN_POINT('',(-23.63519354393,-8.600000000001,
    28.978212102902));
#313 = CARTESIAN_POINT('',(-22.74394707606,-8.6,30.547739494715));
#314 = CARTESIAN_POINT('',(-19.94848950605,-8.600000000001,
    35.143597680915));
#315 = CARTESIAN_POINT('',(-16.82932931853,-8.599999999999,
    39.550521182275));
#316 = CARTESIAN_POINT('',(-14.64503354435,-8.600000000003,
    42.529843433361));
#317 = CARTESIAN_POINT('',(-12.30268524832,-8.599999999995,
    45.592886343753));
#318 = CARTESIAN_POINT('',(-9.823229549115,-8.600000000006,
    48.719010153407));
#319 = CARTESIAN_POINT('',(-7.240015531688,-8.599999999995,
    51.895376061847));
#320 = CARTESIAN_POINT('',(-4.586223373633,-8.600000000003,
    55.113574302868));
#321 = CARTESIAN_POINT('',(-1.916757248322,-8.599999999999,
    58.348541928473));
#322 = CARTESIAN_POINT('',(0.801698735259,-8.6,61.693065286193));
#323 = CARTESIAN_POINT('',(3.412991348175,-8.6,65.023252951939));
#324 = CARTESIAN_POINT('',(3.495770836771,-8.600000000001,
    65.128947340438));
#325 = CARTESIAN_POINT('',(3.57843791271,-8.599999999998,65.23462614089)
  );
#326 = CARTESIAN_POINT('',(3.660990345557,-8.600000000002,
    65.340288782701));
#327 = CARTESIAN_POINT('',(3.743425895973,-8.599999999998,
    65.445934695626));
#328 = CARTESIAN_POINT('',(3.825742315648,-8.600000000001,
    65.551563310394));
#329 = CARTESIAN_POINT('',(3.907937347235,-8.6,65.657174058047));
#330 = CARTESIAN_POINT('',(3.990008724285,-8.6,65.762766370481));
#331 = CARTESIAN_POINT('',(5.383931328648,-8.6,67.558607729371));
#332 = CARTESIAN_POINT('',(6.65462829706,-8.6,69.247856283226));
#333 = CARTESIAN_POINT('',(7.869518000192,-8.600000000001,
    70.931543235722));
#334 = CARTESIAN_POINT('',(9.012527251997,-8.599999999999,
    72.606028772095));
#335 = CARTESIAN_POINT('',(10.066038807015,-8.600000000002,
    74.266991763858));
#336 = CARTESIAN_POINT('',(11.010488733164,-8.599999999999,
    75.909858593318));
#337 = CARTESIAN_POINT('',(11.82333232847,-8.600000000001,
    77.530585895666));
#338 = CARTESIAN_POINT('',(12.477151803588,-8.6,79.125138704163));
#339 = CARTESIAN_POINT('',(13.16644252561,-8.6,81.466438878044));
#340 = CARTESIAN_POINT('',(13.311908084156,-8.6,83.688982456065));
#341 = CARTESIAN_POINT('',(13.294051786994,-8.599999999999,
    84.414333178136));
#342 = CARTESIAN_POINT('',(13.203259782311,-8.600000000002,
    85.120582003179));
#343 = CARTESIAN_POINT('',(13.032237898898,-8.599999999998,
    85.803476187277));
#344 = CARTESIAN_POINT('',(12.772897595349,-8.600000000001,
    86.457212541458));
#345 = CARTESIAN_POINT('',(12.416753222664,-8.599999999999,
    87.072956396219));
#346 = CARTESIAN_POINT('',(11.956354894211,-8.6,87.637760698279));
#347 = CARTESIAN_POINT('',(10.820253540255,-8.6,88.631967184019));
#348 = CARTESIAN_POINT('',(9.276738588106,-8.6,89.283687475563));
#349 = CARTESIAN_POINT('',(8.409482921403,-8.600000000001,
    89.505728895968));
#350 = CARTESIAN_POINT('',(7.458526259973,-8.599999999998,
    89.607935009542));
#351 = CARTESIAN_POINT('',(6.453448126287,-8.600000000002,
    89.571317709491));
#352 = CARTESIAN_POINT('',(5.43812910672,-8.599999999999,89.395927113169
    ));
#353 = CARTESIAN_POINT('',(4.4553901613,-8.600000000001,89.111228567863)
  );
#354 = CARTESIAN_POINT('',(3.528602028388,-8.6,88.761964491484));
#355 = CARTESIAN_POINT('',(2.654021595441,-8.6,88.382530829324));
#356 = CARTESIAN_POINT('',(0.409994578051,-8.6,87.346959613513));
#357 = CARTESIAN_POINT('',(-0.727353487006,-8.6,86.977316839218));
#358 = CARTESIAN_POINT('',(-1.837095178509,-8.600000000001,
    86.962337825004));
#359 = CARTESIAN_POINT('',(-3.049156394397,-8.599999999999,
    87.09563334871));
#360 = CARTESIAN_POINT('',(-4.252140770071,-8.6,87.411187966785));
#361 = CARTESIAN_POINT('',(-5.523639774311,-8.6,87.854762600663));
#362 = CARTESIAN_POINT('',(-6.766961018355,-8.6,88.457177963583));
#363 = CARTESIAN_POINT('',(-7.975649419256,-8.6,89.228440181365));
#364 = CARTESIAN_POINT('',(-9.089177811541,-8.6,90.222223336269));
#365 = CARTESIAN_POINT('',(-10.79232847171,-8.6,92.574318558596));
#366 = CARTESIAN_POINT('',(-11.45599042899,-8.6,93.777435424625));
#367 = CARTESIAN_POINT('',(-11.97074295842,-8.599999999999,
    95.108671530113));
#368 = CARTESIAN_POINT('',(-12.29435392399,-8.600000000001,
    96.569117889522));
#369 = CARTESIAN_POINT('',(-12.40289761172,-8.599999999999,
    98.157386696269));
#370 = CARTESIAN_POINT('',(-12.22535039486,-8.600000000001,
    99.847676766739));
#371 = CARTESIAN_POINT('',(-11.72761729422,-8.6,101.55351719434));
#372 = CARTESIAN_POINT('',(-10.98385744464,-8.6,103.16762117176));
#373 = CARTESIAN_POINT('',(-9.16368314919,-8.6,106.18586047045));
#374 = CARTESIAN_POINT('',(-6.914448750478,-8.6,108.82302319224));
#375 = CARTESIAN_POINT('',(-5.742485255574,-8.600000000001,
    110.05659766672));
#376 = CARTESIAN_POINT('',(-4.56213139134,-8.599999999999,
    111.25715640352));
#377 = CARTESIAN_POINT('',(-3.365635570257,-8.600000000001,
    112.47561144367));
#378 = CARTESIAN_POINT('',(-2.124094367901,-8.599999999999,
    113.74624217913));
#379 = CARTESIAN_POINT('',(-0.812620083099,-8.6,115.08797516576));
#380 = CARTESIAN_POINT('',(0.586864356128,-8.6,116.51274702489));
#381 = CARTESIAN_POINT('',(2.097483712704,-8.6,118.03187101185));
#382 = CARTESIAN_POINT('',(3.736498592935,-8.6,119.65199866685));
#383 = DEFINITIONAL_REPRESENTATION('',(#384),#387);
#384 = B_SPLINE_CURVE_WITH_KNOTS('',1,(#385,#386),.UNSPECIFIED.,.F.,.F.,
  (2,2),(0.,118.96627099072),.PIECEWISE_BEZIER_KNOTS.);
#385 = CARTESIAN_POINT('',(17.2,0.));
#386 = CARTESIAN_POINT('',(17.2,118.96627099072));
#387 = ( GEOMETRIC_REPRESENTATION_CONTEXT(2) 
PARAMETRIC_REPRESENTATION_CONTEXT() REPRESENTATION_CONTEXT('2D SPACE',''
  ) );
#388 = ORIENTED_EDGE('',*,*,#389,.T.);
#389 = EDGE_CURVE('',#22,#390,#392,.T.);
#390 = VERTEX_POINT('',#391);
#391 = CARTESIAN_POINT('',(10.35,-8.6,-2.22044604925E-16));
#392 = SURFACE_CURVE('',#393,(#396,#402),.PCURVE_S1.);
#393 = B_SPLINE_CURVE_WITH_KNOTS('',1,(#394,#395),.UNSPECIFIED.,.F.,.F.,
  (2,2),(0.,20.7),.PIECEWISE_BEZIER_KNOTS.);
#394 = CARTESIAN_POINT('',(-10.35,-8.6,1.7763568394E-15));
#395 = CARTESIAN_POINT('',(10.35,-8.6,-2.22044604925E-16));
#396 = PCURVE('',#115,#397);
#397 = DEFINITIONAL_REPRESENTATION('',(#398),#401);
#398 = B_SPLINE_CURVE_WITH_KNOTS('',1,(#399,#400),.UNSPECIFIED.,.F.,.F.,
  (2,2),(0.,20.7),.PIECEWISE_BEZIER_KNOTS.);
#399 = CARTESIAN_POINT('',(55.66293731009,6.055760974553));
#400 = CARTESIAN_POINT('',(51.140949233606,26.255801168477));
#401 = ( GEOMETRIC_REPRESENTATION_CONTEXT(2) 
PARAMETRIC_REPRESENTATION_CONTEXT() REPRESENTATION_CONTEXT('2D SPACE',''
  ) );
#402 = PCURVE('',#403,#408);
#403 = PLANE('',#404);
#404 = AXIS2_PLACEMENT_3D('',#405,#406,#407);
#405 = CARTESIAN_POINT('',(-1.499826355166E-15,-3.749565887916E-16,
    3.885780586188E-16));
#406 = DIRECTION('',(0.,0.,1.));
#407 = DIRECTION('',(1.,0.,-0.));
#408 = DEFINITIONAL_REPRESENTATION('',(#409),#412);
#409 = B_SPLINE_CURVE_WITH_KNOTS('',1,(#410,#411),.UNSPECIFIED.,.F.,.F.,
  (2,2),(0.,20.7),.PIECEWISE_BEZIER_KNOTS.);
#410 = CARTESIAN_POINT('',(-10.35,-8.6));
#411 = CARTESIAN_POINT('',(10.35,-8.6));
#412 = ( GEOMETRIC_REPRESENTATION_CONTEXT(2) 
PARAMETRIC_REPRESENTATION_CONTEXT() REPRESENTATION_CONTEXT('2D SPACE',''
  ) );
#413 = ORIENTED_EDGE('',*,*,#414,.T.);
#414 = EDGE_CURVE('',#390,#415,#417,.T.);
#415 = VERTEX_POINT('',#416);
#416 = CARTESIAN_POINT('',(-3.736498592935,-8.6,100.34800133314));
#417 = SURFACE_CURVE('',#418,(#505,#595),.PCURVE_S1.);
#418 = B_SPLINE_CURVE_WITH_KNOTS('',10,(#419,#420,#421,#422,#423,#424,
    #425,#426,#427,#428,#429,#430,#431,#432,#433,#434,#435,#436,#437,
    #438,#439,#440,#441,#442,#443,#444,#445,#446,#447,#448,#449,#450,
    #451,#452,#453,#454,#455,#456,#457,#458,#459,#460,#461,#462,#463,
    #464,#465,#466,#467,#468,#469,#470,#471,#472,#473,#474,#475,#476,
    #477,#478,#479,#480,#481,#482,#483,#484,#485,#486,#487,#488,#489,
    #490,#491,#492,#493,#494,#495,#496,#497,#498,#499,#500,#501,#502,
    #503,#504),.UNSPECIFIED.,.F.,.F.,(11,8,8,8,9,8,8,9,9,8,11),(0.,
    13.86104383207,27.722087664139,55.444175328278,56.353,
    70.903621842077,78.178932763116,85.454243684154,97.813270990724,
    108.38977099072,118.96627099072),.UNSPECIFIED.);
#419 = CARTESIAN_POINT('',(10.35,-8.6,-2.22044604925E-16));
#420 = CARTESIAN_POINT('',(7.606892185482,-8.6,0.348256577028));
#421 = CARTESIAN_POINT('',(5.078970282904,-8.599999999999,0.711546946497
    ));
#422 = CARTESIAN_POINT('',(2.752805274684,-8.600000000002,1.08171299454)
  );
#423 = CARTESIAN_POINT('',(0.611442500495,-8.599999999998,1.449628922374
    ));
#424 = CARTESIAN_POINT('',(-1.363020053892,-8.600000000002,
    1.807912315028));
#425 = CARTESIAN_POINT('',(-3.19382024043,-8.599999999999,2.149403041955
    ));
#426 = CARTESIAN_POINT('',(-4.911514662989,-8.600000000001,2.47119160134
    ));
#427 = CARTESIAN_POINT('',(-6.549071917189,-8.6,2.784502008776));
#428 = CARTESIAN_POINT('',(-9.711888659988,-8.6,3.458013631117));
#429 = CARTESIAN_POINT('',(-12.65979988063,-8.599999999999,
    4.374204192328));
#430 = CARTESIAN_POINT('',(-14.08219350384,-8.600000000002,
    4.929116730829));
#431 = CARTESIAN_POINT('',(-15.43975284839,-8.599999999997,
    5.628468123416));
#432 = CARTESIAN_POINT('',(-16.68175842683,-8.600000000004,
    6.503010201114));
#433 = CARTESIAN_POINT('',(-17.75411623704,-8.599999999997,
    7.550959439722));
#434 = CARTESIAN_POINT('',(-18.62893300875,-8.600000000001,
    8.743560149895));
#435 = CARTESIAN_POINT('',(-19.30405502563,-8.6,10.046845469542));
#436 = CARTESIAN_POINT('',(-20.73810946511,-8.600000000001,
    14.229260076363));
#437 = CARTESIAN_POINT('',(-20.49138846034,-8.599999999999,
    19.040719944544));
#438 = CARTESIAN_POINT('',(-19.66053876409,-8.600000000002,
    22.367574952285));
#439 = CARTESIAN_POINT('',(-18.33617137705,-8.599999999996,
    25.736281291454));
#440 = CARTESIAN_POINT('',(-16.61699564363,-8.600000000004,
    29.132462367418));
#441 = CARTESIAN_POINT('',(-14.58931694172,-8.599999999996,
    32.533940625395));
#442 = CARTESIAN_POINT('',(-12.33960955683,-8.600000000003,
    35.914109476999));
#443 = CARTESIAN_POINT('',(-9.932623778486,-8.599999999999,
    39.263015515031));
#444 = CARTESIAN_POINT('',(-7.353159250218,-8.6,42.6670747923));
#445 = CARTESIAN_POINT('',(-4.737310022906,-8.6,45.995310667359));
#446 = CARTESIAN_POINT('',(-4.654241045376,-8.600000000001,
    46.100881055509));
#447 = CARTESIAN_POINT('',(-4.571139403877,-8.599999999999,
    46.20637371945));
#448 = CARTESIAN_POINT('',(-4.488007083886,-8.600000000002,
    46.311787996193));
#449 = CARTESIAN_POINT('',(-4.404846061973,-8.599999999999,
    46.417123221946));
#450 = CARTESIAN_POINT('',(-4.321658305739,-8.600000000001,
    46.522378732496));
#451 = CARTESIAN_POINT('',(-4.23844577375,-8.6,46.62755386281));
#452 = CARTESIAN_POINT('',(-4.155210415466,-8.6,46.732647947352));
#453 = CARTESIAN_POINT('',(-2.738990658754,-8.6,48.518947557281));
#454 = CARTESIAN_POINT('',(-1.391673139287,-8.6,50.175437860471));
#455 = CARTESIAN_POINT('',(-4.253979346827E-02,-8.600000000001,
    51.802373180842));
#456 = CARTESIAN_POINT('',(1.297417307841,-8.599999999999,53.39409317852
    ));
#457 = CARTESIAN_POINT('',(2.618750153183,-8.600000000001,
    54.945618827497));
#458 = CARTESIAN_POINT('',(3.913957417739,-8.599999999999,
    56.452223590758));
#459 = CARTESIAN_POINT('',(5.178518546557,-8.6,57.908650678635));
#460 = CARTESIAN_POINT('',(6.412786072085,-8.6,59.309634903212));
#461 = CARTESIAN_POINT('',(8.231051380431,-8.6,61.325264011365));
#462 = CARTESIAN_POINT('',(10.045383318314,-8.6,63.234159966199));
#463 = CARTESIAN_POINT('',(10.652260231172,-8.599999999999,
    63.85973881915));
#464 = CARTESIAN_POINT('',(11.264444478013,-8.600000000002,
    64.477040114002));
#465 = CARTESIAN_POINT('',(11.885847072888,-8.599999999998,
    65.089154075086));
#466 = CARTESIAN_POINT('',(12.521173400146,-8.600000000001,
    65.700721372404));
#467 = CARTESIAN_POINT('',(13.175525951621,-8.599999999999,
    66.319414155803));
#468 = CARTESIAN_POINT('',(13.852971456865,-8.6,66.957016959458));
#469 = CARTESIAN_POINT('',(15.254078846146,-8.6,68.301240581432));
#470 = CARTESIAN_POINT('',(16.710890568666,-8.6,69.850532112934));
#471 = CARTESIAN_POINT('',(17.443484147207,-8.600000000001,
    70.693479513609));
#472 = CARTESIAN_POINT('',(18.165085089995,-8.599999999998,
    71.619582611172));
#473 = CARTESIAN_POINT('',(18.842730717481,-8.600000000002,
    72.646666993449));
#474 = CARTESIAN_POINT('',(19.429157286126,-8.599999999998,
    73.773520023275));
#475 = CARTESIAN_POINT('',(19.878160678841,-8.600000000001,
    74.969513834533));
#476 = CARTESIAN_POINT('',(20.162987000109,-8.6,76.188743489612));
#477 = CARTESIAN_POINT('',(20.283996205384,-8.6,77.395650524108));
#478 = CARTESIAN_POINT('',(20.183975576875,-8.6,80.546562318882));
#479 = CARTESIAN_POINT('',(19.513994811527,-8.6,82.121748439032));
#480 = CARTESIAN_POINT('',(18.548049427225,-8.600000000001,
    83.245340688197));
#481 = CARTESIAN_POINT('',(17.479552061807,-8.599999999999,
    84.152776764001));
#482 = CARTESIAN_POINT('',(16.26059309063,-8.600000000001,
    84.839120585743));
#483 = CARTESIAN_POINT('',(15.032250722353,-8.599999999999,
    85.387659707405));
#484 = CARTESIAN_POINT('',(13.761319308175,-8.6,85.796621891457));
#485 = CARTESIAN_POINT('',(12.504830505041,-8.6,86.085049487582));
#486 = CARTESIAN_POINT('',(11.265743887414,-8.6,86.228316889145));
#487 = CARTESIAN_POINT('',(8.929685843745,-8.6,86.183798542181));
#488 = CARTESIAN_POINT('',(7.859633623691,-8.6,86.122726971756));
#489 = CARTESIAN_POINT('',(6.784231396689,-8.599999999999,
    86.018752463811));
#490 = CARTESIAN_POINT('',(5.675877996971,-8.600000000001,
    85.878072111319));
#491 = CARTESIAN_POINT('',(4.525278680827,-8.599999999999,
    85.709361827692));
#492 = CARTESIAN_POINT('',(3.27604079174,-8.600000000001,85.545710904218
    ));
#493 = CARTESIAN_POINT('',(1.908700320792,-8.6,85.480878354272));
#494 = CARTESIAN_POINT('',(0.512047373058,-8.6,85.629439092656));
#495 = CARTESIAN_POINT('',(-2.151222633841,-8.6,86.394419116037));
#496 = CARTESIAN_POINT('',(-4.259647893305,-8.6,88.085407926189));
#497 = CARTESIAN_POINT('',(-5.100599635656,-8.600000000001,
    89.159430377373));
#498 = CARTESIAN_POINT('',(-5.674703594152,-8.599999999998,
    90.417277833062));
#499 = CARTESIAN_POINT('',(-5.975080386064,-8.600000000002,
    91.815326359593));
#500 = CARTESIAN_POINT('',(-6.016002465554,-8.599999999998,
    93.326584671999));
#501 = CARTESIAN_POINT('',(-5.807726563547,-8.600000000001,
    94.939414321834));
#502 = CARTESIAN_POINT('',(-5.353698781764,-8.6,96.649166794839));
#503 = CARTESIAN_POINT('',(-4.662412912876,-8.6,98.451816942944));
#504 = CARTESIAN_POINT('',(-3.736498592935,-8.6,100.34800133314));
#505 = PCURVE('',#115,#506);
#506 = DEFINITIONAL_REPRESENTATION('',(#507),#594);
#507 = B_SPLINE_CURVE_WITH_KNOTS('',10,(#508,#509,#510,#511,#512,#513,
    #514,#515,#516,#517,#518,#519,#520,#521,#522,#523,#524,#525,#526,
    #527,#528,#529,#530,#531,#532,#533,#534,#535,#536,#537,#538,#539,
    #540,#541,#542,#543,#544,#545,#546,#547,#548,#549,#550,#551,#552,
    #553,#554,#555,#556,#557,#558,#559,#560,#561,#562,#563,#564,#565,
    #566,#567,#568,#569,#570,#571,#572,#573,#574,#575,#576,#577,#578,
    #579,#580,#581,#582,#583,#584,#585,#586,#587,#588,#589,#590,#591,
    #592,#593),.UNSPECIFIED.,.F.,.F.,(11,8,8,8,9,8,8,9,9,8,11),(0.,
    13.86104383207,27.722087664139,55.444175328278,56.353,
    70.903621842077,78.178932763116,85.454243684154,97.813270990724,
    108.38977099072,118.96627099072),.UNSPECIFIED.);
#508 = CARTESIAN_POINT('',(51.140949233606,26.255801168477));
#509 = CARTESIAN_POINT('',(51.400345560948,23.502868791743));
#510 = CARTESIAN_POINT('',(51.598063079615,20.956640832409));
#511 = CARTESIAN_POINT('',(51.744996479722,18.605794787997));
#512 = CARTESIAN_POINT('',(51.853754953252,16.435779061079));
#513 = CARTESIAN_POINT('',(51.935453368517,14.430736733079));
#514 = CARTESIAN_POINT('',(52.002155310748,12.56955536349));
#515 = CARTESIAN_POINT('',(52.063375207576,10.823051962269));
#516 = CARTESIAN_POINT('',(52.115362239202,9.156602286842));
#517 = CARTESIAN_POINT('',(52.149046188801,5.923044950795));
#518 = CARTESIAN_POINT('',(51.89896566844,2.84618852863));
#519 = CARTESIAN_POINT('',(51.668182645367,1.336926874381));
#520 = CARTESIAN_POINT('',(51.2822860719,-0.140619598277));
#521 = CARTESIAN_POINT('',(50.700187004068,-1.54367425786));
#522 = CARTESIAN_POINT('',(49.911808863509,-2.819059998455));
#523 = CARTESIAN_POINT('',(48.939119430175,-3.933275464265));
#524 = CARTESIAN_POINT('',(47.814794689568,-4.876798775973));
#525 = CARTESIAN_POINT('',(44.046670723914,-7.189880239783));
#526 = CARTESIAN_POINT('',(39.297523276064,-8.000198594437));
#527 = CARTESIAN_POINT('',(35.869518575797,-7.916179339262));
#528 = CARTESIAN_POINT('',(32.292862682763,-7.35970472328));
#529 = CARTESIAN_POINT('',(28.603148363524,-6.423959381031));
#530 = CARTESIAN_POINT('',(24.84087124068,-5.188319421905));
#531 = CARTESIAN_POINT('',(21.050885896008,-3.731358245291));
#532 = CARTESIAN_POINT('',(17.257050264904,-2.114087892849));
#533 = CARTESIAN_POINT('',(13.371714899499,-0.340553028774));
#534 = CARTESIAN_POINT('',(9.552423234434,1.48505163742));
#535 = CARTESIAN_POINT('',(9.431255939273,1.543052055223));
#536 = CARTESIAN_POINT('',(9.310157355516,1.601101327201));
#537 = CARTESIAN_POINT('',(9.189128563874,1.659197660666));
#538 = CARTESIAN_POINT('',(9.068170643895,1.717339271793));
#539 = CARTESIAN_POINT('',(8.947284673579,1.775524385603));
#540 = CARTESIAN_POINT('',(8.826471729752,1.833751236115));
#541 = CARTESIAN_POINT('',(8.705732887743,1.892018066341));
#542 = CARTESIAN_POINT('',(6.653198937381,2.883808910394));
#543 = CARTESIAN_POINT('',(4.742390992282,3.836718989976));
#544 = CARTESIAN_POINT('',(2.860027525239,4.797857429231));
#545 = CARTESIAN_POINT('',(1.014033420617,5.757734166139));
#546 = CARTESIAN_POINT('',(-0.788668600781,6.708217069541));
#547 = CARTESIAN_POINT('',(-2.541827469435,7.643018520171));
#548 = CARTESIAN_POINT('',(-4.239325829877,8.55887551071));
#549 = CARTESIAN_POINT('',(-5.876102674375,9.4572822579));
#550 = CARTESIAN_POINT('',(-8.24025547848,10.791310350563));
#551 = CARTESIAN_POINT('',(-10.49939375884,12.144816308213));
#552 = CARTESIAN_POINT('',(-11.24243763024,12.600375627949));
#553 = CARTESIAN_POINT('',(-11.97856327433,13.06292235729));
#554 = CARTESIAN_POINT('',(-12.71164065316,13.535597978528));
#555 = CARTESIAN_POINT('',(-13.4472262601,14.021980457776));
#556 = CARTESIAN_POINT('',(-14.19392159961,14.525373039962));
#557 = CARTESIAN_POINT('',(-14.9641149696,15.047169859259));
#558 = CARTESIAN_POINT('',(-16.58194888756,16.12078639978));
#559 = CARTESIAN_POINT('',(-18.41206659033,17.203964057627));
#560 = CARTESIAN_POINT('',(-19.39469223294,17.734718726099));
#561 = CARTESIAN_POINT('',(-20.45606376211,18.23658060453));
#562 = CARTESIAN_POINT('',(-21.6063754168,18.673489086765));
#563 = CARTESIAN_POINT('',(-22.83411891662,18.999586878677));
#564 = CARTESIAN_POINT('',(-24.09931268702,19.176476580416));
#565 = CARTESIAN_POINT('',(-25.35131603324,19.188078569553));
#566 = CARTESIAN_POINT('',(-26.55550795549,19.042511979745));
#567 = CARTESIAN_POINT('',(-29.60846702856,18.256579309111));
#568 = CARTESIAN_POINT('',(-30.99924856998,17.25867538434));
#569 = CARTESIAN_POINT('',(-31.88468891222,16.070607445134));
#570 = CARTESIAN_POINT('',(-32.53679098268,14.829684505833));
#571 = CARTESIAN_POINT('',(-32.94027189344,13.490232390336));
#572 = CARTESIAN_POINT('',(-33.20722661626,12.171727434841));
#573 = CARTESIAN_POINT('',(-33.32867182663,10.842153146429));
#574 = CARTESIAN_POINT('',(-33.33564871787,9.553003848017));
#575 = CARTESIAN_POINT('',(-33.20477298644,8.312547183214));
#576 = CARTESIAN_POINT('',(-32.65100974888,6.042636316388));
#577 = CARTESIAN_POINT('',(-32.35765653354,5.011769990715));
#578 = CARTESIAN_POINT('',(-32.02126787231,3.985055173088));
#579 = CARTESIAN_POINT('',(-31.64186160985,2.934203562131));
#580 = CARTESIAN_POINT('',(-31.22587364372,1.84824962289));
#581 = CARTESIAN_POINT('',(-30.79327489633,0.664934258317));
#582 = CARTESIAN_POINT('',(-30.43130787116,-0.655218420624));
#583 = CARTESIAN_POINT('',(-30.27117670739,-2.0505921196));
#584 = CARTESIAN_POINT('',(-30.43587970276,-4.816649691152));
#585 = CARTESIAN_POINT('',(-31.6254337148,-7.243553373472));
#586 = CARTESIAN_POINT('',(-32.48980680326,-8.298817900755));
#587 = CARTESIAN_POINT('',(-33.5918588761,-9.133836945866));
#588 = CARTESIAN_POINT('',(-34.89052245859,-9.732367479067));
#589 = CARTESIAN_POINT('',(-36.35634030876,-10.10244089547));
#590 = CARTESIAN_POINT('',(-37.97571445843,-10.25152373866));
#591 = CARTESIAN_POINT('',(-39.74335585417,-10.18196339352));
#592 = CARTESIAN_POINT('',(-41.65348106692,-9.901169197325));
#593 = CARTESIAN_POINT('',(-43.7061368356,-9.411846333769));
#594 = ( GEOMETRIC_REPRESENTATION_CONTEXT(2) 
PARAMETRIC_REPRESENTATION_CONTEXT() REPRESENTATION_CONTEXT('2D SPACE',''
  ) );
#595 = PCURVE('',#596,#769);
#596 = B_SPLINE_SURFACE_WITH_KNOTS('',1,10,(
    (#597,#598,#599,#600,#601,#602,#603,#604,#605,#606,#607,#608,#609
      ,#610,#611,#612,#613,#614,#615,#616,#617,#618,#619,#620,#621,#622
      ,#623,#624,#625,#626,#627,#628,#629,#630,#631,#632,#633,#634,#635
      ,#636,#637,#638,#639,#640,#641,#642,#643,#644,#645,#646,#647,#648
      ,#649,#650,#651,#652,#653,#654,#655,#656,#657,#658,#659,#660,#661
      ,#662,#663,#664,#665,#666,#667,#668,#669,#670,#671,#672,#673,#674
      ,#675,#676,#677,#678,#679,#680,#681,#682)
    ,(#683,#684,#685,#686,#687,#688,#689,#690,#691,#692,#693,#694,#695
      ,#696,#697,#698,#699,#700,#701,#702,#703,#704,#705,#706,#707,#708
      ,#709,#710,#711,#712,#713,#714,#715,#716,#717,#718,#719,#720,#721
      ,#722,#723,#724,#725,#726,#727,#728,#729,#730,#731,#732,#733,#734
      ,#735,#736,#737,#738,#739,#740,#741,#742,#743,#744,#745,#746,#747
      ,#748,#749,#750,#751,#752,#753,#754,#755,#756,#757,#758,#759,#760
      ,#761,#762,#763,#764,#765,#766,#767,#768
  )),.UNSPECIFIED.,.F.,.F.,.F.,(2,2),(11,8,8,8,9,8,8,9,9,8,11),(0.,17.2)
  ,(0.,13.86104383207,27.722087664139,55.444175328278,56.353,
    70.903621842077,78.178932763116,85.454243684154,97.813270990724,
    108.38977099072,118.96627099072),.UNSPECIFIED.);
#597 = CARTESIAN_POINT('',(10.35,-8.6,-2.22044604925E-16));
#598 = CARTESIAN_POINT('',(7.606892185482,-8.6,0.348256577028));
#599 = CARTESIAN_POINT('',(5.078970282904,-8.599999999999,0.711546946497
    ));
#600 = CARTESIAN_POINT('',(2.752805274684,-8.600000000003,1.08171299454)
  );
#601 = CARTESIAN_POINT('',(0.611442500495,-8.599999999997,1.449628922374
    ));
#602 = CARTESIAN_POINT('',(-1.363020053892,-8.600000000003,
    1.807912315028));
#603 = CARTESIAN_POINT('',(-3.19382024043,-8.599999999997,2.149403041955
    ));
#604 = CARTESIAN_POINT('',(-4.911514662989,-8.600000000001,2.47119160134
    ));
#605 = CARTESIAN_POINT('',(-6.549071917189,-8.6,2.784502008776));
#606 = CARTESIAN_POINT('',(-9.711888659988,-8.600000000001,
    3.458013631117));
#607 = CARTESIAN_POINT('',(-12.65979988063,-8.599999999999,
    4.374204192328));
#608 = CARTESIAN_POINT('',(-14.08219350384,-8.600000000002,
    4.929116730829));
#609 = CARTESIAN_POINT('',(-15.43975284839,-8.599999999996,
    5.628468123416));
#610 = CARTESIAN_POINT('',(-16.68175842683,-8.600000000004,
    6.503010201114));
#611 = CARTESIAN_POINT('',(-17.75411623704,-8.599999999997,
    7.550959439722));
#612 = CARTESIAN_POINT('',(-18.62893300875,-8.600000000001,
    8.743560149895));
#613 = CARTESIAN_POINT('',(-19.30405502563,-8.6,10.046845469542));
#614 = CARTESIAN_POINT('',(-20.73810946511,-8.600000000001,
    14.229260076363));
#615 = CARTESIAN_POINT('',(-20.49138846034,-8.599999999999,
    19.040719944544));
#616 = CARTESIAN_POINT('',(-19.66053876409,-8.600000000003,
    22.367574952285));
#617 = CARTESIAN_POINT('',(-18.33617137705,-8.599999999995,
    25.736281291454));
#618 = CARTESIAN_POINT('',(-16.61699564363,-8.600000000006,
    29.132462367418));
#619 = CARTESIAN_POINT('',(-14.58931694172,-8.599999999995,
    32.533940625395));
#620 = CARTESIAN_POINT('',(-12.33960955683,-8.600000000003,
    35.914109476999));
#621 = CARTESIAN_POINT('',(-9.932623778486,-8.599999999999,
    39.263015515031));
#622 = CARTESIAN_POINT('',(-7.353159250218,-8.6,42.6670747923));
#623 = CARTESIAN_POINT('',(-4.737310022906,-8.6,45.995310667359));
#624 = CARTESIAN_POINT('',(-4.654241045376,-8.600000000001,
    46.100881055509));
#625 = CARTESIAN_POINT('',(-4.571139403877,-8.599999999998,
    46.20637371945));
#626 = CARTESIAN_POINT('',(-4.488007083886,-8.600000000002,
    46.311787996193));
#627 = CARTESIAN_POINT('',(-4.404846061973,-8.599999999998,
    46.417123221946));
#628 = CARTESIAN_POINT('',(-4.321658305739,-8.600000000001,
    46.522378732496));
#629 = CARTESIAN_POINT('',(-4.23844577375,-8.6,46.62755386281));
#630 = CARTESIAN_POINT('',(-4.155210415466,-8.6,46.732647947352));
#631 = CARTESIAN_POINT('',(-2.738990658754,-8.6,48.518947557281));
#632 = CARTESIAN_POINT('',(-1.391673139287,-8.6,50.175437860471));
#633 = CARTESIAN_POINT('',(-4.253979346827E-02,-8.600000000001,
    51.802373180842));
#634 = CARTESIAN_POINT('',(1.297417307841,-8.599999999999,53.39409317852
    ));
#635 = CARTESIAN_POINT('',(2.618750153183,-8.600000000002,
    54.945618827497));
#636 = CARTESIAN_POINT('',(3.913957417739,-8.599999999999,
    56.452223590758));
#637 = CARTESIAN_POINT('',(5.178518546557,-8.600000000001,
    57.908650678635));
#638 = CARTESIAN_POINT('',(6.412786072085,-8.6,59.309634903212));
#639 = CARTESIAN_POINT('',(8.231051380431,-8.6,61.325264011365));
#640 = CARTESIAN_POINT('',(10.045383318314,-8.6,63.234159966199));
#641 = CARTESIAN_POINT('',(10.652260231172,-8.599999999999,
    63.85973881915));
#642 = CARTESIAN_POINT('',(11.264444478013,-8.600000000002,
    64.477040114002));
#643 = CARTESIAN_POINT('',(11.885847072888,-8.599999999998,
    65.089154075086));
#644 = CARTESIAN_POINT('',(12.521173400146,-8.600000000001,
    65.700721372404));
#645 = CARTESIAN_POINT('',(13.175525951621,-8.599999999999,
    66.319414155803));
#646 = CARTESIAN_POINT('',(13.852971456865,-8.6,66.957016959458));
#647 = CARTESIAN_POINT('',(15.254078846146,-8.6,68.301240581432));
#648 = CARTESIAN_POINT('',(16.710890568666,-8.6,69.850532112934));
#649 = CARTESIAN_POINT('',(17.443484147207,-8.600000000001,
    70.693479513609));
#650 = CARTESIAN_POINT('',(18.165085089995,-8.599999999998,
    71.619582611172));
#651 = CARTESIAN_POINT('',(18.842730717481,-8.600000000002,
    72.646666993449));
#652 = CARTESIAN_POINT('',(19.429157286126,-8.599999999999,
    73.773520023275));
#653 = CARTESIAN_POINT('',(19.878160678841,-8.600000000001,
    74.969513834533));
#654 = CARTESIAN_POINT('',(20.162987000109,-8.6,76.188743489612));
#655 = CARTESIAN_POINT('',(20.283996205384,-8.6,77.395650524108));
#656 = CARTESIAN_POINT('',(20.183975576875,-8.6,80.546562318882));
#657 = CARTESIAN_POINT('',(19.513994811527,-8.6,82.121748439032));
#658 = CARTESIAN_POINT('',(18.548049427225,-8.600000000001,
    83.245340688197));
#659 = CARTESIAN_POINT('',(17.479552061807,-8.599999999999,
    84.152776764001));
#660 = CARTESIAN_POINT('',(16.26059309063,-8.6,84.839120585743));
#661 = CARTESIAN_POINT('',(15.032250722353,-8.6,85.387659707405));
#662 = CARTESIAN_POINT('',(13.761319308175,-8.6,85.796621891457));
#663 = CARTESIAN_POINT('',(12.504830505041,-8.6,86.085049487582));
#664 = CARTESIAN_POINT('',(11.265743887414,-8.6,86.228316889145));
#665 = CARTESIAN_POINT('',(8.929685843745,-8.6,86.183798542181));
#666 = CARTESIAN_POINT('',(7.859633623691,-8.6,86.122726971756));
#667 = CARTESIAN_POINT('',(6.784231396689,-8.599999999999,
    86.018752463811));
#668 = CARTESIAN_POINT('',(5.675877996971,-8.600000000001,
    85.878072111319));
#669 = CARTESIAN_POINT('',(4.525278680827,-8.599999999999,
    85.709361827692));
#670 = CARTESIAN_POINT('',(3.27604079174,-8.600000000001,85.545710904218
    ));
#671 = CARTESIAN_POINT('',(1.908700320792,-8.6,85.480878354272));
#672 = CARTESIAN_POINT('',(0.512047373058,-8.6,85.629439092656));
#673 = CARTESIAN_POINT('',(-2.151222633841,-8.6,86.394419116037));
#674 = CARTESIAN_POINT('',(-4.259647893305,-8.6,88.085407926189));
#675 = CARTESIAN_POINT('',(-5.100599635656,-8.600000000001,
    89.159430377373));
#676 = CARTESIAN_POINT('',(-5.674703594152,-8.599999999999,
    90.417277833062));
#677 = CARTESIAN_POINT('',(-5.975080386064,-8.600000000001,
    91.815326359593));
#678 = CARTESIAN_POINT('',(-6.016002465554,-8.599999999999,
    93.326584671999));
#679 = CARTESIAN_POINT('',(-5.807726563547,-8.6,94.939414321834));
#680 = CARTESIAN_POINT('',(-5.353698781764,-8.6,96.649166794839));
#681 = CARTESIAN_POINT('',(-4.662412912876,-8.6,98.451816942944));
#682 = CARTESIAN_POINT('',(-3.736498592935,-8.6,100.34800133314));
#683 = CARTESIAN_POINT('',(10.35,8.6,0.));
#684 = CARTESIAN_POINT('',(7.606892185482,8.6,0.348256577028));
#685 = CARTESIAN_POINT('',(5.078970282904,8.599999999999,0.711546946497)
  );
#686 = CARTESIAN_POINT('',(2.752805274684,8.600000000003,1.08171299454)
  );
#687 = CARTESIAN_POINT('',(0.611442500495,8.599999999997,1.449628922374)
  );
#688 = CARTESIAN_POINT('',(-1.363020053892,8.600000000003,1.807912315028
    ));
#689 = CARTESIAN_POINT('',(-3.19382024043,8.599999999997,2.149403041954)
  );
#690 = CARTESIAN_POINT('',(-4.911514662989,8.600000000001,2.47119160134)
  );
#691 = CARTESIAN_POINT('',(-6.549071917189,8.6,2.784502008776));
#692 = CARTESIAN_POINT('',(-9.711888659988,8.600000000001,3.458013631117
    ));
#693 = CARTESIAN_POINT('',(-12.65979988063,8.599999999999,4.374204192328
    ));
#694 = CARTESIAN_POINT('',(-14.08219350384,8.600000000002,4.929116730829
    ));
#695 = CARTESIAN_POINT('',(-15.43975284839,8.599999999996,5.628468123416
    ));
#696 = CARTESIAN_POINT('',(-16.68175842683,8.600000000004,6.503010201114
    ));
#697 = CARTESIAN_POINT('',(-17.75411623704,8.599999999997,7.550959439722
    ));
#698 = CARTESIAN_POINT('',(-18.62893300875,8.600000000001,8.743560149895
    ));
#699 = CARTESIAN_POINT('',(-19.30405502563,8.6,10.046845469543));
#700 = CARTESIAN_POINT('',(-20.73810946511,8.600000000001,
    14.229260076362));
#701 = CARTESIAN_POINT('',(-20.49138846034,8.599999999999,
    19.040719944545));
#702 = CARTESIAN_POINT('',(-19.66053876409,8.600000000003,
    22.367574952282));
#703 = CARTESIAN_POINT('',(-18.33617137705,8.599999999995,25.73628129146
    ));
#704 = CARTESIAN_POINT('',(-16.61699564363,8.600000000006,
    29.132462367409));
#705 = CARTESIAN_POINT('',(-14.58931694172,8.599999999995,
    32.533940625403));
#706 = CARTESIAN_POINT('',(-12.33960955683,8.600000000003,
    35.914109476993));
#707 = CARTESIAN_POINT('',(-9.932623778486,8.599999999999,
    39.263015515034));
#708 = CARTESIAN_POINT('',(-7.353159250218,8.6,42.667074792298));
#709 = CARTESIAN_POINT('',(-4.737310022906,8.6,45.99531066736));
#710 = CARTESIAN_POINT('',(-4.654241045376,8.600000000001,
    46.100881055504));
#711 = CARTESIAN_POINT('',(-4.571139403877,8.599999999998,
    46.206373719461));
#712 = CARTESIAN_POINT('',(-4.488007083886,8.600000000002,
    46.311787996178));
#713 = CARTESIAN_POINT('',(-4.404846061972,8.599999999998,46.41712322196
    ));
#714 = CARTESIAN_POINT('',(-4.321658305739,8.600000000001,
    46.522378732488));
#715 = CARTESIAN_POINT('',(-4.23844577375,8.6,46.627553862813));
#716 = CARTESIAN_POINT('',(-4.155210415466,8.6,46.732647947352));
#717 = CARTESIAN_POINT('',(-2.738990658754,8.6,48.518947557282));
#718 = CARTESIAN_POINT('',(-1.391673139287,8.6,50.175437860469));
#719 = CARTESIAN_POINT('',(-4.253979346859E-02,8.600000000001,
    51.802373180846));
#720 = CARTESIAN_POINT('',(1.297417307842,8.599999999999,53.394093178515
    ));
#721 = CARTESIAN_POINT('',(2.618750153182,8.600000000002,54.945618827501
    ));
#722 = CARTESIAN_POINT('',(3.913957417739,8.599999999999,56.452223590757
    ));
#723 = CARTESIAN_POINT('',(5.178518546557,8.600000000001,57.908650678635
    ));
#724 = CARTESIAN_POINT('',(6.412786072085,8.6,59.309634903212));
#725 = CARTESIAN_POINT('',(8.231051380431,8.6,61.325264011365));
#726 = CARTESIAN_POINT('',(10.045383318314,8.6,63.234159966199));
#727 = CARTESIAN_POINT('',(10.652260231173,8.599999999999,
    63.859738819151));
#728 = CARTESIAN_POINT('',(11.264444478012,8.600000000002,
    64.477040113999));
#729 = CARTESIAN_POINT('',(11.88584707289,8.599999999998,65.08915407509)
  );
#730 = CARTESIAN_POINT('',(12.521173400145,8.600000000001,65.7007213724)
  );
#731 = CARTESIAN_POINT('',(13.175525951622,8.599999999999,
    66.319414155804));
#732 = CARTESIAN_POINT('',(13.852971456864,8.6,66.957016959458));
#733 = CARTESIAN_POINT('',(15.254078846146,8.6,68.301240581432));
#734 = CARTESIAN_POINT('',(16.710890568666,8.6,69.850532112935));
#735 = CARTESIAN_POINT('',(17.443484147207,8.600000000001,
    70.693479513606));
#736 = CARTESIAN_POINT('',(18.165085089995,8.599999999998,
    71.619582611177));
#737 = CARTESIAN_POINT('',(18.842730717481,8.600000000002,
    72.646666993444));
#738 = CARTESIAN_POINT('',(19.429157286126,8.599999999999,
    73.773520023278));
#739 = CARTESIAN_POINT('',(19.878160678841,8.600000000001,
    74.969513834532));
#740 = CARTESIAN_POINT('',(20.162987000109,8.6,76.188743489612));
#741 = CARTESIAN_POINT('',(20.283996205384,8.6,77.395650524108));
#742 = CARTESIAN_POINT('',(20.183975576875,8.6,80.546562318883));
#743 = CARTESIAN_POINT('',(19.513994811527,8.6,82.121748439028));
#744 = CARTESIAN_POINT('',(18.548049427224,8.600000000001,
    83.245340688205));
#745 = CARTESIAN_POINT('',(17.479552061809,8.599999999999,
    84.152776763986));
#746 = CARTESIAN_POINT('',(16.260593090628,8.6,84.839120585761));
#747 = CARTESIAN_POINT('',(15.032250722355,8.6,85.387659707389));
#748 = CARTESIAN_POINT('',(13.761319308174,8.6,85.796621891468));
#749 = CARTESIAN_POINT('',(12.504830505042,8.6,86.085049487578));
#750 = CARTESIAN_POINT('',(11.265743887414,8.6,86.228316889146));
#751 = CARTESIAN_POINT('',(8.929685843745,8.6,86.183798542181));
#752 = CARTESIAN_POINT('',(7.859633623691,8.6,86.122726971757));
#753 = CARTESIAN_POINT('',(6.784231396689,8.599999999999,86.01875246381)
  );
#754 = CARTESIAN_POINT('',(5.675877996971,8.600000000001,85.878072111322
    ));
#755 = CARTESIAN_POINT('',(4.525278680826,8.599999999999,85.709361827689
    ));
#756 = CARTESIAN_POINT('',(3.27604079174,8.600000000001,85.54571090422)
  );
#757 = CARTESIAN_POINT('',(1.908700320792,8.6,85.480878354271));
#758 = CARTESIAN_POINT('',(0.512047373058,8.6,85.629439092656));
#759 = CARTESIAN_POINT('',(-2.151222633841,8.6,86.394419116039));
#760 = CARTESIAN_POINT('',(-4.259647893305,8.6,88.085407926187));
#761 = CARTESIAN_POINT('',(-5.100599635655,8.600000000001,
    89.159430377381));
#762 = CARTESIAN_POINT('',(-5.674703594152,8.599999999999,
    90.417277833045));
#763 = CARTESIAN_POINT('',(-5.975080386064,8.600000000001,
    91.815326359615));
#764 = CARTESIAN_POINT('',(-6.016002465554,8.599999999999,
    93.326584671978));
#765 = CARTESIAN_POINT('',(-5.807726563547,8.6,94.939414321848));
#766 = CARTESIAN_POINT('',(-5.353698781764,8.6,96.649166794832));
#767 = CARTESIAN_POINT('',(-4.662412912876,8.6,98.451816942945));
#768 = CARTESIAN_POINT('',(-3.736498592935,8.6,100.34800133314));
#769 = DEFINITIONAL_REPRESENTATION('',(#770),#773);
#770 = B_SPLINE_CURVE_WITH_KNOTS('',1,(#771,#772),.UNSPECIFIED.,.F.,.F.,
  (2,2),(0.,118.96627099072),.PIECEWISE_BEZIER_KNOTS.);
#771 = CARTESIAN_POINT('',(0.,0.));
#772 = CARTESIAN_POINT('',(0.,118.96627099072));
#773 = ( GEOMETRIC_REPRESENTATION_CONTEXT(2) 
PARAMETRIC_REPRESENTATION_CONTEXT() REPRESENTATION_CONTEXT('2D SPACE',''
  ) );
#774 = ORIENTED_EDGE('',*,*,#775,.F.);
#775 = EDGE_CURVE('',#24,#415,#776,.T.);
#776 = SURFACE_CURVE('',#777,(#780,#786),.PCURVE_S1.);
#777 = B_SPLINE_CURVE_WITH_KNOTS('',1,(#778,#779),.UNSPECIFIED.,.F.,.F.,
  (2,2),(0.,20.7),.PIECEWISE_BEZIER_KNOTS.);
#778 = CARTESIAN_POINT('',(3.736498592935,-8.6,119.65199866685));
#779 = CARTESIAN_POINT('',(-3.736498592935,-8.6,100.34800133314));
#780 = PCURVE('',#115,#781);
#781 = DEFINITIONAL_REPRESENTATION('',(#782),#785);
#782 = B_SPLINE_CURVE_WITH_KNOTS('',1,(#783,#784),.UNSPECIFIED.,.F.,.F.,
  (2,2),(0.,20.7),.PIECEWISE_BEZIER_KNOTS.);
#783 = CARTESIAN_POINT('',(-64.17639414065,-6.336368181492));
#784 = CARTESIAN_POINT('',(-43.7061368356,-9.411846333769));
#785 = ( GEOMETRIC_REPRESENTATION_CONTEXT(2) 
PARAMETRIC_REPRESENTATION_CONTEXT() REPRESENTATION_CONTEXT('2D SPACE',''
  ) );
#786 = PCURVE('',#787,#792);
#787 = PLANE('',#788);
#788 = AXIS2_PLACEMENT_3D('',#789,#790,#791);
#789 = CARTESIAN_POINT('',(2.812174415937E-16,-3.187131004729E-15,110.)
  );
#790 = DIRECTION('',(0.932560257667,-8.65242743174E-16,-0.361014356805)
  );
#791 = DIRECTION('',(0.361014356805,0.,0.932560257667));
#792 = DEFINITIONAL_REPRESENTATION('',(#793),#796);
#793 = B_SPLINE_CURVE_WITH_KNOTS('',1,(#794,#795),.UNSPECIFIED.,.F.,.F.,
  (2,2),(0.,20.7),.PIECEWISE_BEZIER_KNOTS.);
#794 = CARTESIAN_POINT('',(10.35,8.6));
#795 = CARTESIAN_POINT('',(-10.35,8.6));
#796 = ( GEOMETRIC_REPRESENTATION_CONTEXT(2) 
PARAMETRIC_REPRESENTATION_CONTEXT() REPRESENTATION_CONTEXT('2D SPACE',''
  ) );
#797 = ADVANCED_FACE('',(#798),#596,.T.);
#798 = FACE_BOUND('',#799,.T.);
#799 = EDGE_LOOP('',(#800,#801,#822,#1016));
#800 = ORIENTED_EDGE('',*,*,#414,.F.);
#801 = ORIENTED_EDGE('',*,*,#802,.T.);
#802 = EDGE_CURVE('',#390,#803,#805,.T.);
#803 = VERTEX_POINT('',#804);
#804 = CARTESIAN_POINT('',(10.35,8.6,0.));
#805 = SURFACE_CURVE('',#806,(#809,#816),.PCURVE_S1.);
#806 = B_SPLINE_CURVE_WITH_KNOTS('',1,(#807,#808),.UNSPECIFIED.,.F.,.F.,
  (2,2),(0.,17.2),.PIECEWISE_BEZIER_KNOTS.);
#807 = CARTESIAN_POINT('',(10.35,-8.6,-2.22044604925E-16));
#808 = CARTESIAN_POINT('',(10.35,8.6,0.));
#809 = PCURVE('',#596,#810);
#810 = DEFINITIONAL_REPRESENTATION('',(#811),#815);
#811 = LINE('',#812,#813);
#812 = CARTESIAN_POINT('',(0.,0.));
#813 = VECTOR('',#814,1.);
#814 = DIRECTION('',(1.,0.));
#815 = ( GEOMETRIC_REPRESENTATION_CONTEXT(2) 
PARAMETRIC_REPRESENTATION_CONTEXT() REPRESENTATION_CONTEXT('2D SPACE',''
  ) );
#816 = PCURVE('',#403,#817);
#817 = DEFINITIONAL_REPRESENTATION('',(#818),#821);
#818 = B_SPLINE_CURVE_WITH_KNOTS('',1,(#819,#820),.UNSPECIFIED.,.F.,.F.,
  (2,2),(0.,17.2),.PIECEWISE_BEZIER_KNOTS.);
#819 = CARTESIAN_POINT('',(10.35,-8.6));
#820 = CARTESIAN_POINT('',(10.35,8.6));
#821 = ( GEOMETRIC_REPRESENTATION_CONTEXT(2) 
PARAMETRIC_REPRESENTATION_CONTEXT() REPRESENTATION_CONTEXT('2D SPACE',''
  ) );
#822 = ORIENTED_EDGE('',*,*,#823,.T.);
#823 = EDGE_CURVE('',#803,#824,#826,.T.);
#824 = VERTEX_POINT('',#825);
#825 = CARTESIAN_POINT('',(-3.736498592935,8.6,100.34800133314));
#826 = SURFACE_CURVE('',#827,(#914,#921),.PCURVE_S1.);
#827 = B_SPLINE_CURVE_WITH_KNOTS('',10,(#828,#829,#830,#831,#832,#833,
    #834,#835,#836,#837,#838,#839,#840,#841,#842,#843,#844,#845,#846,
    #847,#848,#849,#850,#851,#852,#853,#854,#855,#856,#857,#858,#859,
    #860,#861,#862,#863,#864,#865,#866,#867,#868,#869,#870,#871,#872,
    #873,#874,#875,#876,#877,#878,#879,#880,#881,#882,#883,#884,#885,
    #886,#887,#888,#889,#890,#891,#892,#893,#894,#895,#896,#897,#898,
    #899,#900,#901,#902,#903,#904,#905,#906,#907,#908,#909,#910,#911,
    #912,#913),.UNSPECIFIED.,.F.,.F.,(11,8,8,8,9,8,8,9,9,8,11),(0.,
    13.86104383207,27.722087664139,55.444175328278,56.353,
    70.903621842077,78.178932763116,85.454243684154,97.813270990724,
    108.38977099072,118.96627099072),.UNSPECIFIED.);
#828 = CARTESIAN_POINT('',(10.35,8.6,0.));
#829 = CARTESIAN_POINT('',(7.606892185482,8.6,0.348256577028));
#830 = CARTESIAN_POINT('',(5.078970282904,8.599999999999,0.711546946497)
  );
#831 = CARTESIAN_POINT('',(2.752805274684,8.600000000003,1.08171299454)
  );
#832 = CARTESIAN_POINT('',(0.611442500495,8.599999999997,1.449628922374)
  );
#833 = CARTESIAN_POINT('',(-1.363020053892,8.600000000003,1.807912315028
    ));
#834 = CARTESIAN_POINT('',(-3.19382024043,8.599999999997,2.149403041954)
  );
#835 = CARTESIAN_POINT('',(-4.911514662989,8.600000000001,2.47119160134)
  );
#836 = CARTESIAN_POINT('',(-6.549071917189,8.6,2.784502008776));
#837 = CARTESIAN_POINT('',(-9.711888659988,8.600000000001,3.458013631117
    ));
#838 = CARTESIAN_POINT('',(-12.65979988063,8.599999999999,4.374204192328
    ));
#839 = CARTESIAN_POINT('',(-14.08219350384,8.600000000002,4.929116730829
    ));
#840 = CARTESIAN_POINT('',(-15.43975284839,8.599999999996,5.628468123416
    ));
#841 = CARTESIAN_POINT('',(-16.68175842683,8.600000000004,6.503010201114
    ));
#842 = CARTESIAN_POINT('',(-17.75411623704,8.599999999997,7.550959439722
    ));
#843 = CARTESIAN_POINT('',(-18.62893300875,8.600000000001,8.743560149895
    ));
#844 = CARTESIAN_POINT('',(-19.30405502563,8.6,10.046845469543));
#845 = CARTESIAN_POINT('',(-20.73810946511,8.600000000001,
    14.229260076362));
#846 = CARTESIAN_POINT('',(-20.49138846034,8.599999999999,
    19.040719944545));
#847 = CARTESIAN_POINT('',(-19.66053876409,8.600000000003,
    22.367574952282));
#848 = CARTESIAN_POINT('',(-18.33617137705,8.599999999995,25.73628129146
    ));
#849 = CARTESIAN_POINT('',(-16.61699564363,8.600000000006,
    29.132462367409));
#850 = CARTESIAN_POINT('',(-14.58931694172,8.599999999995,
    32.533940625403));
#851 = CARTESIAN_POINT('',(-12.33960955683,8.600000000003,
    35.914109476993));
#852 = CARTESIAN_POINT('',(-9.932623778486,8.599999999999,
    39.263015515034));
#853 = CARTESIAN_POINT('',(-7.353159250218,8.6,42.667074792298));
#854 = CARTESIAN_POINT('',(-4.737310022906,8.6,45.99531066736));
#855 = CARTESIAN_POINT('',(-4.654241045376,8.600000000001,
    46.100881055504));
#856 = CARTESIAN_POINT('',(-4.571139403877,8.599999999998,
    46.206373719461));
#857 = CARTESIAN_POINT('',(-4.488007083886,8.600000000002,
    46.311787996178));
#858 = CARTESIAN_POINT('',(-4.404846061972,8.599999999998,46.41712322196
    ));
#859 = CARTESIAN_POINT('',(-4.321658305739,8.600000000001,
    46.522378732488));
#860 = CARTESIAN_POINT('',(-4.23844577375,8.6,46.627553862813));
#861 = CARTESIAN_POINT('',(-4.155210415466,8.6,46.732647947352));
#862 = CARTESIAN_POINT('',(-2.738990658754,8.6,48.518947557282));
#863 = CARTESIAN_POINT('',(-1.391673139287,8.6,50.175437860469));
#864 = CARTESIAN_POINT('',(-4.253979346859E-02,8.600000000001,
    51.802373180846));
#865 = CARTESIAN_POINT('',(1.297417307842,8.599999999999,53.394093178515
    ));
#866 = CARTESIAN_POINT('',(2.618750153182,8.600000000002,54.945618827501
    ));
#867 = CARTESIAN_POINT('',(3.913957417739,8.599999999999,56.452223590757
    ));
#868 = CARTESIAN_POINT('',(5.178518546557,8.600000000001,57.908650678635
    ));
#869 = CARTESIAN_POINT('',(6.412786072085,8.6,59.309634903212));
#870 = CARTESIAN_POINT('',(8.231051380431,8.6,61.325264011365));
#871 = CARTESIAN_POINT('',(10.045383318314,8.6,63.234159966199));
#872 = CARTESIAN_POINT('',(10.652260231173,8.599999999999,
    63.859738819151));
#873 = CARTESIAN_POINT('',(11.264444478012,8.600000000002,
    64.477040113999));
#874 = CARTESIAN_POINT('',(11.88584707289,8.599999999998,65.08915407509)
  );
#875 = CARTESIAN_POINT('',(12.521173400145,8.600000000001,65.7007213724)
  );
#876 = CARTESIAN_POINT('',(13.175525951622,8.599999999999,
    66.319414155804));
#877 = CARTESIAN_POINT('',(13.852971456864,8.6,66.957016959458));
#878 = CARTESIAN_POINT('',(15.254078846146,8.6,68.301240581432));
#879 = CARTESIAN_POINT('',(16.710890568666,8.6,69.850532112935));
#880 = CARTESIAN_POINT('',(17.443484147207,8.600000000001,
    70.693479513606));
#881 = CARTESIAN_POINT('',(18.165085089995,8.599999999998,
    71.619582611177));
#882 = CARTESIAN_POINT('',(18.842730717481,8.600000000002,
    72.646666993444));
#883 = CARTESIAN_POINT('',(19.429157286126,8.599999999999,
    73.773520023278));
#884 = CARTESIAN_POINT('',(19.878160678841,8.600000000001,
    74.969513834532));
#885 = CARTESIAN_POINT('',(20.162987000109,8.6,76.188743489612));
#886 = CARTESIAN_POINT('',(20.283996205384,8.6,77.395650524108));
#887 = CARTESIAN_POINT('',(20.183975576875,8.6,80.546562318883));
#888 = CARTESIAN_POINT('',(19.513994811527,8.6,82.121748439028));
#889 = CARTESIAN_POINT('',(18.548049427224,8.600000000001,
    83.245340688205));
#890 = CARTESIAN_POINT('',(17.479552061809,8.599999999999,
    84.152776763986));
#891 = CARTESIAN_POINT('',(16.260593090628,8.6,84.839120585761));
#892 = CARTESIAN_POINT('',(15.032250722355,8.6,85.387659707389));
#893 = CARTESIAN_POINT('',(13.761319308174,8.6,85.796621891468));
#894 = CARTESIAN_POINT('',(12.504830505042,8.6,86.085049487578));
#895 = CARTESIAN_POINT('',(11.265743887414,8.6,86.228316889146));
#896 = CARTESIAN_POINT('',(8.929685843745,8.6,86.183798542181));
#897 = CARTESIAN_POINT('',(7.859633623691,8.6,86.122726971757));
#898 = CARTESIAN_POINT('',(6.784231396689,8.599999999999,86.01875246381)
  );
#899 = CARTESIAN_POINT('',(5.675877996971,8.600000000001,85.878072111322
    ));
#900 = CARTESIAN_POINT('',(4.525278680826,8.599999999999,85.709361827689
    ));
#901 = CARTESIAN_POINT('',(3.27604079174,8.600000000001,85.54571090422)
  );
#902 = CARTESIAN_POINT('',(1.908700320792,8.6,85.480878354271));
#903 = CARTESIAN_POINT('',(0.512047373058,8.6,85.629439092656));
#904 = CARTESIAN_POINT('',(-2.151222633841,8.6,86.394419116039));
#905 = CARTESIAN_POINT('',(-4.259647893305,8.6,88.085407926187));
#906 = CARTESIAN_POINT('',(-5.100599635655,8.600000000001,
    89.159430377381));
#907 = CARTESIAN_POINT('',(-5.674703594152,8.599999999999,
    90.417277833045));
#908 = CARTESIAN_POINT('',(-5.975080386064,8.600000000001,
    91.815326359615));
#909 = CARTESIAN_POINT('',(-6.016002465554,8.599999999999,
    93.326584671978));
#910 = CARTESIAN_POINT('',(-5.807726563547,8.6,94.939414321848));
#911 = CARTESIAN_POINT('',(-5.353698781764,8.6,96.649166794832));
#912 = CARTESIAN_POINT('',(-4.662412912876,8.6,98.451816942945));
#913 = CARTESIAN_POINT('',(-3.736498592935,8.6,100.34800133314));
#914 = PCURVE('',#596,#915);
#915 = DEFINITIONAL_REPRESENTATION('',(#916),#920);
#916 = LINE('',#917,#918);
#917 = CARTESIAN_POINT('',(17.2,0.));
#918 = VECTOR('',#919,1.);
#919 = DIRECTION('',(0.,1.));
#920 = ( GEOMETRIC_REPRESENTATION_CONTEXT(2) 
PARAMETRIC_REPRESENTATION_CONTEXT() REPRESENTATION_CONTEXT('2D SPACE',''
  ) );
#921 = PCURVE('',#922,#927);
#922 = PLANE('',#923);
#923 = AXIS2_PLACEMENT_3D('',#924,#925,#926);
#924 = CARTESIAN_POINT('',(-4.099733153257,8.6,55.641432362157));
#925 = DIRECTION('',(-3.646368366986E-16,1.,2.831500506642E-17));
#926 = DIRECTION('',(0.218453530265,5.202508151523E-17,0.975847352363));
#927 = DEFINITIONAL_REPRESENTATION('',(#928),#1015);
#928 = B_SPLINE_CURVE_WITH_KNOTS('',10,(#929,#930,#931,#932,#933,#934,
    #935,#936,#937,#938,#939,#940,#941,#942,#943,#944,#945,#946,#947,
    #948,#949,#950,#951,#952,#953,#954,#955,#956,#957,#958,#959,#960,
    #961,#962,#963,#964,#965,#966,#967,#968,#969,#970,#971,#972,#973,
    #974,#975,#976,#977,#978,#979,#980,#981,#982,#983,#984,#985,#986,
    #987,#988,#989,#990,#991,#992,#993,#994,#995,#996,#997,#998,#999,
    #1000,#1001,#1002,#1003,#1004,#1005,#1006,#1007,#1008,#1009,#1010,
    #1011,#1012,#1013,#1014),.UNSPECIFIED.,.F.,.F.,(11,8,8,8,9,8,8,9,9,8
    ,11),(0.,13.86104383207,27.722087664139,55.444175328278,56.353,
    70.903621842077,78.178932763116,85.454243684154,97.813270990724,
    108.38977099072,118.96627099072),.UNSPECIFIED.);
#929 = CARTESIAN_POINT('',(-51.1409492336,26.255801168477));
#930 = CARTESIAN_POINT('',(-51.40034556094,23.502868791743));
#931 = CARTESIAN_POINT('',(-51.59806307961,20.956640832409));
#932 = CARTESIAN_POINT('',(-51.74499647972,18.605794787997));
#933 = CARTESIAN_POINT('',(-51.85375495325,16.435779061079));
#934 = CARTESIAN_POINT('',(-51.93545336851,14.430736733079));
#935 = CARTESIAN_POINT('',(-52.00215531074,12.56955536349));
#936 = CARTESIAN_POINT('',(-52.06337520757,10.823051962269));
#937 = CARTESIAN_POINT('',(-52.1153622392,9.156602286842));
#938 = CARTESIAN_POINT('',(-52.1490461888,5.923044950795));
#939 = CARTESIAN_POINT('',(-51.89896566844,2.84618852863));
#940 = CARTESIAN_POINT('',(-51.66818264536,1.336926874381));
#941 = CARTESIAN_POINT('',(-51.2822860719,-0.140619598276));
#942 = CARTESIAN_POINT('',(-50.70018700406,-1.543674257861));
#943 = CARTESIAN_POINT('',(-49.9118088635,-2.819059998455));
#944 = CARTESIAN_POINT('',(-48.93911943017,-3.933275464266));
#945 = CARTESIAN_POINT('',(-47.81479468956,-4.876798775973));
#946 = CARTESIAN_POINT('',(-44.04667072391,-7.189880239783));
#947 = CARTESIAN_POINT('',(-39.29752327606,-8.000198594437));
#948 = CARTESIAN_POINT('',(-35.8695185758,-7.916179339262));
#949 = CARTESIAN_POINT('',(-32.29286268275,-7.359704723281));
#950 = CARTESIAN_POINT('',(-28.60314836353,-6.42395938103));
#951 = CARTESIAN_POINT('',(-24.84087124067,-5.188319421906));
#952 = CARTESIAN_POINT('',(-21.05088589601,-3.73135824529));
#953 = CARTESIAN_POINT('',(-17.2570502649,-2.11408789285));
#954 = CARTESIAN_POINT('',(-13.3717148995,-0.340553028774));
#955 = CARTESIAN_POINT('',(-9.552423234434,1.48505163742));
#956 = CARTESIAN_POINT('',(-9.431255939278,1.543052055224));
#957 = CARTESIAN_POINT('',(-9.310157355505,1.601101327199));
#958 = CARTESIAN_POINT('',(-9.189128563888,1.659197660669));
#959 = CARTESIAN_POINT('',(-9.068170643881,1.71733927179));
#960 = CARTESIAN_POINT('',(-8.947284673587,1.775524385604));
#961 = CARTESIAN_POINT('',(-8.826471729749,1.833751236114));
#962 = CARTESIAN_POINT('',(-8.705732887743,1.892018066341));
#963 = CARTESIAN_POINT('',(-6.65319893738,2.883808910393));
#964 = CARTESIAN_POINT('',(-4.742390992284,3.836718989977));
#965 = CARTESIAN_POINT('',(-2.860027525235,4.79785742923));
#966 = CARTESIAN_POINT('',(-1.014033420621,5.75773416614));
#967 = CARTESIAN_POINT('',(0.788668600785,6.708217069539));
#968 = CARTESIAN_POINT('',(2.541827469434,7.643018520172));
#969 = CARTESIAN_POINT('',(4.239325829877,8.55887551071));
#970 = CARTESIAN_POINT('',(5.876102674376,9.4572822579));
#971 = CARTESIAN_POINT('',(8.24025547848,10.791310350563));
#972 = CARTESIAN_POINT('',(10.499393758845,12.144816308212));
#973 = CARTESIAN_POINT('',(11.242437630244,12.60037562795));
#974 = CARTESIAN_POINT('',(11.978563274326,13.06292235729));
#975 = CARTESIAN_POINT('',(12.711640653168,13.535597978529));
#976 = CARTESIAN_POINT('',(13.4472262601,14.021980457775));
#977 = CARTESIAN_POINT('',(14.193921599619,14.525373039962));
#978 = CARTESIAN_POINT('',(14.964114969606,15.047169859259));
#979 = CARTESIAN_POINT('',(16.581948887563,16.12078639978));
#980 = CARTESIAN_POINT('',(18.412066590335,17.203964057627));
#981 = CARTESIAN_POINT('',(19.394692232944,17.7347187261));
#982 = CARTESIAN_POINT('',(20.456063762118,18.236580604529));
#983 = CARTESIAN_POINT('',(21.606375416801,18.673489086766));
#984 = CARTESIAN_POINT('',(22.834118916628,18.999586878677));
#985 = CARTESIAN_POINT('',(24.099312687023,19.176476580416));
#986 = CARTESIAN_POINT('',(25.351316033249,19.188078569553));
#987 = CARTESIAN_POINT('',(26.555507955498,19.042511979745));
#988 = CARTESIAN_POINT('',(29.608467028563,18.256579309111));
#989 = CARTESIAN_POINT('',(30.999248569986,17.258675384342));
#990 = CARTESIAN_POINT('',(31.884688912238,16.07060744513));
#991 = CARTESIAN_POINT('',(32.536790982674,14.829684505839));
#992 = CARTESIAN_POINT('',(32.940271893461,13.49023239033));
#993 = CARTESIAN_POINT('',(33.207226616247,12.171727434847));
#994 = CARTESIAN_POINT('',(33.328671826644,10.842153146425));
#995 = CARTESIAN_POINT('',(33.335648717874,9.553003848019));
#996 = CARTESIAN_POINT('',(33.204772986449,8.312547183213));
#997 = CARTESIAN_POINT('',(32.651009748888,6.042636316388));
#998 = CARTESIAN_POINT('',(32.357656533547,5.011769990715));
#999 = CARTESIAN_POINT('',(32.02126787231,3.985055173088));
#1000 = CARTESIAN_POINT('',(31.641861609855,2.934203562131));
#1001 = CARTESIAN_POINT('',(31.225873643723,1.848249622891));
#1002 = CARTESIAN_POINT('',(30.793274896333,0.664934258317));
#1003 = CARTESIAN_POINT('',(30.431307871165,-0.655218420624));
#1004 = CARTESIAN_POINT('',(30.271176707396,-2.0505921196));
#1005 = CARTESIAN_POINT('',(30.435879702769,-4.816649691152));
#1006 = CARTESIAN_POINT('',(31.625433714799,-7.243553373471));
#1007 = CARTESIAN_POINT('',(32.489806803277,-8.298817900757));
#1008 = CARTESIAN_POINT('',(33.591858876091,-9.133836945862));
#1009 = CARTESIAN_POINT('',(34.890522458617,-9.732367479072));
#1010 = CARTESIAN_POINT('',(36.356340308743,-10.10244089547));
#1011 = CARTESIAN_POINT('',(37.975714458444,-10.25152373866));
#1012 = CARTESIAN_POINT('',(39.743355854172,-10.18196339351));
#1013 = CARTESIAN_POINT('',(41.653481066927,-9.901169197326));
#1014 = CARTESIAN_POINT('',(43.706136835609,-9.411846333769));
#1015 = ( GEOMETRIC_REPRESENTATION_CONTEXT(2) 
PARAMETRIC_REPRESENTATION_CONTEXT() REPRESENTATION_CONTEXT('2D SPACE',''
  ) );
#1016 = ORIENTED_EDGE('',*,*,#1017,.F.);
#1017 = EDGE_CURVE('',#415,#824,#1018,.T.);
#1018 = SURFACE_CURVE('',#1019,(#1022,#1029),.PCURVE_S1.);
#1019 = B_SPLINE_CURVE_WITH_KNOTS('',1,(#1020,#1021),.UNSPECIFIED.,.F.,
  .F.,(2,2),(0.,17.2),.PIECEWISE_BEZIER_KNOTS.);
#1020 = CARTESIAN_POINT('',(-3.736498592935,-8.6,100.34800133314));
#1021 = CARTESIAN_POINT('',(-3.736498592935,8.6,100.34800133314));
#1022 = PCURVE('',#596,#1023);
#1023 = DEFINITIONAL_REPRESENTATION('',(#1024),#1028);
#1024 = LINE('',#1025,#1026);
#1025 = CARTESIAN_POINT('',(0.,118.96627099072));
#1026 = VECTOR('',#1027,1.);
#1027 = DIRECTION('',(1.,0.));
#1028 = ( GEOMETRIC_REPRESENTATION_CONTEXT(2) 
PARAMETRIC_REPRESENTATION_CONTEXT() REPRESENTATION_CONTEXT('2D SPACE',''
  ) );
#1029 = PCURVE('',#787,#1030);
#1030 = DEFINITIONAL_REPRESENTATION('',(#1031),#1034);
#1031 = B_SPLINE_CURVE_WITH_KNOTS('',1,(#1032,#1033),.UNSPECIFIED.,.F.,
  .F.,(2,2),(0.,17.2),.PIECEWISE_BEZIER_KNOTS.);
#1032 = CARTESIAN_POINT('',(-10.35,8.6));
#1033 = CARTESIAN_POINT('',(-10.35,-8.6));
#1034 = ( GEOMETRIC_REPRESENTATION_CONTEXT(2) 
PARAMETRIC_REPRESENTATION_CONTEXT() REPRESENTATION_CONTEXT('2D SPACE',''
  ) );
#1035 = ADVANCED_FACE('',(#1036),#922,.T.);
#1036 = FACE_BOUND('',#1037,.T.);
#1037 = EDGE_LOOP('',(#1038,#1039,#1059,#1247));
#1038 = ORIENTED_EDGE('',*,*,#823,.F.);
#1039 = ORIENTED_EDGE('',*,*,#1040,.T.);
#1040 = EDGE_CURVE('',#803,#1041,#1043,.T.);
#1041 = VERTEX_POINT('',#1042);
#1042 = CARTESIAN_POINT('',(-10.35,8.6,0.));
#1043 = SURFACE_CURVE('',#1044,(#1047,#1053),.PCURVE_S1.);
#1044 = B_SPLINE_CURVE_WITH_KNOTS('',1,(#1045,#1046),.UNSPECIFIED.,.F.,
  .F.,(2,2),(0.,20.7),.PIECEWISE_BEZIER_KNOTS.);
#1045 = CARTESIAN_POINT('',(10.35,8.6,0.));
#1046 = CARTESIAN_POINT('',(-10.35,8.6,0.));
#1047 = PCURVE('',#922,#1048);
#1048 = DEFINITIONAL_REPRESENTATION('',(#1049),#1052);
#1049 = B_SPLINE_CURVE_WITH_KNOTS('',1,(#1050,#1051),.UNSPECIFIED.,.F.,
  .F.,(2,2),(0.,20.7),.PIECEWISE_BEZIER_KNOTS.);
#1050 = CARTESIAN_POINT('',(-51.1409492336,26.255801168477));
#1051 = CARTESIAN_POINT('',(-55.66293731009,6.055760974553));
#1052 = ( GEOMETRIC_REPRESENTATION_CONTEXT(2) 
PARAMETRIC_REPRESENTATION_CONTEXT() REPRESENTATION_CONTEXT('2D SPACE',''
  ) );
#1053 = PCURVE('',#403,#1054);
#1054 = DEFINITIONAL_REPRESENTATION('',(#1055),#1058);
#1055 = B_SPLINE_CURVE_WITH_KNOTS('',1,(#1056,#1057),.UNSPECIFIED.,.F.,
  .F.,(2,2),(0.,20.7),.PIECEWISE_BEZIER_KNOTS.);
#1056 = CARTESIAN_POINT('',(10.35,8.6));
#1057 = CARTESIAN_POINT('',(-10.35,8.6));
#1058 = ( GEOMETRIC_REPRESENTATION_CONTEXT(2) 
PARAMETRIC_REPRESENTATION_CONTEXT() REPRESENTATION_CONTEXT('2D SPACE',''
  ) );
#1059 = ORIENTED_EDGE('',*,*,#1060,.T.);
#1060 = EDGE_CURVE('',#1041,#1061,#1063,.T.);
#1061 = VERTEX_POINT('',#1062);
#1062 = CARTESIAN_POINT('',(3.736498592935,8.6,119.65199866685));
#1063 = SURFACE_CURVE('',#1064,(#1151,#1241),.PCURVE_S1.);
#1064 = B_SPLINE_CURVE_WITH_KNOTS('',10,(#1065,#1066,#1067,#1068,#1069,
    #1070,#1071,#1072,#1073,#1074,#1075,#1076,#1077,#1078,#1079,#1080,
    #1081,#1082,#1083,#1084,#1085,#1086,#1087,#1088,#1089,#1090,#1091,
    #1092,#1093,#1094,#1095,#1096,#1097,#1098,#1099,#1100,#1101,#1102,
    #1103,#1104,#1105,#1106,#1107,#1108,#1109,#1110,#1111,#1112,#1113,
    #1114,#1115,#1116,#1117,#1118,#1119,#1120,#1121,#1122,#1123,#1124,
    #1125,#1126,#1127,#1128,#1129,#1130,#1131,#1132,#1133,#1134,#1135,
    #1136,#1137,#1138,#1139,#1140,#1141,#1142,#1143,#1144,#1145,#1146,
    #1147,#1148,#1149,#1150),.UNSPECIFIED.,.F.,.F.,(11,8,8,8,9,8,8,9,9,8
    ,11),(0.,13.86104383207,27.722087664139,55.444175328278,56.353,
    70.903621842077,78.178932763116,85.454243684154,97.813270990724,
    108.38977099072,118.96627099072),.UNSPECIFIED.);
#1065 = CARTESIAN_POINT('',(-10.35,8.6,0.));
#1066 = CARTESIAN_POINT('',(-13.09310781451,8.6,1.116219987378));
#1067 = CARTESIAN_POINT('',(-15.58937283037,8.599999999999,
    2.336340067339));
#1068 = CARTESIAN_POINT('',(-17.84032283786,8.600000000002,
    3.664141309389));
#1069 = CARTESIAN_POINT('',(-19.8439599845,8.599999999998,5.104372467935
    ));
#1070 = CARTESIAN_POINT('',(-21.59733906399,8.600000000002,
    6.660038913599));
#1071 = CARTESIAN_POINT('',(-23.09217903219,8.599999999999,
    8.333923732541));
#1072 = CARTESIAN_POINT('',(-24.31288009316,8.600000000001,
    10.124559382229));
#1073 = CARTESIAN_POINT('',(-25.2414304591,8.6,12.016344802691));
#1074 = CARTESIAN_POINT('',(-26.49616684561,8.6,15.929613985081));
#1075 = CARTESIAN_POINT('',(-26.59631176377,8.599999999999,
    19.935874348989));
#1076 = CARTESIAN_POINT('',(-26.37052877024,8.600000000002,
    21.921727758787));
#1077 = CARTESIAN_POINT('',(-25.89711942345,8.599999999997,
    23.838305755847));
#1078 = CARTESIAN_POINT('',(-25.24176001883,8.600000000004,
    25.650479464828));
#1079 = CARTESIAN_POINT('',(-24.47350136623,8.599999999997,
    27.355655365498));
#1080 = CARTESIAN_POINT('',(-23.63519354393,8.600000000001,
    28.978212102902));
#1081 = CARTESIAN_POINT('',(-22.74394707606,8.6,30.547739494715));
#1082 = CARTESIAN_POINT('',(-19.94848950605,8.600000000001,
    35.143597680915));
#1083 = CARTESIAN_POINT('',(-16.82932931853,8.599999999999,
    39.550521182276));
#1084 = CARTESIAN_POINT('',(-14.64503354435,8.600000000002,
    42.52984343336));
#1085 = CARTESIAN_POINT('',(-12.30268524832,8.599999999996,
    45.592886343754));
#1086 = CARTESIAN_POINT('',(-9.823229549116,8.600000000004,
    48.719010153406));
#1087 = CARTESIAN_POINT('',(-7.240015531687,8.599999999996,
    51.895376061848));
#1088 = CARTESIAN_POINT('',(-4.586223373633,8.600000000003,
    55.113574302867));
#1089 = CARTESIAN_POINT('',(-1.916757248322,8.599999999999,
    58.348541928474));
#1090 = CARTESIAN_POINT('',(0.801698735259,8.6,61.693065286192));
#1091 = CARTESIAN_POINT('',(3.412991348175,8.6,65.023252951939));
#1092 = CARTESIAN_POINT('',(3.495770836771,8.600000000001,
    65.128947340436));
#1093 = CARTESIAN_POINT('',(3.57843791271,8.599999999999,65.234626140893
    ));
#1094 = CARTESIAN_POINT('',(3.660990345557,8.600000000002,
    65.340288782698));
#1095 = CARTESIAN_POINT('',(3.743425895973,8.599999999999,
    65.445934695629));
#1096 = CARTESIAN_POINT('',(3.825742315648,8.600000000001,
    65.551563310393));
#1097 = CARTESIAN_POINT('',(3.907937347235,8.6,65.657174058047));
#1098 = CARTESIAN_POINT('',(3.990008724285,8.6,65.762766370481));
#1099 = CARTESIAN_POINT('',(5.383931328648,8.6,67.558607729371));
#1100 = CARTESIAN_POINT('',(6.65462829706,8.6,69.247856283226));
#1101 = CARTESIAN_POINT('',(7.869518000192,8.600000000001,
    70.931543235723));
#1102 = CARTESIAN_POINT('',(9.012527251996,8.599999999999,
    72.606028772095));
#1103 = CARTESIAN_POINT('',(10.066038807016,8.600000000001,
    74.266991763858));
#1104 = CARTESIAN_POINT('',(11.010488733163,8.599999999999,
    75.909858593319));
#1105 = CARTESIAN_POINT('',(11.823332328471,8.6,77.530585895666));
#1106 = CARTESIAN_POINT('',(12.477151803588,8.6,79.125138704163));
#1107 = CARTESIAN_POINT('',(13.16644252561,8.6,81.466438878045));
#1108 = CARTESIAN_POINT('',(13.311908084156,8.6,83.688982456064));
#1109 = CARTESIAN_POINT('',(13.294051786994,8.599999999999,
    84.414333178141));
#1110 = CARTESIAN_POINT('',(13.203259782311,8.600000000002,
    85.120582003168));
#1111 = CARTESIAN_POINT('',(13.032237898898,8.599999999998,
    85.80347618729));
#1112 = CARTESIAN_POINT('',(12.772897595349,8.600000000001,
    86.457212541447));
#1113 = CARTESIAN_POINT('',(12.416753222664,8.599999999999,
    87.072956396224));
#1114 = CARTESIAN_POINT('',(11.956354894211,8.6,87.637760698278));
#1115 = CARTESIAN_POINT('',(10.820253540255,8.6,88.63196718402));
#1116 = CARTESIAN_POINT('',(9.276738588106,8.6,89.283687475562));
#1117 = CARTESIAN_POINT('',(8.409482921403,8.600000000001,
    89.505728895972));
#1118 = CARTESIAN_POINT('',(7.458526259973,8.599999999998,
    89.607935009534));
#1119 = CARTESIAN_POINT('',(6.453448126287,8.600000000002,
    89.571317709501));
#1120 = CARTESIAN_POINT('',(5.438129106721,8.599999999998,
    89.395927113159));
#1121 = CARTESIAN_POINT('',(4.4553901613,8.600000000001,89.111228567869)
  );
#1122 = CARTESIAN_POINT('',(3.528602028388,8.6,88.761964491481));
#1123 = CARTESIAN_POINT('',(2.654021595441,8.6,88.382530829325));
#1124 = CARTESIAN_POINT('',(0.409994578051,8.6,87.346959613513));
#1125 = CARTESIAN_POINT('',(-0.727353487006,8.6,86.97731683922));
#1126 = CARTESIAN_POINT('',(-1.837095178509,8.600000000001,86.962337825)
  );
#1127 = CARTESIAN_POINT('',(-3.049156394397,8.599999999999,
    87.095633348715));
#1128 = CARTESIAN_POINT('',(-4.252140770071,8.600000000001,
    87.411187966779));
#1129 = CARTESIAN_POINT('',(-5.523639774311,8.599999999999,
    87.854762600667));
#1130 = CARTESIAN_POINT('',(-6.766961018355,8.6,88.457177963581));
#1131 = CARTESIAN_POINT('',(-7.975649419256,8.6,89.228440181366));
#1132 = CARTESIAN_POINT('',(-9.089177811541,8.6,90.222223336268));
#1133 = CARTESIAN_POINT('',(-10.79232847171,8.6,92.574318558597));
#1134 = CARTESIAN_POINT('',(-11.45599042899,8.6,93.777435424621));
#1135 = CARTESIAN_POINT('',(-11.97074295842,8.599999999999,
    95.108671530122));
#1136 = CARTESIAN_POINT('',(-12.29435392399,8.600000000001,
    96.569117889507));
#1137 = CARTESIAN_POINT('',(-12.40289761172,8.599999999999,
    98.157386696285));
#1138 = CARTESIAN_POINT('',(-12.22535039486,8.600000000001,
    99.847676766727));
#1139 = CARTESIAN_POINT('',(-11.72761729422,8.6,101.55351719434));
#1140 = CARTESIAN_POINT('',(-10.98385744464,8.6,103.16762117175));
#1141 = CARTESIAN_POINT('',(-9.16368314919,8.6,106.18586047045));
#1142 = CARTESIAN_POINT('',(-6.914448750478,8.6,108.82302319224));
#1143 = CARTESIAN_POINT('',(-5.742485255574,8.600000000001,
    110.05659766673));
#1144 = CARTESIAN_POINT('',(-4.56213139134,8.599999999998,111.2571564035
    ));
#1145 = CARTESIAN_POINT('',(-3.365635570257,8.600000000002,
    112.47561144369));
#1146 = CARTESIAN_POINT('',(-2.124094367901,8.599999999998,
    113.74624217912));
#1147 = CARTESIAN_POINT('',(-0.812620083099,8.600000000001,
    115.08797516577));
#1148 = CARTESIAN_POINT('',(0.586864356128,8.6,116.51274702488));
#1149 = CARTESIAN_POINT('',(2.097483712704,8.6,118.03187101186));
#1150 = CARTESIAN_POINT('',(3.736498592935,8.6,119.65199866685));
#1151 = PCURVE('',#922,#1152);
#1152 = DEFINITIONAL_REPRESENTATION('',(#1153),#1240);
#1153 = B_SPLINE_CURVE_WITH_KNOTS('',10,(#1154,#1155,#1156,#1157,#1158,
    #1159,#1160,#1161,#1162,#1163,#1164,#1165,#1166,#1167,#1168,#1169,
    #1170,#1171,#1172,#1173,#1174,#1175,#1176,#1177,#1178,#1179,#1180,
    #1181,#1182,#1183,#1184,#1185,#1186,#1187,#1188,#1189,#1190,#1191,
    #1192,#1193,#1194,#1195,#1196,#1197,#1198,#1199,#1200,#1201,#1202,
    #1203,#1204,#1205,#1206,#1207,#1208,#1209,#1210,#1211,#1212,#1213,
    #1214,#1215,#1216,#1217,#1218,#1219,#1220,#1221,#1222,#1223,#1224,
    #1225,#1226,#1227,#1228,#1229,#1230,#1231,#1232,#1233,#1234,#1235,
    #1236,#1237,#1238,#1239),.UNSPECIFIED.,.F.,.F.,(11,8,8,8,9,8,8,9,9,8
    ,11),(0.,13.86104383207,27.722087664139,55.444175328278,56.353,
    70.903621842077,78.178932763116,85.454243684154,97.813270990724,
    108.38977099072,118.96627099072),.UNSPECIFIED.);
#1154 = CARTESIAN_POINT('',(-55.66293731009,6.055760974553));
#1155 = CARTESIAN_POINT('',(-55.17291857673,3.135064279713));
#1156 = CARTESIAN_POINT('',(-54.52758553232,0.432551134382));
#1157 = CARTESIAN_POINT('',(-53.72358218139,-2.054095339547));
#1158 = CARTESIAN_POINT('',(-52.75583802658,-4.323962925181));
#1159 = CARTESIAN_POINT('',(-51.62077689423,-6.374834084561));
#1160 = CARTESIAN_POINT('',(-50.31387389374,-8.199235757692));
#1161 = CARTESIAN_POINT('',(-48.83315329211,-9.781624335152));
#1162 = CARTESIAN_POINT('',(-47.18990460378,-11.10101495489));
#1163 = CARTESIAN_POINT('',(-43.64525282624,-13.18031360335));
#1164 = CARTESIAN_POINT('',(-39.75763126816,-14.15322147625));
#1165 = CARTESIAN_POINT('',(-37.77041838401,-14.36670842776));
#1166 = CARTESIAN_POINT('',(-35.79671287692,-14.3234163996));
#1167 = CARTESIAN_POINT('',(-33.88514238545,-14.07976140393));
#1168 = CARTESIAN_POINT('',(-32.05332218265,-13.70255992709));
#1169 = CARTESIAN_POINT('',(-30.28682318317,-13.23895270558));
#1170 = CARTESIAN_POINT('',(-28.56050809616,-12.71210099918));
#1171 = CARTESIAN_POINT('',(-23.46497447845,-10.98814257622));
#1172 = CARTESIAN_POINT('',(-18.48309829315,-8.907026362114));
#1173 = CARTESIAN_POINT('',(-15.09856743958,-7.426330577647));
#1174 = CARTESIAN_POINT('',(-11.59781087092,-5.809688731783));
#1175 = CARTESIAN_POINT('',(-8.005545377485,-4.073031234674));
#1176 = CARTESIAN_POINT('',(-4.341584894058,-2.246097021291));
#1177 = CARTESIAN_POINT('',(-0.621384395662,-0.359427736974));
#1178 = CARTESIAN_POINT('',(3.118604495765,1.538873615529));
#1179 = CARTESIAN_POINT('',(6.976205065795,3.461048755076));
#1180 = CARTESIAN_POINT('',(10.796405972134,5.281780485609));
#1181 = CARTESIAN_POINT('',(10.917631032826,5.339471318088));
#1182 = CARTESIAN_POINT('',(11.038816325028,5.397055858237));
#1183 = CARTESIAN_POINT('',(11.159960804664,5.454532054143));
#1184 = CARTESIAN_POINT('',(11.281063426094,5.511897845119));
#1185 = CARTESIAN_POINT('',(11.402123142622,5.569151161522));
#1186 = CARTESIAN_POINT('',(11.523138905922,5.626289924815));
#1187 = CARTESIAN_POINT('',(11.64410966649,5.683312047395));
#1188 = CARTESIAN_POINT('',(13.701084015668,6.651259845616));
#1189 = CARTESIAN_POINT('',(15.627120983077,7.522243807813));
#1190 = CARTESIAN_POINT('',(17.535539382412,8.339983349394));
#1191 = CARTESIAN_POINT('',(19.419276065833,9.089588624696));
#1192 = CARTESIAN_POINT('',(21.270265722088,9.754811857157));
#1193 = CARTESIAN_POINT('',(23.079771388429,10.317560758376));
#1194 = CARTESIAN_POINT('',(24.838922388276,10.756718427948));
#1195 = CARTESIAN_POINT('',(26.537791697146,11.046410741454));
#1196 = CARTESIAN_POINT('',(28.973121264522,11.207587979154));
#1197 = CARTESIAN_POINT('',(31.173761995441,10.864017668535));
#1198 = CARTESIAN_POINT('',(31.877692805962,10.688137222309));
#1199 = CARTESIAN_POINT('',(32.547050018032,10.44525553585));
#1200 = CARTESIAN_POINT('',(33.176090165367,10.129183638406));
#1201 = CARTESIAN_POINT('',(33.757383250865,9.733296075399));
#1202 = CARTESIAN_POINT('',(34.280454265786,9.25124211344));
#1203 = CARTESIAN_POINT('',(34.73104140837,8.678580129894));
#1204 = CARTESIAN_POINT('',(35.453049823674,7.352730714997));
#1205 = CARTESIAN_POINT('',(35.751843054343,5.704125137177));
#1206 = CARTESIAN_POINT('',(35.779066524531,4.809310258849));
#1207 = CARTESIAN_POINT('',(35.671064250028,3.858994432257));
#1208 = CARTESIAN_POINT('',(35.415768488244,2.886190775042));
#1209 = CARTESIAN_POINT('',(35.022814015005,1.93370909294));
#1210 = CARTESIAN_POINT('',(34.530308901406,1.036899297267));
#1211 = CARTESIAN_POINT('',(33.987020337745,0.208793522045));
#1212 = CARTESIAN_POINT('',(33.425695820054,-0.561774854876));
#1213 = CARTESIAN_POINT('',(31.924920766961,-2.525378490493));
#1214 = CARTESIAN_POINT('',(31.315748144396,-3.554506819513));
#1215 = CARTESIAN_POINT('',(31.058703922837,-4.634173092438));
#1216 = CARTESIAN_POINT('',(30.924000955229,-5.846078698589));
#1217 = CARTESIAN_POINT('',(30.969137910073,-7.088941836832));
#1218 = CARTESIAN_POINT('',(31.124235595923,-8.426631218361));
#1219 = CARTESIAN_POINT('',(31.440493117831,-9.771522725213));
#1220 = CARTESIAN_POINT('',(31.929085062867,-11.1195030553));
#1221 = CARTESIAN_POINT('',(32.655611515057,-12.42323222719));
#1222 = CARTESIAN_POINT('',(34.578838135985,-14.59907079444));
#1223 = CARTESIAN_POINT('',(35.607917246809,-15.50952868502));
#1224 = CARTESIAN_POINT('',(36.794550968466,-16.30266180485));
#1225 = CARTESIAN_POINT('',(38.14902972368,-16.93749637176));
#1226 = CARTESIAN_POINT('',(39.675225881842,-17.3903813699));
#1227 = CARTESIAN_POINT('',(41.36347678812,-17.58637222147));
#1228 = CARTESIAN_POINT('',(43.136848205931,-17.47330755651));
#1229 = CARTESIAN_POINT('',(44.874444263541,-17.10011818858));
#1230 = CARTESIAN_POINT('',(48.217408592508,-15.98325095151));
#1231 = CARTESIAN_POINT('',(51.282230047109,-14.36443902514));
#1232 = CARTESIAN_POINT('',(52.74202999479,-13.49026025037));
#1233 = CARTESIAN_POINT('',(54.171444528033,-12.60068135144));
#1234 = CARTESIAN_POINT('',(55.621849389035,-11.69925987732));
#1235 = CARTESIAN_POINT('',(57.133010086658,-10.76527895197));
#1236 = CARTESIAN_POINT('',(58.728832856632,-9.778586551065));
#1237 = CARTESIAN_POINT('',(60.424915019365,-8.724149808815));
#1238 = CARTESIAN_POINT('',(62.237348271295,-7.581873907137));
#1239 = CARTESIAN_POINT('',(64.176394140657,-6.336368181492));
#1240 = ( GEOMETRIC_REPRESENTATION_CONTEXT(2) 
PARAMETRIC_REPRESENTATION_CONTEXT() REPRESENTATION_CONTEXT('2D SPACE',''
  ) );
#1241 = PCURVE('',#210,#1242);
#1242 = DEFINITIONAL_REPRESENTATION('',(#1243),#1246);
#1243 = B_SPLINE_CURVE_WITH_KNOTS('',1,(#1244,#1245),.UNSPECIFIED.,.F.,
  .F.,(2,2),(0.,118.96627099072),.PIECEWISE_BEZIER_KNOTS.);
#1244 = CARTESIAN_POINT('',(0.,0.));
#1245 = CARTESIAN_POINT('',(0.,118.96627099072));
#1246 = ( GEOMETRIC_REPRESENTATION_CONTEXT(2) 
PARAMETRIC_REPRESENTATION_CONTEXT() REPRESENTATION_CONTEXT('2D SPACE',''
  ) );
#1247 = ORIENTED_EDGE('',*,*,#1248,.F.);
#1248 = EDGE_CURVE('',#824,#1061,#1249,.T.);
#1249 = SURFACE_CURVE('',#1250,(#1253,#1259),.PCURVE_S1.);
#1250 = B_SPLINE_CURVE_WITH_KNOTS('',1,(#1251,#1252),.UNSPECIFIED.,.F.,
  .F.,(2,2),(0.,20.7),.PIECEWISE_BEZIER_KNOTS.);
#1251 = CARTESIAN_POINT('',(-3.736498592935,8.6,100.34800133314));
#1252 = CARTESIAN_POINT('',(3.736498592935,8.6,119.65199866685));
#1253 = PCURVE('',#922,#1254);
#1254 = DEFINITIONAL_REPRESENTATION('',(#1255),#1258);
#1255 = B_SPLINE_CURVE_WITH_KNOTS('',1,(#1256,#1257),.UNSPECIFIED.,.F.,
  .F.,(2,2),(0.,20.7),.PIECEWISE_BEZIER_KNOTS.);
#1256 = CARTESIAN_POINT('',(43.706136835609,-9.411846333769));
#1257 = CARTESIAN_POINT('',(64.176394140657,-6.336368181492));
#1258 = ( GEOMETRIC_REPRESENTATION_CONTEXT(2) 
PARAMETRIC_REPRESENTATION_CONTEXT() REPRESENTATION_CONTEXT('2D SPACE',''
  ) );
#1259 = PCURVE('',#787,#1260);
#1260 = DEFINITIONAL_REPRESENTATION('',(#1261),#1264);
#1261 = B_SPLINE_CURVE_WITH_KNOTS('',1,(#1262,#1263),.UNSPECIFIED.,.F.,
  .F.,(2,2),(0.,20.7),.PIECEWISE_BEZIER_KNOTS.);
#1262 = CARTESIAN_POINT('',(-10.35,-8.6));
#1263 = CARTESIAN_POINT('',(10.35,-8.6));
#1264 = ( GEOMETRIC_REPRESENTATION_CONTEXT(2) 
PARAMETRIC_REPRESENTATION_CONTEXT() REPRESENTATION_CONTEXT('2D SPACE',''
  ) );
#1265 = ADVANCED_FACE('',(#1266),#210,.T.);
#1266 = FACE_BOUND('',#1267,.T.);
#1267 = EDGE_LOOP('',(#1268,#1269,#1288,#1289));
#1268 = ORIENTED_EDGE('',*,*,#1060,.F.);
#1269 = ORIENTED_EDGE('',*,*,#1270,.T.);
#1270 = EDGE_CURVE('',#1041,#22,#1271,.T.);
#1271 = SURFACE_CURVE('',#1272,(#1275,#1282),.PCURVE_S1.);
#1272 = B_SPLINE_CURVE_WITH_KNOTS('',1,(#1273,#1274),.UNSPECIFIED.,.F.,
  .F.,(2,2),(0.,17.2),.PIECEWISE_BEZIER_KNOTS.);
#1273 = CARTESIAN_POINT('',(-10.35,8.6,0.));
#1274 = CARTESIAN_POINT('',(-10.35,-8.6,1.7763568394E-15));
#1275 = PCURVE('',#210,#1276);
#1276 = DEFINITIONAL_REPRESENTATION('',(#1277),#1281);
#1277 = LINE('',#1278,#1279);
#1278 = CARTESIAN_POINT('',(0.,0.));
#1279 = VECTOR('',#1280,1.);
#1280 = DIRECTION('',(1.,0.));
#1281 = ( GEOMETRIC_REPRESENTATION_CONTEXT(2) 
PARAMETRIC_REPRESENTATION_CONTEXT() REPRESENTATION_CONTEXT('2D SPACE',''
  ) );
#1282 = PCURVE('',#403,#1283);
#1283 = DEFINITIONAL_REPRESENTATION('',(#1284),#1287);
#1284 = B_SPLINE_CURVE_WITH_KNOTS('',1,(#1285,#1286),.UNSPECIFIED.,.F.,
  .F.,(2,2),(0.,17.2),.PIECEWISE_BEZIER_KNOTS.);
#1285 = CARTESIAN_POINT('',(-10.35,8.6));
#1286 = CARTESIAN_POINT('',(-10.35,-8.6));
#1287 = ( GEOMETRIC_REPRESENTATION_CONTEXT(2) 
PARAMETRIC_REPRESENTATION_CONTEXT() REPRESENTATION_CONTEXT('2D SPACE',''
  ) );
#1288 = ORIENTED_EDGE('',*,*,#21,.T.);
#1289 = ORIENTED_EDGE('',*,*,#1290,.F.);
#1290 = EDGE_CURVE('',#1061,#24,#1291,.T.);
#1291 = SURFACE_CURVE('',#1292,(#1295,#1302),.PCURVE_S1.);
#1292 = B_SPLINE_CURVE_WITH_KNOTS('',1,(#1293,#1294),.UNSPECIFIED.,.F.,
  .F.,(2,2),(0.,17.2),.PIECEWISE_BEZIER_KNOTS.);
#1293 = CARTESIAN_POINT('',(3.736498592935,8.6,119.65199866685));
#1294 = CARTESIAN_POINT('',(3.736498592935,-8.6,119.65199866685));
#1295 = PCURVE('',#210,#1296);
#1296 = DEFINITIONAL_REPRESENTATION('',(#1297),#1301);
#1297 = LINE('',#1298,#1299);
#1298 = CARTESIAN_POINT('',(0.,118.96627099072));
#1299 = VECTOR('',#1300,1.);
#1300 = DIRECTION('',(1.,0.));
#1301 = ( GEOMETRIC_REPRESENTATION_CONTEXT(2) 
PARAMETRIC_REPRESENTATION_CONTEXT() REPRESENTATION_CONTEXT('2D SPACE',''
  ) );
#1302 = PCURVE('',#787,#1303);
#1303 = DEFINITIONAL_REPRESENTATION('',(#1304),#1307);
#1304 = B_SPLINE_CURVE_WITH_KNOTS('',1,(#1305,#1306),.UNSPECIFIED.,.F.,
  .F.,(2,2),(0.,17.2),.PIECEWISE_BEZIER_KNOTS.);
#1305 = CARTESIAN_POINT('',(10.35,-8.6));
#1306 = CARTESIAN_POINT('',(10.35,8.6));
#1307 = ( GEOMETRIC_REPRESENTATION_CONTEXT(2) 
PARAMETRIC_REPRESENTATION_CONTEXT() REPRESENTATION_CONTEXT('2D SPACE',''
  ) );
#1308 = ADVANCED_FACE('',(#1309),#403,.F.);
#1309 = FACE_BOUND('',#1310,.F.);
#1310 = EDGE_LOOP('',(#1311,#1312,#1313,#1314));
#1311 = ORIENTED_EDGE('',*,*,#389,.T.);
#1312 = ORIENTED_EDGE('',*,*,#802,.T.);
#1313 = ORIENTED_EDGE('',*,*,#1040,.T.);
#1314 = ORIENTED_EDGE('',*,*,#1270,.T.);
#1315 = ADVANCED_FACE('',(#1316),#787,.T.);
#1316 = FACE_BOUND('',#1317,.T.);
#1317 = EDGE_LOOP('',(#1318,#1319,#1320,#1321));
#1318 = ORIENTED_EDGE('',*,*,#775,.T.);
#1319 = ORIENTED_EDGE('',*,*,#1017,.T.);
#1320 = ORIENTED_EDGE('',*,*,#1248,.T.);
#1321 = ORIENTED_EDGE('',*,*,#1290,.T.);
#1322 = ( GEOMETRIC_REPRESENTATION_CONTEXT(3) 
GLOBAL_UNCERTAINTY_ASSIGNED_CONTEXT((#1326)) 
GLOBAL_UNIT_ASSIGNED_CONTEXT((#1323,#1324,#1325)) REPRESENTATION_CONTEXT
('Context #1','3D Context with UNIT and UNCERTAINTY') );
#1323 = ( LENGTH_UNIT() NAMED_UNIT(*) SI_UNIT(.MILLI.,.METRE.) );
#1324 = ( NAMED_UNIT(*) PLANE_ANGLE_UNIT() SI_UNIT($,.RADIAN.) );
#1325 = ( NAMED_UNIT(*) SI_UNIT($,.STERADIAN.) SOLID_ANGLE_UNIT() );
#1326 = UNCERTAINTY_MEASURE_WITH_UNIT(LENGTH_MEASURE(5.E-05),#1323,
  'distance_accuracy_value','confusion accuracy');
#1327 = PRODUCT_RELATED_PRODUCT_CATEGORY('part',$,(#7));
ENDSEC;
END-ISO-10303-21;
