ISO-10303-21;
HEADER;
FILE_DESCRIPTION(('Open CASCADE Model'),'2;1');
FILE_NAME('Open CASCADE Shape Model','2026-06-10T00:30:28',('Author'),(
    'Open CASCADE'),'Open CASCADE STEP processor 7.8','Open CASCADE 7.8'
  ,'Unknown');
FILE_SCHEMA(('AUTOMOTIVE_DESIGN { 1 0 10303 214 1 1 1 1 }'));
ENDSEC;
DATA;
#1 = APPLICATION_PROTOCOL_DEFINITION('international standard',
  'automotive_design',2000,#2);
#2 = APPLICATION_CONTEXT(
  'core data for automotive mechanical design processes');
#3 = SHAPE_DEFINITION_REPRESENTATION(#4,#10);
#4 = PRODUCT_DEFINITION_SHAPE('','',#5);
#5 = PRODUCT_DEFINITION('design','',#6,#9);
#6 = PRODUCT_DEFINITION_FORMATION('','',#7);
#7 = PRODUCT('Open CASCADE STEP translator 7.8 51',
  'Open CASCADE STEP translator 7.8 51','',(#8));
#8 = PRODUCT_CONTEXT('',#2,'mechanical');
#9 = PRODUCT_DEFINITION_CONTEXT('part definition',#2,'design');
#10 = ADVANCED_BREP_SHAPE_REPRESENTATION('',(#11,#15),#455);
#11 = AXIS2_PLACEMENT_3D('',#12,#13,#14);
#12 = CARTESIAN_POINT('',(0.,0.,0.));
#13 = DIRECTION('',(0.,0.,1.));
#14 = DIRECTION('',(1.,0.,-0.));
#15 = MANIFOLD_SOLID_BREP('',#16);
#16 = CLOSED_SHELL('',(#17,#447,#451));
#17 = ADVANCED_FACE('',(#18),#71,.T.);
#18 = FACE_BOUND('',#19,.T.);
#19 = EDGE_LOOP('',(#20,#378,#412,#413));
#20 = ORIENTED_EDGE('',*,*,#21,.T.);
#21 = EDGE_CURVE('',#22,#24,#26,.T.);
#22 = VERTEX_POINT('',#23);
#23 = CARTESIAN_POINT('',(8.35,-1.022580077288E-15,0.));
#24 = VERTEX_POINT('',#25);
#25 = CARTESIAN_POINT('',(30.015450500826,-4.090416136289E-15,
    79.731254784108));
#26 = SEAM_CURVE('',#27,(#70,#371),.PCURVE_S1.);
#27 = ( BOUNDED_CURVE() B_SPLINE_CURVE(8,(#28,#29,#30,#31,#32,#33,#34,
    #35,#36,#37,#38,#39,#40,#41,#42,#43,#44,#45,#46,#47,#48,#49,#50,#51,
    #52,#53,#54,#55,#56,#57,#58,#59,#60,#61,#62,#63,#64,#65,#66,#67,#68,
#69),.UNSPECIFIED.,.F.,.F.) B_SPLINE_CURVE_WITH_KNOTS((9,7,7,6,7,6,9),(
    0.,18.002514,25.96263,36.817359551766,62.784756,81.617673310255,
100.4505906205),.UNSPECIFIED.) CURVE() GEOMETRIC_REPRESENTATION_ITEM() 
RATIONAL_B_SPLINE_CURVE((1.669078461068,1.669078461068,1.669078461068,
    1.669078461068,1.669078461068,1.669078461068,1.669078461068,
    1.669078461068,1.669078461068,1.669078461068,1.669078461068,
    1.669078461068,1.669078461068,1.669078461068,1.669078461068,
    1.669078461068,1.669078461068,1.669078461068,1.669078461068,
    1.669078461068,1.669078461068,1.669078461068,1.669078461068,
    1.669078461068,1.669078461068,1.669078461068,1.669078461068,
    1.669078461068,1.669078461068,1.669078461068,1.669078461068,
    1.669078461068,1.669078461068,1.669078461068,1.669078461068,
    1.669078461068,1.669078461068,1.669078461068,1.669078461068,
1.669078461068,1.669078461068,1.669078461068)) REPRESENTATION_ITEM('') 
  );
#28 = CARTESIAN_POINT('',(8.35,-1.022580077288E-15,0.));
#29 = CARTESIAN_POINT('',(8.35,-1.022642646222E-15,2.265054729735));
#30 = CARTESIAN_POINT('',(8.345430214769,-1.022334398455E-15,
    4.525799262307));
#31 = CARTESIAN_POINT('',(8.338604830859,-1.205766562247E-15,
    6.781256976729));
#32 = CARTESIAN_POINT('',(8.331812113379,-1.532988365813E-15,
    9.03042668573));
#33 = CARTESIAN_POINT('',(8.327313772981,-1.863797364104E-15,
    11.272283074316));
#34 = CARTESIAN_POINT('',(8.327344332835,-2.044124406232E-15,
    13.505777138387));
#35 = CARTESIAN_POINT('',(8.334110495615,-2.04611585763E-15,
    15.729836623295));
#36 = CARTESIAN_POINT('',(8.356723694204,-2.044153894269E-15,
    18.922116113147));
#37 = CARTESIAN_POINT('',(8.365493297495,-2.051828115427E-15,
    19.912028729528));
#38 = CARTESIAN_POINT('',(8.374287865011,-2.211280337053E-15,
    20.914014926321));
#39 = CARTESIAN_POINT('',(8.381189827433,-2.584767662068E-15,
    21.928906717665));
#40 = CARTESIAN_POINT('',(8.384184315108,-2.849359129763E-15,
    22.957452246169));
#41 = CARTESIAN_POINT('',(8.381167971708,-3.103072999167E-15,
    24.000310511925));
#42 = CARTESIAN_POINT('',(8.369957767885,-3.04093564575E-15,
    25.058046101562));
#43 = CARTESIAN_POINT('',(8.318766172191,-3.141617522931E-15,
    27.594415341359));
#44 = CARTESIAN_POINT('',(8.270514490583,-2.715233383371E-15,
    29.051073280752));
#45 = CARTESIAN_POINT('',(8.20715147521,-3.891453888908E-15,
    30.500329883016));
#46 = CARTESIAN_POINT('',(8.13211797263,-1.783945360968E-15,
    31.94132460658));
#47 = CARTESIAN_POINT('',(8.048708567331,-4.467087701007E-15,
    33.373094011066));
#48 = CARTESIAN_POINT('',(7.960091178201,-2.097686546824E-15,
    34.794561547622));
#49 = CARTESIAN_POINT('',(7.652193805574,-5.880790350153E-15,
    39.577540078383));
#50 = CARTESIAN_POINT('',(7.353804396734,-2.782117968234E-15,
    44.212818788644));
#51 = CARTESIAN_POINT('',(7.188668171021,-5.509377708691E-15,
    47.39006741808));
#52 = CARTESIAN_POINT('',(7.106430559982,-2.931158023742E-15,
    50.453176363784));
#53 = CARTESIAN_POINT('',(7.13977487787,-4.793043041058E-15,
    53.376590592389));
#54 = CARTESIAN_POINT('',(7.319277862337,-3.798348588176E-15,
    56.129623767793));
#55 = CARTESIAN_POINT('',(7.657609689957,-4.150608947396E-15,
    58.681941824421));
#56 = CARTESIAN_POINT('',(8.528966470535,-4.068778800245E-15,
    62.725988074948));
#57 = CARTESIAN_POINT('',(8.983814431618,-4.118155566409E-15,
    64.320408761801));
#58 = CARTESIAN_POINT('',(9.529777574039,-4.063294142967E-15,
    65.807061964333));
#59 = CARTESIAN_POINT('',(10.169254469965,-4.11015668682E-15,
    67.189667128652));
#60 = CARTESIAN_POINT('',(10.904201549753,-4.080593944308E-15,
    68.479519501729));
#61 = CARTESIAN_POINT('',(11.750335965964,-4.092823932915E-15,
    69.702591184276));
#62 = CARTESIAN_POINT('',(13.727443436073,-4.088820888111E-15,
    72.050933988283));
#63 = CARTESIAN_POINT('',(16.41245195373,-4.091198836019E-15,
    74.235844902992));
#64 = CARTESIAN_POINT('',(17.966524163909,-4.089481797699E-15,
    75.295426100812));
#65 = CARTESIAN_POINT('',(19.771322371493,-4.091220356576E-15,
    76.320270891976));
#66 = CARTESIAN_POINT('',(21.859599184641,-4.089907418315E-15,
    77.293467017768));
#67 = CARTESIAN_POINT('',(24.252208170943,-4.09064165994E-15,
    78.19734423888));
#68 = CARTESIAN_POINT('',(26.966241335953,-4.090358097114E-15,
    79.01499245673));
#69 = CARTESIAN_POINT('',(30.015450500826,-4.090416136289E-15,
    79.731254784108));
#70 = PCURVE('',#71,#366);
#71 = ( BOUNDED_SURFACE() B_SPLINE_SURFACE(6,8,(
    (#72,#73,#74,#75,#76,#77,#78,#79,#80,#81,#82,#83,#84,#85,#86,#87,#88
      ,#89,#90,#91,#92,#93,#94,#95,#96,#97,#98,#99,#100,#101,#102,#103
      ,#104,#105,#106,#107,#108,#109,#110,#111,#112,#113)
    ,(#114,#115,#116,#117,#118,#119,#120,#121,#122,#123,#124,#125,#126
      ,#127,#128,#129,#130,#131,#132,#133,#134,#135,#136,#137,#138,#139
      ,#140,#141,#142,#143,#144,#145,#146,#147,#148,#149,#150,#151,#152
      ,#153,#154,#155)
    ,(#156,#157,#158,#159,#160,#161,#162,#163,#164,#165,#166,#167,#168
      ,#169,#170,#171,#172,#173,#174,#175,#176,#177,#178,#179,#180,#181
      ,#182,#183,#184,#185,#186,#187,#188,#189,#190,#191,#192,#193,#194
      ,#195,#196,#197)
    ,(#198,#199,#200,#201,#202,#203,#204,#205,#206,#207,#208,#209,#210
      ,#211,#212,#213,#214,#215,#216,#217,#218,#219,#220,#221,#222,#223
      ,#224,#225,#226,#227,#228,#229,#230,#231,#232,#233,#234,#235,#236
      ,#237,#238,#239)
    ,(#240,#241,#242,#243,#244,#245,#246,#247,#248,#249,#250,#251,#252
      ,#253,#254,#255,#256,#257,#258,#259,#260,#261,#262,#263,#264,#265
      ,#266,#267,#268,#269,#270,#271,#272,#273,#274,#275,#276,#277,#278
      ,#279,#280,#281)
    ,(#282,#283,#284,#285,#286,#287,#288,#289,#290,#291,#292,#293,#294
      ,#295,#296,#297,#298,#299,#300,#301,#302,#303,#304,#305,#306,#307
      ,#308,#309,#310,#311,#312,#313,#314,#315,#316,#317,#318,#319,#320
      ,#321,#322,#323)
    ,(#324,#325,#326,#327,#328,#329,#330,#331,#332,#333,#334,#335,#336
      ,#337,#338,#339,#340,#341,#342,#343,#344,#345,#346,#347,#348,#349
      ,#350,#351,#352,#353,#354,#355,#356,#357,#358,#359,#360,#361,#362
      ,#363,#364,#365
)),.UNSPECIFIED.,.T.,.F.,.F.) B_SPLINE_SURFACE_WITH_KNOTS((1,6,6,1),(9,7
    ,7,6,7,6,9),(-6.28318530718,0.,6.28318530718,12.566370614359),(0.,
    18.002514,25.96263,36.817359551766,62.784756,81.617673310255,
100.4505906205),.UNSPECIFIED.) GEOMETRIC_REPRESENTATION_ITEM() 
RATIONAL_B_SPLINE_SURFACE((
    (1.669078461068,1.669078461068,1.669078461068,1.669078461068
      ,1.669078461068,1.669078461068,1.669078461068,1.669078461068
      ,1.669078461068,1.669078461068,1.669078461068,1.669078461068
      ,1.669078461068,1.669078461068,1.669078461068,1.669078461068
      ,1.669078461068,1.669078461068,1.669078461068,1.669078461068
      ,1.669078461068,1.669078461068,1.669078461068,1.669078461068
      ,1.669078461068,1.669078461068,1.669078461068,1.669078461068
      ,1.669078461068,1.669078461068,1.669078461068,1.669078461068
      ,1.669078461068,1.669078461068,1.669078461068,1.669078461068
      ,1.669078461068,1.669078461068,1.669078461068,1.669078461068
      ,1.669078461068,1.669078461068)
    ,(1.03672962321,1.03672962321,1.03672962321,1.03672962321
      ,1.03672962321,1.03672962321,1.03672962321,1.03672962321
      ,1.03672962321,1.03672962321,1.03672962321,1.03672962321
      ,1.03672962321,1.03672962321,1.03672962321,1.03672962321
      ,1.03672962321,1.03672962321,1.03672962321,1.03672962321
      ,1.03672962321,1.03672962321,1.03672962321,1.03672962321
      ,1.03672962321,1.03672962321,1.03672962321,1.03672962321
      ,1.03672962321,1.03672962321,1.03672962321,1.03672962321
      ,1.03672962321,1.03672962321,1.03672962321,1.03672962321
      ,1.03672962321,1.03672962321,1.03672962321,1.03672962321
      ,1.03672962321,1.03672962321)
    ,(1.038346699848,1.038346699848,1.038346699848,1.038346699848
      ,1.038346699848,1.038346699847,1.038346699848,1.038346699847
      ,1.038346699848,1.038346699847,1.038346699848,1.038346699847
      ,1.038346699848,1.038346699847,1.038346699848,1.038346699848
      ,1.038346699848,1.038346699848,1.038346699847,1.038346699848
      ,1.038346699848,1.038346699848,1.038346699848,1.038346699848
      ,1.038346699848,1.038346699848,1.038346699848,1.038346699848
      ,1.038346699847,1.038346699848,1.038346699847,1.038346699848
      ,1.038346699847,1.038346699848,1.038346699847,1.038346699848
      ,1.038346699847,1.038346699848,1.038346699847,1.038346699848
      ,1.038346699848,1.038346699848)
    ,(0.853534330196,0.853534330196,0.853534330196,0.853534330196
      ,0.853534330196,0.853534330196,0.853534330196,0.853534330196
      ,0.853534330196,0.853534330196,0.853534330196,0.853534330196
      ,0.853534330196,0.853534330196,0.853534330196,0.853534330196
      ,0.853534330196,0.853534330196,0.853534330196,0.853534330196
      ,0.853534330196,0.853534330196,0.853534330196,0.853534330196
      ,0.853534330196,0.853534330196,0.853534330196,0.853534330196
      ,0.853534330196,0.853534330196,0.853534330196,0.853534330196
      ,0.853534330196,0.853534330196,0.853534330196,0.853534330196
      ,0.853534330196,0.853534330196,0.853534330196,0.853534330196
      ,0.853534330196,0.853534330196)
    ,(1.038346699848,1.038346699848,1.038346699848,1.038346699848
      ,1.038346699847,1.038346699848,1.038346699848,1.038346699848
      ,1.038346699848,1.038346699847,1.038346699848,1.038346699847
      ,1.038346699848,1.038346699848,1.038346699848,1.038346699848
      ,1.038346699847,1.038346699848,1.038346699847,1.038346699848
      ,1.038346699848,1.038346699848,1.038346699848,1.038346699847
      ,1.038346699848,1.038346699847,1.038346699848,1.038346699848
      ,1.038346699848,1.038346699848,1.038346699847,1.038346699848
      ,1.038346699847,1.038346699848,1.038346699847,1.038346699848
      ,1.038346699847,1.038346699848,1.038346699847,1.038346699848
      ,1.038346699848,1.038346699848)
    ,(1.03672962321,1.03672962321,1.03672962321,1.03672962321
      ,1.03672962321,1.03672962321,1.03672962321,1.03672962321
      ,1.03672962321,1.03672962321,1.03672962321,1.03672962321
      ,1.03672962321,1.03672962321,1.03672962321,1.03672962321
      ,1.03672962321,1.03672962321,1.03672962321,1.03672962321
      ,1.03672962321,1.03672962321,1.03672962321,1.03672962321
      ,1.03672962321,1.03672962321,1.03672962321,1.03672962321
      ,1.03672962321,1.03672962321,1.03672962321,1.03672962321
      ,1.03672962321,1.03672962321,1.03672962321,1.03672962321
      ,1.03672962321,1.03672962321,1.03672962321,1.03672962321
      ,1.03672962321,1.03672962321)
    ,(1.669078461068,1.669078461068,1.669078461068,1.669078461068
      ,1.669078461068,1.669078461068,1.669078461068,1.669078461068
      ,1.669078461068,1.669078461068,1.669078461068,1.669078461068
      ,1.669078461068,1.669078461068,1.669078461068,1.669078461068
      ,1.669078461068,1.669078461068,1.669078461068,1.669078461068
      ,1.669078461068,1.669078461068,1.669078461068,1.669078461068
      ,1.669078461068,1.669078461068,1.669078461068,1.669078461068
      ,1.669078461068,1.669078461068,1.669078461068,1.669078461068
      ,1.669078461068,1.669078461068,1.669078461068,1.669078461068
      ,1.669078461068,1.669078461068,1.669078461068,1.669078461068
,1.669078461068,1.669078461068))) REPRESENTATION_ITEM('') SURFACE() );
#72 = CARTESIAN_POINT('',(8.35,-1.022580077288E-15,0.));
#73 = CARTESIAN_POINT('',(8.35,-1.022642646222E-15,2.265054729735));
#74 = CARTESIAN_POINT('',(8.345430214769,-1.022334398455E-15,
    4.525799262307));
#75 = CARTESIAN_POINT('',(8.338604830859,-1.205766562247E-15,
    6.781256976729));
#76 = CARTESIAN_POINT('',(8.331812113379,-1.532988365813E-15,
    9.03042668573));
#77 = CARTESIAN_POINT('',(8.327313772981,-1.863797364104E-15,
    11.272283074316));
#78 = CARTESIAN_POINT('',(8.327344332835,-2.044124406232E-15,
    13.505777138387));
#79 = CARTESIAN_POINT('',(8.334110495615,-2.04611585763E-15,
    15.729836623295));
#80 = CARTESIAN_POINT('',(8.356723694204,-2.044153894269E-15,
    18.922116113147));
#81 = CARTESIAN_POINT('',(8.365493297495,-2.051828115427E-15,
    19.912028729528));
#82 = CARTESIAN_POINT('',(8.374287865011,-2.211280337053E-15,
    20.914014926321));
#83 = CARTESIAN_POINT('',(8.381189827433,-2.584767662068E-15,
    21.928906717665));
#84 = CARTESIAN_POINT('',(8.384184315108,-2.849359129763E-15,
    22.957452246169));
#85 = CARTESIAN_POINT('',(8.381167971708,-3.103072999167E-15,
    24.000310511925));
#86 = CARTESIAN_POINT('',(8.369957767885,-3.04093564575E-15,
    25.058046101562));
#87 = CARTESIAN_POINT('',(8.318766172191,-3.141617522931E-15,
    27.594415341359));
#88 = CARTESIAN_POINT('',(8.270514490583,-2.715233383371E-15,
    29.051073280752));
#89 = CARTESIAN_POINT('',(8.20715147521,-3.891453888908E-15,
    30.500329883016));
#90 = CARTESIAN_POINT('',(8.13211797263,-1.783945360968E-15,
    31.94132460658));
#91 = CARTESIAN_POINT('',(8.048708567331,-4.467087701007E-15,
    33.373094011066));
#92 = CARTESIAN_POINT('',(7.960091178201,-2.097686546824E-15,
    34.794561547622));
#93 = CARTESIAN_POINT('',(7.652193805574,-5.880790350153E-15,
    39.577540078383));
#94 = CARTESIAN_POINT('',(7.353804396734,-2.782117968234E-15,
    44.212818788644));
#95 = CARTESIAN_POINT('',(7.188668171021,-5.509377708691E-15,
    47.39006741808));
#96 = CARTESIAN_POINT('',(7.106430559982,-2.931158023742E-15,
    50.453176363784));
#97 = CARTESIAN_POINT('',(7.13977487787,-4.793043041058E-15,
    53.376590592389));
#98 = CARTESIAN_POINT('',(7.319277862337,-3.798348588176E-15,
    56.129623767793));
#99 = CARTESIAN_POINT('',(7.657609689957,-4.150608947396E-15,
    58.681941824421));
#100 = CARTESIAN_POINT('',(8.528966470535,-4.068778800245E-15,
    62.725988074948));
#101 = CARTESIAN_POINT('',(8.983814431618,-4.118155566409E-15,
    64.320408761801));
#102 = CARTESIAN_POINT('',(9.529777574039,-4.063294142967E-15,
    65.807061964333));
#103 = CARTESIAN_POINT('',(10.169254469965,-4.11015668682E-15,
    67.189667128652));
#104 = CARTESIAN_POINT('',(10.904201549753,-4.080593944308E-15,
    68.479519501729));
#105 = CARTESIAN_POINT('',(11.750335965964,-4.092823932915E-15,
    69.702591184276));
#106 = CARTESIAN_POINT('',(13.727443436073,-4.088820888111E-15,
    72.050933988283));
#107 = CARTESIAN_POINT('',(16.41245195373,-4.091198836019E-15,
    74.235844902992));
#108 = CARTESIAN_POINT('',(17.966524163909,-4.089481797699E-15,
    75.295426100812));
#109 = CARTESIAN_POINT('',(19.771322371493,-4.091220356576E-15,
    76.320270891976));
#110 = CARTESIAN_POINT('',(21.859599184641,-4.089907418315E-15,
    77.293467017768));
#111 = CARTESIAN_POINT('',(24.252208170943,-4.09064165994E-15,
    78.19734423888));
#112 = CARTESIAN_POINT('',(26.966241335953,-4.090358097114E-15,
    79.01499245673));
#113 = CARTESIAN_POINT('',(30.015450500826,-4.090416136289E-15,
    79.731254784108));
#114 = CARTESIAN_POINT('',(8.35,13.873884681018,0.));
#115 = CARTESIAN_POINT('',(8.35,13.873884681018,2.265054729735));
#116 = CARTESIAN_POINT('',(8.345430214769,13.873884681019,4.525799262306
    ));
#117 = CARTESIAN_POINT('',(8.338604830859,13.873884681018,6.781256976731
    ));
#118 = CARTESIAN_POINT('',(8.331812113379,13.873884681019,9.030426685728
    ));
#119 = CARTESIAN_POINT('',(8.32731377298,13.873884681018,11.272283074318
    ));
#120 = CARTESIAN_POINT('',(8.327344332835,13.873884681019,
    13.505777138386));
#121 = CARTESIAN_POINT('',(8.334110495615,13.873884681018,
    15.729836623295));
#122 = CARTESIAN_POINT('',(8.356723694204,13.873884681018,
    18.922116113147));
#123 = CARTESIAN_POINT('',(8.365493297495,13.873884681018,
    19.912028729528));
#124 = CARTESIAN_POINT('',(8.374287865011,13.873884681018,
    20.914014926321));
#125 = CARTESIAN_POINT('',(8.381189827433,13.873884681019,
    21.928906717665));
#126 = CARTESIAN_POINT('',(8.384184315108,13.873884681018,
    22.957452246169));
#127 = CARTESIAN_POINT('',(8.381167971708,13.873884681018,
    24.000310511925));
#128 = CARTESIAN_POINT('',(8.369957767885,13.873884681018,
    25.058046101562));
#129 = CARTESIAN_POINT('',(8.318766172191,13.873884681018,
    27.594415341359));
#130 = CARTESIAN_POINT('',(8.270514490583,13.873884681018,
    29.051073280752));
#131 = CARTESIAN_POINT('',(8.20715147521,13.873884681018,30.500329883016
    ));
#132 = CARTESIAN_POINT('',(8.132117972629,13.873884681019,31.94132460658
    ));
#133 = CARTESIAN_POINT('',(8.048708567331,13.873884681018,
    33.373094011066));
#134 = CARTESIAN_POINT('',(7.960091178201,13.873884681018,
    34.794561547622));
#135 = CARTESIAN_POINT('',(7.652193805574,13.873884681018,
    39.577540078382));
#136 = CARTESIAN_POINT('',(7.353804396734,13.873884681018,
    44.212818788644));
#137 = CARTESIAN_POINT('',(7.188668171021,13.873884681018,47.39006741808
    ));
#138 = CARTESIAN_POINT('',(7.106430559981,13.873884681018,
    50.453176363784));
#139 = CARTESIAN_POINT('',(7.139774877871,13.873884681018,
    53.376590592389));
#140 = CARTESIAN_POINT('',(7.319277862337,13.873884681018,
    56.129623767793));
#141 = CARTESIAN_POINT('',(7.657609689957,13.873884681018,
    58.681941824421));
#142 = CARTESIAN_POINT('',(8.528966470535,13.873884681018,
    62.725988074948));
#143 = CARTESIAN_POINT('',(8.983814431618,13.873884681018,
    64.320408761801));
#144 = CARTESIAN_POINT('',(9.529777574039,13.873884681019,
    65.807061964334));
#145 = CARTESIAN_POINT('',(10.169254469964,13.873884681018,
    67.189667128651));
#146 = CARTESIAN_POINT('',(10.904201549753,13.873884681019,
    68.479519501731));
#147 = CARTESIAN_POINT('',(11.750335965964,13.873884681018,
    69.702591184276));
#148 = CARTESIAN_POINT('',(13.727443436073,13.873884681018,
    72.050933988283));
#149 = CARTESIAN_POINT('',(16.41245195373,13.873884681018,
    74.235844902992));
#150 = CARTESIAN_POINT('',(17.966524163908,13.873884681019,
    75.295426100812));
#151 = CARTESIAN_POINT('',(19.771322371493,13.873884681018,
    76.320270891976));
#152 = CARTESIAN_POINT('',(21.859599184641,13.873884681019,
    77.293467017768));
#153 = CARTESIAN_POINT('',(24.252208170944,13.873884681018,
    78.19734423888));
#154 = CARTESIAN_POINT('',(26.966241335953,13.873884681018,
    79.01499245673));
#155 = CARTESIAN_POINT('',(30.015450500826,13.873884681018,
    79.731254784108));
#156 = CARTESIAN_POINT('',(-8.805477391077,15.865938400101,
    -7.105427357601E-15));
#157 = CARTESIAN_POINT('',(-8.805477391077,15.865938400101,
    2.234769703768));
#158 = CARTESIAN_POINT('',(-8.809986075769,15.865938400101,
    4.478263249395));
#159 = CARTESIAN_POINT('',(-8.816779994673,15.865938400101,
    6.729421265155));
#160 = CARTESIAN_POINT('',(-8.823608361904,15.865938400101,
    8.987210285658));
#161 = CARTESIAN_POINT('',(-8.828192388614,15.865938400101,
    11.250622289346));
#162 = CARTESIAN_POINT('',(-8.828224615454,15.865938400101,
    13.518674235984));
#163 = CARTESIAN_POINT('',(-8.821368245013,15.865938400101,
    15.790407604143));
#164 = CARTESIAN_POINT('',(-8.798132382384,15.865938400101,
    19.070587867227));
#165 = CARTESIAN_POINT('',(-8.78929751976,15.865938400101,
    20.062882018026));
#166 = CARTESIAN_POINT('',(-8.780727511036,15.865938400101,
    21.042550849344));
#167 = CARTESIAN_POINT('',(-8.774286078533,15.865938400101,
    22.010457717527));
#168 = CARTESIAN_POINT('',(-8.771734336686,15.865938400101,
    22.967554425504));
#169 = CARTESIAN_POINT('',(-8.774740086461,15.865938400101,
    23.91488678127));
#170 = CARTESIAN_POINT('',(-8.784887109789,15.865938400101,
    24.85360015638));
#171 = CARTESIAN_POINT('',(-8.829317280894,15.865938400101,
    27.054963832982));
#172 = CARTESIAN_POINT('',(-8.871783899308,15.865938400101,
    28.348361431346));
#173 = CARTESIAN_POINT('',(-8.928792284314,15.865938400101,
    29.663216996822));
#174 = CARTESIAN_POINT('',(-8.997875495173,15.865938400101,
    30.997707431881));
#175 = CARTESIAN_POINT('',(-9.076412350739,15.865938400101,
    32.350118150741));
#176 = CARTESIAN_POINT('',(-9.161648094888,15.865938400101,
    33.718853845961));
#177 = CARTESIAN_POINT('',(-9.463786906153,15.865938400101,
    38.412377000317));
#178 = CARTESIAN_POINT('',(-9.775952323427,15.865938400101,
    43.261656733125));
#179 = CARTESIAN_POINT('',(-9.960405245423,15.865938400101,
    46.740643383297));
#180 = CARTESIAN_POINT('',(-10.06537501619,15.8659384001,50.265228285958
    ));
#181 = CARTESIAN_POINT('',(-10.04187589797,15.865938400101,
    53.824976683075));
#182 = CARTESIAN_POINT('',(-9.838700666461,15.865938400101,
    57.414865022626));
#183 = CARTESIAN_POINT('',(-9.385758765773,15.865938400101,
    61.02949826635));
#184 = CARTESIAN_POINT('',(-8.043806133162,15.865938400101,
    67.257622765126));
#185 = CARTESIAN_POINT('',(-7.30969557209,15.865938400101,
    69.869141285746));
#186 = CARTESIAN_POINT('',(-6.379190613637,15.865938400101,
    72.463284223709));
#187 = CARTESIAN_POINT('',(-5.225710550563,15.865938400101,
    75.023088840804));
#188 = CARTESIAN_POINT('',(-3.82220841579,15.865938400101,
    77.523603351714));
#189 = CARTESIAN_POINT('',(-2.156148586933,15.865938400101,
    79.924398521579));
#190 = CARTESIAN_POINT('',(1.693435432197,15.865938400101,
    84.462757865107));
#191 = CARTESIAN_POINT('',(6.548625014027,15.865938400101,
    88.388569597692));
#192 = CARTESIAN_POINT('',(9.220251654712,15.865938400101,
    90.176878948319));
#193 = CARTESIAN_POINT('',(12.123726215729,15.865938400101,
    91.779515104099));
#194 = CARTESIAN_POINT('',(15.253619610584,15.865938400101,
    93.201272453808));
#195 = CARTESIAN_POINT('',(18.617050864484,15.865938400101,
    94.447744713277));
#196 = CARTESIAN_POINT('',(22.225105751073,15.865938400101,
    95.523723993314));
#197 = CARTESIAN_POINT('',(26.092392429412,15.865938400101,
    96.432153558846));
#198 = CARTESIAN_POINT('',(-22.95512629042,2.887794619088E-14,
    7.105427357601E-15));
#199 = CARTESIAN_POINT('',(-22.95512629042,2.887811820019E-14,
    2.209790947736));
#200 = CARTESIAN_POINT('',(-22.95958458006,2.887727079104E-14,
    4.439056069239));
#201 = CARTESIAN_POINT('',(-22.96635254697,2.938154725638E-14,
    6.686667740871));
#202 = CARTESIAN_POINT('',(-22.97321031772,3.028111825348E-14,
    8.95156587462));
#203 = CARTESIAN_POINT('',(-22.97786501756,3.119055086831E-14,
    11.232756712351));
#204 = CARTESIAN_POINT('',(-22.97794903017,3.168629099114E-14,
    13.529311620107));
#205 = CARTESIAN_POINT('',(-22.97101825745,3.169176572387E-14,
    15.840365882363));
#206 = CARTESIAN_POINT('',(-22.94726882837,3.16863720572E-14,
    19.193045735569));
#207 = CARTESIAN_POINT('',(-22.93838014057,3.170746938844E-14,
    20.187304149739));
#208 = CARTESIAN_POINT('',(-22.92999534547,3.2145822189E-14,
    21.148565863691));
#209 = CARTESIAN_POINT('',(-22.92393375297,3.317258251398E-14,
    22.077720084474));
#210 = CARTESIAN_POINT('',(-22.92174718301,3.389997539498E-14,
    22.975886591811));
#211 = CARTESIAN_POINT('',(-22.92474419528,3.459746448645E-14,
    23.844430228598));
#212 = CARTESIAN_POINT('',(-22.93401431904,3.442664163675E-14,
    24.684975391397));
#213 = CARTESIAN_POINT('',(-22.97286774157,3.470342788894E-14,
    26.610030167322));
#214 = CARTESIAN_POINT('',(-23.01056290355,3.353124803603E-14,
    27.768772433626));
#215 = CARTESIAN_POINT('',(-23.06233005938,3.676481573064E-14,
    28.972775503487));
#216 = CARTESIAN_POINT('',(-23.12650553513,3.097102837531E-14,
    30.219422373819));
#217 = CARTESIAN_POINT('',(-23.20102356531,3.834730038379E-14,
    31.506378922381));
#218 = CARTESIAN_POINT('',(-23.28347016591,3.183353957816E-14,
    32.831621975356));
#219 = CARTESIAN_POINT('',(-23.58085937916,4.223373425783E-14,
    37.451363320006));
#220 = CARTESIAN_POINT('',(-23.90438709654,3.371512158003E-14,
    42.477148740419));
#221 = CARTESIAN_POINT('',(-24.10477221698,4.121267748051E-14,
    46.205005588468));
#222 = CARTESIAN_POINT('',(-24.22849122285,3.412485011854E-14,
    50.110210780358));
#223 = CARTESIAN_POINT('',(-24.21311231694,3.924338972461E-14,
    54.194800594699));
#224 = CARTESIAN_POINT('',(-23.99041247666,3.650885837296E-14,
    58.474917861278));
#225 = CARTESIAN_POINT('',(-23.44294144937,3.747726328709E-14,
    62.965736977024));
#226 = CARTESIAN_POINT('',(-21.71284653846,3.725230264491E-14,
    70.995265171945));
#227 = CARTESIAN_POINT('',(-20.74840325913,3.738804514828E-14,
    74.445674789327));
#228 = CARTESIAN_POINT('',(-19.50073244397,3.723722468078E-14,
    77.953263069483));
#229 = CARTESIAN_POINT('',(-17.92330822694,3.736605529305E-14,
    81.484008836252));
#230 = CARTESIAN_POINT('',(-15.96838924248,3.728478385738E-14,
    84.9830641511));
#231 = CARTESIAN_POINT('',(-13.62606395926,3.7318405526E-14,
    88.35523268856));
#232 = CARTESIAN_POINT('',(-8.232081895306,3.73074006878E-14,
    94.699893565504));
#233 = CARTESIAN_POINT('',(-1.586950861773,3.731393794463E-14,
    100.06158112829));
#234 = CARTESIAN_POINT('',(2.006422370807,3.730921760553E-14,
    102.45093743729));
#235 = CARTESIAN_POINT('',(5.816073093564,3.731399710716E-14,
    104.5301295501));
#236 = CARTESIAN_POINT('',(9.805080378574,3.731038768637E-14,
    106.32185525939));
#237 = CARTESIAN_POINT('',(13.969235151675,3.731240620244E-14,
    107.85089613511));
#238 = CARTESIAN_POINT('',(18.314669312556,3.731162665508E-14,
    109.13994403145));
#239 = CARTESIAN_POINT('',(22.85669731835,3.731178621156E-14,
    110.20687101957));
#240 = CARTESIAN_POINT('',(-8.805477391077,-15.8659384001,0.));
#241 = CARTESIAN_POINT('',(-8.805477391077,-15.8659384001,2.234769703768
    ));
#242 = CARTESIAN_POINT('',(-8.809986075769,-15.8659384001,4.478263249395
    ));
#243 = CARTESIAN_POINT('',(-8.816779994674,-15.8659384001,6.729421265156
    ));
#244 = CARTESIAN_POINT('',(-8.823608361904,-15.8659384001,8.987210285656
    ));
#245 = CARTESIAN_POINT('',(-8.828192388615,-15.8659384001,
    11.250622289347));
#246 = CARTESIAN_POINT('',(-8.828224615454,-15.8659384001,
    13.518674235984));
#247 = CARTESIAN_POINT('',(-8.821368245013,-15.8659384001,
    15.790407604143));
#248 = CARTESIAN_POINT('',(-8.798132382384,-15.8659384001,
    19.070587867227));
#249 = CARTESIAN_POINT('',(-8.78929751976,-15.8659384001,20.062882018026
    ));
#250 = CARTESIAN_POINT('',(-8.780727511036,-15.8659384001,
    21.042550849344));
#251 = CARTESIAN_POINT('',(-8.774286078533,-15.8659384001,
    22.010457717527));
#252 = CARTESIAN_POINT('',(-8.771734336686,-15.8659384001,
    22.967554425504));
#253 = CARTESIAN_POINT('',(-8.774740086461,-15.8659384001,
    23.914886781271));
#254 = CARTESIAN_POINT('',(-8.784887109789,-15.8659384001,24.85360015638
    ));
#255 = CARTESIAN_POINT('',(-8.829317280894,-15.8659384001,
    27.054963832982));
#256 = CARTESIAN_POINT('',(-8.871783899308,-15.8659384001,
    28.348361431345));
#257 = CARTESIAN_POINT('',(-8.928792284314,-15.8659384001,
    29.663216996822));
#258 = CARTESIAN_POINT('',(-8.997875495173,-15.8659384001,30.99770743188
    ));
#259 = CARTESIAN_POINT('',(-9.076412350739,-15.8659384001,
    32.350118150741));
#260 = CARTESIAN_POINT('',(-9.161648094888,-15.8659384001,
    33.718853845961));
#261 = CARTESIAN_POINT('',(-9.463786906153,-15.8659384001,
    38.412377000317));
#262 = CARTESIAN_POINT('',(-9.775952323427,-15.8659384001,
    43.261656733125));
#263 = CARTESIAN_POINT('',(-9.960405245423,-15.8659384001,
    46.740643383297));
#264 = CARTESIAN_POINT('',(-10.06537501619,-15.8659384001,
    50.265228285958));
#265 = CARTESIAN_POINT('',(-10.04187589797,-15.8659384001,
    53.824976683075));
#266 = CARTESIAN_POINT('',(-9.83870066646,-15.8659384001,57.414865022626
    ));
#267 = CARTESIAN_POINT('',(-9.385758765773,-15.8659384001,61.02949826635
    ));
#268 = CARTESIAN_POINT('',(-8.043806133162,-15.8659384001,
    67.257622765126));
#269 = CARTESIAN_POINT('',(-7.30969557209,-15.8659384001,69.869141285745
    ));
#270 = CARTESIAN_POINT('',(-6.379190613637,-15.8659384001,72.46328422371
    ));
#271 = CARTESIAN_POINT('',(-5.225710550563,-15.8659384001,
    75.023088840803));
#272 = CARTESIAN_POINT('',(-3.82220841579,-15.8659384001,77.523603351715
    ));
#273 = CARTESIAN_POINT('',(-2.156148586933,-15.8659384001,
    79.924398521578));
#274 = CARTESIAN_POINT('',(1.693435432197,-15.8659384001,84.462757865107
    ));
#275 = CARTESIAN_POINT('',(6.548625014027,-15.8659384001,88.388569597692
    ));
#276 = CARTESIAN_POINT('',(9.220251654712,-15.8659384001,90.17687894832)
  );
#277 = CARTESIAN_POINT('',(12.123726215728,-15.8659384001,
    91.779515104097));
#278 = CARTESIAN_POINT('',(15.253619610584,-15.8659384001,
    93.201272453809));
#279 = CARTESIAN_POINT('',(18.617050864483,-15.8659384001,
    94.447744713276));
#280 = CARTESIAN_POINT('',(22.225105751073,-15.8659384001,
    95.523723993314));
#281 = CARTESIAN_POINT('',(26.092392429412,-15.8659384001,
    96.432153558846));
#282 = CARTESIAN_POINT('',(8.35,-13.87388468101,0.));
#283 = CARTESIAN_POINT('',(8.35,-13.87388468101,2.265054729735));
#284 = CARTESIAN_POINT('',(8.345430214769,-13.87388468101,4.525799262306
    ));
#285 = CARTESIAN_POINT('',(8.338604830859,-13.87388468101,6.781256976731
    ));
#286 = CARTESIAN_POINT('',(8.331812113379,-13.87388468101,9.030426685728
    ));
#287 = CARTESIAN_POINT('',(8.327313772981,-13.87388468101,
    11.272283074317));
#288 = CARTESIAN_POINT('',(8.327344332835,-13.87388468101,
    13.505777138386));
#289 = CARTESIAN_POINT('',(8.334110495615,-13.87388468101,
    15.729836623295));
#290 = CARTESIAN_POINT('',(8.356723694204,-13.87388468101,
    18.922116113147));
#291 = CARTESIAN_POINT('',(8.365493297495,-13.87388468101,
    19.912028729529));
#292 = CARTESIAN_POINT('',(8.374287865011,-13.87388468101,20.91401492632
    ));
#293 = CARTESIAN_POINT('',(8.381189827433,-13.87388468101,
    21.928906717666));
#294 = CARTESIAN_POINT('',(8.384184315108,-13.87388468101,
    22.957452246168));
#295 = CARTESIAN_POINT('',(8.381167971708,-13.87388468101,
    24.000310511925));
#296 = CARTESIAN_POINT('',(8.369957767885,-13.87388468101,
    25.058046101562));
#297 = CARTESIAN_POINT('',(8.318766172191,-13.87388468101,
    27.594415341359));
#298 = CARTESIAN_POINT('',(8.270514490583,-13.87388468101,
    29.051073280752));
#299 = CARTESIAN_POINT('',(8.207151475209,-13.87388468101,
    30.500329883016));
#300 = CARTESIAN_POINT('',(8.13211797263,-13.87388468101,31.94132460658)
  );
#301 = CARTESIAN_POINT('',(8.048708567331,-13.87388468101,
    33.373094011066));
#302 = CARTESIAN_POINT('',(7.960091178201,-13.87388468101,
    34.794561547622));
#303 = CARTESIAN_POINT('',(7.652193805574,-13.87388468101,
    39.577540078383));
#304 = CARTESIAN_POINT('',(7.353804396734,-13.87388468101,
    44.212818788644));
#305 = CARTESIAN_POINT('',(7.188668171021,-13.87388468101,47.39006741808
    ));
#306 = CARTESIAN_POINT('',(7.106430559981,-13.87388468101,
    50.453176363783));
#307 = CARTESIAN_POINT('',(7.139774877871,-13.87388468101,
    53.376590592389));
#308 = CARTESIAN_POINT('',(7.319277862337,-13.87388468101,
    56.129623767793));
#309 = CARTESIAN_POINT('',(7.657609689957,-13.87388468101,
    58.681941824421));
#310 = CARTESIAN_POINT('',(8.528966470535,-13.87388468101,
    62.725988074948));
#311 = CARTESIAN_POINT('',(8.983814431618,-13.87388468101,
    64.320408761801));
#312 = CARTESIAN_POINT('',(9.529777574039,-13.87388468101,
    65.807061964334));
#313 = CARTESIAN_POINT('',(10.169254469965,-13.87388468101,
    67.189667128651));
#314 = CARTESIAN_POINT('',(10.904201549753,-13.87388468101,
    68.47951950173));
#315 = CARTESIAN_POINT('',(11.750335965964,-13.87388468101,
    69.702591184276));
#316 = CARTESIAN_POINT('',(13.727443436073,-13.87388468101,
    72.050933988283));
#317 = CARTESIAN_POINT('',(16.41245195373,-13.87388468101,
    74.235844902992));
#318 = CARTESIAN_POINT('',(17.966524163908,-13.87388468101,
    75.295426100812));
#319 = CARTESIAN_POINT('',(19.771322371493,-13.87388468101,
    76.320270891976));
#320 = CARTESIAN_POINT('',(21.85959918464,-13.87388468101,
    77.293467017768));
#321 = CARTESIAN_POINT('',(24.252208170944,-13.87388468101,
    78.197344238881));
#322 = CARTESIAN_POINT('',(26.966241335953,-13.87388468101,
    79.01499245673));
#323 = CARTESIAN_POINT('',(30.015450500826,-13.87388468101,
    79.731254784108));
#324 = CARTESIAN_POINT('',(8.35,-1.022580077288E-15,0.));
#325 = CARTESIAN_POINT('',(8.35,-1.022642646222E-15,2.265054729735));
#326 = CARTESIAN_POINT('',(8.345430214769,-1.022334398455E-15,
    4.525799262307));
#327 = CARTESIAN_POINT('',(8.338604830859,-1.205766562247E-15,
    6.781256976729));
#328 = CARTESIAN_POINT('',(8.331812113379,-1.532988365813E-15,
    9.03042668573));
#329 = CARTESIAN_POINT('',(8.327313772981,-1.863797364104E-15,
    11.272283074316));
#330 = CARTESIAN_POINT('',(8.327344332835,-2.044124406232E-15,
    13.505777138387));
#331 = CARTESIAN_POINT('',(8.334110495615,-2.04611585763E-15,
    15.729836623295));
#332 = CARTESIAN_POINT('',(8.356723694204,-2.044153894269E-15,
    18.922116113147));
#333 = CARTESIAN_POINT('',(8.365493297495,-2.051828115427E-15,
    19.912028729528));
#334 = CARTESIAN_POINT('',(8.374287865011,-2.211280337053E-15,
    20.914014926321));
#335 = CARTESIAN_POINT('',(8.381189827433,-2.584767662068E-15,
    21.928906717665));
#336 = CARTESIAN_POINT('',(8.384184315108,-2.849359129763E-15,
    22.957452246169));
#337 = CARTESIAN_POINT('',(8.381167971708,-3.103072999167E-15,
    24.000310511925));
#338 = CARTESIAN_POINT('',(8.369957767885,-3.04093564575E-15,
    25.058046101562));
#339 = CARTESIAN_POINT('',(8.318766172191,-3.141617522931E-15,
    27.594415341359));
#340 = CARTESIAN_POINT('',(8.270514490583,-2.715233383371E-15,
    29.051073280752));
#341 = CARTESIAN_POINT('',(8.20715147521,-3.891453888908E-15,
    30.500329883016));
#342 = CARTESIAN_POINT('',(8.13211797263,-1.783945360968E-15,
    31.94132460658));
#343 = CARTESIAN_POINT('',(8.048708567331,-4.467087701007E-15,
    33.373094011066));
#344 = CARTESIAN_POINT('',(7.960091178201,-2.097686546824E-15,
    34.794561547622));
#345 = CARTESIAN_POINT('',(7.652193805574,-5.880790350153E-15,
    39.577540078383));
#346 = CARTESIAN_POINT('',(7.353804396734,-2.782117968234E-15,
    44.212818788644));
#347 = CARTESIAN_POINT('',(7.188668171021,-5.509377708691E-15,
    47.39006741808));
#348 = CARTESIAN_POINT('',(7.106430559982,-2.931158023742E-15,
    50.453176363784));
#349 = CARTESIAN_POINT('',(7.13977487787,-4.793043041058E-15,
    53.376590592389));
#350 = CARTESIAN_POINT('',(7.319277862337,-3.798348588176E-15,
    56.129623767793));
#351 = CARTESIAN_POINT('',(7.657609689957,-4.150608947396E-15,
    58.681941824421));
#352 = CARTESIAN_POINT('',(8.528966470535,-4.068778800245E-15,
    62.725988074948));
#353 = CARTESIAN_POINT('',(8.983814431618,-4.118155566409E-15,
    64.320408761801));
#354 = CARTESIAN_POINT('',(9.529777574039,-4.063294142967E-15,
    65.807061964333));
#355 = CARTESIAN_POINT('',(10.169254469965,-4.11015668682E-15,
    67.189667128652));
#356 = CARTESIAN_POINT('',(10.904201549753,-4.080593944308E-15,
    68.479519501729));
#357 = CARTESIAN_POINT('',(11.750335965964,-4.092823932915E-15,
    69.702591184276));
#358 = CARTESIAN_POINT('',(13.727443436073,-4.088820888111E-15,
    72.050933988283));
#359 = CARTESIAN_POINT('',(16.41245195373,-4.091198836019E-15,
    74.235844902992));
#360 = CARTESIAN_POINT('',(17.966524163909,-4.089481797699E-15,
    75.295426100812));
#361 = CARTESIAN_POINT('',(19.771322371493,-4.091220356576E-15,
    76.320270891976));
#362 = CARTESIAN_POINT('',(21.859599184641,-4.089907418315E-15,
    77.293467017768));
#363 = CARTESIAN_POINT('',(24.252208170943,-4.09064165994E-15,
    78.19734423888));
#364 = CARTESIAN_POINT('',(26.966241335953,-4.090358097114E-15,
    79.01499245673));
#365 = CARTESIAN_POINT('',(30.015450500826,-4.090416136289E-15,
    79.731254784108));
#366 = DEFINITIONAL_REPRESENTATION('',(#367),#370);
#367 = B_SPLINE_CURVE_WITH_KNOTS('',1,(#368,#369),.UNSPECIFIED.,.F.,.F.,
  (2,2),(0.,100.4505906205),.PIECEWISE_BEZIER_KNOTS.);
#368 = CARTESIAN_POINT('',(6.28318530718,0.));
#369 = CARTESIAN_POINT('',(6.28318530718,100.4505906205));
#370 = ( GEOMETRIC_REPRESENTATION_CONTEXT(2) 
PARAMETRIC_REPRESENTATION_CONTEXT() REPRESENTATION_CONTEXT('2D SPACE',''
  ) );
#371 = PCURVE('',#71,#372);
#372 = DEFINITIONAL_REPRESENTATION('',(#373),#377);
#373 = LINE('',#374,#375);
#374 = CARTESIAN_POINT('',(0.,0.));
#375 = VECTOR('',#376,1.);
#376 = DIRECTION('',(0.,1.));
#377 = ( GEOMETRIC_REPRESENTATION_CONTEXT(2) 
PARAMETRIC_REPRESENTATION_CONTEXT() REPRESENTATION_CONTEXT('2D SPACE',''
  ) );
#378 = ORIENTED_EDGE('',*,*,#379,.F.);
#379 = EDGE_CURVE('',#24,#24,#380,.T.);
#380 = SURFACE_CURVE('',#381,(#389,#396),.PCURVE_S1.);
#381 = ( BOUNDED_CURVE() B_SPLINE_CURVE(6,(#382,#383,#384,#385,#386,#387
,#388),.UNSPECIFIED.,.T.,.F.) B_SPLINE_CURVE_WITH_KNOTS((1,6,6,1),(
    -6.28318530718,0.,6.28318530718,12.566370614359),.UNSPECIFIED.) 
CURVE() GEOMETRIC_REPRESENTATION_ITEM() RATIONAL_B_SPLINE_CURVE((
    1.669078461068,1.03672962321,1.038346699848,0.853534330196,
1.038346699848,1.03672962321,1.669078461068)) REPRESENTATION_ITEM('') );
#382 = CARTESIAN_POINT('',(30.015450500826,-4.090416136289E-15,
    79.731254784108));
#383 = CARTESIAN_POINT('',(30.015450500826,13.873884681018,
    79.731254784108));
#384 = CARTESIAN_POINT('',(26.092392429412,15.865938400101,
    96.432153558846));
#385 = CARTESIAN_POINT('',(22.85669731835,3.731178621156E-14,
    110.20687101957));
#386 = CARTESIAN_POINT('',(26.092392429412,-15.8659384001,
    96.432153558846));
#387 = CARTESIAN_POINT('',(30.015450500826,-13.87388468101,
    79.731254784108));
#388 = CARTESIAN_POINT('',(30.015450500826,-4.090416136289E-15,
    79.731254784108));
#389 = PCURVE('',#71,#390);
#390 = DEFINITIONAL_REPRESENTATION('',(#391),#395);
#391 = LINE('',#392,#393);
#392 = CARTESIAN_POINT('',(0.,100.4505906205));
#393 = VECTOR('',#394,1.);
#394 = DIRECTION('',(1.,0.));
#395 = ( GEOMETRIC_REPRESENTATION_CONTEXT(2) 
PARAMETRIC_REPRESENTATION_CONTEXT() REPRESENTATION_CONTEXT('2D SPACE',''
  ) );
#396 = PCURVE('',#397,#402);
#397 = PLANE('',#398);
#398 = AXIS2_PLACEMENT_3D('',#399,#400,#401);
#399 = CARTESIAN_POINT('',(28.106302501325,-3.318576672131E-15,
    87.858712217887));
#400 = DIRECTION('',(0.973502421065,4.912905485966E-16,0.228676706686));
#401 = DIRECTION('',(-0.228676706686,0.,0.973502421065));
#402 = DEFINITIONAL_REPRESENTATION('',(#403),#411);
#403 = ( BOUNDED_CURVE() B_SPLINE_CURVE(6,(#404,#405,#406,#407,#408,#409
,#410),.UNSPECIFIED.,.T.,.F.) B_SPLINE_CURVE_WITH_KNOTS((1,6,6,1),(
    -6.28318530718,0.,6.28318530718,12.566370614359),.UNSPECIFIED.) 
CURVE() GEOMETRIC_REPRESENTATION_ITEM() RATIONAL_B_SPLINE_CURVE((
    1.669078461068,1.03672962321,1.038346699848,0.853534330196,
1.038346699848,1.03672962321,1.669078461068)) REPRESENTATION_ITEM('') );
#404 = CARTESIAN_POINT('',(-8.348677165989,7.718394641579E-16));
#405 = CARTESIAN_POINT('',(-8.348677165989,-13.87388468101));
#406 = CARTESIAN_POINT('',(8.806800225088,-15.8659384001));
#407 = CARTESIAN_POINT('',(22.956449124432,-4.063036288369E-14));
#408 = CARTESIAN_POINT('',(8.806800225088,15.865938400101));
#409 = CARTESIAN_POINT('',(-8.348677165989,13.873884681018));
#410 = CARTESIAN_POINT('',(-8.348677165989,7.718394641579E-16));
#411 = ( GEOMETRIC_REPRESENTATION_CONTEXT(2) 
PARAMETRIC_REPRESENTATION_CONTEXT() REPRESENTATION_CONTEXT('2D SPACE',''
  ) );
#412 = ORIENTED_EDGE('',*,*,#21,.F.);
#413 = ORIENTED_EDGE('',*,*,#414,.T.);
#414 = EDGE_CURVE('',#22,#22,#415,.T.);
#415 = SURFACE_CURVE('',#416,(#424,#431),.PCURVE_S1.);
#416 = ( BOUNDED_CURVE() B_SPLINE_CURVE(6,(#417,#418,#419,#420,#421,#422
,#423),.UNSPECIFIED.,.T.,.F.) B_SPLINE_CURVE_WITH_KNOTS((1,6,6,1),(
    -6.28318530718,0.,6.28318530718,12.566370614359),.UNSPECIFIED.) 
CURVE() GEOMETRIC_REPRESENTATION_ITEM() RATIONAL_B_SPLINE_CURVE((
    1.669078461068,1.03672962321,1.038346699848,0.853534330196,
1.038346699848,1.03672962321,1.669078461068)) REPRESENTATION_ITEM('') );
#417 = CARTESIAN_POINT('',(8.35,-1.022580077288E-15,0.));
#418 = CARTESIAN_POINT('',(8.35,13.873884681018,0.));
#419 = CARTESIAN_POINT('',(-8.805477391077,15.865938400101,
    -7.105427357601E-15));
#420 = CARTESIAN_POINT('',(-22.95512629042,2.887794619088E-14,
    7.105427357601E-15));
#421 = CARTESIAN_POINT('',(-8.805477391077,-15.8659384001,0.));
#422 = CARTESIAN_POINT('',(8.35,-13.87388468101,0.));
#423 = CARTESIAN_POINT('',(8.35,-1.022580077288E-15,0.));
#424 = PCURVE('',#71,#425);
#425 = DEFINITIONAL_REPRESENTATION('',(#426),#430);
#426 = LINE('',#427,#428);
#427 = CARTESIAN_POINT('',(0.,0.));
#428 = VECTOR('',#429,1.);
#429 = DIRECTION('',(1.,0.));
#430 = ( GEOMETRIC_REPRESENTATION_CONTEXT(2) 
PARAMETRIC_REPRESENTATION_CONTEXT() REPRESENTATION_CONTEXT('2D SPACE',''
  ) );
#431 = PCURVE('',#432,#437);
#432 = PLANE('',#433);
#433 = AXIS2_PLACEMENT_3D('',#434,#435,#436);
#434 = CARTESIAN_POINT('',(1.322834011146E-03,7.715310816837E-15,
    -1.515061041913E-16));
#435 = DIRECTION('',(0.,0.,1.));
#436 = DIRECTION('',(1.,0.,-0.));
#437 = DEFINITIONAL_REPRESENTATION('',(#438),#446);
#438 = ( BOUNDED_CURVE() B_SPLINE_CURVE(6,(#439,#440,#441,#442,#443,#444
,#445),.UNSPECIFIED.,.T.,.F.) B_SPLINE_CURVE_WITH_KNOTS((1,6,6,1),(
    -6.28318530718,0.,6.28318530718,12.566370614359),.UNSPECIFIED.) 
CURVE() GEOMETRIC_REPRESENTATION_ITEM() RATIONAL_B_SPLINE_CURVE((
    1.669078461068,1.03672962321,1.038346699848,0.853534330196,
1.038346699848,1.03672962321,1.669078461068)) REPRESENTATION_ITEM('') );
#439 = CARTESIAN_POINT('',(8.348677165989,-8.737890894125E-15));
#440 = CARTESIAN_POINT('',(8.348677165989,13.873884681018));
#441 = CARTESIAN_POINT('',(-8.806800225088,15.865938400101));
#442 = CARTESIAN_POINT('',(-22.95644912443,2.116263537404E-14));
#443 = CARTESIAN_POINT('',(-8.806800225088,-15.8659384001));
#444 = CARTESIAN_POINT('',(8.348677165989,-13.87388468101));
#445 = CARTESIAN_POINT('',(8.348677165989,-8.737890894125E-15));
#446 = ( GEOMETRIC_REPRESENTATION_CONTEXT(2) 
PARAMETRIC_REPRESENTATION_CONTEXT() REPRESENTATION_CONTEXT('2D SPACE',''
  ) );
#447 = ADVANCED_FACE('',(#448),#432,.F.);
#448 = FACE_BOUND('',#449,.F.);
#449 = EDGE_LOOP('',(#450));
#450 = ORIENTED_EDGE('',*,*,#414,.T.);
#451 = ADVANCED_FACE('',(#452),#397,.T.);
#452 = FACE_BOUND('',#453,.T.);
#453 = EDGE_LOOP('',(#454));
#454 = ORIENTED_EDGE('',*,*,#379,.T.);
#455 = ( GEOMETRIC_REPRESENTATION_CONTEXT(3) 
GLOBAL_UNCERTAINTY_ASSIGNED_CONTEXT((#459)) GLOBAL_UNIT_ASSIGNED_CONTEXT
((#456,#457,#458)) REPRESENTATION_CONTEXT('Context #1',
  '3D Context with UNIT and UNCERTAINTY') );
#456 = ( LENGTH_UNIT() NAMED_UNIT(*) SI_UNIT(.MILLI.,.METRE.) );
#457 = ( NAMED_UNIT(*) PLANE_ANGLE_UNIT() SI_UNIT($,.RADIAN.) );
#458 = ( NAMED_UNIT(*) SI_UNIT($,.STERADIAN.) SOLID_ANGLE_UNIT() );
#459 = UNCERTAINTY_MEASURE_WITH_UNIT(LENGTH_MEASURE(1.E-05),#456,
  'distance_accuracy_value','confusion accuracy');
#460 = PRODUCT_RELATED_PRODUCT_CATEGORY('part',$,(#7));
ENDSEC;
END-ISO-10303-21;
