ISO-10303-21;
HEADER;
FILE_DESCRIPTION(('Open CASCADE Model'),'2;1');
FILE_NAME('Open CASCADE Shape Model','2026-06-10T00:30:28',('Author'),(
    'Open CASCADE'),'Open CASCADE STEP processor 7.8','Open CASCADE 7.8'
  ,'Unknown');
FILE_SCHEMA(('AUTOMOTIVE_DESIGN { 1 0 10303 214 1 1 1 1 }'));
ENDSEC;
DATA;
#1 = APPLICATION_PROTOCOL_DEFINITION('international standard',
  'automotive_design',2000,#2);
#2 = APPLICATION_CONTEXT(
  'core data for automotive mechanical design processes');
#3 = SHAPE_DEFINITION_REPRESENTATION(#4,#10);
#4 = PRODUCT_DEFINITION_SHAPE('','',#5);
#5 = PRODUCT_DEFINITION('design','',#6,#9);
#6 = PRODUCT_DEFINITION_FORMATION('','',#7);
#7 = PRODUCT('Open CASCADE STEP translator 7.8 37',
  'Open CASCADE STEP translator 7.8 37','',(#8));
#8 = PRODUCT_CONTEXT('',#2,'mechanical');
#9 = PRODUCT_DEFINITION_CONTEXT('part definition',#2,'design');
#10 = ADVANCED_BREP_SHAPE_REPRESENTATION('',(#11,#15),#410);
#11 = AXIS2_PLACEMENT_3D('',#12,#13,#14);
#12 = CARTESIAN_POINT('',(0.,0.,0.));
#13 = DIRECTION('',(0.,0.,1.));
#14 = DIRECTION('',(1.,0.,-0.));
#15 = MANIFOLD_SOLID_BREP('',#16);
#16 = CLOSED_SHELL('',(#17,#189,#275,#353,#396,#403));
#17 = ADVANCED_FACE('',(#18),#39,.T.);
#18 = FACE_BOUND('',#19,.T.);
#19 = EDGE_LOOP('',(#20,#84,#109,#166));
#20 = ORIENTED_EDGE('',*,*,#21,.F.);
#21 = EDGE_CURVE('',#22,#24,#26,.T.);
#22 = VERTEX_POINT('',#23);
#23 = CARTESIAN_POINT('',(-10.65,-8.3,-7.105427357601E-15));
#24 = VERTEX_POINT('',#25);
#25 = CARTESIAN_POINT('',(2.936427657883,-8.3,71.440667197686));
#26 = SURFACE_CURVE('',#27,(#38,#57),.PCURVE_S1.);
#27 = B_SPLINE_CURVE_WITH_KNOTS('',9,(#28,#29,#30,#31,#32,#33,#34,#35,
    #36,#37),.UNSPECIFIED.,.F.,.F.,(10,10),(0.,67.483731248912),
  .PIECEWISE_BEZIER_KNOTS.);
#28 = CARTESIAN_POINT('',(-10.65,-8.3,-7.105427357601E-15));
#29 = CARTESIAN_POINT('',(-10.67926093895,-8.3,7.314923894181));
#30 = CARTESIAN_POINT('',(-10.76897823867,-8.3,14.979390960505));
#31 = CARTESIAN_POINT('',(-10.75362152201,-8.299999999999,22.89783886256
    ));
#32 = CARTESIAN_POINT('',(-10.45745059304,-8.300000000001,
    30.995695845453));
#33 = CARTESIAN_POINT('',(-9.66182623966,-8.299999999999,39.205525087703
    ));
#34 = CARTESIAN_POINT('',(-8.20385811368,-8.3,47.471275079412));
#35 = CARTESIAN_POINT('',(-5.759313013401,-8.3,55.752322579725));
#36 = CARTESIAN_POINT('',(-2.089974317356,-8.3,63.814681438967));
#37 = CARTESIAN_POINT('',(2.936427657883,-8.3,71.440667197686));
#38 = PCURVE('',#39,#44);
#39 = PLANE('',#40);
#40 = AXIS2_PLACEMENT_3D('',#41,#42,#43);
#41 = CARTESIAN_POINT('',(3.023279092228,-8.3,33.417630401719));
#42 = DIRECTION('',(-2.036954289759E-16,-1.,-5.745717003586E-17));
#43 = DIRECTION('',(0.987477923819,-1.920804541512E-16,-0.157757250134)
  );
#44 = DEFINITIONAL_REPRESENTATION('',(#45),#56);
#45 = B_SPLINE_CURVE_WITH_KNOTS('',9,(#46,#47,#48,#49,#50,#51,#52,#53,
    #54,#55),.UNSPECIFIED.,.F.,.F.,(10,10),(0.,67.483731248912),
  .PIECEWISE_BEZIER_KNOTS.);
#46 = CARTESIAN_POINT('',(-8.230187771619,-35.15623119795));
#47 = CARTESIAN_POINT('',(-9.413064581349,-27.93752146329));
#48 = CARTESIAN_POINT('',(-10.71078368233,-20.38318299195));
#49 = CARTESIAN_POINT('',(-11.94481183001,-12.56146786437));
#50 = CARTESIAN_POINT('',(-12.92984522558,-4.518289752198));
#51 = CARTESIAN_POINT('',(-13.43934382628,3.714250892979));
#52 = CARTESIAN_POINT('',(-13.30361447723,12.106501575937));
#53 = CARTESIAN_POINT('',(-12.19607543881,20.669497881443));
#54 = CARTESIAN_POINT('',(-9.84458004468,29.20976405135));
#55 = CARTESIAN_POINT('',(-6.084173600749,37.533207989127));
#56 = ( GEOMETRIC_REPRESENTATION_CONTEXT(2) 
PARAMETRIC_REPRESENTATION_CONTEXT() REPRESENTATION_CONTEXT('2D SPACE',''
  ) );
#57 = PCURVE('',#58,#79);
#58 = B_SPLINE_SURFACE_WITH_KNOTS('',1,9,(
    (#59,#60,#61,#62,#63,#64,#65,#66,#67,#68)
    ,(#69,#70,#71,#72,#73,#74,#75,#76,#77,#78
  )),.UNSPECIFIED.,.F.,.F.,.F.,(2,2),(10,10),(0.,16.6),(0.,
    67.483731248912),.PIECEWISE_BEZIER_KNOTS.);
#59 = CARTESIAN_POINT('',(-10.65,8.3,0.));
#60 = CARTESIAN_POINT('',(-10.67926093895,8.3,7.314923894182));
#61 = CARTESIAN_POINT('',(-10.76897823867,8.3,14.979390960504));
#62 = CARTESIAN_POINT('',(-10.75362152201,8.3,22.897838862561));
#63 = CARTESIAN_POINT('',(-10.45745059304,8.3,30.99569584545));
#64 = CARTESIAN_POINT('',(-9.66182623966,8.3,39.205525087706));
#65 = CARTESIAN_POINT('',(-8.203858113679,8.3,47.47127507941));
#66 = CARTESIAN_POINT('',(-5.759313013402,8.3,55.752322579726));
#67 = CARTESIAN_POINT('',(-2.089974317356,8.3,63.814681438966));
#68 = CARTESIAN_POINT('',(2.936427657883,8.3,71.440667197686));
#69 = CARTESIAN_POINT('',(-10.65,-8.3,-7.105427357601E-15));
#70 = CARTESIAN_POINT('',(-10.67926093895,-8.3,7.314923894181));
#71 = CARTESIAN_POINT('',(-10.76897823867,-8.3,14.979390960505));
#72 = CARTESIAN_POINT('',(-10.75362152201,-8.299999999999,22.89783886256
    ));
#73 = CARTESIAN_POINT('',(-10.45745059304,-8.300000000001,
    30.995695845453));
#74 = CARTESIAN_POINT('',(-9.66182623966,-8.299999999999,39.205525087703
    ));
#75 = CARTESIAN_POINT('',(-8.20385811368,-8.3,47.471275079412));
#76 = CARTESIAN_POINT('',(-5.759313013401,-8.3,55.752322579725));
#77 = CARTESIAN_POINT('',(-2.089974317356,-8.3,63.814681438967));
#78 = CARTESIAN_POINT('',(2.936427657883,-8.3,71.440667197686));
#79 = DEFINITIONAL_REPRESENTATION('',(#80),#83);
#80 = B_SPLINE_CURVE_WITH_KNOTS('',1,(#81,#82),.UNSPECIFIED.,.F.,.F.,(2,
    2),(0.,67.483731248912),.PIECEWISE_BEZIER_KNOTS.);
#81 = CARTESIAN_POINT('',(16.6,0.));
#82 = CARTESIAN_POINT('',(16.6,67.483731248912));
#83 = ( GEOMETRIC_REPRESENTATION_CONTEXT(2) 
PARAMETRIC_REPRESENTATION_CONTEXT() REPRESENTATION_CONTEXT('2D SPACE',''
  ) );
#84 = ORIENTED_EDGE('',*,*,#85,.T.);
#85 = EDGE_CURVE('',#22,#86,#88,.T.);
#86 = VERTEX_POINT('',#87);
#87 = CARTESIAN_POINT('',(10.65,-8.3,-7.105427357601E-15));
#88 = SURFACE_CURVE('',#89,(#92,#98),.PCURVE_S1.);
#89 = B_SPLINE_CURVE_WITH_KNOTS('',1,(#90,#91),.UNSPECIFIED.,.F.,.F.,(2,
    2),(0.,21.3),.PIECEWISE_BEZIER_KNOTS.);
#90 = CARTESIAN_POINT('',(-10.65,-8.3,-7.105427357601E-15));
#91 = CARTESIAN_POINT('',(10.65,-8.3,-7.105427357601E-15));
#92 = PCURVE('',#39,#93);
#93 = DEFINITIONAL_REPRESENTATION('',(#94),#97);
#94 = B_SPLINE_CURVE_WITH_KNOTS('',1,(#95,#96),.UNSPECIFIED.,.F.,.F.,(2,
    2),(0.,21.3),.PIECEWISE_BEZIER_KNOTS.);
#95 = CARTESIAN_POINT('',(-8.230187771619,-35.15623119795));
#96 = CARTESIAN_POINT('',(12.803092005729,-31.79600177009));
#97 = ( GEOMETRIC_REPRESENTATION_CONTEXT(2) 
PARAMETRIC_REPRESENTATION_CONTEXT() REPRESENTATION_CONTEXT('2D SPACE',''
  ) );
#98 = PCURVE('',#99,#104);
#99 = PLANE('',#100);
#100 = AXIS2_PLACEMENT_3D('',#101,#102,#103);
#101 = CARTESIAN_POINT('',(-3.749565887916E-16,3.749565887916E-16,
    -5.329070518201E-15));
#102 = DIRECTION('',(0.,0.,1.));
#103 = DIRECTION('',(1.,0.,-0.));
#104 = DEFINITIONAL_REPRESENTATION('',(#105),#108);
#105 = B_SPLINE_CURVE_WITH_KNOTS('',1,(#106,#107),.UNSPECIFIED.,.F.,.F.,
  (2,2),(0.,21.3),.PIECEWISE_BEZIER_KNOTS.);
#106 = CARTESIAN_POINT('',(-10.65,-8.3));
#107 = CARTESIAN_POINT('',(10.65,-8.3));
#108 = ( GEOMETRIC_REPRESENTATION_CONTEXT(2) 
PARAMETRIC_REPRESENTATION_CONTEXT() REPRESENTATION_CONTEXT('2D SPACE',''
  ) );
#109 = ORIENTED_EDGE('',*,*,#110,.T.);
#110 = EDGE_CURVE('',#86,#111,#113,.T.);
#111 = VERTEX_POINT('',#112);
#112 = CARTESIAN_POINT('',(20.681572342117,-8.3,59.659332802314));
#113 = SURFACE_CURVE('',#114,(#125,#139),.PCURVE_S1.);
#114 = B_SPLINE_CURVE_WITH_KNOTS('',9,(#115,#116,#117,#118,#119,#120,
    #121,#122,#123,#124),.UNSPECIFIED.,.F.,.F.,(10,10),(0.,
    67.483731248912),.PIECEWISE_BEZIER_KNOTS.);
#115 = CARTESIAN_POINT('',(10.65,-8.3,-7.105427357601E-15));
#116 = CARTESIAN_POINT('',(10.62073906105,-8.3,7.469800886345));
#117 = CARTESIAN_POINT('',(10.529754848506,-8.3,14.902537534947));
#118 = CARTESIAN_POINT('',(10.551316553521,-8.3,22.236489369553));
#119 = CARTESIAN_POINT('',(10.849483548489,-8.3,29.388945232417));
#120 = CARTESIAN_POINT('',(11.54541618961,-8.3,36.270059032346));
#121 = CARTESIAN_POINT('',(12.816023697026,-8.3,42.778599366598));
#122 = CARTESIAN_POINT('',(14.676872437345,-8.3,48.797906563367));
#123 = CARTESIAN_POINT('',(17.229545357414,-8.3,54.404683859673));
#124 = CARTESIAN_POINT('',(20.681572342117,-8.3,59.659332802314));
#125 = PCURVE('',#39,#126);
#126 = DEFINITIONAL_REPRESENTATION('',(#127),#138);
#127 = B_SPLINE_CURVE_WITH_KNOTS('',9,(#128,#129,#130,#131,#132,#133,
    #134,#135,#136,#137),.UNSPECIFIED.,.F.,.F.,(10,10),(0.,
    67.483731248912),.PIECEWISE_BEZIER_KNOTS.);
#128 = CARTESIAN_POINT('',(12.803092005729,-31.79600177009));
#129 = CARTESIAN_POINT('',(11.595782227606,-24.42435442476));
#130 = CARTESIAN_POINT('',(10.333369231648,-17.09904448988));
#131 = CARTESIAN_POINT('',(9.197676865307,-9.853527443572));
#132 = CARTESIAN_POINT('',(8.363758421818,-2.743597172696));
#133 = CARTESIAN_POINT('',(7.965430950453,4.161139215763));
#134 = CARTESIAN_POINT('',(8.193358388347,10.788626658493));
#135 = CARTESIAN_POINT('',(9.081316087904,17.026122012176));
#136 = CARTESIAN_POINT('',(10.717514474822,22.965393476411));
#137 = CARTESIAN_POINT('',(13.297355947034,28.698825589183));
#138 = ( GEOMETRIC_REPRESENTATION_CONTEXT(2) 
PARAMETRIC_REPRESENTATION_CONTEXT() REPRESENTATION_CONTEXT('2D SPACE',''
  ) );
#139 = PCURVE('',#140,#161);
#140 = B_SPLINE_SURFACE_WITH_KNOTS('',1,9,(
    (#141,#142,#143,#144,#145,#146,#147,#148,#149,#150)
    ,(#151,#152,#153,#154,#155,#156,#157,#158,#159,#160
  )),.UNSPECIFIED.,.F.,.F.,.F.,(2,2),(10,10),(0.,16.6),(0.,
    67.483731248912),.PIECEWISE_BEZIER_KNOTS.);
#141 = CARTESIAN_POINT('',(10.65,-8.3,-7.105427357601E-15));
#142 = CARTESIAN_POINT('',(10.62073906105,-8.3,7.469800886345));
#143 = CARTESIAN_POINT('',(10.529754848506,-8.3,14.902537534947));
#144 = CARTESIAN_POINT('',(10.551316553521,-8.3,22.236489369553));
#145 = CARTESIAN_POINT('',(10.849483548489,-8.3,29.388945232417));
#146 = CARTESIAN_POINT('',(11.54541618961,-8.3,36.270059032346));
#147 = CARTESIAN_POINT('',(12.816023697026,-8.3,42.778599366598));
#148 = CARTESIAN_POINT('',(14.676872437345,-8.3,48.797906563367));
#149 = CARTESIAN_POINT('',(17.229545357414,-8.3,54.404683859673));
#150 = CARTESIAN_POINT('',(20.681572342117,-8.3,59.659332802314));
#151 = CARTESIAN_POINT('',(10.65,8.3,-7.105427357601E-15));
#152 = CARTESIAN_POINT('',(10.62073906105,8.3,7.469800886345));
#153 = CARTESIAN_POINT('',(10.529754848506,8.3,14.902537534948));
#154 = CARTESIAN_POINT('',(10.551316553521,8.299999999999,
    22.236489369552));
#155 = CARTESIAN_POINT('',(10.849483548489,8.300000000001,
    29.388945232418));
#156 = CARTESIAN_POINT('',(11.54541618961,8.299999999999,36.270059032344
    ));
#157 = CARTESIAN_POINT('',(12.816023697026,8.3,42.778599366599));
#158 = CARTESIAN_POINT('',(14.676872437345,8.3,48.797906563366));
#159 = CARTESIAN_POINT('',(17.229545357414,8.3,54.404683859674));
#160 = CARTESIAN_POINT('',(20.681572342117,8.3,59.659332802314));
#161 = DEFINITIONAL_REPRESENTATION('',(#162),#165);
#162 = B_SPLINE_CURVE_WITH_KNOTS('',1,(#163,#164),.UNSPECIFIED.,.F.,.F.,
  (2,2),(0.,67.483731248912),.PIECEWISE_BEZIER_KNOTS.);
#163 = CARTESIAN_POINT('',(0.,0.));
#164 = CARTESIAN_POINT('',(0.,67.483731248912));
#165 = ( GEOMETRIC_REPRESENTATION_CONTEXT(2) 
PARAMETRIC_REPRESENTATION_CONTEXT() REPRESENTATION_CONTEXT('2D SPACE',''
  ) );
#166 = ORIENTED_EDGE('',*,*,#167,.F.);
#167 = EDGE_CURVE('',#24,#111,#168,.T.);
#168 = SURFACE_CURVE('',#169,(#172,#178),.PCURVE_S1.);
#169 = B_SPLINE_CURVE_WITH_KNOTS('',1,(#170,#171),.UNSPECIFIED.,.F.,.F.,
  (2,2),(0.,21.3),.PIECEWISE_BEZIER_KNOTS.);
#170 = CARTESIAN_POINT('',(2.936427657883,-8.3,71.440667197686));
#171 = CARTESIAN_POINT('',(20.681572342117,-8.3,59.659332802314));
#172 = PCURVE('',#39,#173);
#173 = DEFINITIONAL_REPRESENTATION('',(#174),#177);
#174 = B_SPLINE_CURVE_WITH_KNOTS('',1,(#175,#176),.UNSPECIFIED.,.F.,.F.,
  (2,2),(0.,21.3),.PIECEWISE_BEZIER_KNOTS.);
#175 = CARTESIAN_POINT('',(-6.084173600749,37.533207989127));
#176 = CARTESIAN_POINT('',(13.297355947034,28.698825589183));
#177 = ( GEOMETRIC_REPRESENTATION_CONTEXT(2) 
PARAMETRIC_REPRESENTATION_CONTEXT() REPRESENTATION_CONTEXT('2D SPACE',''
  ) );
#178 = PCURVE('',#179,#184);
#179 = PLANE('',#180);
#180 = AXIS2_PLACEMENT_3D('',#181,#182,#183);
#181 = CARTESIAN_POINT('',(11.809,-1.687304649562E-15,65.55));
#182 = DIRECTION('',(0.553114290863,7.520844245612E-16,0.833105384236));
#183 = DIRECTION('',(0.833105384236,0.,-0.553114290863));
#184 = DEFINITIONAL_REPRESENTATION('',(#185),#188);
#185 = B_SPLINE_CURVE_WITH_KNOTS('',1,(#186,#187),.UNSPECIFIED.,.F.,.F.,
  (2,2),(0.,21.3),.PIECEWISE_BEZIER_KNOTS.);
#186 = CARTESIAN_POINT('',(-10.65,-8.3));
#187 = CARTESIAN_POINT('',(10.65,-8.3));
#188 = ( GEOMETRIC_REPRESENTATION_CONTEXT(2) 
PARAMETRIC_REPRESENTATION_CONTEXT() REPRESENTATION_CONTEXT('2D SPACE',''
  ) );
#189 = ADVANCED_FACE('',(#190),#140,.T.);
#190 = FACE_BOUND('',#191,.T.);
#191 = EDGE_LOOP('',(#192,#193,#214,#256));
#192 = ORIENTED_EDGE('',*,*,#110,.F.);
#193 = ORIENTED_EDGE('',*,*,#194,.T.);
#194 = EDGE_CURVE('',#86,#195,#197,.T.);
#195 = VERTEX_POINT('',#196);
#196 = CARTESIAN_POINT('',(10.65,8.3,-7.105427357601E-15));
#197 = SURFACE_CURVE('',#198,(#201,#208),.PCURVE_S1.);
#198 = B_SPLINE_CURVE_WITH_KNOTS('',1,(#199,#200),.UNSPECIFIED.,.F.,.F.,
  (2,2),(0.,16.6),.PIECEWISE_BEZIER_KNOTS.);
#199 = CARTESIAN_POINT('',(10.65,-8.3,-7.105427357601E-15));
#200 = CARTESIAN_POINT('',(10.65,8.3,-7.105427357601E-15));
#201 = PCURVE('',#140,#202);
#202 = DEFINITIONAL_REPRESENTATION('',(#203),#207);
#203 = LINE('',#204,#205);
#204 = CARTESIAN_POINT('',(0.,0.));
#205 = VECTOR('',#206,1.);
#206 = DIRECTION('',(1.,0.));
#207 = ( GEOMETRIC_REPRESENTATION_CONTEXT(2) 
PARAMETRIC_REPRESENTATION_CONTEXT() REPRESENTATION_CONTEXT('2D SPACE',''
  ) );
#208 = PCURVE('',#99,#209);
#209 = DEFINITIONAL_REPRESENTATION('',(#210),#213);
#210 = B_SPLINE_CURVE_WITH_KNOTS('',1,(#211,#212),.UNSPECIFIED.,.F.,.F.,
  (2,2),(0.,16.6),.PIECEWISE_BEZIER_KNOTS.);
#211 = CARTESIAN_POINT('',(10.65,-8.3));
#212 = CARTESIAN_POINT('',(10.65,8.3));
#213 = ( GEOMETRIC_REPRESENTATION_CONTEXT(2) 
PARAMETRIC_REPRESENTATION_CONTEXT() REPRESENTATION_CONTEXT('2D SPACE',''
  ) );
#214 = ORIENTED_EDGE('',*,*,#215,.T.);
#215 = EDGE_CURVE('',#195,#216,#218,.T.);
#216 = VERTEX_POINT('',#217);
#217 = CARTESIAN_POINT('',(20.681572342117,8.3,59.659332802314));
#218 = SURFACE_CURVE('',#219,(#230,#237),.PCURVE_S1.);
#219 = B_SPLINE_CURVE_WITH_KNOTS('',9,(#220,#221,#222,#223,#224,#225,
    #226,#227,#228,#229),.UNSPECIFIED.,.F.,.F.,(10,10),(0.,
    67.483731248912),.PIECEWISE_BEZIER_KNOTS.);
#220 = CARTESIAN_POINT('',(10.65,8.3,-7.105427357601E-15));
#221 = CARTESIAN_POINT('',(10.62073906105,8.3,7.469800886345));
#222 = CARTESIAN_POINT('',(10.529754848506,8.3,14.902537534948));
#223 = CARTESIAN_POINT('',(10.551316553521,8.299999999999,
    22.236489369552));
#224 = CARTESIAN_POINT('',(10.849483548489,8.300000000001,
    29.388945232418));
#225 = CARTESIAN_POINT('',(11.54541618961,8.299999999999,36.270059032344
    ));
#226 = CARTESIAN_POINT('',(12.816023697026,8.3,42.778599366599));
#227 = CARTESIAN_POINT('',(14.676872437345,8.3,48.797906563366));
#228 = CARTESIAN_POINT('',(17.229545357414,8.3,54.404683859674));
#229 = CARTESIAN_POINT('',(20.681572342117,8.3,59.659332802314));
#230 = PCURVE('',#140,#231);
#231 = DEFINITIONAL_REPRESENTATION('',(#232),#236);
#232 = LINE('',#233,#234);
#233 = CARTESIAN_POINT('',(16.6,0.));
#234 = VECTOR('',#235,1.);
#235 = DIRECTION('',(0.,1.));
#236 = ( GEOMETRIC_REPRESENTATION_CONTEXT(2) 
PARAMETRIC_REPRESENTATION_CONTEXT() REPRESENTATION_CONTEXT('2D SPACE',''
  ) );
#237 = PCURVE('',#238,#243);
#238 = PLANE('',#239);
#239 = AXIS2_PLACEMENT_3D('',#240,#241,#242);
#240 = CARTESIAN_POINT('',(3.023279092228,8.3,33.417630401719));
#241 = DIRECTION('',(3.750510429202E-17,1.,-9.639970709534E-17));
#242 = DIRECTION('',(-0.987477923819,5.2243215224E-17,0.157757250134));
#243 = DEFINITIONAL_REPRESENTATION('',(#244),#255);
#244 = B_SPLINE_CURVE_WITH_KNOTS('',9,(#245,#246,#247,#248,#249,#250,
    #251,#252,#253,#254),.UNSPECIFIED.,.F.,.F.,(10,10),(0.,
    67.483731248912),.PIECEWISE_BEZIER_KNOTS.);
#245 = CARTESIAN_POINT('',(-12.80309200572,-31.79600177009));
#246 = CARTESIAN_POINT('',(-11.5957822276,-24.42435442476));
#247 = CARTESIAN_POINT('',(-10.33336923164,-17.09904448988));
#248 = CARTESIAN_POINT('',(-9.197676865307,-9.853527443572));
#249 = CARTESIAN_POINT('',(-8.363758421818,-2.743597172695));
#250 = CARTESIAN_POINT('',(-7.965430950453,4.161139215761));
#251 = CARTESIAN_POINT('',(-8.193358388347,10.788626658494));
#252 = CARTESIAN_POINT('',(-9.081316087904,17.026122012175));
#253 = CARTESIAN_POINT('',(-10.71751447482,22.965393476411));
#254 = CARTESIAN_POINT('',(-13.29735594703,28.698825589183));
#255 = ( GEOMETRIC_REPRESENTATION_CONTEXT(2) 
PARAMETRIC_REPRESENTATION_CONTEXT() REPRESENTATION_CONTEXT('2D SPACE',''
  ) );
#256 = ORIENTED_EDGE('',*,*,#257,.F.);
#257 = EDGE_CURVE('',#111,#216,#258,.T.);
#258 = SURFACE_CURVE('',#259,(#262,#269),.PCURVE_S1.);
#259 = B_SPLINE_CURVE_WITH_KNOTS('',1,(#260,#261),.UNSPECIFIED.,.F.,.F.,
  (2,2),(0.,16.6),.PIECEWISE_BEZIER_KNOTS.);
#260 = CARTESIAN_POINT('',(20.681572342117,-8.3,59.659332802314));
#261 = CARTESIAN_POINT('',(20.681572342117,8.3,59.659332802314));
#262 = PCURVE('',#140,#263);
#263 = DEFINITIONAL_REPRESENTATION('',(#264),#268);
#264 = LINE('',#265,#266);
#265 = CARTESIAN_POINT('',(0.,67.483731248912));
#266 = VECTOR('',#267,1.);
#267 = DIRECTION('',(1.,0.));
#268 = ( GEOMETRIC_REPRESENTATION_CONTEXT(2) 
PARAMETRIC_REPRESENTATION_CONTEXT() REPRESENTATION_CONTEXT('2D SPACE',''
  ) );
#269 = PCURVE('',#179,#270);
#270 = DEFINITIONAL_REPRESENTATION('',(#271),#274);
#271 = B_SPLINE_CURVE_WITH_KNOTS('',1,(#272,#273),.UNSPECIFIED.,.F.,.F.,
  (2,2),(0.,16.6),.PIECEWISE_BEZIER_KNOTS.);
#272 = CARTESIAN_POINT('',(10.65,-8.3));
#273 = CARTESIAN_POINT('',(10.65,8.3));
#274 = ( GEOMETRIC_REPRESENTATION_CONTEXT(2) 
PARAMETRIC_REPRESENTATION_CONTEXT() REPRESENTATION_CONTEXT('2D SPACE',''
  ) );
#275 = ADVANCED_FACE('',(#276),#238,.T.);
#276 = FACE_BOUND('',#277,.T.);
#277 = EDGE_LOOP('',(#278,#279,#299,#335));
#278 = ORIENTED_EDGE('',*,*,#215,.F.);
#279 = ORIENTED_EDGE('',*,*,#280,.T.);
#280 = EDGE_CURVE('',#195,#281,#283,.T.);
#281 = VERTEX_POINT('',#282);
#282 = CARTESIAN_POINT('',(-10.65,8.3,0.));
#283 = SURFACE_CURVE('',#284,(#287,#293),.PCURVE_S1.);
#284 = B_SPLINE_CURVE_WITH_KNOTS('',1,(#285,#286),.UNSPECIFIED.,.F.,.F.,
  (2,2),(0.,21.3),.PIECEWISE_BEZIER_KNOTS.);
#285 = CARTESIAN_POINT('',(10.65,8.3,-7.105427357601E-15));
#286 = CARTESIAN_POINT('',(-10.65,8.3,0.));
#287 = PCURVE('',#238,#288);
#288 = DEFINITIONAL_REPRESENTATION('',(#289),#292);
#289 = B_SPLINE_CURVE_WITH_KNOTS('',1,(#290,#291),.UNSPECIFIED.,.F.,.F.,
  (2,2),(0.,21.3),.PIECEWISE_BEZIER_KNOTS.);
#290 = CARTESIAN_POINT('',(-12.80309200572,-31.79600177009));
#291 = CARTESIAN_POINT('',(8.230187771619,-35.15623119795));
#292 = ( GEOMETRIC_REPRESENTATION_CONTEXT(2) 
PARAMETRIC_REPRESENTATION_CONTEXT() REPRESENTATION_CONTEXT('2D SPACE',''
  ) );
#293 = PCURVE('',#99,#294);
#294 = DEFINITIONAL_REPRESENTATION('',(#295),#298);
#295 = B_SPLINE_CURVE_WITH_KNOTS('',1,(#296,#297),.UNSPECIFIED.,.F.,.F.,
  (2,2),(0.,21.3),.PIECEWISE_BEZIER_KNOTS.);
#296 = CARTESIAN_POINT('',(10.65,8.3));
#297 = CARTESIAN_POINT('',(-10.65,8.3));
#298 = ( GEOMETRIC_REPRESENTATION_CONTEXT(2) 
PARAMETRIC_REPRESENTATION_CONTEXT() REPRESENTATION_CONTEXT('2D SPACE',''
  ) );
#299 = ORIENTED_EDGE('',*,*,#300,.T.);
#300 = EDGE_CURVE('',#281,#301,#303,.T.);
#301 = VERTEX_POINT('',#302);
#302 = CARTESIAN_POINT('',(2.936427657883,8.3,71.440667197686));
#303 = SURFACE_CURVE('',#304,(#315,#329),.PCURVE_S1.);
#304 = B_SPLINE_CURVE_WITH_KNOTS('',9,(#305,#306,#307,#308,#309,#310,
    #311,#312,#313,#314),.UNSPECIFIED.,.F.,.F.,(10,10),(0.,
    67.483731248912),.PIECEWISE_BEZIER_KNOTS.);
#305 = CARTESIAN_POINT('',(-10.65,8.3,0.));
#306 = CARTESIAN_POINT('',(-10.67926093895,8.3,7.314923894182));
#307 = CARTESIAN_POINT('',(-10.76897823867,8.3,14.979390960504));
#308 = CARTESIAN_POINT('',(-10.75362152201,8.3,22.897838862561));
#309 = CARTESIAN_POINT('',(-10.45745059304,8.3,30.99569584545));
#310 = CARTESIAN_POINT('',(-9.66182623966,8.3,39.205525087706));
#311 = CARTESIAN_POINT('',(-8.203858113679,8.3,47.47127507941));
#312 = CARTESIAN_POINT('',(-5.759313013402,8.3,55.752322579726));
#313 = CARTESIAN_POINT('',(-2.089974317356,8.3,63.814681438966));
#314 = CARTESIAN_POINT('',(2.936427657883,8.3,71.440667197686));
#315 = PCURVE('',#238,#316);
#316 = DEFINITIONAL_REPRESENTATION('',(#317),#328);
#317 = B_SPLINE_CURVE_WITH_KNOTS('',9,(#318,#319,#320,#321,#322,#323,
    #324,#325,#326,#327),.UNSPECIFIED.,.F.,.F.,(10,10),(0.,
    67.483731248912),.PIECEWISE_BEZIER_KNOTS.);
#318 = CARTESIAN_POINT('',(8.230187771619,-35.15623119795));
#319 = CARTESIAN_POINT('',(9.413064581349,-27.93752146329));
#320 = CARTESIAN_POINT('',(10.710783682339,-20.38318299195));
#321 = CARTESIAN_POINT('',(11.944811830014,-12.56146786437));
#322 = CARTESIAN_POINT('',(12.92984522558,-4.5182897522));
#323 = CARTESIAN_POINT('',(13.439343826287,3.714250892981));
#324 = CARTESIAN_POINT('',(13.303614477237,12.106501575936));
#325 = CARTESIAN_POINT('',(12.196075438812,20.669497881444));
#326 = CARTESIAN_POINT('',(9.84458004468,29.20976405135));
#327 = CARTESIAN_POINT('',(6.084173600749,37.533207989127));
#328 = ( GEOMETRIC_REPRESENTATION_CONTEXT(2) 
PARAMETRIC_REPRESENTATION_CONTEXT() REPRESENTATION_CONTEXT('2D SPACE',''
  ) );
#329 = PCURVE('',#58,#330);
#330 = DEFINITIONAL_REPRESENTATION('',(#331),#334);
#331 = B_SPLINE_CURVE_WITH_KNOTS('',1,(#332,#333),.UNSPECIFIED.,.F.,.F.,
  (2,2),(0.,67.483731248912),.PIECEWISE_BEZIER_KNOTS.);
#332 = CARTESIAN_POINT('',(0.,0.));
#333 = CARTESIAN_POINT('',(0.,67.483731248912));
#334 = ( GEOMETRIC_REPRESENTATION_CONTEXT(2) 
PARAMETRIC_REPRESENTATION_CONTEXT() REPRESENTATION_CONTEXT('2D SPACE',''
  ) );
#335 = ORIENTED_EDGE('',*,*,#336,.F.);
#336 = EDGE_CURVE('',#216,#301,#337,.T.);
#337 = SURFACE_CURVE('',#338,(#341,#347),.PCURVE_S1.);
#338 = B_SPLINE_CURVE_WITH_KNOTS('',1,(#339,#340),.UNSPECIFIED.,.F.,.F.,
  (2,2),(0.,21.3),.PIECEWISE_BEZIER_KNOTS.);
#339 = CARTESIAN_POINT('',(20.681572342117,8.3,59.659332802314));
#340 = CARTESIAN_POINT('',(2.936427657883,8.3,71.440667197686));
#341 = PCURVE('',#238,#342);
#342 = DEFINITIONAL_REPRESENTATION('',(#343),#346);
#343 = B_SPLINE_CURVE_WITH_KNOTS('',1,(#344,#345),.UNSPECIFIED.,.F.,.F.,
  (2,2),(0.,21.3),.PIECEWISE_BEZIER_KNOTS.);
#344 = CARTESIAN_POINT('',(-13.29735594703,28.698825589183));
#345 = CARTESIAN_POINT('',(6.084173600749,37.533207989127));
#346 = ( GEOMETRIC_REPRESENTATION_CONTEXT(2) 
PARAMETRIC_REPRESENTATION_CONTEXT() REPRESENTATION_CONTEXT('2D SPACE',''
  ) );
#347 = PCURVE('',#179,#348);
#348 = DEFINITIONAL_REPRESENTATION('',(#349),#352);
#349 = B_SPLINE_CURVE_WITH_KNOTS('',1,(#350,#351),.UNSPECIFIED.,.F.,.F.,
  (2,2),(0.,21.3),.PIECEWISE_BEZIER_KNOTS.);
#350 = CARTESIAN_POINT('',(10.65,8.3));
#351 = CARTESIAN_POINT('',(-10.65,8.3));
#352 = ( GEOMETRIC_REPRESENTATION_CONTEXT(2) 
PARAMETRIC_REPRESENTATION_CONTEXT() REPRESENTATION_CONTEXT('2D SPACE',''
  ) );
#353 = ADVANCED_FACE('',(#354),#58,.T.);
#354 = FACE_BOUND('',#355,.T.);
#355 = EDGE_LOOP('',(#356,#357,#376,#377));
#356 = ORIENTED_EDGE('',*,*,#300,.F.);
#357 = ORIENTED_EDGE('',*,*,#358,.T.);
#358 = EDGE_CURVE('',#281,#22,#359,.T.);
#359 = SURFACE_CURVE('',#360,(#363,#370),.PCURVE_S1.);
#360 = B_SPLINE_CURVE_WITH_KNOTS('',1,(#361,#362),.UNSPECIFIED.,.F.,.F.,
  (2,2),(0.,16.6),.PIECEWISE_BEZIER_KNOTS.);
#361 = CARTESIAN_POINT('',(-10.65,8.3,0.));
#362 = CARTESIAN_POINT('',(-10.65,-8.3,-7.105427357601E-15));
#363 = PCURVE('',#58,#364);
#364 = DEFINITIONAL_REPRESENTATION('',(#365),#369);
#365 = LINE('',#366,#367);
#366 = CARTESIAN_POINT('',(0.,0.));
#367 = VECTOR('',#368,1.);
#368 = DIRECTION('',(1.,0.));
#369 = ( GEOMETRIC_REPRESENTATION_CONTEXT(2) 
PARAMETRIC_REPRESENTATION_CONTEXT() REPRESENTATION_CONTEXT('2D SPACE',''
  ) );
#370 = PCURVE('',#99,#371);
#371 = DEFINITIONAL_REPRESENTATION('',(#372),#375);
#372 = B_SPLINE_CURVE_WITH_KNOTS('',1,(#373,#374),.UNSPECIFIED.,.F.,.F.,
  (2,2),(0.,16.6),.PIECEWISE_BEZIER_KNOTS.);
#373 = CARTESIAN_POINT('',(-10.65,8.3));
#374 = CARTESIAN_POINT('',(-10.65,-8.3));
#375 = ( GEOMETRIC_REPRESENTATION_CONTEXT(2) 
PARAMETRIC_REPRESENTATION_CONTEXT() REPRESENTATION_CONTEXT('2D SPACE',''
  ) );
#376 = ORIENTED_EDGE('',*,*,#21,.T.);
#377 = ORIENTED_EDGE('',*,*,#378,.F.);
#378 = EDGE_CURVE('',#301,#24,#379,.T.);
#379 = SURFACE_CURVE('',#380,(#383,#390),.PCURVE_S1.);
#380 = B_SPLINE_CURVE_WITH_KNOTS('',1,(#381,#382),.UNSPECIFIED.,.F.,.F.,
  (2,2),(0.,16.6),.PIECEWISE_BEZIER_KNOTS.);
#381 = CARTESIAN_POINT('',(2.936427657883,8.3,71.440667197686));
#382 = CARTESIAN_POINT('',(2.936427657883,-8.3,71.440667197686));
#383 = PCURVE('',#58,#384);
#384 = DEFINITIONAL_REPRESENTATION('',(#385),#389);
#385 = LINE('',#386,#387);
#386 = CARTESIAN_POINT('',(0.,67.483731248912));
#387 = VECTOR('',#388,1.);
#388 = DIRECTION('',(1.,0.));
#389 = ( GEOMETRIC_REPRESENTATION_CONTEXT(2) 
PARAMETRIC_REPRESENTATION_CONTEXT() REPRESENTATION_CONTEXT('2D SPACE',''
  ) );
#390 = PCURVE('',#179,#391);
#391 = DEFINITIONAL_REPRESENTATION('',(#392),#395);
#392 = B_SPLINE_CURVE_WITH_KNOTS('',1,(#393,#394),.UNSPECIFIED.,.F.,.F.,
  (2,2),(0.,16.6),.PIECEWISE_BEZIER_KNOTS.);
#393 = CARTESIAN_POINT('',(-10.65,8.3));
#394 = CARTESIAN_POINT('',(-10.65,-8.3));
#395 = ( GEOMETRIC_REPRESENTATION_CONTEXT(2) 
PARAMETRIC_REPRESENTATION_CONTEXT() REPRESENTATION_CONTEXT('2D SPACE',''
  ) );
#396 = ADVANCED_FACE('',(#397),#99,.F.);
#397 = FACE_BOUND('',#398,.F.);
#398 = EDGE_LOOP('',(#399,#400,#401,#402));
#399 = ORIENTED_EDGE('',*,*,#85,.T.);
#400 = ORIENTED_EDGE('',*,*,#194,.T.);
#401 = ORIENTED_EDGE('',*,*,#280,.T.);
#402 = ORIENTED_EDGE('',*,*,#358,.T.);
#403 = ADVANCED_FACE('',(#404),#179,.T.);
#404 = FACE_BOUND('',#405,.T.);
#405 = EDGE_LOOP('',(#406,#407,#408,#409));
#406 = ORIENTED_EDGE('',*,*,#167,.T.);
#407 = ORIENTED_EDGE('',*,*,#257,.T.);
#408 = ORIENTED_EDGE('',*,*,#336,.T.);
#409 = ORIENTED_EDGE('',*,*,#378,.T.);
#410 = ( GEOMETRIC_REPRESENTATION_CONTEXT(3) 
GLOBAL_UNCERTAINTY_ASSIGNED_CONTEXT((#414)) GLOBAL_UNIT_ASSIGNED_CONTEXT
((#411,#412,#413)) REPRESENTATION_CONTEXT('Context #1',
  '3D Context with UNIT and UNCERTAINTY') );
#411 = ( LENGTH_UNIT() NAMED_UNIT(*) SI_UNIT(.MILLI.,.METRE.) );
#412 = ( NAMED_UNIT(*) PLANE_ANGLE_UNIT() SI_UNIT($,.RADIAN.) );
#413 = ( NAMED_UNIT(*) SI_UNIT($,.STERADIAN.) SOLID_ANGLE_UNIT() );
#414 = UNCERTAINTY_MEASURE_WITH_UNIT(LENGTH_MEASURE(2.E-05),#411,
  'distance_accuracy_value','confusion accuracy');
#415 = PRODUCT_RELATED_PRODUCT_CATEGORY('part',$,(#7));
ENDSEC;
END-ISO-10303-21;
