ISO-10303-21;
HEADER;
FILE_DESCRIPTION(('Open CASCADE Model'),'2;1');
FILE_NAME('Open CASCADE Shape Model','2026-06-10T00:30:28',('Author'),(
    'Open CASCADE'),'Open CASCADE STEP processor 7.8','Open CASCADE 7.8'
  ,'Unknown');
FILE_SCHEMA(('AUTOMOTIVE_DESIGN { 1 0 10303 214 1 1 1 1 }'));
ENDSEC;
DATA;
#1 = APPLICATION_PROTOCOL_DEFINITION('international standard',
  'automotive_design',2000,#2);
#2 = APPLICATION_CONTEXT(
  'core data for automotive mechanical design processes');
#3 = SHAPE_DEFINITION_REPRESENTATION(#4,#10);
#4 = PRODUCT_DEFINITION_SHAPE('','',#5);
#5 = PRODUCT_DEFINITION('design','',#6,#9);
#6 = PRODUCT_DEFINITION_FORMATION('','',#7);
#7 = PRODUCT('Open CASCADE STEP translator 7.8 27',
  'Open CASCADE STEP translator 7.8 27','',(#8));
#8 = PRODUCT_CONTEXT('',#2,'mechanical');
#9 = PRODUCT_DEFINITION_CONTEXT('part definition',#2,'design');
#10 = ADVANCED_BREP_SHAPE_REPRESENTATION('',(#11,#15),#487);
#11 = AXIS2_PLACEMENT_3D('',#12,#13,#14);
#12 = CARTESIAN_POINT('',(0.,0.,0.));
#13 = DIRECTION('',(0.,0.,1.));
#14 = DIRECTION('',(1.,0.,-0.));
#15 = MANIFOLD_SOLID_BREP('',#16);
#16 = CLOSED_SHELL('',(#17,#479,#483));
#17 = ADVANCED_FACE('',(#18),#75,.T.);
#18 = FACE_BOUND('',#19,.T.);
#19 = EDGE_LOOP('',(#20,#410,#444,#445));
#20 = ORIENTED_EDGE('',*,*,#21,.T.);
#21 = EDGE_CURVE('',#22,#24,#26,.T.);
#22 = VERTEX_POINT('',#23);
#23 = CARTESIAN_POINT('',(4.2,-5.134781488891E-16,1.42108547152E-14));
#24 = VERTEX_POINT('',#25);
#25 = CARTESIAN_POINT('',(82.901668881069,-1.512678871052E-15,
    108.03649760491));
#26 = SEAM_CURVE('',#27,(#74,#403),.PCURVE_S1.);
#27 = ( BOUNDED_CURVE() B_SPLINE_CURVE(10,(#28,#29,#30,#31,#32,#33,#34,
    #35,#36,#37,#38,#39,#40,#41,#42,#43,#44,#45,#46,#47,#48,#49,#50,#51,
    #52,#53,#54,#55,#56,#57,#58,#59,#60,#61,#62,#63,#64,#65,#66,#67,#68,
    #69,#70,#71,#72,#73),.UNSPECIFIED.,.F.,.F.) 
B_SPLINE_CURVE_WITH_KNOTS((11,9,9,8,9,11),(0.,59.702260813557,
    92.49399931962,98.657964903892,110.77017469221,134.52098428368),
.UNSPECIFIED.) CURVE() GEOMETRIC_REPRESENTATION_ITEM() 
RATIONAL_B_SPLINE_CURVE((1.669078461068,1.669078461068,1.669078461068,
    1.669078461069,1.669078461068,1.669078461069,1.669078461068,
    1.669078461069,1.669078461068,1.669078461068,1.669078461068,
    1.669078461068,1.669078461068,1.669078461069,1.669078461068,
    1.669078461068,1.669078461068,1.669078461068,1.669078461068,
    1.669078461068,1.669078461068,1.669078461068,1.669078461068,
    1.669078461069,1.669078461068,1.669078461068,1.669078461068,
    1.669078461068,1.669078461068,1.669078461068,1.669078461068,
    1.669078461068,1.669078461068,1.669078461068,1.669078461068,
    1.669078461068,1.669078461068,1.669078461068,1.669078461069,
    1.669078461067,1.66907846107,1.669078461067,1.669078461069,
1.669078461068,1.669078461068,1.669078461068)) REPRESENTATION_ITEM('') 
  );
#28 = CARTESIAN_POINT('',(4.2,-5.134781488891E-16,1.42108547152E-14));
#29 = CARTESIAN_POINT('',(7.742318029758,-1.929012505286E-15,
    4.647760837577));
#30 = CARTESIAN_POINT('',(11.259183837431,5.537237335318E-15,
    9.381466298923));
#31 = CARTESIAN_POINT('',(14.761415365259,-1.454392162259E-14,
    14.181543034504));
#32 = CARTESIAN_POINT('',(18.259591319699,2.099709295322E-14,
    19.02826300466));
#33 = CARTESIAN_POINT('',(21.764107741243,-2.448041769298E-14,
    23.901730615333));
#34 = CARTESIAN_POINT('',(25.285215447848,1.7763568394E-14,
    28.781879030711));
#35 = CARTESIAN_POINT('',(28.833038351759,-1.179611963664E-14,
    33.648475662582));
#36 = CARTESIAN_POINT('',(32.417572650079,3.025357742104E-15,
    38.48113683675));
#37 = CARTESIAN_POINT('',(36.04866688866,-1.956768080902E-15,
    43.25935163608));
#38 = CARTESIAN_POINT('',(41.761258002797,-8.326672684689E-16,
    50.545748762557));
#39 = CARTESIAN_POINT('',(43.80344662919,-1.124100812433E-15,
    53.089697968552));
#40 = CARTESIAN_POINT('',(45.876394792588,-1.471045507628E-15,
    55.580475918688));
#41 = CARTESIAN_POINT('',(47.993492798429,-7.49400541622E-16,
    58.004208301866));
#42 = CARTESIAN_POINT('',(50.16763265301,-4.857225732735E-16,
    60.346945458417));
#43 = CARTESIAN_POINT('',(52.411156661806,-3.053113317719E-15,
    62.594907829936));
#44 = CARTESIAN_POINT('',(54.735885069338,1.151856388049E-15,
    64.734900012876));
#45 = CARTESIAN_POINT('',(57.153310593408,-2.817190924986E-15,
    66.754728912219));
#46 = CARTESIAN_POINT('',(59.675047706017,-2.636779683485E-16,
    68.643461491903));
#47 = CARTESIAN_POINT('',(62.809606043688,-1.595945597899E-15,
    70.719915116582));
#48 = CARTESIAN_POINT('',(63.311151925537,2.900457651833E-15,
    71.048322960897));
#49 = CARTESIAN_POINT('',(63.817738743937,-1.211530875622E-14,
    71.377004926058));
#50 = CARTESIAN_POINT('',(64.328820124726,1.744437927442E-14,
    71.706395711049));
#51 = CARTESIAN_POINT('',(64.843828409328,-2.321753900247E-14,
    72.036942766739));
#52 = CARTESIAN_POINT('',(65.362176329328,1.755540157689E-14,
    72.369108123874));
#53 = CARTESIAN_POINT('',(65.88325868082,-1.17128529098E-14,
    72.703370220692));
#54 = CARTESIAN_POINT('',(66.406453998999,2.081668171172E-15,
    73.040225730939));
#55 = CARTESIAN_POINT('',(67.96210865383,-6.508682481865E-15,
    74.048224875192));
#56 = CARTESIAN_POINT('',(69.525042035296,4.871103520543E-15,
    75.088301312484));
#57 = CARTESIAN_POINT('',(70.559119852378,-1.791622405989E-14,
    75.795757721751));
#58 = CARTESIAN_POINT('',(71.586286576887,2.500777362968E-14,
    76.525760459133));
#59 = CARTESIAN_POINT('',(72.601161151432,-3.12527781432E-14,
    77.282981434038));
#60 = CARTESIAN_POINT('',(73.598086161394,2.216282712908E-14,
    78.072386532165));
#61 = CARTESIAN_POINT('',(74.570975920598,-1.471045507628E-14,
    78.899193365937));
#62 = CARTESIAN_POINT('',(75.513153412051,3.289035710452E-15,
    79.768715424137));
#63 = CARTESIAN_POINT('',(76.417238910211,-2.206568261442E-15,
    80.686025393851));
#64 = CARTESIAN_POINT('',(78.957435471625,-1.318389841742E-15,
    83.556157296986));
#65 = CARTESIAN_POINT('',(80.45689223035,-3.885780586188E-16,
    85.621107423358));
#66 = CARTESIAN_POINT('',(81.741757493515,-4.76008121808E-15,
    87.862167076632));
#67 = CARTESIAN_POINT('',(82.778426818601,3.524958103185E-15,
    90.281832049754));
#68 = CARTESIAN_POINT('',(83.533623907167,-6.328271240363E-15,
    92.878901529076));
#69 = CARTESIAN_POINT('',(83.982835924628,1.151856388049E-15,
    95.614899635969));
#70 = CARTESIAN_POINT('',(84.147631651194,-2.012279232133E-15,
    98.483898121333));
#71 = CARTESIAN_POINT('',(84.025113903041,-1.734723475977E-15,
    101.49823674341));
#72 = CARTESIAN_POINT('',(83.613009818014,-1.387778780781E-15,
    104.67537511409));
#73 = CARTESIAN_POINT('',(82.901668881069,-1.512678871052E-15,
    108.03649760491));
#74 = PCURVE('',#75,#398);
#75 = ( BOUNDED_SURFACE() B_SPLINE_SURFACE(6,10,(
    (#76,#77,#78,#79,#80,#81,#82,#83,#84,#85,#86,#87,#88,#89,#90,#91,#92
      ,#93,#94,#95,#96,#97,#98,#99,#100,#101,#102,#103,#104,#105,#106
      ,#107,#108,#109,#110,#111,#112,#113,#114,#115,#116,#117,#118,#119
      ,#120,#121)
    ,(#122,#123,#124,#125,#126,#127,#128,#129,#130,#131,#132,#133,#134
      ,#135,#136,#137,#138,#139,#140,#141,#142,#143,#144,#145,#146,#147
      ,#148,#149,#150,#151,#152,#153,#154,#155,#156,#157,#158,#159,#160
      ,#161,#162,#163,#164,#165,#166,#167)
    ,(#168,#169,#170,#171,#172,#173,#174,#175,#176,#177,#178,#179,#180
      ,#181,#182,#183,#184,#185,#186,#187,#188,#189,#190,#191,#192,#193
      ,#194,#195,#196,#197,#198,#199,#200,#201,#202,#203,#204,#205,#206
      ,#207,#208,#209,#210,#211,#212,#213)
    ,(#214,#215,#216,#217,#218,#219,#220,#221,#222,#223,#224,#225,#226
      ,#227,#228,#229,#230,#231,#232,#233,#234,#235,#236,#237,#238,#239
      ,#240,#241,#242,#243,#244,#245,#246,#247,#248,#249,#250,#251,#252
      ,#253,#254,#255,#256,#257,#258,#259)
    ,(#260,#261,#262,#263,#264,#265,#266,#267,#268,#269,#270,#271,#272
      ,#273,#274,#275,#276,#277,#278,#279,#280,#281,#282,#283,#284,#285
      ,#286,#287,#288,#289,#290,#291,#292,#293,#294,#295,#296,#297,#298
      ,#299,#300,#301,#302,#303,#304,#305)
    ,(#306,#307,#308,#309,#310,#311,#312,#313,#314,#315,#316,#317,#318
      ,#319,#320,#321,#322,#323,#324,#325,#326,#327,#328,#329,#330,#331
      ,#332,#333,#334,#335,#336,#337,#338,#339,#340,#341,#342,#343,#344
      ,#345,#346,#347,#348,#349,#350,#351)
    ,(#352,#353,#354,#355,#356,#357,#358,#359,#360,#361,#362,#363,#364
      ,#365,#366,#367,#368,#369,#370,#371,#372,#373,#374,#375,#376,#377
      ,#378,#379,#380,#381,#382,#383,#384,#385,#386,#387,#388,#389,#390
      ,#391,#392,#393,#394,#395,#396,#397
)),.UNSPECIFIED.,.T.,.F.,.F.) B_SPLINE_SURFACE_WITH_KNOTS((1,6,6,1),(11,
    9,9,8,9,11),(-6.28318530718,0.,6.28318530718,12.566370614359),(0.,
    59.702260813557,92.49399931962,98.657964903892,110.77017469221,
134.52098428368),.UNSPECIFIED.) GEOMETRIC_REPRESENTATION_ITEM() 
RATIONAL_B_SPLINE_SURFACE((
    (1.669078461068,1.669078461068,1.669078461068,1.669078461069
      ,1.669078461068,1.669078461069,1.669078461068,1.669078461069
      ,1.669078461068,1.669078461068,1.669078461068,1.669078461068
      ,1.669078461068,1.669078461069,1.669078461068,1.669078461068
      ,1.669078461068,1.669078461068,1.669078461068,1.669078461068
      ,1.669078461068,1.669078461068,1.669078461068,1.669078461069
      ,1.669078461068,1.669078461068,1.669078461068,1.669078461068
      ,1.669078461068,1.669078461068,1.669078461068,1.669078461068
      ,1.669078461068,1.669078461068,1.669078461068,1.669078461068
      ,1.669078461068,1.669078461068,1.669078461069,1.669078461067
      ,1.66907846107,1.669078461067,1.669078461069,1.669078461068
      ,1.669078461068,1.669078461068)
    ,(1.03672962321,1.03672962321,1.036729623209,1.03672962321
      ,1.036729623209,1.03672962321,1.036729623209,1.03672962321
      ,1.036729623209,1.03672962321,1.03672962321,1.03672962321
      ,1.036729623209,1.03672962321,1.036729623209,1.03672962321
      ,1.036729623209,1.03672962321,1.03672962321,1.03672962321
      ,1.03672962321,1.03672962321,1.03672962321,1.03672962321
      ,1.03672962321,1.03672962321,1.03672962321,1.03672962321
      ,1.03672962321,1.03672962321,1.03672962321,1.03672962321
      ,1.03672962321,1.03672962321,1.03672962321,1.03672962321
      ,1.03672962321,1.036729623209,1.03672962321,1.036729623209
      ,1.03672962321,1.036729623209,1.03672962321,1.03672962321
      ,1.03672962321,1.03672962321)
    ,(1.038346699848,1.038346699848,1.038346699847,1.038346699848
      ,1.038346699847,1.038346699848,1.038346699847,1.038346699848
      ,1.038346699847,1.038346699848,1.038346699847,1.038346699848
      ,1.038346699847,1.038346699848,1.038346699847,1.038346699848
      ,1.038346699847,1.038346699848,1.038346699847,1.038346699848
      ,1.038346699847,1.038346699848,1.038346699847,1.038346699848
      ,1.038346699847,1.038346699847,1.038346699848,1.038346699848
      ,1.038346699847,1.038346699848,1.038346699847,1.038346699848
      ,1.038346699847,1.038346699848,1.038346699847,1.038346699848
      ,1.038346699848,1.038346699847,1.038346699848,1.038346699847
      ,1.038346699848,1.038346699847,1.038346699848,1.038346699847
      ,1.038346699848,1.038346699848)
    ,(0.853534330196,0.853534330196,0.853534330196,0.853534330196
      ,0.853534330196,0.853534330197,0.853534330196,0.853534330196
      ,0.853534330196,0.853534330196,0.853534330196,0.853534330196
      ,0.853534330196,0.853534330196,0.853534330196,0.853534330196
      ,0.853534330196,0.853534330196,0.853534330196,0.853534330196
      ,0.853534330196,0.853534330196,0.853534330196,0.853534330196
      ,0.853534330196,0.853534330196,0.853534330196,0.853534330196
      ,0.853534330196,0.853534330196,0.853534330196,0.853534330196
      ,0.853534330196,0.853534330196,0.853534330196,0.853534330196
      ,0.853534330196,0.853534330196,0.853534330196,0.853534330196
      ,0.853534330197,0.853534330196,0.853534330196,0.853534330196
      ,0.853534330196,0.853534330196)
    ,(1.038346699848,1.038346699848,1.038346699847,1.038346699848
      ,1.038346699847,1.038346699848,1.038346699847,1.038346699848
      ,1.038346699847,1.038346699848,1.038346699847,1.038346699848
      ,1.038346699847,1.038346699848,1.038346699847,1.038346699848
      ,1.038346699847,1.038346699848,1.038346699847,1.038346699848
      ,1.038346699847,1.038346699848,1.038346699847,1.038346699848
      ,1.038346699848,1.038346699847,1.038346699848,1.038346699848
      ,1.038346699847,1.038346699848,1.038346699847,1.038346699848
      ,1.038346699847,1.038346699848,1.038346699847,1.038346699848
      ,1.038346699848,1.038346699847,1.038346699848,1.038346699847
      ,1.038346699848,1.038346699847,1.038346699848,1.038346699847
      ,1.038346699848,1.038346699848)
    ,(1.03672962321,1.03672962321,1.036729623209,1.03672962321
      ,1.036729623209,1.03672962321,1.036729623209,1.03672962321
      ,1.03672962321,1.03672962321,1.03672962321,1.03672962321
      ,1.036729623209,1.03672962321,1.036729623209,1.03672962321
      ,1.036729623209,1.03672962321,1.03672962321,1.03672962321
      ,1.03672962321,1.03672962321,1.036729623209,1.03672962321
      ,1.03672962321,1.03672962321,1.03672962321,1.03672962321
      ,1.03672962321,1.03672962321,1.03672962321,1.03672962321
      ,1.03672962321,1.03672962321,1.03672962321,1.03672962321
      ,1.03672962321,1.036729623209,1.03672962321,1.036729623209
      ,1.03672962321,1.036729623209,1.03672962321,1.03672962321
      ,1.03672962321,1.03672962321)
    ,(1.669078461068,1.669078461068,1.669078461068,1.669078461069
      ,1.669078461068,1.669078461069,1.669078461068,1.669078461069
      ,1.669078461068,1.669078461068,1.669078461068,1.669078461068
      ,1.669078461068,1.669078461069,1.669078461068,1.669078461068
      ,1.669078461068,1.669078461068,1.669078461068,1.669078461068
      ,1.669078461068,1.669078461068,1.669078461068,1.669078461069
      ,1.669078461068,1.669078461068,1.669078461068,1.669078461068
      ,1.669078461068,1.669078461068,1.669078461068,1.669078461068
      ,1.669078461068,1.669078461068,1.669078461068,1.669078461068
      ,1.669078461068,1.669078461068,1.669078461069,1.669078461067
      ,1.66907846107,1.669078461067,1.669078461069,1.669078461068
,1.669078461068,1.669078461068))) REPRESENTATION_ITEM('') SURFACE() );
#76 = CARTESIAN_POINT('',(4.2,-5.134781488891E-16,1.42108547152E-14));
#77 = CARTESIAN_POINT('',(7.742318029758,-1.929012505286E-15,
    4.647760837577));
#78 = CARTESIAN_POINT('',(11.259183837431,5.537237335318E-15,
    9.381466298923));
#79 = CARTESIAN_POINT('',(14.761415365259,-1.454392162259E-14,
    14.181543034504));
#80 = CARTESIAN_POINT('',(18.259591319699,2.099709295322E-14,
    19.02826300466));
#81 = CARTESIAN_POINT('',(21.764107741243,-2.448041769298E-14,
    23.901730615333));
#82 = CARTESIAN_POINT('',(25.285215447848,1.7763568394E-14,
    28.781879030711));
#83 = CARTESIAN_POINT('',(28.833038351759,-1.179611963664E-14,
    33.648475662582));
#84 = CARTESIAN_POINT('',(32.417572650079,3.025357742104E-15,
    38.48113683675));
#85 = CARTESIAN_POINT('',(36.04866688866,-1.956768080902E-15,
    43.25935163608));
#86 = CARTESIAN_POINT('',(41.761258002797,-8.326672684689E-16,
    50.545748762557));
#87 = CARTESIAN_POINT('',(43.80344662919,-1.124100812433E-15,
    53.089697968552));
#88 = CARTESIAN_POINT('',(45.876394792588,-1.471045507628E-15,
    55.580475918688));
#89 = CARTESIAN_POINT('',(47.993492798429,-7.49400541622E-16,
    58.004208301866));
#90 = CARTESIAN_POINT('',(50.16763265301,-4.857225732735E-16,
    60.346945458417));
#91 = CARTESIAN_POINT('',(52.411156661806,-3.053113317719E-15,
    62.594907829936));
#92 = CARTESIAN_POINT('',(54.735885069338,1.151856388049E-15,
    64.734900012876));
#93 = CARTESIAN_POINT('',(57.153310593408,-2.817190924986E-15,
    66.754728912219));
#94 = CARTESIAN_POINT('',(59.675047706017,-2.636779683485E-16,
    68.643461491903));
#95 = CARTESIAN_POINT('',(62.809606043688,-1.595945597899E-15,
    70.719915116582));
#96 = CARTESIAN_POINT('',(63.311151925537,2.900457651833E-15,
    71.048322960897));
#97 = CARTESIAN_POINT('',(63.817738743937,-1.211530875622E-14,
    71.377004926058));
#98 = CARTESIAN_POINT('',(64.328820124726,1.744437927442E-14,
    71.706395711049));
#99 = CARTESIAN_POINT('',(64.843828409328,-2.321753900247E-14,
    72.036942766739));
#100 = CARTESIAN_POINT('',(65.362176329328,1.755540157689E-14,
    72.369108123874));
#101 = CARTESIAN_POINT('',(65.88325868082,-1.17128529098E-14,
    72.703370220692));
#102 = CARTESIAN_POINT('',(66.406453998999,2.081668171172E-15,
    73.040225730939));
#103 = CARTESIAN_POINT('',(67.96210865383,-6.508682481865E-15,
    74.048224875192));
#104 = CARTESIAN_POINT('',(69.525042035296,4.871103520543E-15,
    75.088301312484));
#105 = CARTESIAN_POINT('',(70.559119852378,-1.791622405989E-14,
    75.795757721751));
#106 = CARTESIAN_POINT('',(71.586286576887,2.500777362968E-14,
    76.525760459133));
#107 = CARTESIAN_POINT('',(72.601161151432,-3.12527781432E-14,
    77.282981434038));
#108 = CARTESIAN_POINT('',(73.598086161394,2.216282712908E-14,
    78.072386532165));
#109 = CARTESIAN_POINT('',(74.570975920598,-1.471045507628E-14,
    78.899193365937));
#110 = CARTESIAN_POINT('',(75.513153412051,3.289035710452E-15,
    79.768715424137));
#111 = CARTESIAN_POINT('',(76.417238910211,-2.206568261442E-15,
    80.686025393851));
#112 = CARTESIAN_POINT('',(78.957435471625,-1.318389841742E-15,
    83.556157296986));
#113 = CARTESIAN_POINT('',(80.45689223035,-3.885780586188E-16,
    85.621107423358));
#114 = CARTESIAN_POINT('',(81.741757493515,-4.76008121808E-15,
    87.862167076632));
#115 = CARTESIAN_POINT('',(82.778426818601,3.524958103185E-15,
    90.281832049754));
#116 = CARTESIAN_POINT('',(83.533623907167,-6.328271240363E-15,
    92.878901529076));
#117 = CARTESIAN_POINT('',(83.982835924628,1.151856388049E-15,
    95.614899635969));
#118 = CARTESIAN_POINT('',(84.147631651194,-2.012279232133E-15,
    98.483898121333));
#119 = CARTESIAN_POINT('',(84.025113903041,-1.734723475977E-15,
    101.49823674341));
#120 = CARTESIAN_POINT('',(83.613009818014,-1.387778780781E-15,
    104.67537511409));
#121 = CARTESIAN_POINT('',(82.901668881069,-1.512678871052E-15,
    108.03649760491));
#122 = CARTESIAN_POINT('',(4.2,6.978480917398,0.));
#123 = CARTESIAN_POINT('',(7.742318029758,6.978480917398,4.647760837578)
  );
#124 = CARTESIAN_POINT('',(11.25918383743,6.978480917399,9.381466298919)
  );
#125 = CARTESIAN_POINT('',(14.761415365263,6.978480917398,
    14.181543034511));
#126 = CARTESIAN_POINT('',(18.259591319693,6.9784809174,19.028263004649)
  );
#127 = CARTESIAN_POINT('',(21.76410774125,6.978480917397,23.901730615344
    ));
#128 = CARTESIAN_POINT('',(25.285215447843,6.9784809174,28.781879030702)
  );
#129 = CARTESIAN_POINT('',(28.833038351763,6.978480917398,
    33.648475662586));
#130 = CARTESIAN_POINT('',(32.417572650078,6.978480917399,
    38.481136836748));
#131 = CARTESIAN_POINT('',(36.04866688866,6.978480917398,43.259351636081
    ));
#132 = CARTESIAN_POINT('',(41.761258002797,6.978480917399,
    50.545748762557));
#133 = CARTESIAN_POINT('',(43.80344662919,6.978480917398,53.089697968552
    ));
#134 = CARTESIAN_POINT('',(45.87639479259,6.978480917399,55.580475918688
    ));
#135 = CARTESIAN_POINT('',(47.993492798426,6.978480917398,
    58.004208301866));
#136 = CARTESIAN_POINT('',(50.167632653014,6.9784809174,60.346945458417)
  );
#137 = CARTESIAN_POINT('',(52.411156661802,6.978480917398,
    62.594907829936));
#138 = CARTESIAN_POINT('',(54.73588506934,6.978480917399,64.734900012876
    ));
#139 = CARTESIAN_POINT('',(57.153310593407,6.978480917398,
    66.754728912219));
#140 = CARTESIAN_POINT('',(59.675047706018,6.978480917399,
    68.643461491903));
#141 = CARTESIAN_POINT('',(62.809606043688,6.978480917398,
    70.719915116582));
#142 = CARTESIAN_POINT('',(63.311151925535,6.978480917399,
    71.048322960895));
#143 = CARTESIAN_POINT('',(63.817738743941,6.978480917398,
    71.377004926061));
#144 = CARTESIAN_POINT('',(64.32882012472,6.978480917399,71.706395711044
    ));
#145 = CARTESIAN_POINT('',(64.843828409335,6.978480917398,
    72.036942766744));
#146 = CARTESIAN_POINT('',(65.362176329322,6.978480917399,
    72.369108123871));
#147 = CARTESIAN_POINT('',(65.883258680824,6.978480917398,
    72.703370220693));
#148 = CARTESIAN_POINT('',(66.406453998998,6.978480917398,
    73.040225730939));
#149 = CARTESIAN_POINT('',(67.962108653831,6.978480917398,
    74.048224875192));
#150 = CARTESIAN_POINT('',(69.525042035294,6.978480917398,
    75.088301312485));
#151 = CARTESIAN_POINT('',(70.559119852383,6.978480917399,
    75.795757721748));
#152 = CARTESIAN_POINT('',(71.586286576879,6.978480917398,
    76.525760459138));
#153 = CARTESIAN_POINT('',(72.601161151442,6.978480917399,
    77.282981434033));
#154 = CARTESIAN_POINT('',(73.598086161384,6.978480917398,78.07238653217
    ));
#155 = CARTESIAN_POINT('',(74.570975920605,6.978480917399,
    78.899193365935));
#156 = CARTESIAN_POINT('',(75.513153412048,6.978480917398,
    79.768715424138));
#157 = CARTESIAN_POINT('',(76.417238910211,6.978480917398,
    80.686025393851));
#158 = CARTESIAN_POINT('',(78.957435471626,6.978480917398,
    83.556157296987));
#159 = CARTESIAN_POINT('',(80.456892230346,6.978480917398,
    85.621107423355));
#160 = CARTESIAN_POINT('',(81.741757493525,6.978480917399,
    87.862167076641));
#161 = CARTESIAN_POINT('',(82.778426818585,6.978480917397,
    90.281832049739));
#162 = CARTESIAN_POINT('',(83.533623907186,6.978480917401,
    92.878901529096));
#163 = CARTESIAN_POINT('',(83.982835924614,6.978480917396,
    95.614899635951));
#164 = CARTESIAN_POINT('',(84.147631651201,6.9784809174,98.483898121345)
  );
#165 = CARTESIAN_POINT('',(84.025113903038,6.978480917398,
    101.49823674341));
#166 = CARTESIAN_POINT('',(83.613009818015,6.978480917399,
    104.67537511409));
#167 = CARTESIAN_POINT('',(82.901668881069,6.978480917398,
    108.03649760491));
#168 = CARTESIAN_POINT('',(-4.429102400302,7.980472009632,0.));
#169 = CARTESIAN_POINT('',(-0.886784370545,7.980472009632,4.540699076694
    ));
#170 = CARTESIAN_POINT('',(2.631557349702,7.980472009632,9.194036277281)
  );
#171 = CARTESIAN_POINT('',(6.135502670743,7.980472009631,13.938976511885
    ));
#172 = CARTESIAN_POINT('',(9.634883788574,7.980472009632,18.754647818836
    ));
#173 = CARTESIAN_POINT('',(13.139725529179,7.980472009631,23.6203549306)
  );
#174 = CARTESIAN_POINT('',(16.660205862829,7.980472009632,28.51558316243
    ));
#175 = CARTESIAN_POINT('',(20.206636587829,7.980472009631,
    33.419992623328));
#176 = CARTESIAN_POINT('',(23.789464184404,7.980472009632,38.31340274989
    ));
#177 = CARTESIAN_POINT('',(27.419290838031,7.980472009631,
    43.175767162418));
#178 = CARTESIAN_POINT('',(33.132360336711,7.980472009632,
    50.629806640352));
#179 = CARTESIAN_POINT('',(35.175291699666,7.980472009631,
    53.274641822236));
#180 = CARTESIAN_POINT('',(37.250638484114,7.980472009632,
    55.908086095848));
#181 = CARTESIAN_POINT('',(39.373810018857,7.980472009631,
    58.516568187371));
#182 = CARTESIAN_POINT('',(41.560741113138,7.980472009633,61.08659628169
    ));
#183 = CARTESIAN_POINT('',(43.827946262224,7.98047200963,63.60449918369)
  );
#184 = CARTESIAN_POINT('',(46.192490499809,7.980472009632,
    66.055989678847));
#185 = CARTESIAN_POINT('',(48.671784252292,7.980472009631,
    68.425723569943));
#186 = CARTESIAN_POINT('',(51.283109550411,7.980472009632,
    70.697027866908));
#187 = CARTESIAN_POINT('',(54.561529764615,7.980472009632,
    73.257043117006));
#188 = CARTESIAN_POINT('',(55.084002084436,7.980472009632,
    73.652913224176));
#189 = CARTESIAN_POINT('',(55.609407372381,7.980472009631,
    74.040208764405));
#190 = CARTESIAN_POINT('',(56.136975299367,7.980472009632,
    74.419545054021));
#191 = CARTESIAN_POINT('',(56.665957981687,7.980472009631,
    74.791523961793));
#192 = CARTESIAN_POINT('',(57.195628215242,7.980472009632,
    75.156731981425));
#193 = CARTESIAN_POINT('',(57.72527770968,7.980472009631,75.515738304003
    ));
#194 = CARTESIAN_POINT('',(58.254215322627,7.980472009632,
    75.869092890491));
#195 = CARTESIAN_POINT('',(59.818402477796,7.980472009631,
    76.901600727572));
#196 = CARTESIAN_POINT('',(61.364569471991,7.980472009632,
    77.893517514212));
#197 = CARTESIAN_POINT('',(62.376327041701,7.980472009631,
    78.536913494025));
#198 = CARTESIAN_POINT('',(63.370396477474,7.980472009633,
    79.169855909739));
#199 = CARTESIAN_POINT('',(64.34223595746,7.98047200963,79.79556474185)
  );
#200 = CARTESIAN_POINT('',(65.287595091887,7.980472009633,
    80.416949958727));
#201 = CARTESIAN_POINT('',(66.202675123905,7.98047200963,81.036656070728
    ));
#202 = CARTESIAN_POINT('',(67.084300883576,7.980472009632,
    81.657226482018));
#203 = CARTESIAN_POINT('',(67.93003824094,7.980472009631,82.281458533719
    ));
#204 = CARTESIAN_POINT('',(70.3228956581,7.980472009632,84.151448095399)
  );
#205 = CARTESIAN_POINT('',(71.768662402999,7.980472009632,
    85.455936200733));
#206 = CARTESIAN_POINT('',(73.0712889393,7.980472009631,86.843161566606)
  );
#207 = CARTESIAN_POINT('',(74.228512004597,7.980472009632,
    88.339767294093));
#208 = CARTESIAN_POINT('',(75.23772229281,7.98047200963,89.976294733955)
  );
#209 = CARTESIAN_POINT('',(76.087069002809,7.980472009633,
    91.822593589486));
#210 = CARTESIAN_POINT('',(76.716106050076,7.98047200963,93.914190519872
    ));
#211 = CARTESIAN_POINT('',(77.090187888087,7.980472009632,
    96.267347690499));
#212 = CARTESIAN_POINT('',(77.174010593119,7.980472009631,
    98.892928134139));
#213 = CARTESIAN_POINT('',(76.940050331899,7.980472009632,
    101.79786694513));
#214 = CARTESIAN_POINT('',(-11.54629106823,1.453004383478E-14,0.));
#215 = CARTESIAN_POINT('',(-8.003973038477,1.382227665658E-14,
    4.452395714887));
#216 = CARTESIAN_POINT('',(-4.484414001792,1.751376821346E-14,
    9.039446058718));
#217 = CARTESIAN_POINT('',(-0.979055162962,7.396860901565E-15,
    13.738910314279));
#218 = CARTESIAN_POINT('',(2.521319960344,2.66314748032E-14,
    18.528973025606));
#219 = CARTESIAN_POINT('',(6.026430020556,2.262079412674E-15,
    23.388279363306));
#220 = CARTESIAN_POINT('',(9.546392903876,2.620126338115E-14,
    28.295945261739));
#221 = CARTESIAN_POINT('',(13.091675375052,9.853229343548E-15,
    33.231542327763));
#222 = CARTESIAN_POINT('',(16.673095302808,1.874889132836E-14,
    38.175057521517));
#223 = CARTESIAN_POINT('',(20.301876466321,1.530719995202E-14,
    43.106827608665));
#224 = CARTESIAN_POINT('',(26.015340531304,1.694477891334E-14,
    50.699136652622));
#225 = CARTESIAN_POINT('',(28.058884495202,1.197653087814E-14,
    53.427181476834));
#226 = CARTESIAN_POINT('',(30.136209635883,2.678413046908E-14,
    56.178295363537));
#227 = CARTESIAN_POINT('',(32.264390550412,-1.998401444325E-15,
    58.939156980718));
#228 = CARTESIAN_POINT('',(34.461871718377,3.92463839205E-14,
    61.69665213842));
#229 = CARTESIAN_POINT('',(36.748608811298,-5.453970608471E-15,
    64.437199018372));
#230 = CARTESIAN_POINT('',(39.145992707194,3.046174423815E-14,
    67.145609892375));
#231 = CARTESIAN_POINT('',(41.676314693415,1.003364058505E-14,
    69.803941568807));
#232 = CARTESIAN_POINT('',(44.361531340724,1.734723475977E-14,
    72.390786806716));
#233 = CARTESIAN_POINT('',(47.758607247018,1.619537837172E-14,
    75.349638362265));
#234 = CARTESIAN_POINT('',(48.298339462513,1.516842207394E-14,
    75.801150601192));
#235 = CARTESIAN_POINT('',(48.83926601698,1.863786902589E-14,
    76.236789972898));
#236 = CARTESIAN_POINT('',(49.380431865779,1.197653087814E-14,
    76.657320764917));
#237 = CARTESIAN_POINT('',(49.920940477502,2.102484852884E-14,
    77.063472208186));
#238 = CARTESIAN_POINT('',(50.459949230639,1.205979760499E-14,
    77.455933452107));
#239 = CARTESIAN_POINT('',(50.996664810268,1.86517468137E-14,
    77.835348539697));
#240 = CARTESIAN_POINT('',(51.530338604728,1.483535516655E-14,
    78.202311382642));
#241 = CARTESIAN_POINT('',(53.101563272245,1.948441408217E-14,
    79.255033719769));
#242 = CARTESIAN_POINT('',(54.633901534793,1.557087792037E-14,
    80.207228956706));
#243 = CARTESIAN_POINT('',(55.627249610171,1.952604744559E-14,
    80.797788599508));
#244 = CARTESIAN_POINT('',(56.594020766553,1.534883331544E-14,
    81.350676730366));
#245 = CARTESIAN_POINT('',(57.530365374275,1.872113575274E-14,
    81.867915794849));
#246 = CARTESIAN_POINT('',(58.433193542226,1.582067810091E-14,
    82.350720063261));
#247 = CARTESIAN_POINT('',(59.300592747641,1.867950238932E-14,
    82.799611779796));
#248 = CARTESIAN_POINT('',(60.132276105513,1.636191182541E-14,
    83.214849613239));
#249 = CARTESIAN_POINT('',(60.929888558664,1.766642387935E-14,
    83.59735422446));
#250 = CARTESIAN_POINT('',(63.201222271596,1.620925615953E-14,
    84.642437392783));
#251 = CARTESIAN_POINT('',(64.602706084135,2.163547119238E-14,
    85.31970479457));
#252 = CARTESIAN_POINT('',(65.919981922974,8.076872504148E-15,
    86.002697039462));
#253 = CARTESIAN_POINT('',(67.176636386147,2.986499936242E-14,
    86.73797366248));
#254 = CARTESIAN_POINT('',(68.395353965116,5.620504062165E-15,
    87.582256602129));
#255 = CARTESIAN_POINT('',(69.57472736477,2.467470672229E-14,
    88.694741309232));
#256 = CARTESIAN_POINT('',(70.586665542796,1.440514374451E-14,
    90.145145994943));
#257 = CARTESIAN_POINT('',(71.370337252777,1.784683512085E-14,
    91.952967982902));
#258 = CARTESIAN_POINT('',(71.863194914925,1.727784582073E-14,
    94.123629520043));
#259 = CARTESIAN_POINT('',(72.022972979889,1.727784582073E-14,
    96.652313053736));
#260 = CARTESIAN_POINT('',(-4.429102400302,-7.980472009632,
    7.105427357601E-15));
#261 = CARTESIAN_POINT('',(-0.886784370544,-7.980472009631,
    4.540699076694));
#262 = CARTESIAN_POINT('',(2.631557349699,-7.980472009632,9.19403627728)
  );
#263 = CARTESIAN_POINT('',(6.13550267075,-7.980472009631,13.938976511888
    ));
#264 = CARTESIAN_POINT('',(9.634883788564,-7.980472009633,
    18.754647818831));
#265 = CARTESIAN_POINT('',(13.139725529189,-7.980472009629,
    23.620354930605));
#266 = CARTESIAN_POINT('',(16.660205862821,-7.980472009634,
    28.515583162426));
#267 = CARTESIAN_POINT('',(20.206636587834,-7.98047200963,33.41999262333
    ));
#268 = CARTESIAN_POINT('',(23.789464184403,-7.980472009632,
    38.313402749889));
#269 = CARTESIAN_POINT('',(27.419290838031,-7.980472009631,
    43.175767162418));
#270 = CARTESIAN_POINT('',(33.13236033671,-7.980472009632,
    50.629806640352));
#271 = CARTESIAN_POINT('',(35.175291699666,-7.980472009632,
    53.274641822235));
#272 = CARTESIAN_POINT('',(37.250638484114,-7.980472009632,
    55.908086095849));
#273 = CARTESIAN_POINT('',(39.373810018857,-7.980472009632,
    58.516568187369));
#274 = CARTESIAN_POINT('',(41.560741113137,-7.980472009632,
    61.086596281691));
#275 = CARTESIAN_POINT('',(43.827946262225,-7.980472009631,
    63.604499183689));
#276 = CARTESIAN_POINT('',(46.192490499808,-7.980472009632,
    66.055989678848));
#277 = CARTESIAN_POINT('',(48.671784252293,-7.980472009631,
    68.425723569943));
#278 = CARTESIAN_POINT('',(51.283109550411,-7.980472009632,
    70.697027866908));
#279 = CARTESIAN_POINT('',(54.561529764615,-7.980472009631,
    73.257043117006));
#280 = CARTESIAN_POINT('',(55.084002084436,-7.980472009632,
    73.652913224177));
#281 = CARTESIAN_POINT('',(55.609407372381,-7.980472009631,
    74.040208764403));
#282 = CARTESIAN_POINT('',(56.136975299367,-7.980472009633,
    74.419545054024));
#283 = CARTESIAN_POINT('',(56.665957981686,-7.98047200963,74.79152396179
    ));
#284 = CARTESIAN_POINT('',(57.195628215242,-7.980472009633,
    75.156731981428));
#285 = CARTESIAN_POINT('',(57.72527770968,-7.980472009631,
    75.515738304002));
#286 = CARTESIAN_POINT('',(58.254215322627,-7.980472009632,
    75.869092890491));
#287 = CARTESIAN_POINT('',(59.818402477795,-7.980472009631,
    76.901600727572));
#288 = CARTESIAN_POINT('',(61.364569471992,-7.980472009632,
    77.893517514213));
#289 = CARTESIAN_POINT('',(62.376327041699,-7.980472009631,
    78.536913494024));
#290 = CARTESIAN_POINT('',(63.370396477477,-7.980472009632,
    79.16985590974));
#291 = CARTESIAN_POINT('',(64.342235957456,-7.980472009631,
    79.795564741848));
#292 = CARTESIAN_POINT('',(65.287595091891,-7.980472009632,
    80.416949958729));
#293 = CARTESIAN_POINT('',(66.202675123903,-7.980472009631,
    81.036656070727));
#294 = CARTESIAN_POINT('',(67.084300883577,-7.980472009632,
    81.657226482019));
#295 = CARTESIAN_POINT('',(67.93003824094,-7.980472009631,
    82.281458533719));
#296 = CARTESIAN_POINT('',(70.3228956581,-7.980472009632,84.151448095399
    ));
#297 = CARTESIAN_POINT('',(71.768662403,-7.980472009631,85.455936200732)
  );
#298 = CARTESIAN_POINT('',(73.071288939297,-7.980472009632,
    86.84316156661));
#299 = CARTESIAN_POINT('',(74.228512004601,-7.98047200963,
    88.339767294087));
#300 = CARTESIAN_POINT('',(75.237722292805,-7.980472009633,
    89.976294733963));
#301 = CARTESIAN_POINT('',(76.087069002813,-7.98047200963,
    91.822593589478));
#302 = CARTESIAN_POINT('',(76.716106050073,-7.980472009633,
    93.914190519877));
#303 = CARTESIAN_POINT('',(77.090187888088,-7.980472009631,
    96.267347690496));
#304 = CARTESIAN_POINT('',(77.174010593119,-7.980472009632,
    98.89292813414));
#305 = CARTESIAN_POINT('',(76.940050331899,-7.980472009632,
    101.79786694513));
#306 = CARTESIAN_POINT('',(4.2,-6.978480917398,7.105427357601E-15));
#307 = CARTESIAN_POINT('',(7.742318029758,-6.978480917398,4.647760837577
    ));
#308 = CARTESIAN_POINT('',(11.259183837431,-6.978480917398,
    9.381466298922));
#309 = CARTESIAN_POINT('',(14.761415365261,-6.978480917399,
    14.181543034506));
#310 = CARTESIAN_POINT('',(18.259591319695,-6.978480917398,
    19.028263004656));
#311 = CARTESIAN_POINT('',(21.764107741249,-6.978480917399,
    23.901730615339));
#312 = CARTESIAN_POINT('',(25.285215447842,-6.978480917398,
    28.781879030705));
#313 = CARTESIAN_POINT('',(28.833038351763,-6.978480917398,
    33.648475662585));
#314 = CARTESIAN_POINT('',(32.417572650078,-6.978480917398,
    38.481136836748));
#315 = CARTESIAN_POINT('',(36.04866688866,-6.978480917398,
    43.259351636081));
#316 = CARTESIAN_POINT('',(41.761258002797,-6.978480917398,
    50.545748762557));
#317 = CARTESIAN_POINT('',(43.80344662919,-6.978480917398,
    53.089697968552));
#318 = CARTESIAN_POINT('',(45.87639479259,-6.978480917399,
    55.580475918688));
#319 = CARTESIAN_POINT('',(47.993492798426,-6.978480917398,
    58.004208301865));
#320 = CARTESIAN_POINT('',(50.167632653014,-6.978480917399,
    60.346945458418));
#321 = CARTESIAN_POINT('',(52.411156661802,-6.978480917398,
    62.594907829935));
#322 = CARTESIAN_POINT('',(54.735885069341,-6.978480917399,
    64.734900012876));
#323 = CARTESIAN_POINT('',(57.153310593407,-6.978480917398,
    66.754728912218));
#324 = CARTESIAN_POINT('',(59.675047706018,-6.978480917398,
    68.643461491903));
#325 = CARTESIAN_POINT('',(62.809606043688,-6.978480917398,
    70.719915116582));
#326 = CARTESIAN_POINT('',(63.311151925536,-6.978480917399,
    71.048322960896));
#327 = CARTESIAN_POINT('',(63.817738743939,-6.978480917398,
    71.37700492606));
#328 = CARTESIAN_POINT('',(64.328820124723,-6.978480917399,
    71.706395711046));
#329 = CARTESIAN_POINT('',(64.843828409331,-6.978480917398,
    72.036942766743));
#330 = CARTESIAN_POINT('',(65.362176329325,-6.978480917399,
    72.369108123872));
#331 = CARTESIAN_POINT('',(65.883258680822,-6.978480917398,
    72.703370220693));
#332 = CARTESIAN_POINT('',(66.406453998998,-6.978480917398,
    73.040225730939));
#333 = CARTESIAN_POINT('',(67.962108653831,-6.978480917398,
    74.048224875192));
#334 = CARTESIAN_POINT('',(69.525042035295,-6.978480917398,
    75.088301312484));
#335 = CARTESIAN_POINT('',(70.559119852381,-6.978480917399,
    75.795757721751));
#336 = CARTESIAN_POINT('',(71.586286576882,-6.978480917398,
    76.525760459133));
#337 = CARTESIAN_POINT('',(72.601161151437,-6.978480917399,
    77.282981434038));
#338 = CARTESIAN_POINT('',(73.598086161389,-6.978480917398,
    78.072386532165));
#339 = CARTESIAN_POINT('',(74.570975920601,-6.978480917399,
    78.899193365937));
#340 = CARTESIAN_POINT('',(75.51315341205,-6.978480917398,
    79.768715424138));
#341 = CARTESIAN_POINT('',(76.417238910211,-6.978480917398,
    80.686025393851));
#342 = CARTESIAN_POINT('',(78.957435471626,-6.978480917398,
    83.556157296987));
#343 = CARTESIAN_POINT('',(80.456892230347,-6.978480917398,
    85.621107423354));
#344 = CARTESIAN_POINT('',(81.741757493523,-6.978480917399,
    87.862167076642));
#345 = CARTESIAN_POINT('',(82.778426818589,-6.978480917398,
    90.281832049736));
#346 = CARTESIAN_POINT('',(83.533623907182,-6.978480917399,
    92.878901529098));
#347 = CARTESIAN_POINT('',(83.982835924616,-6.978480917397,
    95.614899635949));
#348 = CARTESIAN_POINT('',(84.1476316512,-6.978480917399,98.483898121345
    ));
#349 = CARTESIAN_POINT('',(84.025113903038,-6.978480917398,
    101.49823674341));
#350 = CARTESIAN_POINT('',(83.613009818015,-6.978480917399,
    104.67537511409));
#351 = CARTESIAN_POINT('',(82.901668881069,-6.978480917398,
    108.03649760491));
#352 = CARTESIAN_POINT('',(4.2,-5.134781488891E-16,1.42108547152E-14));
#353 = CARTESIAN_POINT('',(7.742318029758,-1.929012505286E-15,
    4.647760837577));
#354 = CARTESIAN_POINT('',(11.259183837431,5.537237335318E-15,
    9.381466298923));
#355 = CARTESIAN_POINT('',(14.761415365259,-1.454392162259E-14,
    14.181543034504));
#356 = CARTESIAN_POINT('',(18.259591319699,2.099709295322E-14,
    19.02826300466));
#357 = CARTESIAN_POINT('',(21.764107741243,-2.448041769298E-14,
    23.901730615333));
#358 = CARTESIAN_POINT('',(25.285215447848,1.7763568394E-14,
    28.781879030711));
#359 = CARTESIAN_POINT('',(28.833038351759,-1.179611963664E-14,
    33.648475662582));
#360 = CARTESIAN_POINT('',(32.417572650079,3.025357742104E-15,
    38.48113683675));
#361 = CARTESIAN_POINT('',(36.04866688866,-1.956768080902E-15,
    43.25935163608));
#362 = CARTESIAN_POINT('',(41.761258002797,-8.326672684689E-16,
    50.545748762557));
#363 = CARTESIAN_POINT('',(43.80344662919,-1.124100812433E-15,
    53.089697968552));
#364 = CARTESIAN_POINT('',(45.876394792588,-1.471045507628E-15,
    55.580475918688));
#365 = CARTESIAN_POINT('',(47.993492798429,-7.49400541622E-16,
    58.004208301866));
#366 = CARTESIAN_POINT('',(50.16763265301,-4.857225732735E-16,
    60.346945458417));
#367 = CARTESIAN_POINT('',(52.411156661806,-3.053113317719E-15,
    62.594907829936));
#368 = CARTESIAN_POINT('',(54.735885069338,1.151856388049E-15,
    64.734900012876));
#369 = CARTESIAN_POINT('',(57.153310593408,-2.817190924986E-15,
    66.754728912219));
#370 = CARTESIAN_POINT('',(59.675047706017,-2.636779683485E-16,
    68.643461491903));
#371 = CARTESIAN_POINT('',(62.809606043688,-1.595945597899E-15,
    70.719915116582));
#372 = CARTESIAN_POINT('',(63.311151925537,2.900457651833E-15,
    71.048322960897));
#373 = CARTESIAN_POINT('',(63.817738743937,-1.211530875622E-14,
    71.377004926058));
#374 = CARTESIAN_POINT('',(64.328820124726,1.744437927442E-14,
    71.706395711049));
#375 = CARTESIAN_POINT('',(64.843828409328,-2.321753900247E-14,
    72.036942766739));
#376 = CARTESIAN_POINT('',(65.362176329328,1.755540157689E-14,
    72.369108123874));
#377 = CARTESIAN_POINT('',(65.88325868082,-1.17128529098E-14,
    72.703370220692));
#378 = CARTESIAN_POINT('',(66.406453998999,2.081668171172E-15,
    73.040225730939));
#379 = CARTESIAN_POINT('',(67.96210865383,-6.508682481865E-15,
    74.048224875192));
#380 = CARTESIAN_POINT('',(69.525042035296,4.871103520543E-15,
    75.088301312484));
#381 = CARTESIAN_POINT('',(70.559119852378,-1.791622405989E-14,
    75.795757721751));
#382 = CARTESIAN_POINT('',(71.586286576887,2.500777362968E-14,
    76.525760459133));
#383 = CARTESIAN_POINT('',(72.601161151432,-3.12527781432E-14,
    77.282981434038));
#384 = CARTESIAN_POINT('',(73.598086161394,2.216282712908E-14,
    78.072386532165));
#385 = CARTESIAN_POINT('',(74.570975920598,-1.471045507628E-14,
    78.899193365937));
#386 = CARTESIAN_POINT('',(75.513153412051,3.289035710452E-15,
    79.768715424137));
#387 = CARTESIAN_POINT('',(76.417238910211,-2.206568261442E-15,
    80.686025393851));
#388 = CARTESIAN_POINT('',(78.957435471625,-1.318389841742E-15,
    83.556157296986));
#389 = CARTESIAN_POINT('',(80.45689223035,-3.885780586188E-16,
    85.621107423358));
#390 = CARTESIAN_POINT('',(81.741757493515,-4.76008121808E-15,
    87.862167076632));
#391 = CARTESIAN_POINT('',(82.778426818601,3.524958103185E-15,
    90.281832049754));
#392 = CARTESIAN_POINT('',(83.533623907167,-6.328271240363E-15,
    92.878901529076));
#393 = CARTESIAN_POINT('',(83.982835924628,1.151856388049E-15,
    95.614899635969));
#394 = CARTESIAN_POINT('',(84.147631651194,-2.012279232133E-15,
    98.483898121333));
#395 = CARTESIAN_POINT('',(84.025113903041,-1.734723475977E-15,
    101.49823674341));
#396 = CARTESIAN_POINT('',(83.613009818014,-1.387778780781E-15,
    104.67537511409));
#397 = CARTESIAN_POINT('',(82.901668881069,-1.512678871052E-15,
    108.03649760491));
#398 = DEFINITIONAL_REPRESENTATION('',(#399),#402);
#399 = B_SPLINE_CURVE_WITH_KNOTS('',1,(#400,#401),.UNSPECIFIED.,.F.,.F.,
  (2,2),(0.,134.52098428368),.PIECEWISE_BEZIER_KNOTS.);
#400 = CARTESIAN_POINT('',(6.28318530718,0.));
#401 = CARTESIAN_POINT('',(6.28318530718,134.52098428368));
#402 = ( GEOMETRIC_REPRESENTATION_CONTEXT(2) 
PARAMETRIC_REPRESENTATION_CONTEXT() REPRESENTATION_CONTEXT('2D SPACE',''
  ) );
#403 = PCURVE('',#75,#404);
#404 = DEFINITIONAL_REPRESENTATION('',(#405),#409);
#405 = LINE('',#406,#407);
#406 = CARTESIAN_POINT('',(0.,0.));
#407 = VECTOR('',#408,1.);
#408 = DIRECTION('',(0.,1.));
#409 = ( GEOMETRIC_REPRESENTATION_CONTEXT(2) 
PARAMETRIC_REPRESENTATION_CONTEXT() REPRESENTATION_CONTEXT('2D SPACE',''
  ) );
#410 = ORIENTED_EDGE('',*,*,#411,.F.);
#411 = EDGE_CURVE('',#24,#24,#412,.T.);
#412 = SURFACE_CURVE('',#413,(#421,#428),.PCURVE_S1.);
#413 = ( BOUNDED_CURVE() B_SPLINE_CURVE(6,(#414,#415,#416,#417,#418,#419
,#420),.UNSPECIFIED.,.T.,.F.) B_SPLINE_CURVE_WITH_KNOTS((1,6,6,1),(
    -6.28318530718,0.,6.28318530718,12.566370614359),.UNSPECIFIED.) 
CURVE() GEOMETRIC_REPRESENTATION_ITEM() RATIONAL_B_SPLINE_CURVE((
    1.669078461068,1.03672962321,1.038346699848,0.853534330196,
1.038346699848,1.03672962321,1.669078461068)) REPRESENTATION_ITEM('') );
#414 = CARTESIAN_POINT('',(82.901668881069,-1.512678871052E-15,
    108.03649760491));
#415 = CARTESIAN_POINT('',(82.901668881069,6.978480917398,
    108.03649760491));
#416 = CARTESIAN_POINT('',(76.940050331899,7.980472009632,
    101.79786694513));
#417 = CARTESIAN_POINT('',(72.022972979889,1.727784582073E-14,
    96.652313053736));
#418 = CARTESIAN_POINT('',(76.940050331899,-7.980472009632,
    101.79786694513));
#419 = CARTESIAN_POINT('',(82.901668881069,-6.978480917398,
    108.03649760491));
#420 = CARTESIAN_POINT('',(82.901668881069,-1.512678871052E-15,
    108.03649760491));
#421 = PCURVE('',#75,#422);
#422 = DEFINITIONAL_REPRESENTATION('',(#423),#427);
#423 = LINE('',#424,#425);
#424 = CARTESIAN_POINT('',(0.,134.52098428368));
#425 = VECTOR('',#426,1.);
#426 = DIRECTION('',(1.,0.));
#427 = ( GEOMETRIC_REPRESENTATION_CONTEXT(2) 
PARAMETRIC_REPRESENTATION_CONTEXT() REPRESENTATION_CONTEXT('2D SPACE',''
  ) );
#428 = PCURVE('',#429,#434);
#429 = PLANE('',#430);
#430 = AXIS2_PLACEMENT_3D('',#431,#432,#433);
#431 = CARTESIAN_POINT('',(80.000459691771,-6.822414680243E-15,
    105.00048105177));
#432 = DIRECTION('',(-0.722975620217,-3.957676472023E-15,0.690873543112)
  );
#433 = DIRECTION('',(-0.690873543112,0.,-0.722975620217));
#434 = DEFINITIONAL_REPRESENTATION('',(#435),#443);
#435 = ( BOUNDED_CURVE() B_SPLINE_CURVE(6,(#436,#437,#438,#439,#440,#441
,#442),.UNSPECIFIED.,.T.,.F.) B_SPLINE_CURVE_WITH_KNOTS((1,6,6,1),(
    -6.28318530718,0.,6.28318530718,12.566370614359),.UNSPECIFIED.) 
CURVE() GEOMETRIC_REPRESENTATION_ITEM() RATIONAL_B_SPLINE_CURVE((
    1.669078461068,1.03672962321,1.038346699848,0.853534330196,
1.038346699848,1.03672962321,1.669078461068)) REPRESENTATION_ITEM('') );
#436 = CARTESIAN_POINT('',(-4.199334622414,-5.309735809191E-15));
#437 = CARTESIAN_POINT('',(-4.199334622414,-6.978480917398));
#438 = CARTESIAN_POINT('',(4.429767777889,-7.980472009632));
#439 = CARTESIAN_POINT('',(11.546956445822,-2.410026050097E-14));
#440 = CARTESIAN_POINT('',(4.429767777889,7.980472009632));
#441 = CARTESIAN_POINT('',(-4.199334622414,6.978480917398));
#442 = CARTESIAN_POINT('',(-4.199334622414,-5.309735809191E-15));
#443 = ( GEOMETRIC_REPRESENTATION_CONTEXT(2) 
PARAMETRIC_REPRESENTATION_CONTEXT() REPRESENTATION_CONTEXT('2D SPACE',''
  ) );
#444 = ORIENTED_EDGE('',*,*,#21,.F.);
#445 = ORIENTED_EDGE('',*,*,#446,.T.);
#446 = EDGE_CURVE('',#22,#22,#447,.T.);
#447 = SURFACE_CURVE('',#448,(#456,#463),.PCURVE_S1.);
#448 = ( BOUNDED_CURVE() B_SPLINE_CURVE(6,(#449,#450,#451,#452,#453,#454
,#455),.UNSPECIFIED.,.T.,.F.) B_SPLINE_CURVE_WITH_KNOTS((1,6,6,1),(
    -6.28318530718,0.,6.28318530718,12.566370614359),.UNSPECIFIED.) 
CURVE() GEOMETRIC_REPRESENTATION_ITEM() RATIONAL_B_SPLINE_CURVE((
    1.669078461068,1.03672962321,1.038346699848,0.853534330196,
1.038346699848,1.03672962321,1.669078461068)) REPRESENTATION_ITEM('') );
#449 = CARTESIAN_POINT('',(4.2,-5.134781488891E-16,1.42108547152E-14));
#450 = CARTESIAN_POINT('',(4.2,6.978480917398,0.));
#451 = CARTESIAN_POINT('',(-4.429102400302,7.980472009632,0.));
#452 = CARTESIAN_POINT('',(-11.54629106823,1.453004383478E-14,0.));
#453 = CARTESIAN_POINT('',(-4.429102400302,-7.980472009632,
    7.105427357601E-15));
#454 = CARTESIAN_POINT('',(4.2,-6.978480917398,7.105427357601E-15));
#455 = CARTESIAN_POINT('',(4.2,-5.134781488891E-16,1.42108547152E-14));
#456 = PCURVE('',#75,#457);
#457 = DEFINITIONAL_REPRESENTATION('',(#458),#462);
#458 = LINE('',#459,#460);
#459 = CARTESIAN_POINT('',(0.,0.));
#460 = VECTOR('',#461,1.);
#461 = DIRECTION('',(1.,0.));
#462 = ( GEOMETRIC_REPRESENTATION_CONTEXT(2) 
PARAMETRIC_REPRESENTATION_CONTEXT() REPRESENTATION_CONTEXT('2D SPACE',''
  ) );
#463 = PCURVE('',#464,#469);
#464 = PLANE('',#465);
#465 = AXIS2_PLACEMENT_3D('',#466,#467,#468);
#466 = CARTESIAN_POINT('',(6.653775864326E-04,-7.476163670866E-16,
    7.111161773541E-15));
#467 = DIRECTION('',(-1.177488285875E-15,4.806735398516E-16,1.));
#468 = DIRECTION('',(1.,0.,1.177488285875E-15));
#469 = DEFINITIONAL_REPRESENTATION('',(#470),#478);
#470 = ( BOUNDED_CURVE() B_SPLINE_CURVE(6,(#471,#472,#473,#474,#475,#476
,#477),.UNSPECIFIED.,.T.,.F.) B_SPLINE_CURVE_WITH_KNOTS((1,6,6,1),(
    -6.28318530718,0.,6.28318530718,12.566370614359),.UNSPECIFIED.) 
CURVE() GEOMETRIC_REPRESENTATION_ITEM() RATIONAL_B_SPLINE_CURVE((
    1.669078461068,1.03672962321,1.038346699848,0.853534330196,
1.038346699848,1.03672962321,1.669078461068)) REPRESENTATION_ITEM('') );
#471 = CARTESIAN_POINT('',(4.199334622414,2.341382181974E-16));
#472 = CARTESIAN_POINT('',(4.199334622414,6.978480917398));
#473 = CARTESIAN_POINT('',(-4.429767777889,7.980472009632));
#474 = CARTESIAN_POINT('',(-11.54695644582,1.527766020187E-14));
#475 = CARTESIAN_POINT('',(-4.429767777889,-7.980472009632));
#476 = CARTESIAN_POINT('',(4.199334622414,-6.978480917398));
#477 = CARTESIAN_POINT('',(4.199334622414,2.341382181974E-16));
#478 = ( GEOMETRIC_REPRESENTATION_CONTEXT(2) 
PARAMETRIC_REPRESENTATION_CONTEXT() REPRESENTATION_CONTEXT('2D SPACE',''
  ) );
#479 = ADVANCED_FACE('',(#480),#464,.F.);
#480 = FACE_BOUND('',#481,.F.);
#481 = EDGE_LOOP('',(#482));
#482 = ORIENTED_EDGE('',*,*,#446,.T.);
#483 = ADVANCED_FACE('',(#484),#429,.T.);
#484 = FACE_BOUND('',#485,.T.);
#485 = EDGE_LOOP('',(#486));
#486 = ORIENTED_EDGE('',*,*,#411,.T.);
#487 = ( GEOMETRIC_REPRESENTATION_CONTEXT(3) 
GLOBAL_UNCERTAINTY_ASSIGNED_CONTEXT((#491)) GLOBAL_UNIT_ASSIGNED_CONTEXT
((#488,#489,#490)) REPRESENTATION_CONTEXT('Context #1',
  '3D Context with UNIT and UNCERTAINTY') );
#488 = ( LENGTH_UNIT() NAMED_UNIT(*) SI_UNIT(.MILLI.,.METRE.) );
#489 = ( NAMED_UNIT(*) PLANE_ANGLE_UNIT() SI_UNIT($,.RADIAN.) );
#490 = ( NAMED_UNIT(*) SI_UNIT($,.STERADIAN.) SOLID_ANGLE_UNIT() );
#491 = UNCERTAINTY_MEASURE_WITH_UNIT(LENGTH_MEASURE(1.E-05),#488,
  'distance_accuracy_value','confusion accuracy');
#492 = PRODUCT_RELATED_PRODUCT_CATEGORY('part',$,(#7));
ENDSEC;
END-ISO-10303-21;
